<svg xmlns="http://www.w3.org/2000/svg" width="1066.576" height="578.339" viewBox="0 0 1066.576 578.339">
  <g id="Group_779" data-name="Group 779" transform="translate(-3080.983 -3566.273)">
    <path id="Path_3747" data-name="Path 3747" d="M4119.62,3885.521s1.238,10.686,14.565,6.186,11.292-22.25,7.184-55.375-10.474-87.62-31.732-82.25c-23.75,6,3,51.125,1.75,87.375" fill="#fff" stroke="#000" stroke-linecap="round" stroke-linejoin="round" stroke-width="2.6"/>
    <path id="Path_3748" data-name="Path 3748" d="M4115.524,3885.521s1.238,10.686,14.565,6.186,11.292-22.25,7.184-55.375-10.474-87.62-31.732-82.25c-23.75,6,3,51.125,1.75,87.375" fill="#fff" stroke="#000" stroke-linecap="round" stroke-linejoin="round" stroke-width="2.6"/>
    <path id="Path_3749" data-name="Path 3749" d="M3383.03,3767.593,3424.3,3884.07l139.427-81.4-6.657-40.369,56.191-40.482,76.7-5.572-47.215-39.232Z" fill="#fff"/>
    <line id="Line_249" data-name="Line 249" x2="1053.064" transform="translate(3094.495 4143.312)" stroke="#000" stroke-miterlimit="10" stroke-width="2.6"/>
    <path id="Path_3750" data-name="Path 3750" d="M3934.9,3965.277c3.7,22.393,2.342,41.6-.662,58.942-2.973,17.171-1.283,38.93-1.283,38.93l76.515-6.108-19-146.415s-64.222-12.688-68.663-10.416" stroke="#000" stroke-miterlimit="10" stroke-width="2.6"/>
    <path id="Path_3751" data-name="Path 3751" d="M3178.552,3937.891s1.812-5.094,11.095-3.315c9.205,1.765,18.825,13.04,41.982,9.583l-28.792,26.009Z" stroke="#000" stroke-linecap="round" stroke-linejoin="round" stroke-width="2.6"/>
    <g id="Group_767" data-name="Group 767">
      <circle id="Ellipse_322" data-name="Ellipse 322" cx="11.357" cy="11.357" r="11.357" transform="translate(3191.327 3931.421)" fill="#fff" stroke="#000" stroke-miterlimit="10" stroke-width="2.6"/>
      <ellipse id="Ellipse_323" data-name="Ellipse 323" cx="6.286" cy="7.656" rx="6.286" ry="7.656" transform="matrix(0.71, -0.704, 0.704, 0.71, 3196.224, 3938.828)" fill="#fff" stroke="#000" stroke-miterlimit="10" stroke-width="2.6"/>
      <ellipse id="Ellipse_324" data-name="Ellipse 324" cx="2.205" cy="2.896" rx="2.205" ry="2.896" transform="matrix(0.71, -0.704, 0.704, 0.71, 3203.204, 3938.868)" stroke="#000" stroke-miterlimit="10" stroke-width="2.6"/>
    </g>
    <path id="Path_3752" data-name="Path 3752" d="M3198.378,3965.277l-30.847-42.018,78.57,7.794-37.791,34.224" fill="none" stroke="#000" stroke-miterlimit="10" stroke-width="2.6"/>
    <path id="Path_3753" data-name="Path 3753" d="M3369.982,3688.4c3.462,6.955-56.634,43.9-134.227,82.517s-143.3,64.285-146.762,57.33,46.783-61.049,124.375-99.667S3366.521,3681.44,3369.982,3688.4Z" stroke="#000" stroke-miterlimit="10" stroke-width="2.6"/>
    <ellipse id="Ellipse_325" data-name="Ellipse 325" cx="156.933" cy="14.067" rx="156.933" ry="14.067" transform="translate(3082.726 3815.648) rotate(-26.459)" fill="#fff" stroke="#000" stroke-miterlimit="10" stroke-width="2.6"/>
    <path id="Path_3754" data-name="Path 3754" d="M3223.22,3745.725l59.886,117.633V4143" fill="none" stroke="#000" stroke-miterlimit="10" stroke-width="2.6"/>
    <path id="Path_3755" data-name="Path 3755" d="M3557.072,3762.3s30.581-23.7,56.191-40.481c5.308-3.479,29.868,0,56.191-4.285" fill="none" stroke="#000" stroke-miterlimit="10" stroke-width="2.6"/>
    <path id="Path_3756" data-name="Path 3756" d="M3648.2,3685.293c-7.681,1.836-6.843,27.46,0,26.544,28.617-3.832,63.644,19.5,71.52,27.433s12.184-32.1,6.53-33.957S3658.18,3682.905,3648.2,3685.293Z" fill="#fff" stroke="#000" stroke-miterlimit="10" stroke-width="2.6"/>
    <path id="Path_3757" data-name="Path 3757" d="M3662.494,3712.578c.769,5.459,3.7,9.33,8.633,12.652,0,4.745,6.72,6.042,8.959,4.742,2.322,5.1,7.082,6.793,11.071,5.457,7.246,4.493,11.413,1.75,17.951-2.047-13.5-3.276,0-23.477-17.951-29.919C3683.182,3700.6,3659.945,3694.48,3662.494,3712.578Z" fill="#fff" stroke="#000" stroke-miterlimit="10" stroke-width="2.6"/>
    <path id="Path_3758" data-name="Path 3758" d="M3907.275,3881.577c-11.927-21.056-18.7-51-24.226-78.527-4.3-21.429-8.673-40.745-8.673-40.745s-20.513-4.149-19.071-17.639c2.259-21.142,23.925-19.574,39.263-60.311,8.354-22.189,48.522-26.189,39.217-3.9-1.669,4-8.01,9.6-10.449,16.061-3.512,9.3-6.418,37.6-10.533,49.69-2.208,6.489-.974,16.622,1.795,22.892l46.812,109.853c12.61,25.167,12.63,59.194-32.693,59.194l-15.52.034" fill="#fff" stroke="#000" stroke-miterlimit="10" stroke-width="2.6"/>
    <path id="Path_3759" data-name="Path 3759" d="M3225.216,3996.527s85.326,43.4,90.845,37.117c13.365-15.217,98.39-103.791,98.39-103.791l49.065,28.736s-101.662,108.142-131.079,115.812c-36.048,9.4-125.23-53.641-125.23-53.641s-14.921,1.789-19.844-3.16" fill="#fff" stroke="#000" stroke-miterlimit="10" stroke-width="2.6"/>
    <path id="Path_3760" data-name="Path 3760" d="M3207.635,3981.816s-3.148,15.966,7.621,20.274" fill="#fff" stroke="#000" stroke-miterlimit="10" stroke-width="2.6"/>
    <path id="Path_3761" data-name="Path 3761" d="M3200.171,3995.345l-3.979,42.3,15.049,8.529-31.952-3.666,17.113-5.093" fill="#fff" stroke="#000" stroke-miterlimit="10" stroke-width="2.6"/>
    <path id="Path_3762" data-name="Path 3762" d="M3755.337,3878.008" fill="#fff" stroke="#000" stroke-miterlimit="10" stroke-width="2.6"/>
    <g id="Group_768" data-name="Group 768">
      <path id="Path_3763" data-name="Path 3763" d="M3484.745,3780.323l13.271-21.062h11.829l12.513,18.613S3515.409,3786.973,3484.745,3780.323Z" fill="#fff" stroke="#000" stroke-miterlimit="10" stroke-width="2.6"/>
      <path id="Path_3764" data-name="Path 3764" d="M3394.977,3816.86c7.481,51.88-3.669,114.38,5.631,165.982l100.692-18.595c22.663-5.76-17.368-23.221-29.226-13.534-3.984-29.543,1.4-69.535-2.83-99.136,14.014-3.359,60.936-19.51,63.184-6.058,4.18,25.007,3.627,40.446,10.132,66.123l67.566-16.192c30.426-7.294-12.233-24.115-24.354-14.469,4.194-27.819.955-35.139.955-35.139" stroke="#000" stroke-linecap="round" stroke-linejoin="round" stroke-width="2.6"/>
      <path id="Path_3765" data-name="Path 3765" d="M3426.185,3816.41c-1.17,11.783-2,34.459-2,34.459l-28.116.312-.066,11.4,28.989.225s-.829,41.013-3.884,66.861c101.277-25.52,106.865-78.5,167.219-76.111,7.808-31.529-3.178-25.345-40-19.706" fill="#fff" stroke="#000" stroke-miterlimit="10" stroke-width="2.6"/>
      <path id="Path_3766" data-name="Path 3766" d="M3424,3771.1l-11.9,17.053c21.761-5.244,46.707,4.5,57.578,2.363,6.769-8.786,17.546-16.479,17.546-16.479l1.451,6.6c9.188,1.662,30.2,6.353,31.418-6.73a23.326,23.326,0,0,1,8.6,7.106c1.442,1.875.287,3.776,1.153,5.722.877,1.968,3.768,3.98,3.979,5.628a40.471,40.471,0,0,1,.212,10.691c-.329,2.545-2.55,5.217-3.743,8.224-.854,2.151-.425,4.509-1.886,6.96-5.4,9.057-50.685,19.85-63.317,21.586-36.358,5-93.795,16.425-114.74-31.426-23.468-53.615,64.259-101.807,86.63-100.181,142.983,10.391,120.1-69.846,240.8-30.629,0,0,11.7-7.849,25.934,3.05,11.518,8.817,18.058,21.638,6.277,21.638-11.03,0-14.707-9.768-14.707-9.768s-15.975,9.768-28.749-4.056c0,0-12.434-6.269-18.335-3.16s-5.451,11.009-5.451,11.009" fill="#fff" stroke="#000" stroke-miterlimit="10" stroke-width="2.6"/>
      <path id="Path_3767" data-name="Path 3767" d="M3429.006,3710.533c-.076-27.792-.014-72.227-.014-72.227-16.774.393-29.446-7.551-28.318-25.147.8-12.486,14.038-20.165,27.256-19.059-.663-9.658,1.57-21.324,12.353-24.773,21.187-6.776,37.458,8.61,37.458,8.61,15.123-12.955,30.9-12.024,41.4-5.1,8.243,5.436,6.522,19.174.724,26.905,14.94,3.631,24.08,13.322,21.878,25.536-3.433,19.041-25.868,15.562-25.868,15.562l-.039,66.794c-1.795,25.6-45.023,25.861-70.2,14.194A69.945,69.945,0,0,1,3429.006,3710.533Z" fill="#fff" stroke="#000" stroke-linecap="round" stroke-linejoin="round" stroke-width="2.6"/>
      <path id="Path_3768" data-name="Path 3768" d="M3399.285,3721.824c28.377,2.007,44.038,35.72,30.739,64.6" fill="none" stroke="#000" stroke-miterlimit="10" stroke-width="2.6"/>
      <path id="Path_3769" data-name="Path 3769" d="M3515.325,3706.939c13.491,5.766,22.981,39.16,22.981,39.16-18.216,8.47-60.479,15.023-83.695,13.08-5.347-20.213-27.875-41.425-48.641-41.894" fill="none" stroke="#000" stroke-miterlimit="10" stroke-width="2.6"/>
      <path id="Path_3770" data-name="Path 3770" d="M3494.832,3663.841c.118,4.525.457,12.96,6.914,12.492s6.208-8.945,6.1-13.448-.428-12.913-6.9-12.448S3494.714,3659.317,3494.832,3663.841Z" stroke="#000" stroke-linecap="round" stroke-linejoin="round" stroke-width="2.6"/>
      <path id="Path_3771" data-name="Path 3771" d="M3475.608,3664.326c.122,4.519.517,13.221,7,12.668s6.169-9,6.054-13.53-.428-13.017-6.947-12.646S3475.486,3659.807,3475.608,3664.326Z" stroke="#000" stroke-linecap="round" stroke-linejoin="round" stroke-width="2.6"/>
      <path id="Path_3772" data-name="Path 3772" d="M3467.944,3679.819s10.946,14.592,25.2,7.171" fill="#fff" stroke="#000" stroke-linecap="round" stroke-linejoin="round" stroke-width="2.6"/>
      <path id="Path_3773" data-name="Path 3773" d="M3365.888,3749.036s26.081-6.62,52.442,30.18" fill="#fff" stroke="#000" stroke-miterlimit="10" stroke-width="2.6"/>
      <path id="Path_3774" data-name="Path 3774" d="M3523.166,3701.233s40.166,20.591,41.246,121.1" fill="none" stroke="#000" stroke-miterlimit="10" stroke-width="2.6"/>
      <path id="Path_3775" data-name="Path 3775" d="M3519.265,3756.85c0,3.628-6.7,7.972-14.972,7.972s-14.972-4.344-14.972-7.972,6.7-5.166,14.972-5.166S3519.265,3753.222,3519.265,3756.85Z" fill="#fff" stroke="#000" stroke-miterlimit="10" stroke-width="2.6"/>
      <path id="Path_3776" data-name="Path 3776" d="M3466.152,3681.928s-.691-1.9,3.671-4.069" fill="#fff" stroke="#000" stroke-linecap="round" stroke-linejoin="round" stroke-width="2.6"/>
    </g>
    <rect id="Rectangle_225" data-name="Rectangle 225" width="307.477" height="177.721" transform="translate(3477.717 3965.277)" fill="#fff" stroke="#000" stroke-miterlimit="10" stroke-width="2.6"/>
    <rect id="Rectangle_226" data-name="Rectangle 226" width="120.201" height="177.721" transform="translate(3905.395 4142.998) rotate(180)" fill="#fff" stroke="#000" stroke-miterlimit="10" stroke-width="2.6"/>
    <rect id="Rectangle_227" data-name="Rectangle 227" width="383.685" height="167.584" transform="translate(3510.818 3975.415)" stroke="#000" stroke-miterlimit="10" stroke-width="2.6"/>
    <g id="Group_769" data-name="Group 769">
      <path id="Path_3777" data-name="Path 3777" d="M3509.353,4141.428" fill="#fff"/>
      <path id="Path_3778" data-name="Path 3778" d="M3509.353,4141.428c-10.193-24.694,28.88-65.85,45.2-79.022-6.307,12.1-11.758,26.073-7.669,39.8a91.05,91.05,0,0,1,14.148-19.147c11.748-12.366,24.706-23.519,36.394-35.945-10.35,21.888-34.113,47.768-24.678,73.816-1.142-16.056,10.126-30.632,19.7-42.364,11.413-13.983,24.619-26.833,33.991-42.364-7.475,22.517-25.725,40.285-31.3,63.546,10.006-17.464,25.549-31.266,38.768-46.215,10.931-12.361,22.107-21.263,22.927-46.215,16.47,35.352-28.725,66.08-30.091,100.133,17.2-24.664,44.942-41.243,67.1-60.979-9.271,19.918-27.3,39.8-27.053,62.9,12.318-32.649,47.88-50.638,64.292-80.876-2.571,30.577-36.846,58.584-25.073,90.5,5.42-18.635,23.225-33,37.262-45.252,16.335-14.262,34.47-27.721,47.508-45.252-6.875,31.13-51.382,63.28-34.96,97.565-1.7-15.66,9.738-29.833,19.505-40.759,12.634-14.134,27.1-26.512,39.611-40.759-9.655,21.858-32.312,45.538-27.279,71.248,7.668-14.559,21.527-25.794,34.095-35.945-4.023,10.07-7.047,21.449-4.133,32.236.411,1.524,2.461,9.17,4.5,9.5,1.952.314.331.7,1.526-.917,1.142-1.542,1.312-4.886,2.021-6.757a59.607,59.607,0,0,1,6.193-11.73c12.533-18.944,31.148-33.4,47.1-49.29-12.376,19.351-7.449,63.3,0,88.54" fill="#fff"/>
      <path id="Path_3779" data-name="Path 3779" d="M3681.043,4025.007c-7.832,11.828-12.037,16.738-19.424,28.848C3673.663,4047.085,3680.952,4039.7,3681.043,4025.007Z" fill="#fff"/>
      <path id="Path_3780" data-name="Path 3780" d="M3654.255,3988.966c7.513,10.219,12.155,18.069,14.276,32.68C3681.043,4005.306,3663.8,3995.317,3654.255,3988.966Z" fill="#fff"/>
      <path id="Path_3781" data-name="Path 3781" d="M3722.411,4075.366c10.553-18.7,20.237-35,24.8-56.454C3763.352,4036.2,3733.066,4065.24,3722.411,4075.366Z" fill="#fff"/>
      <path id="Path_3782" data-name="Path 3782" d="M3799.329,4000.323c-11,16.091-19.585,23.555-32.37,38.234C3773.44,4021.088,3780.71,4006.881,3799.329,4000.323Z" fill="#fff"/>
      <path id="Path_3783" data-name="Path 3783" d="M3825.411,4088.767a142.513,142.513,0,0,1,6.681-17.631c.985-2.21,7.336-21.036,7.336-21.036a27.072,27.072,0,0,1,.191,23.369C3836.291,4080.631,3830.206,4082.521,3825.411,4088.767Z" fill="#fff"/>
      <path id="Path_3784" data-name="Path 3784" d="M3560.8,4065.522c16.029-11.188,26.573-20.742,46.23-36.335C3585.345,4031.355,3568.967,4045.792,3560.8,4065.522Z" fill="#fff"/>
      <path id="Path_3785" data-name="Path 3785" d="M3889.484,4047.58q-.639,1.09-1.264,2.121t-1.236,2.007q-.61.978-1.207,1.909t-1.18,1.827q-.582.894-1.154,1.758t-1.135,1.705q-.562.843-1.12,1.668t-1.114,1.645q-.555.819-1.113,1.637t-1.121,1.645c-.376.552-.754,1.106-1.136,1.668s-.768,1.129-1.158,1.705-.787,1.162-1.188,1.758-.809,1.2-1.223,1.827-.835,1.257-1.263,1.909-.863,1.32-1.306,2.007-.892,1.394-1.349,2.121c0,0,.059-.028.17-.084s.274-.141.484-.254.465-.257.761-.429.631-.375,1-.608.773-.5,1.2-.79.889-.62,1.37-.977.983-.746,1.5-1.168,1.053-.875,1.6-1.363,1.1-1.007,1.656-1.561,1.12-1.143,1.679-1.765,1.115-1.28,1.662-1.972,1.084-1.42,1.6-2.183,1.024-1.563,1.5-2.4.933-1.708,1.353-2.618.806-1.856,1.148-2.841a29.2,29.2,0,0,0,.885-3.069,27.777,27.777,0,0,0,.551-3.3A26.894,26.894,0,0,0,3889.484,4047.58Z" fill="#fff"/>
    </g>
    <rect id="Rectangle_228" data-name="Rectangle 228" width="136.718" height="177.721" transform="translate(3357.436 3965.277)" fill="#fff" stroke="#000" stroke-miterlimit="10" stroke-width="2.6"/>
    <rect id="Rectangle_229" data-name="Rectangle 229" width="162.726" height="27.435" rx="13.718" transform="translate(3312.976 3937.891)" fill="#fff" stroke="#000" stroke-miterlimit="10" stroke-width="2.6"/>
    <rect id="Rectangle_230" data-name="Rectangle 230" width="504.311" height="27.435" rx="13.718" transform="translate(3439.902 3937.891)" fill="#fff" stroke="#000" stroke-miterlimit="10" stroke-width="2.6"/>
    <g id="Group_770" data-name="Group 770">
      <path id="Path_3786" data-name="Path 3786" d="M3675.559,3832.8c-.808-44.9-15.442-68.032-29.791-79.937-3.986,1.259-4.869,6.328-3.911,11.109C3657.294,3775.777,3666.155,3790.934,3675.559,3832.8Z" stroke="#000" stroke-linejoin="round" stroke-width="2.6"/>
      <path id="Path_3787" data-name="Path 3787" d="M3758.708,3840.137c2.226-59.967-13.361-85.753-27.241-96.848-7.289-.7-8.613,5.766-8.613,8.045C3737.213,3768.683,3749.877,3769.109,3758.708,3840.137Z" stroke="#000" stroke-linejoin="round" stroke-width="2.6"/>
      <path id="Path_3788" data-name="Path 3788" d="M3821.808,3786.668c-5.546-6.872-6.486,6.85-6.486,6.85,4.667,9.166,9.208,39.515,9.208,39.515C3825.049,3814.937,3823.933,3797.739,3821.808,3786.668Z" stroke="#000" stroke-linejoin="round" stroke-width="2.6"/>
      <path id="Path_3789" data-name="Path 3789" d="M3593.016,3863.358c-.067-50.966-12.11-70.357-22.94-77.491-4.518,2.414-2.893,9.4-2.893,14.924C3582.838,3815.461,3586,3816.524,3593.016,3863.358Z" stroke="#000" stroke-linejoin="round" stroke-width="2.6"/>
      <path id="Path_3790" data-name="Path 3790" d="M4116.329,3870.939c1.56,5.6,7.788,9.991,12.818,7.491,19.75-9.815,9.832-42.879-39.554-71.178-14.761-8.458-54.527-32.16-45.717,13.255,0,0-56.192,39.369-74.907,60.8a17.326,17.326,0,0,1-17.92,5.324l-38.636-11.33a67.918,67.918,0,0,1-41.6-34.587c-16-31.819-38.222-49.857-49-55.27,2.125,11.071,3.241,29.49,2.722,47.586-3.689-30.933-12.309-50.315-21.626-62.463-17.219-14.019-39.825-24.254-71.437-27.281,13.88,11.095,29.467,36.881,27.241,96.848-8.831-71.028-34.665-91.772-50.591-97.748-3.783.051-7.666.183-11.671.415-16.36.945-33.5,4.64-50.678,10.063,13.859,11.5,27.982,33.466,29.66,75.408a.458.458,0,0,1-.9.124c-9.574-39.037-25.826-60.107-40.711-71.486-21.993,7.912-43.759,18.275-63.738,28.954,10.83,7.134,22.873,26.525,22.94,77.491-7.015-46.834-23.432-64.057-36.2-70.226-22.111,12.4-41.35,24.575-55.277,33.179l-68.884,39.882c-17.706,8.914-28.307,18.595-66.486-15.311-17.987-15.974-12.516.474-.375,28.4-6.949,1.213-18.383,6.123-18.383,6.123s-23.445-33.983-28.181-28.061c-1.852,2.316,8.224,25.948,11.556,44.725,8.687,48.949,5.739,75.97-6.662,87.562a5.49,5.49,0,0,1-3.1,6.017c44.973,11.035,63.249-12.8,87.379-41.6,18.014-21.5,33.52-15.918,33.52-15.918l38.662-.24,42.352.568h453.079a27.758,27.758,0,0,0,20.256-8.76l67.737-77.413c12.837-5.1,43.016,4.919,44.98,16.635.81,4.832-2.232,10.774,3.984,15.483,6.05,4.583,10.011-5.882,10.011-5.882" fill="#fff" stroke="#000" stroke-linejoin="round" stroke-width="2.6"/>
      <path id="Path_3791" data-name="Path 3791" d="M3325.039,3989.934a5.489,5.489,0,1,0,.1.966A5.614,5.614,0,0,0,3325.039,3989.934Z" stroke="#000" stroke-linejoin="round" stroke-width="2.6"/>
    </g>
    <path id="Path_3792" data-name="Path 3792" d="M3552.517,3937.891l-9.957-26.249-33.058,4.733,1.315,22.109Z" stroke="#000" stroke-linejoin="round" stroke-width="2.6"/>
    <g id="Group_771" data-name="Group 771">
      <path id="Path_3793" data-name="Path 3793" d="M3515.334,3938.483h-4.516A36.183,36.183,0,0,0,3515.334,3938.483Z" fill="#fff" stroke="#000" stroke-miterlimit="10" stroke-width="2.6"/>
    </g>
    <path id="Path_3794" data-name="Path 3794" d="M3384.4,3941.443c9.706,3.732,2.93,15.682-7.438,19.326" fill="#fff" stroke="#000" stroke-miterlimit="10" stroke-width="2.6"/>
    <path id="Path_3795" data-name="Path 3795" d="M3353.652,3923.259s3.714-6.818,12.345-3.037" fill="#fff" stroke="#000" stroke-miterlimit="10" stroke-width="2.6"/>
    <path id="Path_3796" data-name="Path 3796" d="M3334.968,3927.857s3.714-6.819,12.345-3.038" fill="#fff" stroke="#000" stroke-miterlimit="10" stroke-width="2.6"/>
    <ellipse id="Ellipse_326" data-name="Ellipse 326" cx="3.438" cy="7.155" rx="3.438" ry="7.155" transform="translate(3338.858 3931.451) rotate(-13.823)" stroke="#000" stroke-miterlimit="10" stroke-width="2.6"/>
    <ellipse id="Ellipse_327" data-name="Ellipse 327" cx="3.438" cy="7.155" rx="3.438" ry="7.155" transform="translate(3357.153 3926.95) rotate(-13.823)" stroke="#000" stroke-miterlimit="10" stroke-width="2.6"/>
    <path id="Path_3797" data-name="Path 3797" d="M3344.754,3942.4s-2-.23-3-6.995" fill="none" stroke="#fff" stroke-linecap="round" stroke-miterlimit="10" stroke-width="2"/>
    <path id="Path_3798" data-name="Path 3798" d="M3363.16,3938.354s-2-.23-2.995-7" fill="none" stroke="#fff" stroke-linecap="round" stroke-miterlimit="10" stroke-width="2"/>
    <path id="Path_3799" data-name="Path 3799" d="M3891.664,4143h-46.229l.056-91.9a66.148,66.148,0,0,0-66.148-66.189H3565.519a38.641,38.641,0,0,0-38.641,38.66l.057,119.433H3501.8V3965.277h389.859Z" fill="#fff" stroke="#000" stroke-miterlimit="10" stroke-width="2.6"/>
    <path id="Path_3800" data-name="Path 3800" d="M3906.05,4143h-47.069l.056-91.9a66.147,66.147,0,0,0-66.148-66.189h-186.3a66.149,66.149,0,0,0-66.149,66.18l.045,91.913h-48.355V3965.277H3906.05Z" fill="#fff" stroke="#000" stroke-miterlimit="10" stroke-width="2.6"/>
    <path id="Path_3801" data-name="Path 3801" d="M3349.574,4071.552l-19.191-49.6a8.619,8.619,0,0,0-8.039-5.51h-25.293a4.185,4.185,0,0,0-3.856,5.813l22.753,53.908Z" stroke="#000" stroke-miterlimit="10" stroke-width="2.6"/>
    <g id="Group_772" data-name="Group 772">
      <path id="Path_3802" data-name="Path 3802" d="M3592.154,3885.975a48.429,48.429,0,0,1-9.247,23.993c-7.415-4.438-14.816-8.4-21.918-12.531Z" fill="#fff" stroke="#000" stroke-miterlimit="10" stroke-width="2.6"/>
      <path id="Path_3803" data-name="Path 3803" d="M3539.265,3905.427c-4.138,5.838-6.887,13.049-9.271,20.271,2.384-7.222,5.133-14.433,9.271-20.271l16.8-6.178c-1.464,9.889-2.188,19.778,1.049,29.666-14.788,3.848-31.526-1.908-42.113-14.562Z" fill="#fff" stroke="#000" stroke-miterlimit="10" stroke-width="2.6"/>
      <path id="Path_3804" data-name="Path 3804" d="M3556.062,3899.249l4.927-1.812c7.1,4.133,14.5,8.093,21.918,12.531a55.269,55.269,0,0,1-12.693,12.407,35.141,35.141,0,0,1-13.1,6.54C3553.874,3919.027,3554.6,3909.138,3556.062,3899.249Z" fill="#fff" stroke="#000" stroke-miterlimit="10" stroke-width="2.6"/>
      <path id="Path_3805" data-name="Path 3805" d="M3515,3914.353c10.587,12.654,27.325,18.41,42.113,14.562.011.036.02.07.031.1-.011-.035-.02-.069-.031-.1a35.141,35.141,0,0,0,13.1-6.54,55.269,55.269,0,0,0,12.693-12.407c.126.076.252.148.379.224-.127-.076-.253-.148-.379-.224a48.429,48.429,0,0,0,9.247-23.993l3.307-1.216s2.843,31.772-27.254,48.369-58.705-16.754-58.705-16.754Z" fill="#fff" stroke="#000" stroke-miterlimit="10" stroke-width="2.6"/>
    </g>
    <g id="Group_773" data-name="Group 773">
      <path id="Path_3806" data-name="Path 3806" d="M3459.292,3931.937c9.729,18.776,11.181,109.31-1.292,113.274-36.5,11.6-66.24,15.639-91.954,21.694-4.747-6.45-12.617-16.944-21.283-14.3-4.694,1.431.808,6.551,4.929,13.583,1.95,3.327-3.765,4.191-7.621,4.095-7.457-.185-10.265-.464-17.406-4.218-13.194-9.826-27.161-14.657-21.485-1.413-5.169.111-5.089,6.54-.318,10.85-4.143.806-3.056,9.708,3.919,12.017-2.074,1.948-.668,5.852,2.224,7.938,7.512,5.419,20.916,10.142,29.477,10.219,17.378.155,17.837-5.282,44.691-9.562s57.967-2,94.868-11.8c32.665-8.668,38.79-52.311,40.227-85.93,2.6-60.772,23.916-128.09-39.6-130.194" fill="#fff" stroke="#000" stroke-miterlimit="10" stroke-width="2.6"/>
      <path id="Path_3807" data-name="Path 3807" d="M3306.534,4087.706s6.147,3.715,12.293,3.715" fill="#fff" stroke="#000" stroke-miterlimit="10" stroke-width="2.6"/>
      <path id="Path_3808" data-name="Path 3808" d="M3302.862,4075.5s9.108,7.08,16.536,7.08" fill="#fff" stroke="#000" stroke-miterlimit="10" stroke-width="2.6"/>
      <path id="Path_3809" data-name="Path 3809" d="M3302.862,4064.39s5.878,5.463,16.536,8.9" fill="#fff" stroke="#000" stroke-miterlimit="10" stroke-width="2.6"/>
    </g>
    <g id="Group_778" data-name="Group 778">
      <path id="Path_3810" data-name="Path 3810" d="M3660.79,3938.181c7.34-29.126,24.967-32.478,73.232-47.512,61.159-74.259,71.405,27.045,71.405,47.512" stroke="#000" stroke-linejoin="round" stroke-width="2.6"/>
      <g id="Group_775" data-name="Group 775">
        <g id="Group_774" data-name="Group 774">
          <path id="Path_3811" data-name="Path 3811" d="M3798.835,3937.049a13.221,13.221,0,0,1-9.282-4.274c-2.735,2.714,12.661,4.274,9.282,4.274-10.315,0-48.343,2.821-51.824-38.781-1.872-22.368,12.723-34.937,28.418-34.937a25.727,25.727,0,0,1,14.124,4.274" fill="#fff" stroke="#000" stroke-linejoin="round" stroke-width="2.6"/>
          <path id="Path_3812" data-name="Path 3812" d="M3778.328,3863.331c3.068,0,6.28,1.56,9.351,4.274a8.991,8.991,0,0,1,7.5-4.274c9.36,0,19.659,12.491,24.529,34.937s-5.272,38.781-11.423,38.781c-2.016,0-4.244-1.56-6.464-4.274-1.042,2.714-2.593,4.274-4.608,4.274-9.73,0-26.433-16.334-31.3-38.781S3768.968,3863.331,3778.328,3863.331Z" fill="#fff" stroke="#000" stroke-linejoin="round" stroke-width="2.6"/>
          <path id="Path_3813" data-name="Path 3813" d="M3770.25,3845.883a56.413,56.413,0,0,1,15.557,17.986s-4.111-17.959,21.571-33.933c1.159,28.161-17.771,33.8-17.771,33.8" fill="#fff" stroke="#000" stroke-linejoin="round" stroke-width="2.6"/>
        </g>
        <path id="Path_3814" data-name="Path 3814" d="M3792.707,3900.19s4.551,10.436,1.308,10.436S3792.707,3900.19,3792.707,3900.19Z" stroke="#000" stroke-linejoin="round" stroke-width="2.6"/>
        <path id="Path_3815" data-name="Path 3815" d="M3800.493,3900.19s7.9,10.436,4.651,10.436S3800.493,3900.19,3800.493,3900.19Z" stroke="#000" stroke-linejoin="round" stroke-width="2.6"/>
      </g>
      <g id="Group_776" data-name="Group 776">
        <path id="Path_3816" data-name="Path 3816" d="M3703.344,3926.974c-1.995-1.737-3.3-4.282-4.84-6.319-1.26-1.667-2.661-3.932-2.319-5.831.288-1.6,1.513-2.444,2.339-3.8a12.773,12.773,0,0,1,1.534-2.226c2.591.634,3.227,2.767,4.483,4.7,2.425,3.731,5.837,6.627,10.884,6.5,2.454-.062,5.208-1.393,7.338-2.222.476-.185.989-.412,1.493-.608,1.372-.534,1.395-.423.96-1.674-.243-.7-1.132-1.6-.545-2.349.98-1.25,5.622-.144,7.208-.624-.038-1.81-2.535-3.79-3.676-5.187a14.733,14.733,0,0,1,3.067-1.308c1.069-.2,2.228.018,3.289-.283a8.936,8.936,0,0,0,3.4-2.087c.645-.565,2.6-1.6,2.743-2.424.2-1.184-1.32-2.108-2.325-2.7a11.149,11.149,0,0,0,1.862-.059c.526-.919-.961-2.841-1.274-3.767a5.878,5.878,0,0,0-4.943-4.04,6.2,6.2,0,0,0-3.959,1.349c-.716.857-.4,2.177-1.272,3.03-1.777,1.744-5.157,1.843-7.812,1.687-2.38-.139-5.279-.744-6.578-2.68-1.145-1.707.049-2.136,2.048-2.691a55.528,55.528,0,0,0,9.595-3.1c1.419-.69,1.984-1.734,3.672-2.042,2.077-.379,7.195,1.031,6.589-1.989-.531-2.647-4.239-5.175-6.388-7,1.034-1.392-.31-4.843-1.675-5.914a11.323,11.323,0,0,0-4.353-1.686c-1.121-.146-.95-.173-1.853.6-1.029.879-2.339,1.366-3.436,2.187-.8.6-2.381,2.48-1.628,3.426a2,2,0,0,1-2-2.121c.136-.456,1.547-1.6,1.953-2,.809-.8,1.353-.976,1.52-2.07.062-.4-.1-.888-.029-1.338.065-.406.477-.927.4-1.352-.349-1.883-3.8-3.216-5.691-3.331-3.646-.222-6.948,1.062-7.728,4.131-.311,1.223-.888,2.216-.474,3.482.394,1.2,1.384,1.37,2.133,2.222,2.4,2.729,2.249,6.293,2.239,9.285-.007,1.9-.984,5.282-3.586,5.317a2.617,2.617,0,0,1-2.945-2.714c.01-.811.123-1.491.061-2.333a3.337,3.337,0,0,1,.173-1.733c.41-.918.985-.988.686-2.257-.417-1.772-1.217-2.184-3.044-1.835-2.48.475-5.193,2.065-7.8,1.989-1.272-.037-2.483-.917-3.7-.892a25.118,25.118,0,0,0-4.415,1.107c-1.465.348-1.545.537-1.576,1.758a8.533,8.533,0,0,0,.342,2.709c.739,2.055,2.869,4.188,4.45,5.779-1.162-.473-1.572.522-2.275,1.028a7.291,7.291,0,0,1-3.251,1.339c-3.272.263-3.827-2.542-6.02-3.9-1.209-.749-1.923-.278-3.133.181-2.2.835-6.7,1.813-6.67,4.511.034,3.206,4.505,6.91,6.9,9.031,1.465,1.3,2.591,3.046,4.155,4.256,5.152,3.987,10.374.707,15.887,1.283,1.034.108,2.7.179,3.089.98.676,1.384-3.411,3.694-4.022,5.014a9.693,9.693,0,0,0-.936,3.166c-.023,1.488,1.256,3.121,2.1,4.428,2.059,3.189,3.587,6.81,6.315,9.664" fill="#fff" stroke="#000" stroke-linejoin="round" stroke-width="2.6"/>
      </g>
      <g id="Group_777" data-name="Group 777">
        <path id="Path_3817" data-name="Path 3817" d="M3681.413,3936.447a11.813,11.813,0,1,1,23.627,0" fill="#fff" stroke="#000" stroke-linecap="round" stroke-linejoin="round" stroke-width="2.6"/>
        <path id="Path_3818" data-name="Path 3818" d="M3721.646,3934.575c0,1.865,0,3.384-1.057,4.946a10.741,10.741,0,0,1-1.251,2.127,13.993,13.993,0,0,1-10.609,5.426c-6.077.76-11.4-3.8-12.621-9.97a12.865,12.865,0,0,1,12.616-15.473c6.082-.384,11.4,4.174,12.692,10.4A12.247,12.247,0,0,1,3721.646,3934.575Z" fill="#fff" stroke="#000" stroke-linecap="round" stroke-linejoin="round" stroke-width="2.6"/>
        <path id="Path_3819" data-name="Path 3819" d="M3707.169,3920.15a11.817,11.817,0,0,1-22.014,5.963c-3.772-5.625-.734-12.462,4.583-15.5,6.077-3.039,12.914-1.52,15.813,3.585a11.313,11.313,0,0,1,1.2,2.812A11.831,11.831,0,0,1,3707.169,3920.15Z" fill="#fff" stroke="#000" stroke-linecap="round" stroke-linejoin="round" stroke-width="2.6"/>
        <path id="Path_3820" data-name="Path 3820" d="M3759.147,3899.1c.476,6.959-6.361,13.036-12.437,11.517-3.8-1.52-5.318-4.558-7.607-7.566a11.724,11.724,0,0,1-1.138-2.83,12.742,12.742,0,0,1,.923-8.847,10.766,10.766,0,0,1,1.685-2.438c6.9-6.425,16.012-.348,18.122,7.159A13.558,13.558,0,0,1,3759.147,3899.1Z" fill="#fff" stroke="#000" stroke-linecap="round" stroke-linejoin="round" stroke-width="2.6"/>
        <path id="Path_3821" data-name="Path 3821" d="M3715.865,3908.96c.46,5.451-3.338,9.249-7.56,11.151a12.148,12.148,0,0,1-2.3.713,12.311,12.311,0,0,1-7.231-.71c-8.279-3.424-10.558-14.819-2.2-20.136,6.077-3.8,14.433-3.038,18,3.4a6.658,6.658,0,0,1,1.02,3.089A12.24,12.24,0,0,1,3715.865,3908.96Z" fill="#fff" stroke="#000" stroke-linecap="round" stroke-linejoin="round" stroke-width="2.6"/>
        <path id="Path_3822" data-name="Path 3822" d="M3743.779,3895.411c.652,3.807-2.387,6.086-4.1,8.944a13.946,13.946,0,0,1-2.11,1.456,13.118,13.118,0,0,1-2.255,1,15.413,15.413,0,0,1-7.41-.988,14.126,14.126,0,0,1-2.18-1.1c-5.6-3.988-7.121-10.825-4.083-16.142a10.072,10.072,0,0,1,3.714-3.376,11.346,11.346,0,0,1,2.268-.9c4.332-.654,8.627-.008,11.71,2.218a10.474,10.474,0,0,1,1.694,1.528c.364,1.285,1.883,2.8,2.274,4.258A12.884,12.884,0,0,1,3743.779,3895.411Z" fill="#fff" stroke="#000" stroke-linecap="round" stroke-linejoin="round" stroke-width="2.6"/>
        <path id="Path_3823" data-name="Path 3823" d="M3728.379,3897.243c-.66,2.735-.66,6.533-3.711,7.862a11.887,11.887,0,0,1-2.459,1.613,13.281,13.281,0,0,1-7.854,1.2,12.509,12.509,0,0,1-1.994-.48c-6.671-1.387-8.95-8.224-7.43-13.541,2.278-5.317,7.6-9.875,13.45-7.8a12.955,12.955,0,0,1,2.445.711,12.571,12.571,0,0,1,7.2,7.376A11.746,11.746,0,0,1,3728.379,3897.243Z" fill="#fff" stroke="#000" stroke-linecap="round" stroke-linejoin="round" stroke-width="2.6"/>
        <path id="Path_3824" data-name="Path 3824" d="M3753.7,3904.9c.6,6.469-5.474,12.546-12.2,12.97a10.471,10.471,0,0,1-2.388-.424c-3.8-1.519-8.355-3.8-9.875-8.356a26.035,26.035,0,0,1-.622-2.707,21.817,21.817,0,0,1-.3-2.749,12.13,12.13,0,0,1,3.818-10.1,10.814,10.814,0,0,1,4.986-2.381,11.35,11.35,0,0,1,2.639-.176c6.955.647,11.512,5.2,13.575,11.3A15.412,15.412,0,0,1,3753.7,3904.9Z" fill="#fff" stroke="#000" stroke-linecap="round" stroke-linejoin="round" stroke-width="2.6"/>
        <path id="Path_3825" data-name="Path 3825" d="M3729.343,3916.616c.655,7.67-8.46,12.987-16.158,11.574a12.892,12.892,0,0,1-9.273-7.606,12.717,12.717,0,0,1-.75-2.418c-2.029-6.794,4.047-14.39,10.552-15.187a12.287,12.287,0,0,1,2.923-.032,13.18,13.18,0,0,1,2.809.618,14.123,14.123,0,0,1,2.621,1.2,15.364,15.364,0,0,1,7.013,9.253A12.043,12.043,0,0,1,3729.343,3916.616Z" fill="#fff" stroke="#000" stroke-linecap="round" stroke-linejoin="round" stroke-width="2.6"/>
        <path id="Path_3826" data-name="Path 3826" d="M3744.666,3915.331c-.235,1.359-.235,3.637-.964,4.986a13.749,13.749,0,0,1-1.4,2.12,22.083,22.083,0,0,1-1.665,1.849,15.486,15.486,0,0,1-15.193,1.519c-6.646-3.323-10.385-12.462-6.127-18.766a11.3,11.3,0,0,1,2.329-2.5c3.8-3.165,9.179-3.693,13.829-2.081a15.872,15.872,0,0,1,2.685,1.22c4,1.62,5.515,5.418,6.229,9.047A12.388,12.388,0,0,1,3744.666,3915.331Z" fill="#fff" stroke="#000" stroke-linecap="round" stroke-linejoin="round" stroke-width="2.6"/>
        <path id="Path_3827" data-name="Path 3827" d="M3765.481,3916.973a12.625,12.625,0,0,1-16.683,11.965,11.341,11.341,0,0,1-2.293-1.188,10.151,10.151,0,0,1-4.353-6.5,16.935,16.935,0,0,1-.324-2.836c-.436-7.039,4.122-14.635,11.718-13.875,5.317.759,10.635,3.8,11.53,10.181A11.968,11.968,0,0,1,3765.481,3916.973Z" fill="#fff" stroke="#000" stroke-linecap="round" stroke-linejoin="round" stroke-width="2.6"/>
        <path id="Path_3828" data-name="Path 3828" d="M3764.285,3934.574c-.1,8.7-9.22,17.058-17.576,14.3a11.3,11.3,0,0,1-2.7-1.437,13.426,13.426,0,0,1-4.136-4.923,12.282,12.282,0,0,1,5.182-15.62,12.9,12.9,0,0,1,2.413-1.092,14.648,14.648,0,0,1,12.215,1.024,10.831,10.831,0,0,1,1.866,1.462c1.112,1.312,2.632,2.831,2.553,4.113A8.9,8.9,0,0,1,3764.285,3934.574Z" fill="#fff" stroke="#000" stroke-linecap="round" stroke-linejoin="round" stroke-width="2.6"/>
        <path id="Path_3829" data-name="Path 3829" d="M3766.156,3956.84c-.456,3.148-.456,6.186-1.975,8.465-4.558,5.317-12.154,7.6-18.224,3.128a8.628,8.628,0,0,1-1.347-1.426,9.283,9.283,0,0,1-1.064-1.828,11.568,11.568,0,0,1-.967-2.592,11.992,11.992,0,0,1-.047-5.353,12.786,12.786,0,0,1,.848-2.565,12.23,12.23,0,0,1,3.017-4.818c5.63-6.575,17.024-5.056,19.487,3.561A13.615,13.615,0,0,1,3766.156,3956.84Z" fill="#fff" stroke="#000" stroke-linecap="round" stroke-linejoin="round" stroke-width="2.6"/>
        <path id="Path_3830" data-name="Path 3830" d="M3742.181,3932.571c-.029,9.946-12.183,15.263-20.067,10.092a19.464,19.464,0,0,1-1.743-1.394c-.563-.5-1.111-1.017-1.652-1.518a12.925,12.925,0,0,1-1.579-2.422,12.774,12.774,0,0,1-1.008-2.758c-2.086-6.487,3.231-14.083,10.068-14.843s14.433,3.039,15.847,10.442A10.692,10.692,0,0,1,3742.181,3932.571Z" fill="#fff" stroke="#000" stroke-linecap="round" stroke-linejoin="round" stroke-width="2.6"/>
        <path id="Path_3831" data-name="Path 3831" d="M3756.767,3931.723c-.182,5.476-3.981,10.794-8.971,11.736a18.138,18.138,0,0,1-2.775.521,13.727,13.727,0,0,1-10.465-2.983c-6.077-5.317-4.558-15.192,2.278-18.99a16.5,16.5,0,0,1,2.968-1.138,17.082,17.082,0,0,1,3.11-.561c6.076-.58,12.153,3.218,13.7,9.191A9.579,9.579,0,0,1,3756.767,3931.723Z" fill="#fff" stroke="#000" stroke-linecap="round" stroke-linejoin="round" stroke-width="2.6"/>
        <path id="Path_3832" data-name="Path 3832" d="M3738.257,3950.063a15.64,15.64,0,0,1-.5,2.784,14.908,14.908,0,0,1-.967,2.575c-3,7.6-12.114,9.123-18.951,4.566-6.647-4.653-6.9-13.958-1.89-18.768a10.459,10.459,0,0,1,2.464-1.759c7.782-5.3,18.416.017,19.7,8.064A12.21,12.21,0,0,1,3738.257,3950.063Z" fill="#fff" stroke="#000" stroke-linecap="round" stroke-linejoin="round" stroke-width="2.6"/>
        <path id="Path_3833" data-name="Path 3833" d="M3751.879,3990.876c.907,9.371-9.727,13.169-16.338,9.775a11.536,11.536,0,0,1-2.15-1.445,12.248,12.248,0,0,1-1.874-2c-3.038-5.317-2.279-12.914,2.659-16.427a8.56,8.56,0,0,1,1.842-1.354,5.964,5.964,0,0,1,4.614-.45,11.874,11.874,0,0,1,2.266.622,15.5,15.5,0,0,1,6.5,4.839,14.079,14.079,0,0,1,1.128,1.668,11.513,11.513,0,0,1,.827,1.77A10.985,10.985,0,0,1,3751.879,3990.876Z" fill="#fff" stroke="#000" stroke-linecap="round" stroke-linejoin="round" stroke-width="2.6"/>
        <path id="Path_3834" data-name="Path 3834" d="M3759.124,3976.579a15.06,15.06,0,0,1-1.859,6.634,9.58,9.58,0,0,1-1.442,1.841,10.241,10.241,0,0,1-7.343,3.179,12.587,12.587,0,0,1-1.951.056,12.185,12.185,0,0,1-2.566-.4c-3.33.205-4.09-2.834-6.456-4.536a11.015,11.015,0,0,1-1.172-2.393,12.217,12.217,0,0,1,5.422-14.51,13.02,13.02,0,0,1,2.7-1.163c6.808-3.02,12.885,2.3,14.225,8.044A12.923,12.923,0,0,1,3759.124,3976.579Z" fill="#fff" stroke="#000" stroke-linecap="round" stroke-linejoin="round" stroke-width="2.6"/>
        <path id="Path_3835" data-name="Path 3835" d="M3747.339,3966.121c-.289.781-.518,1.6-.733,2.419s-.419,1.651-.655,2.46a10.838,10.838,0,0,1-2.193,4.384,7.038,7.038,0,0,1-1.606,1.315c-5.318,3.039-12.154,1.52-15.952-2.279a12.755,12.755,0,0,1-1.519-13.673c2.278-4.557,6.077-6.077,10.708-6.907a14.5,14.5,0,0,1,2.965.071,9.74,9.74,0,0,1,4.549,1.88,10.25,10.25,0,0,1,1.689,1.618c1.358,1.819,2.877,4.1,2.642,6.247A12.707,12.707,0,0,1,3747.339,3966.121Z" fill="#fff" stroke="#000" stroke-linecap="round" stroke-linejoin="round" stroke-width="2.6"/>
        <path id="Path_3836" data-name="Path 3836" d="M3752.829,3951.042c.717,5.148-4.6,8.946-8.4,11.984a10.367,10.367,0,0,1-2.328.834,10.7,10.7,0,0,1-2.371.263c-4.417.422-7.455-2.616-9.734-5.655a13.221,13.221,0,0,1-1.409-7.936,12.78,12.78,0,0,1,.853-3.027c2.075-5.748,8.152-8.787,14.229-8.027a9.6,9.6,0,0,1,4.051,1.69,11.209,11.209,0,0,1,1.646,1.449c1.14,2.178,3.418,3.7,3.381,5.957A12.166,12.166,0,0,1,3752.829,3951.042Z" fill="#fff" stroke="#000" stroke-linecap="round" stroke-linejoin="round" stroke-width="2.6"/>
      </g>
    </g>
    <path id="Path_3837" data-name="Path 3837" d="M3225.216,3996.527s4.383-27.419-12.1-30.406c-13.121-2.378-31.186-5.352-29.615,4.253,18.889-1,30.042,9.717,20.978,14.3,3.508,2.062,8.422,12.851-1.646,15.171,7.718,2.723,3.374,10.673-1.479,10.237,9.34,9.769-9.724,11.293-18.338,7.581-5.313-2.289-10.393-8.669-6.874-12.348-3.519-2.722-3.519-8.67-.539-11.632,0,0-3.377-3.248-2.91-7.662a11.21,11.21,0,0,1,3.09-6.551c-1.826-3.123,3.894-8.229,7.718-9.092" fill="#fff" stroke="#000" stroke-miterlimit="10" stroke-width="2.6"/>
    <ellipse id="Ellipse_328" data-name="Ellipse 328" cx="1.399" cy="2.864" rx="1.399" ry="2.864" transform="translate(3308.999 4023.41) rotate(-21.018)" fill="#fff"/>
    <path id="Path_3838" data-name="Path 3838" d="M3722.854,3710.187,3905.21,3780.8s-38.047,15.762-89.888,12.722c-10.953-29.624-35.832-38.539-56.4-45.288s-27.455-4.941-27.455-4.941l-8.613-15.987Z" fill="#fff" stroke="#000" stroke-miterlimit="10" stroke-width="2.6"/>
    <path id="Path_3839" data-name="Path 3839" d="M3721.3,3740.309c-4.846-11.267-3.444-33.563-3.444-33.563l8.388-1.433" fill="none" stroke="#000" stroke-miterlimit="10" stroke-width="2.6"/>
    <path id="Path_3840" data-name="Path 3840" d="M3559.852,3685.1s25.567,21.646,25.567,55.307" fill="#fff" stroke="#000" stroke-miterlimit="10" stroke-width="2.6"/>
    <line id="Line_250" data-name="Line 250" x2="3.635" transform="translate(3494.473 3756.766)" fill="#fff" stroke="#000" stroke-miterlimit="10" stroke-width="2.6"/>
    <line id="Line_251" data-name="Line 251" x2="3.635" transform="translate(3510.401 3756.766)" fill="#fff" stroke="#000" stroke-miterlimit="10" stroke-width="2.6"/>
    <line id="Line_252" data-name="Line 252" x2="3.635" transform="translate(3502.476 3754.381)" fill="#fff" stroke="#000" stroke-miterlimit="10" stroke-width="2.6"/>
    <line id="Line_253" data-name="Line 253" x2="3.635" transform="translate(3502.476 3758.533)" fill="#fff" stroke="#000" stroke-miterlimit="10" stroke-width="2.6"/>
    <path id="Path_3841" data-name="Path 3841" d="M3176.146,4005.311s13.45,4.96,25.212,4.767" fill="#fff" stroke="#000" stroke-miterlimit="10" stroke-width="2.6"/>
    <path id="Path_3842" data-name="Path 3842" d="M3175.607,3993.679s19.137,7.226,27.23,6.162" fill="#fff" stroke="#000" stroke-miterlimit="10" stroke-width="2.6"/>
    <path id="Path_3843" data-name="Path 3843" d="M3175.787,3979.466s15.572,7.894,28.7,5.2" fill="#fff" stroke="#000" stroke-miterlimit="10" stroke-width="2.6"/>
    <path id="Path_3844" data-name="Path 3844" d="M3217.4,3951.608l23.236-58.565a5,5,0,0,1,6.155-2.892l20.887,6.667" fill="none" stroke="#000" stroke-miterlimit="10" stroke-width="2.6"/>
    <path id="Path_3845" data-name="Path 3845" d="M4131.869,3876.888s-6.39-4.022-8.335-9.595" fill="#fff" stroke="#000" stroke-miterlimit="10" stroke-width="2.6"/>
    <path id="Path_3846" data-name="Path 3846" d="M4137.273,3870.365s-6.735-2.266-7.184-8.763" fill="#fff" stroke="#000" stroke-miterlimit="10" stroke-width="2.6"/>
    <path id="Path_3847" data-name="Path 3847" d="M3932.122,3667.508c-7.773-3.228-12.412,2.185-16.763,12.178" fill="#fff" stroke="#000" stroke-miterlimit="10" stroke-width="2.6"/>
    <line id="Line_254" data-name="Line 254" x1="6.229" y2="9.86" transform="translate(3909.674 3666.606)" fill="#fff" stroke="#000" stroke-miterlimit="10" stroke-width="2.6"/>
    <line id="Line_255" data-name="Line 255" x1="4.63" y2="8.034" transform="translate(3902.922 3670.181)" fill="#fff" stroke="#000" stroke-miterlimit="10" stroke-width="2.6"/>
    <path id="Path_3848" data-name="Path 3848" d="M3131.879,3795.113c33.523-46.54,91.341-71.285,91.341-71.285s-18.933,9.4-31.578,38.016C3164.909,3774.441,3131.879,3795.113,3131.879,3795.113Z" fill="#fff" stroke="#000" stroke-linecap="round" stroke-linejoin="round" stroke-width="2.6"/>
    <path id="Path_3849" data-name="Path 3849" d="M3213.368,3728.575s32.2-8.95,57.11-5.472l50.718-21.87S3277.011,3695.426,3213.368,3728.575Z" fill="#fff" stroke="#000" stroke-linecap="round" stroke-linejoin="round" stroke-width="2.6"/>
    <line id="Line_256" data-name="Line 256" x2="20.574" y2="27.451" transform="translate(3175.607 3929.479)" fill="#fff" stroke="#fff" stroke-miterlimit="10" stroke-width="2.6"/>
    <path id="Path_3850" data-name="Path 3850" d="M3694.971,3705.313c-8.112-.339-15.812,7.23-3.814,30.113" fill="none" stroke="#000" stroke-miterlimit="10" stroke-width="2.6"/>
    <path id="Path_3851" data-name="Path 3851" d="M3683.384,3701.231s-15.793,4.082-2.655,30.041" fill="none" stroke="#000" stroke-miterlimit="10" stroke-width="2.6"/>
    <path id="Path_3852" data-name="Path 3852" d="M3674.02,3700.334s-7.126,4.508-5.552,16.085a37.554,37.554,0,0,0,2.946,10.012" fill="none" stroke="#000" stroke-miterlimit="10" stroke-width="2.6"/>
    <path id="Path_3853" data-name="Path 3853" d="M3433.414,3708.861q-.1-8.79-.108-17.58l-.043-17.579.088-17.58q.024-8.79.154-17.579h.4a117.571,117.571,0,0,1,2.6,17.583c.309,2.93.364,5.861.548,8.791.092,2.93.114,5.86.165,8.79-.069,2.93-.083,5.859-.2,8.789-.186,2.93-.258,5.86-.572,8.789a118.972,118.972,0,0,1-2.633,17.577Z"/>
    <path id="Path_3854" data-name="Path 3854" d="M3929.205,3879.968c18.534,15.522,22.234,35.743,22.234,100.074s-4.426,92.059-4.426,92.059,17.683-7.243,33.815-7.9,22.717,3.951,37.533-4.938c0-31.049,13.325-173.771-41.323-186.222-15.628,5.914-19.422,11.03-19.422,11.03S3939.509,3870.014,3929.205,3879.968Z" fill="#fff" stroke="#000" stroke-linejoin="round" stroke-width="2.6"/>
    <path id="Path_3855" data-name="Path 3855" d="M3957.616,3884.069s13.095,11.092,18.4,54.383" fill="none" stroke="#000" stroke-miterlimit="10" stroke-width="2.6"/>
    <path id="Path_3856" data-name="Path 3856" d="M3968.061,3876.888s9.309,1.4,15.235,11.52" fill="none" stroke="#000" stroke-miterlimit="10" stroke-width="2.6"/>
    <line id="Line_257" data-name="Line 257" y1="6.692" x2="3.138" transform="translate(3993.207 3863.674)" stroke="#000" stroke-miterlimit="10" stroke-width="2.6"/>
    <line id="Line_258" data-name="Line 258" x1="2.215" y1="9.968" transform="translate(4000.96 3844.476)" stroke="#000" stroke-miterlimit="10" stroke-width="2.6"/>
    <line id="Line_259" data-name="Line 259" y1="11.076" transform="translate(4016.466 3833.4)" stroke="#000" stroke-miterlimit="10" stroke-width="2.6"/>
    <line id="Line_260" data-name="Line 260" y1="8.307" x2="3.138" transform="translate(4029.572 3825.094)" stroke="#000" stroke-miterlimit="10" stroke-width="2.6"/>
    <line id="Line_261" data-name="Line 261" y1="9.14" x2="2.566" transform="translate(4009.47 3856.844)" stroke="#000" stroke-miterlimit="10" stroke-width="2.6"/>
    <line id="Line_262" data-name="Line 262" y1="4.984" x2="6.826" transform="translate(4019.793 3844.476)" stroke="#000" stroke-miterlimit="10" stroke-width="2.6"/>
    <line id="Line_263" data-name="Line 263" y1="9.368" x2="9.04" transform="translate(4010.753 3870.365)" stroke="#000" stroke-miterlimit="10" stroke-width="2.6"/>
    <line id="Line_264" data-name="Line 264" y1="4.797" x2="6.092" transform="translate(4032.71 3867.293)" stroke="#000" stroke-miterlimit="10" stroke-width="2.6"/>
    <line id="Line_265" data-name="Line 265" y1="4.57" x2="6.092" transform="translate(4026.619 3856.844)" stroke="#000" stroke-miterlimit="10" stroke-width="2.6"/>
    <line id="Line_266" data-name="Line 266" y1="5.169" x2="2.954" transform="translate(4042.678 3851.675)" stroke="#000" stroke-miterlimit="10" stroke-width="2.6"/>
    <line id="Line_267" data-name="Line 267" y1="8.03" x2="6.922" transform="translate(4035.756 3838.938)" stroke="#000" stroke-miterlimit="10" stroke-width="2.6"/>
    <line id="Line_268" data-name="Line 268" y1="2.307" x2="3.876" transform="translate(4045.632 3826.94)" stroke="#000" stroke-miterlimit="10" stroke-width="2.6"/>
    <line id="Line_269" data-name="Line 269" x1="1.193" y2="4.246" transform="translate(4015.273 3893.763)" stroke="#000" stroke-miterlimit="10" stroke-width="2.6"/>
    <line id="Line_270" data-name="Line 270" x2="6.184" transform="translate(4029.572 3888.408)" stroke="#000" stroke-miterlimit="10" stroke-width="2.6"/>
    <line id="Line_271" data-name="Line 271" y1="1.036" x2="13.66" transform="translate(4045.632 3865.984)" stroke="#000" stroke-miterlimit="10" stroke-width="2.6"/>
    <line id="Line_272" data-name="Line 272" y1="10.504" x2="5.906" transform="translate(3915.903 3774.238)" stroke="#000" stroke-miterlimit="10" stroke-width="2.6"/>
    <line id="Line_273" data-name="Line 273" x1="3.115" y1="4.974" transform="translate(3909.674 3793.907)" stroke="#000" stroke-miterlimit="10" stroke-width="2.6"/>
    <line id="Line_274" data-name="Line 274" x1="3.362" y1="8.855" transform="translate(3894.502 3796.394)" stroke="#000" stroke-miterlimit="10" stroke-width="2.6"/>
    <path id="Path_3857" data-name="Path 3857" d="M3915.9,3819.925c-.318.277,0-11.037,0-11.037" stroke="#000" stroke-miterlimit="10" stroke-width="2.6"/>
    <line id="Line_275" data-name="Line 275" y1="5.521" transform="translate(3906.05 3808.887)" stroke="#000" stroke-miterlimit="10" stroke-width="2.6"/>
    <line id="Line_276" data-name="Line 276" x1="9.866" y1="6.461" transform="translate(3896.183 3826.94)" stroke="#000" stroke-miterlimit="10" stroke-width="2.6"/>
    <line id="Line_277" data-name="Line 277" y1="10.006" transform="translate(3923.741 3819.93)" stroke="#000" stroke-miterlimit="10" stroke-width="2.6"/>
    <line id="Line_278" data-name="Line 278" x1="2.4" y1="9.92" transform="translate(3933.399 3833.033)" stroke="#000" stroke-miterlimit="10" stroke-width="2.6"/>
    <line id="Line_279" data-name="Line 279" x1="2.953" y1="6.483" transform="translate(3915.903 3837.993)" stroke="#000" stroke-miterlimit="10" stroke-width="2.6"/>
    <line id="Line_280" data-name="Line 280" x1="8.106" y1="7.476" transform="translate(3903.125 3846.968)" stroke="#000" stroke-miterlimit="10" stroke-width="2.6"/>
    <line id="Line_281" data-name="Line 281" y1="12.493" x2="1.898" transform="translate(3927.307 3796.394)" stroke="#000" stroke-miterlimit="10" stroke-width="2.6"/>
    <line id="Line_282" data-name="Line 282" x1="9.414" y1="6.398" transform="translate(3878.759 3805.25)" stroke="#000" stroke-miterlimit="10" stroke-width="2.6"/>
    <line id="Line_283" data-name="Line 283" y1="6.461" transform="translate(3906.05 3765.285)" stroke="#000" stroke-miterlimit="10" stroke-width="2.6"/>
    <line id="Line_284" data-name="Line 284" x1="0.949" y1="9.876" transform="translate(3928.256 3846.968)" stroke="#000" stroke-miterlimit="10" stroke-width="2.6"/>
    <line id="Line_285" data-name="Line 285" x1="1.661" y1="12.848" transform="translate(3942.259 3856.844)" stroke="#000" stroke-miterlimit="10" stroke-width="2.6"/>
    <line id="Line_286" data-name="Line 286" y1="8.975" x2="4.523" transform="translate(3943.09 3837.993)" stroke="#000" stroke-miterlimit="10" stroke-width="2.6"/>
    <path id="Path_3858" data-name="Path 3858" d="M4103.89,3861.414s6.449-18.248,33.383-25.082v18.41c-19.517,1.41-28.214,18.3-28.214,18.3Z" fill="#fff" stroke="#000" stroke-linecap="round" stroke-linejoin="round" stroke-width="2.6"/>
  </g>
</svg>
