<svg xmlns="http://www.w3.org/2000/svg" width="450.891" height="441.141" viewBox="0 0 450.891 441.141">
  <g id="Group_633" data-name="Group 633" transform="translate(-426.235 -189.872)">
    <g id="Group_598" data-name="Group 598" transform="translate(842.965 373.775)">
      <path id="Path_2988" data-name="Path 2988" d="M808.294,378.654c1.575-1.763,4.688.771,3.126,2.905a12.032,12.032,0,0,0-1.865,7.876c.321,2.523-3.515,3.664-4.024,1.3A13.71,13.71,0,0,1,808.294,378.654Z" transform="translate(-805.168 -378.062)" fill="#fff" stroke="#000" stroke-linecap="round" stroke-linejoin="round" stroke-width="0.682"/>
    </g>
    <g id="Group_599" data-name="Group 599" transform="translate(842.619 387.754)">
      <path id="Path_2989" data-name="Path 2989" d="M805.959,392.222c1.1-2.277,4.942-.859,3.933,1.788a9.545,9.545,0,0,0,.924,7.975c1.389,2.248-1.8,5.028-3.314,3A12.456,12.456,0,0,1,805.959,392.222Z" transform="translate(-804.845 -391.083)" fill="#fff" stroke="#000" stroke-linecap="round" stroke-linejoin="round" stroke-width="0.682"/>
    </g>
    <g id="Group_602" data-name="Group 602" transform="translate(459.683 465.222)">
      <ellipse id="Ellipse_233" data-name="Ellipse 233" cx="8.631" cy="10.928" rx="8.631" ry="10.928" transform="translate(0 9.357)" stroke="#fff" stroke-linecap="round" stroke-linejoin="round" stroke-width="0.682"/>
      <ellipse id="Ellipse_234" data-name="Ellipse 234" cx="12.325" cy="15.607" rx="12.325" ry="15.607" transform="translate(16.985)" stroke="#fff" stroke-linecap="round" stroke-linejoin="round" stroke-width="0.682"/>
      <ellipse id="Ellipse_235" data-name="Ellipse 235" cx="8.631" cy="10.928" rx="8.631" ry="10.928" transform="translate(3.896 9.357)" stroke="#fff" stroke-linecap="round" stroke-linejoin="round" stroke-width="0.682"/>
      <ellipse id="Ellipse_236" data-name="Ellipse 236" cx="12.325" cy="15.607" rx="12.325" ry="15.607" transform="translate(20.882)" stroke="#fff" stroke-linecap="round" stroke-linejoin="round" stroke-width="0.682"/>
      <g id="Group_600" data-name="Group 600" transform="translate(6.624 12.394)">
        <path id="Path_2990" data-name="Path 2990" d="M465.052,471.807c-1.041,4.128.618,8.6,3.706,10l1.118-4.429c.424-1.682-.252-3.506-1.511-4.073Z" transform="translate(-464.741 -466.437)" stroke="#fff" stroke-linecap="round" stroke-linejoin="round" stroke-width="0.682"/>
        <path id="Path_2991" data-name="Path 2991" d="M472.509,467.221c-3.089-1.392-6.436.826-7.478,4.955l3.313,1.493c1.258.567,2.623-.337,3.048-2.019Z" transform="translate(-464.72 -466.805)" stroke="#fff" stroke-linecap="round" stroke-linejoin="round" stroke-width="0.682"/>
        <path id="Path_2992" data-name="Path 2992" d="M472.081,467.192l-1.117,4.429c-.425,1.682.251,3.506,1.511,4.073l3.313,1.493C476.83,473.059,475.17,468.584,472.081,467.192Z" transform="translate(-464.293 -466.776)" stroke="#fff" stroke-linecap="round" stroke-linejoin="round" stroke-width="0.682"/>
        <path id="Path_2993" data-name="Path 2993" d="M468.483,481.571c3.089,1.392,6.437-.827,7.479-4.955l-3.313-1.493c-1.259-.567-2.624.337-3.048,2.019Z" transform="translate(-464.466 -466.205)" stroke="#fff" stroke-linecap="round" stroke-linejoin="round" stroke-width="0.682"/>
      </g>
      <g id="Group_601" data-name="Group 601" transform="translate(23.552 3.009)">
        <path id="Path_2994" data-name="Path 2994" d="M498.748,474.258c-1.914,6.492-7.5,9.728-12.476,7.23l2.6-8.8c.482-1.634,1.887-2.448,3.139-1.819Z" transform="translate(-480.085 -457.136)" stroke="#fff" stroke-linecap="round" stroke-linejoin="round" stroke-width="0.682"/>
        <path id="Path_2995" data-name="Path 2995" d="M492.922,458.849c4.975,2.5,7.455,9.787,5.54,16.278l-6.741-3.385a3.535,3.535,0,0,1-1.393-4.1Z" transform="translate(-479.799 -458.005)" stroke="#fff" stroke-linecap="round" stroke-linejoin="round" stroke-width="0.682"/>
        <path id="Path_2996" data-name="Path 2996" d="M493.588,458.907l-2.595,8.795c-.482,1.634-1.888,2.449-3.14,1.82l-6.741-3.386C483.027,459.644,488.612,456.408,493.588,458.907Z" transform="translate(-480.465 -458.063)" stroke="#fff" stroke-linecap="round" stroke-linejoin="round" stroke-width="0.682"/>
        <path id="Path_2997" data-name="Path 2997" d="M486.7,481.861c-4.975-2.5-7.455-9.787-5.54-16.279l6.741,3.386a3.534,3.534,0,0,1,1.395,4.1Z" transform="translate(-480.509 -457.509)" stroke="#fff" stroke-linecap="round" stroke-linejoin="round" stroke-width="0.682"/>
      </g>
    </g>
    <rect id="Rectangle_153" data-name="Rectangle 153" width="80.145" height="38.368" transform="translate(613.512 469.361)" stroke="#000" stroke-miterlimit="10" stroke-width="0.682"/>
    <rect id="Rectangle_154" data-name="Rectangle 154" width="276.526" height="4.286" transform="translate(501.697 549.759)" fill="#fff" stroke="#000" stroke-miterlimit="10" stroke-width="0.682"/>
    <line id="Line_161" data-name="Line 161" x2="418.879" transform="translate(451.924 602.207)" stroke="#000" stroke-miterlimit="10" stroke-width="0.682"/>
    <path id="Path_2998" data-name="Path 2998" d="M787.828,407.26s1.176-6.867,1.178-9.135-3.462-1.265-3.753-4.13,4-5.93,6.032-1.161c0,0,4.93-2.423,4.467,1.511s-3.487,1.14-3.535,5.908.12,6.592.12,6.592" transform="translate(36.331 -3.383)" fill="#fff" stroke="#000" stroke-miterlimit="10" stroke-width="0.682"/>
    <rect id="Rectangle_155" data-name="Rectangle 155" width="8.728" height="94.838" transform="translate(706.703 454.925)" fill="#fff" stroke="#000" stroke-linecap="round" stroke-linejoin="round" stroke-width="0.682"/>
    <rect id="Rectangle_156" data-name="Rectangle 156" width="106.181" height="94.838" transform="translate(601.656 454.855)" fill="#fff" stroke="#000" stroke-miterlimit="10" stroke-width="0.682"/>
    <line id="Line_162" data-name="Line 162" y1="33.477" x2="19.453" transform="translate(603.979 454.925)" fill="#fff" stroke="#000" stroke-miterlimit="10" stroke-width="0.682"/>
    <line id="Line_163" data-name="Line 163" y1="33.477" x2="19.453" transform="translate(623.605 454.925)" fill="#fff" stroke="#000" stroke-miterlimit="10" stroke-width="0.682"/>
    <line id="Line_164" data-name="Line 164" y1="33.477" x2="19.453" transform="translate(643.232 454.925)" fill="#fff" stroke="#000" stroke-miterlimit="10" stroke-width="0.682"/>
    <line id="Line_165" data-name="Line 165" y1="33.477" x2="19.453" transform="translate(662.859 454.925)" fill="#fff" stroke="#000" stroke-miterlimit="10" stroke-width="0.682"/>
    <line id="Line_166" data-name="Line 166" y1="33.477" x2="19.453" transform="translate(682.485 454.925)" fill="#fff" stroke="#000" stroke-miterlimit="10" stroke-width="0.682"/>
    <line id="Line_167" data-name="Line 167" x2="113.093" transform="translate(602.339 488.402)" fill="#fff" stroke="#000" stroke-miterlimit="10" stroke-width="0.682"/>
    <g id="Group_603" data-name="Group 603" transform="translate(767.228 562.078)">
      <rect id="Rectangle_157" data-name="Rectangle 157" width="48.991" height="4.318" transform="translate(48.991 4.318) rotate(180)" fill="#fff" stroke="#000" stroke-miterlimit="10" stroke-width="0.682"/>
      <rect id="Rectangle_158" data-name="Rectangle 158" width="48.991" height="4.318" transform="translate(56.692 17.053) rotate(180)" fill="#fff" stroke="#000" stroke-miterlimit="10" stroke-width="0.682"/>
      <rect id="Rectangle_159" data-name="Rectangle 159" width="48.991" height="4.318" transform="translate(64.393 29.788) rotate(180)" fill="#fff" stroke="#000" stroke-miterlimit="10" stroke-width="0.682"/>
    </g>
    <g id="Group_604" data-name="Group 604" transform="translate(784.309 562.078)">
      <rect id="Rectangle_160" data-name="Rectangle 160" width="48.991" height="4.318" transform="translate(48.991 4.318) rotate(180)" fill="#fff" stroke="#000" stroke-linecap="round" stroke-linejoin="round" stroke-width="0.682"/>
      <rect id="Rectangle_161" data-name="Rectangle 161" width="48.991" height="4.318" transform="translate(56.692 17.053) rotate(180)" fill="#fff" stroke="#000" stroke-linecap="round" stroke-linejoin="round" stroke-width="0.682"/>
      <rect id="Rectangle_162" data-name="Rectangle 162" width="48.991" height="4.318" transform="translate(64.393 29.788) rotate(180)" fill="#fff" stroke="#000" stroke-linecap="round" stroke-linejoin="round" stroke-width="0.682"/>
    </g>
    <rect id="Rectangle_163" data-name="Rectangle 163" width="87.645" height="4.318" transform="translate(766.249 549.727)" fill="#fff" stroke="#000" stroke-linecap="round" stroke-linejoin="round" stroke-width="0.682"/>
    <g id="Group_605" data-name="Group 605" transform="translate(638.604 473.205)">
      <path id="Path_2999" data-name="Path 2999" d="M634.3,477.891c0-6.287,2.906-11.713,7.108-14.242a9.765,9.765,0,0,0-4.187-.953c-6.623,0-11.993,6.8-11.993,15.2s5.37,15.2,11.993,15.2a9.762,9.762,0,0,0,4.19-.956C637.21,489.605,634.3,484.18,634.3,477.891Z" transform="translate(-625.23 -462.695)" fill="#fff" stroke="#000" stroke-miterlimit="10" stroke-width="0.682"/>
      <path id="Path_3000" data-name="Path 3000" d="M648.594,477.827c0-6.527-3.248-12.092-7.806-14.244-4.2,2.529-7.108,7.955-7.108,14.242s2.908,11.715,7.111,14.244C645.348,489.915,648.594,484.352,648.594,477.827Z" transform="translate(-624.608 -462.63)" stroke="#000" stroke-miterlimit="10" stroke-width="0.682"/>
    </g>
    <g id="Group_606" data-name="Group 606" transform="translate(675.714 479.6)">
      <path id="Path_3001" data-name="Path 3001" d="M665.059,477.454c0-3.681,1.784-6.832,4.315-8.146a5.673,5.673,0,0,0-2.631-.656c-3.836,0-6.945,3.941-6.945,8.8s3.109,8.8,6.945,8.8a5.685,5.685,0,0,0,2.631-.655C666.843,484.287,665.059,481.135,665.059,477.454Z" transform="translate(-659.797 -468.652)" fill="#fff" stroke="#000" stroke-miterlimit="10" stroke-width="0.682"/>
      <ellipse id="Ellipse_237" data-name="Ellipse 237" cx="4.314" cy="8.146" rx="4.314" ry="8.146" transform="translate(5.262 0.656)" stroke="#000" stroke-miterlimit="10" stroke-width="0.682"/>
    </g>
    <g id="Group_607" data-name="Group 607" transform="translate(609.5 479.6)">
      <path id="Path_3002" data-name="Path 3002" d="M603.384,477.454c0-3.681,1.783-6.832,4.315-8.146a5.676,5.676,0,0,0-2.631-.656c-3.836,0-6.946,3.941-6.946,8.8s3.11,8.8,6.946,8.8a5.688,5.688,0,0,0,2.631-.655C605.167,484.287,603.384,481.135,603.384,477.454Z" transform="translate(-598.121 -468.652)" fill="#fff" stroke="#000" stroke-miterlimit="10" stroke-width="0.682"/>
      <ellipse id="Ellipse_238" data-name="Ellipse 238" cx="4.314" cy="8.146" rx="4.314" ry="8.146" transform="translate(5.263 0.656)" stroke="#000" stroke-miterlimit="10" stroke-width="0.682"/>
    </g>
    <rect id="Rectangle_164" data-name="Rectangle 164" width="6.9" height="4.432" transform="translate(708.452 486.299)" fill="#fff" stroke="#000" stroke-miterlimit="10" stroke-width="0.682"/>
    <g id="Group_608" data-name="Group 608" transform="translate(622.327 466.901)">
      <path id="Path_3003" data-name="Path 3003" d="M649.175,484.609s-6.269-1.946-16.97,4.276c-9.729,5.657-20.63,4.637-21.024.585,11.495-7.729,6.013-26.993,6.789-30.216s5.072,6.86,5.072,6.86,3.384-.156,5.346-.5c-.166-4.381-.179-12.195,2.485-7.161.451.85,1.645,4.844,1.992,5.584a10.129,10.129,0,0,0,13.457,4.922c.651-.3,1.04-.521,1.04-.521S652.554,474.822,649.175,484.609Z" transform="translate(-609.987 -456.823)" fill="#fff" stroke="#000" stroke-miterlimit="10" stroke-width="0.682"/>
      <ellipse id="Ellipse_239" data-name="Ellipse 239" cx="0.971" cy="2.021" rx="0.971" ry="2.021" transform="translate(10.126 18.511)" stroke="#000" stroke-miterlimit="10" stroke-width="0.682"/>
      <ellipse id="Ellipse_240" data-name="Ellipse 240" cx="0.971" cy="2.021" rx="0.971" ry="2.021" transform="translate(15.447 18.511)" stroke="#000" stroke-miterlimit="10" stroke-width="0.682"/>
      <path id="Path_3004" data-name="Path 3004" d="M622.669,476.665c0,2.087-1.21,2.5-1.21,2.5" transform="translate(-609.231 -455.363)" stroke="#000" stroke-linecap="round" stroke-miterlimit="10" stroke-width="0.682"/>
      <path id="Path_3005" data-name="Path 3005" d="M627.79,476.665c0,2.087-1.21,2.5-1.21,2.5" transform="translate(-608.854 -455.363)" stroke="#000" stroke-linecap="round" stroke-miterlimit="10" stroke-width="0.682"/>
      <path id="Path_3006" data-name="Path 3006" d="M620.346,474.662s-.534.2-.35,2.12" transform="translate(-609.341 -455.511)" fill="none" stroke="#fff" stroke-linecap="round" stroke-miterlimit="10" stroke-width="0.525"/>
      <path id="Path_3007" data-name="Path 3007" d="M625.3,474.539s-.534.2-.35,2.12" transform="translate(-608.977 -455.52)" fill="none" stroke="#fff" stroke-linecap="round" stroke-miterlimit="10" stroke-width="0.525"/>
      <circle id="Ellipse_241" data-name="Ellipse 241" cx="1.588" cy="1.588" r="1.588" transform="translate(0 30.483)" stroke="#000" stroke-miterlimit="10" stroke-width="0.682"/>
    </g>
    <path id="Path_3008" data-name="Path 3008" d="M696.84,455.256s16.019,1.358,16.641,20.193-16.689,33-16.689,33Z" transform="translate(18.64 9.962)" stroke="#000" stroke-miterlimit="10" stroke-width="0.682"/>
    <path id="Path_3009" data-name="Path 3009" d="M713.63,518.8s3.321-.125.959,5.251c-2.209,5.028-7.639,4.512-9.644,7.635-1.594,2.484,0,4.66,5.822,4.66,6.506,0,8.828.041,12.543-5.458,7.819-11.575,4.247-27.562-3.24-28.6-4.66-.644-6.414,5.4-6.414,5.4l-2.629.8" transform="translate(19.197 13.419)" fill="#fff" stroke="#000" stroke-miterlimit="10" stroke-width="0.682"/>
    <ellipse id="Ellipse_242" data-name="Ellipse 242" cx="3.619" cy="7.379" rx="3.619" ry="7.379" transform="matrix(0.976, -0.22, 0.22, 0.976, 727.171, 520.266)" fill="#fff" stroke="#000" stroke-miterlimit="10" stroke-width="0.682"/>
    <path id="Path_3010" data-name="Path 3010" d="M696.792,507.979s10.475-3.884,13.271-2.331S715.532,520.76,713.5,522s-16.7,5.015-16.7,5.015Z" transform="translate(18.64 13.643)" stroke="#000" stroke-miterlimit="10" stroke-width="0.682"/>
    <path id="Path_3011" data-name="Path 3011" d="M633.281,477.331c2.9-.47,2.946,3.409.935,5.773-1.878,2.206-3.952,2.054-4.5,1.016-.9-1.69.86-2.345,1.566-3.638C631.8,479.527,631.961,477.544,633.281,477.331Z" transform="translate(13.685 11.584)" fill="#fff" stroke="#000" stroke-miterlimit="10" stroke-width="0.682"/>
    <g id="Group_612" data-name="Group 612" transform="translate(638.933 569.585)">
      <ellipse id="Ellipse_243" data-name="Ellipse 243" cx="80.607" cy="1.81" rx="80.607" ry="1.81" transform="translate(0 45.122)"/>
      <g id="Group_610" data-name="Group 610" transform="translate(3.394 1.403)">
        <path id="Path_3012" data-name="Path 3012" d="M628.786,566.089a12.027,12.027,0,0,1,1.889-3.754,14.936,14.936,0,0,1,2.718-2.822,5.2,5.2,0,0,1,1.645-1.019,6.653,6.653,0,0,1,2.081-.189,5.332,5.332,0,0,0,1.987-.265c.588-.24,1.153-.53,1.749-.764a50.954,50.954,0,0,1,7.406-2.646,23.6,23.6,0,0,1,8.39-.746,19.725,19.725,0,0,1,8.26,2.905,24.727,24.727,0,0,1,6.438,5.884c3.476,4.546,5.244,9.513,6.8,14.021.773,2.267,1.479,4.462,2.256,6.479a23.833,23.833,0,0,0,2.62,5.245,7.277,7.277,0,0,0,3.344,2.766,7.994,7.994,0,0,0,2.236.506,9.4,9.4,0,0,0,2.4-.05,6.9,6.9,0,0,0,3.857-2.028,21.5,21.5,0,0,0,3.427-4.755c1.088-1.9,2.131-4,3.365-6.182a29.516,29.516,0,0,1,4.787-6.58,15.863,15.863,0,0,1,3.762-2.752,14.329,14.329,0,0,1,4.561-1.455,16.232,16.232,0,0,1,4.6.011,13.652,13.652,0,0,1,4.562,1.509,16.75,16.75,0,0,1,6.208,6.315,48.544,48.544,0,0,1,3.235,6.86c.89,2.213,1.7,4.346,2.629,6.241a11.8,11.8,0,0,0,3.207,4.364,4.823,4.823,0,0,0,1.971.849,5.036,5.036,0,0,0,1.155.1,4.006,4.006,0,0,0,1.044-.121,4.533,4.533,0,0,0,1.886-1.017,11.171,11.171,0,0,0,1.832-2.123c1.182-1.71,2.264-3.789,3.572-5.9A19.271,19.271,0,0,1,756,578.93a11.157,11.157,0,0,1,4.1-1.707,12.119,12.119,0,0,1,2.16-.223l.535-.011.624.035a7.555,7.555,0,0,1,1.249.228,8.512,8.512,0,0,1,3.977,2.516,16.91,16.91,0,0,1,2.306,3.315c1.22,2.24,2.081,4.478,2.987,6.608a20.694,20.694,0,0,0,3.048,5.563,2.426,2.426,0,0,0,1.765.941,4.547,4.547,0,0,0,2.355-.868,24.207,24.207,0,0,0,4.761-4.51l.017-.02a1.476,1.476,0,0,1,2.285,1.868,27.043,27.043,0,0,1-5.188,5.4,7.865,7.865,0,0,1-4.129,1.63,5.418,5.418,0,0,1-2.534-.492,7.076,7.076,0,0,1-1.932-1.37,14.851,14.851,0,0,1-2.389-3.25c-.625-1.1-1.157-2.193-1.669-3.271-1.019-2.15-1.952-4.267-3.064-6.109a12.6,12.6,0,0,0-1.8-2.391,4.023,4.023,0,0,0-1.925-1.154,3.028,3.028,0,0,0-.486-.063l-.254,0-.346.031a7.4,7.4,0,0,0-1.329.21,6.325,6.325,0,0,0-2.3,1.117,14.559,14.559,0,0,0-3.6,4.7c-1.07,1.94-2.03,4.107-3.424,6.328a16.819,16.819,0,0,1-2.636,3.3,10.455,10.455,0,0,1-4.161,2.459,9.9,9.9,0,0,1-2.425.423,10.929,10.929,0,0,1-2.353-.087,11.04,11.04,0,0,1-4.535-1.7,17.727,17.727,0,0,1-5.527-6.509c-1.242-2.273-2.172-4.51-3.113-6.62a42.08,42.08,0,0,0-2.961-5.779,9.6,9.6,0,0,0-3.607-3.555,6.215,6.215,0,0,0-2.122-.6,8.7,8.7,0,0,0-2.418.091,7.017,7.017,0,0,0-3.928,2.242,22.146,22.146,0,0,0-3.283,4.913c-1.027,1.937-2.01,4.074-3.19,6.289a29.443,29.443,0,0,1-4.651,6.732,16.617,16.617,0,0,1-3.715,2.911,15.12,15.12,0,0,1-4.6,1.694,18.026,18.026,0,0,1-4.622.275,16.892,16.892,0,0,1-4.639-.915,15.077,15.077,0,0,1-4.336-2.378,17.834,17.834,0,0,1-3.267-3.382,32.432,32.432,0,0,1-3.882-7.211c-.96-2.348-1.736-4.612-2.527-6.772-1.559-4.312-3.214-8.268-5.562-11.156a14.915,14.915,0,0,0-3.977-3.492,25.682,25.682,0,0,0-4.817-2.124,19.764,19.764,0,0,0-5.634-.944,18.225,18.225,0,0,0-6.16,1.034c-.5.181-1.011.368-1.5.6a3.3,3.3,0,0,0-1.193,1.249,7.031,7.031,0,0,1-1.036,1.452,4.4,4.4,0,0,1-1.4.747,21.292,21.292,0,0,1-6.844,1.6l-.272.014a2.106,2.106,0,0,1-2.209-2A2.176,2.176,0,0,1,628.786,566.089Z" transform="translate(-628.699 -553.777)"/>
        <g id="Group_609" data-name="Group 609" transform="translate(153.079 34.879)">
          <path id="Path_3013" data-name="Path 3013" d="M776.244,589.681a8,8,0,0,1-4.958-1.617,14.766,14.766,0,0,0,7.557-1.8,15.571,15.571,0,0,0,.279,7.763A8.263,8.263,0,0,1,776.244,589.681Z" transform="translate(-771.286 -586.265)"/>
        </g>
      </g>
      <path id="Path_3014" data-name="Path 3014" d="M662.557,558.564a22.884,22.884,0,0,1,7.341,8.588,68.54,68.54,0,0,1,4.174,10.552c.578,1.785,1.161,3.561,1.822,5.292a27.413,27.413,0,0,0,2.368,4.958,10.582,10.582,0,0,0,3.811,3.754,11.056,11.056,0,0,0,5.327,1.319,10.506,10.506,0,0,1-5.633-.7,10.744,10.744,0,0,1-4.413-3.754c-2.25-3.2-3.409-6.883-4.619-10.427a98.735,98.735,0,0,0-3.819-10.509A27.51,27.51,0,0,0,662.557,558.564Z" transform="translate(-622.813 -552.022)" fill="#fff"/>
      <path id="Path_3015" data-name="Path 3015" d="M716.086,569.237a14.581,14.581,0,0,1,6.225,5.848,46.405,46.405,0,0,1,3.605,7.789,39.562,39.562,0,0,0,3.47,7.563,9.873,9.873,0,0,0,2.832,2.863,8.967,8.967,0,0,0,3.909,1.347,8.326,8.326,0,0,1-4.242-.742,9.7,9.7,0,0,1-3.387-2.823,30.579,30.579,0,0,1-3.895-7.7,72.655,72.655,0,0,0-3.242-7.75A17.725,17.725,0,0,0,716.086,569.237Z" transform="translate(-618.874 -551.236)" fill="#fff"/>
      <g id="Group_611" data-name="Group 611" transform="translate(117.666 6.863)">
        <path id="Path_3016" data-name="Path 3016" d="M773.3,575.132c0,1.039-8.541,1.882-19.079,1.882s-19.079-.843-19.079-1.882Z" transform="translate(-735.138 -557.666)" fill="#fff" stroke="#000" stroke-linejoin="round" stroke-width="0.682"/>
        <path id="Path_3017" data-name="Path 3017" d="M770.017,576.206a16.014,16.014,0,0,0-32.021,0Z" transform="translate(-734.928 -558.739)" fill="#fff" stroke="#000" stroke-linejoin="round" stroke-width="0.682"/>
        <path id="Path_3018" data-name="Path 3018" d="M755.053,558.863a2.018,2.018,0,0,1-4.013,0Z" transform="translate(-733.968 -558.863)" fill="#fff" stroke="#000" stroke-linejoin="round" stroke-width="0.682"/>
      </g>
      <path id="Path_3019" data-name="Path 3019" d="M731.375,566.11c0,1.039-8.541,1.882-19.079,1.882s-19.08-.843-19.08-1.882Z" transform="translate(-620.557 -551.466)" fill="#fff" stroke="#000" stroke-linejoin="round" stroke-width="0.682"/>
      <path id="Path_3020" data-name="Path 3020" d="M673.421,552.47c0,1.039-8.542,1.882-19.08,1.882s-19.079-.843-19.079-1.882Z" transform="translate(-624.821 -552.47)" fill="#fff" stroke="#000" stroke-linejoin="round" stroke-width="0.682"/>
    </g>
    <path id="Path_3021" data-name="Path 3021" d="M660.3,475.947s-6.973,2.141-8.522,4.381,4.684.928,4.684.928" transform="translate(15.309 11.485)" fill="#fff" stroke="#000" stroke-miterlimit="10" stroke-width="0.682"/>
    <path id="Path_3022" data-name="Path 3022" d="M672.642,480.5s-1.114-.435-2.943,2.228c-1.789,2.6.1,8.449.421,10.432.364,2.261-2.323,2.183-2.323,2.183a3.671,3.671,0,0,1-1.1,2.151c-.79.522-2.2.805-3.884-.532-.423.493-2.727.916-3.68-1.619-3.332,0-3.332-4.623-3.332-11.24s5.636-9.229,8.543-10c5.209-1.389,7.756.509,7.756.509C674.674,477.091,672.642,480.5,672.642,480.5Z" transform="translate(15.624 11.311)" fill="#fff" stroke="#000" stroke-miterlimit="10" stroke-width="0.682"/>
    <path id="Path_3023" data-name="Path 3023" d="M667.16,494.434s-2.695.264-2.695-8.477" transform="translate(16.261 12.221)" fill="#fff" stroke="#000" stroke-miterlimit="10" stroke-width="0.682"/>
    <path id="Path_3024" data-name="Path 3024" d="M662.437,496.053c-1.318-2.907-1.46-10.1-1.46-10.1" transform="translate(16.004 12.221)" fill="#fff" stroke="#000" stroke-miterlimit="10" stroke-width="0.682"/>
    <path id="Path_3025" data-name="Path 3025" d="M658.963,494.434s-1.079-5.736-.7-8.477" transform="translate(15.798 12.221)" fill="#fff" stroke="#000" stroke-miterlimit="10" stroke-width="0.682"/>
    <g id="Group_615" data-name="Group 615" transform="translate(738.498 443.232)">
      <path id="Path_3026" data-name="Path 3026" d="M789.729,498.463c1.486,15.647,2.417,34.716,3.383,50.41l-22.624.018c-6.644-.087,3.2-7.987,7.135-6-.923-8.891-5.142-20.17-6-29.1-4.095.005-18.141-1.405-17.841,2.673.558,7.583,1.767,12.043,1.729,19.985l-19.743.027c-8.89.012,1.724-7.889,5.727-5.928-3.06-7.814-2.667-10.174-2.667-10.174" transform="translate(-717.244 -430.091)" stroke="#000" stroke-linecap="round" stroke-linejoin="round" stroke-width="0.682"/>
      <path id="Path_3027" data-name="Path 3027" d="M780.866,500.383c1.128,3.353,1.121,9.888,1.121,9.888l9.161-.163.293,3.447-9.2.338s.107,13.113,2.718,20.432C755.285,534,755.17,517.664,738.687,522.6c-4.31-8.641-5.906-20.924,4.636-21.868" transform="translate(-717.019 -429.95)" fill="#fff" stroke="#000" stroke-miterlimit="10" stroke-width="0.682"/>
      <path id="Path_3028" data-name="Path 3028" d="M753.572,497.153c.422.844.814,1.5,1.24,2.471,4.042,3.41,11.98,9.115,13.229,13.472s7.435,2.654,8.21-.329c-8.21-7.773-14.141-13.051-19.687-18.513C757.556,495.233,754.569,496.191,753.572,497.153Z" transform="translate(-715.68 -430.4)" stroke="#000" stroke-miterlimit="10" stroke-width="0.682"/>
      <path id="Path_3029" data-name="Path 3029" d="M737.985,482.426c-7.7,4.7-15.242,18.335-9.7,26.146,4.388,6.182,10.986,7.465,15.04,4.927,2.717-1.7.88-2.658,1.8-4.087a4.124,4.124,0,0,0,.9-3.25,3.33,3.33,0,0,0-1.8-2.349c.03-1.413.755-1.391-.71-3.01-.74-.818-4.832-1.276-6.3-.1-.609-.979.157-1.232-.705-2.275s-5.145,1.407-5.178,2.623" transform="translate(-717.681 -431.271)" fill="#fff" stroke="#000" stroke-miterlimit="10" stroke-width="0.682"/>
      <path id="Path_3030" data-name="Path 3030" d="M778.236,489.136l4.448,4.134c-6.36,0-12.574,4.593-15.718,4.733-2.468-2.086-4.514-2.086-8.014-.847,0,0,1.414,1.206,2.455,2.121-1.851,1.348-2.913,5.395-5.618,2.66a7.322,7.322,0,0,0-.513,3.3c.042.707.644.914.822,1.526s-.063,1.641.2,2.057a12.1,12.1,0,0,0,1.952,2.47,12.773,12.773,0,0,0,2.338,1.137c.585.322.933.942,1.7,1.212,2.848,1,5.711-1.2,9.314-1.581,10.37-1.1,26.993-1.8,29.5-17.22,2.8-17.276-24.392-23.883-30.747-23.114-15.9,1.923-23.861,3.152-33.165,11.5" transform="translate(-716.885 -432.063)" fill="#fff" stroke="#000" stroke-miterlimit="10" stroke-width="0.682"/>
      <ellipse id="Ellipse_244" data-name="Ellipse 244" cx="4.202" cy="2.171" rx="4.202" ry="2.171" transform="matrix(0.976, -0.22, 0.22, 0.976, 16.034, 68.12)" fill="#fff" stroke="#000" stroke-miterlimit="10" stroke-width="0.682"/>
      <path id="Path_3031" data-name="Path 3031" d="M748.584,503.356c4.58-2.931,11.785-5.169,11.785-5.169L718.277,457.3c2.028,9.705,6.011,19.3,12.395,26.623C736.634,490.757,742.028,496.428,748.584,503.356Z" transform="translate(-718.277 -433.12)" fill="#fff" stroke="#000" stroke-miterlimit="10" stroke-width="0.682"/>
      <path id="Path_3032" data-name="Path 3032" d="M739.571,501.861l-11.946-46.248-1.249.34,10.228,46.913A3.875,3.875,0,0,0,739.571,501.861Z" transform="translate(-717.681 -433.244)" fill="#fff" stroke="#000" stroke-miterlimit="10" stroke-width="0.682"/>
      <path id="Path_3033" data-name="Path 3033" d="M772.928,475.093c-1.808-7.815-5.614-23.144-5.614-23.144,4.5-1.46,7.713-4.144,6.2-9.2-1.077-3.59-5.141-4.6-8.594-3.036a5.492,5.492,0,0,0-5.614-4.931c-6.125,0-8.836,5.748-8.836,5.748-4.932-2.383-9.169-1.665-11.493,1.353-1.825,2.369-.334,6.213,1.748,7.939-3.737,2.469-5.656,5.616-3.521,8.467,2.515,3.361,7.43,1.363,7.43,1.363,1.211,6.685,4.455,20.755,4.455,20.755C754.216,486.342,766.145,479.832,772.928,475.093Z" transform="translate(-716.95 -434.777)" fill="#fff" stroke="#000" stroke-linecap="round" stroke-linejoin="round" stroke-width="0.682"/>
      <path id="Path_3034" data-name="Path 3034" d="M778.294,473.121c-7.689,2.579-8.844,13.315-3.2,20.8" transform="translate(-714.356 -431.956)" fill="none" stroke="#000" stroke-miterlimit="10" stroke-width="0.682"/>
      <path id="Path_3035" data-name="Path 3035" d="M777.3,472.44c-5.7,1.6-8.631,7.054-8.723,13.321-6.271,2.2-14.623,3.033-20.226,1.843" transform="translate(-716.064 -432.006)" fill="#fff" stroke="#000" stroke-miterlimit="10" stroke-width="0.682"/>
      <path id="Path_3036" data-name="Path 3036" d="M748.089,476.5a15.086,15.086,0,0,0-3.187,7.435" transform="translate(-716.318 -431.707)" fill="#fff" stroke="#000" stroke-miterlimit="10" stroke-width="0.682"/>
      <path id="Path_3037" data-name="Path 3037" d="M750.658,463.693c.277,1.327.761,3.81-1.052,4.127s-2.324-2.171-2.6-3.491-.765-3.794,1.05-4.113S750.381,462.366,750.658,463.693Z" transform="translate(-716.183 -432.907)" stroke="#000" stroke-linecap="round" stroke-linejoin="round" stroke-width="0.682"/>
      <path id="Path_3038" data-name="Path 3038" d="M755.629,462.57c.276,1.326.762,3.89-1.063,4.184s-2.317-2.19-2.595-3.518-.773-3.824,1.051-4.174S755.353,461.244,755.629,462.57Z" transform="translate(-715.818 -432.993)" stroke="#000" stroke-linecap="round" stroke-linejoin="round" stroke-width="0.682"/>
      <g id="Group_613" data-name="Group 613" transform="translate(36.156 33.655)">
        <path id="Path_3039" data-name="Path 3039" d="M760.253,470.877a3.913,3.913,0,0,0,.786-1.193,2.323,2.323,0,0,0-.609-3.11c-1.2-.872-2.321-.379-3.362.682a5.559,5.559,0,0,1-2.727,1.722c-.988.253-2.233.739-2.372,1.991a2.378,2.378,0,0,0,1.912,2.61C756.627,473.919,758.576,472.711,760.253,470.877Z" transform="translate(-751.955 -466.126)" fill="#fff" stroke="#000" stroke-linecap="round" stroke-linejoin="round" stroke-width="0.682"/>
      </g>
      <path id="Path_3040" data-name="Path 3040" d="M752.021,471.66c3.8.008,7-1.1,8.6-4.8-.437-.233-.871-.472-1.311-.7.289.509.57,1.024.855,1.536l1.142,1.057q-.179-.779-.359-1.56" transform="translate(-715.794 -432.468)" fill="#fff" stroke="#000" stroke-linecap="round" stroke-linejoin="round" stroke-width="0.682"/>
      <path id="Path_3041" data-name="Path 3041" d="M789.795,478.146s-7.646-.1-12.4,12.48" transform="translate(-713.927 -431.586)" fill="#fff" stroke="#000" stroke-miterlimit="10" stroke-width="0.682"/>
      <path id="Path_3042" data-name="Path 3042" d="M745.739,476.7a18.468,18.468,0,0,0-2.977,4.97" transform="translate(-716.475 -431.692)" fill="none" stroke="#000" stroke-miterlimit="10" stroke-width="0.682"/>
      <path id="Path_3043" data-name="Path 3043" d="M740.89,498.259a3.84,3.84,0,0,0,1.343-2.791" transform="translate(-716.613 -430.311)" fill="none" stroke="#000" stroke-miterlimit="10" stroke-width="0.682"/>
      <g id="Group_614" data-name="Group 614" transform="translate(55.862 65.809)">
        <path id="Path_3044" data-name="Path 3044" d="M776.8,500.876s3.016-2.407,1.329-4.382-5.792,3.511-6.945,6.943C778.552,506.93,785.978,500.178,776.8,500.876Z" transform="translate(-770.246 -496.076)" fill="#fff" stroke="#000" stroke-linecap="round" stroke-linejoin="round" stroke-width="0.682"/>
        <line id="Line_168" data-name="Line 168" x1="3.987" y1="1.773" transform="translate(0 3.711)" fill="#fff" stroke="#000" stroke-linecap="round" stroke-linejoin="round" stroke-width="0.682"/>
        <line id="Line_169" data-name="Line 169" x2="2.753" y2="1.21" transform="translate(8.685 7.922)" fill="#fff" stroke="#000" stroke-linecap="round" stroke-linejoin="round" stroke-width="0.682"/>
      </g>
    </g>
    <path id="Path_3045" data-name="Path 3045" d="M789.917,369.245a2.135,2.135,0,1,1-2.135,2.134" transform="translate(36.518 -4.936)" fill="none" stroke="#000" stroke-linecap="round" stroke-linejoin="round" stroke-width="1.311"/>
    <path id="Path_3046" data-name="Path 3046" d="M790.467,373.256c.009,1.516.093,3.108.208,4.562a2.75,2.75,0,0,0,1.026,1.475,6.241,6.241,0,0,1,1.683,2.131,3.766,3.766,0,0,1,.322,1.577,3.954,3.954,0,0,1-.3,1.618,3.573,3.573,0,0,1-2.7,2.178,3.209,3.209,0,0,1-3.042-1.208,2.872,2.872,0,0,1-.373-2.716,3.934,3.934,0,0,0,1.621,1.336,1.682,1.682,0,0,0,1.229-.038,1.355,1.355,0,0,0,.677-.669,2.588,2.588,0,0,0,.207-1.3,4.424,4.424,0,0,0-.776-1.724,4.82,4.82,0,0,1-.969-2.577c.075-1.614.188-3.091.189-4.642a.5.5,0,1,1,1,0Z" transform="translate(36.468 -4.677)"/>
    <path id="Path_3047" data-name="Path 3047" d="M810.981,363.787a2.134,2.134,0,1,1-2.134,2.134" transform="translate(38.068 -5.338)" fill="none" stroke="#000" stroke-linecap="round" stroke-linejoin="round" stroke-width="1.311"/>
    <path id="Path_3048" data-name="Path 3048" d="M811.531,367.8c.009,1.516.093,3.109.208,4.563a2.758,2.758,0,0,0,1.026,1.475,6.208,6.208,0,0,1,1.683,2.131,3.779,3.779,0,0,1,.323,1.576,4,4,0,0,1-.3,1.619,3.579,3.579,0,0,1-2.7,2.178,3.214,3.214,0,0,1-3.044-1.209,2.873,2.873,0,0,1-.372-2.715,3.95,3.95,0,0,0,1.621,1.336,1.68,1.68,0,0,0,1.229-.039,1.36,1.36,0,0,0,.679-.668,2.6,2.6,0,0,0,.206-1.3,4.42,4.42,0,0,0-.776-1.723,4.81,4.81,0,0,1-.968-2.578c.074-1.614.188-3.09.188-4.642a.5.5,0,1,1,1,0Z" transform="translate(38.018 -5.079)"/>
    <path id="Path_3049" data-name="Path 3049" d="M696.2,474.892a2.278,2.278,0,0,1,0,4.432" transform="translate(18.596 11.407)" fill="#fff" stroke="#000" stroke-miterlimit="10" stroke-width="0.682"/>
    <path id="Path_3050" data-name="Path 3050" d="M694.675,474.892a2.278,2.278,0,0,1,0,4.432" transform="translate(18.484 11.407)" fill="#fff" stroke="#000" stroke-miterlimit="10" stroke-width="0.682"/>
    <path id="Path_3051" data-name="Path 3051" d="M692.111,474.892a2.278,2.278,0,0,1,0,4.432" transform="translate(18.295 11.407)" fill="#fff" stroke="#000" stroke-miterlimit="10" stroke-width="0.682"/>
    <g id="Group_617" data-name="Group 617" transform="translate(443.476 494.389)">
      <path id="Path_3052" data-name="Path 3052" d="M490.967,489.136l7.949-6.709h10.751Z" transform="translate(-439.981 -482.427)" stroke="#000" stroke-linecap="round" stroke-linejoin="round" stroke-width="0.682"/>
      <path id="Path_3053" data-name="Path 3053" d="M490.967,497.391l7.949,6.649h10.751Z" transform="translate(-439.981 -481.326)" stroke="#000" stroke-linecap="round" stroke-linejoin="round" stroke-width="0.682"/>
      <g id="Group_616" data-name="Group 616" transform="translate(0 57.858)">
        <rect id="Rectangle_165" data-name="Rectangle 165" width="3.748" height="19.441" transform="translate(42.582)" stroke="#fff" stroke-linecap="round" stroke-linejoin="round" stroke-width="0.682"/>
        <path id="Path_3054" data-name="Path 3054" d="M483.938,554.428h3.715l-12.777,55.014c-.087.363-.73.619-1.1.619h0c-.509,0-1.129-.306-1.03-.805Z" transform="translate(-441.323 -534.987)" stroke="#fff" stroke-linecap="round" stroke-linejoin="round" stroke-width="0.682"/>
        <path id="Path_3055" data-name="Path 3055" d="M486.932,554.428h-3.793l30.491,56.36a2.469,2.469,0,0,0,1.31.764h0a.858.858,0,0,0,.763-1.248Z" transform="translate(-440.557 -534.987)" stroke="#fff" stroke-linecap="round" stroke-linejoin="round" stroke-width="0.682"/>
        <path id="Path_3056" data-name="Path 3056" d="M485.127,554.428h3.584l-31.05,56.679a.855.855,0,0,1-.75.446h0a.857.857,0,0,1-.763-1.248" transform="translate(-442.551 -534.987)" stroke="#fff" stroke-linecap="round" stroke-linejoin="round" stroke-width="0.682"/>
        <ellipse id="Ellipse_245" data-name="Ellipse 245" cx="39.504" cy="2.261" rx="39.504" ry="2.261" transform="translate(0 74.244)"/>
      </g>
      <path id="Path_3057" data-name="Path 3057" d="M509.74,482.427V505.46l-14.334-4.747V488.44Z" transform="translate(-439.655 -482.427)" stroke="#fff" stroke-linecap="round" stroke-linejoin="round" stroke-width="0.682"/>
      <rect id="Rectangle_166" data-name="Rectangle 166" width="33.96" height="20.998" transform="translate(21.872 1.036)" stroke="#fff" stroke-linecap="round" stroke-linejoin="round" stroke-width="0.682"/>
      <rect id="Rectangle_167" data-name="Rectangle 167" width="6.238" height="2.827" transform="translate(41.283 22.022)" stroke="#fff" stroke-linecap="round" stroke-linejoin="round" stroke-width="0.682"/>
      <rect id="Rectangle_168" data-name="Rectangle 168" width="13.198" height="20.998" transform="translate(18.816 1.036)" stroke="#fff" stroke-linecap="round" stroke-linejoin="round" stroke-width="0.682"/>
    </g>
    <g id="Group_620" data-name="Group 620" transform="translate(512.552 479.666)">
      <line id="Line_170" data-name="Line 170" x2="7.751" y2="35.054" transform="translate(42.931 113.9)" fill="none" stroke="#000" stroke-linecap="round" stroke-linejoin="round" stroke-width="1.574"/>
      <line id="Line_171" data-name="Line 171" x1="10.296" y2="35.054" transform="translate(16.382 113.9)" fill="none" stroke="#000" stroke-linecap="round" stroke-linejoin="round" stroke-width="1.574"/>
      <path id="Path_3058" data-name="Path 3058" d="M609.005,577.846s4.023-13.694,9.536-16.113,6.869,2.117,3.682,8.057a125.251,125.251,0,0,0-5.763,12.725l-2.053,1.616,1.267,1.438s-.481,4.933-3.25,5.153-5.262-4.446-5.262-4.446" transform="translate(-500.508 -461.918)" stroke="#000" stroke-linecap="round" stroke-linejoin="round" stroke-width="0.682"/>
      <g id="Group_618" data-name="Group 618" transform="translate(104.003 68.2)">
        <path id="Path_3059" data-name="Path 3059" d="M606.685,550.632c3.293-5.526,2.535-14.24,5.314-16.966,3.723-3.651,7.168.271,6.665,5.4a42.574,42.574,0,0,1-4.328,14.6c-.759.7-1.565,1.309-2.355,1.956.433.439.863.816,1.316,1.275-.409,1.914-.8,4.947-3.073,5.424s-4.459-1.848-5.531-3.58" transform="translate(-604.693 -532.239)" stroke="#000" stroke-linecap="round" stroke-linejoin="round" stroke-width="0.682"/>
      </g>
      <path id="Path_3060" data-name="Path 3060" d="M548.912,574.807s-50.457,5.442,18.492,4.984c16.074-.106,19.052-4.984,19.052-4.984Z" transform="translate(-506.105 -460.907)" stroke="#000" stroke-linecap="round" stroke-linejoin="round" stroke-width="0.682"/>
      <g id="Group_619" data-name="Group 619" transform="translate(5.813 19.674)">
        <path id="Path_3061" data-name="Path 3061" d="M537.592,535.336c-12.18.375-15.556-29.19-15.116-47.092-2.607-1.864-5.741-1.129-8.406-.664-1.5,16.785-2.611,37.481,11.911,58.2,9.165,13.078,3.223-5,8.08-4.234" transform="translate(-513.233 -487.039)" fill="#fff" stroke="#000" stroke-linecap="round" stroke-linejoin="round" stroke-width="0.682"/>
      </g>
      <circle id="Ellipse_246" data-name="Ellipse 246" cx="1.325" cy="1.325" r="1.325" transform="translate(42.931 51.823)" stroke="#000" stroke-linecap="round" stroke-linejoin="round" stroke-width="0.682"/>
      <path id="Path_3062" data-name="Path 3062" d="M521.432,543.787l4.052,33.3H555.9" transform="translate(-506.816 -463.19)" fill="none" stroke="#000" stroke-linecap="round" stroke-linejoin="round" stroke-width="1.574"/>
      <path id="Path_3063" data-name="Path 3063" d="M525.206,574.807s2.418,4.79,18.491,4.79,19.053-4.79,19.053-4.79Z" transform="translate(-506.539 -460.907)" stroke="#000" stroke-linecap="round" stroke-linejoin="round" stroke-width="0.682"/>
      <path id="Path_3064" data-name="Path 3064" d="M540.769,568.271l34.261-22.586a9.532,9.532,0,0,1,6.385-1.505l29.846,3.585a4.147,4.147,0,0,1,3.786,5.036l-.775,4.266a4.484,4.484,0,0,1-4.679,3.5l-30.462-1.991-21.578,16.068" transform="translate(-505.393 -463.166)" fill="#fff" stroke="#000" stroke-linecap="round" stroke-linejoin="round" stroke-width="0.682"/>
      <path id="Path_3065" data-name="Path 3065" d="M543.946,582.431c11.7,1.464,36.336-17.068,36.336-17.068L610.464,588.5c1.433,1.048,4.89.889,6.139-.371h0a8.78,8.78,0,0,0-.559-12.875L586.4,549.86a5.288,5.288,0,0,0-5.981-.622l-27.1,14.84s-.57,4.58-2.279,6.808-17.329,2.684-21.433,1.544c0,0,2.694,12.64,10.028,8.816C539.636,581.246,540.7,582.024,543.946,582.431Z" transform="translate(-506.215 -462.836)" fill="#fff" stroke="#000" stroke-linecap="round" stroke-linejoin="round" stroke-width="0.682"/>
      <path id="Path_3066" data-name="Path 3066" d="M533.23,532.308a22.431,22.431,0,0,1,4.509-.96,46.255,46.255,0,0,1,5.373-.271c9.661,0,11.341,9.55,12.522,18.762,2.107,16.452,2.107,21.786-2.512,24.952-2.983,2.046-20.356,2.461-23.178-1.074a125.33,125.33,0,0,1-4.873-26.908,21.545,21.545,0,0,1,.438-6.149" transform="translate(-506.552 -464.125)" fill="#fff" stroke="#000" stroke-linecap="round" stroke-linejoin="round" stroke-width="0.682"/>
      <path id="Path_3067" data-name="Path 3067" d="M561.255,562.94s-9.409.971-21.375.971c-7.62,0-16.169-.971-16.169-.971l-2.279-19.153a139.524,139.524,0,0,0,15.67.969c11.471,0,21.874-.969,21.874-.969Z" transform="translate(-506.816 -463.19)" stroke="#000" stroke-linecap="round" stroke-linejoin="round" stroke-width="0.682"/>
      <path id="Path_3068" data-name="Path 3068" d="M556.4,543.787l4.052,33.3H590.87" transform="translate(-504.243 -463.19)" fill="none" stroke="#000" stroke-linecap="round" stroke-linejoin="round" stroke-width="1.574"/>
      <path id="Path_3069" data-name="Path 3069" d="M516.048,475.148s.4-2.364.747-4.263c.7-3.877,3.534-1.707,3.073.769-.171.916-1.326,7.954-1.326,7.954" transform="translate(-507.212 -468.71)" fill="#fff" stroke="#000" stroke-linecap="round" stroke-linejoin="round" stroke-width="0.682"/>
      <path id="Path_3070" data-name="Path 3070" d="M520,480.979c1.4,0-.511-3.114,2.005-2.95,1.967.129,3.4,4.489-1.922,7.465-1.33.743.348,2.574.348,2.574s-2.685,1.346-4.5.352l-.318-1.479a25.193,25.193,0,0,1-2.133-5.192c-.755-3.763,2.237-3.378,2.771-7.037" transform="translate(-507.411 -468.272)" fill="#fff" stroke="#000" stroke-linecap="round" stroke-linejoin="round" stroke-width="0.682"/>
      <path id="Path_3071" data-name="Path 3071" d="M522.226,478.155l-13.075-3.179,1.353-3.418,12.088,5.348Z" transform="translate(-507.72 -468.504)" fill="#fff" stroke="#000" stroke-linecap="round" stroke-linejoin="round" stroke-width="0.682"/>
      <path id="Path_3072" data-name="Path 3072" d="M517.67,478.615s1.282-7.09,1.9-8.918,2.754-.842,2.7.8c-.031.924-2.587,10.919-2.587,10.919" transform="translate(-507.093 -468.714)" fill="#fff" stroke="#000" stroke-linecap="round" stroke-linejoin="round" stroke-width="0.682"/>
      <path id="Path_3073" data-name="Path 3073" d="M559.456,529.666s-2.818-5.47,3.164-7.284c3.651-1.108,5.813.608,6.216,2.473.552,2.554,1.1,9.931,1.1,9.931s-.328,3.357-5.53,2.791a2.528,2.528,0,0,1-1.99-1.411h0Z" transform="translate(-504.067 -464.79)" fill="#fff" stroke="#000" stroke-linecap="round" stroke-linejoin="round" stroke-width="0.682"/>
      <path id="Path_3074" data-name="Path 3074" d="M562.291,539.841a2.391,2.391,0,0,0-.741-1.966c-.856-.594-2.212-3.423-.331-4.127l1.847,2.8s.5.041,1.247.029a5.016,5.016,0,0,0,4.908-4.645,4.527,4.527,0,0,1,.3-1.534c.513-.933,3.084,1.083,3.37,4.8s-4.39,7.211-4.39,7.211" transform="translate(-503.958 -464.192)" fill="#fff" stroke="#000" stroke-linecap="round" stroke-linejoin="round" stroke-width="0.682"/>
      <path id="Path_3075" data-name="Path 3075" d="M544.111,531.29c19.377-1.2,20.1,21.26,20.284,27.243,0,0-.038-1.668-.441-6.172a30.2,30.2,0,0,0-1.276-6.678l.8-5.922s8.985-.77,8.666,3.213c-.36,4.476-.566,21.7-5.3,25.084-1.4,1-5.427,1.015-6.828-.265-7.14-6.522-10.274-27.376-10.274-27.376" transform="translate(-505.147 -464.113)" fill="#fff" stroke="#000" stroke-linecap="round" stroke-linejoin="round" stroke-width="0.682"/>
      <path id="Path_3076" data-name="Path 3076" d="M562.177,524.891l-5.552-3.474a4.881,4.881,0,0,0-4.566-.324l-3.458,1.531" transform="translate(-504.817 -464.89)" fill="none" stroke="#000" stroke-linecap="round" stroke-linejoin="round" stroke-width="0.682"/>
      <ellipse id="Ellipse_247" data-name="Ellipse 247" cx="2.248" cy="0.62" rx="2.248" ry="0.62" transform="translate(56.496 59.659) rotate(-19.671)" stroke="#000" stroke-linecap="round" stroke-linejoin="round" stroke-width="0.682"/>
      <line id="Line_172" data-name="Line 172" x1="7.023" y2="35.054" transform="translate(53.123 113.9)" fill="none" stroke="#000" stroke-linecap="round" stroke-linejoin="round" stroke-width="1.574"/>
      <line id="Line_173" data-name="Line 173" x2="7.751" y2="35.054" transform="translate(80.352 113.9)" fill="none" stroke="#000" stroke-linecap="round" stroke-linejoin="round" stroke-width="1.574"/>
      <path id="Path_3077" data-name="Path 3077" d="M532.539,512.6s-5.452-16.23-5.944-21.121,4.629-6.9,6.23-2.989c.9,2.194,5.666,24.613,5.666,24.613" transform="translate(-506.439 -467.41)" fill="#fff" stroke="#000" stroke-linecap="round" stroke-linejoin="round" stroke-width="0.682"/>
      <path id="Path_3078" data-name="Path 3078" d="M533,534l.9-4.114s-5.823-7.924-5.815-13.114c.012-7.407,5.626-8.56,10.08-8.72s12.407,9.3,12.407,12.982-2.378,5.075-5.293,7.634,2.571,4.528,2.571,4.528S542.777,536.414,533,534Z" transform="translate(-506.326 -465.819)" fill="#fff" stroke="#000" stroke-linecap="round" stroke-linejoin="round" stroke-width="0.682"/>
      <path id="Path_3079" data-name="Path 3079" d="M527.012,511.96c0-1.018,2.37-5.155,4.552-6.391,5.132-2.906,16.622,1.8,17.331,3.608,1.411,3.6-9.332.581-12.728,1.982C533.328,512.331,527,515.245,527.012,511.96Z" transform="translate(-506.406 -466.07)" stroke="#000" stroke-linecap="round" stroke-linejoin="round" stroke-width="0.682"/>
      <path id="Path_3080" data-name="Path 3080" d="M536.423,513.739s-4.38-18.7-4.265-23.61,6.416-6.306,7.524-2.264c.623,2.27,2.691,24.73,2.691,24.73" transform="translate(-506.027 -467.478)" fill="#fff" stroke="#000" stroke-linecap="round" stroke-linejoin="round" stroke-width="0.682"/>
      <path id="Path_3081" data-name="Path 3081" d="M559.411,529.211a11.06,11.06,0,0,0,5.9-1" transform="translate(-504.022 -464.335)" fill="none" stroke="#000" stroke-linecap="round" stroke-linejoin="round" stroke-width="0.682"/>
      <path id="Path_3082" data-name="Path 3082" d="M566.9,527.2a3.685,3.685,0,0,0,1.494-1.764" transform="translate(-503.471 -464.54)" fill="#387cdb" stroke="#000" stroke-linecap="round" stroke-linejoin="round" stroke-width="0.682"/>
      <path id="Path_3083" data-name="Path 3083" d="M533.406,555.347l-2.1,1.341.223-2.84-1.917-2.011,2.428-.414.92-2.584,1.277,2.584,2.485.414-1.638,2.011.616,2.84Z" transform="translate(-506.215 -462.818)" fill="#fff" stroke="#000" stroke-linecap="round" stroke-linejoin="round" stroke-width="0.682"/>
      <ellipse id="Ellipse_248" data-name="Ellipse 248" cx="49.424" cy="2.321" rx="49.424" ry="2.321" transform="translate(0 146.706)"/>
      <ellipse id="Ellipse_249" data-name="Ellipse 249" cx="1.693" cy="1.204" rx="1.693" ry="1.204" transform="translate(0.545 6.057) rotate(-74.553)" stroke="#000" stroke-linecap="round" stroke-linejoin="round" stroke-width="0.682"/>
      <path id="Path_3084" data-name="Path 3084" d="M578.57,563.818c1.337.751,2.6,1.6,3.9,2.4l3.775,2.558c2.513,1.709,4.936,3.536,7.358,5.366,2.393,1.866,4.786,3.733,7.088,5.719l3.449,2.981c1.108,1.049,2.256,2.046,3.328,3.141l.005.005a.056.056,0,0,1,0,.079.058.058,0,0,1-.074,0l-14.483-11.038L578.5,563.907a.055.055,0,0,1-.01-.078.056.056,0,0,1,.072-.015Z" transform="translate(-502.619 -461.716)"/>
      <path id="Path_3085" data-name="Path 3085" d="M536.867,576.213a8.658,8.658,0,0,0,5.034,1.937,10.631,10.631,0,0,0,1.349.073,8.235,8.235,0,0,0,1.359-.034,23.113,23.113,0,0,0,2.728-.292c1.824-.294,3.641-.731,5.471-1.21s3.662-1.031,5.574-1.479l.013,0a.056.056,0,0,1,.035.105l-2.639,1.174c-.878.393-1.8.689-2.695,1.039s-1.839.572-2.758.865c-.931.248-1.879.441-2.826.62a17.812,17.812,0,0,1-5.774.016,7.678,7.678,0,0,1-4.97-2.754.055.055,0,0,1,.013-.076.054.054,0,0,1,.068,0Z" transform="translate(-505.688 -460.878)"/>
      <path id="Path_3086" data-name="Path 3086" d="M538.619,578.4a3.049,3.049,0,0,1-2.306.448,4.329,4.329,0,0,1-1.873-.989,11.469,11.469,0,0,1-2.44-3.048,11.16,11.16,0,0,0,2.843,2.471,3.453,3.453,0,0,0,1.614.518,1.791,1.791,0,0,0,1.3-.512.707.707,0,0,1,.956,1.041A1.073,1.073,0,0,1,538.619,578.4Z" transform="translate(-506.039 -460.907)"/>
      <path id="Path_3087" data-name="Path 3087" d="M590.8,556.356l15,2.042-15.109-.921Z" transform="translate(-501.72 -462.265)"/>
      <path id="Path_3088" data-name="Path 3088" d="M564.746,524.352a.869.869,0,0,1-1.617.182,12.872,12.872,0,0,1-1.612-5.438c.013-3.36,1.585-1.906,1.585-1.906s.139-7.424,2.23-7.911.364,6.026.364,6.026,2.022-1.058,1.673,1.121C567.08,518.221,565.578,520.992,564.746,524.352Z" transform="translate(-503.867 -465.731)" fill="#fff" stroke="#000" stroke-linecap="round" stroke-linejoin="round" stroke-width="0.682"/>
    </g>
    <g id="Group_621" data-name="Group 621" transform="translate(556.669 441.879)">
      <path id="Path_3089" data-name="Path 3089" d="M573.426,472.581s-5.842-.806-10.255,2.163-7.664,16.716-3.686,29.2,24.452,6.087,24.452,6.087,14.6,6.7,17.919-1.11c-7.227-1.784-19.471-2.423-19.471-2.423s-14.838,3.072-17.569-3.573c-4.768-11.6,1.5-19.892,2.967-20.739,2.3-1.323,8.569-.142,25.491,6.849l-.042-26.315c-13.313-5.864-18.271,7.537-18.271,7.537" transform="translate(-548.265 -431.477)" fill="#fff" stroke="#000" stroke-miterlimit="10" stroke-width="0.682"/>
      <path id="Path_3090" data-name="Path 3090" d="M564.447,458.72s2.677,9.91,6.673,13.443,3.71-1.938,3.71-1.938-4.8-2.028-4.748-8.792" transform="translate(-547.768 -431.662)" fill="#fff" stroke="#000" stroke-miterlimit="10" stroke-width="0.682"/>
      <path id="Path_3091" data-name="Path 3091" d="M563.568,449.1c-.743,9.052,1.722,17.256,6.25,17.627s9.407-7.227,10.15-16.28-2.706-12.042-7.235-12.415S564.312,440.048,563.568,449.1Z" transform="translate(-547.842 -433.187)" fill="#fff" stroke="#000" stroke-miterlimit="10" stroke-width="0.682"/>
      <ellipse id="Ellipse_250" data-name="Ellipse 250" cx="3.303" cy="2.281" rx="3.303" ry="2.281" transform="translate(28.738 20.253) rotate(-89.277)" stroke="#000" stroke-linecap="round" stroke-linejoin="round" stroke-width="0.682"/>
      <ellipse id="Ellipse_251" data-name="Ellipse 251" cx="3.303" cy="2.281" rx="3.303" ry="2.281" transform="translate(22.421 19.75) rotate(-89.277)" stroke="#000" stroke-linecap="round" stroke-linejoin="round" stroke-width="0.682"/>
      <path id="Path_3092" data-name="Path 3092" d="M569.985,450.191l2.393-2.292v1.985l1.953-1.681" transform="translate(-547.36 -432.458)" fill="none" stroke="#fff" stroke-linecap="round" stroke-linejoin="round" stroke-width="0.525"/>
      <path id="Path_3093" data-name="Path 3093" d="M575.893,450.408l2.393-2.292V450.1l1.953-1.681" transform="translate(-546.925 -432.442)" fill="none" stroke="#fff" stroke-linecap="round" stroke-linejoin="round" stroke-width="0.525"/>
      <path id="Path_3094" data-name="Path 3094" d="M574.757,454.335c1.447,2.244,3.26,3.649,4.052,3.139s.259-2.742-1.188-4.986-2.942-2.944-3.733-2.434S573.311,452.091,574.757,454.335Z" transform="translate(-547.106 -432.311)" fill="#fff" stroke="#000" stroke-miterlimit="10" stroke-width="0.682"/>
      <ellipse id="Ellipse_252" data-name="Ellipse 252" cx="3.86" cy="24.846" rx="3.86" ry="24.846" transform="matrix(0.108, -0.994, 0.994, 0.108, 0, 11.178)" fill="#fff" stroke="#000" stroke-linecap="round" stroke-linejoin="round" stroke-width="0.682"/>
      <path id="Path_3095" data-name="Path 3095" d="M581.694,444.094s-2.631,1.365-10.133.375c-5.883-.777-7.472-2.486-7.472-2.486a9.3,9.3,0,0,1,9.22-8.465C579.142,433.453,582.278,439.233,581.694,444.094Z" transform="translate(-547.794 -433.517)" fill="#fff" stroke="#000" stroke-linecap="round" stroke-linejoin="round" stroke-width="0.682"/>
      <path id="Path_3096" data-name="Path 3096" d="M567.121,453.921a10.294,10.294,0,0,0,9.408,1.912" transform="translate(-547.571 -432.015)" fill="none" stroke="#000" stroke-linecap="round" stroke-linejoin="round" stroke-width="0.682"/>
    </g>
    <g id="Group_622" data-name="Group 622" transform="translate(813.34 403.321)">
      <path id="Path_3097" data-name="Path 3097" d="M784.162,430.841c6.415,1.818,6.844,13.309,12.44,16.14,2.755,1.393,4.622.049,5.806-1.673a12.293,12.293,0,0,0,1.138-4.3c1.093-11.145-6.192-20.712-8.3-27.916-2.272-7.782-2.272-7.782-2.747-7.368-1.395.171-3.215.827-3.631.1a.341.341,0,0,0-.629.071c-.668,2.435-2.362,7.977-4.776,11.436-2.128,3.049-5.414,9.464-5.893,15.49C778.473,431.349,780.353,429.762,784.162,430.841Z" transform="translate(-777.573 -405.583)" fill="#fff" stroke="#000" stroke-linecap="round" stroke-linejoin="round" stroke-width="0.682"/>
    </g>
    <path id="Path_3098" data-name="Path 3098" d="M583.161,497.189l.768,6.743s3.088,3.336,11.23,5.075c8.832,1.887,12.77.278,12.77.278l3.4-6.246Z" transform="translate(10.278 13.048)" fill="#fff" stroke="#000" stroke-miterlimit="10" stroke-width="0.682"/>
    <path id="Path_3099" data-name="Path 3099" d="M583.23,499.392c-5.98-3.979,4.022-5.075,4.022-5.075a2.493,2.493,0,0,1,2.119-2.87c2.524-.521,3.586,1.235,6.138.361s7.026-.981,7.7,1.551,2.829,1.412,4.367,2.253,3.492,4.062,3.492,4.062,6.91,4.386.567,5.717C608.013,509.982,584.461,504.4,583.23,499.392Z" transform="translate(10.143 12.611)" fill="#fff" stroke="#000" stroke-miterlimit="10" stroke-width="0.682"/>
    <path id="Path_3100" data-name="Path 3100" d="M796.605,445.275c-5.6-2.831-6.025-14.323-12.44-16.14-3.809-1.079-5.689.508-6.589,1.975a12.474,12.474,0,0,0,1.758,8.1A20.573,20.573,0,0,0,792.1,447.5s7.336,2.087,10.311-3.9C801.227,445.324,799.36,446.668,796.605,445.275Z" transform="translate(35.763 -0.555)" stroke="#000" stroke-linecap="round" stroke-linejoin="round" stroke-width="0.682"/>
    <path id="Path_3101" data-name="Path 3101" d="M710.364,485.344c0-1.478.144-2.906.207-4.335l-.017-4.247c-.073-.7-.137-1.393-.18-2.087l-.075-1.038-.2-1.014c-.14-.672-.216-1.358-.367-2.024l-.6-1.951a20.049,20.049,0,0,0-4.042-6.971,21.346,21.346,0,0,0-6.708-5l-.016-.008a.07.07,0,0,1,.048-.13,17.555,17.555,0,0,1,7.447,4.349,18.707,18.707,0,0,1,4.6,7.31l.6,2.1c.146.711.228,1.434.345,2.15l.163,1.077.031,1.088.059,2.175c-.07,1.445-.218,2.89-.354,4.33l-.808,4.266a.069.069,0,0,1-.137-.013Z" transform="translate(18.753 10.056)" fill="#fff"/>
    <path id="Path_3102" data-name="Path 3102" d="M741.45,529.522c-.92.266-1.638.371-2.311.6a15.754,15.754,0,0,0-1.887.7c-.624.243-1.238.556-1.921.861-.672.322-1.384.655-2.252.984l-.042.016a.064.064,0,0,1-.082-.036.068.068,0,0,1,.009-.061,9.663,9.663,0,0,1,3.739-3.06,6.593,6.593,0,0,1,2.389-.511,7,7,0,0,1,2.4.371.062.062,0,0,1,.043.077.062.062,0,0,1-.043.043Z" transform="translate(21.3 15.389)" fill="#fff"/>
    <path id="Path_3103" data-name="Path 3103" d="M775.476,541.111c-.92.267-1.639.372-2.312.6a15.789,15.789,0,0,0-1.886.7c-.625.243-1.239.557-1.921.861-.673.322-1.385.655-2.252.984l-.042.016a.063.063,0,0,1-.082-.036.06.06,0,0,1,.009-.06,9.666,9.666,0,0,1,3.739-3.061,6.624,6.624,0,0,1,2.388-.511,7.021,7.021,0,0,1,2.4.371.063.063,0,0,1,0,.12Z" transform="translate(23.804 16.242)" fill="#fff"/>
    <path id="Path_3104" data-name="Path 3104" d="M787.973,546.2a72.445,72.445,0,0,1-1.447-8.034c-.362-2.687-.584-5.386-.777-8.086-.148-2.7-.27-5.408-.25-8.121a73.234,73.234,0,0,1,.412-8.156v-.01a.07.07,0,0,1,.077-.062.069.069,0,0,1,.062.064l1.1,16.193.961,16.2a.07.07,0,0,1-.066.073.069.069,0,0,1-.072-.054Z" transform="translate(25.167 14.265)" fill="#fff"/>
    <ellipse id="Ellipse_253" data-name="Ellipse 253" cx="1.761" cy="2.1" rx="1.761" ry="2.1" transform="matrix(0.134, -0.991, 0.991, 0.134, 607.064, 508.321)" stroke="#000" stroke-linecap="round" stroke-linejoin="round" stroke-width="0.682"/>
    <ellipse id="Ellipse_254" data-name="Ellipse 254" cx="1.029" cy="3.483" rx="1.029" ry="3.483" transform="matrix(0.599, -0.801, 0.801, 0.599, 818.164, 440.191)" fill="#fff" stroke="#000" stroke-linecap="round" stroke-linejoin="round" stroke-width="0.682"/>
    <g id="Group_623" data-name="Group 623" transform="translate(617.943 450.285)">
      <path id="Path_3105" data-name="Path 3105" d="M608.205,452.538h0a1.971,1.971,0,0,1-.924-.239,2.189,2.189,0,0,1-.728-.627,1.86,1.86,0,0,1-.356-.881c-.056-.472-.1-.905-.126-1.313s-.052-.789-.065-1.157-.02-.725-.02-1.08,0-.712.016-1.08.031-.75.06-1.158.067-.841.119-1.313a1.865,1.865,0,0,1,.353-.883,2.161,2.161,0,0,1,.726-.627,1.96,1.96,0,0,1,.922-.239h0a2.337,2.337,0,0,1,1.735.655,8.028,8.028,0,0,0-.23,1.094c-.054.472-.092.9-.12,1.313s-.047.789-.06,1.158-.017.724-.016,1.08.008.711.021,1.08.034.75.064,1.157.071.841.126,1.313a1.6,1.6,0,0,1-.345,1.236A1.478,1.478,0,0,1,608.205,452.538Z" transform="translate(-605.985 -441.302)" fill="#fff" stroke="#000" stroke-miterlimit="10" stroke-width="0.682"/>
      <path id="Path_3106" data-name="Path 3106" d="M611.665,453.087h0a2.12,2.12,0,0,1-.981-.252,2.347,2.347,0,0,1-.781-.662,1.986,1.986,0,0,1-.391-.932c-.07-.534-.12-1.025-.158-1.487s-.063-.894-.081-1.313-.024-.821-.024-1.224.008-.807.024-1.225.042-.85.081-1.313.088-.952.158-1.487a1.99,1.99,0,0,1,.391-.932,2.357,2.357,0,0,1,.781-.661,2.107,2.107,0,0,1,.981-.252h0a3.311,3.311,0,0,1,2.375.638s-.752.7-.818,1.208c-.071.535-.121,1.025-.159,1.487s-.063.9-.08,1.313-.025.821-.025,1.225.008.806.025,1.224.042.851.08,1.313.088.953.159,1.487a1.679,1.679,0,0,1-.346,1.305A1.541,1.541,0,0,1,611.665,453.087Z" transform="translate(-605.745 -441.346)" fill="#fff" stroke="#000" stroke-miterlimit="10" stroke-width="0.682"/>
      <path id="Path_3107" data-name="Path 3107" d="M615.088,453.073h0a2.081,2.081,0,0,1-.965-.248,2.307,2.307,0,0,1-.768-.652,1.947,1.947,0,0,1-.385-.916c-.069-.525-.119-1.008-.158-1.462s-.063-.879-.081-1.29-.026-.807-.028-1.2.005-.793.02-1.2.038-.836.073-1.29.083-.937.148-1.463a1.937,1.937,0,0,1,.379-.916,2.3,2.3,0,0,1,.763-.653,2.083,2.083,0,0,1,.964-.248h0c1.9,0,2.3.771,2.579,1.1a2.708,2.708,0,0,0-1.186,2.18c0,.455-.059.88-.073,1.29s-.021.808-.02,1.2.011.793.028,1.2.043.836.081,1.29.089.937.158,1.462a1.643,1.643,0,0,1-.338,1.283A1.515,1.515,0,0,1,615.088,453.073Z" transform="translate(-605.491 -441.333)" fill="#fff" stroke="#000" stroke-miterlimit="10" stroke-width="0.682"/>
      <path id="Path_3108" data-name="Path 3108" d="M618.138,452.494h0a1.844,1.844,0,0,1-1.185-.458,1.766,1.766,0,0,1-.617-1.106c-.067-.542-.114-1.032-.147-1.489s-.057-.884-.07-1.3-.019-.819-.016-1.234.014-.841.036-1.3.056-.948.109-1.492a1.717,1.717,0,0,1,.588-1.108,1.8,1.8,0,0,1,1.173-.46h0a3.771,3.771,0,0,1,3.548,3.347h-2.372c-.023.458.1,3.084.138,3.543s.081.947.147,1.489a1.424,1.424,0,0,1-.3,1.106A1.32,1.32,0,0,1,618.138,452.494Z" transform="translate(-605.241 -441.257)" fill="#fff" stroke="#000" stroke-miterlimit="10" stroke-width="0.682"/>
    </g>
    <path id="Path_3109" data-name="Path 3109" d="M606.258,445.06s-2.793-4.1-4.526-2.539c-1.376,1.237.713,3.4.713,3.4h3.813Z" transform="translate(11.61 8.999)" fill="#fff" stroke="#000" stroke-miterlimit="10" stroke-width="0.682"/>
    <path id="Path_3110" data-name="Path 3110" d="M581.48,508.1c11.032,7.737,20.155,1.855,20.155,1.855-11.17-.807-15.679-5.915-15.679-5.915s2.976-6.023,2.009-7.018c-1.862-1.915-7.352,6.723-7.352,6.723l-3.587-.056.423,5.1Z" transform="translate(9.827 13.015)" fill="#fff" stroke="#000" stroke-miterlimit="10" stroke-width="0.682"/>
    <path id="Path_3111" data-name="Path 3111" d="M602.121,498.93a3.739,3.739,0,0,0-.72-.5.283.283,0,0,0-.422.242,1.249,1.249,0,0,0,.417.884.722.722,0,0,0,.486.4.484.484,0,0,0,.568-.345A.741.741,0,0,0,602.121,498.93Z" transform="translate(11.589 13.137)"/>
    <path id="Path_3112" data-name="Path 3112" d="M593.437,499.058a2.781,2.781,0,0,0-1.223.353.248.248,0,0,0-.132.206.565.565,0,0,0,.332.738.71.71,0,0,0,.641-.148c.215-.173.3-.468.524-.626S593.738,499.042,593.437,499.058Z" transform="translate(10.932 13.185)"/>
    <path id="Path_3113" data-name="Path 3113" d="M606.65,501.375l-.69-.337a.288.288,0,0,0-.383.1.293.293,0,0,0,0,.268.279.279,0,0,0,.1.355,1.072,1.072,0,0,0,.909.125A.284.284,0,0,0,606.65,501.375Z" transform="translate(11.925 13.329)"/>
    <path id="Path_3114" data-name="Path 3114" d="M592.2,494.232h-.766a.194.194,0,0,0-.036.008l-.219,0a.281.281,0,0,0-.074.55,2.438,2.438,0,0,0,.956.093.282.282,0,0,0,.2-.105A.278.278,0,0,0,592.2,494.232Z" transform="translate(10.848 12.83)"/>
    <path id="Path_3115" data-name="Path 3115" d="M598.168,498.446a.28.28,0,0,0-.368-.105.249.249,0,0,0-.215.081.918.918,0,0,0-.324.673.524.524,0,0,0,1.018.183A.952.952,0,0,0,598.168,498.446Z" transform="translate(11.316 13.13)"/>
    <path id="Path_3116" data-name="Path 3116" d="M604.859,496.68h-.531a.28.28,0,0,0,0,.56h.531A.28.28,0,0,0,604.859,496.68Z" transform="translate(11.816 13.01)"/>
    <path id="Path_3117" data-name="Path 3117" d="M589.447,496.65l-.364.041a.289.289,0,0,0-.28.28.283.283,0,0,0,.28.28l.128-.009a.308.308,0,0,0,.043-.011l.193-.021a.288.288,0,0,0,.28-.28A.282.282,0,0,0,589.447,496.65Z" transform="translate(10.694 13.008)"/>
    <path id="Path_3118" data-name="Path 3118" d="M601.486,501.527a.282.282,0,0,0-.28.28.263.263,0,0,0,.14.232.281.281,0,0,0,.545.033A.433.433,0,0,0,601.486,501.527Z" transform="translate(11.606 13.367)"/>
    <rect id="Rectangle_169" data-name="Rectangle 169" width="2.092" height="7.624" rx="0.974" transform="translate(584.728 515.652) rotate(-6.641)" fill="#fff" stroke="#000" stroke-miterlimit="10" stroke-width="0.682"/>
    <g id="Group_624" data-name="Group 624" transform="translate(597.961 471.146)">
      <path id="Path_3119" data-name="Path 3119" d="M606.48,482.844c-.927-.451-4.221-.595-7.415-.065s-9.472.078-10.988-2.74a9.236,9.236,0,0,1-.286-3.165,2.9,2.9,0,0,1,.222-3.3,3.776,3.776,0,0,1,.945-4.064,3.025,3.025,0,0,1,1.414-3.273c3.019-1.93,9.145,1.887,9.145,1.887a34.032,34.032,0,0,1-.348-4.386c0-2.835,1.835-4.747,3.117-.409,1.22,4.128,2.906,7.454,6.2,8.4,0,0,1.493.432.99,5.349S606.48,482.844,606.48,482.844Z" transform="translate(-587.373 -460.778)" fill="#fff" stroke="#000" stroke-miterlimit="10" stroke-width="0.682"/>
      <path id="Path_3120" data-name="Path 3120" d="M595.837,466.075c6.178,2.767,5.064,5.608,3.2,5.118-2.469-1.7-7.633-1.934-7.633-1.934s10.467-.038,9.248,5.9c-.593,2.886-1.951-3.36-10.389-2.39,7.69-.735,9.426,3.474,9.677,5.248.423,2.99-8.183-1.543-9.759-1.237" transform="translate(-587.166 -460.388)" fill="#fff" stroke="#000" stroke-linecap="round" stroke-linejoin="round" stroke-width="0.682"/>
    </g>
    <path id="Path_3121" data-name="Path 3121" d="M814.023,376.451c-2.607-1.239-4.593,2.781-1.981,4.021a5.581,5.581,0,0,1,2.838,6.9c-1.077,2.663,2.936,4.661,4.021,1.982A10.139,10.139,0,0,0,814.023,376.451Z" transform="translate(38.213 -4.423)" fill="#fff" stroke="#000" stroke-linecap="round" stroke-linejoin="round" stroke-width="0.682"/>
    <g id="Group_625" data-name="Group 625" transform="translate(851.756 385.819)">
      <path id="Path_3122" data-name="Path 3122" d="M817.038,390.043c-1.777-2.125-4.888.615-3.193,3.015a8.219,8.219,0,0,1,.946,8.077c-1.253,2.542,1.94,5.131,3.427,2.709A11.836,11.836,0,0,0,817.038,390.043Z" transform="translate(-813.356 -389.281)" fill="#fff" stroke="#000" stroke-linecap="round" stroke-linejoin="round" stroke-width="0.682"/>
    </g>
    <g id="Group_626" data-name="Group 626" transform="translate(851.305 400.973)">
      <path id="Path_3123" data-name="Path 3123" d="M816.937,404.457c-1.1-2.352-4.736-.441-3.738,2.314a15.129,15.129,0,0,1-.107,9.1c-.924,2.664,2.519,4.957,3.588,2.519A17.146,17.146,0,0,0,816.937,404.457Z" transform="translate(-812.936 -403.396)" fill="#fff" stroke="#000" stroke-linecap="round" stroke-linejoin="round" stroke-width="0.682"/>
    </g>
    <g id="Group_627" data-name="Group 627" transform="translate(851.846 415.674)">
      <path id="Path_3124" data-name="Path 3124" d="M818.122,417.975c-1.711-2.231-4.886.161-3.393,2.671a6.829,6.829,0,0,1-.711,7.676c-1.755,2.139.861,5.32,2.835,3.3C820.419,427.981,821.266,422.072,818.122,417.975Z" transform="translate(-813.44 -417.089)" fill="#fff" stroke="#000" stroke-linecap="round" stroke-linejoin="round" stroke-width="0.682"/>
    </g>
    <path id="Path_3125" data-name="Path 3125" d="M817.684,431.957c-1.834-2.23-5.34.563-3.5,2.8a5.58,5.58,0,0,1-.366,7.451c-2.106,1.951.675,5.468,2.8,3.5A10.14,10.14,0,0,0,817.684,431.957Z" transform="translate(38.378 -0.382)" fill="#fff" stroke="#000" stroke-linecap="round" stroke-linejoin="round" stroke-width="0.682"/>
    <g id="Group_628" data-name="Group 628" transform="translate(852.083 445.668)">
      <path id="Path_3126" data-name="Path 3126" d="M817.5,445.947c-1.4-2.235-4.9-.02-3.528,2.625a11.37,11.37,0,0,1,.3,8.693c-1,2.655,2.489,5.047,3.644,2.607C820,455.468,820.064,450.051,817.5,445.947Z" transform="translate(-813.661 -445.027)" fill="#fff" stroke="#000" stroke-linecap="round" stroke-linejoin="round" stroke-width="0.682"/>
    </g>
    <ellipse id="Ellipse_255" data-name="Ellipse 255" cx="1.749" cy="2.216" rx="1.749" ry="2.216" transform="translate(706.703 486.299)" fill="#fff" stroke="#000" stroke-miterlimit="10" stroke-width="0.682"/>
    <ellipse id="Ellipse_256" data-name="Ellipse 256" cx="0.524" cy="0.664" rx="0.524" ry="0.664" transform="translate(707.929 487.852)" fill="#fff" stroke="#000" stroke-miterlimit="10" stroke-width="0.682"/>
    <path id="Path_3127" data-name="Path 3127" d="M461.506,404.786c-3.492,5.061-2.88,12.043,2.184,15.884a10.984,10.984,0,0,0,4.123,1.911c-.029.041-.06.079-.089.12-3.492,5.062-2.88,12.045,2.185,15.885,4.725,3.584,12.4,2.861,15.884-2.184a12.514,12.514,0,0,0,.957-1.642,11.07,11.07,0,0,0,2.364,2.436c4.726,3.584,12.4,2.861,15.885-2.184a11.551,11.551,0,0,0-1.906-15.662c3.258-5.033,2.573-11.812-2.389-15.573a11.6,11.6,0,0,0-7.927-2.192,10.924,10.924,0,0,0-3.694-4.97c-4.725-3.584-12.4-2.861-15.885,2.184a12.7,12.7,0,0,0-.98,1.693A11.049,11.049,0,0,0,461.506,404.786Z" transform="translate(1.165 5.483)" fill="#fff" stroke="#000" stroke-miterlimit="10" stroke-width="0.682"/>
    <path id="Path_3128" data-name="Path 3128" d="M522.452,357.538c1.34-8.453-3.629-16.852-12.3-18.627a15.29,15.29,0,0,0-6.323.083c.012-.069.028-.136.039-.206,1.34-8.453-3.629-16.852-12.3-18.627-8.087-1.655-17.291,3.87-18.627,12.3a17.526,17.526,0,0,0-.213,2.635,15.43,15.43,0,0,0-4.434-1.635c-8.087-1.655-17.291,3.87-18.627,12.3-1.314,8.295,3.447,16.532,11.815,18.515-1.063,8.277,3.873,16.375,12.367,18.113a16.159,16.159,0,0,0,11.269-2.017,15.217,15.217,0,0,0,7.627,4.016c8.088,1.655,17.292-3.87,18.627-12.3a17.478,17.478,0,0,0,.213-2.715C516.97,367.68,521.542,363.285,522.452,357.538Z" transform="translate(0.44 0)" fill="#fff" stroke="#000" stroke-miterlimit="10" stroke-width="0.682"/>
    <path id="Path_3415" data-name="Path 3415" d="M554.25,373.948c1.924-12.136-5.209-24.193-17.654-26.741a21.951,21.951,0,0,0-9.078.119c.017-.1.04-.2.056-.3,1.923-12.136-5.21-24.193-17.654-26.741-11.61-2.377-24.824,5.556-26.741,17.655a25.162,25.162,0,0,0-.305,3.782,22.151,22.151,0,0,0-6.365-2.347c-11.61-2.377-24.824,5.556-26.741,17.654-1.886,11.908,4.949,23.734,16.962,26.581-1.526,11.883,5.561,23.509,17.754,26a23.2,23.2,0,0,0,16.179-2.9,21.845,21.845,0,0,0,10.949,5.766c11.612,2.377,24.825-5.556,26.741-17.654a25.093,25.093,0,0,0,.305-3.9C546.381,388.508,552.943,382.2,554.25,373.948Z" transform="translate(-120.092 334.682) rotate(-43)" fill="#fff" stroke="#000" stroke-miterlimit="10" stroke-width="0.682"/>
    <path id="Path_3129" data-name="Path 3129" d="M711.675,525.4a7.917,7.917,0,0,1,5.308.948" transform="translate(19.735 15.115)" fill="#fff" stroke="#000" stroke-miterlimit="10" stroke-width="0.682"/>
    <path id="Path_3130" data-name="Path 3130" d="M713.888,522.572s3.009-.933,5.176.664" transform="translate(19.898 14.896)" fill="#fff" stroke="#000" stroke-miterlimit="10" stroke-width="0.682"/>
    <path id="Path_3131" data-name="Path 3131" d="M714.665,519.919a8.34,8.34,0,0,1,5.851,0" transform="translate(19.955 14.682)" fill="#fff" stroke="#000" stroke-miterlimit="10" stroke-width="0.682"/>
    <path id="Path_3132" data-name="Path 3132" d="M589.44,476.167a7.175,7.175,0,0,1,6.6.379c5.072,3.221.623,5.736-3.072,2.142l-1.549.561" transform="translate(10.74 11.454)" fill="#fff" stroke="#000" stroke-linecap="round" stroke-miterlimit="10" stroke-width="0.682"/>
    <line id="Line_174" data-name="Line 174" y2="48.304" transform="translate(514.543 554.045)" fill="#fff" stroke="#000" stroke-miterlimit="10" stroke-width="0.682"/>
    <g id="Group_630" data-name="Group 630" transform="translate(799.55 477.107)">
      <ellipse id="Ellipse_257" data-name="Ellipse 257" cx="28.723" cy="1.922" rx="28.723" ry="1.922" transform="translate(0 143.625)"/>
      <path id="Path_3133" data-name="Path 3133" d="M796.478,591.459c.734,2.915,1.483,11.276,1.483,11.276h1.709v-2.609" transform="translate(-773.575 -457.123)" fill="#fff" stroke="#000" stroke-linecap="round" stroke-linejoin="round" stroke-width="0.682"/>
      <g id="Group_629" data-name="Group 629" transform="translate(33.224 38.19)">
        <path id="Path_3134" data-name="Path 3134" d="M813.315,528.077a7.234,7.234,0,0,1-.788-.043c-3.942-.429-7.379-3.253-6.2-7.039,3.76-12.071,2.219-17.707-.133-19.091l18.016,6.468.017-.032a38.125,38.125,0,0,0-4.182,13.575A6.6,6.6,0,0,1,813.315,528.077Z" transform="translate(-806.092 -501.903)" stroke="#000" stroke-linecap="round" stroke-linejoin="round" stroke-width="0.682"/>
      </g>
      <path id="Path_3135" data-name="Path 3135" d="M810.526,486.79c-1.639,1.83-3.618,2.421-5.546,3.088-1.916.7-3.831,1.368-5.648,2.116a17.616,17.616,0,0,0-4.812,2.715,5.1,5.1,0,0,0-1.328,1.626,1.659,1.659,0,0,0-.18.6c0,.035.023-.008.009-.119a1.093,1.093,0,0,0-.157-.454c-.194-.316-.317-.315-.131-.261a4.98,4.98,0,0,0,.863.182,18.267,18.267,0,0,0,2.73.091c2-.042,4.145-.235,6.365-.384a46.448,46.448,0,0,1,7.146-.046,14.4,14.4,0,0,1,4.352,1.019,9.573,9.573,0,0,1,2.5,1.543,8.35,8.35,0,0,1,2.105,2.733,4.569,4.569,0,1,1-8.4,3.587c.08.069.2.141.248.106s-.017-.129-.182-.256a5.611,5.611,0,0,0-1.858-.755,29.614,29.614,0,0,0-5.792-.641c-2.1-.088-4.277-.078-6.6-.19a28.3,28.3,0,0,1-3.727-.42,10.526,10.526,0,0,1-2.252-.685,5.919,5.919,0,0,1-2.664-2.2,5.173,5.173,0,0,1-.726-1.959,5.841,5.841,0,0,1,.012-1.733,8.843,8.843,0,0,1,.814-2.474,13.355,13.355,0,0,1,2.643-3.452,29.335,29.335,0,0,1,6.032-4.309,34.257,34.257,0,0,1,6.368-2.731c2.17-.705,4.348-1.319,6.92-.46a2.454,2.454,0,0,1,1.059,3.952Z" transform="translate(-774.289 -465.159)"/>
      <path id="Path_3136" data-name="Path 3136" d="M843.3,497.972c1.274,2.009,1.034,3.855.832,5.715a41.983,41.983,0,0,1-1.022,5.552c-.458,1.853-1,3.683-1.623,5.648-.165.488-.351.994-.562,1.528a10.289,10.289,0,0,1-.9,1.784,6.77,6.77,0,0,1-.73.951,5.067,5.067,0,0,1-1.282,1.032,4.276,4.276,0,0,1-2.435.544,4.548,4.548,0,0,1-2.116-.745,7.389,7.389,0,0,1-1.764-1.7c-.383-.5-.682-.952-.96-1.39-.553-.87-1.031-1.671-1.5-2.443a29.146,29.146,0,0,0-2.829-4.1,7.412,7.412,0,0,0-2.963-2.292,3.476,3.476,0,0,0-2.57.147,4.644,4.644,0,1,1-2.2-8.933l.537-.052a14.072,14.072,0,0,1,4.152.17,11.726,11.726,0,0,1,3.895,1.532,16.529,16.529,0,0,1,5.021,5.067,46.617,46.617,0,0,1,2.88,5.233c.407.83.786,1.64,1.164,2.34.189.346.376.666.534.9.143.24.315.381.126.258a1.941,1.941,0,0,0-.854-.261,2.01,2.01,0,0,0-1.124.24c-.411.3-.148.155-.106.056a2.764,2.764,0,0,0,.336-.652,8.008,8.008,0,0,0,.346-1.052,30.8,30.8,0,0,0,.832-5.013c.171-1.747.371-3.508.624-5.27s.437-3.54,2.047-5.164l.076-.077a2.658,2.658,0,0,1,3.759-.017A2.821,2.821,0,0,1,843.3,497.972Z" transform="translate(-772.248 -464.093)"/>
      <path id="Path_3137" data-name="Path 3137" d="M837.414,499.267a15.556,15.556,0,0,1-2.125-5.319c-.635-3.168,2.523-5.339,2.809-3.954.278,1.352,2.851,7.938,2.851,7.938Z" transform="translate(-770.725 -464.62)" fill="#fff" stroke="#000" stroke-miterlimit="10" stroke-width="0.682"/>
      <path id="Path_3138" data-name="Path 3138" d="M810.6,591.459c.734,2.915,1.483,11.276,1.483,11.276h1.709v-5.3" transform="translate(-772.536 -457.123)" fill="#fff" stroke="#000" stroke-linecap="round" stroke-linejoin="round" stroke-width="0.682"/>
      <path id="Path_3139" data-name="Path 3139" d="M811.729,586.3a8.163,8.163,0,0,0-1.128,5.542c.509,3.192,6.8,11.827,10.884,11.827h2.966a1.422,1.422,0,0,0,1.294-.881,3.577,3.577,0,0,0-3.02-4.623c-1.484-4.07-3.718-6.322-5.048-9.174" transform="translate(-772.543 -457.503)" fill="#fff" stroke="#000" stroke-linecap="round" stroke-linejoin="round" stroke-width="0.682"/>
      <path id="Path_3140" data-name="Path 3140" d="M805.889,533.428l6,27.13s-6,11.144,1.389,28.054a4.441,4.441,0,0,0,.065,6.7s9.519,9.7,8.12,3.418A20.378,20.378,0,0,1,818.7,589.8c-1.274-16.517,3.273-43.561,3.273-43.561Z" transform="translate(-772.883 -461.393)" fill="#fff" stroke="#000" stroke-linecap="round" stroke-linejoin="round" stroke-width="0.682"/>
      <path id="Path_3141" data-name="Path 3141" d="M797.838,586.3a7.579,7.579,0,0,0-1.246,5.542c.564,3.192,3.525,11.827,8.03,11.827H807.9a1.576,1.576,0,0,0,1.429-.881,3.759,3.759,0,0,0-1.552-4.623c-.777-3.177-3.055-6.562-3.367-9.174" transform="translate(-773.575 -457.503)" fill="#fff" stroke="#000" stroke-linecap="round" stroke-linejoin="round" stroke-width="0.682"/>
      <path id="Path_3142" data-name="Path 3142" d="M798.451,546.236l1.269,14.323s-6.191,9.244-.843,27.256c-2.3,3.878-.424,5.777.07,6.858,1.405,3.078,6.991,8.81,6.269,3.88-2.6-17.768,8.861-65.125,8.861-65.125Z" transform="translate(-773.559 -461.393)" fill="#fff" stroke="#000" stroke-linecap="round" stroke-linejoin="round" stroke-width="0.682"/>
      <path id="Path_3143" data-name="Path 3143" d="M807.088,519.6s-13.467,8.506-8.686,27.653h24.2s2.94-13.593-1.857-26.057C812.551,523.059,807.088,519.6,807.088,519.6Z" transform="translate(-773.509 -462.411)" fill="#fff" stroke="#000" stroke-miterlimit="10" stroke-width="0.682"/>
      <path id="Path_3144" data-name="Path 3144" d="M807.37,597.366s-3.149-.87-5.4.534" transform="translate(-773.171 -456.708)" fill="#fff" stroke="#000" stroke-linecap="round" stroke-linejoin="round" stroke-width="0.682"/>
      <ellipse id="Ellipse_258" data-name="Ellipse 258" cx="7" cy="10.444" rx="7" ry="10.444" transform="translate(33.957 46.114) rotate(-78.446)" stroke="#000" stroke-linecap="round" stroke-linejoin="round" stroke-width="0.682"/>
      <path id="Path_3145" data-name="Path 3145" d="M815.112,498.733,821.487,490l4.3,1.21-3.405,9.9s10.646,8.11-2.227,6.285C806.6,505.472,815.112,498.733,815.112,498.733Z" transform="translate(-772.398 -464.588)" fill="#fff" stroke="#000" stroke-miterlimit="10" stroke-width="0.682"/>
      <ellipse id="Ellipse_259" data-name="Ellipse 259" cx="7.74" cy="11.389" rx="7.74" ry="11.389" transform="translate(39.696 29.221) rotate(-82.349)" fill="#fff" stroke="#000" stroke-miterlimit="10" stroke-width="0.682"/>
      <path id="Path_3146" data-name="Path 3146" d="M832.793,489.733a4.3,4.3,0,0,1-5.276,2.664c-1.938-.71-2.609-3.011-1.79-5.249s2.816-3.563,4.755-2.855A4.3,4.3,0,0,1,832.793,489.733Z" transform="translate(-771.448 -465.023)" fill="#fff" stroke="#000" stroke-miterlimit="10" stroke-width="0.682"/>
      <path id="Path_3147" data-name="Path 3147" d="M827.091,487.646a4.3,4.3,0,0,1-5.277,2.664c-1.938-.71-2.609-3.011-1.79-5.249s2.817-3.563,4.755-2.854A4.3,4.3,0,0,1,827.091,487.646Z" transform="translate(-771.868 -465.176)" fill="#fff" stroke="#000" stroke-miterlimit="10" stroke-width="0.682"/>
      <path id="Path_3148" data-name="Path 3148" d="M821.811,506.367a8.805,8.805,0,0,0-1.616-3.434" transform="translate(-771.83 -463.637)" fill="#fff" stroke="#000" stroke-linecap="round" stroke-miterlimit="10" stroke-width="0.682"/>
      <path id="Path_3149" data-name="Path 3149" d="M826.842,482.077s5.432-9.355,10.19-13.337c.318-.266.769-.087.659.312l-4.732,17.17" transform="translate(-771.341 -466.162)" fill="#fff" stroke="#000" stroke-linecap="round" stroke-miterlimit="10" stroke-width="0.682"/>
      <path id="Path_3150" data-name="Path 3150" d="M816.086,483.567c1.077-1.422,3.292-8.621,12.5-17.1.3-.281.769-.087.659.312l-4.3,15.469" transform="translate(-772.132 -466.33)" fill="#fff" stroke="#000" stroke-linecap="round" stroke-miterlimit="10" stroke-width="0.682"/>
      <path id="Path_3151" data-name="Path 3151" d="M814.4,487.218a10.144,10.144,0,0,1-2.731,1.587c-2.82,1.1-7.158-.279-7.336-2.763-.151-2.119,1.891-7.931,15.684-7.377,1.993.081,1.648,2.156.185,2.027a10.836,10.836,0,0,0-4.255.8" transform="translate(-772.998 -465.425)" fill="#fff" stroke="#000" stroke-linecap="round" stroke-linejoin="round" stroke-width="0.682"/>
      <path id="Path_3152" data-name="Path 3152" d="M813.735,480.485s3,.209,3.468,2.684a2.525,2.525,0,0,1-1.658,3.08" transform="translate(-772.305 -465.289)" fill="#fff" stroke="#000" stroke-linecap="round" stroke-linejoin="round" stroke-width="0.682"/>
      <path id="Path_3153" data-name="Path 3153" d="M812.684,486.5s1.728,2.383,2.867.42.188-4.977-2.306-4.569" transform="translate(-772.383 -465.154)" fill="#fff" stroke="#000" stroke-linecap="round" stroke-linejoin="round" stroke-width="0.682"/>
      <path id="Path_3154" data-name="Path 3154" d="M812.987,484.792a1.809,1.809,0,0,1,1.623,2.418c-.444,2.433-2.61,1.921-2.262.91.478-1.386-.635-1.021-.635-1.021" transform="translate(-772.454 -464.972)" fill="#fff" stroke="#000" stroke-linecap="round" stroke-linejoin="round" stroke-width="0.682"/>
      <path id="Path_3155" data-name="Path 3155" d="M825.9,490.726a1.177,1.177,0,1,1-2.236-.705c.136-.43.676-.4,1.294-.2S826.032,490.3,825.9,490.726Z" transform="translate(-771.576 -464.612)" stroke="#000" stroke-linecap="round" stroke-linejoin="round" stroke-width="0.682"/>
      <ellipse id="Ellipse_260" data-name="Ellipse 260" cx="1.039" cy="1.999" rx="1.039" ry="1.999" transform="translate(46.678 28.03) rotate(-73.452)" stroke="#000" stroke-linecap="round" stroke-linejoin="round" stroke-width="0.682"/>
      <path id="Path_3156" data-name="Path 3156" d="M839.3,496.108c2.009-1.514,3.764-1.876,5.808-5.436.981-1.709,2.318-1,2.319,1.089,0,4.023-4.122,7.779-7.138,8.217-1.23.178-2.757-.438-2.652-1.675" transform="translate(-770.547 -464.61)" fill="#fff" stroke="#000" stroke-linecap="round" stroke-linejoin="round" stroke-width="0.682"/>
      <path id="Path_3157" data-name="Path 3157" d="M822.255,485.9a5.263,5.263,0,0,1-1.3,1.968,4.923,4.923,0,0,1,1.529-4.313A5.259,5.259,0,0,1,822.255,485.9Z" transform="translate(-771.777 -465.063)" stroke="#000" stroke-linecap="round" stroke-miterlimit="10" stroke-width="0.682"/>
      <path id="Path_3158" data-name="Path 3158" d="M828.084,487.981a5.248,5.248,0,0,1-1.3,1.968,4.92,4.92,0,0,1,1.53-4.313A5.269,5.269,0,0,1,828.084,487.981Z" transform="translate(-771.348 -464.91)" stroke="#000" stroke-linecap="round" stroke-miterlimit="10" stroke-width="0.682"/>
      <path id="Path_3159" data-name="Path 3159" d="M824.554,480.67a14.86,14.86,0,0,1,6.484,2.547" transform="translate(-771.509 -465.275)" fill="none" stroke="#000" stroke-linecap="round" stroke-miterlimit="10" stroke-width="0.682"/>
      <path id="Path_3160" data-name="Path 3160" d="M835.273,492.339a35.754,35.754,0,0,0,5.191-11.083c1.109-3.8,5.175-1.739,4.414,1.611-.928,4.086-3.774,10.2-6.684,13.055C835.81,498.26,833.3,495.04,835.273,492.339Z" transform="translate(-770.773 -465.382)" fill="#fff" stroke="#000" stroke-miterlimit="10" stroke-width="0.682"/>
      <path id="Path_3161" data-name="Path 3161" d="M834.584,495.863a45.562,45.562,0,0,0,8.127-17.159,1.7,1.7,0,0,1,3.337.675,51.827,51.827,0,0,1-8.982,18.744C835.648,499.882,833.18,497.605,834.584,495.863Z" transform="translate(-770.802 -465.518)" fill="#fff" stroke="#000" stroke-linecap="round" stroke-linejoin="round" stroke-width="0.682"/>
      <path id="Path_3162" data-name="Path 3162" d="M837.487,494.16c2.106-2.484,4.7-8.311,5.621-11.525,1.3-4.54,5.143-2.788,4.673.627-.573,4.164-3.966,11.018-6.613,14.14C839,499.959,835.317,496.72,837.487,494.16Z" transform="translate(-770.606 -465.332)" fill="#fff" stroke="#000" stroke-miterlimit="10" stroke-width="0.682"/>
      <path id="Path_3163" data-name="Path 3163" d="M822.05,597.348a5.651,5.651,0,0,0-2.38.534" transform="translate(-771.869 -456.69)" fill="#fff" stroke="#000" stroke-linecap="round" stroke-linejoin="round" stroke-width="0.682"/>
    </g>
    <ellipse id="Ellipse_261" data-name="Ellipse 261" cx="1.385" cy="1.224" rx="1.385" ry="1.224" transform="matrix(0.93, -0.368, 0.368, 0.93, 792.602, 524.958)" fill="#fff" stroke="#000" stroke-miterlimit="10" stroke-width="0.682"/>
    <path id="Path_3164" data-name="Path 3164" d="M513.718,456.266a5.291,5.291,0,0,0-5.2-5.2,5.049,5.049,0,0,0-2.036.444c0-.023,0-.045,0-.069a5.2,5.2,0,0,0-10.4,0,5.624,5.624,0,0,0,.106.865,5.1,5.1,0,0,0-1.541-.235,5.2,5.2,0,0,0-.162,10.4,5.165,5.165,0,0,0,8.694,3.635,5.013,5.013,0,0,0,2.728.792,5.26,5.26,0,0,0,5.2-5.2,5.825,5.825,0,0,0-.112-.891A5.066,5.066,0,0,0,513.718,456.266Z" transform="translate(3.382 9.299)" fill="#fff" stroke="#000" stroke-miterlimit="10" stroke-width="0.682"/>
    <line id="Line_175" data-name="Line 175" y1="34.879" transform="translate(487.932 516.959)" fill="none" stroke="#000" stroke-linejoin="round" stroke-width="1.574"/>
    <g id="Group_631" data-name="Group 631" transform="translate(650.545 537.256)">
      <line id="Line_176" data-name="Line 176" y1="6.45" x2="1.983" transform="translate(21.681 6.6)" fill="none" stroke="#000" stroke-linejoin="round" stroke-width="0.682"/>
      <path id="Path_3165" data-name="Path 3165" d="M649.425,525.706l19.639,6.229-9.051-6.229Z" transform="translate(-635.391 -522.11)" fill="none" stroke="#000" stroke-linejoin="round" stroke-width="0.682"/>
      <path id="Path_3166" data-name="Path 3166" d="M661.308,534.935c-.062-.033-.2-.1-.34-.153.012-.039.023-.076.032-.112a2.072,2.072,0,0,0-.95-2.319,3.338,3.338,0,0,0-2.5-.293c-.058-.128-.114-.248-.137-.287a2.668,2.668,0,0,0-1.056-1.007,3.021,3.021,0,0,0-2.822.233,4.142,4.142,0,0,0-.81.7c-.01,0-.9-.481-1.2-.581a3.219,3.219,0,0,0-3.007.386,4.423,4.423,0,0,0-.876.9c-.1.13-.266.461-.39.537-.28.173-.119.032-.41.072-1.229.171-2.211-.024-3.037,1.046-.426.551-.376,1.707-.828,2.1-1.081.939-.322,2.253.775,2.576a1.706,1.706,0,0,0,.508.7c.931.772,2.452.686,3.6.554.655-.075,1.255-.149,1.841-.2.788.1,1.574.191,2.355.23.667.033,1.332.049,2,.058a9.577,9.577,0,0,0,1.923-.009c.918-.018,1.835-.052,2.75-.108a1.689,1.689,0,0,0,1.407-.807,2.879,2.879,0,0,0,.934-.232A2.155,2.155,0,0,0,661.308,534.935Z" transform="translate(-635.905 -521.756)" fill="#fff" stroke="#000" stroke-linejoin="round" stroke-width="0.682"/>
      <path id="Path_3167" data-name="Path 3167" d="M650.6,553.682c-10.983,0-12.228-2.958-12.954-7.894-.714-4.858,4.435-9.79,4.435-9.79h21.708a24.076,24.076,0,0,1,2.932,11.036c4.084,3.681,2.183,6.215,0,5.019l.564,1.629H650.6l-.141-1.911s-2.253,1.337-3.46.342c-1.867-1.538,1.794-4.74,1.794-4.74" transform="translate(-636.263 -521.352)" fill="#fff" stroke="#000" stroke-linejoin="round" stroke-width="0.682"/>
      <ellipse id="Ellipse_262" data-name="Ellipse 262" cx="1.964" cy="3.378" rx="1.964" ry="3.378" transform="matrix(0.98, -0.198, 0.198, 0.98, 16.358, 20.158)" stroke="#000" stroke-linejoin="round" stroke-width="0.682"/>
      <ellipse id="Ellipse_263" data-name="Ellipse 263" cx="1.964" cy="3.378" rx="1.964" ry="3.378" transform="matrix(0.98, -0.198, 0.198, 0.98, 23.281, 20.158)" stroke="#000" stroke-linejoin="round" stroke-width="0.682"/>
      <path id="Path_3168" data-name="Path 3168" d="M657.107,549.541H660l-2.318-3.332Z" transform="translate(-634.826 -520.601)" stroke="#000" stroke-linejoin="round" stroke-width="0.682"/>
      <line id="Line_177" data-name="Line 177" x1="0.2" y1="1.922" transform="translate(17.121 30.407)" stroke="#000" stroke-linejoin="round" stroke-width="0.682"/>
      <line id="Line_178" data-name="Line 178" x1="0.2" y1="1.922" transform="translate(19.272 30.407)" stroke="#000" stroke-linejoin="round" stroke-width="0.682"/>
      <line id="Line_179" data-name="Line 179" x1="0.2" y1="1.922" transform="translate(21.424 30.407)" stroke="#000" stroke-linejoin="round" stroke-width="0.682"/>
      <line id="Line_180" data-name="Line 180" x1="0.2" y1="1.922" transform="translate(23.576 30.407)" stroke="#000" stroke-linejoin="round" stroke-width="0.682"/>
      <line id="Line_181" data-name="Line 181" x1="0.2" y1="1.922" transform="translate(25.728 30.407)" stroke="#000" stroke-linejoin="round" stroke-width="0.682"/>
      <line id="Line_182" data-name="Line 182" x1="0.2" y1="1.922" transform="translate(27.88 30.407)" stroke="#000" stroke-linejoin="round" stroke-width="0.682"/>
      <path id="Path_3169" data-name="Path 3169" d="M647.172,536.987l-2.081-13.227a1.661,1.661,0,0,0-2.085-1.343l-6.653,1.846" transform="translate(-636.353 -522.356)" fill="none" stroke="#000" stroke-linejoin="round" stroke-width="0.682"/>
      <path id="Path_3170" data-name="Path 3170" d="M653.3,541.064a1.684,1.684,0,0,1,1.717.925,5.548,5.548,0,0,1,.534,3.914,1.905,1.905,0,0,1-.544.914,1.128,1.128,0,0,1-.982.242,1.288,1.288,0,0,0,.968-1.278,7.386,7.386,0,0,0-.073-1.786,7.177,7.177,0,0,0-.407-1.741A1.785,1.785,0,0,0,653.3,541.064Z" transform="translate(-635.106 -520.982)" fill="#fff"/>
      <path id="Path_3171" data-name="Path 3171" d="M659.807,541.064a1.684,1.684,0,0,1,1.717.925,5.548,5.548,0,0,1,.534,3.914,1.914,1.914,0,0,1-.544.914,1.128,1.128,0,0,1-.982.242,1.288,1.288,0,0,0,.968-1.278,7.393,7.393,0,0,0-.074-1.786,7.179,7.179,0,0,0-.406-1.741A1.785,1.785,0,0,0,659.807,541.064Z" transform="translate(-634.627 -520.982)" fill="#fff"/>
    </g>
    <g id="Group_632" data-name="Group 632" transform="translate(720.37 558.698)">
      <path id="Path_3172" data-name="Path 3172" d="M716.21,547.761a6.729,6.729,0,0,0-3.693,1.118,6.729,6.729,0,0,0-3.693-1.118c-4.1,0-7.431,3.267-7.431,9.136s6,10.141,8.7,10.141a3.195,3.195,0,0,1,4.855,0c2.7,0,8.7-4.272,8.7-10.141S720.314,547.761,716.21,547.761Z" transform="translate(-701.392 -541.929)" fill="#fff" stroke="#000" stroke-linejoin="round" stroke-width="0.682"/>
      <path id="Path_3173" data-name="Path 3173" d="M713.682,542.329a16.723,16.723,0,0,0-1.2,6.949s-1.706-5.19-10.674-5.312c4.018,7.327,9.688,5.861,9.688,5.861" transform="translate(-701.361 -542.329)" fill="#fff" stroke="#000" stroke-linejoin="round" stroke-width="0.682"/>
    </g>
    <path id="Path_3174" data-name="Path 3174" d="M798.1,444.885a4.036,4.036,0,0,0,1.391-1.446,6.11,6.11,0,0,0,.625-1.845,14.818,14.818,0,0,0-.1-4,43.094,43.094,0,0,0-1.907-8.045c-.852-2.652-1.91-5.253-2.878-7.922a39.616,39.616,0,0,1-2.453-8.209l.109-.027a61.193,61.193,0,0,0,3.117,7.9c1.147,2.595,2.257,5.212,3.162,7.908a35.867,35.867,0,0,1,1.809,8.319c.029.711.071,1.421.068,2.134a9.016,9.016,0,0,1-.286,2.121,4.583,4.583,0,0,1-2.626,3.225Z" transform="translate(36.886 -1.688)"/>
    <path id="Path_3175" data-name="Path 3175" d="M764.193,451.818l2.626,10.828,2.516,10.855-.109.026a57.315,57.315,0,0,1-3.5-10.621,58.034,58.034,0,0,1-1.64-11.062Z" transform="translate(23.591 9.709)"/>
    <path id="Path_3176" data-name="Path 3176" d="M570.867,479.068a28.653,28.653,0,0,1,5.572.925c1.832.455,3.645.982,5.441,1.563,3.6,1.154,7.126,2.5,10.627,3.912l-.451,1.033c-3.406-1.578-6.847-3.089-10.362-4.413-1.755-.666-3.531-1.28-5.329-1.823A28.593,28.593,0,0,0,570.867,479.068Z" transform="translate(9.374 11.714)"/>
    <path id="Path_3177" data-name="Path 3177" d="M818.217,522.9a34.361,34.361,0,0,1,1.419,5.477,52.168,52.168,0,0,1,.695,5.617,56.217,56.217,0,0,1,.025,5.659c-.072,1.885-.275,3.763-.515,5.632l-.112-.015c-.138-1.917-.2-3.791-.261-5.652-.025-.466-.043-.93-.044-1.393l-.073-1.389c-.016-.927-.092-1.849-.143-2.771-.1-1.845-.273-3.685-.443-5.532-.205-1.843-.37-3.7-.653-5.591Z" transform="translate(27.567 14.94)"/>
    <path id="Path_3178" data-name="Path 3178" d="M712.349,564.176a2.3,2.3,0,0,0,1.749.347,4.2,4.2,0,0,0,1.543-.717,11.679,11.679,0,0,0,1.37-1.194c.434-.478.917-.918,1.324-1.4a13.487,13.487,0,0,0,1.178-1.428,7.327,7.327,0,0,0,.9-1.521,14.47,14.47,0,0,0,.861-3.752l.112-.016a9.229,9.229,0,0,1-.108,4.032,8.963,8.963,0,0,1-2.121,3.442,13.352,13.352,0,0,1-3.11,2.594,4.052,4.052,0,0,1-1.963.529,2.456,2.456,0,0,1-1.825-.848Z" transform="translate(19.778 17.264)"/>
    <path id="Path_3179" data-name="Path 3179" d="M788.616,400.611l3.344,1.748-1.7-18.753-1.114,7.469" transform="translate(36.579 -3.879)" fill="none" stroke="#000" stroke-linecap="round" stroke-linejoin="round" stroke-width="0.682"/>
    <path id="Path_3180" data-name="Path 3180" d="M789.923,441.312c-2-2.177-3.7-4.92-.14-9.162V337.187" transform="translate(36.513 -75.427)" fill="none" stroke="#000" stroke-linecap="round" stroke-linejoin="round" stroke-width="0.682"/>
    <path id="Path_3181" data-name="Path 3181" d="M811.059,367.341c-2-.753-3.7-1.7-.14-3.167V267.187" transform="translate(38.068 -7.295)" fill="none" stroke="#000" stroke-linecap="round" stroke-linejoin="round" stroke-width="0.682"/>
  </g>
</svg>
