<svg xmlns="http://www.w3.org/2000/svg" width="1539.977" height="1106.339" viewBox="0 0 1539.977 1106.339">
  <g id="Group_744" data-name="Group 744" transform="translate(-327.423 -3375.154)">
    <g id="Group_708" data-name="Group 708">
      <rect id="Rectangle_200" data-name="Rectangle 200" width="284.607" height="136.25" transform="translate(931.244 3907.441)" stroke="#000" stroke-miterlimit="10" stroke-width="2.6"/>
      <rect id="Rectangle_201" data-name="Rectangle 201" width="30.995" height="336.782" transform="translate(1262.179 3856.179)" fill="#fff" stroke="#000" stroke-linecap="round" stroke-linejoin="round" stroke-width="2.6"/>
      <rect id="Rectangle_202" data-name="Rectangle 202" width="377.063" height="336.782" transform="translate(889.14 3855.931)" fill="#fff" stroke="#000" stroke-miterlimit="10" stroke-width="2.6"/>
      <line id="Line_224" data-name="Line 224" y1="118.881" x2="69.079" transform="translate(897.389 3856.179)" fill="#fff" stroke="#000" stroke-miterlimit="10" stroke-width="2.6"/>
      <line id="Line_225" data-name="Line 225" y1="118.881" x2="69.079" transform="translate(967.086 3856.179)" fill="#fff" stroke="#000" stroke-miterlimit="10" stroke-width="2.6"/>
      <line id="Line_226" data-name="Line 226" y1="118.881" x2="69.079" transform="translate(1036.783 3856.179)" fill="#fff" stroke="#000" stroke-miterlimit="10" stroke-width="2.6"/>
      <line id="Line_227" data-name="Line 227" y1="118.881" x2="69.079" transform="translate(1106.48 3856.179)" fill="#fff" stroke="#000" stroke-miterlimit="10" stroke-width="2.6"/>
      <line id="Line_228" data-name="Line 228" y1="118.881" x2="69.079" transform="translate(1176.177 3856.179)" fill="#fff" stroke="#000" stroke-miterlimit="10" stroke-width="2.6"/>
      <line id="Line_229" data-name="Line 229" x2="401.608" transform="translate(891.567 3975.059)" fill="#fff" stroke="#000" stroke-miterlimit="10" stroke-width="2.6"/>
      <g id="Group_701" data-name="Group 701">
        <path id="Path_3419" data-name="Path 3419" d="M1052.566,3975.054c0-22.327,10.318-41.595,25.239-50.577a34.643,34.643,0,0,0-14.868-3.387c-23.52,0-42.587,24.163-42.587,53.969s19.067,53.97,42.587,53.97a34.637,34.637,0,0,0,14.882-3.4C1062.891,4016.656,1052.566,3997.386,1052.566,3975.054Z" fill="#fff" stroke="#000" stroke-miterlimit="10" stroke-width="2.6"/>
        <path id="Path_3420" data-name="Path 3420" d="M1105.525,3975.059c0-23.178-11.532-42.937-27.72-50.582-14.921,8.982-25.239,28.25-25.239,50.577s10.325,41.6,25.253,50.58C1094,4017.985,1105.525,3998.23,1105.525,3975.059Z" stroke="#000" stroke-miterlimit="10" stroke-width="2.6"/>
      </g>
      <g id="Group_702" data-name="Group 702">
        <path id="Path_3421" data-name="Path 3421" d="M1170.819,3975.059c0-13.071,6.334-24.262,15.322-28.929a20.178,20.178,0,0,0-9.344-2.327c-13.622,0-24.664,13.994-24.664,31.256s11.042,31.257,24.664,31.257a20.164,20.164,0,0,0,9.344-2.328C1177.153,3999.321,1170.819,3988.13,1170.819,3975.059Z" fill="#fff" stroke="#000" stroke-miterlimit="10" stroke-width="2.6"/>
        <ellipse id="Ellipse_282" data-name="Ellipse 282" cx="15.321" cy="28.929" rx="15.321" ry="28.929" transform="translate(1170.819 3946.13)" stroke="#000" stroke-miterlimit="10" stroke-width="2.6"/>
      </g>
      <g id="Group_703" data-name="Group 703">
        <path id="Path_3422" data-name="Path 3422" d="M935.685,3975.059c0-13.071,6.334-24.262,15.322-28.929a20.178,20.178,0,0,0-9.344-2.327c-13.622,0-24.664,13.994-24.664,31.256s11.042,31.257,24.664,31.257a20.164,20.164,0,0,0,9.344-2.328C942.019,3999.321,935.685,3988.13,935.685,3975.059Z" fill="#fff" stroke="#000" stroke-miterlimit="10" stroke-width="2.6"/>
        <ellipse id="Ellipse_283" data-name="Ellipse 283" cx="15.321" cy="28.929" rx="15.321" ry="28.929" transform="translate(935.685 3946.13)" stroke="#000" stroke-miterlimit="10" stroke-width="2.6"/>
      </g>
      <rect id="Rectangle_203" data-name="Rectangle 203" width="24.502" height="15.739" transform="translate(1268.389 3967.592)" fill="#fff" stroke="#000" stroke-miterlimit="10" stroke-width="2.6"/>
      <g id="Group_704" data-name="Group 704">
        <path id="Path_3423" data-name="Path 3423" d="M1101.71,3997.379s-22.259-6.914-60.264,15.184c-34.549,20.089-73.259,16.466-74.657,2.077,40.817-27.444,21.352-95.855,24.11-107.3s18.008,24.364,18.008,24.364,12.019-.552,18.988-1.768c-.592-15.56-.639-43.306,8.826-25.43,1.6,3.02,5.84,17.2,7.071,19.828a35.965,35.965,0,0,0,47.787,17.481c2.311-1.083,3.7-1.85,3.7-1.85S1113.708,3962.622,1101.71,3997.379Z" fill="#fff" stroke="#000" stroke-miterlimit="10" stroke-width="2.6"/>
        <ellipse id="Ellipse_284" data-name="Ellipse 284" cx="3.448" cy="7.176" rx="3.448" ry="7.176" transform="translate(998.509 3964.44)" stroke="#000" stroke-miterlimit="10" stroke-width="2.6"/>
        <ellipse id="Ellipse_285" data-name="Ellipse 285" cx="3.448" cy="7.176" rx="3.448" ry="7.176" transform="translate(1017.403 3964.44)" stroke="#000" stroke-miterlimit="10" stroke-width="2.6"/>
        <path id="Path_3424" data-name="Path 3424" d="M1010.27,3974.353c0,7.409-4.3,8.877-4.3,8.877" stroke="#000" stroke-linecap="round" stroke-miterlimit="10" stroke-width="2.6"/>
        <path id="Path_3425" data-name="Path 3425" d="M1029.792,3974.353c0,7.409-4.3,8.877-4.3,8.877" stroke="#000" stroke-linecap="round" stroke-miterlimit="10" stroke-width="2.6"/>
        <path id="Path_3426" data-name="Path 3426" d="M1001.626,3966.716s-1.894.7-1.241,7.53" fill="none" stroke="#fff" stroke-linecap="round" stroke-miterlimit="10" stroke-width="2"/>
        <path id="Path_3427" data-name="Path 3427" d="M1020.521,3966.246s-1.9.7-1.242,7.531" fill="none" stroke="#fff" stroke-linecap="round" stroke-miterlimit="10" stroke-width="2"/>
        <circle id="Ellipse_286" data-name="Ellipse 286" cx="5.638" cy="5.638" r="5.638" transform="translate(962.548 4006.956)" stroke="#000" stroke-miterlimit="10" stroke-width="2.6"/>
      </g>
      <path id="Path_3428" data-name="Path 3428" d="M1293.348,3892.731s56.883,4.821,59.09,71.709-59.263,117.174-59.263,117.174Z" stroke="#000" stroke-miterlimit="10" stroke-width="2.6"/>
      <path id="Path_3429" data-name="Path 3429" d="M1354.947,4130.649s11.791-.44,3.406,18.646c-7.845,17.857-27.128,16.024-34.247,27.116-5.662,8.823,0,16.55,20.675,16.55,23.1,0,31.35.145,44.541-19.384,27.765-41.106,15.082-97.874-11.508-101.552-16.547-2.288-22.777,19.179-22.777,19.179l-9.335,2.834" fill="#fff" stroke="#000" stroke-miterlimit="10" stroke-width="2.6"/>
      <ellipse id="Ellipse_287" data-name="Ellipse 287" cx="12.852" cy="26.204" rx="12.852" ry="26.204" transform="matrix(0.976, -0.22, 0.22, 0.976, 1334.863, 4088.213)" fill="#fff" stroke="#000" stroke-miterlimit="10" stroke-width="2.6"/>
      <path id="Path_3430" data-name="Path 3430" d="M1293.175,4093.027s37.2-13.791,47.126-8.275,19.424,53.663,12.195,58.076-59.321,17.806-59.321,17.806Z" stroke="#000" stroke-miterlimit="10" stroke-width="2.6"/>
      <path id="Path_3431" data-name="Path 3431" d="M1050.046,3976.879c10.293-1.669,10.46,12.106,3.318,20.5-6.666,7.835-14.033,7.293-16,3.606-3.2-6,3.055-8.326,5.56-12.922C1044.772,3984.68,1045.357,3977.639,1050.046,3976.879Z" fill="#fff" stroke="#000" stroke-miterlimit="10" stroke-width="2.6"/>
      <path id="Path_3432" data-name="Path 3432" d="M1151.759,3971.616s-24.761,7.6-30.261,15.557,16.631,3.292,16.631,3.292" fill="#fff" stroke="#000" stroke-miterlimit="10" stroke-width="2.6"/>
      <path id="Path_3433" data-name="Path 3433" d="M1196.706,3987.173s-3.958-1.544-10.451,7.911c-6.352,9.249.358,30,1.493,37.045,1.295,8.03-8.25,7.75-8.25,7.75s-.863,5.645-3.888,7.642c-2.8,1.851-7.8,2.858-13.8-1.892-1.5,1.75-9.682,3.25-13.067-5.75-11.834,0-11.834-16.415-11.834-39.915s20.016-32.771,30.334-35.524c18.5-4.936,27.544,1.806,27.544,1.806C1203.921,3975.059,1196.706,3987.173,1196.706,3987.173Z" fill="#fff" stroke="#000" stroke-miterlimit="10" stroke-width="2.6"/>
      <path id="Path_3434" data-name="Path 3434" d="M1179.5,4039.879s-9.567.94-9.567-30.1" fill="#fff" stroke="#000" stroke-miterlimit="10" stroke-width="2.6"/>
      <path id="Path_3435" data-name="Path 3435" d="M1161.815,4045.629c-4.679-10.326-5.182-35.852-5.182-35.852" fill="#fff" stroke="#000" stroke-miterlimit="10" stroke-width="2.6"/>
      <path id="Path_3436" data-name="Path 3436" d="M1148.748,4039.879s-3.833-20.369-2.5-30.1" fill="#fff" stroke="#000" stroke-miterlimit="10" stroke-width="2.6"/>
      <path id="Path_3437" data-name="Path 3437" d="M1290.907,3967.592c3.43,0,6.21,3.524,6.21,7.87s-2.78,7.869-6.21,7.869" fill="#fff" stroke="#000" stroke-miterlimit="10" stroke-width="2.6"/>
      <path id="Path_3438" data-name="Path 3438" d="M1285.1,3967.592c3.43,0,6.21,3.524,6.21,7.87s-2.78,7.869-6.21,7.869" fill="#fff" stroke="#000" stroke-miterlimit="10" stroke-width="2.6"/>
      <path id="Path_3439" data-name="Path 3439" d="M1275.33,3967.592c3.429,0,6.209,3.524,6.209,7.87s-2.78,7.869-6.209,7.869" fill="#fff" stroke="#000" stroke-miterlimit="10" stroke-width="2.6"/>
      <g id="Group_705" data-name="Group 705">
        <path id="Path_3440" data-name="Path 3440" d="M818.737,3955.813s-20.75-2.863-36.416,7.685-27.218,59.36-13.088,103.673,86.83,21.617,86.83,21.617,51.838,23.781,63.633-3.941c-25.667-6.337-69.147-8.6-69.147-8.6s-52.691,10.909-62.39-12.689c-16.93-41.188,5.314-70.639,10.539-73.646,8.159-4.7,30.429-.5,90.521,24.323l-.147-93.448c-47.28-20.824-64.885,26.764-64.885,26.764" fill="#fff" stroke="#000" stroke-miterlimit="10" stroke-width="2.6"/>
        <path id="Path_3441" data-name="Path 3441" d="M788.619,3905.938s9.508,35.192,23.7,47.74,13.178-6.882,13.178-6.882-17.051-7.2-16.863-31.22" fill="#fff" stroke="#000" stroke-miterlimit="10" stroke-width="2.6"/>
        <path id="Path_3442" data-name="Path 3442" d="M785.233,3866.363c-2.641,32.149,6.114,61.277,22.2,62.6s33.4-25.665,36.043-57.814-9.613-42.764-25.7-44.085S787.874,3834.214,785.233,3866.363Z" fill="#fff" stroke="#000" stroke-miterlimit="10" stroke-width="2.6"/>
        <ellipse id="Ellipse_288" data-name="Ellipse 288" cx="11.729" cy="8.099" rx="11.729" ry="8.099" transform="translate(831.438 3881.773) rotate(-89.277)" stroke="#000" stroke-linecap="round" stroke-linejoin="round" stroke-width="2.6"/>
        <ellipse id="Ellipse_289" data-name="Ellipse 289" cx="11.729" cy="8.099" rx="11.729" ry="8.099" transform="translate(809.005 3879.986) rotate(-89.277)" stroke="#000" stroke-linecap="round" stroke-linejoin="round" stroke-width="2.6"/>
        <path id="Path_3443" data-name="Path 3443" d="M810.881,3871.719l7.345-7.036v7.049l6.087-5.238" fill="none" stroke="#fff" stroke-linecap="round" stroke-linejoin="round" stroke-width="2"/>
        <path id="Path_3444" data-name="Path 3444" d="M833.071,3872.866l7.679-7.355v7.049l5.7-4.906" fill="none" stroke="#fff" stroke-linecap="round" stroke-linejoin="round" stroke-width="2"/>
        <path id="Path_3445" data-name="Path 3445" d="M827.577,3888.061c5.138,7.967,11.579,12.957,14.387,11.147s.919-9.738-4.218-17.705-10.449-10.454-13.257-8.643S822.44,3880.093,827.577,3888.061Z" fill="#fff" stroke="#000" stroke-miterlimit="10" stroke-width="2.6"/>
        <ellipse id="Ellipse_290" data-name="Ellipse 290" cx="13.706" cy="88.23" rx="13.706" ry="88.23" transform="matrix(0.108, -0.994, 0.994, 0.108, 729.386, 3849.544)" fill="#fff" stroke="#000" stroke-linecap="round" stroke-linejoin="round" stroke-width="2.6"/>
        <path id="Path_3446" data-name="Path 3446" d="M849.77,3847.414s-9.347,4.843-35.984,1.327c-20.893-2.757-26.534-8.829-26.534-8.829,2.071-17.264,15.355-29.869,32.742-30.059C840.706,3809.625,851.842,3830.15,849.77,3847.414Z" fill="#fff" stroke="#000" stroke-linecap="round" stroke-linejoin="round" stroke-width="2.6"/>
        <path id="Path_3447" data-name="Path 3447" d="M798.812,3887.639a36.555,36.555,0,0,0,33.409,6.793" fill="none" stroke="#000" stroke-linecap="round" stroke-linejoin="round" stroke-width="2.6"/>
      </g>
      <path id="Path_3448" data-name="Path 3448" d="M859.964,4052.6l2.726,23.948s10.963,11.844,39.877,18.022c31.365,6.7,45.348.987,45.348.987l12.062-22.18Z" fill="#fff" stroke="#000" stroke-miterlimit="10" stroke-width="2.6"/>
      <path id="Path_3449" data-name="Path 3449" d="M859.726,4058.87c-21.235-14.13,14.282-18.021,14.282-18.021a8.855,8.855,0,0,1,7.527-10.192c8.962-1.848,12.733,4.385,21.8,1.283s24.948-3.487,27.332,5.507,10.046,5.013,15.51,8,12.4,14.426,12.4,14.426,24.536,15.571,2.015,20.3C947.737,4096.473,864.1,4076.665,859.726,4058.87Z" fill="#fff" stroke="#000" stroke-miterlimit="10" stroke-width="2.6"/>
      <path id="Path_3450" data-name="Path 3450" d="M1341.773,3999.911c.56-10.384,1.193-20.515.7-30.484l-.258-3.721c-.051-.618-.038-1.24-.106-1.854l-.19-1.842-.379-3.676-.6-3.627a85,85,0,0,0-3.491-14.1,69.56,69.56,0,0,0-14.339-24.8,78.2,78.2,0,0,0-23.888-17.71l-.058-.028a.246.246,0,0,1,.17-.459,63.327,63.327,0,0,1,36.264,27.385,69.015,69.015,0,0,1,6.584,14c.381,1.234.85,2.443,1.155,3.7l.955,3.755c.3,1.254.491,2.533.742,3.8l.354,1.9c.1.638.16,1.28.241,1.919l.465,3.841.232,3.861c.223,2.571.1,5.151.131,7.726a140.489,140.489,0,0,1-4.2,30.529.248.248,0,0,1-.489-.071Z" fill="#fff"/>
      <ellipse id="Ellipse_291" data-name="Ellipse 291" cx="6.255" cy="7.458" rx="6.255" ry="7.458" transform="matrix(0.134, -0.991, 0.991, 0.134, 908.347, 4045.794)" stroke="#000" stroke-linecap="round" stroke-linejoin="round" stroke-width="2.6"/>
      <g id="Group_706" data-name="Group 706">
        <path id="Path_3451" data-name="Path 3451" d="M954.863,3879.6h0a7.009,7.009,0,0,1-3.281-.848,7.731,7.731,0,0,1-2.586-2.228,6.587,6.587,0,0,1-1.266-3.131c-.2-1.675-.34-3.214-.448-4.661s-.181-2.8-.229-4.111-.073-2.573-.075-3.836.015-2.526.058-3.835.11-2.665.211-4.112.238-2.987.427-4.663a6.569,6.569,0,0,1,1.253-3.133,7.689,7.689,0,0,1,2.576-2.228,6.99,6.99,0,0,1,3.277-.849h0a8.294,8.294,0,0,1,6.158,2.325,28.9,28.9,0,0,0-.815,3.885c-.19,1.676-.326,3.215-.427,4.663s-.169,2.8-.212,4.112-.061,2.572-.058,3.835.027,2.526.075,3.835.121,2.665.229,4.112.251,2.986.448,4.661a5.689,5.689,0,0,1-1.223,4.388A5.251,5.251,0,0,1,954.863,3879.6Z" fill="#fff" stroke="#000" stroke-miterlimit="10" stroke-width="2.6"/>
        <path id="Path_3452" data-name="Path 3452" d="M968,3881.392h0a7.519,7.519,0,0,1-3.486-.9,8.369,8.369,0,0,1-2.773-2.352,7.047,7.047,0,0,1-1.386-3.307c-.248-1.9-.427-3.642-.562-5.282s-.225-3.177-.283-4.661-.086-2.917-.086-4.349.027-2.864.086-4.349.148-3.021.283-4.661.314-3.384.562-5.282a7.051,7.051,0,0,1,1.386-3.307,8.381,8.381,0,0,1,2.773-2.352,7.515,7.515,0,0,1,3.486-.9h0c4.594,0,7.444,1.08,8.431,2.266,0,0-2.669,2.48-2.906,4.288-.249,1.9-.428,3.642-.562,5.282s-.225,3.177-.284,4.661-.085,2.917-.085,4.349.027,2.865.085,4.349.149,3.021.284,4.661.313,3.384.562,5.282a5.951,5.951,0,0,1-1.227,4.634A5.461,5.461,0,0,1,968,3881.392Z" fill="#fff" stroke="#000" stroke-miterlimit="10" stroke-width="2.6"/>
        <path id="Path_3453" data-name="Path 3453" d="M981.062,3881.392h0a7.392,7.392,0,0,1-3.428-.881,8.232,8.232,0,0,1-2.727-2.312,6.943,6.943,0,0,1-1.366-3.253c-.246-1.865-.425-3.58-.56-5.193s-.227-3.123-.288-4.583-.092-2.868-.1-4.276.018-2.817.07-4.277.134-2.971.259-4.584.293-3.329.527-5.2a6.894,6.894,0,0,1,1.345-3.254,8.165,8.165,0,0,1,2.712-2.315,7.355,7.355,0,0,1,3.422-.881h0c6.742,0,8.181,2.736,9.158,3.9a9.618,9.618,0,0,0-4.214,7.743c0,1.618-.207,3.125-.259,4.584s-.074,2.869-.069,4.277.035,2.817.1,4.276.153,2.971.288,4.583.314,3.328.56,5.193a5.84,5.84,0,0,1-1.2,4.557A5.37,5.37,0,0,1,981.062,3881.392Z" fill="#fff" stroke="#000" stroke-miterlimit="10" stroke-width="2.6"/>
        <path id="Path_3454" data-name="Path 3454" d="M992.777,3879.6h0a6.551,6.551,0,0,1-4.207-1.628,6.255,6.255,0,0,1-2.193-3.924c-.238-1.928-.4-3.667-.525-5.291s-.2-3.136-.247-4.608-.067-2.907-.056-4.38.049-2.985.129-4.612.2-3.369.388-5.3a6.089,6.089,0,0,1,2.091-3.934,6.381,6.381,0,0,1,4.165-1.633h0c6.184,0,11.684,5.215,12.6,11.889H996.5c-.079,1.626.369,10.953.49,12.578s.286,3.363.524,5.291a5.047,5.047,0,0,1-1.079,3.924A4.69,4.69,0,0,1,992.777,3879.6Z" fill="#fff" stroke="#000" stroke-miterlimit="10" stroke-width="2.6"/>
      </g>
      <path id="Path_3455" data-name="Path 3455" d="M946.714,3853.1s-9.917-14.553-16.074-9.016c-4.884,4.393,2.532,12.091,2.532,12.091h13.542Z" fill="#fff" stroke="#000" stroke-miterlimit="10" stroke-width="2.6"/>
      <path id="Path_3456" data-name="Path 3456" d="M852.391,4091.237c39.176,27.478,71.576,6.587,71.576,6.587-39.665-2.866-55.678-21.005-55.678-21.005s10.568-21.388,7.134-24.922c-6.612-6.8-26.109,23.874-26.109,23.874l-12.735-.2,1.5,18.114Z" fill="#fff" stroke="#000" stroke-miterlimit="10" stroke-width="2.6"/>
      <path id="Path_3457" data-name="Path 3457" d="M931.949,4059.1a13.392,13.392,0,0,0-2.558-1.776,1,1,0,0,0-1.5.859,4.43,4.43,0,0,0,1.48,3.138,2.561,2.561,0,0,0,1.727,1.427,1.72,1.72,0,0,0,2.015-1.226A2.62,2.62,0,0,0,931.949,4059.1Z"/>
      <path id="Path_3458" data-name="Path 3458" d="M898.775,4059.725a9.825,9.825,0,0,0-4.343,1.254.873.873,0,0,0-.47.729,2.006,2.006,0,0,0,1.178,2.619,2.517,2.517,0,0,0,2.277-.524c.763-.613,1.075-1.664,1.86-2.224C900.012,4061.053,899.847,4059.666,898.775,4059.725Z"/>
      <path id="Path_3459" data-name="Path 3459" d="M949.224,4068.461l-2.452-1.2a1.023,1.023,0,0,0-1.362.357,1.046,1.046,0,0,0-.01.953.988.988,0,0,0,.36,1.261,3.8,3.8,0,0,0,3.226.443A1.007,1.007,0,0,0,949.224,4068.461Z"/>
      <path id="Path_3460" data-name="Path 3460" d="M894.089,4041.324h-2.723a.932.932,0,0,0-.127.025l-.779.012a1,1,0,0,0-.264,1.955,8.729,8.729,0,0,0,3.393.331,1.009,1.009,0,0,0,.7-.374A.989.989,0,0,0,894.089,4041.324Z"/>
      <path id="Path_3461" data-name="Path 3461" d="M916.941,4057.356a.994.994,0,0,0-1.307-.375.879.879,0,0,0-.763.288,3.251,3.251,0,0,0-1.151,2.388,1.862,1.862,0,0,0,3.613.651A3.385,3.385,0,0,0,916.941,4057.356Z"/>
      <path id="Path_3462" data-name="Path 3462" d="M942.477,4050.657h-1.888a1,1,0,0,0,0,1.99h1.888A1,1,0,0,0,942.477,4050.657Z"/>
      <path id="Path_3463" data-name="Path 3463" d="M883.762,4050.545l-1.294.143a1.025,1.025,0,0,0-.995,1,1,1,0,0,0,.995.995l.455-.031a1.288,1.288,0,0,0,.15-.036l.689-.077a1.023,1.023,0,0,0,.995-.994A1,1,0,0,0,883.762,4050.545Z"/>
      <path id="Path_3464" data-name="Path 3464" d="M929.755,4069.136a1,1,0,0,0-.995,1,.922.922,0,0,0,.495.822,1,1,0,0,0,1.936.12A1.539,1.539,0,0,0,929.755,4069.136Z"/>
      <rect id="Rectangle_204" data-name="Rectangle 204" width="7.427" height="27.073" rx="3.714" transform="translate(829.029 4071.827) rotate(-6.641)" fill="#fff" stroke="#000" stroke-miterlimit="10" stroke-width="2.6"/>
      <g id="Group_707" data-name="Group 707">
        <path id="Path_3465" data-name="Path 3465" d="M943.871,3992.145c-3.291-1.6-14.989-2.113-26.332-.234s-33.639.278-39.019-9.731c-1.515-2.817-1.015-11.235-1.015-11.235a10.307,10.307,0,0,1,.79-11.716,13.409,13.409,0,0,1,3.355-14.433c-.523-5.045.473-8.718,5.018-11.624,10.721-6.853,32.475,6.7,32.475,6.7a120.8,120.8,0,0,1-1.236-15.573c0-10.067,6.516-16.86,11.068-1.454,4.332,14.66,10.323,26.472,22.032,29.847,0,0,5.3,1.531,3.517,18.994S943.871,3992.145,943.871,3992.145Z" fill="#fff" stroke="#000" stroke-miterlimit="10" stroke-width="2.6"/>
        <path id="Path_3466" data-name="Path 3466" d="M906.815,3933.978c21.941,9.825,17.984,19.917,11.374,18.174-8.766-6.022-27.1-6.867-27.1-6.867s37.171-.133,32.838,20.966c-2.1,10.245-6.924-11.932-36.893-8.486,27.309-2.613,33.476,12.337,34.367,18.635,1.5,10.615-29.057-5.48-34.654-4.393" fill="#fff" stroke="#000" stroke-linecap="round" stroke-linejoin="round" stroke-width="2.6"/>
      </g>
      <ellipse id="Ellipse_292" data-name="Ellipse 292" cx="6.21" cy="7.869" rx="6.21" ry="7.869" transform="translate(1262.179 3967.592)" fill="#fff" stroke="#000" stroke-miterlimit="10" stroke-width="2.6"/>
      <ellipse id="Ellipse_293" data-name="Ellipse 293" cx="1.859" cy="2.356" rx="1.859" ry="2.356" transform="translate(1266.53 3973.105)" fill="#fff" stroke="#000" stroke-miterlimit="10" stroke-width="2.6"/>
      <path id="Path_3467" data-name="Path 3467" d="M1349.917,4160.12s9.855-2.135,18.847,3.365" fill="#fff" stroke="#000" stroke-miterlimit="10" stroke-width="2.6"/>
      <path id="Path_3468" data-name="Path 3468" d="M1358.353,4149.295s10.685-3.31,18.377,2.357" fill="#fff" stroke="#000" stroke-miterlimit="10" stroke-width="2.6"/>
      <path id="Path_3469" data-name="Path 3469" d="M1361.313,4139.117a29.626,29.626,0,0,1,20.78,0" fill="#fff" stroke="#000" stroke-miterlimit="10" stroke-width="2.6"/>
      <path id="Path_3470" data-name="Path 3470" d="M883.9,3972.285s12-5.915,23.43,1.346c18.009,11.438,2.209,20.368-10.907,7.6l-5.5,1.995" fill="#fff" stroke="#000" stroke-linecap="round" stroke-miterlimit="10" stroke-width="2.6"/>
      <path id="Path_3471" data-name="Path 3471" d="M813.094,3983.513a64.32,64.32,0,0,1,9.964,1.162c1.648.3,3.293.619,4.927.988,1.642.336,3.267.741,4.9,1.137,6.5,1.615,12.945,3.488,19.323,5.548,3.193,1.02,6.358,2.12,9.535,3.192,3.151,1.138,6.318,2.24,9.459,3.411,3.131,1.193,6.277,2.355,9.4,3.576l9.345,3.716-1.6,3.666-9.1-4.154c-3.04-1.368-6.1-2.676-9.158-4.018-3.062-1.319-6.151-2.569-9.228-3.858-3.1-1.221-6.193-2.472-9.314-3.643-6.235-2.363-12.54-4.543-18.925-6.472-1.6-.473-3.2-.957-4.81-1.372-1.607-.448-3.226-.849-4.85-1.227A63.97,63.97,0,0,0,813.094,3983.513Z"/>
    </g>
    <line id="Line_230" data-name="Line 230" x2="1487.499" transform="translate(357.423 4379.195)" stroke="#000" stroke-miterlimit="10" stroke-width="2.6"/>
    <g id="Group_712" data-name="Group 712">
      <rect id="Rectangle_205" data-name="Rectangle 205" width="1099.163" height="171.029" transform="translate(594.61 4208.167)" fill="#fff" stroke="#000" stroke-miterlimit="10" stroke-width="2.6"/>
      <g id="Group_709" data-name="Group 709">
        <rect id="Rectangle_206" data-name="Rectangle 206" width="173.973" height="15.333" transform="translate(1651.084 4252.025) rotate(180)" fill="#fff" stroke="#000" stroke-miterlimit="10" stroke-width="2.6"/>
        <rect id="Rectangle_207" data-name="Rectangle 207" width="173.973" height="15.333" transform="translate(1678.431 4297.25) rotate(180)" fill="#fff" stroke="#000" stroke-miterlimit="10" stroke-width="2.6"/>
        <rect id="Rectangle_208" data-name="Rectangle 208" width="173.973" height="15.333" transform="translate(1705.779 4342.475) rotate(180)" fill="#fff" stroke="#000" stroke-miterlimit="10" stroke-width="2.6"/>
      </g>
      <g id="Group_710" data-name="Group 710">
        <rect id="Rectangle_209" data-name="Rectangle 209" width="173.973" height="15.333" transform="translate(1711.741 4252.025) rotate(180)" fill="#fff" stroke="#000" stroke-linecap="round" stroke-linejoin="round" stroke-width="2.6"/>
        <rect id="Rectangle_210" data-name="Rectangle 210" width="173.973" height="15.333" transform="translate(1739.089 4297.25) rotate(180)" fill="#fff" stroke="#000" stroke-linecap="round" stroke-linejoin="round" stroke-width="2.6"/>
        <rect id="Rectangle_211" data-name="Rectangle 211" width="173.973" height="15.333" transform="translate(1766.436 4342.475) rotate(180)" fill="#fff" stroke="#000" stroke-linecap="round" stroke-linejoin="round" stroke-width="2.6"/>
      </g>
      <g id="Group_711" data-name="Group 711">
        <rect id="Rectangle_212" data-name="Rectangle 212" width="981.982" height="15.221" transform="translate(534.173 4192.946)" fill="#fff" stroke="#000" stroke-miterlimit="10" stroke-width="2.6"/>
        <rect id="Rectangle_213" data-name="Rectangle 213" width="311.238" height="15.333" transform="translate(1473.634 4192.833)" fill="#fff" stroke="#000" stroke-linecap="round" stroke-linejoin="round" stroke-width="2.6"/>
      </g>
    </g>
    <g id="Group_715" data-name="Group 715">
      <path id="Path_3472" data-name="Path 3472" d="M1440.272,4095.985l-28.513-28.158,14.257-42.631L1479,3982.3l151.368,34.565-5.616,63.733Z" fill="#fff"/>
      <path id="Path_3473" data-name="Path 3473" d="M1632.489,4057.456c5.278,55.566,8.583,123.282,12.012,179.013l-80.339.064c-23.6-.308,11.369-28.366,25.337-21.3-3.276-31.573-18.261-71.625-21.314-103.318-14.542.019-64.422-4.993-63.356,9.491,1.982,26.926,6.274,42.769,6.141,70.969l-70.109.1c-31.572.041,6.121-28.012,20.337-21.052-10.867-27.747-9.473-36.132-9.473-36.132" stroke="#000" stroke-linecap="round" stroke-linejoin="round" stroke-width="2.6"/>
      <path id="Path_3474" data-name="Path 3474" d="M1601.814,4064.775c4.009,11.905,3.98,35.112,3.98,35.112l32.534-.578,1.04,12.242-32.66,1.2s.384,46.566,9.657,72.558c-105.4-1.151-105.8-59.164-164.333-41.634-15.308-30.687-20.974-74.306,16.461-77.654" fill="#fff" stroke="#000" stroke-miterlimit="10" stroke-width="2.6"/>
      <path id="Path_3475" data-name="Path 3475" d="M1509.645,4051.7c1.5,3,2.89,5.321,4.4,8.778,14.354,12.106,42.545,32.369,46.979,47.84s26.4,9.427,29.154-1.167c-29.154-27.6-50.218-46.346-69.913-65.739C1523.792,4044.884,1513.188,4048.284,1509.645,4051.7Z" stroke="#000" stroke-miterlimit="10" stroke-width="2.6"/>
      <path id="Path_3476" data-name="Path 3476" d="M1447.186,3996.314c-27.331,16.7-54.124,65.111-34.436,92.85,15.579,21.951,39.009,26.508,53.405,17.493,9.65-6.044,3.127-9.44,6.382-14.512a14.645,14.645,0,0,0,3.21-11.54c-.554-2.836-3.216-7.471-6.411-8.341.106-5.02,2.681-4.944-2.52-10.694-2.627-2.9-17.158-4.531-22.355-.354-2.163-3.476.555-4.376-2.505-8.076s-18.269,5-18.387,9.314" fill="#fff" stroke="#000" stroke-miterlimit="10" stroke-width="2.6"/>
      <path id="Path_3477" data-name="Path 3477" d="M1592.949,4017.327l15.8,14.683c-22.586,0-44.652,16.309-55.819,16.809-8.764-7.406-16.029-7.406-28.459-3.009,0,0,5.024,4.284,8.721,7.534-6.574,4.79-10.346,19.157-19.951,9.447a25.973,25.973,0,0,0-1.822,11.705c.148,2.514,2.288,3.246,2.92,5.418.639,2.2-.224,5.828.708,7.3a43.1,43.1,0,0,0,6.932,8.773c1.94,1.825,5.4,2.438,8.3,4.035,2.077,1.143,3.315,3.343,6.051,4.306,10.112,3.56,20.281-4.263,33.076-5.617,36.823-3.9,95.855-6.4,104.743-61.151,9.959-61.349-86.619-84.813-109.188-82.083-56.472,6.829-84.737,11.193-117.774,40.832" fill="#fff" stroke="#000" stroke-miterlimit="10" stroke-width="2.6"/>
      <ellipse id="Ellipse_294" data-name="Ellipse 294" cx="14.922" cy="7.709" rx="14.922" ry="7.709" transform="matrix(0.976, -0.22, 0.22, 0.976, 1432.023, 4056.561)" fill="#fff" stroke="#000" stroke-miterlimit="10" stroke-width="2.6"/>
      <path id="Path_3478" data-name="Path 3478" d="M1482.71,4064.074c16.265-10.409,41.851-18.358,41.851-18.358l-149.474-145.2c7.2,34.465,21.344,68.554,44.013,94.543C1440.272,4019.334,1459.426,4039.471,1482.71,4064.074Z" fill="#fff" stroke="#000" stroke-miterlimit="10" stroke-width="2.6"/>
      <path id="Path_3479" data-name="Path 3479" d="M1452.819,4058.325,1410.4,3894.092l-4.433,1.208,36.318,166.595C1446.76,4061.9,1450.81,4060.761,1452.819,4058.325Z" fill="#fff" stroke="#000" stroke-miterlimit="10" stroke-width="2.6"/>
      <path id="Path_3480" data-name="Path 3480" d="M1573.871,3957.825c-6.421-27.75-19.937-82.19-19.937-82.19,16-5.184,27.389-14.714,22-32.686-3.824-12.752-18.258-16.346-30.516-10.784-1.743-10.292-8.868-17.511-19.937-17.511-21.748,0-31.374,20.415-31.374,20.415-17.516-8.466-32.564-5.914-40.814,4.8-6.481,8.416-1.187,22.066,6.207,28.194-13.272,8.769-20.084,19.942-12.505,30.07,8.931,11.935,26.387,4.842,26.387,4.842,4.3,23.738,15.822,73.7,15.822,73.7C1507.423,3997.769,1549.782,3974.651,1573.871,3957.825Z" fill="#fff" stroke="#000" stroke-linecap="round" stroke-linejoin="round" stroke-width="2.6"/>
      <path id="Path_3481" data-name="Path 3481" d="M1602.136,3960.841c-27.3,9.156-31.409,47.28-11.367,73.857" fill="none" stroke="#000" stroke-miterlimit="10" stroke-width="2.6"/>
      <path id="Path_3482" data-name="Path 3482" d="M1592.55,3958.242c-20.225,5.666-30.649,25.052-30.976,47.307-22.266,7.8-51.929,10.77-71.827,6.547" fill="#fff" stroke="#000" stroke-miterlimit="10" stroke-width="2.6"/>
      <path id="Path_3483" data-name="Path 3483" d="M1487.911,3973.7c-5.688,6.5-10.475,17.927-11.32,26.4" fill="#fff" stroke="#000" stroke-miterlimit="10" stroke-width="2.6"/>
      <path id="Path_3484" data-name="Path 3484" d="M1497.511,3923.983c.984,4.712,2.7,13.528-3.736,14.654s-8.254-7.71-9.239-12.4-2.718-13.472,3.729-14.6S1496.528,3919.27,1497.511,3923.983Z" stroke="#000" stroke-linecap="round" stroke-linejoin="round" stroke-width="2.6"/>
      <path id="Path_3485" data-name="Path 3485" d="M1516.458,3919.689c.978,4.708,2.706,13.813-3.773,14.857s-8.23-7.78-9.217-12.494-2.744-13.58,3.732-14.823S1515.479,3914.981,1516.458,3919.689Z" stroke="#000" stroke-linecap="round" stroke-linejoin="round" stroke-width="2.6"/>
      <g id="Group_713" data-name="Group 713">
        <path id="Path_3486" data-name="Path 3486" d="M1532.947,3951.041a13.879,13.879,0,0,0,2.791-4.234c1.873-4.29,1.694-8.246-2.163-11.044-4.27-3.1-8.241-1.347-11.939,2.419-2.629,2.678-5.278,4.988-9.684,6.116-3.506.9-7.931,2.621-8.42,7.073s2.721,8.761,6.786,9.265C1520.072,3961.847,1526.992,3957.558,1532.947,3951.041Z" fill="#fff" stroke="#000" stroke-linecap="round" stroke-linejoin="round" stroke-width="2.6"/>
      </g>
      <path id="Path_3487" data-name="Path 3487" d="M1503.733,3953.834c13.48.025,24.863-3.9,30.535-17.047-1.55-.827-3.091-1.678-4.655-2.479,1.027,1.81,2.024,3.638,3.036,5.457l4.056,3.756q-.636-2.77-1.271-5.542" fill="#fff" stroke="#000" stroke-linecap="round" stroke-linejoin="round" stroke-width="2.6"/>
      <path id="Path_3488" data-name="Path 3488" d="M1644.5,3980s-27.152-.346-44.03,44.321" fill="#fff" stroke="#000" stroke-miterlimit="10" stroke-width="2.6"/>
      <path id="Path_3489" data-name="Path 3489" d="M1479,3974.482s-7.73,9.121-10.57,17.646" fill="none" stroke="#000" stroke-miterlimit="10" stroke-width="2.6"/>
      <path id="Path_3490" data-name="Path 3490" d="M1461.3,4055.948a13.644,13.644,0,0,0,4.768-9.91" fill="none" stroke="#000" stroke-miterlimit="10" stroke-width="2.6"/>
      <g id="Group_714" data-name="Group 714">
        <path id="Path_3491" data-name="Path 3491" d="M1596.737,4065.4s10.71-8.545,4.72-15.562-20.568,12.468-24.663,24.654C1602.954,4086.9,1629.325,4062.923,1596.737,4065.4Z" fill="#fff" stroke="#000" stroke-linecap="round" stroke-linejoin="round" stroke-width="2.6"/>
        <line id="Line_231" data-name="Line 231" x1="14.159" y1="6.296" transform="translate(1573.458 4061.531)" fill="#fff" stroke="#000" stroke-linecap="round" stroke-linejoin="round" stroke-width="2.6"/>
        <line id="Line_232" data-name="Line 232" x2="9.777" y2="4.297" transform="translate(1604.301 4076.487)" fill="#fff" stroke="#000" stroke-linecap="round" stroke-linejoin="round" stroke-width="2.6"/>
      </g>
      <path id="Path_3492" data-name="Path 3492" d="M1461.21,4175.732c-3.245.826-5.83,1.371-8.21,2.14a68.275,68.275,0,0,0-6.7,2.468c-2.19.912-4.412,1.959-6.805,3.085-2.412,1.119-4.933,2.314-8.012,3.485l-.142.054a.227.227,0,0,1-.293-.131.23.23,0,0,1,.026-.211,31.494,31.494,0,0,1,5.91-6.306,31.044,31.044,0,0,1,7.366-4.578,24.023,24.023,0,0,1,8.485-1.871,22.351,22.351,0,0,1,8.535,1.391.23.23,0,0,1-.019.439Z" fill="#fff"/>
      <path id="Path_3493" data-name="Path 3493" d="M1590.93,4219.916c-3.245.825-5.831,1.37-8.21,2.139a68.4,68.4,0,0,0-6.7,2.467c-2.19.914-4.412,1.96-6.8,3.086-2.412,1.12-4.933,2.314-8.012,3.485l-.142.054a.227.227,0,0,1-.267-.342,31.45,31.45,0,0,1,5.91-6.305,30.993,30.993,0,0,1,7.366-4.579,24.023,24.023,0,0,1,8.484-1.871,22.374,22.374,0,0,1,8.536,1.391.23.23,0,0,1-.02.439Z" fill="#fff"/>
      <path id="Path_3494" data-name="Path 3494" d="M1640.15,4230.968a245.863,245.863,0,0,1-5.139-28.529c-1.226-9.549-2.174-19.12-2.762-28.715q-.927-14.39-.89-28.838a249.007,249.007,0,0,1,1.467-28.962l.005-.039a.248.248,0,0,1,.494.011l1.037,14.372.96,14.377,1.914,28.752,1.748,28.763.871,14.382.794,14.388a.249.249,0,0,1-.49.075Z" fill="#fff"/>
      <ellipse id="Ellipse_295" data-name="Ellipse 295" cx="4.917" cy="4.345" rx="4.917" ry="4.345" transform="matrix(0.93, -0.368, 0.368, 0.93, 1567.218, 4104.875)" fill="#fff" stroke="#000" stroke-miterlimit="10" stroke-width="2.6"/>
      <path id="Path_3495" data-name="Path 3495" d="M1550.107,3879.623l9.324,38.454,8.936,38.546-.389.092a146.313,146.313,0,0,1-7.147-18.638c-1.068-3.135-1.888-6.329-2.833-9.494-.856-3.186-1.642-6.388-2.456-9.584-.7-3.223-1.448-6.434-2.1-9.668-.582-3.251-1.275-6.476-1.731-9.756a147.956,147.956,0,0,1-1.993-19.86Z"/>
    </g>
    <g id="Group_717" data-name="Group 717">
      <path id="Path_3496" data-name="Path 3496" d="M1851.423,4016.21s9.185-6.421,13.467,1.594-7.592,16.274-12.905,16.894" fill="#fff" stroke="#000" stroke-linecap="round" stroke-linejoin="round" stroke-width="2.6"/>
      <ellipse id="Ellipse_296" data-name="Ellipse 296" cx="102" cy="6.825" rx="102" ry="6.825" transform="translate(1591.89 4444.983)"/>
      <path id="Path_3497" data-name="Path 3497" d="M1673.222,4412c2.607,10.352,5.264,40.041,5.264,40.041h6.07v-9.264" fill="#fff" stroke="#000" stroke-linecap="round" stroke-linejoin="round" stroke-width="2.6"/>
      <g id="Group_716" data-name="Group 716">
        <path id="Path_3498" data-name="Path 3498" d="M1735.525,4163.518a26.033,26.033,0,0,1-2.8-.152c-14-1.528-26.2-11.552-22.016-25,13.35-42.869,7.878-62.88-.475-67.8l63.975,22.969.063-.115a135.326,135.326,0,0,0-14.848,48.21C1758,4154.693,1748.367,4163.517,1735.525,4163.518Z" stroke="#000" stroke-linecap="round" stroke-linejoin="round" stroke-width="2.6"/>
      </g>
      <path id="Path_3499" data-name="Path 3499" d="M1720.574,4011.761a16.029,16.029,0,0,1-2.207,2.269,28.676,28.676,0,0,1-2.36,1.859,37.4,37.4,0,0,1-4.895,2.926,41.305,41.305,0,0,1-5.087,2.106l-5.141,1.83c-3.41,1.241-6.817,2.425-10.165,3.681q-5.045,1.83-9.909,3.806a102.448,102.448,0,0,0-9.282,4.349,46.854,46.854,0,0,0-7.829,5.274,18.251,18.251,0,0,0-4.708,5.792l-.278.658-.2.625a3.226,3.226,0,0,0-.151.859c0,.122.069-.01.028-.424a4.156,4.156,0,0,0-.559-1.609,4.415,4.415,0,0,0-.757-.949c-.115-.109.013-.054.282.032a19.071,19.071,0,0,0,3.093.632,65.971,65.971,0,0,0,9.7.317c3.538-.086,7.237-.3,11.012-.532l11.592-.836c7.935-.44,16.085-1.023,25.373-.155a53.041,53.041,0,0,1,15.44,3.624,33.526,33.526,0,0,1,8.893,5.453,30.12,30.12,0,0,1,7.477,9.72,16.224,16.224,0,0,1-29.844,12.735c.306.233.733.5.894.377.161-.1-.041-.475-.631-.936a19.307,19.307,0,0,0-6.623-2.668,69.539,69.539,0,0,0-9.737-1.564c-3.481-.37-7.118-.574-10.839-.7l-11.427-.317c-3.9-.061-7.875-.136-12.011-.356a97.158,97.158,0,0,1-13.233-1.5,38.047,38.047,0,0,1-7.979-2.433,24.424,24.424,0,0,1-4.737-2.76,19.163,19.163,0,0,1-4.725-5.073,18.074,18.074,0,0,1-2.583-6.952,20.352,20.352,0,0,1,.033-6.157,26.447,26.447,0,0,1,1.194-4.729c.247-.7.52-1.388.794-2.074.3-.656.591-1.328.914-1.961a46.486,46.486,0,0,1,9.382-12.255,83.819,83.819,0,0,1,10.536-8.561,117.757,117.757,0,0,1,10.873-6.759,122.82,122.82,0,0,1,22.608-9.717c1.922-.635,3.872-1.167,5.813-1.713a36.781,36.781,0,0,1,5.946-1.18,33.352,33.352,0,0,1,6.211-.107,26.7,26.7,0,0,1,3.22.447,24.254,24.254,0,0,1,3.4.947,8.7,8.7,0,0,1,4.126,13.43Z"/>
      <path id="Path_3500" data-name="Path 3500" d="M1844.219,4055.259a19.445,19.445,0,0,1,2.477,5.253,25.04,25.04,0,0,1,.994,5.095,27.64,27.64,0,0,1-.047,4.993c-.135,1.652-.265,3.306-.465,4.953a143.72,143.72,0,0,1-3.631,19.713c-1.644,6.584-3.507,13.088-5.774,20.047-.588,1.75-1.22,3.537-1.98,5.435a38.078,38.078,0,0,1-3.161,6.3l-.64.936-.586.8c-.421.541-.863,1.088-1.4,1.669a20.569,20.569,0,0,1-1.859,1.792,17.87,17.87,0,0,1-2.673,1.864,15.533,15.533,0,0,1-3.881,1.549,14.864,14.864,0,0,1-4.8.386,15.386,15.386,0,0,1-4.35-1.02,17.109,17.109,0,0,1-3.144-1.635,22.886,22.886,0,0,1-3.847-3.234,34.4,34.4,0,0,1-2.419-2.812c-1.367-1.767-2.425-3.371-3.419-4.923-1.968-3.086-3.653-5.927-5.313-8.673s-3.254-5.353-4.916-7.8a81.492,81.492,0,0,0-5.13-6.75c-3.459-4.1-7.285-7.051-10.513-8.158a10.9,10.9,0,0,0-4.528-.627,14.6,14.6,0,0,0-4.608,1.172,16.522,16.522,0,1,1-8.076-31.691l2.184-.216a49.216,49.216,0,0,1,14.738.623,43.234,43.234,0,0,1,13.837,5.428,50.823,50.823,0,0,1,10.427,8.547,75.191,75.191,0,0,1,7.406,9.44,107.162,107.162,0,0,1,5.582,9.461c1.668,3.112,3.205,6.166,4.642,9.125,1.443,2.942,2.8,5.826,4.131,8.316.665,1.229,1.328,2.375,1.881,3.219.271.414.521.764.656.948s.168.208-.209-.03a6.808,6.808,0,0,0-3.009-.925,7.444,7.444,0,0,0-2.393.207,6.366,6.366,0,0,0-1.628.659,3.354,3.354,0,0,0-.674.491c-.093.08-.131.155-.094.124a.96.96,0,0,0,.189-.168l.151-.17a.243.243,0,0,1,.054-.061,10.828,10.828,0,0,0,1.211-2.359,33.068,33.068,0,0,0,1.253-3.728,73.96,73.96,0,0,0,1.783-8.645c.473-3,.8-6.081,1.147-9.175.626-6.2,1.263-12.468,2.216-18.717.218-1.566.49-3.126.743-4.691a28.053,28.053,0,0,1,1.076-4.66,25.479,25.479,0,0,1,2.033-4.569,18.4,18.4,0,0,1,3.418-4.42l.414-.381a9.643,9.643,0,0,1,13.627.555A10.371,10.371,0,0,1,1844.219,4055.259Z"/>
      <path id="Path_3501" data-name="Path 3501" d="M1828.711,4057.985a55.276,55.276,0,0,1-7.545-18.888c-2.25-11.25,8.962-18.959,9.974-14.041.989,4.8,10.125,28.19,10.125,28.19Z" fill="#fff" stroke="#000" stroke-miterlimit="10" stroke-width="2.6"/>
      <path id="Path_3502" data-name="Path 3502" d="M1727.073,4412c2.606,10.352,5.263,40.041,5.263,40.041h6.07v-18.816" fill="#fff" stroke="#000" stroke-linecap="round" stroke-linejoin="round" stroke-width="2.6"/>
      <path id="Path_3503" data-name="Path 3503" d="M1731.044,4392.318a28.979,28.979,0,0,0-4.008,19.678c1.811,11.333,24.166,42,38.652,42h10.533a5.044,5.044,0,0,0,4.593-3.134c2.348-5.446-1.656-15.939-10.721-16.415-5.27-14.451-13.2-22.451-17.929-32.575" fill="#fff" stroke="#000" stroke-linecap="round" stroke-linejoin="round" stroke-width="2.6"/>
      <path id="Path_3504" data-name="Path 3504" d="M1709.1,4190.756l21.307,96.345s-21.307,39.572,4.932,99.625c-12.449,12.621.233,23.8.233,23.8s33.8,34.452,28.835,12.141a72.348,72.348,0,0,1-9.823-31.742c-4.525-58.657,11.624-154.693,11.624-154.693Z" fill="#fff" stroke="#000" stroke-linecap="round" stroke-linejoin="round" stroke-width="2.6"/>
      <path id="Path_3505" data-name="Path 3505" d="M1678.053,4392.318a26.916,26.916,0,0,0-4.427,19.678c2,11.333,12.517,42,28.517,42h11.633a5.6,5.6,0,0,0,5.074-3.134c2.593-5.446.382-12.32-5.515-16.415-2.759-11.28-10.849-23.3-11.956-32.575" fill="#fff" stroke="#000" stroke-linecap="round" stroke-linejoin="round" stroke-width="2.6"/>
      <path id="Path_3506" data-name="Path 3506" d="M1680.285,4236.237l4.506,50.864s-21.984,32.826-2.99,96.79c-8.175,13.771-1.507,20.516.246,24.355,4.99,10.929,24.827,31.283,22.261,13.777-9.248-63.1,31.469-231.267,31.469-231.267Z" fill="#fff" stroke="#000" stroke-linecap="round" stroke-linejoin="round" stroke-width="2.6"/>
      <path id="Path_3507" data-name="Path 3507" d="M1711.131,4138.038s-47.82,30.206-30.846,98.2h85.925s10.443-48.267-6.6-92.53C1730.534,4150.323,1711.131,4138.038,1711.131,4138.038Z" fill="#fff" stroke="#000" stroke-miterlimit="10" stroke-width="2.6"/>
      <path id="Path_3508" data-name="Path 3508" d="M1713.335,4434.447s-11.18-3.088-19.187,1.9" fill="#fff" stroke="#000" stroke-linecap="round" stroke-linejoin="round" stroke-width="2.6"/>
      <ellipse id="Ellipse_297" data-name="Ellipse 297" cx="24.857" cy="37.089" rx="24.857" ry="37.089" transform="translate(1712.476 4098.707) rotate(-78.446)" stroke="#000" stroke-linecap="round" stroke-linejoin="round" stroke-width="2.6"/>
      <path id="Path_3509" data-name="Path 3509" d="M1743.572,4056.2l22.638-31.007,15.264,4.3-12.1,35.147s37.806,28.8-7.9,22.316C1713.335,4080.133,1743.572,4056.2,1743.572,4056.2Z" fill="#fff" stroke="#000" stroke-miterlimit="10" stroke-width="2.6"/>
      <ellipse id="Ellipse_298" data-name="Ellipse 298" cx="27.486" cy="40.442" rx="27.486" ry="40.442" transform="translate(1732.857 4038.718) rotate(-82.349)" fill="#fff" stroke="#000" stroke-miterlimit="10" stroke-width="2.6"/>
      <path id="Path_3510" data-name="Path 3510" d="M1809.735,4022.7c-2.908,7.945-11.854,11.975-18.736,9.457s-9.264-10.694-6.356-18.639,10-12.653,16.885-10.135S1812.642,4014.755,1809.735,4022.7Z" fill="#fff" stroke="#000" stroke-miterlimit="10" stroke-width="2.6"/>
      <path id="Path_3511" data-name="Path 3511" d="M1787.994,4014.745c-2.908,7.945-11.853,11.976-18.736,9.457s-9.263-10.694-6.356-18.639,10-12.653,16.886-10.135S1790.9,4006.8,1787.994,4014.745Z" fill="#fff" stroke="#000" stroke-miterlimit="10" stroke-width="2.6"/>
      <path id="Path_3512" data-name="Path 3512" d="M1769.377,4086.692s-1.487-7.2-5.737-12.2" fill="#fff" stroke="#000" stroke-linecap="round" stroke-miterlimit="10" stroke-width="2.6"/>
      <path id="Path_3513" data-name="Path 3513" d="M1788.981,3991.466s19.292-33.224,36.189-47.362c1.129-.945,2.73-.311,2.343,1.11l-16.806,60.972" fill="#fff" stroke="#000" stroke-linecap="round" stroke-miterlimit="10" stroke-width="2.6"/>
      <path id="Path_3514" data-name="Path 3514" d="M1747.975,3996.162c3.825-5.051,11.691-30.612,44.392-60.739,1.083-1,2.73-.311,2.343,1.11l-15.254,54.933" fill="#fff" stroke="#000" stroke-linecap="round" stroke-miterlimit="10" stroke-width="2.6"/>
      <path id="Path_3515" data-name="Path 3515" d="M1738.912,4012.34a36.1,36.1,0,0,1-9.7,5.632c-10.012,3.915-25.417-.991-26.047-9.813-.538-7.524,6.713-28.161,55.7-26.194,7.075.284,5.851,7.655.656,7.2-6.843-.6-15.109,2.836-15.109,2.836" fill="#fff" stroke="#000" stroke-linecap="round" stroke-linejoin="round" stroke-width="2.6"/>
      <path id="Path_3516" data-name="Path 3516" d="M1739.015,3988.915s10.649.743,12.311,9.532-5.884,10.938-5.884,10.938" fill="#fff" stroke="#000" stroke-linecap="round" stroke-linejoin="round" stroke-width="2.6"/>
      <path id="Path_3517" data-name="Path 3517" d="M1735.007,4010.767s6.136,8.465,10.183,1.49.665-17.672-8.19-16.225" fill="#fff" stroke="#000" stroke-linecap="round" stroke-linejoin="round" stroke-width="2.6"/>
      <path id="Path_3518" data-name="Path 3518" d="M1735.83,4005.335s7.276.308,5.764,8.584c-1.578,8.641-9.27,6.824-8.032,3.234,1.7-4.922-2.253-3.626-2.253-3.626" fill="#fff" stroke="#000" stroke-linecap="round" stroke-linejoin="round" stroke-width="2.6"/>
      <path id="Path_3519" data-name="Path 3519" d="M1784.788,4027.685c-.481,1.524-4.522,3.347-5.339,3.089s-3.081-4.069-2.6-5.594,2.4-1.418,4.594-.726S1785.269,4026.16,1784.788,4027.685Z" stroke="#000" stroke-linecap="round" stroke-linejoin="round" stroke-width="2.6"/>
      <ellipse id="Ellipse_299" data-name="Ellipse 299" cx="3.691" cy="7.098" rx="3.691" ry="7.098" transform="translate(1757.65 4034.49) rotate(-73.452)" stroke="#000" stroke-linecap="round" stroke-linejoin="round" stroke-width="2.6"/>
      <path id="Path_3520" data-name="Path 3520" d="M1836.034,4046.806c7.132-5.375,13.362-6.661,20.621-19.3,3.485-6.07,8.235-3.557,8.235,3.868,0,14.286-14.633,27.624-25.348,29.18-4.366.634-9.79-1.555-9.414-5.949" fill="#fff" stroke="#000" stroke-linecap="round" stroke-linejoin="round" stroke-width="2.6"/>
      <path id="Path_3521" data-name="Path 3521" d="M1771.143,4008.938a18.678,18.678,0,0,1-4.6,6.988,17.47,17.47,0,0,1,5.43-15.316A18.683,18.683,0,0,1,1771.143,4008.938Z" stroke="#000" stroke-linecap="round" stroke-miterlimit="10" stroke-width="2.6"/>
      <path id="Path_3522" data-name="Path 3522" d="M1793.367,4016.88a18.688,18.688,0,0,1-4.6,6.988,17.471,17.471,0,0,1,5.43-15.316A18.683,18.683,0,0,1,1793.367,4016.88Z" stroke="#000" stroke-linecap="round" stroke-miterlimit="10" stroke-width="2.6"/>
      <path id="Path_3523" data-name="Path 3523" d="M1780.258,3989.62c7.459,1,14.22,3.331,23.03,9.042" fill="none" stroke="#000" stroke-linecap="round" stroke-miterlimit="10" stroke-width="2.6"/>
      <path id="Path_3524" data-name="Path 3524" d="M1820.939,4030.678c8.887-12.187,14.561-26.107,18.432-39.359,3.938-13.479,18.378-6.175,15.675,5.723-3.3,14.51-13.4,36.212-23.739,46.359C1822.848,4051.706,1813.945,4040.269,1820.939,4030.678Z" fill="#fff" stroke="#000" stroke-miterlimit="10" stroke-width="2.6"/>
      <path id="Path_3525" data-name="Path 3525" d="M1818.387,4042.71c12.965-16.1,24.541-40.97,28.862-60.935,1.681-7.767,13.523-5.339,11.849,2.4-4.551,21.026-18.251,49.617-31.9,66.56C1822.166,4056.984,1813.406,4048.894,1818.387,4042.71Z" fill="#fff" stroke="#000" stroke-linecap="round" stroke-linejoin="round" stroke-width="2.6"/>
      <path id="Path_3526" data-name="Path 3526" d="M1829.394,4037.325c7.479-8.82,16.685-29.51,19.961-40.927,4.625-16.123,18.263-9.9,16.6,2.226-2.033,14.789-14.082,39.127-23.485,50.215C1834.769,4057.915,1821.687,4046.413,1829.394,4037.325Z" fill="#fff" stroke="#000" stroke-miterlimit="10" stroke-width="2.6"/>
      <path id="Path_3527" data-name="Path 3527" d="M1770.093,4434.447c-6.453.549-8.453,1.9-8.453,1.9" fill="#fff" stroke="#000" stroke-linecap="round" stroke-linejoin="round" stroke-width="2.6"/>
      <path id="Path_3528" data-name="Path 3528" d="M1756.072,4150.63a121.679,121.679,0,0,1,5.04,19.451,185.045,185.045,0,0,1,2.468,19.946c.09,1.673.132,3.349.2,5.023l.088,2.512v2.514l-.007,5.026-.194,5.021-.1,2.51c-.044.837-.126,1.671-.186,2.506l-.4,5.008c-.3,3.334-.773,6.653-1.151,9.978l-.4-.054c-.387-3.422-.382-6.766-.563-10.111l-.192-4.994c-.048-.831-.025-1.657-.054-2.485l-.116-2.482c-.089-1.654-.154-3.3-.159-4.949l-.259-4.935c-.057-.821-.051-1.642-.075-2.464l-.139-2.46-.294-4.915-.3-4.913c-.064-1.643-.322-3.263-.4-4.9s-.236-3.278-.4-4.912l-.459-4.916c-.678-6.56-1.406-13.129-2.318-19.854Z"/>
    </g>
    <g id="Group_726" data-name="Group 726">
      <g id="Group_720" data-name="Group 720">
        <ellipse id="Ellipse_300" data-name="Ellipse 300" cx="30.648" cy="38.808" rx="30.648" ry="38.808" transform="translate(384.974 3925.972)" stroke="#fff" stroke-linecap="round" stroke-linejoin="round" stroke-width="2.6"/>
        <ellipse id="Ellipse_301" data-name="Ellipse 301" cx="43.768" cy="55.421" rx="43.768" ry="55.421" transform="translate(445.292 3892.746)" stroke="#fff" stroke-linecap="round" stroke-linejoin="round" stroke-width="2.6"/>
        <ellipse id="Ellipse_302" data-name="Ellipse 302" cx="30.648" cy="38.808" rx="30.648" ry="38.808" transform="translate(398.81 3925.972)" stroke="#fff" stroke-linecap="round" stroke-linejoin="round" stroke-width="2.6"/>
        <ellipse id="Ellipse_303" data-name="Ellipse 303" cx="43.768" cy="55.421" rx="43.768" ry="55.421" transform="translate(459.128 3892.746)" stroke="#fff" stroke-linecap="round" stroke-linejoin="round" stroke-width="2.6"/>
        <g id="Group_718" data-name="Group 718">
          <path id="Path_3529" data-name="Path 3529" d="M409.6,3955.829c-3.7,14.66,2.194,30.552,13.162,35.495l3.967-15.726c1.508-5.975-.894-12.451-5.364-14.466Z" stroke="#fff" stroke-linecap="round" stroke-linejoin="round" stroke-width="2.6"/>
          <path id="Path_3530" data-name="Path 3530" d="M436.155,3938.236c-10.968-4.944-22.857,2.933-26.555,17.593l11.765,5.3c4.47,2.015,9.315-1.2,10.822-7.17Z" stroke="#fff" stroke-linecap="round" stroke-linejoin="round" stroke-width="2.6"/>
          <path id="Path_3531" data-name="Path 3531" d="M436.155,3938.236l-3.968,15.726c-1.507,5.974.895,12.451,5.365,14.466l11.765,5.3C453.015,3959.07,447.122,3943.179,436.155,3938.236Z" stroke="#fff" stroke-linecap="round" stroke-linejoin="round" stroke-width="2.6"/>
          <path id="Path_3532" data-name="Path 3532" d="M422.762,3991.324c10.968,4.943,22.857-2.934,26.555-17.594l-11.765-5.3c-4.47-2.015-9.315,1.2-10.823,7.17Z" stroke="#fff" stroke-linecap="round" stroke-linejoin="round" stroke-width="2.6"/>
        </g>
        <g id="Group_719" data-name="Group 719">
          <path id="Path_3533" data-name="Path 3533" d="M534.886,3964.234c-6.8,23.051-26.637,34.545-44.3,25.671l9.215-31.233c1.711-5.8,6.7-8.7,11.151-6.461Z" stroke="#fff" stroke-linecap="round" stroke-linejoin="round" stroke-width="2.6"/>
          <path id="Path_3534" data-name="Path 3534" d="M515.21,3906.428c17.668,8.874,26.477,34.754,19.676,57.806l-23.938-12.023c-4.447-2.234-6.664-8.748-4.952-14.55Z" stroke="#fff" stroke-linecap="round" stroke-linejoin="round" stroke-width="2.6"/>
          <path id="Path_3535" data-name="Path 3535" d="M515.21,3906.428,506,3937.661c-1.712,5.8-6.705,8.7-11.152,6.462L470.906,3932.1C477.707,3909.048,497.543,3897.554,515.21,3906.428Z" stroke="#fff" stroke-linecap="round" stroke-linejoin="round" stroke-width="2.6"/>
          <path id="Path_3536" data-name="Path 3536" d="M490.582,3989.905c-17.668-8.873-26.477-34.754-19.676-57.806l23.938,12.024c4.447,2.233,6.664,8.747,4.953,14.549Z" stroke="#fff" stroke-linecap="round" stroke-linejoin="round" stroke-width="2.6"/>
        </g>
      </g>
      <g id="Group_722" data-name="Group 722">
        <path id="Path_3537" data-name="Path 3537" d="M508.481,4020.144l28.227-23.825h38.18Z" stroke="#000" stroke-linecap="round" stroke-linejoin="round" stroke-width="2.6"/>
        <path id="Path_3538" data-name="Path 3538" d="M508.481,4053.367l28.227,23.611h38.18Z" stroke="#000" stroke-linecap="round" stroke-linejoin="round" stroke-width="2.6"/>
        <g id="Group_721" data-name="Group 721">
          <rect id="Rectangle_214" data-name="Rectangle 214" width="13.311" height="69.037" transform="translate(478.635 4201.781)" stroke="#fff" stroke-linecap="round" stroke-linejoin="round" stroke-width="2.6"/>
          <path id="Path_3539" data-name="Path 3539" d="M478.754,4270.818h13.192l-45.373,195.36c-.307,1.29-2.593,2.2-3.918,2.2h0c-1.807,0-4.012-1.086-3.657-2.858Z" stroke="#fff" stroke-linecap="round" stroke-linejoin="round" stroke-width="2.6"/>
          <path id="Path_3540" data-name="Path 3540" d="M492.105,4270.818h-13.47l108.276,200.14a8.75,8.75,0,0,0,4.653,2.715h0a3.042,3.042,0,0,0,2.709-4.427Z" stroke="#fff" stroke-linecap="round" stroke-linejoin="round" stroke-width="2.6"/>
          <path id="Path_3541" data-name="Path 3541" d="M478.615,4270.818h12.726l-110.26,201.274a3.042,3.042,0,0,1-2.669,1.581h0a3.042,3.042,0,0,1-2.709-4.427" stroke="#fff" stroke-linecap="round" stroke-linejoin="round" stroke-width="2.6"/>
          <ellipse id="Ellipse_304" data-name="Ellipse 304" cx="140.284" cy="8.03" rx="140.284" ry="8.03" transform="translate(327.423 4465.432)"/>
        </g>
        <path id="Path_3542" data-name="Path 3542" d="M576.3,3996.319v81.792l-50.9-16.857v-43.581Z" stroke="#fff" stroke-linecap="round" stroke-linejoin="round" stroke-width="2.6"/>
        <rect id="Rectangle_215" data-name="Rectangle 215" width="120.595" height="74.566" transform="translate(405.092 3999.998)" stroke="#fff" stroke-linecap="round" stroke-linejoin="round" stroke-width="2.6"/>
        <rect id="Rectangle_216" data-name="Rectangle 216" width="22.152" height="10.039" transform="translate(474.024 4074.521)" stroke="#fff" stroke-linecap="round" stroke-linejoin="round" stroke-width="2.6"/>
        <rect id="Rectangle_217" data-name="Rectangle 217" width="46.869" height="74.566" transform="translate(394.242 3999.998)" stroke="#fff" stroke-linecap="round" stroke-linejoin="round" stroke-width="2.6"/>
      </g>
      <g id="Group_725" data-name="Group 725">
        <line id="Line_233" data-name="Line 233" x2="27.526" y2="124.481" transform="translate(725.176 4348.51)" fill="none" stroke="#000" stroke-linecap="round" stroke-linejoin="round" stroke-width="6"/>
        <line id="Line_234" data-name="Line 234" x1="36.564" y2="124.481" transform="translate(630.899 4348.51)" fill="none" stroke="#000" stroke-linecap="round" stroke-linejoin="round" stroke-width="6"/>
        <path id="Path_3543" data-name="Path 3543" d="M958.01,4355.715s14.288-48.63,33.863-57.221,24.391,7.515,13.077,28.611a444.966,444.966,0,0,0-20.463,45.188l-7.291,5.738,4.5,5.105s-1.708,17.517-11.537,18.3-18.686-15.789-18.686-15.789" stroke="#000" stroke-linecap="round" stroke-linejoin="round" stroke-width="2.6"/>
        <g id="Group_723" data-name="Group 723">
          <path id="Path_3544" data-name="Path 3544" d="M949.123,4251.54c11.694-19.623,9-50.572,18.873-60.25,13.221-12.965,25.456.962,23.668,19.177s-7.255,35.145-15.369,51.836c-2.693,2.471-5.559,4.65-8.364,6.946,1.538,1.56,3.067,2.9,4.676,4.532-1.455,6.8-2.852,17.566-10.913,19.26s-15.834-6.562-19.641-12.715" stroke="#000" stroke-linecap="round" stroke-linejoin="round" stroke-width="2.6"/>
        </g>
        <path id="Path_3545" data-name="Path 3545" d="M724.737,4348.51s-179.182,19.327,65.667,17.7c57.081-.379,67.659-17.7,67.659-17.7Z" stroke="#000" stroke-linecap="round" stroke-linejoin="round" stroke-width="2.6"/>
        <g id="Group_724" data-name="Group 724">
          <path id="Path_3546" data-name="Path 3546" d="M679.868,4185.412c-43.251,1.331-55.243-103.658-53.679-167.228-9.257-6.619-20.389-4.013-29.852-2.359-5.338,59.6-9.271,133.1,42.3,206.684,32.549,46.445,11.447-17.747,28.693-15.033" fill="#fff" stroke="#000" stroke-linecap="round" stroke-linejoin="round" stroke-width="2.6"/>
        </g>
        <circle id="Ellipse_305" data-name="Ellipse 305" cx="4.706" cy="4.706" r="4.706" transform="translate(725.176 4128.069)" stroke="#000" stroke-linecap="round" stroke-linejoin="round" stroke-width="2.6"/>
        <path id="Path_3547" data-name="Path 3547" d="M624.625,4230.249l14.389,118.262H747.022" fill="none" stroke="#000" stroke-linecap="round" stroke-linejoin="round" stroke-width="6"/>
        <path id="Path_3548" data-name="Path 3548" d="M639.014,4348.51s8.584,17.012,65.667,17.012,67.658-17.012,67.658-17.012Z" stroke="#000" stroke-linecap="round" stroke-linejoin="round" stroke-width="2.6"/>
        <path id="Path_3549" data-name="Path 3549" d="M698.348,4317.281l121.665-80.2a33.854,33.854,0,0,1,22.671-5.348l105.988,12.731c9.137.486,15.084,8.881,13.447,17.884l-2.756,15.149c-1.38,7.589-8.918,12.937-16.614,12.437l-108.172-7.071-76.627,57.061" fill="#fff" stroke="#000" stroke-linecap="round" stroke-linejoin="round" stroke-width="2.6"/>
        <path id="Path_3550" data-name="Path 3550" d="M706.709,4368.733c41.554,5.2,129.038-60.612,129.038-60.612l107.179,82.163c5.09,3.721,17.364,3.159,21.8-1.32h0a31.181,31.181,0,0,0-1.986-45.722L857.469,4253.07a18.781,18.781,0,0,0-21.237-2.208L740,4303.564s-2.024,16.263-8.1,24.175-61.536,9.531-76.11,5.482c0,0,9.566,44.887,35.613,31.308C691.409,4364.529,695.169,4367.29,706.709,4368.733Z" fill="#fff" stroke="#000" stroke-linecap="round" stroke-linejoin="round" stroke-width="2.6"/>
        <path id="Path_3551" data-name="Path 3551" d="M667.461,4186.167a79.71,79.71,0,0,1,16.014-3.409,163.928,163.928,0,0,1,19.08-.959c34.31.012,40.276,33.911,44.467,66.623,7.486,58.422,7.486,77.367-8.919,88.612-10.6,7.264-72.287,8.737-82.307-3.813,0,0-14.574-46.38-17.307-95.555a76.559,76.559,0,0,1,1.559-21.839" fill="#fff" stroke="#000" stroke-linecap="round" stroke-linejoin="round" stroke-width="2.6"/>
        <path id="Path_3552" data-name="Path 3552" d="M766.046,4298.266s-33.414,3.442-75.906,3.442c-27.064,0-57.42-3.442-57.42-3.442l-8.095-68.017a495.6,495.6,0,0,0,55.647,3.442c40.735,0,77.678-3.442,77.678-3.442Z" stroke="#000" stroke-linecap="round" stroke-linejoin="round" stroke-width="2.6"/>
        <path id="Path_3553" data-name="Path 3553" d="M757.95,4230.249l14.389,118.262H880.347" fill="none" stroke="#000" stroke-linecap="round" stroke-linejoin="round" stroke-width="6"/>
        <path id="Path_3554" data-name="Path 3554" d="M604.1,3966.9s1.431-8.4,2.655-15.141c2.5-13.765,12.552-6.061,10.914,2.729-.607,3.252-4.711,28.248-4.711,28.248" fill="#fff" stroke="#000" stroke-linecap="round" stroke-linejoin="round" stroke-width="2.6"/>
        <path id="Path_3555" data-name="Path 3555" d="M617.411,3989.159c4.986,0-1.815-11.059,7.122-10.476,6.984.456,12.084,15.941-6.824,26.507-4.724,2.639,1.236,9.143,1.236,9.143s-9.537,4.78-15.982,1.249l-1.128-5.252s-6.152-11.338-7.576-18.437c-2.68-13.362,7.947-12,9.838-24.99" fill="#fff" stroke="#000" stroke-linecap="round" stroke-linejoin="round" stroke-width="2.6"/>
        <path id="Path_3556" data-name="Path 3556" d="M624.238,3978.308l-46.431-11.288,4.806-12.139,42.926,18.991Z" fill="#fff" stroke="#000" stroke-linecap="round" stroke-linejoin="round" stroke-width="2.6"/>
        <path id="Path_3557" data-name="Path 3557" d="M610.283,3979.2s4.551-25.176,6.735-31.668,9.781-2.988,9.583,2.854c-.11,3.281-9.19,38.777-9.19,38.777" fill="#fff" stroke="#000" stroke-linecap="round" stroke-linejoin="round" stroke-width="2.6"/>
        <path id="Path_3558" data-name="Path 3558" d="M769.419,4174.421S759.41,4155,780.654,4148.554c12.966-3.934,20.642,2.157,22.072,8.778,1.96,9.07,3.925,35.267,3.925,35.267s-1.166,11.921-19.637,9.911a8.97,8.97,0,0,1-7.07-5.011h0Z" fill="#fff" stroke="#000" stroke-linecap="round" stroke-linejoin="round" stroke-width="2.6"/>
        <path id="Path_3559" data-name="Path 3559" d="M779.871,4212.678s.405-4.874-2.631-6.981-7.852-12.153-1.172-14.652l6.556,9.925s1.785.147,4.43.1a17.818,17.818,0,0,0,17.432-16.5,16.07,16.07,0,0,1,1.071-5.444c1.822-3.315,10.952,3.846,11.965,17.028s-15.587,25.608-15.587,25.608" fill="#fff" stroke="#000" stroke-linecap="round" stroke-linejoin="round" stroke-width="2.6"/>
        <path id="Path_3560" data-name="Path 3560" d="M711.086,4182.593c68.813-4.268,71.364,75.5,72.033,96.746,0,0-.132-5.924-1.565-21.92-1.3-14.521-4.535-23.712-4.535-23.712l2.852-21.029s31.908-2.734,30.773,11.411c-1.275,15.893-2.009,77.052-18.815,89.077-4.958,3.547-19.274,3.6-24.25-.943-25.354-23.157-36.483-97.215-36.483-97.215" fill="#fff" stroke="#000" stroke-linecap="round" stroke-linejoin="round" stroke-width="2.6"/>
        <path id="Path_3561" data-name="Path 3561" d="M776.419,4157.107l-19.714-12.335a17.337,17.337,0,0,0-16.215-1.154l-12.279,5.44" fill="none" stroke="#000" stroke-linecap="round" stroke-linejoin="round" stroke-width="2.6"/>
        <ellipse id="Ellipse_306" data-name="Ellipse 306" cx="7.981" cy="2.203" rx="7.981" ry="2.203" transform="translate(773.346 4155.894) rotate(-19.671)" stroke="#000" stroke-linecap="round" stroke-linejoin="round" stroke-width="2.6"/>
        <line id="Line_235" data-name="Line 235" x1="24.938" y2="124.481" transform="translate(761.37 4348.51)" fill="none" stroke="#000" stroke-linecap="round" stroke-linejoin="round" stroke-width="6"/>
        <line id="Line_236" data-name="Line 236" x2="27.526" y2="124.481" transform="translate(858.063 4348.51)" fill="none" stroke="#000" stroke-linecap="round" stroke-linejoin="round" stroke-width="6"/>
        <path id="Path_3562" data-name="Path 3562" d="M665.407,4104.508s-19.36-57.637-21.109-75,16.44-24.5,22.122-10.616c3.191,7.793,20.123,87.406,20.123,87.406" fill="#fff" stroke="#000" stroke-linecap="round" stroke-linejoin="round" stroke-width="2.6"/>
        <path id="Path_3563" data-name="Path 3563" d="M667.461,4186.167l3.213-14.609s-20.676-28.139-20.647-46.571c.041-26.3,19.976-30.394,35.8-30.963s44.058,33.011,44.058,46.1-8.443,18.023-18.8,27.111,9.133,16.08,9.133,16.08S702.167,4194.727,667.461,4186.167Z" fill="#fff" stroke="#000" stroke-linecap="round" stroke-linejoin="round" stroke-width="2.6"/>
        <path id="Path_3564" data-name="Path 3564" d="M645.9,4107c.014-3.613,8.417-18.308,16.163-22.694,18.225-10.32,59.029,6.4,61.546,12.813,5.01,12.774-33.14,2.062-45.2,7.04C668.325,4108.317,645.855,4118.663,645.9,4107Z" stroke="#000" stroke-linecap="round" stroke-linejoin="round" stroke-width="2.6"/>
        <path id="Path_3565" data-name="Path 3565" d="M680.66,4108.317s-15.552-66.413-15.148-83.844,22.784-22.392,26.72-8.039c2.21,8.059,9.559,87.819,9.559,87.819" fill="#fff" stroke="#000" stroke-linecap="round" stroke-linejoin="round" stroke-width="2.6"/>
        <path id="Path_3566" data-name="Path 3566" d="M769.419,4174.421s11.093,1.546,20.961-3.54" fill="none" stroke="#000" stroke-linecap="round" stroke-linejoin="round" stroke-width="2.6"/>
        <path id="Path_3567" data-name="Path 3567" d="M797.971,4166.554a13.078,13.078,0,0,0,5.3-6.261" fill="#387cdb" stroke="#000" stroke-linecap="round" stroke-linejoin="round" stroke-width="2.6"/>
        <path id="Path_3568" data-name="Path 3568" d="M669.282,4272.621l-7.472,4.762.792-10.085-6.806-7.142,8.621-1.471,3.266-9.176,4.536,9.176,8.824,1.471-5.818,7.142,2.188,10.085Z" fill="#fff" stroke="#000" stroke-linecap="round" stroke-linejoin="round" stroke-width="2.6"/>
        <ellipse id="Ellipse_307" data-name="Ellipse 307" cx="175.51" cy="8.241" rx="175.51" ry="8.241" transform="translate(572.723 4465.011)"/>
        <ellipse id="Ellipse_308" data-name="Ellipse 308" cx="6.011" cy="4.276" rx="6.011" ry="4.276" transform="translate(574.659 3965.547) rotate(-74.553)" stroke="#000" stroke-linecap="round" stroke-linejoin="round" stroke-width="2.6"/>
        <path id="Path_3569" data-name="Path 3569" d="M842.437,4306.613c9.413,5.435,18.415,11.408,27.269,17.571,4.469,3.029,8.781,6.26,13.172,9.389,4.335,3.2,8.626,6.462,12.936,9.7,4.235,3.332,8.5,6.62,12.713,9.987,4.163,3.426,8.4,6.761,12.482,10.289,8.247,6.955,16.35,14.1,24.045,21.774l.018.017a.2.2,0,0,1-.261.3l-51.43-39.2-51.187-39.512a.2.2,0,0,1,.221-.33Z"/>
        <path id="Path_3570" data-name="Path 3570" d="M683.445,4353.607a24.37,24.37,0,0,0,8.5,4.9,30.735,30.735,0,0,0,4.628,1.293c.775.176,1.576.283,2.352.44.789.123,1.588.208,2.376.309,1.6.129,3.2.2,4.8.266l2.413-.009,2.418-.124a79.879,79.879,0,0,0,9.7-1.079c1.622-.221,3.242-.529,4.862-.823,1.614-.357,3.23-.676,4.848-1.061,3.255-.672,6.468-1.573,9.73-2.394,6.5-1.726,13.007-3.668,19.786-5.289l.04-.01a.2.2,0,0,1,.131.371,197.035,197.035,0,0,1-18.929,7.9,116.845,116.845,0,0,1-19.843,5.256,62.2,62.2,0,0,1-20.512.1,35.966,35.966,0,0,1-9.76-3.259,21.366,21.366,0,0,1-7.876-6.584.194.194,0,0,1,.291-.252Z"/>
        <path id="Path_3571" data-name="Path 3571" d="M688.417,4361.255a11.643,11.643,0,0,1-3.97,1.679,9.872,9.872,0,0,1-4.223-.052,15.93,15.93,0,0,1-6.649-3.532,33.5,33.5,0,0,1-4.837-5.112,46.7,46.7,0,0,1-3.827-5.728,46.232,46.232,0,0,0,4.739,4.874,31.673,31.673,0,0,0,5.356,3.916,12.818,12.818,0,0,0,5.739,1.868,6.063,6.063,0,0,0,4.6-1.856,2.513,2.513,0,1,1,3.115,3.917Z"/>
        <path id="Path_3572" data-name="Path 3572" d="M889.075,4278.167l53.262,7.251-53.654-3.271Z"/>
        <path id="Path_3573" data-name="Path 3573" d="M788.916,4152.209a3.087,3.087,0,0,1-5.744.649c-2.724-5.326-5.752-12.734-5.726-19.31.047-11.935,5.628-6.766,5.628-6.766s.493-26.366,7.92-28.1,1.292,21.4,1.292,21.4,7.178-3.758,5.937,3.978C797.2,4130.435,791.871,4140.274,788.916,4152.209Z" fill="#fff" stroke="#000" stroke-linecap="round" stroke-linejoin="round" stroke-width="2.6"/>
      </g>
      <path id="Path_3574" data-name="Path 3574" d="M395.586,3697.6c-12.4,17.972-10.23,42.771,7.755,56.408a39.012,39.012,0,0,0,14.639,6.784c-.1.145-.214.282-.316.429-12.4,17.973-10.23,42.771,7.756,56.409,16.781,12.725,44.047,10.159,56.408-7.755a44.658,44.658,0,0,0,3.394-5.829,39.419,39.419,0,0,0,8.4,8.651c16.781,12.725,44.047,10.159,56.409-7.755,12.169-17.635,10.295-41.834-6.77-55.621,11.572-17.872,9.141-41.943-8.481-55.305a41.224,41.224,0,0,0-28.15-7.783,38.814,38.814,0,0,0-13.119-17.649c-16.781-12.725-44.047-10.159-56.408,7.755a44.755,44.755,0,0,0-3.482,6.013C419.378,3680.308,404.016,3685.38,395.586,3697.6Z" fill="#fff" stroke="#000" stroke-miterlimit="10" stroke-width="2.6"/>
      <path id="Path_3575" data-name="Path 3575" d="M609.441,3510.345c4.757-30.022-12.886-59.845-43.667-66.146a54.289,54.289,0,0,0-22.457.29c.043-.244.1-.483.138-.728,4.757-30.022-12.886-59.845-43.668-66.146-28.72-5.879-61.4,13.744-66.146,43.668a62.317,62.317,0,0,0-.754,9.357,54.866,54.866,0,0,0-15.746-5.807c-28.721-5.879-61.4,13.744-66.146,43.668-4.668,29.457,12.241,58.708,41.957,65.749-3.776,29.4,13.756,58.15,43.914,64.324,13.58,2.779,28.041-.148,40.02-7.164a54.039,54.039,0,0,0,27.085,14.265c28.72,5.879,61.4-13.744,66.145-43.668a62.122,62.122,0,0,0,.754-9.643C589.976,3546.36,606.208,3530.752,609.441,3510.345Z" fill="#fff" stroke="#000" stroke-miterlimit="10" stroke-width="2.6"/>
      <path id="Path_3576" data-name="Path 3576" d="M588.873,3893.961c-.448-10.006-8.114-18.469-18.468-18.469a17.9,17.9,0,0,0-7.231,1.578c0-.082,0-.162,0-.244-.448-10.006-8.115-18.468-18.468-18.468-9.661,0-18.915,8.494-18.469,18.468a20.648,20.648,0,0,0,.375,3.071,18.073,18.073,0,0,0-5.467-.835c-9.66,0-18.915,8.495-18.468,18.468.44,9.819,7.831,18.144,17.89,18.454.723,9.739,8.283,17.863,18.427,17.863a18.9,18.9,0,0,0,12.446-4.957,17.8,17.8,0,0,0,9.687,2.816c9.66,0,18.914-8.5,18.468-18.469a20.518,20.518,0,0,0-.394-3.162C584.969,3906.874,589.178,3900.763,588.873,3893.961Z" fill="#fff" stroke="#000" stroke-miterlimit="10" stroke-width="2.6"/>
      <line id="Line_237" data-name="Line 237" y1="123.861" transform="translate(485.291 4076.469)" fill="none" stroke="#000" stroke-linejoin="round" stroke-width="6"/>
    </g>
    <g id="Group_733" data-name="Group 733">
      <g id="Group_730" data-name="Group 730">
        <ellipse id="Ellipse_309" data-name="Ellipse 309" cx="286.248" cy="6.429" rx="286.248" ry="6.429" transform="translate(1021.519 4423.588)"/>
        <g id="Group_728" data-name="Group 728">
          <path id="Path_3577" data-name="Path 3577" d="M1033.884,4312.056c.445-1.431.812-2.617,1.31-3.817.482-1.178,1-2.32,1.577-3.4a45.428,45.428,0,0,1,3.822-6.112,53.228,53.228,0,0,1,9.647-10.033c1.813-1.41,3.587-2.945,5.844-3.614a14.552,14.552,0,0,1,3.569-.625c1.272-.041,2.539-.068,3.819-.049a18.712,18.712,0,0,0,7.06-.939l6.2-2.725a183.246,183.246,0,0,1,26.3-9.391,92.143,92.143,0,0,1,14.505-2.653,72.914,72.914,0,0,1,15.294,0,68.271,68.271,0,0,1,29.328,10.323,87.872,87.872,0,0,1,22.867,20.9,123.708,123.708,0,0,1,14.628,24.961c3.8,8.431,6.769,16.781,9.517,24.835s5.253,15.844,8.008,23.009c1.374,3.584,2.811,7,4.358,10.143a59.074,59.074,0,0,0,4.947,8.48,31.466,31.466,0,0,0,5.545,6.1,25.59,25.59,0,0,0,3.017,2.119,23.7,23.7,0,0,0,3.314,1.6,28.361,28.361,0,0,0,7.945,1.792c.727.09,1.493.121,2.264.149.793.058,1.478.024,2.2.031a27.9,27.9,0,0,0,4.043-.356,22.893,22.893,0,0,0,7.134-2.34,28.4,28.4,0,0,0,6.564-4.866c4.314-4.162,8.34-10.158,12.171-16.891,3.863-6.744,7.566-14.214,11.95-21.954,2.19-3.865,4.578-7.815,7.326-11.758a82.007,82.007,0,0,1,9.679-11.608A56.131,56.131,0,0,1,1323,4323.6a50.917,50.917,0,0,1,16.2-5.163,58.033,58.033,0,0,1,8.163-.554c1.341-.015,2.7.074,4.055.137,1.376.141,2.733.221,4.123.463a48.407,48.407,0,0,1,16.2,5.364,51.391,51.391,0,0,1,13.051,10.272,72.281,72.281,0,0,1,8.988,12.161c4.93,8.272,8.3,16.5,11.482,24.362,3.16,7.857,6.045,15.43,9.338,22.16,3.27,6.711,7.125,12.422,11.389,15.489a17.13,17.13,0,0,0,7,3.012,7.184,7.184,0,0,0,1,.164c.345.035.677.1,1.033.124.717.041,1.44.1,2.085.086a16.008,16.008,0,0,0,3.7-.438,15.779,15.779,0,0,0,6.689-3.622,40.185,40.185,0,0,0,6.5-7.554c4.2-6.075,8.02-13.46,12.655-20.963a100.524,100.524,0,0,1,7.94-11.283,52.52,52.52,0,0,1,11.031-10.215,39.909,39.909,0,0,1,14.584-6.1,44.25,44.25,0,0,1,7.692-.825l1.891,0c.726.017,1.479.047,2.223.121a26.683,26.683,0,0,1,4.454.8,27.182,27.182,0,0,1,8.03,3.677,34.782,34.782,0,0,1,6.139,5.292,59.377,59.377,0,0,1,8.194,11.8c4.322,7.971,7.361,15.921,10.57,23.492,1.594,3.778,3.2,7.468,4.962,10.894a40.368,40.368,0,0,0,5.821,8.877,12.488,12.488,0,0,0,3.142,2.538,6.766,6.766,0,0,0,3.112.82c2.266.08,5.385-1.149,8.369-3.093a57.8,57.8,0,0,0,8.768-7.209c2.82-2.743,5.516-5.732,8.138-8.812l.021-.025a5.242,5.242,0,0,1,8.155,6.584c-2.611,3.411-5.335,6.772-8.33,10.008a68.969,68.969,0,0,1-10.091,9.168,35.972,35.972,0,0,1-6.457,3.766,23.1,23.1,0,0,1-8.2,2.035,19.25,19.25,0,0,1-9-1.756,24.976,24.976,0,0,1-6.875-4.852,52.6,52.6,0,0,1-8.5-11.536c-2.229-3.9-4.124-7.786-5.949-11.613-3.63-7.629-6.956-15.143-10.909-21.672a44.474,44.474,0,0,0-6.385-8.455,14.06,14.06,0,0,0-6.777-4.1,10.271,10.271,0,0,0-1.708-.22c-.3-.017-.584-.01-.9-.006l-1.235.07a27.36,27.36,0,0,0-4.7.758,22.563,22.563,0,0,0-8.146,3.947c-4.964,3.722-9.052,9.789-12.807,16.649-3.809,6.877-7.225,14.575-12.167,22.468a60.31,60.31,0,0,1-9.341,11.723,39.877,39.877,0,0,1-6.682,5.144,35.1,35.1,0,0,1-8.1,3.617,37.234,37.234,0,0,1-8.627,1.51c-1.44.092-2.8.067-4.168.038-.685-.015-1.388-.091-2.082-.14s-1.393-.125-2.1-.236a39.29,39.29,0,0,1-16.109-6.008,50.035,50.035,0,0,1-11.767-11.008,86.1,86.1,0,0,1-7.87-12.108c-4.416-8.071-7.717-16.017-11.062-23.51-3.326-7.474-6.649-14.6-10.512-20.523a46.8,46.8,0,0,0-6.119-7.721,25.288,25.288,0,0,0-6.693-4.909,22.044,22.044,0,0,0-7.533-2.121,31,31,0,0,0-8.589.323c-5.433,1.033-9.717,3.525-13.949,7.956-4.222,4.389-8.035,10.579-11.66,17.441-3.649,6.879-7.139,14.471-11.326,22.336-2.1,3.934-4.392,7.952-7.054,11.981a83.52,83.52,0,0,1-9.461,11.927,58.933,58.933,0,0,1-13.192,10.341,53.668,53.668,0,0,1-16.322,6.021,58.6,58.6,0,0,1-8.376,1.028c-1.367.052-2.765.119-4.058.082-1.313-.007-2.631-.03-3.982-.134a59.96,59.96,0,0,1-16.471-3.246,53.9,53.9,0,0,1-8.057-3.579,57.075,57.075,0,0,1-7.344-4.865,63.28,63.28,0,0,1-11.6-12.009,90.819,90.819,0,0,1-7.981-12.9c-2.231-4.3-4.1-8.541-5.808-12.706-3.406-8.337-6.164-16.379-8.973-24.053s-5.61-14.99-8.821-21.7a89.808,89.808,0,0,0-10.933-17.917,53.022,53.022,0,0,0-14.121-12.4,80.669,80.669,0,0,0-8.311-4.21,85.246,85.246,0,0,0-8.793-3.337,78.305,78.305,0,0,0-9.578-2.378,67.361,67.361,0,0,0-10.431-.974,64.273,64.273,0,0,0-21.881,3.662,55.419,55.419,0,0,0-5.323,2.133,11.558,11.558,0,0,0-4.237,4.429l-1.745,2.808a12.427,12.427,0,0,1-1.931,2.353c-1.389,1.353-3.231,1.9-4.982,2.651a86.949,86.949,0,0,1-11.262,3.694c-1.986.526-4.067.959-6.229,1.331-1.076.193-2.191.345-3.328.479a23.582,23.582,0,0,1-3.482.2l-1.9-.1a7.3,7.3,0,0,1-6.923-7.656A7.609,7.609,0,0,1,1033.884,4312.056Z"/>
          <g id="Group_727" data-name="Group 727">
            <path id="Path_3578" data-name="Path 3578" d="M1594.813,4404.349c-5.631.778-13.125-2.493-17.617-5.7,9.23.076,18.7-1.736,26.82-6.459-2.466,9-1.139,18.6,1.059,27.567C1600.652,4415.819,1595.808,4410.342,1594.813,4404.349Z"/>
          </g>
        </g>
        <path id="Path_3579" data-name="Path 3579" d="M1162.657,4286.585a69.052,69.052,0,0,1,14.94,13.526,97.493,97.493,0,0,1,11.14,16.967,165.076,165.076,0,0,1,8.215,18.5c2.382,6.293,4.467,12.665,6.595,18.983,2.048,6.343,4.118,12.648,6.463,18.8a95.945,95.945,0,0,0,8.405,17.614,38.135,38.135,0,0,0,13.529,13.356,34.738,34.738,0,0,0,9.073,3.45c.8.184,1.61.326,2.419.492l2.457.342,2.484.238,2.5.116a41.556,41.556,0,0,1-10.093.179,33.122,33.122,0,0,1-18.679-8.236,44.737,44.737,0,0,1-6.919-7.745c-4.078-5.6-6.963-11.841-9.582-18.067-2.547-6.271-4.675-12.644-6.8-18.974-2.04-6.361-4.093-12.681-6.284-18.927q-3.208-9.4-7.267-18.4a114.447,114.447,0,0,0-9.6-17.211A86.286,86.286,0,0,0,1162.657,4286.585Z" fill="#fff"/>
        <path id="Path_3580" data-name="Path 3580" d="M1366.73,4327.278a43.92,43.92,0,0,1,12.563,8.66,63.55,63.55,0,0,1,9.543,12.106c5.45,8.748,9.191,18.3,12.8,27.658,1.8,4.689,3.575,9.35,5.533,13.885a82.575,82.575,0,0,0,6.787,12.972,35.071,35.071,0,0,0,10.057,10.169l.752.51.8.42,1.614.847c1.1.531,2.268.887,3.407,1.377,1.181.339,2.381.659,3.591.98l3.716.651c-1.258.053-2.527.067-3.81.1-1.265-.111-2.544-.236-3.828-.384-1.251-.286-2.537-.521-3.776-.915l-1.842-.665-.927-.335-.882-.434a24.165,24.165,0,0,1-3.428-1.951c-.545-.369-1.107-.723-1.642-1.111l-1.527-1.256a39.606,39.606,0,0,1-5.432-5.706,68.781,68.781,0,0,1-7.951-13.308c-2.193-4.631-4.063-9.352-5.88-14.05-3.606-9.4-6.974-18.769-11.512-27.522a75.612,75.612,0,0,0-7.972-12.39A55.989,55.989,0,0,0,1366.73,4327.278Z" fill="#fff"/>
        <g id="Group_729" data-name="Group 729">
          <path id="Path_3581" data-name="Path 3581" d="M1574.87,4349.749c0,3.692-30.334,6.684-67.753,6.684s-67.752-2.992-67.752-6.684Z" fill="#fff" stroke="#000" stroke-linejoin="round" stroke-width="2.6"/>
          <path id="Path_3582" data-name="Path 3582" d="M1563.973,4349.749c0-30.717-25.455-55.618-56.856-55.618s-56.855,24.9-56.855,55.618Z" fill="#fff" stroke="#000" stroke-linejoin="round" stroke-width="2.6"/>
          <path id="Path_3583" data-name="Path 3583" d="M1514.243,4287.726c0,3.537-3.19,6.4-7.126,6.4s-7.125-2.868-7.125-6.4Z" fill="#fff" stroke="#000" stroke-linejoin="round" stroke-width="2.6"/>
        </g>
        <path id="Path_3584" data-name="Path 3584" d="M1415.052,4315.353c0,3.692-30.334,6.684-67.753,6.684s-67.752-2.992-67.752-6.684Z" fill="#fff" stroke="#000" stroke-linejoin="round" stroke-width="2.6"/>
        <path id="Path_3585" data-name="Path 3585" d="M1194.1,4263.353c0,3.691-30.334,6.684-67.752,6.684s-67.753-2.993-67.753-6.684Z" fill="#fff" stroke="#000" stroke-linejoin="round" stroke-width="2.6"/>
      </g>
      <g id="Group_731" data-name="Group 731">
        <line id="Line_238" data-name="Line 238" y1="22.904" x2="7.042" transform="translate(1139.748 4171.982)" fill="none" stroke="#000" stroke-linejoin="round" stroke-width="2.6"/>
        <path id="Path_3586" data-name="Path 3586" d="M1112.59,4161.316l69.743,22.119-32.141-22.119Z" fill="none" stroke="#000" stroke-linejoin="round" stroke-width="2.6"/>
        <path id="Path_3587" data-name="Path 3587" d="M1152.966,4195.348c-.222-.12-.713-.34-1.208-.543.041-.137.079-.27.114-.394a7.355,7.355,0,0,0-3.377-8.237c-2.049-1.277-6.352-2.057-8.88-1.041-.206-.454-.405-.879-.489-1.016a9.492,9.492,0,0,0-3.752-3.577,10.724,10.724,0,0,0-10.023.827c-.63.369-3.2,2.519-2.876,2.482-.036,0-3.208-1.709-4.273-2.062a11.439,11.439,0,0,0-10.68,1.37,15.837,15.837,0,0,0-3.109,3.192c-.362.464-.944,1.637-1.383,1.907-1,.612-.425.112-1.456.256-4.367.606-7.85-.085-10.788,3.712-1.513,1.957-1.334,6.062-2.938,7.458-3.837,3.337-1.143,8,2.752,9.146a6.041,6.041,0,0,0,1.8,2.49c3.3,2.739,8.706,2.435,12.793,1.967,2.328-.266,4.459-.53,6.54-.7,2.8.355,5.59.678,8.366.815,2.365.117,4.729.174,7.094.2a33.9,33.9,0,0,0,6.828-.03c3.258-.065,6.514-.183,9.769-.383a6.005,6.005,0,0,0,5-2.869,10.169,10.169,0,0,0,3.315-.823C1158.53,4206.709,1159.257,4198.729,1152.966,4195.348Z" fill="#fff" stroke="#000" stroke-linejoin="round" stroke-width="2.6"/>
        <path id="Path_3588" data-name="Path 3588" d="M1113.673,4263.353c-39,0-43.425-10.5-46-28.034-2.535-17.25,15.75-34.763,15.75-34.763h77.088s9.662,15.581,10.412,39.189c14.5,13.074,7.75,22.074,0,17.824l2,5.784h-59.25l-.5-6.784s-8,4.746-12.285,1.216c-6.632-5.466,6.369-16.835,6.369-16.835" fill="#fff" stroke="#000" stroke-linejoin="round" stroke-width="2.6"/>
        <ellipse id="Ellipse_310" data-name="Ellipse 310" cx="6.974" cy="11.994" rx="6.974" ry="11.994" transform="matrix(0.98, -0.198, 0.198, 0.98, 1120.844, 4220.131)" stroke="#000" stroke-linejoin="round" stroke-width="2.6"/>
        <ellipse id="Ellipse_311" data-name="Ellipse 311" cx="6.974" cy="11.994" rx="6.974" ry="11.994" transform="matrix(0.98, -0.198, 0.198, 0.98, 1145.428, 4220.131)" stroke="#000" stroke-linejoin="round" stroke-width="2.6"/>
        <path id="Path_3589" data-name="Path 3589" d="M1141.877,4251.317h10.268l-8.23-11.833Z" stroke="#000" stroke-linejoin="round" stroke-width="2.6"/>
        <line id="Line_239" data-name="Line 239" x1="0.71" y1="6.827" transform="translate(1123.552 4256.526)" stroke="#000" stroke-linejoin="round" stroke-width="2.6"/>
        <line id="Line_240" data-name="Line 240" x1="0.71" y1="6.827" transform="translate(1131.194 4256.526)" stroke="#000" stroke-linejoin="round" stroke-width="2.6"/>
        <line id="Line_241" data-name="Line 241" x1="0.71" y1="6.827" transform="translate(1138.835 4256.526)" stroke="#000" stroke-linejoin="round" stroke-width="2.6"/>
        <line id="Line_242" data-name="Line 242" x1="0.71" y1="6.827" transform="translate(1146.476 4256.526)" stroke="#000" stroke-linejoin="round" stroke-width="2.6"/>
        <line id="Line_243" data-name="Line 243" x1="0.71" y1="6.827" transform="translate(1154.118 4256.526)" stroke="#000" stroke-linejoin="round" stroke-width="2.6"/>
        <line id="Line_244" data-name="Line 244" x1="0.71" y1="6.827" transform="translate(1161.759 4256.526)" stroke="#000" stroke-linejoin="round" stroke-width="2.6"/>
        <path id="Path_3590" data-name="Path 3590" d="M1101.172,4200.5l-7.388-46.969a5.9,5.9,0,0,0-7.4-4.767l-23.624,6.555" fill="none" stroke="#000" stroke-linejoin="round" stroke-width="2.6"/>
        <path id="Path_3591" data-name="Path 3591" d="M1127.36,4219.86a4.709,4.709,0,0,1,3.516.622,8.006,8.006,0,0,1,2.582,2.667,19.7,19.7,0,0,1,1.894,13.9,6.806,6.806,0,0,1-1.931,3.245,4.334,4.334,0,0,1-1.7.875,4.073,4.073,0,0,1-1.791-.019,5.349,5.349,0,0,0,1.514-.647,3.761,3.761,0,0,0,1.035-1.071,6.667,6.667,0,0,0,.89-2.816,27.346,27.346,0,0,0-.261-6.345,26.587,26.587,0,0,0-1.442-6.185C1130.89,4222.2,1129.669,4220.423,1127.36,4219.86Z" fill="#fff"/>
        <path id="Path_3592" data-name="Path 3592" d="M1152.17,4219.86a4.708,4.708,0,0,1,3.516.622,8.01,8.01,0,0,1,2.583,2.667,19.7,19.7,0,0,1,1.893,13.9,6.8,6.8,0,0,1-1.931,3.245,4.327,4.327,0,0,1-1.7.875,4.069,4.069,0,0,1-1.79-.019,5.364,5.364,0,0,0,1.514-.647,3.761,3.761,0,0,0,1.035-1.071,6.667,6.667,0,0,0,.89-2.816,27.34,27.34,0,0,0-.262-6.345,26.636,26.636,0,0,0-1.441-6.185C1155.7,4222.2,1154.48,4220.423,1152.17,4219.86Z" fill="#fff"/>
      </g>
      <g id="Group_732" data-name="Group 732">
        <path id="Path_3593" data-name="Path 3593" d="M1363.332,4245.4a23.886,23.886,0,0,0-13.115,3.968,23.892,23.892,0,0,0-13.116-3.968c-14.575,0-26.39,11.6-26.39,32.443s21.308,36.013,30.886,36.013a12.275,12.275,0,0,0,8.62-3.969,12.271,12.271,0,0,0,8.619,3.969c9.578,0,30.886-15.169,30.886-36.013S1377.907,4245.4,1363.332,4245.4Z" fill="#fff" stroke="#000" stroke-linejoin="round" stroke-width="2.6"/>
        <path id="Path_3594" data-name="Path 3594" d="M1354.462,4224.692a59.4,59.4,0,0,0-4.245,24.677s-6.06-18.429-37.905-18.865c14.271,26.022,34.406,20.813,34.406,20.813" fill="#fff" stroke="#000" stroke-linejoin="round" stroke-width="2.6"/>
      </g>
      <path id="Path_3595" data-name="Path 3595" d="M1352.463,4305.449a8.48,8.48,0,0,0,6.208,1.235,14.044,14.044,0,0,0,5.481-2.529,28.359,28.359,0,0,0,2.481-2.008c.825-.687,1.61-1.459,2.382-2.244.781-.825,1.584-1.68,2.381-2.494.773-.842,1.575-1.651,2.32-2.49a58.2,58.2,0,0,0,4.19-5.067,26.982,26.982,0,0,0,1.776-2.621c.522-.9.972-1.834,1.427-2.78a22.08,22.08,0,0,0,1.091-2.993,24.14,24.14,0,0,0,.8-3.243c.506-2.245.71-4.626,1.154-7.093l.4-.058a47.848,47.848,0,0,1,.662,7.171,25.071,25.071,0,0,1-1.008,7.163c-1.392,4.682-4.329,8.7-7.564,12.222-1.643,1.757-3.37,3.424-5.16,5.023a30.814,30.814,0,0,1-5.871,4.223,13.953,13.953,0,0,1-6.993,1.888,8.753,8.753,0,0,1-6.478-3.066Z"/>
    </g>
    <g id="Group_743" data-name="Group 743">
      <g id="Group_735" data-name="Group 735">
        <path id="Path_3596" data-name="Path 3596" d="M1639.569,3705.331s4.173-24.386,4.181-32.441-12.293-4.489-13.329-14.665,14.2-21.063,21.426-4.122c0,0,17.506-8.6,15.862,5.365s-12.384,4.049-12.555,20.977.426,23.41.426,23.41" fill="#fff" stroke="#000" stroke-miterlimit="10" stroke-width="2.6"/>
        <path id="Path_3597" data-name="Path 3597" d="M1647.65,3564.82a7.579,7.579,0,1,1-7.58,7.58" fill="none" stroke="#000" stroke-linecap="round" stroke-linejoin="round" stroke-width="5"/>
        <path id="Path_3598" data-name="Path 3598" d="M1649.422,3579.979c.008,2.726.115,5.451.232,8.177.047,1.363.151,2.726.223,4.088l.12,2.045.06,1.022.03.511c.02.14.05.243.071.365.224,1.88,1.738,3.405,3.658,5.242a40.884,40.884,0,0,1,3.127,3.125,21.606,21.606,0,0,1,1.558,2.007,14.98,14.98,0,0,1,1.291,2.447,16.693,16.693,0,0,1,.89,2.749,19.4,19.4,0,0,1,.288,2.846,14.47,14.47,0,0,1-1.066,5.762,12.756,12.756,0,0,1-3.782,5.108,12.189,12.189,0,0,1-5.863,2.61,11.667,11.667,0,0,1-6.17-.726,10.792,10.792,0,0,1-4.635-3.579,10.143,10.143,0,0,1-1.94-4.9,9.567,9.567,0,0,1,.629-4.742,24.5,24.5,0,0,0,2.932,3.072,9.52,9.52,0,0,0,2.818,1.676,5.778,5.778,0,0,0,4.368-.132,4.707,4.707,0,0,0,2.41-2.367,7.768,7.768,0,0,0,.654-2.18c.1-.453.07-.81.141-1.235a7.928,7.928,0,0,0-.056-1.221c-.137-1.667-1.244-3.739-2.753-6.121a32.082,32.082,0,0,1-2.271-4.042,11.927,11.927,0,0,1-1.172-5.108v-.654l.03-.511.059-1.022.121-2.045c.072-1.362.176-2.725.223-4.088.117-2.726.224-5.451.231-8.177a1.773,1.773,0,0,1,3.545,0Z"/>
        <g id="Group_734" data-name="Group 734">
          <path id="Path_3599" data-name="Path 3599" d="M1624.545,3793.05c22.777,6.453,24.3,47.265,44.172,57.315,9.787,4.95,16.413.179,20.62-5.938a43.643,43.643,0,0,0,4.042-15.273c3.879-39.576-21.99-73.55-29.458-99.134-8.068-27.637-8.068-27.637-9.758-26.165-4.953.607-11.417,2.936-12.893.343a1.213,1.213,0,0,0-2.235.25c-2.371,8.649-8.385,28.329-16.96,40.611-7.558,10.827-19.227,33.609-20.928,55C1604.341,3794.854,1611.02,3789.219,1624.545,3793.05Z" fill="#fff" stroke="#000" stroke-linecap="round" stroke-linejoin="round" stroke-width="2.6"/>
        </g>
        <path id="Path_3600" data-name="Path 3600" d="M1668.717,3850.365c-19.869-10.05-21.4-50.862-44.172-57.315-13.525-3.831-20.2,1.8-23.4,7.014-.829,10.427.7,20.527,6.244,28.75,16.928,25.095,45.33,29.454,45.33,29.454s26.052,7.408,36.616-13.841C1685.13,3850.544,1678.5,3855.315,1668.717,3850.365Z" stroke="#000" stroke-linecap="round" stroke-linejoin="round" stroke-width="2.6"/>
        <ellipse id="Ellipse_312" data-name="Ellipse 312" cx="3.655" cy="12.367" rx="3.655" ry="12.367" transform="matrix(0.599, -0.801, 0.801, 0.599, 1618.278, 3834.284)" fill="#fff" stroke="#000" stroke-linecap="round" stroke-linejoin="round" stroke-width="2.6"/>
        <path id="Path_3601" data-name="Path 3601" d="M1678.017,3844.959a11.694,11.694,0,0,0,2.822-2.3,14.887,14.887,0,0,0,2.081-2.861,19.647,19.647,0,0,0,2.226-6.53,34.384,34.384,0,0,0,.309-6.963c-.055-1.166-.167-2.418-.247-3.618l-.382-3.631a151.008,151.008,0,0,0-6.744-28.579c-1.493-4.715-3.287-9.346-4.968-14.043l-5.332-14.059q-2.719-7.044-5.108-14.3a80.381,80.381,0,0,1-3.554-14.877l.388-.1a108.952,108.952,0,0,0,5.041,14.2c1.938,4.645,4,9.241,6.026,13.853,4.069,9.216,8.027,18.5,11.255,28.074a125.935,125.935,0,0,1,6.4,29.551c.333,5.014.6,10.172-.773,15.115a19.683,19.683,0,0,1-3.3,6.85,13.521,13.521,0,0,1-6.035,4.6Z"/>
        <path id="Path_3602" data-name="Path 3602" d="M1643.248,3679.957l11.875,6.208-6.029-66.6-3.958,26.522" fill="none" stroke="#000" stroke-linecap="round" stroke-linejoin="round" stroke-width="2.6"/>
        <path id="Path_3603" data-name="Path 3603" d="M1647.65,3570.416c-7.108-2.674-13.153-6.038-.494-11.247V3442.6" fill="none" stroke="#000" stroke-linecap="round" stroke-linejoin="round" stroke-width="2.6"/>
      </g>
      <g id="Group_742" data-name="Group 742">
        <g id="Group_736" data-name="Group 736">
          <path id="Path_3604" data-name="Path 3604" d="M1717.453,3600.533c5.593-6.257,16.649,2.737,11.1,10.317-5.257,7.181-7.763,19.013-6.622,27.97s-12.482,13.009-14.289,4.616C1704.378,3628.282,1707.184,3612.022,1717.453,3600.533Z" fill="#fff" stroke="#000" stroke-linecap="round" stroke-linejoin="round" stroke-width="2.6"/>
        </g>
        <g id="Group_737" data-name="Group 737">
          <path id="Path_3605" data-name="Path 3605" d="M1709.076,3652.12c3.89-8.085,17.55-3.049,13.966,6.348-3.4,8.9-1.652,20.336,3.282,28.319s-6.4,17.853-11.766,10.661C1704.875,3684.461,1701.935,3666.967,1709.076,3652.12Z" fill="#fff" stroke="#000" stroke-linecap="round" stroke-linejoin="round" stroke-width="2.6"/>
        </g>
        <path id="Path_3606" data-name="Path 3606" d="M1727.956,3544.01a7.579,7.579,0,1,1-7.579,7.58" fill="none" stroke="#000" stroke-linecap="round" stroke-linejoin="round" stroke-width="5"/>
        <path id="Path_3607" data-name="Path 3607" d="M1729.729,3559.169c.008,2.726.115,5.451.231,8.177.047,1.363.151,2.726.224,4.088l.12,2.045.06,1.021.03.511c.02.141.049.244.071.366.224,1.88,1.737,3.4,3.658,5.242a41.286,41.286,0,0,1,3.127,3.125,21.513,21.513,0,0,1,1.558,2.007,15.132,15.132,0,0,1,1.291,2.447,16.7,16.7,0,0,1,.889,2.749,19.266,19.266,0,0,1,.288,2.846,14.46,14.46,0,0,1-1.065,5.761,12.755,12.755,0,0,1-3.783,5.109,12.187,12.187,0,0,1-5.863,2.61,11.666,11.666,0,0,1-6.17-.726,10.8,10.8,0,0,1-4.635-3.579,10.154,10.154,0,0,1-1.94-4.9,9.571,9.571,0,0,1,.629-4.743,24.332,24.332,0,0,0,2.933,3.073,9.52,9.52,0,0,0,2.818,1.676,5.779,5.779,0,0,0,4.368-.132,4.7,4.7,0,0,0,2.409-2.367,7.773,7.773,0,0,0,.654-2.18c.1-.453.07-.81.141-1.235a7.93,7.93,0,0,0-.056-1.221c-.137-1.667-1.243-3.739-2.752-6.121a31.891,31.891,0,0,1-2.272-4.043,11.937,11.937,0,0,1-1.172-5.107v-.655l.03-.511.06-1.021.12-2.045c.073-1.362.177-2.725.223-4.088.117-2.726.224-5.451.232-8.177a1.773,1.773,0,0,1,3.545,0Z"/>
        <path id="Path_3608" data-name="Path 3608" d="M1739.274,3592.229c-9.259-4.4-16.311,9.875-7.037,14.279,8.788,4.173,13.827,15.231,10.077,24.5-3.825,9.454,10.429,16.553,14.279,7.036C1763.545,3620.861,1756.275,3600.3,1739.274,3592.229Z" fill="#fff" stroke="#000" stroke-linecap="round" stroke-linejoin="round" stroke-width="2.6"/>
        <g id="Group_738" data-name="Group 738">
          <path id="Path_3609" data-name="Path 3609" d="M1750.644,3643.91c-6.31-7.543-17.356,2.185-11.337,10.708,5.7,8.075,7.8,19.65,3.357,28.679s6.889,18.222,12.17,9.621C1764.368,3677.387,1762.232,3657.761,1750.644,3643.91Z" fill="#fff" stroke="#000" stroke-linecap="round" stroke-linejoin="round" stroke-width="2.6"/>
        </g>
        <g id="Group_739" data-name="Group 739">
          <path id="Path_3610" data-name="Path 3610" d="M1750.175,3698.783c-3.9-8.353-16.815-1.566-13.276,8.218,3.353,9.27,2.907,22.86-.378,32.318s8.944,17.6,12.738,8.941C1756.11,3732.624,1757.343,3714.122,1750.175,3698.783Z" fill="#fff" stroke="#000" stroke-linecap="round" stroke-linejoin="round" stroke-width="2.6"/>
        </g>
        <g id="Group_740" data-name="Group 740">
          <path id="Path_3611" data-name="Path 3611" d="M1754.516,3750.366c-6.08-7.924-17.352.571-12.049,9.486,5.025,8.447,3.706,19.664-2.525,27.259s3.059,18.891,10.071,11.725C1762.673,3785.9,1765.68,3764.915,1754.516,3750.366Z" fill="#fff" stroke="#000" stroke-linecap="round" stroke-linejoin="round" stroke-width="2.6"/>
        </g>
        <path id="Path_3612" data-name="Path 3612" d="M1752.859,3803.69c-6.51-7.917-18.962,2-12.441,9.931,6.178,7.513,6.036,19.665-1.3,26.459-7.482,6.929,2.4,19.417,9.931,12.441C1762.648,3839.926,1764.813,3818.228,1752.859,3803.69Z" fill="#fff" stroke="#000" stroke-linecap="round" stroke-linejoin="round" stroke-width="2.6"/>
        <g id="Group_741" data-name="Group 741">
          <path id="Path_3613" data-name="Path 3613" d="M1752.365,3857c-4.957-7.937-17.385-.073-12.527,9.322,4.6,8.9,4.624,21.438,1.054,30.868s8.839,17.921,12.941,9.258C1761.239,3890.808,1761.467,3871.574,1752.365,3857Z" fill="#fff" stroke="#000" stroke-linecap="round" stroke-linejoin="round" stroke-width="2.6"/>
        </g>
        <path id="Path_3614" data-name="Path 3614" d="M1728.23,3549.679c-7.108-2.673-13.153-6.037-.493-11.246V3442.6" fill="none" stroke="#000" stroke-linecap="round" stroke-linejoin="round" stroke-width="2.6"/>
      </g>
    </g>
  </g>
</svg>
