<svg xmlns="http://www.w3.org/2000/svg" viewBox="0 0 243.5 185.86">
  <defs>
    <style>
      .cls-1, .cls-2 {
        fill: none;
      }

      .cls-2, .cls-3, .cls-4 {
        stroke: #000;
        stroke-linejoin: round;
        stroke-width: 2.6px;
      }

      .cls-3, .cls-5 {
        fill: #fff;
      }
    </style>
  </defs>
  <title>pack_vip</title>
  <g id="Layer_2" data-name="Layer 2">
    <g id="Layer_1-2" data-name="Layer 1">
      <g>
        <rect class="cls-1" width="243.5" height="185.86"/>
        <g>
          <ellipse cx="125.79" cy="172.86" rx="82.71" ry="8.74"/>
          <g>
            <line class="cls-2" x1="153.85" y1="80.03" x2="163.51" y2="48.62"/>
            <polygon class="cls-3" points="116.61 33.99 212.25 64.32 168.17 33.99 116.61 33.99"/>
            <path class="cls-3" d="M173.89,79.37a18,18,0,0,0-1.73-.84c.06-.21.12-.42.17-.61a11.81,11.81,0,0,0-4.84-12.76c-2.94-2-9.1-3.19-12.72-1.62-.3-.7-.58-1.36-.7-1.57a14.12,14.12,0,0,0-5.38-5.54C144,54,138.64,55,134.33,57.71c-.9.57-4.59,3.9-4.12,3.85-.05,0-4.6-2.65-6.12-3.2-5.36-1.92-10.77-1.44-15.3,2.12a24.16,24.16,0,0,0-4.46,5c-.51.72-1.35,2.53-2,2.95-1.42,1-.61.18-2.08.4C94,69.72,89,68.65,84.81,74.53c-2.17,3-1.91,9.39-4.21,11.55-5.49,5.17-1.64,12.4,4,14.17a9.36,9.36,0,0,0,2.58,3.86c4.73,4.24,12.47,3.77,18.33,3,3.33-.42,6.39-.82,9.37-1.08,4,.55,8,1,12,1.26,3.39.18,6.78.27,10.17.31a45,45,0,0,0,9.78,0c4.67-.1,9.33-.29,14-.6a8.5,8.5,0,0,0,7.16-4.44,13.54,13.54,0,0,0,4.75-1.28C181.87,97,182.91,84.61,173.89,79.37Z"/>
            <path class="cls-3" d="M118.09,173.92c-53.49,0-59.55-14.4-63.09-38.44C51.53,111.82,76.6,87.8,76.6,87.8H182.32s13.25,21.37,14.28,53.75c19.89,17.93,10.63,30.27,0,24.44l2.74,7.93H118.09l-.69-9.3s-11,6.51-16.84,1.67c-9.1-7.5,8.73-23.09,8.73-23.09"/>
            <ellipse class="cls-4" cx="140.56" cy="128.88" rx="9.56" ry="16.45" transform="translate(-22.76 30.42) rotate(-11.44)"/>
            <ellipse class="cls-4" cx="174.27" cy="128.88" rx="9.56" ry="16.45" transform="translate(-22.09 37.11) rotate(-11.44)"/>
            <polygon class="cls-4" points="156.77 157.42 170.85 157.42 159.56 141.19 156.77 157.42"/>
            <line class="cls-4" x1="132.61" y1="173.92" x2="131.64" y2="164.56"/>
            <line class="cls-4" x1="143.09" y1="173.92" x2="142.12" y2="164.56"/>
            <line class="cls-4" x1="153.57" y1="173.92" x2="152.6" y2="164.56"/>
            <line class="cls-4" x1="164.05" y1="173.92" x2="163.08" y2="164.56"/>
            <line class="cls-4" x1="174.53" y1="173.92" x2="173.56" y2="164.56"/>
            <line class="cls-4" x1="185.01" y1="173.92" x2="184.04" y2="164.56"/>
            <path class="cls-2" d="M98.11,87.73,88,23.31a8.09,8.09,0,0,0-10.16-6.53l-32.39,9"/>
            <path class="cls-5" d="M136.86,114.28a6.54,6.54,0,0,1,4.68,1,11,11,0,0,1,3.35,3.64,20.52,20.52,0,0,1,1.92,4.48,35.42,35.42,0,0,1,1,4.7,24.87,24.87,0,0,1-.35,9.63,9.27,9.27,0,0,1-2.45,4.37,5.35,5.35,0,0,1-4.62,1.33,7.18,7.18,0,0,0,2.13-.76,5.46,5.46,0,0,0,1.55-1.43,9,9,0,0,0,1.41-3.94,22.89,22.89,0,0,0,.16-4.39,37.34,37.34,0,0,0-.41-4.46,32.28,32.28,0,0,0-2.12-8.59,11.4,11.4,0,0,0-2.35-3.59A7.22,7.22,0,0,0,136.86,114.28Z"/>
            <path class="cls-5" d="M170.89,114.28a6.52,6.52,0,0,1,4.67,1,10.93,10.93,0,0,1,3.36,3.64,21,21,0,0,1,1.92,4.48,35.38,35.38,0,0,1,1,4.7,24.86,24.86,0,0,1-.34,9.63,9.2,9.2,0,0,1-2.46,4.37,5.34,5.34,0,0,1-4.61,1.33,7.28,7.28,0,0,0,2.13-.76,5.42,5.42,0,0,0,1.54-1.43,9,9,0,0,0,1.41-3.94,22.11,22.11,0,0,0,.17-4.39,42,42,0,0,0-.41-4.46,32.29,32.29,0,0,0-2.13-8.59,11.37,11.37,0,0,0-2.34-3.59A7.25,7.25,0,0,0,170.89,114.28Z"/>
            <path class="cls-3" d="M130.21,61.56c7.43,7.1,3.91,18.6-4.42,14.1s-12.65-3.47-14.49,1,5.31,11,5.31,11"/>
            <path class="cls-2" d="M172.16,78.53c-3-1.45-10.31-5.68-17.85,0-9.59,7.21-16.21-6-4.59-10.12"/>
            <path class="cls-2" d="M81.27,85.23c4.12-4,20.2-10,25.45,2.5"/>
          </g>
        </g>
      </g>
    </g>
  </g>
</svg>
