<svg xmlns="http://www.w3.org/2000/svg" viewBox="0 0 243.5 185.86">
  <defs>
    <style>
      .cls-1 {
        fill: none;
      }

      .cls-2 {
        fill: #fff;
        stroke: #000;
        stroke-linejoin: round;
        stroke-width: 2.6px;
      }
    </style>
  </defs>
  <title>pack_economical</title>
  <g id="Layer_2" data-name="Layer 2">
    <g id="Layer_1-2" data-name="Layer 1">
      <g>
        <rect class="cls-1" width="243.5" height="185.86"/>
        <g>
          <ellipse cx="115.56" cy="172.86" rx="79.47" ry="8.74"/>
          <g>
            <g>
              <path class="cls-2" d="M151.9,74.12a36,36,0,0,0-19.78,6,36,36,0,0,0-19.78-6c-22,0-39.81,17.49-39.81,48.93s32.14,54.31,46.59,54.31a16.74,16.74,0,0,0,9.21-2.89,7,7,0,0,1,7.58,0,16.69,16.69,0,0,0,9.21,2.89c14.44,0,46.58-22.87,46.58-54.31S173.88,74.12,151.9,74.12Z"/>
              <ellipse cx="100.67" cy="135.05" rx="7.37" ry="10.42" transform="translate(-18.58 16.09) rotate(-8.37)"/>
              <path class="cls-2" d="M138.52,42.88c-4.54,20.4-6.4,37.22-6.4,37.22S129.37,41.69,81.34,41C102.86,80.28,131.61,82,131.61,82"/>
            </g>
            <path d="M134.84,167.67a19.7,19.7,0,0,0,10.55,1.12,26.1,26.1,0,0,0,5-1.31,37.19,37.19,0,0,0,4.69-2.22,36.66,36.66,0,0,0,4.36-2.9c1.41-1,2.77-2.16,4.08-3.34a64.75,64.75,0,0,0,7.19-7.73,60.19,60.19,0,0,0,9.85-18.49,53.12,53.12,0,0,0,1.46-5.15q.66-2.61,1.07-5.31a101,101,0,0,0,1.12-11.06l.37-.06a57.07,57.07,0,0,1-1,22.35,52.47,52.47,0,0,1-9.93,20.06,56,56,0,0,1-7.92,8,45.42,45.42,0,0,1-9.41,6.16,27.45,27.45,0,0,1-10.87,2.85A18.74,18.74,0,0,1,134.61,168Z"/>
          </g>
          <path class="cls-2" d="M81.34,41s34.22,10.2,50.78,41.25"/>
          <g>
            <path class="cls-2" d="M78.59,150.52a13.51,13.51,0,0,1-6-1.28c-3.46-1.67-7.59-5.71-7.59-15.48v-31.2c0-.2,0-.4,0-.59a5.79,5.79,0,0,0-3.87-5.11,6.48,6.48,0,0,0-6.9,1.38l-4.61,4.49a5.57,5.57,0,0,1-7.77-8l4.6-4.49a17.5,17.5,0,0,1,18.66-3.81,16.92,16.92,0,0,1,11,14.77c0,.44,0,.89,0,1.34v31.2c0,3.81.84,5.23,1.29,5.45,2.5,1.21,11.41-2.85,18.34-8.35a5.57,5.57,0,1,1,6.94,8.72C99.12,142.48,88.15,150.52,78.59,150.52Z"/>
            <path class="cls-2" d="M65.14,86.45s3.71,5.49-1.77,11.81"/>
            <path class="cls-2" d="M75.19,96.63s-.75,6.56-10.14,5.93"/>
            <path class="cls-2" d="M65.05,110.85a12.61,12.61,0,0,0,11.14,0"/>
            <path class="cls-2" d="M65.05,122.75a12.65,12.65,0,0,0,11.14,0"/>
            <path class="cls-2" d="M65.05,134.64a12.61,12.61,0,0,0,11.14,0"/>
            <path class="cls-2" d="M77.48,139.21s1.29,7.62-4.84,10"/>
            <path class="cls-2" d="M83.79,138.07s5.27,3.6,5.63,9.78"/>
            <path class="cls-2" d="M90.41,134.64s8.52-.62,9.3,7.23"/>
            <line class="cls-2" x1="50.66" y1="90.63" x2="50.66" y2="93.21"/>
            <line class="cls-2" x1="55.02" y1="90.63" x2="55.02" y2="93.21"/>
          </g>
        </g>
      </g>
    </g>
  </g>
</svg>
