<?xml version="1.0" encoding="utf-8"?>
<!-- Generator: Adobe Illustrator 22.0.1, SVG Export Plug-In . SVG Version: 6.00 Build 0)  -->
<svg version="1.1" id="Layer_1" xmlns="http://www.w3.org/2000/svg" xmlns:xlink="http://www.w3.org/1999/xlink" x="0px" y="0px"
	 viewBox="0 0 243.5 185.9" style="enable-background:new 0 0 243.5 185.9;" xml:space="preserve">
<style type="text/css">
	.st0{fill:none;}
	.st1{fill:#FFFFFF;stroke:#000000;stroke-width:2.6;stroke-linecap:round;stroke-linejoin:round;stroke-miterlimit:10;}
	.st2{fill:#FFFFFF;stroke:#000000;stroke-width:2.6;stroke-linecap:round;stroke-miterlimit:10;}
</style>
<title>pack_economical</title>
<g>
	<rect x="0" y="0" class="st0" width="243.5" height="185.9"/>
	<g>
		<ellipse cx="115.6" cy="172.9" rx="79.5" ry="8.7"/>
		<g>
			<g>
				<path class="st1" d="M151.9,74.1c-7.2,0-14,2.2-19.8,6c-5.8-3.8-12.6-6-19.8-6c-22,0-39.8,17.5-39.8,48.9s32.1,54.3,46.6,54.3
					c3.2,0,6.3-1,9.2-2.9c2.3-1.5,5.3-1.5,7.6,0c2.9,1.9,6,2.9,9.2,2.9c14.4,0,46.6-22.9,46.6-54.3S173.9,74.1,151.9,74.1z"/>
				<path class="st1" d="M138.5,42.9c-4.5,20.4-6.4,37.2-6.4,37.2S129.4,41.7,81.3,41C102.9,80.3,131.6,82,131.6,82"/>
			</g>
			<path d="M134.8,167.7c3.4,1.4,7.1,1.6,10.5,1.1c1.7-0.3,3.4-0.7,5-1.3c1.6-0.6,3.2-1.4,4.7-2.2c1.5-0.9,3-1.8,4.4-2.9
				c1.4-1,2.8-2.2,4.1-3.3c2.6-2.4,5-5,7.2-7.7c4.3-5.5,7.7-11.7,9.9-18.5c0.6-1.7,1.1-3.4,1.5-5.1c0.4-1.7,0.8-3.5,1.1-5.3
				c0.6-3.6,0.9-7.3,1.1-11.1l0.4-0.1c1.1,7.4,0.8,15.1-1,22.3c-1.8,7.3-5.2,14.2-9.9,20.1c-2.4,2.9-5,5.6-7.9,8
				c-2.9,2.4-6,4.5-9.4,6.2c-3.4,1.6-7.1,2.7-10.9,2.9c-3.8,0.1-7.6-0.6-10.9-2.7L134.8,167.7z"/>
		</g>
		<path class="st1" d="M81.3,41c0,0,34.2,10.2,50.8,41.2"/>
		<g>
			<path class="st2" d="M128.7,131.1c-2.2,8.8-6.6,16.4-12.5,22.5c-6.7-5.4-13.5-10.4-19.9-15.5L128.7,131.1z"/>
			<path class="st2" d="M73.6,143c-4.9,5.2-8.6,12-12,18.8C64.9,155,68.7,148.2,73.6,143l17.5-3.8c-2.8,9.6-4.9,19.3-3.1,29.5
				c-15.2,1.7-30.9-6.3-39.7-20.3L73.6,143z"/>
			<path class="st2" d="M91.1,139.2l5.1-1.1c6.5,5.1,13.2,10,19.9,15.5c-4.1,4.2-8.9,7.7-14.3,10.5c-4.4,2.6-9.1,4.1-13.9,4.6
				C86.1,158.5,88.2,148.8,91.1,139.2z"/>
			<path class="st2" d="M48.3,148.4c8.7,14,24.5,22.1,39.7,20.3c0,0,0,0.1,0,0.1c0,0,0-0.1,0-0.1c4.8-0.5,9.5-2,13.9-4.6
				c5.4-2.8,10.2-6.3,14.3-10.5c0.1,0.1,0.2,0.2,0.3,0.3c-0.1-0.1-0.2-0.2-0.3-0.3c5.9-6.1,10.4-13.6,12.5-22.5l3.4-0.7
				c0,0-1.6,31.9-33.8,44.1c-32.1,12.2-55.8-24.8-55.8-24.8L48.3,148.4z"/>
		</g>
	</g>
</g>
</svg>
