<svg xmlns="http://www.w3.org/2000/svg" width="700.328" height="677.071" viewBox="0 0 700.328 677.071">
  <g id="Group_766" data-name="Group 766" transform="translate(-2139.804 -3529.164)">
    <g id="Group_748" data-name="Group 748" transform="translate(2139.804 3530.477)">
      <g id="Group_747" data-name="Group 747">
        <ellipse id="Ellipse_313" data-name="Ellipse 313" cx="105.832" cy="8.712" rx="105.832" ry="8.712" transform="translate(0 658.333)"/>
        <path id="Path_3615" data-name="Path 3615" d="M2189.445,4108.267c3.879,13.216,8.854,51.117,8.854,51.117h7.749l-.494-11.826" transform="translate(-2136.503 -3492.051)" fill="#fff" stroke="#000" stroke-linecap="round" stroke-linejoin="round" stroke-width="2.6"/>
        <g id="Group_745" data-name="Group 745" transform="translate(63.923 194.533)">
          <path id="Path_3616" data-name="Path 3616" d="M2261.132,3819.432a33,33,0,0,1-3.5.72c-17.782,2.657-36.1-5.758-35.3-23.719,2.569-57.26-10.681-80.191-22.592-83.554l86.443,7.595.041-.161a172.781,172.781,0,0,0-2.686,64.342C2286.017,3801.241,2276.987,3815.263,2261.132,3819.432Z" transform="translate(-2199.741 -3712.879)" stroke="#000" stroke-linecap="round" stroke-linejoin="round" stroke-width="2.6"/>
        </g>
        <path id="Path_3617" data-name="Path 3617" d="M2281.749,3807.656a15.322,15.322,0,0,1,2.186-2.92,24.406,24.406,0,0,1,2.424-2.311,28.407,28.407,0,0,1,5.189-3.446c3.641-1.722,7.337-3.223,10.965-4.785s7.232-3.065,10.727-4.623a95.2,95.2,0,0,0,9.914-4.979,30.6,30.6,0,0,0,7.332-5.743,8.117,8.117,0,0,0,1.5-2.361,1.425,1.425,0,0,0,.117-.606l-.033-1.406a59.957,59.957,0,0,0-1.394-10.456,78.167,78.167,0,0,0-3.2-10.536,82.767,82.767,0,0,0-10.583-19.332,56.974,56.974,0,0,0-14.9-14.172c-5.5-3.366-11.151-5.156-16.571-5.017a31.17,31.17,0,0,0-16.059,5.08,17.4,17.4,0,1,1-15.449-31.04l.72-.274a76.585,76.585,0,0,1,16.085-4.407,60.128,60.128,0,0,1,8.572-.73,56.738,56.738,0,0,1,8.663.449,60.755,60.755,0,0,1,16.458,4.546,65.411,65.411,0,0,1,13.974,8.345,86.548,86.548,0,0,1,20.133,22.425,110.529,110.529,0,0,1,12.189,26.053,104.557,104.557,0,0,1,3.487,14.007,83.267,83.267,0,0,1,1.323,14.827l-.04,1.933a25.926,25.926,0,0,1-1.774,8.549,28.635,28.635,0,0,1-2.266,4.676,38.781,38.781,0,0,1-2.631,3.91,65.956,65.956,0,0,1-11.456,11.314,107.125,107.125,0,0,1-24.119,14.494c-8.434,3.29-16.441,7.588-27.075,3.913a9.633,9.633,0,0,1-5.955-12.25,9.744,9.744,0,0,1,.594-1.368Z" transform="translate(-2132.951 -3520.295)"/>
        <path id="Path_3618" data-name="Path 3618" d="M2253.9,4108.267c3.879,13.216,8.854,51.117,8.854,51.117h7.749l-1-24.021" transform="translate(-2132.216 -3492.051)" fill="#fff" stroke="#000" stroke-linecap="round" stroke-linejoin="round" stroke-width="2.6"/>
        <path id="Path_3619" data-name="Path 3619" d="M2257.971,4084.713a36.039,36.039,0,0,0-4.066,25.121c2.916,14.469,33.089,53.618,51.583,53.618h13.445a6.115,6.115,0,0,0,5.7-4c2.707-6.953-2.964-20.349-14.562-20.956-7.5-18.448-18.052-28.662-24.626-41.585" transform="translate(-2132.263 -3493.617)" fill="#fff" stroke="#000" stroke-linecap="round" stroke-linejoin="round" stroke-width="2.6"/>
        <path id="Path_3620" data-name="Path 3620" d="M2221.331,3843.441l32.338,123s-25.092,50.519,11.608,127.183c-15.218,16.113,1.567,30.39,1.567,30.39s44.991,43.981,37.46,15.5a95.825,95.825,0,0,1-14.235-40.521c-8.9-74.882,6.591-197.482,6.591-197.482Z" transform="translate(-2134.382 -3509.663)" fill="#fff" stroke="#000" stroke-linecap="round" stroke-linejoin="round" stroke-width="2.6"/>
        <path id="Path_3621" data-name="Path 3621" d="M2194.576,4084.713a33.4,33.4,0,0,0-4.6,25.121c3.157,14.469,18.219,53.618,38.645,53.618h14.851a6.8,6.8,0,0,0,6.31-4c3.02-6.953-.17-15.729-7.916-20.956-4.123-14.4-15.092-29.746-17-41.585" transform="translate(-2136.518 -3493.617)" fill="#fff" stroke="#000" stroke-linecap="round" stroke-linejoin="round" stroke-width="2.6"/>
        <path id="Path_3622" data-name="Path 3622" d="M2189.288,3901.5l8.464,64.932s-26.314,41.907,1.345,123.564c-9.7,17.58-.831,26.19,1.613,31.091,6.954,13.952,33.362,39.936,29.154,17.588-15.171-80.55,27.841-295.239,27.841-295.239Z" transform="translate(-2136.702 -3509.663)" fill="#fff" stroke="#000" stroke-linecap="round" stroke-linejoin="round" stroke-width="2.6"/>
        <path id="Path_3623" data-name="Path 3623" d="M2223.644,3780.338S2164.207,3818.9,2189.5,3905.7h109.692s10.758-61.618-13.354-118.125C2249.068,3796.022,2223.644,3780.338,2223.644,3780.338Z" transform="translate(-2136.916 -3513.859)" fill="#fff" stroke="#000" stroke-miterlimit="10" stroke-width="2.6"/>
        <path id="Path_3624" data-name="Path 3624" d="M2240.1,4135.217s-14.436-3.943-24.393,2.421" transform="translate(-2134.756 -3490.339)" fill="#fff" stroke="#000" stroke-linecap="round" stroke-linejoin="round" stroke-width="2.6"/>
        <ellipse id="Ellipse_314" data-name="Ellipse 314" cx="47.348" cy="31.732" rx="47.348" ry="31.732" transform="translate(72.309 165.18) rotate(-3.174)" stroke="#000" stroke-linecap="round" stroke-linejoin="round" stroke-width="2.6"/>
        <path id="Path_3625" data-name="Path 3625" d="M2307.188,4135.142c-8.209.7-10.69,2.421-10.69,2.421" transform="translate(-2129.383 -3490.263)" fill="#fff" stroke="#000" stroke-linecap="round" stroke-linejoin="round" stroke-width="2.6"/>
        <path id="Path_3626" data-name="Path 3626" d="M2242.277,3696.811c.048.072-.113.2-.194.3l-.329.315c-.224.211-.457.44-.7.643-.474.421-.962.832-1.448,1.238-.973.818-1.958,1.589-2.929,2.361-1.95,1.536-3.886,2.985-5.794,4.406l-5.661,4.177c-1.875,1.358-3.726,2.725-5.46,4.22a70.326,70.326,0,0,0-16.979,21.017,73.984,73.984,0,0,0-8,27.071,102.047,102.047,0,0,0,1.666,30.105,25.155,25.155,0,0,0,.712,3.11,11.94,11.94,0,0,0,.774,2.024c.22.444.421.579.143.217a3.879,3.879,0,0,0-.876-.743,5.492,5.492,0,0,0-1.65-.71,5.555,5.555,0,0,0-2.057-.129c-.094,0,.287-.17.8-.542a25.959,25.959,0,0,0,4.011-3.654,84.874,84.874,0,0,0,8.521-11.464c1.348-2.119,2.656-4.307,3.919-6.54,1.246-2.244,2.447-4.535,3.614-6.853,2.321-4.645,4.528-9.391,6.523-14.24s3.843-9.77,5.538-14.736a210.563,210.563,0,0,0,7.861-30.247,17.373,17.373,0,0,1,34.233,5.955,17.63,17.63,0,0,1-.716,2.762l-.1.266c-3.983,11.181-8.345,22.018-13.3,32.561q-3.664,7.926-7.758,15.636c-2.738,5.14-5.56,10.242-8.625,15.25-1.531,2.505-3.107,4.994-4.755,7.458-1.626,2.478-3.312,4.939-5.092,7.375a108.436,108.436,0,0,1-12.253,14.327,50.491,50.491,0,0,1-8.749,6.874,28.31,28.31,0,0,1-6.679,2.977,21.816,21.816,0,0,1-4.645.824,18.962,18.962,0,0,1-5.592-.458,18.465,18.465,0,0,1-5.474-2.259,19.47,19.47,0,0,1-4.066-3.369,24.172,24.172,0,0,1-4.316-6.728,36.126,36.126,0,0,1-1.95-5.8c-.455-1.776-.774-3.659-.99-5a178.359,178.359,0,0,1-2.634-35.905c.154-3.075.366-6.159.754-9.257.349-3.1.856-6.2,1.509-9.3a90.664,90.664,0,0,1,5.873-18.288,80.212,80.212,0,0,1,23.848-30.542,83.389,83.389,0,0,1,7.948-5.517,51.383,51.383,0,0,1,8.669-4.149,46.875,46.875,0,0,1,9.3-2.443,40.966,40.966,0,0,1,4.864-.454c.829-.022,1.656-.028,2.51.012.425.01.856.051,1.3.086l.675.056c.254.014.429.062.813.059a8,8,0,1,1,3.389,15.635Z" transform="translate(-2137.747 -3520.469)"/>
        <path id="Path_3627" data-name="Path 3627" d="M2234.135,3688.947l17.886-45.629,20.241.354-3.528,47.321s-4.023,26.115-15.758,26.221C2220.665,3717.5,2234.135,3688.947,2234.135,3688.947Z" transform="translate(-2133.716 -3522.972)" fill="#fff" stroke="#000" stroke-miterlimit="10" stroke-width="2.6"/>
        <ellipse id="Ellipse_315" data-name="Ellipse 315" cx="51.462" cy="35.203" rx="51.462" ry="35.203" transform="translate(75.054 72.282) rotate(-3.249)" fill="#fff" stroke="#000" stroke-miterlimit="10" stroke-width="2.6"/>
        <path id="Path_3628" data-name="Path 3628" d="M2302.486,3628.508c-1.011,10.755-10.748,18.634-20.062,17.758s-14.909-10.2-13.9-20.95,8.244-18.869,17.559-17.993S2303.5,3617.754,2302.486,3628.508Z" transform="translate(-2131.251 -3525.37)" fill="#fff" stroke="#000" stroke-miterlimit="10" stroke-width="2.6"/>
        <path id="Path_3629" data-name="Path 3629" d="M2274.9,3625.914c-1.012,10.755-10.748,18.634-20.063,17.758s-14.909-10.2-13.9-20.95,8.244-18.87,17.559-17.993S2275.908,3615.16,2274.9,3625.914Z" transform="translate(-2133.086 -3525.542)" fill="#fff" stroke="#000" stroke-miterlimit="10" stroke-width="2.6"/>
        <path id="Path_3630" data-name="Path 3630" d="M2266.831,3599.971s11.949-45.472,28.223-68.412c1.088-1.534,3.27-1.271,3.253.61l.125,80.734" transform="translate(-2131.356 -3530.47)" fill="#fff" stroke="#000" stroke-linecap="round" stroke-miterlimit="10" stroke-width="2.6"/>
        <path id="Path_3631" data-name="Path 3631" d="M2220.788,3620.894c3.082-7.479,3.413-41.592,34.011-89.4,1.013-1.583,3.269-1.27,3.253.61l.08,72.775" transform="translate(-2134.418 -3530.476)" fill="#fff" stroke="#000" stroke-linecap="round" stroke-miterlimit="10" stroke-width="2.6"/>
        <path id="Path_3632" data-name="Path 3632" d="M2273.66,3640.727c-.1,2.038-4.5,5.6-5.59,5.548s-5.125-4.025-5.025-6.063,2.505-2.53,5.436-2.388S2273.759,3638.689,2273.66,3640.727Z" transform="translate(-2131.608 -3523.339)" stroke="#000" stroke-linecap="round" stroke-linejoin="round" stroke-width="2.6"/>
        <path id="Path_3633" data-name="Path 3633" d="M2264.729,3619.463a23.082,23.082,0,0,1,.662,7.415,23.851,23.851,0,0,1-3.417,10.123,23.85,23.85,0,0,1-1.683-10.551,23.225,23.225,0,0,1,1.989-7.433" transform="translate(-2131.796 -3524.588)" stroke="#000" stroke-linecap="round" stroke-miterlimit="10" stroke-width="2.6"/>
        <path id="Path_3634" data-name="Path 3634" d="M2293.536,3629.477a23.853,23.853,0,0,1-3.417,10.123,22.3,22.3,0,0,1,1.733-20.672A23.854,23.854,0,0,1,2293.536,3629.477Z" transform="translate(-2129.924 -3524.594)" stroke="#000" stroke-linecap="round" stroke-miterlimit="10" stroke-width="2.6"/>
        <path id="Path_3635" data-name="Path 3635" d="M2256.17,3596.192c9.535-1.183,18.638-.5,31.369,3.69" transform="translate(-2132.065 -3526.141)" fill="none" stroke="#000" stroke-linecap="round" stroke-miterlimit="10" stroke-width="2.6"/>
        <g id="Group_746" data-name="Group 746" transform="translate(106.309 127.572)">
          <path id="Path_3636" data-name="Path 3636" d="M2246.3,3685.48s3.864-16.762,1.63-26.975,9.986-6.862,11.058,15.159" transform="translate(-2239.031 -3649.901)" fill="#fff" stroke="#000" stroke-linecap="round" stroke-linejoin="round" stroke-width="2.6"/>
          <path id="Path_3637" data-name="Path 3637" d="M2283.594,3698.873a45.347,45.347,0,0,1-7.61,11.981c-8.964,10.209-29.146,13.519-35.015,3.875-5.005-8.226,1-40.428,43.711-61.181,17.193-8.355,21.819.117,4.948,7.789-7.9,3.592-11.758,11.3-11.758,11.3" transform="translate(-2239.484 -3650.094)" fill="#fff" stroke="#000" stroke-linecap="round" stroke-linejoin="round" stroke-width="2.6"/>
          <path id="Path_3638" data-name="Path 3638" d="M2268.1,3670.953s12.4-5.292,19.412,3.721-.215,15.8-.215,15.8" transform="translate(-2237.581 -3648.809)" fill="#fff" stroke="#000" stroke-linecap="round" stroke-linejoin="round" stroke-width="2.6"/>
          <path id="Path_3639" data-name="Path 3639" d="M2276.263,3697.517s11.849,6.068,12.317-4.177-9.59-20.431-18.695-13.687" transform="translate(-2237.462 -3648.272)" fill="#fff" stroke="#000" stroke-linecap="round" stroke-linejoin="round" stroke-width="2.6"/>
          <path id="Path_3640" data-name="Path 3640" d="M2273.772,3690.089s8.358-3.843,11.5,6.418c3.28,10.712-6.428,13.082-7.136,8.3-.971-6.562-4.653-2.816-4.653-2.816" transform="translate(-2237.223 -3647.48)" fill="#fff" stroke="#000" stroke-linecap="round" stroke-linejoin="round" stroke-width="2.6"/>
        </g>
      </g>
      <path id="Path_3641" data-name="Path 3641" d="M2193.29,3893.322a90.5,90.5,0,0,1-4.121-20.167c-.362-3.419-.5-6.857-.555-10.294l.045-5.159.325-5.147c.076-1.721.391-3.417.59-5.124.233-1.7.408-3.416.782-5.1l.985-5.062c.363-1.679.85-3.33,1.269-5,.773-3.353,1.991-6.574,3.052-9.838.492-1.649,1.242-3.2,1.87-4.8l1.962-4.762.389.175-.461,2.591-.536,2.537c-.334,1.693-.866,3.3-1.093,5.009l-1.008,4.98c-.382,1.638-.647,3.3-.921,4.957l-.416,2.477c-.135.824-.365,1.627-.454,2.459l-.675,4.953c-.278,1.638-.443,3.291-.62,4.942-.158,1.652-.421,3.292-.466,4.953l-.423,4.958c-.07,1.657-.071,3.316-.186,4.977-.163,3.321-.118,6.647-.117,9.994.1,6.693.457,13.417,1.183,20.333Z" transform="translate(-2136.558 -3511.695)"/>
      <path id="Path_3642" data-name="Path 3642" d="M2253.579,3650.123s10.889-2.779,14.132,4.88" transform="translate(-2132.238 -3522.552)" fill="#fff" stroke="#000" stroke-linecap="round" stroke-linejoin="round" stroke-width="2.6"/>
      <path id="Path_3643" data-name="Path 3643" d="M2240.819,3618.985s20.7-3.915,34.158,4.325" transform="translate(-2133.086 -3524.652)" fill="none" stroke="#000" stroke-miterlimit="10" stroke-width="2.6"/>
      <path id="Path_3644" data-name="Path 3644" d="M2210.471,3804.776c4.589-7.417,9.466-14.562,14.394-21.656,2.418-3.581,4.974-7.055,7.412-10.612,2.5-3.512,5.007-7.012,7.455-10.552,2.528-3.483,4.974-7.019,7.424-10.544,2.5-3.5,4.854-7.078,7.265-10.619,2.343-3.579,4.688-7.162,6.741-10.877a44.448,44.448,0,0,0,2.771-5.684,14.36,14.36,0,0,0,.86-2.971,4.024,4.024,0,0,0-.376-2.929l-.015-.023a.159.159,0,0,1,.254-.19,4.489,4.489,0,0,1,.875,3.168,14.717,14.717,0,0,1-.546,3.231,41.169,41.169,0,0,1-2.287,6.1,122.633,122.633,0,0,1-6.118,11.465c-4.433,7.444-9.268,14.634-14.237,21.721-10.056,14.094-20.661,27.783-31.623,41.177a.16.16,0,0,1-.259-.186Z" transform="translate(-2135.107 -3518.001)" fill="#fff"/>
      <path id="Path_3645" data-name="Path 3645" d="M2287.17,3789.944c-24.309.967-32.19,8.535-28.158,13.991-6.4,2.388-5.058,11.1-.817,12.077-1.794,5.945,3,8.5,5.762,8.09-.331,6.277,33.369,5.6,43.1-13.153s-19.121-28.54-19.121-28.54" transform="translate(-2132.169 -3513.722)" fill="#fff" stroke="#000" stroke-miterlimit="10" stroke-width="2.6"/>
      <path id="Path_3646" data-name="Path 3646" d="M2294.51,3786.737s-16.985-15-18.723-14.2-3.848,10.459,10.059,18.061" transform="translate(-2130.844 -3514.38)" fill="#fff" stroke="#000" stroke-miterlimit="10" stroke-width="2.6"/>
      <path id="Path_3647" data-name="Path 3647" d="M2214.918,3867.594l-.606-176.877a2.042,2.042,0,0,0-3.859-.93c-10.977,21.512-41.792,89.675-42.289,177.807" transform="translate(-2137.918 -3519.956)" fill="none" stroke="#000" stroke-miterlimit="10" stroke-width="2.6"/>
      <rect id="Rectangle_218" data-name="Rectangle 218" width="84.002" height="64.792" rx="21.127" transform="translate(18.492 347.638)" fill="#fff" stroke="#000" stroke-miterlimit="10" stroke-width="2.6"/>
      <rect id="Rectangle_219" data-name="Rectangle 219" width="84.002" height="64.792" rx="21.127" transform="translate(9.148 347.638)" fill="#fff" stroke="#000" stroke-miterlimit="10" stroke-width="2.6"/>
      <path id="Path_3648" data-name="Path 3648" d="M2149.155,3871.9s39.367,53.044,82.353,0h9.345" transform="translate(-2139.182 -3507.77)" fill="none" stroke="#000" stroke-miterlimit="10" stroke-width="2.6"/>
      <rect id="Rectangle_220" data-name="Rectangle 220" width="8.024" height="13.309" rx="3.762" transform="translate(48.028 381.102)" fill="#fff" stroke="#000" stroke-miterlimit="10" stroke-width="2.6"/>
      <path id="Path_3649" data-name="Path 3649" d="M2258.738,3802.823s7.826,5.389,25.856-3.7" transform="translate(-2131.894 -3512.61)" fill="#fff" stroke="#000" stroke-miterlimit="10" stroke-width="2.6"/>
      <path id="Path_3650" data-name="Path 3650" d="M2257.972,3814.219s19-.241,29-4.848" transform="translate(-2131.946 -3511.929)" fill="#fff" stroke="#000" stroke-miterlimit="10" stroke-width="2.6"/>
      <path id="Path_3651" data-name="Path 3651" d="M2263.375,3821.81s11.888-.655,22.146-4.924" transform="translate(-2131.586 -3511.429)" fill="#fff" stroke="#000" stroke-miterlimit="10" stroke-width="2.6"/>
    </g>
    <g id="Group_765" data-name="Group 765" transform="translate(2377.193 3561.7)">
      <path id="Path_3652" data-name="Path 3652" d="M2409.831,3733.924l20.72-41.67,34.712,5.828-15.542,117.453-13.927-27.129-.224-10.691-14.3,24.086" transform="translate(-2359.235 -3550.941)" fill="#fff"/>
      <line id="Line_245" data-name="Line 245" y1="41.67" x2="20.72" transform="translate(50.596 141.312)" fill="#fff" stroke="#000" stroke-miterlimit="10" stroke-width="2.6"/>
      <path id="Path_3653" data-name="Path 3653" d="M2690.955,3674.069l56.919-14.268s4.608-.832,8.223,8.453" transform="translate(-2340.539 -3553.101)" fill="#fff" stroke="#000" stroke-miterlimit="10" stroke-width="2.6"/>
      <path id="Path_3654" data-name="Path 3654" d="M2373.838,3670.183s-7.656-10.957-7.919-23.764-.872-19.524,3.183-20.378a8.819,8.819,0,0,1,4.065-.016s-1.117-27.148,1.621-32.272,9.208-1.732,9.356,1.461c2.6-10.475,12.608-5.575,12.07-1.445,4.648-6.988,13.454-1.681,12.528,5.286-.718,5.4-3.892,31.384-6.562,43.528" transform="translate(-2362.168 -3557.812)" fill="#fff" stroke="#000" stroke-miterlimit="10" stroke-width="2.6"/>
      <path id="Path_3655" data-name="Path 3655" d="M2528.285,4113.361l-56.761-10.856V3885.633h56.761Z" transform="translate(-2355.132 -3538.081)" stroke="#000" stroke-linecap="round" stroke-linejoin="round" stroke-width="2.6"/>
      <path id="Path_3656" data-name="Path 3656" d="M2411.608,4067.137c11.63,23.4,30.5,21.186,30.5,21.186l-2.2-57.894Z" transform="translate(-2359.117 -3528.451)" stroke="#000" stroke-miterlimit="10" stroke-width="2.6"/>
      <path id="Path_3657" data-name="Path 3657" d="M2611.853,3686.982l-11.784-30.7-37.244,20.421a104.315,104.315,0,0,0,10.894-46.3c-42.447,3.684-49.508,5.838-49.508,5.838l-29.156,71.847,116.8-21.109" transform="translate(-2353.567 -3555.055)" fill="#fff" stroke="#000" stroke-miterlimit="10" stroke-width="2.6"/>
      <path id="Path_3658" data-name="Path 3658" d="M2499.581,3686.159l-33.934-46.849-31.031-2.361,13.875,45.7-21.488-1.1s5.386,28.079,19.5,137.272C2446.5,3699.071,2499.581,3686.159,2499.581,3686.159Z" transform="translate(-2358.093 -3554.62)" fill="#fff" stroke="#000" stroke-miterlimit="10" stroke-width="2.6"/>
      <path id="Path_3659" data-name="Path 3659" d="M2527.978,3684.136h37.856l47.277.388,142.089-16.9c23.446-2.789,43.636,16.935,40.943,40.392-.025.217-.051.42-.077.613-1.277,9.242,7.021,61.123,7.66,79.225s-21.283,92.68-17.663,115.074-11.918,120.692,0,151.969,0,74.681,0,74.681-7.87-7.659-67.87-7.659-82.55,15.673-118.724,15.673-50.758-3.882-50.758-3.882l-72.577-425.081Z" transform="translate(-2354.825 -3552.597)" fill="#fff" stroke="#000" stroke-linecap="round" stroke-linejoin="round" stroke-width="2.6"/>
      <g id="Group_749" data-name="Group 749" transform="translate(404.493 354.368)">
        <path id="Path_3660" data-name="Path 3660" d="M2758.054,3894.565c-7.267-7.57-21.634,3.312-14.424,12.482,6.831,8.689,10.087,23,8.6,33.841s16.219,15.74,18.568,5.585C2775.042,3928.14,2771.4,3908.466,2758.054,3894.565Z" transform="translate(-2741.66 -3892.023)" fill="#fff" stroke="#000" stroke-linecap="round" stroke-linejoin="round" stroke-width="2.6"/>
      </g>
      <g id="Group_750" data-name="Group 750" transform="translate(407.782 414.433)">
        <path id="Path_3661" data-name="Path 3661" d="M2768.734,3953.235c-5.054-9.782-22.8-3.689-18.148,7.681,4.413,10.772,2.147,24.6-4.264,34.262s8.321,21.6,15.288,12.9C2774.193,3992.363,2778.012,3971.2,2768.734,3953.235Z" transform="translate(-2744.744 -3948.343)" fill="#fff" stroke="#000" stroke-linecap="round" stroke-linejoin="round" stroke-width="2.6"/>
      </g>
      <path id="Path_3662" data-name="Path 3662" d="M2732.061,3885.051c12.031-5.32,21.195,11.947,9.143,17.275-11.418,5.049-17.966,18.427-13.094,29.643,4.97,11.437-13.551,20.027-18.554,8.513C2700.524,3919.69,2709.969,3894.817,2732.061,3885.051Z" transform="translate(-2339.528 -3538.187)" fill="#fff" stroke="#000" stroke-linecap="round" stroke-linejoin="round" stroke-width="2.6"/>
      <g id="Group_751" data-name="Group 751" transform="translate(364.515 406.116)">
        <path id="Path_3663" data-name="Path 3663" d="M2717.417,3943.82c8.2-9.125,22.554,2.644,14.733,12.955-7.411,9.771-10.141,23.775-4.362,34.7s-8.952,22.047-15.814,11.64C2699.585,3984.323,2702.362,3960.578,2717.417,3943.82Z" transform="translate(-2704.174 -3940.544)" fill="#fff" stroke="#000" stroke-linecap="round" stroke-linejoin="round" stroke-width="2.6"/>
      </g>
      <g id="Group_752" data-name="Group 752" transform="translate(372.092 471.224)">
        <path id="Path_3664" data-name="Path 3664" d="M2717.555,4006.15c5.072-10.106,21.849-1.9,17.251,9.943-4.357,11.216-3.776,27.658.492,39.1s-11.622,21.295-16.552,10.819C2709.843,4047.094,2708.241,4024.708,2717.555,4006.15Z" transform="translate(-2711.279 -4001.593)" fill="#fff" stroke="#000" stroke-linecap="round" stroke-linejoin="round" stroke-width="2.6"/>
      </g>
      <g id="Group_753" data-name="Group 753" transform="translate(363.758 534.385)">
        <path id="Path_3665" data-name="Path 3665" d="M2712.434,4064.62c7.9-9.585,22.547.691,15.656,11.478-6.529,10.22-4.815,23.792,3.282,32.979s-3.976,22.856-13.086,14.187C2701.835,4107.609,2697.927,4082.223,2712.434,4064.62Z" transform="translate(-2703.465 -4060.815)" fill="#fff" stroke="#000" stroke-linecap="round" stroke-linejoin="round" stroke-width="2.6"/>
      </g>
      <g id="Group_754" data-name="Group 754" transform="translate(230.37 191.747)">
        <path id="Path_3666" data-name="Path 3666" d="M2601.361,3778.855s1.8-16.088,1.5-21.349-8.2-2.468-9.261-9.076,8.48-14.3,13.84-3.5c0,0,11.11-6.283,10.564,2.905s-7.936,3.113-7.407,14.177,1.164,15.277,1.164,15.277" transform="translate(-2577.389 -3739.543)" fill="#fff" stroke="#000" stroke-miterlimit="10" stroke-width="2.6"/>
        <path id="Path_3667" data-name="Path 3667" d="M2602.222,3775.992c-1.265,4.979-6.44,18.42-11.639,25.688-4.583,6.407-12.926,13.261-12.135,27.282,2.025,35.912,37.552,38.94,45.568,25.643,15.517-25.741-.874-48.831-6.59-63.01-6.175-15.319-4.285-17.406-5.341-16.51-3.215.53-7.361,2.091-8.41.681A.843.843,0,0,0,2602.222,3775.992Z" transform="translate(-2578.395 -3737.191)" fill="#fff" stroke="#000" stroke-linecap="round" stroke-linejoin="round" stroke-width="2.6"/>
      </g>
      <g id="Group_757" data-name="Group 757" transform="translate(42.453 235.255)">
        <path id="Path_3668" data-name="Path 3668" d="M2507.652,4137.934h56.956l12.226-142.789a124.823,124.823,0,0,0-3.139-40.383l-40.115-163.539h-77.212l62.141,188.417Z" transform="translate(-2398.593 -3779.614)" fill="#fff" stroke="#000" stroke-linecap="round" stroke-linejoin="round" stroke-width="2.6"/>
        <ellipse id="Ellipse_316" data-name="Ellipse 316" cx="137.814" cy="8.712" rx="137.814" ry="8.712" transform="translate(0 391.85)"/>
        <g id="Group_755" data-name="Group 755" transform="translate(14.049 364.919)">
          <rect id="Rectangle_221" data-name="Rectangle 221" width="50.191" height="10.696" rx="5.015" transform="translate(34.794)" fill="#fff" stroke="#000" stroke-miterlimit="10" stroke-width="2.6"/>
          <path id="Path_3669" data-name="Path 3669" d="M2478.184,4133.079h-6.641c-14.614,0-23.38-15.5-43.557-5.347-15.642,7.873-21.146,32.249,9.718,32.249,44.976,0,45.1.194,53.517.194s17.688-10.454-1.74-27.1Z" transform="translate(-2415.368 -4122.383)" fill="#fff" stroke="#000" stroke-miterlimit="10" stroke-width="2.6"/>
        </g>
        <g id="Group_756" data-name="Group 756" transform="translate(121.277 364.919)">
          <rect id="Rectangle_222" data-name="Rectangle 222" width="41.662" height="10.696" rx="4.569" transform="translate(42.177 10.696) rotate(-180)" fill="#fff" stroke="#000" stroke-miterlimit="10" stroke-width="2.6"/>
          <path id="Path_3670" data-name="Path 3670" d="M2554.756,4132.98h.665c12.13,0,26.916-11.629,47.011-5.347,14.493,4.529,18.783,32.249-6.837,32.249-37.332,0-64.6.194-71.588.194s-14.682-10.454,1.444-27.1Z" transform="translate(-2515.911 -4122.285)" fill="#fff" stroke="#000" stroke-miterlimit="10" stroke-width="2.6"/>
        </g>
        <path id="Path_3671" data-name="Path 3671" d="M2459.68,3780.338l-27.628,189.169,10.856,169.151h56.956l-7.736-167.236,18.078-77.794" transform="translate(-2400.21 -3780.338)" fill="#fff" stroke="#000" stroke-linecap="round" stroke-linejoin="round" stroke-width="2.6"/>
      </g>
      <path id="Path_3672" data-name="Path 3672" d="M2450.37,3805.482s7.473,161.7,16.535,275.11c0,0-49.8-4.58-52.04,10.74-27.577-75.32,27.469-188.183,27.15-219.037s-3.683-93.934-3.683-93.934-15.165,42.97-35.59,40.843S2356.351,3677.6,2364.01,3670s40,0,40,0l10.857,79.507" transform="translate(-2362.374 -3552.646)" fill="#fff" stroke="#000" stroke-miterlimit="10" stroke-width="2.6"/>
      <g id="Group_758" data-name="Group 758" transform="translate(34.046 198.904)">
        <path id="Path_3673" data-name="Path 3673" d="M2394.313,3798.96s12.281,36.963,45.771-52" transform="translate(-2394.313 -3746.207)" fill="#fff"/>
        <path id="Path_3674" data-name="Path 3674" d="M2394.313,3799.007a15.423,15.423,0,0,0,2.7,4.481,7.9,7.9,0,0,0,4.287,2.685,7.673,7.673,0,0,0,4.9-.821l1.121-.615,1.045-.752a7.464,7.464,0,0,0,1-.806l.965-.859a46.446,46.446,0,0,0,6.468-8.144c1.932-2.9,3.6-5.982,5.241-9.069,3.226-6.21,6.026-12.646,8.664-19.14,2.66-6.487,5.024-13.1,7.376-19.712l3.993,1.5c-2.706,6.539-5.42,13.072-8.434,19.484-2.994,6.416-6.146,12.769-9.733,18.9-1.819,3.048-3.67,6.081-5.792,8.946a47.663,47.663,0,0,1-7.069,8.024l-1.052.846a8.059,8.059,0,0,1-1.095.793l-1.139.734-1.228.6a7.591,7.591,0,0,1-9.727-2.417A15.55,15.55,0,0,1,2394.313,3799.007Z" transform="translate(-2394.313 -3746.254)"/>
      </g>
      <path id="Path_3675" data-name="Path 3675" d="M2755.106,3669.942c36.949-10.72,58.119,41.456,30.394,55.664-26.377,13.517-28.234,4.857-24.895-3.865-8.5,1.7-13.122-9.718-4.217-14.856-6.144-2.248-9.97-9.693.752-12.656-16.252-14.061,7.874-11.3,21.3-17.093" transform="translate(-2336.586 -3552.521)" fill="#fff" stroke="#000" stroke-miterlimit="10" stroke-width="2.6"/>
      <path id="Path_3676" data-name="Path 3676" d="M2550.469,3705.667a130.676,130.676,0,0,0-4.111-13.246c-.053-.141-.113-.278-.166-.418-15.89.029-31.78-.352-47.669-.87-4.255,1.668-8.388,2.78-11.134,2.307a7.685,7.685,0,0,1-4.506-2.852q-11.712-.426-23.424-.849a32.406,32.406,0,0,0-4.015,3.957,31.908,31.908,0,0,0-5.98,10.741C2482.862,3712.28,2516.921,3708.971,2550.469,3705.667Z" transform="translate(-2356.599 -3551.109)" stroke="#000" stroke-linecap="round" stroke-linejoin="round" stroke-width="2.6"/>
      <path id="Path_3677" data-name="Path 3677" d="M2555.029,3727.772q-.3-2.252-.635-4.5c-.8-5.308-1.777-10.561-3-15.713-.224-.943-.467-1.878-.707-2.813-33.548,3.3-67.608,6.613-101-1.231-.116.354-.235.708-.338,1.068a31.449,31.449,0,0,0-1.232,8.688q-1.112,5.745-1.942,11.528C2482.18,3731.819,2518.913,3732.428,2555.029,3727.772Z" transform="translate(-2356.818 -3550.192)" fill="#fff" stroke="#000" stroke-linecap="round" stroke-linejoin="round" stroke-width="2.6"/>
      <path id="Path_3678" data-name="Path 3678" d="M2555.924,3747.311c.163-2.258.325-4.49.488-6.68.047-.618.092-1.252.139-1.863-.388-4.118-.842-8.232-1.386-12.323-36.116,4.656-72.848,4.047-108.856-2.969l0,.029c-.615,4.234-1.1,8.484-1.494,12.74-.305,3.266-.518,6.537-.689,9.811C2480.67,3751.361,2518.812,3752.212,2555.924,3747.311Z" transform="translate(-2356.955 -3548.865)" stroke="#000" stroke-linecap="round" stroke-linejoin="round" stroke-width="2.6"/>
      <path id="Path_3679" data-name="Path 3679" d="M2554.425,3767.82c.307-4.454.609-8.859.909-13.174q.307-4.433.615-8.743c-37.113,4.9-75.254,4.05-111.8-1.255-.09,1.7-.186,3.4-.244,5.1q-.261,7.659-.044,15.331C2479.387,3776.311,2517.489,3774.545,2554.425,3767.82Z" transform="translate(-2356.979 -3547.457)" fill="#fff" stroke="#000" stroke-linecap="round" stroke-linejoin="round" stroke-width="2.6"/>
      <path id="Path_3680" data-name="Path 3680" d="M2553.135,3784.5c.05-.675.109-1.354.158-2.03.385-5.276.752-10.523,1.109-15.7l.016-.226c-36.936,6.725-75.037,8.491-110.568-2.737.021.759.034,1.519.062,2.278q.272,7.629,1.014,15.244c.017.176.034.358.051.534.155,1.571.309,3.18.463,4.808C2480.245,3797.135,2518.1,3794.945,2553.135,3784.5Z" transform="translate(-2356.972 -3546.183)" stroke="#000" stroke-linecap="round" stroke-linejoin="round" stroke-width="2.6"/>
      <path id="Path_3681" data-name="Path 3681" d="M2551.126,3806.993q.348-3.918.678-7.854c.438-5.307.84-10.63,1.232-15.932-35.038,10.448-72.89,12.638-107.694,2.177q.365,3.87.721,7.9c.431,4.9.836,9.942,1.206,15.012a200.724,200.724,0,0,0,54.537,7.831C2518.884,3816.984,2534.758,3811.812,2551.126,3806.993Z" transform="translate(-2356.874 -3544.893)" fill="#fff" stroke="#000" stroke-linecap="round" stroke-linejoin="round" stroke-width="2.6"/>
      <path id="Path_3682" data-name="Path 3682" d="M2548.915,3826.482c.168-1.493.336-2.986.5-4.5.545-5.142,1.051-10.372,1.522-15.649.025-.274.048-.551.073-.825-16.369,4.819-32.242,9.991-49.321,9.137a200.724,200.724,0,0,1-54.537-7.831c.03.4.062.79.091,1.187.362,5.05.678,10.116.935,15.09.071,1.4.132,2.777.193,4.156C2480.236,3836.128,2516.892,3837.907,2548.915,3826.482Z" transform="translate(-2356.753 -3543.409)" stroke="#000" stroke-linecap="round" stroke-linejoin="round" stroke-width="2.6"/>
      <path id="Path_3683" data-name="Path 3683" d="M2448.291,3825.941c.1,2.325.2,4.633.266,6.889.114,3.72.18,7.331.186,10.774.024,16.792,86.194,13.935,97.593,1.052.572-3.844,1.1-7.8,1.606-11.832.313-2.517.609-5.075.9-7.651C2516.816,3836.6,2480.16,3834.82,2448.291,3825.941Z" transform="translate(-2356.677 -3542.102)" fill="#fff" stroke="#000" stroke-linecap="round" stroke-linejoin="round" stroke-width="2.6"/>
      <path id="Path_3684" data-name="Path 3684" d="M2479.972,3687.36a24.525,24.525,0,0,1-1.543-4.341,30.69,30.69,0,0,0-17.006,5.211,31.159,31.159,0,0,0-2.586,1.955q11.712.408,23.424.849A16.805,16.805,0,0,1,2479.972,3687.36Z" transform="translate(-2355.976 -3551.555)" fill="#fff" stroke="#000" stroke-linecap="round" stroke-linejoin="round" stroke-width="2.6"/>
      <path id="Path_3685" data-name="Path 3685" d="M2543.133,3692.448c-1-2.65-2.081-5.263-3.286-7.813-.246-.52-.481-1.047-.737-1.563l-26.745-.022s-2.121,1.3-5.251,2.992a109.4,109.4,0,0,1-11.65,5.536C2511.354,3692.1,2527.244,3692.477,2543.133,3692.448Z" transform="translate(-2353.54 -3551.554)" fill="#fff" stroke="#000" stroke-linecap="round" stroke-linejoin="round" stroke-width="2.6"/>
      <path id="Path_3686" data-name="Path 3686" d="M2536.389,3683.07c8.717,17.641,12.1,37.988,14.026,58.385.068-.9.135-1.814.2-2.7l4.152-.978,3.883-.915c-.094-18.708-1.056-38.186-10.793-53.784Z" transform="translate(-2350.818 -3551.552)" fill="#fff" stroke="#000" stroke-linecap="round" stroke-linejoin="round" stroke-width="2.6"/>
      <path id="Path_3687" data-name="Path 3687" d="M2557.041,3683.087l-9.375-.007h-.521c9.737,15.6,10.7,35.075,10.793,53.784l2.633-.621,4.555-1.074c-.787-17.434.243-35.491-4.765-52.077Z" transform="translate(-2350.103 -3551.552)" stroke="#000" stroke-linecap="round" stroke-linejoin="round" stroke-width="2.6"/>
      <path id="Path_3688" data-name="Path 3688" d="M2571.724,3683.478c-2.776-.04-5.422-.075-7.967-.107l-4.056-.05a2.843,2.843,0,0,1,.587-.231h-.751c5.008,16.586,3.978,34.643,4.765,52.077l4.383-1.032,3.04-.717S2579.331,3713.964,2571.724,3683.478Z" transform="translate(-2349.279 -3551.551)" fill="#fff" stroke="#000" stroke-linecap="round" stroke-linejoin="round" stroke-width="2.6"/>
      <path id="Path_3689" data-name="Path 3689" d="M2397.732,3671.13s1.111-4.275,8.047-17.051c6.45-11.883.433-18.638-12.192-27.611-10.01-7.114-18.294-3.358-9.284,9.988l4.925,8.543s-14.929,5.886-10.705,20.974" transform="translate(-2361.367 -3555.552)" fill="#fff" stroke="#000" stroke-miterlimit="10" stroke-width="2.6"/>
      <path id="Path_3690" data-name="Path 3690" d="M2372.224,3620.976c-11.729-4.752-10.467,15.016-8.692,24.961s11.708,2.881,10.488-5.168l-1.22-8.05" transform="translate(-2362.39 -3555.73)" fill="#fff" stroke="#000" stroke-miterlimit="10" stroke-width="2.6"/>
      <path id="Path_3691" data-name="Path 3691" d="M2394.574,3593.468c-2.315,8.614-4.189,26.835-4.189,26.835" transform="translate(-2360.528 -3557.511)" fill="#fff" stroke="#000" stroke-miterlimit="10" stroke-width="2.6"/>
      <path id="Path_3692" data-name="Path 3692" d="M2383.141,3594.823s-2.775,17.626-2.26,26.466" transform="translate(-2361.165 -3557.421)" fill="#fff" stroke="#000" stroke-miterlimit="10" stroke-width="2.6"/>
      <g id="Group_759" data-name="Group 759" transform="translate(350.416 185.907)">
        <path id="Path_3693" data-name="Path 3693" d="M2742.444,3796.4a7.256,7.256,0,0,0-6.395-8.025,7.255,7.255,0,0,1-6.4-8.024l4.545-40.225-14.349-1.621-4.546,40.226a7.255,7.255,0,0,1-8.024,6.395h0a7.256,7.256,0,0,0-8.025,6.4l-8.264,73.142H2691c-.01.053-.023.1-.03.158-.468,4.139,8.821,8.586,20.748,9.934s21.973-.914,22.441-5.053c.006-.053,0-.106.006-.16h.012Z" transform="translate(-2690.955 -3733.772)" stroke="#000" stroke-linecap="round" stroke-linejoin="round" stroke-width="2.6"/>
        <path id="Path_3694" data-name="Path 3694" d="M2734.852,3748.9s-2.988,2.683-10.66,1.816-9.986-4.148-9.986-4.148l.948-8.391s2.314,3.283,9.986,4.15,10.66-1.816,10.66-1.816Z" transform="translate(-2689.409 -3733.794)" fill="#fff" stroke="#000" stroke-linecap="round" stroke-linejoin="round" stroke-width="2.6"/>
        <ellipse id="Ellipse_317" data-name="Ellipse 317" cx="4.091" cy="10.388" rx="4.091" ry="10.388" transform="translate(25.322 8.131) rotate(-83.553)" fill="#fff" stroke="#000" stroke-linecap="round" stroke-linejoin="round" stroke-width="2.6"/>
        <path id="Path_3695" data-name="Path 3695" d="M2740.813,3805.356c-.468,4.138-10.515,6.4-22.441,5.053s-21.215-5.8-20.748-9.933l-4.354,38.535c-.467,4.138,8.822,8.586,20.748,9.934s21.974-.916,22.441-5.053Z" transform="translate(-2690.802 -3729.651)" fill="#fff" stroke="#000" stroke-linecap="round" stroke-linejoin="round" stroke-width="2.6"/>
      </g>
      <path id="Path_3696" data-name="Path 3696" d="M2693.02,3694.938c-17.627,4.724-35.81,5.065-52.455,3.663-16.93-1.426-14.974,18.055-.367,20.186,17.814,2.6,46.713.642,62.668-6.6C2715.924,3706.251,2706.893,3691.221,2693.02,3694.938Z" transform="translate(-2344.689 -3550.802)" fill="#fff" stroke="#000" stroke-miterlimit="10" stroke-width="2.6"/>
      <path id="Path_3697" data-name="Path 3697" d="M2708.377,3697.141c-23.815,7.623-56.934,9.857-81.352,6.039-9.5-1.485-11.916,12.94-2.454,14.419,25.716,4.021,63.955,1.01,89.023-7.015C2722.843,3707.622,2717.526,3694.211,2708.377,3697.141Z" transform="translate(-2345.353 -3550.644)" fill="#fff" stroke="#000" stroke-linecap="round" stroke-linejoin="round" stroke-width="2.6"/>
      <path id="Path_3698" data-name="Path 3698" d="M2696.964,3706.61c-13.213,4.6-40.576,5.981-54.89,4.707-20.213-1.8-19.13,16.3-4.716,19.7,17.579,4.146,50.3,1.145,66.91-4.639C2717.864,3721.645,2710.58,3701.868,2696.964,3706.61Z" transform="translate(-2344.813 -3550.035)" fill="#fff" stroke="#000" stroke-miterlimit="10" stroke-width="2.6"/>
      <path id="Path_3699" data-name="Path 3699" d="M2662.609,3892.023s-13.636,15.677-3.065,39.47c28.72-9.468,33.767-19.734,33.767-19.734S2684.543,3898.933,2662.609,3892.023Z" transform="translate(-2342.895 -3537.656)" fill="#fff" stroke="#000" stroke-miterlimit="10" stroke-width="2.6"/>
      <line id="Line_246" data-name="Line 246" x2="6.773" y2="7.259" transform="translate(322.35 365.276)" fill="#fff" stroke="#000" stroke-miterlimit="10" stroke-width="2.6"/>
      <line id="Line_247" data-name="Line 247" x1="6.773" y2="7.259" transform="translate(322.35 365.276)" fill="#fff" stroke="#000" stroke-miterlimit="10" stroke-width="2.6"/>
      <path id="Path_3700" data-name="Path 3700" d="M2655.527,3910.529" transform="translate(-2342.895 -3536.425)" fill="#fff" stroke="#000" stroke-linecap="round" stroke-linejoin="round" stroke-width="2.6"/>
      <path id="Path_3701" data-name="Path 3701" d="M2661.335,3911.266a611.133,611.133,0,0,0-74.841-1.569l-18.3-10.254,8.469,11.823-5.516,10.266,15.508-11.683" transform="translate(-2348.703 -3537.162)" fill="#fff" stroke="#000" stroke-linecap="round" stroke-linejoin="round" stroke-width="2.6"/>
      <path id="Path_3702" data-name="Path 3702" d="M2647.579,3887.674s-12.855,13.611-2.118,48.092" transform="translate(-2343.849 -3537.945)" fill="none" stroke="#000" stroke-linecap="round" stroke-linejoin="round" stroke-width="2.6"/>
      <path id="Path_3703" data-name="Path 3703" d="M2636.119,3879.307s-12.855,17.228-2.117,60.874" transform="translate(-2344.611 -3538.502)" fill="none" stroke="#000" stroke-linecap="round" stroke-linejoin="round" stroke-width="2.6"/>
      <path id="Path_3704" data-name="Path 3704" d="M2622.272,3884.045s-12.231,14.587-2.015,51.544" transform="translate(-2345.511 -3538.187)" fill="none" stroke="#000" stroke-linecap="round" stroke-linejoin="round" stroke-width="2.6"/>
      <path id="Path_3705" data-name="Path 3705" d="M2595.426,3897.742s-7.115,7.533-1.172,26.617" transform="translate(-2347.127 -3537.276)" fill="none" stroke="#000" stroke-linecap="round" stroke-linejoin="round" stroke-width="2.6"/>
      <path id="Path_3706" data-name="Path 3706" d="M2607.575,3894.642s-7.115,9.591-1.171,33.886" transform="translate(-2346.319 -3537.482)" fill="none" stroke="#000" stroke-linecap="round" stroke-linejoin="round" stroke-width="2.6"/>
      <g id="Group_760" data-name="Group 760" transform="translate(301.695 210.777)">
        <path id="Path_3707" data-name="Path 3707" d="M2645.477,3777.032h0a16.394,16.394,0,0,1,10.532-17.957l3.337-1.228a7.431,7.431,0,0,1,9.9,5.808l2.973,18.732a7.429,7.429,0,0,1-7.617,8.59l-3.554-.133A16.4,16.4,0,0,1,2645.477,3777.032Z" transform="translate(-2645.272 -3757.387)" stroke="#000" stroke-linecap="round" stroke-linejoin="round" stroke-width="2.6"/>
        <path id="Path_3708" data-name="Path 3708" d="M2651.29,3813.644h0a16.394,16.394,0,0,1,10.531-17.957l3.337-1.228a7.43,7.43,0,0,1,9.9,5.809l2.975,18.731a7.43,7.43,0,0,1-7.618,8.59l-3.552-.133A16.393,16.393,0,0,1,2651.29,3813.644Z" transform="translate(-2644.886 -3754.952)" stroke="#000" stroke-linecap="round" stroke-linejoin="round" stroke-width="2.6"/>
        <path id="Path_3709" data-name="Path 3709" d="M2663.4,3788.883a9.211,9.211,0,0,1,.94,5.917" transform="translate(-2644.067 -3755.292)" stroke="#000" stroke-linecap="round" stroke-linejoin="round" stroke-width="2.6"/>
        <path id="Path_3710" data-name="Path 3710" d="M2651.085,3782.786l4.606-11.191,4.537,5.646,5.837-13.415" transform="translate(-2644.886 -3756.959)" fill="none" stroke="#fff" stroke-linecap="round" stroke-linejoin="round" stroke-width="2"/>
        <path id="Path_3711" data-name="Path 3711" d="M2656.873,3819.821l4.606-11.191,4.537,5.646,5.837-13.415" transform="translate(-2644.501 -3754.496)" fill="none" stroke="#fff" stroke-linecap="round" stroke-linejoin="round" stroke-width="2"/>
      </g>
      <ellipse id="Ellipse_318" data-name="Ellipse 318" cx="22.644" cy="43.858" rx="22.644" ry="43.858" transform="translate(246.528 457.559)" stroke="#000" stroke-linecap="round" stroke-linejoin="round" stroke-width="2.6"/>
      <ellipse id="Ellipse_319" data-name="Ellipse 319" cx="7.483" cy="7.805" rx="7.483" ry="7.805" transform="translate(261.688 445.807)" stroke="#000" stroke-linecap="round" stroke-linejoin="round" stroke-width="2.6"/>
      <path id="Path_3712" data-name="Path 3712" d="M2615.275,3992.4s-15.672,29.326-3.11,78.673" transform="translate(-2346.103 -3530.98)" fill="none" stroke="#fff" stroke-linecap="round" stroke-linejoin="round" stroke-width="2"/>
      <g id="Group_761" data-name="Group 761" transform="translate(276.761 453.612)">
        <path id="Path_3713" data-name="Path 3713" d="M2621.893,4002.691s16.9-4.621,20.572-17.612" transform="translate(-2621.893 -3985.079)" fill="none" stroke="#000" stroke-linecap="round" stroke-linejoin="round" stroke-width="2.6"/>
        <path id="Path_3714" data-name="Path 3714" d="M2631.54,4014.755s16.9-1.259,20.572-4.8" transform="translate(-2621.251 -3983.424)" fill="none" stroke="#000" stroke-linecap="round" stroke-linejoin="round" stroke-width="2.6"/>
        <path id="Path_3715" data-name="Path 3715" d="M2631.321,4031.559s21.206.646,25.816,2.462" transform="translate(-2621.266 -3981.988)" fill="none" stroke="#000" stroke-linecap="round" stroke-linejoin="round" stroke-width="2.6"/>
        <path id="Path_3716" data-name="Path 3716" d="M2631.321,4049.332s17.09,3.213,20.805,12.247" transform="translate(-2621.266 -3980.806)" fill="none" stroke="#000" stroke-linecap="round" stroke-linejoin="round" stroke-width="2.6"/>
      </g>
      <g id="Group_762" data-name="Group 762" transform="translate(223.553 453.612)">
        <path id="Path_3717" data-name="Path 3717" d="M2606.823,4002.691s-16.851-4.621-20.515-17.612" transform="translate(-2571.052 -3985.079)" fill="none" stroke="#000" stroke-linecap="round" stroke-linejoin="round" stroke-width="2.6"/>
        <path id="Path_3718" data-name="Path 3718" d="M2597.2,4014.755s-16.851-1.259-20.514-4.8" transform="translate(-2571.691 -3983.424)" fill="none" stroke="#000" stroke-linecap="round" stroke-linejoin="round" stroke-width="2.6"/>
        <path id="Path_3719" data-name="Path 3719" d="M2597.747,4031.559s-21.147.646-25.745,2.462" transform="translate(-2572.003 -3981.988)" fill="none" stroke="#000" stroke-linecap="round" stroke-linejoin="round" stroke-width="2.6"/>
        <path id="Path_3720" data-name="Path 3720" d="M2597.436,4049.332s-17.043,3.213-20.748,12.247" transform="translate(-2571.691 -3980.806)" fill="none" stroke="#000" stroke-linecap="round" stroke-linejoin="round" stroke-width="2.6"/>
      </g>
      <path id="Path_3721" data-name="Path 3721" d="M2611.264,3970.062s-4.848,1.664-3.49,5.521,14.042,6.125,15.073.756-3.043-6.276-3.043-6.276" transform="translate(-2346.087 -3532.466)" fill="none" stroke="#000" stroke-linecap="round" stroke-linejoin="round" stroke-width="2.6"/>
      <path id="Path_3722" data-name="Path 3722" d="M2666.28,3985.785s-6.123,59.973,22.306,94.907V3983.9Z" transform="translate(-2342.217 -3531.545)" fill="#fff" stroke="#000" stroke-miterlimit="10" stroke-width="2.6"/>
      <path id="Path_3723" data-name="Path 3723" d="M2676.809,3988.04a73.005,73.005,0,0,0,0-21.763c-1.868-10.889-5.89-25.733-5.89-25.733l17.321,1.631v44.612Z" transform="translate(-2341.871 -3534.429)" stroke="#000" stroke-linecap="round" stroke-linejoin="round" stroke-width="2.6"/>
      <circle id="Ellipse_320" data-name="Ellipse 320" cx="2.243" cy="2.243" r="2.243" transform="translate(336.679 412.159)" fill="#fff"/>
      <ellipse id="Ellipse_321" data-name="Ellipse 321" cx="21.473" cy="10.117" rx="21.473" ry="10.117" transform="translate(116.626 124.631) rotate(-3.174)" fill="#fff" stroke="#000" stroke-miterlimit="10" stroke-width="2.6"/>
      <path id="Path_3724" data-name="Path 3724" d="M2453.287,3628.446c.173,30.353,17.448,64.466,38.585,65.167s38.133-32.27,37.96-62.623-17.449-55.528-38.586-56.23S2453.114,3598.094,2453.287,3628.446Z" transform="translate(-2356.345 -3558.756)" stroke="#000" stroke-miterlimit="10" stroke-width="2.6"/>
      <path id="Path_3725" data-name="Path 3725" d="M2474.918,3629.325c0,6.075-.145,17.406-8.386,17.141s-8.213-11.649-8.223-17.695.11-17.341,8.365-17.081S2474.915,3623.25,2474.918,3629.325Z" transform="translate(-2356.011 -3556.3)" fill="#fff" stroke="#000" stroke-linecap="round" stroke-linejoin="round" stroke-width="2.6"/>
      <path id="Path_3726" data-name="Path 3726" d="M2495.917,3628.99c0,6.067-.212,17.759-8.485,17.382s-8.163-11.728-8.169-17.806.106-17.481,8.424-17.35S2495.92,3622.923,2495.917,3628.99Z" transform="translate(-2354.618 -3556.331)" fill="#fff" stroke="#000" stroke-linecap="round" stroke-linejoin="round" stroke-width="2.6"/>
      <g id="Group_763" data-name="Group 763" transform="translate(52.418)">
        <path id="Path_3727" data-name="Path 3727" d="M2411.539,3613.821s16.606,11.993,68.268,11.993,104.253-11.993,104.253-11.993l-52.035-4.582-18.516-44.836a7.521,7.521,0,0,0-13.133-1.413l-11.231,16.2-7.513-13.822a7.521,7.521,0,0,0-13.537.667l-17.141,40.6Z" transform="translate(-2411.539 -3559.753)" fill="#fff" stroke="#000" stroke-linecap="round" stroke-linejoin="round" stroke-width="2.6"/>
        <path id="Path_3728" data-name="Path 3728" d="M2448.5,3604.545s42.921,11.179,81.071,2.6l-3.958-9.584s-32.857,9.074-71.478-6.368Z" transform="translate(-2409.081 -3557.662)" stroke="#000" stroke-linecap="round" stroke-linejoin="round" stroke-width="2.6"/>
      </g>
      <g id="Group_764" data-name="Group 764" transform="translate(115.432 91.332)">
        <path id="Path_3729" data-name="Path 3729" d="M2471.183,3657.652c-1.733,4.871.728,10.565,5.159,12.213a29.12,29.12,0,0,0,4.99,1.368c-1.011-6.362-1.987-12.7-2.391-19C2475.668,3652.742,2472.446,3654.1,2471.183,3657.652Z" transform="translate(-2470.624 -3644.935)" fill="#fff" stroke="#000" stroke-linecap="round" stroke-linejoin="round" stroke-width="2.6"/>
        <path id="Path_3730" data-name="Path 3730" d="M2482.005,3652.023a26.823,26.823,0,0,0-3.583.286c.4,6.3,1.38,12.638,2.391,19a25.358,25.358,0,0,0,10.2-.215c-1.17-6.655-2.306-13.316-3.294-20A19.687,19.687,0,0,1,2482.005,3652.023Z" transform="translate(-2470.106 -3645.011)" fill="#fff" stroke="#000" stroke-linecap="round" stroke-linejoin="round" stroke-width="2.6"/>
        <path id="Path_3731" data-name="Path 3731" d="M2493.93,3648a29.49,29.49,0,0,1-6.788,3.36c.988,6.688,2.125,13.349,3.294,20a35.9,35.9,0,0,0,11.477-5.055c-1.866-6.538-3.934-12.977-6.292-19.285C2495.06,3647.32,2494.5,3647.642,2493.93,3648Z" transform="translate(-2469.526 -3645.282)" fill="#fff" stroke="#000" stroke-linecap="round" stroke-linejoin="round" stroke-width="2.6"/>
        <path id="Path_3732" data-name="Path 3732" d="M2507.456,3648.567c-3.537-4.107-7.828-3.833-12.364-1.435,2.359,6.307,4.427,12.747,6.292,19.285.435-.278.869-.561,1.3-.855a16.016,16.016,0,0,0,4.262-4.013C2510.192,3657.227,2511.044,3652.736,2507.456,3648.567Z" transform="translate(-2468.997 -3645.39)" fill="#fff" stroke="#000" stroke-linecap="round" stroke-linejoin="round" stroke-width="2.6"/>
      </g>
      <path id="Path_3733" data-name="Path 3733" d="M2752.035,3668.754a150.75,150.75,0,0,1,13.29-14.709c6.856-6.452,9.084,6.251,3.29,13.107s-5.944,5.645-5.944,5.645Z" transform="translate(-2336.477 -3553.6)" fill="#fff" stroke="#000" stroke-miterlimit="10" stroke-width="2.6"/>
      <path id="Path_3734" data-name="Path 3734" d="M2571.712,3730.28c-4.314,30.086-12.481,32.112-11.977,2.823" transform="translate(-2349.267 -3548.412)" stroke="#000" stroke-linecap="round" stroke-linejoin="round" stroke-width="2.6"/>
      <rect id="Rectangle_223" data-name="Rectangle 223" width="23.603" height="6.599" transform="translate(173.153 593.575)" stroke="#000" stroke-linecap="round" stroke-linejoin="round" stroke-width="2.6"/>
      <rect id="Rectangle_224" data-name="Rectangle 224" width="23.603" height="6.599" transform="translate(104.59 593.575)" stroke="#000" stroke-linecap="round" stroke-linejoin="round" stroke-width="2.6"/>
      <path id="Path_3735" data-name="Path 3735" d="M2743.888,3902.483l-29.381-12.6v-5.836l-6.353,12.652,5.647-4.142Z" transform="translate(-2339.395 -3538.187)" stroke="#000" stroke-linecap="round" stroke-linejoin="round" stroke-width="2.6"/>
      <path id="Path_3736" data-name="Path 3736" d="M2503.044,3905.015l21.372,65.474.1.294-.023.281-12.464,150.72,9.541-150.933.073.574L2499,3906.379Z" transform="translate(-2353.305 -3536.792)"/>
      <path id="Path_3737" data-name="Path 3737" d="M2756.72,3692.841s17.976,2.242,22.815-3.48" transform="translate(-2336.165 -3551.134)" fill="#fff" stroke="#000" stroke-miterlimit="10" stroke-width="2.6"/>
      <path id="Path_3738" data-name="Path 3738" d="M2756.015,3704.7s17.619,2.995,26.088-3.357" transform="translate(-2336.212 -3550.337)" fill="#fff" stroke="#000" stroke-miterlimit="10" stroke-width="2.6"/>
      <path id="Path_3739" data-name="Path 3739" d="M2759.969,3718.717a42.536,42.536,0,0,0,21.871-4.754" transform="translate(-2335.949 -3549.498)" fill="#fff" stroke="#000" stroke-miterlimit="10" stroke-width="2.6"/>
      <path id="Path_3740" data-name="Path 3740" d="M2447.234,3807.847" transform="translate(-2356.748 -3543.254)" fill="#fff"/>
      <path id="Path_3741" data-name="Path 3741" d="M2547.3,4132.531a10.881,10.881,0,0,0-6.832,9.943" transform="translate(-2350.547 -3521.661)" fill="none" stroke="#000" stroke-linecap="round" stroke-linejoin="round" stroke-width="2.6"/>
      <path id="Path_3742" data-name="Path 3742" d="M2553.709,4132.531a10.881,10.881,0,0,0-6.832,9.943" transform="translate(-2350.121 -3521.661)" fill="none" stroke="#000" stroke-linecap="round" stroke-linejoin="round" stroke-width="2.6"/>
      <path id="Path_3743" data-name="Path 3743" d="M2560.115,4132.531a10.881,10.881,0,0,0-6.832,9.943" transform="translate(-2349.695 -3521.661)" fill="none" stroke="#000" stroke-linecap="round" stroke-linejoin="round" stroke-width="2.6"/>
      <path id="Path_3744" data-name="Path 3744" d="M2473.813,4132.531s2.385,2.177,3.307,9.943" transform="translate(-2354.98 -3521.661)" fill="none" stroke="#000" stroke-linecap="round" stroke-linejoin="round" stroke-width="2.6"/>
      <path id="Path_3745" data-name="Path 3745" d="M2469.127,4132.531s2.384,2.177,3.307,9.943" transform="translate(-2355.292 -3521.661)" fill="none" stroke="#000" stroke-linecap="round" stroke-linejoin="round" stroke-width="2.6"/>
      <path id="Path_3746" data-name="Path 3746" d="M2465.007,4132.531s2.385,2.177,3.307,9.943" transform="translate(-2355.565 -3521.661)" fill="none" stroke="#000" stroke-linecap="round" stroke-linejoin="round" stroke-width="2.6"/>
    </g>
  </g>
</svg>
