<svg id="Layer_1" data-name="Layer 1" xmlns="http://www.w3.org/2000/svg" width="1684" height="1016.5" viewBox="0 0 1684 1016.5"><defs><style>.cls-1,.cls-11,.cls-12,.cls-14,.cls-15,.cls-16,.cls-17,.cls-18,.cls-19,.cls-2,.cls-20,.cls-22,.cls-23,.cls-24,.cls-25,.cls-26,.cls-27,.cls-28,.cls-29,.cls-3,.cls-30,.cls-31,.cls-32,.cls-4,.cls-5,.cls-7,.cls-8,.cls-9{stroke:#000;}.cls-1,.cls-19,.cls-20,.cls-3,.cls-4,.cls-5,.cls-6{stroke-miterlimit:10;}.cls-1,.cls-12,.cls-14,.cls-19,.cls-2,.cls-20,.cls-21,.cls-24,.cls-27,.cls-28,.cls-3,.cls-30,.cls-4,.cls-5{stroke-width:2.6px;}.cls-11,.cls-13,.cls-15,.cls-16,.cls-18,.cls-19,.cls-2,.cls-27,.cls-3,.cls-32,.cls-7{fill:#fff;}.cls-10,.cls-11,.cls-12,.cls-14,.cls-17,.cls-19,.cls-2,.cls-20,.cls-21,.cls-22,.cls-23,.cls-24,.cls-25,.cls-31,.cls-32,.cls-5,.cls-6,.cls-8,.cls-9{stroke-linecap:round;}.cls-10,.cls-11,.cls-12,.cls-14,.cls-17,.cls-2,.cls-21,.cls-22,.cls-23,.cls-24,.cls-25,.cls-26,.cls-27,.cls-28,.cls-29,.cls-30,.cls-31,.cls-32,.cls-8,.cls-9{stroke-linejoin:round;}.cls-10,.cls-12,.cls-20,.cls-22,.cls-26,.cls-28,.cls-31,.cls-4,.cls-6{fill:none;}.cls-10,.cls-21,.cls-6{stroke:#fff;}.cls-10,.cls-6{stroke-width:2px;}.cls-7{stroke-miterlimit:10;stroke-width:2.6px;}.cls-8{stroke-width:2.6px;}.cls-9{stroke-width:2.6px;}.cls-11{stroke-width:2.6px;}.cls-15{stroke-miterlimit:10;stroke-width:2.6px;}.cls-16{stroke-miterlimit:10;stroke-width:2.6px;}.cls-17{stroke-width:2.6px;}.cls-18{stroke-miterlimit:10;stroke-width:2.6px;}.cls-22,.cls-26{stroke-width:6px;}.cls-23{stroke-width:2.6px;}.cls-24{fill:#387cdb;}.cls-25{stroke-width:2.59px;}.cls-29{stroke-width:2.6px;}.cls-31{stroke-width:5px;}.cls-32{stroke-width:2.6px;}</style></defs><g id="Layer_2" data-name="Layer 2"><g id="Layer_1-2" data-name="Layer 1-2"><rect class="cls-1" x="675.8" y="429.7" width="284.6" height="136.2"/><rect class="cls-2" x="1006.8" y="378.4" width="31" height="336.8"/><rect class="cls-3" x="633.7" y="378.2" width="377.1" height="336.8"/><line class="cls-4" x1="642" y1="497.3" x2="711" y2="378.4"/><line class="cls-4" x1="711.7" y1="497.3" x2="780.7" y2="378.4"/><line class="cls-4" x1="781.4" y1="497.3" x2="850.4" y2="378.4"/><line class="cls-4" x1="851.1" y1="497.3" x2="920.1" y2="378.4"/><line class="cls-4" x1="920.8" y1="497.3" x2="989.8" y2="378.4"/><line class="cls-4" x1="636.1" y1="497.3" x2="1037.8" y2="497.3"/><path class="cls-3" d="M797.1,497.3c0-22.3,10.3-41.6,25.2-50.6a34.6,34.6,0,0,0-14.9-3.4c-23.5,0-42.6,24.2-42.6,54s19.1,54,42.6,54a34.93,34.93,0,0,0,14.9-3.4C807.5,538.9,797.1,519.6,797.1,497.3Z"/><path class="cls-1" d="M850.1,497.3c0-23.2-11.5-42.9-27.7-50.6-14.9,9-25.2,28.2-25.2,50.6s10.3,41.6,25.3,50.6C838.6,540.2,850.1,520.5,850.1,497.3Z"/><path class="cls-3" d="M915.4,497.3c0-13.1,6.3-24.3,15.3-28.9a20.31,20.31,0,0,0-9.3-2.3c-13.6,0-24.7,14-24.7,31.3s11,31.2,24.7,31.2a19.7,19.7,0,0,0,9.3-2.3C921.7,521.6,915.4,510.4,915.4,497.3Z"/><ellipse class="cls-1" cx="930.7" cy="497.3" rx="15.3" ry="28.9"/><path class="cls-3" d="M680.3,497.3c0-13.1,6.3-24.3,15.3-28.9a20.31,20.31,0,0,0-9.3-2.3c-13.6,0-24.7,14-24.7,31.3s11,31.2,24.7,31.2a19.7,19.7,0,0,0,9.3-2.3C686.6,521.6,680.3,510.4,680.3,497.3Z"/><ellipse class="cls-1" cx="695.6" cy="497.3" rx="15.3" ry="28.9"/><path class="cls-3" d="M696.3,549.6c-3.8,3.8-9,3.5-8.7-1.9.7-13.9,8.2-32.5.7-27.2-8.9,6.3-4,32.3-3.6,39.4.4,8.1-8.6,6.9-8.6,6.9s-.1.8-3.2,2.5c-2.8,1.6-7.7,2.1-12.9-3.2-1.6,1.6-9.5,2.3-11.8-7-11.2-1.1-8.8-20.6-4.2-43.7,4-20.1,19.2-27.9,29.3-29.6a105.37,105.37,0,0,1,32.2-.8C711.7,501,705.5,540.5,696.3,549.6Z"/><path class="cls-3" d="M676.1,566.9s-8.9-1.9-4.8-35.6"/><path class="cls-3" d="M660.1,566.2c-3.4-10.7-1.3-36.2-1.3-36.2"/><path class="cls-3" d="M648.3,559.3s-1.6-20.6.7-30.2"/><rect class="cls-3" x="1013" y="489.8" width="24.5" height="15.7"/><path class="cls-3" d="M846.3,519.6S824,512.7,786,534.8c-34.5,20.1-73.3,16.5-74.7,2.1,40.8-27.4,21.3-95.9,24.1-107.3s18,24.4,18,24.4,12-.5,19-1.8c-.6-15.6-.6-43.3,8.8-25.4,1.6,3,5.8,17.2,7.1,19.8a36.1,36.1,0,0,0,47.8,17.5c2.3-1.1,3.7-1.8,3.7-1.8S858.3,484.9,846.3,519.6Z"/><ellipse class="cls-1" cx="746.5" cy="493.8" rx="3.5" ry="7.2"/><ellipse class="cls-1" cx="765.4" cy="493.8" rx="3.5" ry="7.2"/><path class="cls-5" d="M754.8,496.6c0,7.4-4.3,8.9-4.3,8.9"/><path class="cls-5" d="M774.4,496.6c0,7.4-4.3,8.9-4.3,8.9"/><path class="cls-6" d="M746.2,488.9s-1.9.7-1.2,7.5"/><path class="cls-6" d="M765.1,488.5s-1.9.7-1.2,7.5"/><circle class="cls-1" cx="712.8" cy="534.8" r="5.6"/><path class="cls-1" d="M1037.9,415s56.9,4.8,59.1,71.7-59.3,117.2-59.3,117.2Z"/><path class="cls-3" d="M1099.5,652.9s11.8-.4,3.4,18.6c-7.8,17.9-27.1,16-34.2,27.1-5.7,8.8,0,16.5,20.7,16.5,23.1,0,31.3.1,44.5-19.4,27.8-41.1,15.1-97.9-11.5-101.6-16.6-2.3-22.8,19.2-22.8,19.2l-9.3,2.8"/><ellipse class="cls-7" cx="1097.68" cy="633.19" rx="12.8" ry="26.2" transform="translate(-112.22 256.39) rotate(-12.68)"/><path class="cls-1" d="M1037.8,615.3s37.2-13.8,47.1-8.3,19.4,53.7,12.2,58.1-59.3,17.8-59.3,17.8V615.3Z"/><path class="cls-3" d="M794.6,499.1c10.3-1.7,10.5,12.1,3.3,20.5-6.7,7.8-14,7.3-16,3.6-3.2-6,3-8.3,5.6-12.9C789.3,506.9,789.9,499.9,794.6,499.1Z"/><path class="cls-3" d="M896.3,493.8s-24.8,7.6-30.3,15.6,16.6,3.3,16.6,3.3"/><path class="cls-3" d="M941.3,509.4s-4-1.5-10.5,7.9c-6.3,9.2.4,30,1.5,37,1.3,8-8.2,7.8-8.2,7.8s-.9,5.6-3.9,7.6c-2.8,1.8-7.8,2.9-13.8-1.9-1.5,1.8-9.7,3.2-13.1-5.8-11.8,0-11.8-16.4-11.8-39.9s20-32.8,30.3-35.5c18.5-4.9,27.5,1.8,27.5,1.8C948.5,497.3,941.3,509.4,941.3,509.4Z"/><path class="cls-3" d="M924.1,562.1s-9.6.9-9.6-30.1"/><path class="cls-3" d="M906.4,567.9c-4.7-10.3-5.2-35.8-5.2-35.8"/><path class="cls-3" d="M893.3,562.1s-3.8-20.4-2.5-30.1"/><path class="cls-3" d="M1035.5,489.8c3.4,0,6.2,3.5,6.2,7.9s-2.8,7.9-6.2,7.9"/><path class="cls-3" d="M1029.7,489.8c3.4,0,6.2,3.5,6.2,7.9s-2.8,7.9-6.2,7.9"/><path class="cls-3" d="M1019.9,489.8c3.4,0,6.2,3.5,6.2,7.9s-2.8,7.9-6.2,7.9"/><path class="cls-3" d="M563.3,478s-21.1-3.4-36.4,7.7c-21,15.3-10,73.9,33.2,91,35.9,14.3,73.6,1.8,73.6,1.8V558s-43.6,12.8-68.8-.6c-17.6-9.4-26.9-42.3-21.6-45.3,8.1-4.7,30.4-.5,90.5,24.3l-.2-93.4c-47.3-20.8-64.9,26.8-64.9,26.8"/><path class="cls-3" d="M533.2,428.2s9.5,35.2,23.7,47.7,13.2-6.9,13.2-6.9-17.1-7.2-16.9-31.2"/><path class="cls-3" d="M524.1,396.8c2.6,32.2,15.9,59.5,32,58.2s28.8-30.7,26.2-62.9-16.3-40.7-32.5-39.4S521.5,364.7,524.1,396.8Z"/><ellipse class="cls-8" cx="579.69" cy="391.79" rx="8.1" ry="11.7" transform="translate(-52.15 91.26) rotate(-8.62)"/><ellipse class="cls-9" cx="556.01" cy="393.61" rx="8.1" ry="11.7" transform="translate(-52.38 87.11) rotate(-8.56)"/><polyline class="cls-10" points="550.3 398 556.4 389.9 557.5 396.8 562.7 390.7"/><polyline class="cls-10" points="572.3 395.6 578.7 387.1 579.9 394 584.7 388.3"/><path class="cls-3" d="M569.4,411.4c6.4,7,13.5,10.9,16,8.7s-.7-9.8-7-16.8-12-8.6-14.5-6.4S563,404.4,569.4,411.4Z"/><ellipse class="cls-11" cx="553.03" cy="370.8" rx="13.7" ry="88.2" transform="translate(178.28 921.16) rotate(-89.59)"/><path class="cls-2" d="M584.2,369.6s-8.8,5.8-35.7,5c-21.1-.6-27.3-6.1-27.3-6.1.3-17.4,12.2-31.3,29.5-33.2C571.4,332.9,584.5,352.2,584.2,369.6Z"/><path class="cls-12" d="M540.9,415.7A36.73,36.73,0,0,0,575,417"/><path class="cls-13" d="M1086.3,522.1c.6-10.4,1.2-20.5.7-30.5l-.3-3.7a10.87,10.87,0,0,0-.1-1.8l-.2-1.8-.4-3.7-.6-3.6a85.47,85.47,0,0,0-3.5-14.1,70,70,0,0,0-14.3-24.8,78.29,78.29,0,0,0-23.9-17.7h-.1c-.1-.1-.2-.2-.1-.3h0a.19.19,0,0,1,.3-.1,63.24,63.24,0,0,1,36.3,27.4,71.65,71.65,0,0,1,6.6,14c.4,1.2.9,2.5,1.2,3.7l1,3.8c.3,1.2.5,2.5.7,3.8l.4,1.9a12.25,12.25,0,0,1,.2,1.9l.5,3.8.2,3.9c.2,2.6.1,5.2.1,7.7a142.72,142.72,0,0,1-4.2,30.5c0,.1-.2.2-.3.2,0-.2-.1-.3-.2-.5Z"/><path class="cls-3" d="M699.4,401.8h0a7.64,7.64,0,0,1-3.3-.8,7.84,7.84,0,0,1-2.6-2.2,7.1,7.1,0,0,1-1.3-3.1c-.2-1.7-.3-3.2-.5-4.7a29.55,29.55,0,0,1-.2-4.1c0-1.3-.1-2.6-.1-3.8v-3.8c0-1.3.1-2.7.2-4.1s.2-3,.4-4.7a6.94,6.94,0,0,1,1.2-3.1,7.84,7.84,0,0,1,2.6-2.2,7.31,7.31,0,0,1,3.3-.8h0a8.42,8.42,0,0,1,6.2,2.3,27,27,0,0,0-.8,3.9c-.2,1.7-.3,3.2-.4,4.7s-.2,2.8-.2,4.1-.1,2.6-.1,3.8,0,2.5.1,3.8.1,2.7.2,4.1a44.47,44.47,0,0,0,.5,4.7,5.73,5.73,0,0,1-1.2,4.4A5.06,5.06,0,0,1,699.4,401.8Z"/><path class="cls-3" d="M712.6,403.6h0a7.3,7.3,0,0,1-3.5-.9,10.44,10.44,0,0,1-2.8-2.3,8.06,8.06,0,0,1-1.4-3.3c-.2-1.9-.4-3.7-.6-5.3s-.2-3.2-.3-4.7-.1-2.9-.1-4.3,0-2.9.1-4.3.2-3,.3-4.7.3-3.4.6-5.3a8.06,8.06,0,0,1,1.4-3.3,7,7,0,0,1,2.8-2.3,7.3,7.3,0,0,1,3.5-.9h0c4.6,0,7.4,1.1,8.4,2.3,0,0-2.7,2.5-2.9,4.3s-.4,3.6-.6,5.3-.2,3.2-.3,4.7-.1,2.9-.1,4.3,0,2.9.1,4.3.2,3,.3,4.7.3,3.4.6,5.3a5.9,5.9,0,0,1-1.2,4.6A5.46,5.46,0,0,1,712.6,403.6Z"/><path class="cls-3" d="M725.6,403.6h0a6.65,6.65,0,0,1-3.4-.9,8.68,8.68,0,0,1-2.7-2.3,8.06,8.06,0,0,1-1.4-3.3c-.2-1.9-.4-3.6-.6-5.2s-.2-3.1-.3-4.6-.1-2.9-.1-4.3,0-2.8.1-4.3.1-3,.3-4.6.3-3.3.5-5.2a7.89,7.89,0,0,1,1.3-3.3,8.5,8.5,0,0,1,2.7-2.3,6.92,6.92,0,0,1,3.4-.9h0c6.7,0,8.2,2.7,9.2,3.9a9.49,9.49,0,0,0-4.2,7.7c0,1.6-.2,3.1-.3,4.6s-.1,2.9-.1,4.3,0,2.8.1,4.3.2,3,.3,4.6.3,3.3.6,5.2a5.9,5.9,0,0,1-1.2,4.6A4.67,4.67,0,0,1,725.6,403.6Z"/><path class="cls-3" d="M737.3,401.8h0a6.66,6.66,0,0,1-4.2-1.6,6.19,6.19,0,0,1-2.2-3.9c-.2-1.9-.4-3.7-.5-5.3s-.2-3.1-.2-4.6-.1-2.9,0-4.4,0-3,.1-4.6.2-3.4.4-5.3a6.06,6.06,0,0,1,2.1-3.9,6.26,6.26,0,0,1,4.2-1.6h0c6.2,0,11.7,5.2,12.6,11.9h-8.4c-.1,1.6.4,11,.5,12.6s.3,3.4.5,5.3a5,5,0,0,1-1.1,3.9A4.84,4.84,0,0,1,737.3,401.8Z"/><path class="cls-3" d="M691.3,375.3s-9.9-14.5-16.1-9c-4.9,4.4,2.5,12.1,2.5,12.1h13.5l.1-3.1Z"/><ellipse class="cls-3" cx="1013" cy="497.7" rx="6.2" ry="7.9"/><ellipse class="cls-3" cx="1013" cy="497.7" rx="1.9" ry="2.4"/><path class="cls-3" d="M1094.5,682.4s9.9-2.1,18.8,3.4"/><path class="cls-3" d="M1102.9,671.5s10.7-3.3,18.4,2.4"/><path class="cls-3" d="M1105.9,661.4a29.78,29.78,0,0,1,20.8,0"/><path d="M557.7,505.8a55.76,55.76,0,0,1,10,1.2c1.6.3,3.3.6,4.9,1s3.3.7,4.9,1.1c6.5,1.6,12.9,3.5,19.3,5.5,3.2,1,6.4,2.1,9.5,3.2s6.3,2.2,9.5,3.4,6.3,2.3,9.4,3.6l9.3,3.7-1.6,3.7-9.1-4.2c-3-1.4-6.1-2.7-9.2-4s-6.2-2.6-9.2-3.9-6.2-2.5-9.3-3.7c-6.2-2.4-12.5-4.5-18.9-6.5-1.6-.5-3.2-1-4.8-1.4s-3.2-.8-4.9-1.2A79.88,79.88,0,0,0,557.7,505.8Z"/><line class="cls-4" x1="102" y1="901.4" x2="1589.5" y2="901.4"/><rect class="cls-3" x="339.2" y="730.4" width="1099.2" height="171"/><rect class="cls-3" x="1221.7" y="758.9" width="174" height="15.3"/><rect class="cls-3" x="1249" y="804.1" width="174" height="15.3"/><rect class="cls-3" x="1276.4" y="849.4" width="174" height="15.3"/><rect class="cls-2" x="1282.3" y="758.9" width="174" height="15.3"/><rect class="cls-2" x="1309.7" y="804.1" width="174" height="15.3"/><rect class="cls-2" x="1337" y="849.4" width="174" height="15.3"/><rect class="cls-3" x="278.8" y="715.2" width="1250.7" height="15.2"/><rect class="cls-2" x="1218.2" y="715.1" width="311.2" height="15.3"/><polygon class="cls-13" points="1184.8 618.2 1156.3 590.1 1170.6 547.4 1223.6 504.5 1374.9 539.1 1369.3 602.8 1184.8 618.2"/><path class="cls-14" d="M1377.1,579.7c5.3,55.6,8.6,123.3,12,179l-80.3.1c-23.6-.3,11.4-28.4,25.3-21.3-3.3-31.6-18.3-71.6-21.3-103.3-14.5,0-64.4-5-63.3,9.5,2,26.9,6.3,42.8,6.1,71l-70.1.1c-31.6,0,6.1-28,20.3-21-10.9-27.8-9.5-36.1-9.5-36.1"/><path class="cls-3" d="M1346.4,587c4,11.9,4,35.1,4,35.1l32.5-.6,1,12.2-32.7,1.2s.4,46.6,9.7,72.6c-105.4-1.2-105.8-59.2-164.3-41.6-15.3-30.7-21-74.3,16.5-77.7"/><path class="cls-1" d="M1263,583.8c1.9,2.8,3.6,4.9,5.6,8.1,15.9,10,46.5,26.3,53,41s27.4,5.8,28.7-5.1c-32.6-23.4-56-39.1-78.2-55.7C1276,575.1,1266,579.9,1263,583.8Z"/><path class="cls-3" d="M1191.8,518.5c-27.3,16.7-51.3,73.6-31.6,101.4,15.6,22,35.5,22.8,52,18.8,11-2.7,5.9-8,10.6-11.8a14.45,14.45,0,0,0,6.6-10c.3-2.9-.7-8.1-3.5-9.9,1.7-4.7,4.1-3.9.9-11-1.6-3.6-14.9-9.7-21.1-7.3-1-4,1.9-4,.1-8.5s-18.9-.9-20.4,3.1"/><path class="cls-3" d="M1344.7,544.3l16.3,14.2c-22.6.7-44.1,17.8-55.2,18.6-9-7.1-16.3-6.9-28.5-2.1,0,0,5.2,4.1,9,7.2-6.4,5-9.7,19.5-19.6,10.1a25,25,0,0,0-1.4,11.8c.2,2.5,2.4,3.2,3.1,5.3s0,5.8,1,7.3a42.11,42.11,0,0,0,7.2,8.5c2,1.8,5.5,2.3,8.4,3.8,2.1,1.1,3.4,3.2,6.2,4.1,10.2,3.2,20.1-4.9,32.9-6.7,36.7-5.1,95.6-9.5,102.7-64.5,8-61.6-94.4-86.8-117-84.1-56.5,6.8-84.7,11.2-117.8,40.8"/><ellipse class="cls-15" cx="1206.85" cy="586.72" rx="14.9" ry="7.7" transform="translate(-73.05 183.51) rotate(-8.44)"/><path class="cls-3" d="M1237.9,599.7c14.7-12.5,39-23.8,39-23.8L1109.1,452.3c11.8,33.2,30.4,65,56.4,87.7C1189.8,561.1,1211.5,578.5,1237.9,599.7Z"/><path class="cls-3" d="M1211.6,584.6l-30.2-166.9-4.5.9,23.9,168.8C1205.2,587.7,1209.4,586.8,1211.6,584.6Z"/><path class="cls-2" d="M1317.9,480.1c-7.5-27.8-23.1-82.2-23.1-82.2,15.8-5.2,26.8-14.7,20.7-32.7-4.3-12.8-18.9-16.3-30.9-10.8-2.1-10.3-9.6-17.5-20.6-17.5-21.8,0-30.6,20.4-30.6,20.4-17.8-8.5-32.8-5.9-40.6,4.8-6.2,8.4-.3,22.1,7.3,28.2-12.9,8.8-19.3,19.9-11.3,30.1,9.4,11.9,26.6,4.8,26.6,4.8,5.2,23.7,18.7,73.7,18.7,73.7C1253,520,1294.4,496.9,1317.9,480.1Z"/><path class="cls-4" d="M1346.7,483.1c-27.3,9.2-31.4,47.3-11.4,73.9"/><path class="cls-3" d="M1337.1,480.5c-20.2,5.7-30.7,25-31,47.3-22.3,7.8-68,9.1-87.8,4.8"/><path class="cls-3" d="M1232.5,495.9c-5.7,6.5-12,18.4-14.2,36.7"/><path class="cls-14" d="M1240.2,446.2c1.2,4.7,3.2,13.5-3.2,14.7s-8.6-7.7-9.7-12.4-3.2-13.5,3.2-14.6S1239,441.5,1240.2,446.2Z"/><path class="cls-14" d="M1259,441.9c1.2,4.7,3.2,13.8-3.2,14.8s-8.5-7.8-9.7-12.5-3.3-13.6,3.2-14.8S1257.8,437.2,1259,441.9Z"/><path class="cls-2" d="M1276.7,473.3a14.06,14.06,0,0,0,2.6-4.2c1.7-4.3,1.4-8.2-2.6-11-4.4-3.1-8.3-1.3-11.8,2.4-2.5,2.7-5.1,5-9.4,6.1-3.5.9-7.8,2.6-8.2,7.1s3.1,8.8,7.2,9.3C1264.2,484.1,1271,479.8,1276.7,473.3Z"/><path class="cls-2" d="M1247.6,476.1c13.5,0,24.7-3.9,29.9-17-1.6-.8-3.2-1.7-4.8-2.5,1.1,1.8,2.2,3.6,3.2,5.5l4.2,3.8c-.5-1.8-1-3.7-1.5-5.5"/><path class="cls-3" d="M1395,505.3s-27.2.5-42.6,45.7"/><path class="cls-4" d="M1223.6,496.7s-14.3,14.4-14.3,29.3"/><path class="cls-2" d="M1350.1,592.2s10.4-8.9,4.2-15.7-20.2,13.1-23.8,25.5C1357,613.5,1382.6,588.6,1350.1,592.2Z"/><line class="cls-12" x1="1341.1" y1="594.9" x2="1326.7" y2="589.1"/><line class="cls-12" x1="1358" y1="603" x2="1367.9" y2="607"/><path class="cls-13" d="M1205.8,698c-3.2.8-5.8,1.4-8.2,2.1a54,54,0,0,0-6.7,2.5c-2.2.9-4.4,2-6.8,3.1s-4.9,2.3-8,3.5h-.1c-.1,0-.3,0-.3-.1h0v-.2a32.18,32.18,0,0,1,5.9-6.3,29.64,29.64,0,0,1,7.4-4.6,25,25,0,0,1,8.5-1.9,22.34,22.34,0,0,1,8.5,1.4.19.19,0,0,1,.1.3h0c0,.1-.1.1-.2.2Z"/><path class="cls-13" d="M1335.5,742.1c-3.2.8-5.8,1.4-8.2,2.1a48.63,48.63,0,0,0-6.7,2.5l-6.8,3.1c-2.4,1.1-4.9,2.3-8,3.5l-.1.1c-.1,0-.3,0-.3-.1v-.2a32.18,32.18,0,0,1,5.9-6.3,29.64,29.64,0,0,1,7.4-4.6,25,25,0,0,1,8.5-1.9,22.34,22.34,0,0,1,8.5,1.4.19.19,0,0,1,.1.3h0c0,.1-.1.1-.2.2Z"/><path class="cls-13" d="M1384.7,753.2a229.93,229.93,0,0,1-5.1-28.5c-1.2-9.5-2.2-19.1-2.8-28.7s-.9-19.2-.9-28.8a233.77,233.77,0,0,1,1.5-29h0c0-.1.1-.2.3-.2h0a.22.22,0,0,1,.2.2l1,14.4,1,14.4,1.9,28.8,1.8,28.8.9,14.4.8,14.4c0,.1-.1.3-.2.3h0a2.74,2.74,0,0,0-.4-.5Z"/><ellipse class="cls-16" cx="1335.61" cy="631.49" rx="4.9" ry="4.3" transform="translate(-138.7 536.3) rotate(-21.61)"/><path d="M1291.1,401.9l10.8,38.5,10.4,38.5-.4.1a159.63,159.63,0,0,1-7.9-18.6c-1.2-3.1-2.1-6.3-3.2-9.5s-1.9-6.4-2.8-9.6-1.7-6.4-2.5-9.7-1.5-6.5-2.1-9.8a148.89,148.89,0,0,1-2.8-19.9Z"/><path class="cls-2" d="M1596,538.4s9.2-6.4,13.5,1.6-7.6,16.3-12.9,16.9"/><ellipse cx="1438.5" cy="974" rx="102" ry="6.8"/><path class="cls-2" d="M1417.8,934.2c2.6,10.4,5.3,40,5.3,40h6.1V965"/><path class="cls-14" d="M1480.1,685.8a26.35,26.35,0,0,1-2.8-.2c-14-1.5-26.2-11.5-22-25,13.3-42.9,7.9-62.9-.5-67.8l64,23,.1-.1a136,136,0,0,0-14.9,48.2C1502.6,676.9,1492.9,685.8,1480.1,685.8Z"/><path d="M1465.2,534a23.91,23.91,0,0,1-2.2,2.3,22.26,22.26,0,0,1-2.4,1.9,35,35,0,0,1-4.9,2.9,38.88,38.88,0,0,1-5.1,2.1l-5.1,1.8c-3.4,1.2-6.8,2.4-10.2,3.7s-6.7,2.5-9.9,3.8a98.3,98.3,0,0,0-9.3,4.3,41.24,41.24,0,0,0-7.8,5.3,17.45,17.45,0,0,0-4.7,5.8l-.3.7-.2.6c-.1.3-.1.6-.2.9,0,.1.1,0,0-.4a4.42,4.42,0,0,0-.6-1.6,3.92,3.92,0,0,0-.8-1c-.1-.1,0,0,.3,0a15.47,15.47,0,0,0,3.1.6,78.6,78.6,0,0,0,9.7.3c3.5-.1,7.2-.3,11-.5l11.6-.8c7.9-.4,16.1-1,25.4-.2a50.87,50.87,0,0,1,15.4,3.6,33,33,0,0,1,8.9,5.5,30.86,30.86,0,0,1,7.5,9.7,16.25,16.25,0,0,1-29.9,12.7c.3.2.7.5.9.4s0-.5-.6-.9a20,20,0,0,0-6.6-2.7,81.7,81.7,0,0,0-9.7-1.6c-3.5-.4-7.1-.6-10.8-.7l-11.4-.3c-3.9-.1-7.9-.1-12-.4a97,97,0,0,1-13.2-1.5,38.65,38.65,0,0,1-8-2.4,20.16,20.16,0,0,1-4.7-2.8,17.57,17.57,0,0,1-4.7-5.1,19.09,19.09,0,0,1-2.6-7,21.46,21.46,0,0,1,0-6.2,35.93,35.93,0,0,1,1.2-4.7,18,18,0,0,1,.8-2.1c.3-.7.6-1.3.9-2a44.74,44.74,0,0,1,9.4-12.2,96,96,0,0,1,10.5-8.6,110.53,110.53,0,0,1,10.9-6.8,125.14,125.14,0,0,1,22.6-9.7c1.9-.6,3.9-1.2,5.8-1.7a29.41,29.41,0,0,1,5.9-1.2,32.12,32.12,0,0,1,6.2-.1,16.45,16.45,0,0,1,3.2.5,13.31,13.31,0,0,1,3.4,1,8.83,8.83,0,0,1,5.4,11.1,13.44,13.44,0,0,1-1.2,2.4Z"/><path d="M1588.8,577.5a20.75,20.75,0,0,1,2.5,5.2,30.64,30.64,0,0,1,1,5.1,20.91,20.91,0,0,1,0,5c-.1,1.7-.3,3.3-.5,5a166.23,166.23,0,0,1-3.6,19.7c-1.6,6.6-3.5,13.1-5.8,20-.6,1.8-1.2,3.5-2,5.4a37.3,37.3,0,0,1-3.2,6.3l-.6.9-.6.8c-.4.5-.9,1.1-1.4,1.7s-1.2,1.2-1.9,1.8a18.48,18.48,0,0,1-2.7,1.9,13.16,13.16,0,0,1-3.9,1.5,15.61,15.61,0,0,1-4.8.4,15,15,0,0,1-4.3-1,19.12,19.12,0,0,1-3.2-1.6,19.54,19.54,0,0,1-3.8-3.2,20.94,20.94,0,0,1-2.4-2.8c-1.4-1.8-2.4-3.4-3.4-4.9-2-3.1-3.7-5.9-5.3-8.7s-3.2-5.3-4.9-7.8c-1.6-2.3-3.3-4.6-5.1-6.8-3.5-4.1-7.3-7-10.5-8.2a11.41,11.41,0,0,0-4.5-.6,12.55,12.55,0,0,0-4.6,1.2,16.52,16.52,0,1,1-12.7-30.5h0a18.35,18.35,0,0,1,4.6-1.2l2.2-.2a51.69,51.69,0,0,1,14.7.6,42.27,42.27,0,0,1,13.8,5.4,53,53,0,0,1,10.4,8.5,74.63,74.63,0,0,1,7.4,9.4c2,3.1,3.9,6.2,5.6,9.5,1.7,3.1,3.2,6.2,4.6,9.1s2.8,5.8,4.1,8.3c.7,1.2,1.3,2.4,1.9,3.2.3.4.5.8.7,1s.2.2-.2,0a6.2,6.2,0,0,0-3-.9,6.52,6.52,0,0,0-2.4.2,4.59,4.59,0,0,0-1.6.7,3,3,0,0,0-.7.5c-.1.1-.1.2-.1.1l.2-.2.2-.2V637a9,9,0,0,0,1.2-2.4,26.54,26.54,0,0,0,1.2-3.7,62.54,62.54,0,0,0,1.8-8.6c.5-3,.8-6.1,1.2-9.2.6-6.2,1.3-12.5,2.2-18.7.2-1.6.5-3.1.8-4.7a27.34,27.34,0,0,1,3.1-9.3,20.71,20.71,0,0,1,3.4-4.4l.4-.4a9.55,9.55,0,0,1,13.6.6h0A7.3,7.3,0,0,0,1588.8,577.5Z"/><path class="cls-3" d="M1573.3,580.2a56.47,56.47,0,0,1-7.6-18.9c-2.2-11.2,9-19,10-14s10.1,28.2,10.1,28.2Z"/><path class="cls-2" d="M1471.7,934.2c2.6,10.4,5.3,40,5.3,40h6.1V955.4"/><path class="cls-2" d="M1475.6,914.6a28.93,28.93,0,0,0-4,19.7c1.8,11.3,24.2,42,38.7,42h10.5a5.15,5.15,0,0,0,4.6-3.1c2.3-5.4-1.7-15.9-10.7-16.4-5.3-14.5-13.2-22.5-17.9-32.6"/><path class="cls-2" d="M1453.7,713l21.3,96.3s-21.3,39.6,4.9,99.6c-12.4,12.6.2,23.8.2,23.8s33.8,34.4,28.8,12.1a71.28,71.28,0,0,1-9.8-31.7c-4.5-58.7,11.6-154.7,11.6-154.7Z"/><path class="cls-2" d="M1422.6,914.6a26.45,26.45,0,0,0-4.4,19.7c2,11.3,12.5,42,28.5,42h11.6a5.71,5.71,0,0,0,5.1-3.1c2.6-5.4.4-12.3-5.5-16.4-2.8-11.3-10.8-23.3-12-32.6"/><path class="cls-2" d="M1424.9,758.5l4.5,50.9s-22,32.8-3,96.8c-8.2,13.8-1.5,20.5.2,24.3,5,10.9,24.8,31.3,22.3,13.8-9.2-63.1,31.5-231.3,31.5-231.3Z"/><path class="cls-3" d="M1455.7,660.3s-47.8,30.2-30.8,98.2h85.9s10.4-48.3-6.6-92.5C1475.1,672.6,1455.7,660.3,1455.7,660.3Z"/><path class="cls-2" d="M1457.9,956.7s-11.2-3.1-19.2,1.9"/><ellipse class="cls-17" cx="1498.26" cy="603.79" rx="24.9" ry="37.1" transform="matrix(0.2, -0.98, 0.98, 0.2, 606.75, 1950.85)"/><path class="cls-3" d="M1488.2,578.4l22.6-31,15.3,4.3L1514,586.9s37.8,28.8-7.9,22.3C1457.9,602.4,1488.2,578.4,1488.2,578.4Z"/><ellipse class="cls-18" cx="1521.13" cy="538.98" rx="27.5" ry="40.4" transform="translate(784.49 1974.84) rotate(-82.35)"/><path class="cls-3" d="M1554.3,544.9c-2.9,7.9-11.8,12-18.7,9.5s-9.3-10.7-6.4-18.6,10-12.7,16.9-10.1S1557.2,537,1554.3,544.9Z"/><path class="cls-3" d="M1532.6,537c-2.9,8-11.8,12-18.7,9.5s-9.3-10.7-6.4-18.6,10-12.7,16.9-10.1S1535.5,529,1532.6,537Z"/><path class="cls-19" d="M1514,608.9s-1.5-7.2-5.7-12.2"/><path class="cls-19" d="M1533.6,513.7s19.3-33.2,36.2-47.4c1.1-.9,2.7-.3,2.3,1.1l-16.8,61"/><path class="cls-19" d="M1492.6,518.4c3.8-5,11.7-30.6,44.4-60.7,1.1-1,2.7-.3,2.3,1.1L1524,513.7"/><path class="cls-2" d="M1483.5,534.6a33.62,33.62,0,0,1-9.7,5.6c-10,3.9-25.4-1-26-9.8-.5-7.5,6.7-28.2,55.7-26.2,7.1.3,5.9,7.7.7,7.2-6.8-.6-15.1,2.8-15.1,2.8"/><path class="cls-2" d="M1483.6,511.1s10.7.8,12.3,9.5-5.9,10.9-5.9,10.9"/><path class="cls-2" d="M1479.6,533s6.1,8.5,10.2,1.5.7-17.7-8.2-16.2"/><path class="cls-2" d="M1480.4,527.6s7.3.3,5.8,8.6c-1.6,8.6-9.3,6.8-8,3.2,1.7-4.9-2.2-3.6-2.2-3.6"/><path class="cls-14" d="M1529.4,549.9c-.5,1.5-4.5,3.3-5.3,3.1s-3.1-4.1-2.6-5.6,2.4-1.4,4.6-.7S1529.8,548.4,1529.4,549.9Z"/><path class="cls-12" d="M1511.1,551.7c3.8,1.1,6.3,3.6,5.8,5.5"/><path class="cls-2" d="M1580.6,569c7.1-5.4,13.4-6.7,20.6-19.3,3.5-6.1,8.2-3.6,8.2,3.9,0,14.3-14.6,27.6-25.3,29.2-4.4.6-9.8-1.6-9.4-6"/><path class="cls-5" d="M1527.2,533.9a18.21,18.21,0,0,1-3.7,7.5,17.58,17.58,0,0,1,3.4-15.9A17.05,17.05,0,0,1,1527.2,533.9Z"/><path class="cls-5" d="M1549.5,541.8a17.63,17.63,0,0,1-3.7,7.5,17.58,17.58,0,0,1,3.4-15.9A17.05,17.05,0,0,1,1549.5,541.8Z"/><path class="cls-20" d="M1524.8,511.9c7.4,1,14.2,3.3,23,9"/><path class="cls-3" d="M1565.5,552.9c8.9-12.2,14.6-26.1,18.4-39.4,3.9-13.5,18.4-6.2,15.7,5.7-3.3,14.5-13.4,36.2-23.7,46.4C1567.4,573.9,1558.5,562.5,1565.5,552.9Z"/><path class="cls-2" d="M1563,564.9c13-16.1,24.6-41,28.9-60.9,1.7-7.8,13.5-5.3,11.8,2.4-4.6,21-18.3,49.6-31.9,66.6C1566.7,579.2,1558,571.1,1563,564.9Z"/><path class="cls-3" d="M1574,559.6c7.5-8.8,16.7-29.5,20-40.9,4.6-16.1,18.3-9.9,16.6,2.2-2,14.8-14.1,39.1-23.5,50.2C1579.3,580.1,1566.3,568.6,1574,559.6Z"/><path class="cls-2" d="M1514.7,956.7c-6.4.5-8.4,1.9-8.4,1.9"/><path d="M1500.7,672.9a116.18,116.18,0,0,1,5,19.5,191.67,191.67,0,0,1,2.5,20c.1,1.7.1,3.3.2,5l.1,2.5v7.5l-.2,5-.1,2.5c-.1.8-.1,1.7-.2,2.5l-.4,5c-.3,3.3-.8,6.7-1.2,10h-.4c-.4-3.4-.4-6.8-.6-10.1l-.2-5v-2.5l-.1-2.5c-.1-1.7-.2-3.3-.2-5l-.3-4.9c-.1-.8,0-1.6-.1-2.5l-.1-2.5-.3-4.9-.3-4.9c-.1-1.6-.3-3.3-.4-4.9s-.2-3.3-.4-4.9l-.4-4.9c-.7-6.6-1.4-13.1-2.3-19.9Z"/><ellipse class="cls-21" cx="160.2" cy="487" rx="30.7" ry="38.8"/><ellipse class="cls-21" cx="233.6" cy="470.4" rx="43.8" ry="55.4"/><ellipse class="cls-21" cx="174" cy="487" rx="30.7" ry="38.8"/><ellipse class="cls-21" cx="247.5" cy="470.4" rx="43.8" ry="55.4"/><path class="cls-21" d="M193.9,478.1c3.7,14.7-2.2,30.5-13.2,35.5l-4-15.7c-1.5-6,.9-12.5,5.4-14.5Z"/><path class="cls-21" d="M167.3,460.5c11-4.9,22.9,2.9,26.6,17.6l-11.8,5.3c-4.5,2-9.3-1.2-10.8-7.2Z"/><path class="cls-21" d="M167.3,460.5l4,15.7c1.5,6-.9,12.5-5.4,14.5L154.1,496C150.5,481.3,156.4,465.4,167.3,460.5Z"/><path class="cls-21" d="M180.7,513.6c-11,5-22.9-2.9-26.6-17.6l11.8-5.3c4.5-2,9.3,1.2,10.8,7.2Z"/><path class="cls-21" d="M215.5,486.5c6.8,23,26.6,34.5,44.3,25.7L250.6,481c-1.7-5.8-6.7-8.7-11.1-6.5Z"/><path class="cls-21" d="M235.2,428.7c-17.7,8.9-26.5,34.8-19.7,57.8l23.9-12c4.4-2.2,6.7-8.8,5-14.5Z"/><path class="cls-21" d="M235.2,428.7l9.2,31.2c1.7,5.8,6.7,8.7,11.2,6.5l23.9-12C272.7,431.3,252.8,419.8,235.2,428.7Z"/><path class="cls-21" d="M259.8,512.1c17.7-8.9,26.5-34.7,19.7-57.8l-23.9,12c-4.4,2.2-6.7,8.8-5,14.5Z"/><polygon class="cls-14" points="253.1 542.4 281.3 518.6 319.5 518.6 253.1 542.4"/><polygon class="cls-14" points="253.1 575.6 281.3 599.2 319.5 599.2 253.1 575.6"/><rect class="cls-21" x="223.2" y="724" width="13.3" height="69"/><path class="cls-21" d="M223.3,793.1h13.2L191.1,988.5c-.3,1.3-2.6,2.2-3.9,2.2h0c-1.8,0-4-1.1-3.6-2.9Z"/><path class="cls-21" d="M236.7,793.1H223.2L331.5,993.2a8.71,8.71,0,0,0,4.6,2.7h0a3.08,3.08,0,0,0,3.1-2.9,2.82,2.82,0,0,0-.4-1.5Z"/><path class="cls-21" d="M223.2,793.1h12.7L125.7,994.3a3,3,0,0,1-2.7,1.6h0a3.08,3.08,0,0,1-3.1-2.9,2.82,2.82,0,0,1,.4-1.5"/><ellipse cx="212.3" cy="995.7" rx="140.3" ry="8"/><polygon class="cls-21" points="320.9 518.6 320.9 600.3 270 583.5 270 539.9 320.9 518.6"/><rect class="cls-21" x="149.7" y="522.2" width="120.6" height="74.6"/><rect class="cls-21" x="218.6" y="596.8" width="22.1" height="10"/><rect class="cls-21" x="138.8" y="522.2" width="46.9" height="74.6"/><line class="cls-22" x1="469.8" y1="870.7" x2="497.3" y2="995.2"/><line class="cls-22" x1="412" y1="870.7" x2="375.5" y2="995.2"/><path class="cls-14" d="M671.5,872.2s25.2-44,46.2-47.8,22,13,6.1,30.9a441.49,441.49,0,0,0-30.4,39.2l-8.4,3.9,3.2,6s-5.7,16.6-15.5,15.1-14.5-19.7-14.5-19.7"/><path class="cls-14" d="M709.3,758.1c6.8-21.8-3.1-51.3,4.2-63,9.8-15.7,25-5,27.5,13.1s1.2,35.9-2.8,54c-2,3-4.3,5.8-6.5,8.7,1.9,1.2,3.7,2.1,5.6,3.3.2,7,1.3,17.8-6.1,21.3s-16.9-2.7-22.1-7.8"/><path class="cls-14" d="M469.3,870.8S290.1,890.1,535,888.5c57.1-.4,67.7-17.7,67.7-17.7Z"/><path class="cls-2" d="M424.5,707.6c-43.3,1.3-52.4-104.2-33.5-164.9-7.1-8.9-18.5-9.5-28.1-10.5-21.5,55.9-31.3,138.9,20.3,212.4,32.5,46.4,11.5-17.8,28.7-15"/><circle class="cls-14" cx="474.5" cy="655" r="4.7"/><polyline class="cls-22" points="369.2 752.5 383.6 870.7 491.6 870.7"/><path class="cls-14" d="M383.6,870.8s8.6,17,65.7,17,67.7-17,67.7-17Z"/><path class="cls-2" d="M409.3,848.8l140.5-38.6a33.79,33.79,0,0,1,23.2,1.9L669.8,857c8.5,3.3,11.6,13.1,7.2,21.2l-7.3,13.6c-3.7,6.8-12.5,9.5-19.7,6.7L549.3,858.3,459,888.7"/><path class="cls-2" d="M451.3,891c41.5,5.2,144.8-72.6,144.8-72.6L719.8,800a48.49,48.49,0,0,0-9.6-46.2L592.4,768.3a55.3,55.3,0,0,0-21.7,7.3l-86.2,50.2s-2,16.3-8.1,24.2-61.5,9.5-76.1,5.5c0,0,9.6,44.9,35.6,31.3C436,886.8,439.8,889.5,451.3,891Z"/><path class="cls-2" d="M412,708.4a80,80,0,0,1,16-3.4,173.27,173.27,0,0,1,19.1-1c34.3,0,40.3,33.9,44.5,66.6,7.5,58.4,7.5,77.4-8.9,88.6-10.6,7.3-72.3,8.7-82.3-3.8,0,0-14.6-46.4-17.3-95.6a75.91,75.91,0,0,1,1.6-21.8"/><path class="cls-14" d="M510.6,820.5s-33.4,3.5-75.9,3.5c-27.1,0-57.4-3.5-57.4-3.5l-8.1-68a493.84,493.84,0,0,0,55.6,3.4c40.7,0,77.7-3.4,77.7-3.4Z"/><polyline class="cls-22" points="502.5 752.5 516.9 870.7 624.9 870.7"/><path class="cls-2" d="M383.8,487.4s3.7-7.7,6.7-13.8c6.2-12.5,13.7-2.4,9.7,5.6-1.5,3-12.3,25.9-12.3,25.9"/><path class="cls-2" d="M390.5,512.4c4.8,1.4,1.3-11.1,9.7-8.1,6.6,2.3,7.2,18.6-13.8,23.6-5.3,1.2-1.3,9.1-1.3,9.1s-10.5,2-15.7-3.2l.4-5.4s-2.8-12.6-2.2-19.8c1.1-13.6,10.9-9.4,16.3-21.3"/><polygon class="cls-2" points="400.1 503.9 358.5 480.3 366.5 469.9 402.5 500 400.1 503.9"/><path class="cls-2" d="M386.4,500.9s11.3-23,15.2-28.6,10.2-.2,8.4,5.4c-1,3.1-19.5,34.8-19.5,34.8"/><path class="cls-2" d="M526.1,688s-4.6-21.3,17.6-22.1c13.5-.4,19.4,7.5,19,14.2-.5,9.3-5.4,35.1-5.4,35.1s-4.2,11.2-21.5,4.5a9,9,0,0,1-5.5-6.7h0Z"/><path class="cls-2" d="M526.3,736.1s1.7-10.3-.7-13.1-4.4-16.6,2.7-17.3L532,717s1.7.6,4.2,1.2a17.79,17.79,0,0,0,21.1-11.4,15.41,15.41,0,0,1,2.4-5c2.6-2.7,9.6,6.6,7.1,19.6s-21.7,20.7-21.7,20.7"/><path class="cls-2" d="M455.7,704.8c68.8-4.3,71.4,75.5,72,96.8,0,0-.1-5.9-1.6-21.9a108.71,108.71,0,0,0-4.5-23.7l2.9-21s31.9-2.7,30.8,11.4c-1.3,15.9-2,77-18.8,89.1-5,3.5-19.3,3.6-24.2-.9-25.4-23.2-36.5-97.2-36.5-97.2"/><path class="cls-12" d="M538.4,672l-1.6-23.2a17.38,17.38,0,0,0-8.6-13.8l-11.6-6.7"/><ellipse class="cls-23" cx="542.92" cy="672.62" rx="8" ry="2.2" transform="translate(-52.3 45.81) rotate(-4.61)"/><line class="cls-22" x1="530.9" y1="870.7" x2="506" y2="995.2"/><line class="cls-22" x1="602.6" y1="870.7" x2="630.2" y2="995.2"/><path class="cls-2" d="M410.7,621.5s-9.2-64-8-82.6,20.4-22.7,23.6-7.1c1.8,8.8,4.9,95.4,4.9,95.4"/><path class="cls-2" d="M412,708.4l3.2-14.6s-20.7-28.1-20.6-46.6c0-26.3,20-30.4,35.8-31s44.1,33,44.1,46.1-8.4,18-18.8,27.1,9.1,16.1,9.1,16.1S446.7,717,412,708.4Z"/><path class="cls-14" d="M391.6,633.2c-.9-3.5,3.5-19.8,9.8-26.1,15-14.6,58.7-8.9,62.8-3.3,8.1,11.1-31.5,10.5-41.9,18.4C413.6,628.8,394.5,644.5,391.6,633.2Z"/><path class="cls-2" d="M426.2,626.1s2.5-64.7,12.4-89.9c8.2-21,33.8-17.7,27.9.7-10.9,33.9-18.9,91.9-18.9,91.9"/><path class="cls-12" d="M526.1,688s10.3,4.4,21.2,2"/><path class="cls-24" d="M555.8,687.8a13,13,0,0,0,6.8-4.7"/><polygon class="cls-2" points="413.9 794.9 406.4 799.6 407.2 789.5 400.4 782.4 409 780.9 412.3 771.7 416.8 780.9 425.6 782.4 419.8 789.5 422 799.6 413.9 794.9"/><ellipse cx="492.8" cy="995.5" rx="175.5" ry="8.2"/><ellipse class="cls-25" cx="360" cy="475.99" rx="6" ry="4.3" transform="translate(-233.9 534.65) rotate(-58.54)"/><path d="M598.5,812c9.4-2.6,18.9-4.6,28.4-6.4,4.8-1,9.5-1.7,14.3-2.5s9.6-1.5,14.3-2.2,9.6-1.3,14.4-1.8,9.6-1.1,14.5-1.5c9.6-.9,19.3-1.6,29.1-1.7h0a.22.22,0,0,1,.2.2h0a.22.22,0,0,1-.2.2L656,804.5l-57.5,7.9a.22.22,0,0,1-.2-.2c.1-.1.1-.2.2-.2Z"/><path d="M428,875.8a24.21,24.21,0,0,0,8.5,4.9,39.61,39.61,0,0,0,4.6,1.3,20,20,0,0,0,2.4.4l2.4.3,4.8.3h2.4l2.4-.1a80,80,0,0,0,9.7-1.1c1.6-.2,3.2-.5,4.9-.8s3.2-.7,4.9-1.1c3.3-.7,6.5-1.6,9.7-2.4,6.5-1.7,13-3.7,19.8-5.3V872c.1,0,.2.3.2.4s0,.2-.1.2a193.6,193.6,0,0,1-18.9,7.9,123,123,0,0,1-19.8,5.3,61.34,61.34,0,0,1-20.5.1,34.35,34.35,0,0,1-9.8-3.3,21.86,21.86,0,0,1-7.9-6.6c-.1-.1,0-.2,0-.3h0a.77.77,0,0,1,.3.1Z"/><path d="M433,883.5a11.8,11.8,0,0,1-4,1.7,8.54,8.54,0,0,1-4.2-.1,15.08,15.08,0,0,1-6.6-3.5,29,29,0,0,1-4.8-5.1,43.45,43.45,0,0,1-3.8-5.7,54.39,54.39,0,0,0,4.7,4.9,26.59,26.59,0,0,0,5.4,3.9,12.86,12.86,0,0,0,5.7,1.9,5.84,5.84,0,0,0,4.6-1.9,2.42,2.42,0,0,1,3.5.1,2.54,2.54,0,0,1-.1,3.6.76.76,0,0,0-.4.2Z"/><polyline points="546.3 851.8 651.2 894 551.2 849.2"/><path class="cls-2" d="M550.7,671.6a3.12,3.12,0,0,1-5.8-.8c-1.2-5.9-2.2-13.8-.5-20.1,3.2-11.5,7.2-5.1,7.2-5.1s7.3-25.3,15-25.1-4.3,21-4.3,21,7.9-1.8,4.7,5.4C564.4,652.7,556.7,660.8,550.7,671.6Z"/><line class="cls-26" x1="229.9" y1="722.6" x2="229.9" y2="598.7"/><ellipse cx="1052.3" cy="952.3" rx="286.3" ry="6.4"/><path d="M778.5,834.3c.5-1.4.8-2.6,1.3-3.8a35.39,35.39,0,0,1,1.6-3.4,47.84,47.84,0,0,1,3.8-6.1,54,54,0,0,1,9.7-10,19.43,19.43,0,0,1,5.8-3.6,11.33,11.33,0,0,1,3.6-.6c1.3,0,2.5-.1,3.8,0a21.33,21.33,0,0,0,7.1-.9l6.2-2.7a187,187,0,0,1,26.3-9.4,90.25,90.25,0,0,1,14.5-2.7,78.22,78.22,0,0,1,15.3,0,68.22,68.22,0,0,1,29.3,10.3,89.38,89.38,0,0,1,22.9,20.9,124.82,124.82,0,0,1,14.6,25c3.8,8.4,6.8,16.8,9.5,24.8s5.3,15.8,8,23c1.4,3.6,2.8,7,4.4,10.2a55.71,55.71,0,0,0,5,8.5,32,32,0,0,0,5.5,6.1,22.22,22.22,0,0,0,6.3,3.7,27.34,27.34,0,0,0,8,1.8c.7.1,1.5.1,2.3.2a16.13,16.13,0,0,0,2.2,0,18.1,18.1,0,0,0,4-.4,24.62,24.62,0,0,0,7.1-2.3,28.29,28.29,0,0,0,6.6-4.9c4.3-4.2,8.3-10.2,12.2-16.9s7.6-14.2,12-22c2.2-3.9,4.6-7.8,7.3-11.8a82.85,82.85,0,0,1,9.7-11.6,56.34,56.34,0,0,1,13.4-9.8,51.22,51.22,0,0,1,16.2-5.2,44.63,44.63,0,0,1,8.2-.5c1.3,0,2.7.1,4,.1a20,20,0,0,1,4.1.5,46.27,46.27,0,0,1,16.2,5.4,50.11,50.11,0,0,1,13,10.3,72.52,72.52,0,0,1,9,12.2,177.49,177.49,0,0,1,11.5,24.4c3.2,7.9,6.1,15.4,9.3,22.2s7.1,12.4,11.4,15.5a18.16,18.16,0,0,0,7,3c.3.1.7.1,1,.2s.7.1,1,.1c.7,0,1.4.1,2.1.1a14.82,14.82,0,0,0,10.4-4,36.33,36.33,0,0,0,6.5-7.6c4.2-6.1,8-13.5,12.7-21a109,109,0,0,1,7.9-11.3,53.15,53.15,0,0,1,11-10.2,40.51,40.51,0,0,1,22.3-6.9h1.9c.7,0,1.5.1,2.2.1a26.61,26.61,0,0,1,12.5,4.5,34.14,34.14,0,0,1,6.1,5.3,63.84,63.84,0,0,1,8.2,11.8c4.3,8,7.4,15.9,10.6,23.5,1.6,3.8,3.2,7.5,5,10.9a40.06,40.06,0,0,0,5.8,8.9,12.18,12.18,0,0,0,3.1,2.5,6.81,6.81,0,0,0,3.1.8c2.3.1,5.4-1.1,8.4-3.1a55.32,55.32,0,0,0,8.8-7.2,114.13,114.13,0,0,0,8.1-8.8h0a5.33,5.33,0,0,1,7.4-.6,5.27,5.27,0,0,1,.8,7.1,129.34,129.34,0,0,1-8.3,10,67.69,67.69,0,0,1-10.1,9.2,38.13,38.13,0,0,1-6.5,3.8,23.5,23.5,0,0,1-8.2,2,19.88,19.88,0,0,1-9-1.8,27.54,27.54,0,0,1-6.9-4.8,50.37,50.37,0,0,1-8.5-11.5c-2.2-3.9-4.1-7.8-6-11.6-3.6-7.6-7-15.1-10.9-21.7a44,44,0,0,0-6.4-8.5,14.06,14.06,0,0,0-6.8-4.1,9.85,9.85,0,0,0-1.7-.2h-.9l-1.2.1a24.3,24.3,0,0,0-4.7.8,23,23,0,0,0-8.2,3.9c-5,3.7-9,9.8-12.8,16.7s-7.2,14.6-12.2,22.5a62.15,62.15,0,0,1-9.3,11.7,42.82,42.82,0,0,1-6.7,5.2,34.53,34.53,0,0,1-8.1,3.6,41.88,41.88,0,0,1-8.6,1.5,29.44,29.44,0,0,1-4.2,0c-.7,0-1.4-.1-2.1-.1a14.92,14.92,0,0,1-2.1-.2,39.39,39.39,0,0,1-16.1-6,49.36,49.36,0,0,1-11.8-11,86.64,86.64,0,0,1-7.9-12.1c-4.4-8.1-7.7-16-11.1-23.5s-6.7-14.6-10.5-20.5a45.93,45.93,0,0,0-6.1-7.7,23.16,23.16,0,0,0-6.7-4.9,22.14,22.14,0,0,0-7.5-2.1,30.89,30.89,0,0,0-8.6.3c-5.4,1-9.7,3.5-14,8s-8,10.6-11.7,17.4-7.1,14.5-11.3,22.3c-2.1,3.9-4.4,8-7,12a84.05,84.05,0,0,1-9.5,11.9,57.28,57.28,0,0,1-13.2,10.3,53.38,53.38,0,0,1-16.3,6,60.13,60.13,0,0,1-8.4,1c-1.4.1-2.8.1-4.1.1s-2.6,0-4-.1a61.84,61.84,0,0,1-16.5-3.2,58.71,58.71,0,0,1-8.1-3.6,51.7,51.7,0,0,1-7.3-4.9,62.77,62.77,0,0,1-11.6-12,95.48,95.48,0,0,1-8-12.9c-2.2-4.3-4.1-8.5-5.8-12.7-3.4-8.3-6.2-16.4-9-24.1s-5.6-15-8.8-21.7a88.31,88.31,0,0,0-10.9-17.9,54,54,0,0,0-14.1-12.4,85.29,85.29,0,0,0-17.1-7.5,74.84,74.84,0,0,0-9.6-2.4,71.82,71.82,0,0,0-10.4-1,64.38,64.38,0,0,0-21.7,3.8,48.67,48.67,0,0,0-5.3,2.1,11.08,11.08,0,0,0-4.2,4.4l-1.8,2.8a10.59,10.59,0,0,1-1.9,2.3c-1.4,1.3-3.2,1.9-5,2.7a76.77,76.77,0,0,1-11.2,3.6,61.89,61.89,0,0,1-6.2,1.3c-1.1.2-2.2.3-3.3.5a20.55,20.55,0,0,1-3.5.2l-1.9-.1a7.29,7.29,0,0,1-6.9-7.7h0A4.4,4.4,0,0,1,778.5,834.3Z"/><path d="M1339.4,926.6c-5.6.8-13.1-2.5-17.6-5.7,9.2.1,18.7-1.7,26.8-6.5-2.5,9-1.1,18.6,1.1,27.6C1345.2,938.1,1340.4,932.6,1339.4,926.6Z"/><path class="cls-13" d="M907.2,808.8a70.9,70.9,0,0,1,14.9,13.5,99.29,99.29,0,0,1,11.1,17,160.19,160.19,0,0,1,8.2,18.5c2.4,6.3,4.5,12.7,6.6,19s4.1,12.7,6.5,18.8a97.89,97.89,0,0,0,8.4,17.6,39.35,39.35,0,0,0,13.5,13.4,32.18,32.18,0,0,0,9.1,3.4c.8.2,1.6.3,2.4.5l2.5.3,2.5.2,2.5.1a42.57,42.57,0,0,1-10.1.2,33.46,33.46,0,0,1-18.7-8.2,42.84,42.84,0,0,1-6.9-7.8,85,85,0,0,1-9.6-18.1c-2.6-6.3-4.7-12.7-6.8-19s-4.1-12.7-6.3-18.9-4.6-12.4-7.3-18.4a111.18,111.18,0,0,0-9.6-17.2A82.66,82.66,0,0,0,907.2,808.8Z"/><path class="cls-13" d="M1111.3,849.5a43.69,43.69,0,0,1,12.6,8.7,58.29,58.29,0,0,1,9.5,12.1c5.4,8.8,9.2,18.3,12.8,27.7,1.8,4.7,3.6,9.3,5.5,13.9a80.4,80.4,0,0,0,6.8,13,35,35,0,0,0,10.1,10.2l.8.5.8.4,1.6.8c1.1.5,2.3.9,3.4,1.4a21.24,21.24,0,0,0,3.6,1l3.7.7c-1.3,0-2.5.1-3.8.1a23.28,23.28,0,0,1-3.8-.4c-1.2-.3-2.5-.5-3.8-.9l-1.8-.7-.9-.3-.9-.4a37.18,37.18,0,0,1-3.4-1.9c-.5-.4-1.1-.7-1.6-1.1L1161,933a36.45,36.45,0,0,1-5.4-5.7,69.07,69.07,0,0,1-8-13.3c-2.2-4.6-4.1-9.4-5.9-14-3.6-9.4-7-18.8-11.5-27.5a77.13,77.13,0,0,0-8-12.4A60.59,60.59,0,0,0,1111.3,849.5Z"/><path class="cls-27" d="M1319.4,872c0,3.7-30.3,6.7-67.8,6.7s-67.8-3-67.8-6.7Z"/><path class="cls-27" d="M1308.6,872c0-30.7-25.4-55.6-56.9-55.6s-56.8,24.9-56.8,55.6Z"/><path class="cls-27" d="M1258.8,810c0,3.5-3.2,6.4-7.1,6.4s-7.1-2.9-7.1-6.4Z"/><path class="cls-27" d="M1159.6,837.6c0,3.7-30.3,6.7-67.8,6.7s-67.8-3-67.8-6.7Z"/><path class="cls-27" d="M938.7,785.6c0,3.7-30.3,6.7-67.8,6.7s-67.8-3-67.8-6.7Z"/><line class="cls-28" x1="884.3" y1="717.1" x2="891.4" y2="694.2"/><polygon class="cls-28" points="857.2 683.5 926.9 705.7 894.8 683.5 857.2 683.5"/><path class="cls-27" d="M897.5,717.6c-.2-.1-.7-.3-1.2-.5,0-.1.1-.3.1-.4a7.14,7.14,0,0,0-3.4-8.2,11.8,11.8,0,0,0-8.9-1,4.67,4.67,0,0,0-.5-1,9.83,9.83,0,0,0-3.7-3.6,10.75,10.75,0,0,0-10,.8c-.6.4-3.2,2.5-2.9,2.5,0,0-3.2-1.7-4.3-2.1a11.36,11.36,0,0,0-10.7,1.4,16.17,16.17,0,0,0-3.2,3.2c-.4.5-.9,1.6-1.4,1.9-1,.6-.4.1-1.5.3-4.4.6-7.8-.1-10.8,3.7-1.5,2-1.3,6.1-2.9,7.5-3.8,3.3-1.2,8,2.8,9.2a6.42,6.42,0,0,0,1.8,2.5c3.3,2.7,8.7,2.4,12.8,2,2.3-.3,4.5-.5,6.5-.7,2.8.3,5.6.7,8.4.8,2.4.1,4.7.2,7.1.2a38.6,38.6,0,0,0,6.8,0c3.3-.1,6.5-.2,9.8-.4a5.92,5.92,0,0,0,5-2.9,12.26,12.26,0,0,0,3.3-.8C903.1,728.9,903.8,721,897.5,717.6Z"/><path class="cls-27" d="M858.2,785.6c-39,0-43.4-10.5-46-28-2.5-17.3,15.8-34.8,15.8-34.8h77.1s9.7,15.6,10.4,39.2c14.5,13.1,7.8,22.1,0,17.8l2,5.8H858.2l-.5-6.8s-8,4.7-12.3,1.2c-6.6-5.5,6.4-16.8,6.4-16.8"/><ellipse class="cls-29" cx="874.56" cy="752.69" rx="7" ry="12" transform="translate(-131.89 188.38) rotate(-11.44)"/><ellipse class="cls-29" cx="899.16" cy="752.58" rx="7" ry="12" transform="translate(-131.39 193.26) rotate(-11.44)"/><polygon class="cls-30" points="886.5 773.6 896.7 773.6 888.5 761.7 886.5 773.6"/><line class="cls-28" x1="868.8" y1="785.6" x2="868.1" y2="778.8"/><line class="cls-28" x1="876.5" y1="785.6" x2="875.8" y2="778.8"/><line class="cls-28" x1="884.1" y1="785.6" x2="883.4" y2="778.8"/><line class="cls-28" x1="891.8" y1="785.6" x2="891" y2="778.8"/><line class="cls-28" x1="899.4" y1="785.6" x2="898.7" y2="778.8"/><line class="cls-28" x1="907" y1="785.6" x2="906.3" y2="778.8"/><path class="cls-28" d="M845.8,722.8l-7.4-47a5.87,5.87,0,0,0-6.7-4.9c-.2,0-.4.1-.7.1l-23.6,6.6"/><path class="cls-13" d="M871.9,742.1a4.74,4.74,0,0,1,3.5.6,8.09,8.09,0,0,1,2.5,2.7,19.74,19.74,0,0,1,1.9,13.9,6.55,6.55,0,0,1-1.9,3.2,5.56,5.56,0,0,1-1.7.9,5.44,5.44,0,0,1-1.8,0,4,4,0,0,0,1.5-.6,5.24,5.24,0,0,0,1-1.1,7.09,7.09,0,0,0,.9-2.8,22.24,22.24,0,0,0-.3-6.3,22.47,22.47,0,0,0-1.5-6.2A5.61,5.61,0,0,0,871.9,742.1Z"/><path class="cls-13" d="M896.8,742.1a4.74,4.74,0,0,1,3.5.6,8.39,8.39,0,0,1,2.6,2.7,19.74,19.74,0,0,1,1.9,13.9,6.55,6.55,0,0,1-1.9,3.2,5.56,5.56,0,0,1-1.7.9,5.44,5.44,0,0,1-1.8,0,5.07,5.07,0,0,0,1.5-.7,5.24,5.24,0,0,0,1-1.1,7.09,7.09,0,0,0,.9-2.8,22.24,22.24,0,0,0-.3-6.3,22.47,22.47,0,0,0-1.5-6.2A6.12,6.12,0,0,0,896.8,742.1Z"/><path class="cls-27" d="M1107.9,767.6a23.5,23.5,0,0,0-13.1,4,23.5,23.5,0,0,0-13.1-4c-14.6,0-26.4,11.6-26.4,32.4s21.3,36,30.9,36a12.24,12.24,0,0,0,8.6-4,12.24,12.24,0,0,0,8.6,4c9.6,0,30.9-15.2,30.9-36S1122.5,767.6,1107.9,767.6Z"/><path class="cls-27" d="M1099,746.9a57.76,57.76,0,0,0-4.2,24.7s-6.1-18.4-37.9-18.9c14.3,26,34.4,20.8,34.4,20.8"/><path d="M1097,827.7a8.47,8.47,0,0,0,6.2,1.2,13.78,13.78,0,0,0,5.5-2.5,24.33,24.33,0,0,0,2.5-2c.8-.7,1.6-1.5,2.4-2.2s1.6-1.7,2.4-2.5,1.6-1.7,2.3-2.5a51.73,51.73,0,0,0,4.2-5.1c.6-.8,1.2-1.7,1.8-2.6a24.37,24.37,0,0,0,1.4-2.8c.4-1,.8-2,1.1-3s.6-2.1.8-3.2c.5-2.2.7-4.6,1.2-7.1l.4-.1a58.47,58.47,0,0,1,.7,7.2,25.53,25.53,0,0,1-1,7.2,31.07,31.07,0,0,1-7.6,12.2,61.39,61.39,0,0,1-5.2,5,30.18,30.18,0,0,1-5.9,4.2,14.12,14.12,0,0,1-7,1.9,8.62,8.62,0,0,1-6.5-3.1Z"/><path class="cls-3" d="M1384.2,227.6s4.2-24.4,4.2-32.4-12.3-4.5-13.3-14.7,14.2-21.1,21.4-4.1c0,0,17.5-8.6,15.9,5.4s-12.4,4-12.6,21,.4,23.4.4,23.4"/><path class="cls-31" d="M1392.2,87.1a7.6,7.6,0,1,1-7.6,7.6h0"/><path d="M1394,102.2c0,2.7.1,5.5.2,8.2,0,1.4.2,2.7.2,4.1l.1,2,.1,1v.5a.76.76,0,0,0,.1.4c.2,1.9,1.7,3.4,3.7,5.2,1.1,1,2.1,2,3.1,3.1a15.58,15.58,0,0,1,1.6,2,19.65,19.65,0,0,1,1.3,2.5,13.09,13.09,0,0,1,.9,2.8,13.33,13.33,0,0,1,.3,2.8,14.59,14.59,0,0,1-1.1,5.8,12,12,0,0,1-3.8,5.1,11.7,11.7,0,0,1-5.9,2.6,12,12,0,0,1-6.2-.7,10.19,10.19,0,0,1-4.6-3.6,9.54,9.54,0,0,1-1.9-4.9,9.43,9.43,0,0,1,.6-4.7c.9,1.1,1.9,2.1,2.9,3.1a10,10,0,0,0,2.8,1.7,6.08,6.08,0,0,0,4.4-.1,4.68,4.68,0,0,0,2.4-2.4,14.16,14.16,0,0,0,.7-2.2,5.28,5.28,0,0,0,.1-1.2v-1.2c-.1-1.7-1.2-3.7-2.8-6.1-.8-1.3-1.6-2.6-2.3-4a11.25,11.25,0,0,1-1.2-5.1v-1.1l.1-1,.1-2c.1-1.4.2-2.7.2-4.1.1-2.7.2-5.5.2-8.2a1.71,1.71,0,0,1,1.9-1.6,1.48,1.48,0,0,1,1.8,1.3Z"/><path class="cls-2" d="M1369.1,315.3c22.8,6.5,24.3,47.3,44.2,57.3,9.8,5,16.4.2,20.6-5.9a45,45,0,0,0,4-15.3c3.9-39.6-22-73.5-29.5-99.1-8.1-27.6-8.1-27.6-9.8-26.2-5,.6-11.4,2.9-12.9.4a1.17,1.17,0,0,0-1.6-.5,1.24,1.24,0,0,0-.6.8c-2.4,8.6-8.4,28.3-17,40.6-7.6,10.8-19.2,33.6-20.9,55C1348.9,317.1,1355.6,311.5,1369.1,315.3Z"/><path class="cls-14" d="M1413.3,372.6c-19.9-10-21.4-50.9-44.2-57.3-13.5-3.8-20.2,1.8-23.4,7-.8,10.4.7,20.5,6.2,28.8,16.9,25.1,45.3,29.5,45.3,29.5s26,7.4,36.6-13.8C1429.7,372.8,1423.1,377.5,1413.3,372.6Z"/><ellipse class="cls-32" cx="1374.88" cy="360.99" rx="3.7" ry="12.4" transform="translate(262.36 1245.82) rotate(-53.21)"/><path d="M1422.6,367.2a10.44,10.44,0,0,0,2.8-2.3,15.35,15.35,0,0,0,2.1-2.9,18.54,18.54,0,0,0,2.2-6.5,41,41,0,0,0,.3-7c0-1.2-.2-2.4-.2-3.6l-.4-3.6a156.34,156.34,0,0,0-6.7-28.6c-1.5-4.7-3.3-9.4-5-14l-5.3-14.1c-1.8-4.7-3.5-9.4-5.1-14.3a83,83,0,0,1-3.6-14.9l.4-.1a104.1,104.1,0,0,0,5,14.2c1.9,4.6,4,9.2,6,13.9,4.1,9.2,8,18.5,11.3,28.1a125.44,125.44,0,0,1,6.4,29.5c.3,5,.6,10.2-.8,15.1a18.72,18.72,0,0,1-3.3,6.8,13,13,0,0,1-6,4.6Z"/><polyline class="cls-12" points="1387.8 202.2 1399.7 208.4 1393.7 141.8 1389.7 168.3"/><path class="cls-12" d="M1392.2,92.6c-7.1-2.7-13.2-6-.5-11.2V3.9"/><path class="cls-2" d="M1462,122.8c5.6-6.3,16.7,2.7,11.1,10.3-5.3,7.2-7.8,19-6.6,28s-12.5,13-14.3,4.6C1449,150.5,1451.8,134.3,1462,122.8Z"/><path class="cls-2" d="M1453.7,174.4c3.9-8.1,17.6-3,14,6.4-3.4,8.9-1.7,20.3,3.3,28.3s-6.4,17.9-11.8,10.7C1449.4,206.7,1446.5,189.2,1453.7,174.4Z"/><path class="cls-31" d="M1472.5,66.2a7.55,7.55,0,1,1-7.5,7.6v-.1"/><path d="M1474.3,81.4c0,2.7.1,5.4.2,8.2,0,1.4.2,2.7.2,4.1l.1,2,.1,1v.5a.76.76,0,0,0,.1.4c.2,1.9,1.7,3.4,3.7,5.2,1.1,1,2.1,2,3.1,3.1a15.58,15.58,0,0,1,1.6,2,19.65,19.65,0,0,1,1.3,2.5,13.09,13.09,0,0,1,.9,2.8,13.33,13.33,0,0,1,.3,2.8,14.59,14.59,0,0,1-1.1,5.8,12,12,0,0,1-3.8,5.1,11.7,11.7,0,0,1-5.9,2.6,11.47,11.47,0,0,1-6.1-.7,10.75,10.75,0,0,1-4.6-3.6,9.54,9.54,0,0,1-1.9-4.9,9.43,9.43,0,0,1,.6-4.7c.9,1.1,1.9,2.1,2.9,3.1a10,10,0,0,0,2.8,1.7,6.08,6.08,0,0,0,4.4-.1,4.68,4.68,0,0,0,2.4-2.4,8.08,8.08,0,0,0,.7-2.2,5.28,5.28,0,0,0,.1-1.2,4.87,4.87,0,0,0-.1-1.2c-.1-1.7-1.2-3.7-2.8-6.1a31.83,31.83,0,0,1-2.3-4,11.25,11.25,0,0,1-1.2-5.1V97l.1-1,.1-2c.1-1.4.2-2.7.2-4.1.1-2.7.2-5.4.2-8.2a1.71,1.71,0,0,1,1.9-1.6,1.48,1.48,0,0,1,1.8,1.3Z"/><path class="cls-2" d="M1483.8,114.5c-9.3-4.4-16.3,9.9-7,14.3,8.8,4.2,13.8,15.2,10.1,24.5-3.8,9.5,10.4,16.5,14.3,7C1508.1,143.1,1500.8,122.5,1483.8,114.5Z"/><path class="cls-2" d="M1495.2,166.1c-6.3-7.5-17.3,2.2-11.3,10.7,5.7,8.1,7.8,19.6,3.4,28.7s6.9,18.2,12.2,9.6C1509,199.6,1506.8,180,1495.2,166.1Z"/><path class="cls-2" d="M1494.8,221c-3.9-8.4-16.8-1.6-13.3,8.2,3.3,9.3,2.9,22.9-.4,32.3s8.9,17.6,12.7,8.9C1500.7,254.9,1501.9,236.4,1494.8,221Z"/><path class="cls-2" d="M1499.1,272.6c-6.1-7.9-17.3.6-12,9.5,5,8.5,3.7,19.7-2.5,27.3s3.1,18.9,10.1,11.7C1507.2,308.1,1510.3,287.1,1499.1,272.6Z"/><path class="cls-2" d="M1497.4,325.9c-6.5-7.9-19,2-12.4,9.9,6.2,7.5,6,19.7-1.3,26.5s2.4,19.4,9.9,12.4C1507.2,362.2,1509.4,340.5,1497.4,325.9Z"/><path class="cls-2" d="M1496.9,379.2c-5-7.9-17.4-.1-12.5,9.3,4.6,8.9,4.6,21.4,1,30.9s8.8,17.9,12.9,9.3C1505.8,413,1506,393.8,1496.9,379.2Z"/><path class="cls-12" d="M1472.8,71.9c-7.1-2.7-13.2-6-.5-11.2V4.1"/><path class="cls-3" d="M265,159.7c-19.7-9.4-43.9-3.3-54.4,16.7a40,40,0,0,0-4.4,15.5l-.5-.2c-19.7-9.4-43.9-3.3-54.4,16.7-9.9,18.6-3,45.1,16.7,54.5a34.13,34.13,0,0,0,6.3,2.4,38.25,38.25,0,0,0-7.2,9.7c-9.9,18.6-3,45.1,16.7,54.4,19.3,9.1,42.9,3.4,53.8-15.6,19.5,8.6,42.9,2.3,53.2-17.2a41.11,41.11,0,0,0,3.2-29,39.43,39.43,0,0,0,15.3-15.8c9.9-18.6,3-45.1-16.7-54.5a51.24,51.24,0,0,0-6.5-2.5C285.9,180.4,278.4,166.1,265,159.7Z"/><path class="cls-3" d="M123.1.4c-10.5,17.1-13.1,39.2-3.2,57.3,15.2,27.7,48.3,41.2,77.7,27.8,15.9,27,49.2,39.7,78.4,25.4,13.2-6.5,23.4-18.3,28.8-31.9a57.57,57.57,0,0,0,31.9-5.6c25.9-12.8,40.4-46.2,29.8-73.5"/><path class="cls-3" d="M298.1,359.6c-8.9,4.6-13.4,15.1-9.1,24.5a17.5,17.5,0,0,0,4.5,5.9l-.2.1c-8.9,4.6-13.4,15.1-9.1,24.5,4,8.8,15.6,13.6,24.5,9a22.61,22.61,0,0,0,2.6-1.6,20,20,0,0,0,1.5,5.3c4,8.8,15.6,13.6,24.5,9s13.2-14.7,9.3-24c8.5-4.7,12.8-15,8.5-24.2a18.91,18.91,0,0,0-9.7-9.2,17.23,17.23,0,0,0-1.5-10c-4-8.8-15.6-13.6-24.5-9a15.29,15.29,0,0,0-2.7,1.7C311.5,357.7,304.2,356.5,298.1,359.6Z"/></g></g></svg>