<?xml version="1.0" encoding="utf-8"?>
<!-- Generator: Adobe Illustrator 25.2.1, SVG Export Plug-In . SVG Version: 6.00 Build 0)  -->
<svg version="1.1" id="Layer_1" xmlns="http://www.w3.org/2000/svg" xmlns:xlink="http://www.w3.org/1999/xlink" x="0px" y="0px"
	 viewBox="0 0 1081.2 603" style="enable-background:new 0 0 1081.2 603;" xml:space="preserve">
<style type="text/css">
	.st0{fill:#FFFFFF;stroke:#000000;stroke-width:2.6;stroke-linecap:round;stroke-linejoin:round;}
	.st1{fill:#FFFFFF;}
	.st2{fill:none;stroke:#000000;stroke-width:2.6;stroke-miterlimit:10;}
	.st3{stroke:#000000;stroke-width:2.6;stroke-miterlimit:10;}
	.st4{stroke:#000000;stroke-width:2.6;stroke-linecap:round;stroke-linejoin:round;}
	.st5{fill:#FFFFFF;stroke:#000000;stroke-width:2.6;stroke-miterlimit:10;}
	.st6{stroke:#000000;stroke-width:2.6;stroke-linejoin:round;}
	.st7{fill:#FFFFFF;stroke:#000000;stroke-width:2.6;stroke-linejoin:round;}
	.st8{fill:none;stroke:#FFFFFF;stroke-width:2;stroke-linecap:round;stroke-miterlimit:10;}
	.st9{fill:none;stroke:#FFFFFF;stroke-width:2.6;stroke-miterlimit:10;}
</style>
<g id="Layer_2_1_">
	<g id="Layer_1-2">
		<g>
			<path class="st0" d="M1042.7,339.2c0,0,1.2,10.7,14.6,6.2s11.3-22.2,7.2-55.4s-10.5-87.6-31.7-82.2c-23.7,6,3,51.1,1.8,87.4"/>
			<path class="st0" d="M1038.6,339.2c0,0,1.2,10.7,14.6,6.2s11.3-22.2,7.2-55.4s-10.5-87.6-31.7-82.2c-23.7,6,3,51.1,1.8,87.4"/>
			<polygon class="st1" points="306.1,221.2 347.3,337.7 486.8,256.3 480.1,216 536.3,175.5 613,169.9 565.8,130.7 			"/>
			<line class="st2" x1="17.5" y1="597" x2="1070.6" y2="597"/>
			<path class="st3" d="M857.9,419c3.7,22.4,2.3,41.6-0.7,59c-3,17.2-1.3,38.9-1.3,38.9l76.5-6.1l-18.9-146.5
				c0,0-64.2-12.7-68.7-10.4"/>
			<path class="st4" d="M101.6,391.5c0,0,1.8-5.1,11.1-3.3s18.8,13,42,9.6l-28.8,26L101.6,391.5z"/>
			<g>
				<circle class="st5" cx="125.7" cy="396.4" r="11.4"/>
				
					<ellipse transform="matrix(0.7103 -0.7039 0.7039 0.7103 -239.594 204.874)" class="st5" cx="129.1" cy="393.5" rx="6.3" ry="7.7"/>
				
					<ellipse transform="matrix(0.7103 -0.7039 0.7039 0.7103 -239.0441 205.2549)" class="st3" cx="129.8" cy="393" rx="2.2" ry="2.9"/>
			</g>
			<polyline class="st2" points="121.4,418.9 90.6,376.9 169.1,384.7 131.3,418.9 			"/>
			<path class="st3" d="M293,142c3.5,7-56.6,43.9-134.2,82.5S15.5,288.8,12,281.9s46.8-61,124.4-99.7S289.6,135.1,293,142z"/>
			
				<ellipse transform="matrix(0.8952 -0.4456 0.4456 0.8952 -78.4732 90.1703)" class="st5" cx="152.5" cy="212" rx="156.9" ry="14.1"/>
			<polyline class="st2" points="146.3,199.4 206.1,317 206.1,596.7 			"/>
			<path class="st2" d="M480.1,216c0,0,30.6-23.7,56.2-40.5c5.3-3.5,29.9,0,56.2-4.3"/>
			<path class="st5" d="M571.2,139c-7.7,1.8-6.8,27.5,0,26.5c28.6-3.8,63.7,19.5,71.5,27.5s12.2-32.1,6.5-34S581.2,136.6,571.2,139z
				"/>
			<path class="st5" d="M585.6,166.2c0.8,5.5,3.7,9.3,8.6,12.7c0,4.7,6.7,6,9,4.7c2.3,5.1,7.1,6.8,11.1,5.5c7.2,4.5,11.4,1.8,18-2
				c-13.5-3.3,0-23.5-18-29.9C606.2,154.3,583,148.1,585.6,166.2z"/>
			<path class="st5" d="M830.3,335.2c-11.9-21-18.7-51-24.2-78.5c-4.3-21.4-8.7-40.7-8.7-40.7s-20.5-4.1-19.1-17.6
				c2.2-21.1,23.9-19.6,39.2-60.3c8.4-22.2,48.5-26.2,39.2-3.9c-1.7,4-8,9.6-10.5,16.1c-3.5,9.3-6.4,37.6-10.5,49.7
				c-2.2,6.5-1,16.6,1.8,22.9l46.8,109.8c12.6,25.2,12.6,59.2-32.7,59.2h-15.5"/>
			<path class="st5" d="M148.3,450.2c0,0,85.3,43.4,90.9,37.1c13.4-15.2,98.4-103.8,98.4-103.8l49.1,28.7
				c0,0-101.7,108.1-131.1,115.8c-36,9.4-125.2-53.6-125.2-53.6s-14.9,1.8-19.8-3.2"/>
			<path class="st5" d="M130.7,435.5c0,0-3.2,16,7.6,20.3"/>
			<polyline class="st5" points="123.2,449 119.2,491.3 134.3,499.8 102.3,496.2 119.4,491.1 			"/>
			<g>
				<path class="st4" d="M318,270.5c7.5,51.9-3.7,114.4,5.6,166l100.7-18.6c22.7-5.8-17.4-23.2-29.2-13.5c-4-29.5,1.4-69.5-2.8-99.1
					c14-3.4,60.9-19.5,63.2-6c4.2,25,3.6,40.4,10.1,66.1l67.6-16.2c30.4-7.3-12.2-24.1-24.4-14.5c4.2-27.8,1-35.1,1-35.1"/>
				<path class="st5" d="M349.2,270.1c-1.2,11.8-2,34.5-2,34.5l-28.1,0.3l-0.1,11.4l29,0.2c0,0-0.8,41-3.9,66.9
					c101.3-25.5,106.9-78.5,167.2-76.1c7.8-31.5-3.2-25.3-40-19.7"/>
				<g>
					<path class="st5" d="M407.8,234l13.3-21h11.8l12.5,18.6C445.4,231.6,438.4,240.6,407.8,234z"/>
					<path class="st5" d="M347,224.7l-11.9,17.1c21.8-5.2,46.7,4.5,57.6,2.4c6.8-8.8,17.5-16.5,17.5-16.5l1.5,6.6
						c9.2,1.7,30.2,6.4,31.4-6.7c3.4,1.6,6.3,4.1,8.6,7.1c1.4,1.9,0.3,3.8,1.1,5.7s3.8,4,4,5.6c0.5,3.5,0.6,7.1,0.2,10.7
						c-0.3,2.5-2.5,5.2-3.7,8.2c-0.9,2.1-0.4,4.5-1.9,7c-5.4,9-50.7,19.9-63.3,21.6c-36.4,5-93.8,16.4-114.7-31.4
						c-23.5-53.6,64.3-101.8,86.6-100.2c143,10.4,120.1-69.8,240.8-30.6c0,0,11.7-7.8,25.9,3c11.5,8.8,18,21.6,6.3,21.6
						c-11,0-14.7-9.8-14.7-9.8s-16,9.8-28.8-4.1c0,0-12.4-6.3-18.3-3.2c-5.9,3.1-5.5,11-5.5,11"/>
					<path class="st2" d="M322.3,175.5c28.4,2,44,35.7,30.7,64.6"/>
					<path class="st2" d="M438.4,160.6c13.5,5.8,23,39.2,23,39.2c-18.2,8.5-60.5,15-83.7,13.1c-5.4-20.2-27.9-41.4-48.6-41.9"/>
					<path class="st5" d="M288.9,202.7c0,0,26.1-6.6,52.4,30.2"/>
					<path class="st2" d="M446.2,154.9c0,0,40.2,20.6,41.2,121.1"/>
					<path class="st5" d="M442.3,210.5c0,3.6-6.7,8-15,8s-15-4.4-15-8s6.7-5.2,15-5.2S442.3,206.9,442.3,210.5z"/>
					<line class="st2" x1="417.5" y1="210.4" x2="421.1" y2="210.4"/>
					<line class="st2" x1="433.4" y1="210.4" x2="437.1" y2="210.4"/>
					<line class="st2" x1="425.5" y1="208" x2="429.2" y2="208"/>
					<line class="st2" x1="425.5" y1="212.2" x2="429.2" y2="212.2"/>
				</g>
				<path class="st0" d="M389.2,135.6c0,0-0.7-1.9,3.7-4.1"/>
				<g>
					<path class="st0" d="M352,164.2c-0.1-27.8,0-72.2,0-72.2c-16.8,0.4-29.5-7.6-28.3-25.1c0.8-12.5,14-20.2,27.2-19.1
						c-0.7-9.7,1.6-21.3,12.4-24.8c21.2-6.8,37.5,8.6,37.5,8.6c15.1-12.9,30.9-12,41.4-5.1c8.2,5.4,6.5,19.2,0.7,26.9
						c14.9,3.6,24.1,13.3,21.9,25.5c-3.4,19-25.9,15.6-25.9,15.6v66.8c-1.8,25.6-45,25.9-70.2,14.2C362.6,172.5,357,168.7,352,164.2
						z"/>
					<path class="st4" d="M417.9,117.5c0.1,4.5,0.5,13,6.9,12.5c6.5-0.5,6.2-9,6.1-13.5s-0.4-12.9-6.9-12.4S417.8,113,417.9,117.5z"
						/>
					<path class="st4" d="M398.6,118c0.1,4.5,0.5,13.2,7,12.7s6.2-9,6-13.5s-0.4-13-7-12.7S398.6,113.5,398.6,118z"/>
					<path class="st0" d="M391,133.5c0,0,10.9,14.6,25.2,7.2"/>
				</g>
			</g>
			<rect x="400.8" y="418.9" class="st5" width="307.5" height="177.7"/>
			<rect x="708.2" y="418.9" class="st5" width="120.2" height="177.7"/>
			<rect x="433.9" y="429.1" class="st3" width="383.7" height="167.6"/>
			<g>
				<path class="st1" d="M432.4,595.1c-10.2-24.7,28.9-65.9,45.2-79c-6.3,12.1-11.8,26.1-7.7,39.8c3.9-7,8.6-13.4,14.1-19.2
					c11.8-12.4,24.7-23.5,36.4-35.9c-10.4,21.9-34.1,47.8-24.7,73.8c-1.1-16,10.1-30.6,19.7-42.4c11.4-14,24.6-26.8,34-42.4
					c-7.5,22.5-25.7,40.3-31.3,63.5c10-17.5,25.5-31.3,38.8-46.2c10.9-12.4,22.1-21.3,22.9-46.2c16.5,35.4-28.7,66.1-30.1,100.1
					c17.2-24.7,45-41.2,67.1-61c-9.3,19.9-27.3,39.8-27.1,62.9c12.3-32.7,47.9-50.6,64.3-80.9c-2.6,30.6-36.8,58.6-25.1,90.5
					c5.4-18.6,23.2-33,37.3-45.2c16.3-14.3,34.5-27.7,47.5-45.3c-6.9,31.1-51.4,63.3-35,97.6c-1.7-15.7,9.7-29.8,19.5-40.8
					c12.6-14.1,27.1-26.5,39.6-40.8c-9.7,21.9-32.3,45.5-27.3,71.3c7.7-14.6,21.5-25.8,34.1-36c-4,10.1-7,21.5-4.1,32.2
					c0.4,1.5,2.5,9.2,4.5,9.5s0.3,0.7,1.5-0.9s1.3-4.9,2-6.8c1.6-4.1,3.7-8.1,6.2-11.7c12.5-18.9,31.2-33.4,47.1-49.3
					c-12.4,19.4-7.5,63.3,0,88.6"/>
				<path class="st1" d="M604.1,478.7c-7.8,11.8-12,16.7-19.4,28.9C596.7,500.7,604,493.4,604.1,478.7z"/>
				<path class="st1" d="M577.3,442.6c7.5,10.2,12.2,18.1,14.3,32.7C604.1,459,586.8,449,577.3,442.6z"/>
				<path class="st1" d="M645.5,529c10.5-18.7,20.2-35,24.8-56.5C686.4,489.9,656.1,518.9,645.5,529z"/>
				<path class="st1" d="M722.4,454c-11,16.1-19.6,23.5-32.4,38.2C696.5,474.7,703.7,460.5,722.4,454z"/>
				<path class="st1" d="M748.5,542.4c1.8-6,4.1-11.9,6.7-17.6c1-2.2,7.3-21,7.3-21c3.6,7.4,3.7,16,0.2,23.4
					C759.3,534.3,753.2,536.2,748.5,542.4z"/>
				<path class="st1" d="M483.8,519.2c16-11.2,26.6-20.7,46.2-36.3C508.4,485,492,499.4,483.8,519.2z"/>
				<path class="st1" d="M812.6,501.2c-0.4,0.7-0.8,1.4-1.3,2.1s-0.8,1.4-1.2,2s-0.8,1.3-1.2,1.9l-1.2,1.8l-1.2,1.8
					c-0.4,0.6-0.8,1.1-1.1,1.7s-0.8,1.1-1.1,1.7l-1.1,1.6l-1.1,1.6l-1.1,1.7l-1.1,1.7l-1.2,1.7l-1.2,1.8c-0.4,0.6-0.8,1.2-1.2,1.8
					L795,528l-1.3,2l-1.3,2.1l0.2-0.1l0.5-0.2l0.8-0.4l1-0.6c0.4-0.2,0.8-0.5,1.2-0.8c0.4-0.3,0.9-0.6,1.4-1s1-0.7,1.5-1.2
					c0.5-0.4,1.1-0.9,1.6-1.4s1.1-1,1.7-1.6s1.1-1.1,1.7-1.8c0.5-0.6,1.1-1.3,1.7-2c0.5-0.7,1.1-1.4,1.6-2.2c0.5-0.8,1-1.6,1.5-2.4
					c0.5-0.8,0.9-1.7,1.4-2.6c0.4-0.9,0.8-1.9,1.1-2.8c0.4-1,0.7-2,0.9-3.1c0.2-1.1,0.4-2.2,0.5-3.3
					C812.5,503.6,812.6,502.4,812.6,501.2z"/>
			</g>
			<rect x="280.5" y="418.9" class="st5" width="136.7" height="177.7"/>
			<path class="st5" d="M249.7,391.5H385c7.6,0,13.7,6.1,13.7,13.7l0,0c0,7.6-6.1,13.7-13.7,13.7H249.7c-7.6,0-13.7-6.1-13.7-13.7
				l0,0C236,397.7,242.2,391.5,249.7,391.5z"/>
			<path class="st5" d="M376.7,391.5h476.9c7.6,0,13.7,6.1,13.7,13.7l0,0c0,7.6-6.1,13.7-13.7,13.7H376.7c-7.6,0-13.7-6.1-13.7-13.7
				l0,0C362.9,397.7,369.1,391.5,376.7,391.5z"/>
			<g>
				<path class="st6" d="M598.6,286.5c-0.8-44.9-15.4-68-29.8-79.9c-4,1.3-4.9,6.3-3.9,11.1C580.3,229.4,589.2,244.6,598.6,286.5z"
					/>
				<path class="st6" d="M681.7,293.8c2.2-60-13.4-85.7-27.2-96.8c-7.3-0.7-8.6,5.8-8.6,8C660.3,222.3,672.9,222.8,681.7,293.8z"/>
				<path class="st6" d="M744.8,240.3c-5.5-6.9-6.5,6.9-6.5,6.9c4.7,9.2,9.2,39.5,9.2,39.5C748.1,268.6,747,251.4,744.8,240.3z"/>
				<path class="st6" d="M516.1,317c-0.1-51-12.1-70.3-22.9-77.5c-4.5,2.4-2.9,9.4-2.9,14.9C505.9,269.1,509,270.2,516.1,317z"/>
				<path class="st7" d="M1039.4,324.6c1.6,5.6,7.8,10,12.8,7.5c19.8-9.8,9.8-42.9-39.5-71.2c-14.8-8.5-54.5-32.2-45.7,13.2
					c0,0-56.2,39.4-74.9,60.8c-4.4,5.1-11.4,7.2-17.9,5.3L835.5,329c-18.1-5.3-33.1-17.8-41.6-34.6c-16-31.8-38.2-49.8-49-55.3
					c2.1,11.1,3.2,29.5,2.7,47.6c-3.7-30.9-12.3-50.3-21.6-62.5c-17.2-14-39.8-24.3-71.4-27.3c13.9,11.1,29.5,36.9,27.2,96.8
					c-8.8-71-34.7-91.8-50.6-97.7c-3.8,0-7.7,0.2-11.7,0.4c-16.4,0.9-33.5,4.6-50.7,10.1c13.9,11.5,28,33.5,29.7,75.4
					c0,0.3-0.2,0.5-0.5,0.5c-0.2,0-0.4-0.1-0.4-0.3c-9.6-39-25.8-60.1-40.7-71.5c-22,7.9-43.8,18.3-63.7,28.9
					c10.8,7.1,22.9,26.5,22.9,77.5c-7-46.8-23.4-64-36.2-70.2c-22.1,12.4-41.3,24.6-55.3,33.2l-68.9,39.9
					c-17.7,8.9-28.3,18.6-66.5-15.3c-18-16-12.5,0.5-0.4,28.4c-7,1.2-18.4,6.1-18.4,6.1S247,305,242.3,311
					c-1.9,2.3,8.2,26,11.6,44.7c8.7,49,5.7,76-6.7,87.6c0.1,0.3,0.1,0.7,0.1,1c0,2.1-1.3,4.1-3.2,5c45,11,63.2-12.8,87.4-41.6
					c18-21.5,33.5-15.9,33.5-15.9l38.7-0.2l42.4,0.6h453.1c7.7,0,15-3.2,20.3-8.8L987,306c12.8-5.1,43,4.9,45,16.6
					c0.8,4.8-2.2,10.8,4,15.5c6,4.6,10-5.9,10-5.9"/>
				<path class="st6" d="M248.1,443.6c-0.6-3-3.4-4.9-6.4-4.3s-4.9,3.4-4.3,6.4c0.6,3,3.4,4.9,6.4,4.3c2.6-0.5,4.4-2.8,4.4-5.4
					C248.2,444.3,248.1,443.9,248.1,443.6z"/>
			</g>
			<polygon class="st6" points="475.6,391.5 465.6,365.3 432.5,370 433.9,392.1 			"/>
			<path class="st5" d="M438.4,392.1h-4.5C435.4,392.2,436.9,392.2,438.4,392.1z"/>
			<path class="st5" d="M307.4,395.1c9.7,3.7,2.9,15.7-7.4,19.3"/>
			<path class="st5" d="M276.7,377c0,0,3.7-6.8,12.3-3"/>
			<path class="st5" d="M258,381.5c0,0,3.7-6.8,12.4-3"/>
			
				<ellipse transform="matrix(0.9711 -0.2389 0.2389 0.9711 -85.7306 75.0883)" class="st3" cx="266.9" cy="391.2" rx="3.4" ry="7.2"/>
			
				<ellipse transform="matrix(0.9711 -0.2389 0.2389 0.9711 -84.1258 79.3282)" class="st3" cx="285.2" cy="386.7" rx="3.4" ry="7.2"/>
			<path class="st8" d="M267.8,396.1c0,0-2-0.2-3-7"/>
			<path class="st8" d="M286.2,392c0,0-2-0.2-3-7"/>
			<path class="st5" d="M814.7,596.6h-46.2l0.1-91.9c0-36.5-29.6-66.2-66.1-66.2c0,0,0,0,0,0H488.6c-21.3,0-38.6,17.3-38.6,38.6
				c0,0,0,0,0,0l0.1,119.4h-25.1V419h389.9V596.6z"/>
			<path class="st5" d="M829.1,596.6H782v-91.9c0-36.5-29.6-66.2-66.1-66.2c0,0,0,0,0,0H529.6c-36.5,0-66.2,29.6-66.2,66.1
				c0,0,0,0,0,0v91.9h-48.3V419h413.9V596.6z"/>
			<path class="st3" d="M272.6,525.2l-19.2-49.6c-1.3-3.3-4.5-5.5-8-5.5h-25.3c-2.3,0-4.2,1.9-4.2,4.2c0,0.6,0.1,1.1,0.3,1.6
				l22.8,53.9L272.6,525.2z"/>
			<g>
				<path class="st5" d="M515.2,339.6c-0.9,8.7-4.1,17-9.3,24c-7.4-4.4-14.8-8.4-21.9-12.5L515.2,339.6z"/>
				<path class="st5" d="M462.3,359.1c-4.1,5.8-6.9,13-9.3,20.3C455.4,372.1,458.2,364.9,462.3,359.1l16.8-6.2
					c-1.5,9.9-2.2,19.8,1,29.7c-14.8,3.9-31.5-1.9-42.1-14.6L462.3,359.1z"/>
				<path class="st5" d="M479.1,353l4.9-1.8c7.1,4.1,14.5,8.1,21.9,12.5c-3.5,4.8-7.8,9-12.7,12.4c-3.9,3.1-8.3,5.3-13.1,6.5
					C476.9,372.7,477.6,362.8,479.1,353z"/>
				<path class="st5" d="M438,368c10.6,12.6,27.3,18.4,42.1,14.6v0.1v-0.1c4.8-1.2,9.2-3.5,13.1-6.5c4.9-3.4,9.2-7.6,12.7-12.4
					l0.4,0.2l-0.4-0.2c5.2-7,8.4-15.3,9.3-24l3.3-1.2c0,0,2.8,31.8-27.3,48.4S432.6,370,432.6,370L438,368z"/>
			</g>
			<g>
				<path class="st5" d="M382.3,385.6c9.7,18.8,11.2,109.3-1.3,113.3c-36.5,11.6-66.2,15.6-92,21.7c-4.8-6.5-12.6-16.9-21.3-14.3
					c-4.7,1.4,0.8,6.5,4.9,13.6c2,3.3-3.8,4.2-7.6,4.1c-7.5-0.2-10.3-0.5-17.4-4.2c-13.1-9.8-27.1-14.7-21.4-1.4
					c-5.2,0.1-5.1,6.5-0.3,10.9c-4.1,0.8-3.1,9.7,3.9,12c-2.1,2-0.7,5.9,2.2,7.9c7.5,5.4,20.9,10.1,29.5,10.2
					c17.4,0.2,17.8-5.3,44.7-9.6s58-2,94.9-11.8c32.7-8.7,38.8-52.3,40.2-85.9c2.6-60.8,23.9-128.1-39.6-130.2"/>
				<path class="st5" d="M229.6,541.4c0,0,14.3,6.7,20.4,6.7"/>
				<path class="st5" d="M225.9,529.2c0,0,14.2,7.9,21.6,7.9"/>
				<path class="st5" d="M225.9,518c0,0,5.9,5.5,16.5,8.9"/>
			</g>
			<g>
				<path class="st6" d="M583.8,391.8c7.3-29.1,25-32.5,73.2-47.5c61.2-74.3,71.4,27,71.4,47.5"/>
				<g>
					<g>
						<path class="st7" d="M721.9,390.7c-3.5-0.1-6.9-1.7-9.3-4.3C709.9,389.1,725.3,390.7,721.9,390.7c-10.3,0-48.3,2.8-51.8-38.8
							c-1.9-22.4,12.7-35,28.4-35c5,0,9.9,1.5,14.1,4.3"/>
						<path class="st7" d="M701.4,317c3.1,0,6.3,1.6,9.3,4.3c1.6-2.6,4.4-4.2,7.5-4.3c9.4,0,19.7,12.5,24.5,34.9
							s-5.3,38.8-11.4,38.8c-2,0-4.2-1.6-6.5-4.3c-1,2.7-2.6,4.3-4.6,4.3c-9.7,0-26.4-16.3-31.3-38.8S692,317,701.4,317z"/>
						<path class="st7" d="M693.3,299.5c6.4,4.8,11.7,11,15.5,18c0,0-4.1-18,21.6-33.9c1.2,28.2-17.8,33.8-17.8,33.8"/>
					</g>
					<path class="st6" d="M715.7,353.8c0,0,4.5,10.4,1.3,10.4S715.7,353.8,715.7,353.8z"/>
					<path class="st6" d="M723.6,353.8c0,0,7.9,10.4,4.7,10.4S723.6,353.8,723.6,353.8z"/>
				</g>
				<path class="st7" d="M626.4,380.6c-2-1.7-3.3-4.3-4.8-6.3c-1.3-1.7-2.7-3.9-2.3-5.8c0.3-1.6,1.5-2.4,2.3-3.8
					c0.4-0.8,0.9-1.5,1.5-2.2c2.6,0.6,3.2,2.8,4.5,4.7c2.4,3.7,5.8,6.6,10.9,6.5c2.5-0.1,5.2-1.4,7.3-2.2c0.5-0.2,1-0.4,1.5-0.6
					c1.4-0.5,1.4-0.4,1-1.7c-0.2-0.7-1.1-1.6-0.5-2.4c1-1.2,5.6-0.1,7.2-0.6c0-1.8-2.5-3.8-3.7-5.2c1-0.5,2-1,3.1-1.3
					c1.1-0.2,2.2,0,3.3-0.3c1.3-0.4,2.4-1.1,3.4-2.1c0.7-0.6,2.6-1.6,2.8-2.4c0.2-1.2-1.3-2.1-2.3-2.7c0.6,0,1.2,0,1.9-0.1
					c0.5-0.9-1-2.8-1.3-3.8c-0.7-2.2-2.7-3.7-4.9-4c-1.5,0-2.9,0.4-4,1.4c-0.7,0.9-0.4,2.2-1.3,3c-1.8,1.8-5.2,1.9-7.8,1.7
					c-2.4-0.1-5.3-0.7-6.6-2.7c-1.2-1.7,0-2.1,2-2.7c3.3-0.7,6.5-1.8,9.6-3.1c1.4-0.7,2-1.7,3.7-2c2.1-0.4,7.2,1,6.6-2
					c-0.5-2.6-4.2-5.2-6.4-7c1-1.4-0.3-4.9-1.7-5.9c-1.3-0.9-2.8-1.4-4.4-1.7c-1.1-0.1-1-0.2-1.8,0.6s-2.3,1.4-3.4,2.2
					c-0.8,0.6-2.4,2.5-1.6,3.4c-1.1,0-2-0.9-2-2c0,0,0-0.1,0-0.1c0.1-0.5,1.5-1.6,2-2c0.8-0.8,1.4-1,1.5-2.1c0.1-0.4-0.1-0.9,0-1.3
					s0.5-0.9,0.4-1.4c-0.3-1.9-3.8-3.2-5.7-3.3c-3.6-0.2-7,1.1-7.7,4.1c-0.3,1.2-0.9,2.2-0.5,3.5s1.4,1.4,2.1,2.2
					c2.4,2.7,2.2,6.3,2.2,9.3c0,1.9-1,5.3-3.6,5.3c-1.4,0.2-2.8-0.8-3-2.2c0-0.2,0-0.3,0-0.5c0-0.8,0.1-1.5,0.1-2.3
					c-0.1-0.6,0-1.2,0.2-1.7c0.4-0.9,1-1,0.7-2.3c-0.4-1.8-1.2-2.2-3-1.8c-2.5,0.5-5.2,2.1-7.8,2c-1.3,0-2.5-0.9-3.7-0.9
					c-1.5,0.2-3,0.6-4.4,1.1c-1.5,0.4-1.5,0.5-1.6,1.8c0,0.9,0.1,1.8,0.3,2.7c0.7,2,2.9,4.2,4.5,5.8c-1.2-0.5-1.6,0.5-2.3,1
					c-1,0.7-2.1,1.2-3.2,1.3c-3.3,0.3-3.8-2.5-6-3.9c-1.2-0.7-1.9-0.3-3.1,0.2c-2.2,0.8-6.7,1.8-6.7,4.5c0,3.2,4.5,6.9,6.9,9
					c1.5,1.3,2.6,3,4.2,4.2c5.2,4,10.4,0.7,15.9,1.3c1,0.1,2.7,0.2,3.1,1c0.7,1.4-3.4,3.7-4,5c-0.5,1-0.8,2.1-0.9,3.2
					c0,1.5,1.3,3.1,2.1,4.4c2.1,3.2,3.6,6.8,6.3,9.7"/>
				<g>
					<path class="st0" d="M604.5,390.1c0-6.5,5.3-11.8,11.8-11.8c5.3,0,10,3.6,11.4,8.7c0.3,1,0.4,2.1,0.4,3.1"/>
					<path class="st0" d="M644.7,388.2c0,1.9,0,3.4-1.1,5c-0.3,0.8-0.8,1.5-1.2,2.1c-2.6,3.3-6.4,5.3-10.6,5.4
						c-6.1,0.8-11.4-3.8-12.6-10c-0.2-0.9-0.3-1.7-0.3-2.6c0-6.1,4.3-11.4,10.3-12.6c0.9-0.2,1.7-0.3,2.6-0.3
						c6.1-0.4,11.4,4.2,12.7,10.4C644.6,386.5,644.7,387.4,644.7,388.2z"/>
					<path class="st0" d="M630.2,373.8c0,6.5-5.3,11.8-11.8,11.8c-3.1,0-6.1-1.2-8.3-3.5c-0.7-0.7-1.3-1.5-1.8-2.4
						c-3.8-5.6-0.7-12.5,4.6-15.5c6.1-3,12.9-1.5,15.8,3.6C629.7,369.7,630.2,371.7,630.2,373.8L630.2,373.8z"/>
					<path class="st0" d="M682.2,352.7c0.5,7-6.4,13-12.4,11.5c-3.8-1.5-5.3-4.6-7.6-7.6c-0.5-0.9-0.9-1.8-1.1-2.8
						c-0.8-3-0.4-6.1,0.9-8.8c0.4-0.9,1-1.7,1.7-2.4c6.9-6.4,16-0.4,18.1,7.2C682,350.7,682.1,351.7,682.2,352.7z"/>
					<path class="st0" d="M638.9,362.6c0.5,5.5-3.3,9.2-7.6,11.1c-0.7,0.3-1.5,0.6-2.3,0.7c-1.6,0.3-3.3,0.3-4.9,0
						c-0.8-0.2-1.6-0.4-2.3-0.7c-8.3-3.4-10.6-14.8-2.2-20.1c6.1-3.8,14.4-3,18,3.4c0.6,0.9,0.9,2,1,3.1
						C638.8,360.9,638.9,361.8,638.9,362.6z"/>
					<path class="st0" d="M666.8,349.1c0.7,3.8-2.4,6.1-4.1,8.9c-0.7,0.6-1.4,1-2.1,1.5c-0.7,0.4-1.5,0.7-2.2,1
						c-2.5,0.3-5.1-0.1-7.4-1c-0.8-0.3-1.5-0.7-2.2-1.1c-5.6-4-7.1-10.8-4.1-16.1c0.9-1.4,2.2-2.6,3.7-3.4c0.7-0.4,1.5-0.7,2.3-0.9
						c4.3-0.6,8.6,0,11.7,2.2c0.6,0.4,1.2,1,1.7,1.5c0.4,1.3,1.9,2.8,2.3,4.2C666.6,347,666.8,348,666.8,349.1z"/>
					<path class="st0" d="M651.4,350.9c-0.7,2.7-0.7,6.5-3.7,7.9c-0.7,0.6-1.6,1.2-2.5,1.6c-2.4,1.2-5.2,1.6-7.8,1.2
						c-0.7-0.1-1.3-0.3-2-0.5c-6.7-1.4-9-8.2-7.4-13.5c2.3-5.3,7.6-9.9,13.5-7.8c0.8,0.2,1.7,0.4,2.4,0.7c3.3,1.3,6,4,7.2,7.4
						C651.3,348.8,651.4,349.9,651.4,350.9z"/>
					<path class="st0" d="M676.7,358.6c0.6,6.5-5.5,12.5-12.2,13c-0.8-0.1-1.6-0.2-2.4-0.4c-3.8-1.5-8.4-3.8-9.9-8.4
						c-0.3-0.9-0.5-1.8-0.6-2.7c-0.2-0.9-0.3-1.8-0.3-2.8c-0.3-2.8,0.4-5.7,2-8c0.5-0.7,1.1-1.4,1.8-2.1c1.4-1.2,3.2-2,5-2.4
						c0.9-0.2,1.8-0.2,2.6-0.2c7,0.6,11.5,5.2,13.6,11.3C676.5,356.8,676.7,357.7,676.7,358.6z"/>
					<path class="st0" d="M652.4,370.3c0.7,7.7-8.5,13-16.2,11.6c-0.8-0.2-1.6-0.4-2.4-0.8c-3.1-1.3-5.5-3.8-6.8-6.9
						c-0.3-0.8-0.6-1.6-0.8-2.4c-2-6.8,4-14.4,10.5-15.2c1-0.1,2-0.1,2.9,0c1.9,0.2,3.8,0.8,5.4,1.8c3.5,2,6,5.4,7,9.2
						C652.3,368.5,652.4,369.4,652.4,370.3z"/>
					<path class="st0" d="M667.7,369c-0.2,1.4-0.2,3.6-1,5c-0.4,0.7-0.9,1.5-1.4,2.1c-0.5,0.7-1.1,1.3-1.7,1.9
						c-4.4,3.1-10.2,3.7-15.2,1.5c-6.7-3.3-10.4-12.5-6.1-18.8c0.6-1,1.4-1.8,2.3-2.5c3.8-3.2,9.2-3.7,13.8-2.1
						c0.9,0.3,1.8,0.7,2.7,1.2c4,1.6,5.5,5.4,6.2,9C667.6,367.2,667.7,368.1,667.7,369z"/>
					<path class="st0" d="M688.6,370.6c0,7-5.6,12.7-12.6,12.7c-1.4,0-2.8-0.2-4.1-0.7c-0.8-0.3-1.6-0.7-2.3-1.2
						c-2.3-1.5-3.8-3.8-4.3-6.5c-0.2-0.9-0.3-1.9-0.3-2.8c-0.4-7,4.1-14.6,11.7-13.9c5.3,0.8,10.6,3.8,11.5,10.2
						C688.4,369.1,688.5,369.9,688.6,370.6z"/>
					<path class="st0" d="M687.3,388.2c-0.1,8.7-9.2,17.1-17.6,14.3c-1-0.4-1.9-0.8-2.7-1.4c-1.8-1.3-3.2-3-4.1-4.9
						c-2.5-5.8-0.3-12.5,5.2-15.6c0.8-0.4,1.6-0.8,2.4-1.1c4-1.5,8.5-1.1,12.2,1c0.7,0.4,1.3,0.9,1.8,1.5c1.1,1.3,2.6,2.8,2.6,4.1
						C687.3,386.8,687.3,387.5,687.3,388.2z"/>
					<path class="st0" d="M689.2,410.5c-0.5,3.1-0.5,6.2-2,8.5c-4.6,5.3-12.2,7.6-18.2,3.1c-0.5-0.4-1-0.9-1.3-1.4
						c-0.4-0.6-0.8-1.2-1.1-1.8c-1.3-2.4-1.6-5.3-1-8c0.5-1.8,1.2-3.6,2.1-5.2c0.5-0.8,1.1-1.5,1.8-2.2c5.6-6.6,17-5.1,19.5,3.6
						C689.1,408.2,689.2,409.3,689.2,410.5z"/>
					<path class="st0" d="M665.2,386.2c0,9.9-12.2,15.3-20.1,10.1c-0.6-0.4-1.2-0.9-1.7-1.4c-0.6-0.5-1.1-1-1.7-1.5
						c-0.6-0.7-1.1-1.6-1.6-2.4c-0.4-0.9-0.8-1.8-1-2.8c-2.1-6.5,3.2-14.1,10.1-14.9s14.4,3,15.8,10.5
						C665.2,384.6,665.3,385.4,665.2,386.2z"/>
					<path class="st0" d="M679.8,385.4c-0.2,5.5-4,10.8-9,11.7c-0.9,0.2-1.8,0.4-2.8,0.5c-3.8,0.5-7.5-0.6-10.5-3
						c-6.1-5.3-4.6-15.2,2.3-19c1.9-0.9,4-1.5,6.1-1.7c6.1-0.6,12.2,3.2,13.7,9.2C679.8,383.9,679.8,384.6,679.8,385.4z"/>
					<path class="st0" d="M661.3,403.7c-0.1,0.9-0.2,1.9-0.5,2.8c-0.3,0.9-0.6,1.8-1,2.6c-3,7.6-12.1,9.1-19,4.6
						c-6.7-4.6-6.9-14-1.9-18.8c0.7-0.7,1.6-1.3,2.5-1.8c7.8-5.3,18.4,0,19.7,8.1C661.3,402,661.3,402.9,661.3,403.7z"/>
					<path class="st0" d="M674.9,444.5c0.9,9.4-9.7,13.2-16.3,9.8c-0.8-0.4-1.5-0.9-2.2-1.5c-0.7-0.6-1.3-1.3-1.9-2
						c-3-5.3-2.3-12.9,2.7-16.4c0.5-0.5,1.2-1,1.8-1.4c1.4-0.8,3.1-0.9,4.6-0.5c0.8,0.1,1.5,0.3,2.3,0.6c2.6,1,4.8,2.7,6.5,4.8
						c0.4,0.5,0.8,1.1,1.1,1.7c0.3,0.6,0.6,1.2,0.8,1.8C674.7,442.5,674.9,443.5,674.9,444.5z"/>
					<path class="st0" d="M682.2,430.2c-0.1,2.3-0.7,4.6-1.9,6.6c-0.4,0.7-0.9,1.3-1.4,1.8c-1.9,2-4.6,3.2-7.3,3.2
						c-0.7,0.1-1.3,0.1-2,0.1c-0.9,0-1.7-0.2-2.6-0.4c-3.3,0.2-4.1-2.8-6.5-4.5c-0.5-0.7-0.9-1.5-1.2-2.4
						c-1.9-5.5,0.4-11.6,5.4-14.5c0.9-0.5,1.8-0.9,2.7-1.2c6.8-3,12.9,2.3,14.2,8C682,428,682.1,429.1,682.2,430.2z"/>
					<path class="st0" d="M670.4,419.8c-0.3,0.8-0.5,1.6-0.7,2.4s-0.4,1.6-0.7,2.5c-0.4,1.6-1.1,3.1-2.2,4.4c-0.5,0.5-1,1-1.6,1.3
						c-5.3,2.8-11.7,1.9-16-2.3c-3.1-3.9-3.7-9.2-1.5-13.7c2.3-4.5,6.1-6.1,10.7-6.9c1-0.1,2-0.1,3,0.1c1.7,0.2,3.2,0.9,4.5,1.9
						c0.6,0.5,1.2,1,1.7,1.6c1.3,1.8,2.9,4.1,2.6,6.2C670.4,418.1,670.4,419,670.4,419.8z"/>
					<path class="st0" d="M675.9,404.7c0.7,5.1-4.6,8.9-8.4,12c-0.7,0.4-1.5,0.7-2.3,0.8c-0.8,0.2-1.6,0.3-2.4,0.3
						c-4.4,0.4-7.5-2.6-9.7-5.6c-1.3-2.4-1.8-5.2-1.4-7.9c0.2-1,0.5-2,0.9-3c2.1-5.8,8.2-8.8,14.2-8c1.5,0.2,2.8,0.8,4,1.7
						c0.6,0.4,1.1,0.9,1.6,1.5c1.1,2.2,3.4,3.7,3.4,6C675.9,403.1,675.9,403.9,675.9,404.7z"/>
				</g>
			</g>
			<path class="st5" d="M148.3,450.2c0,0,4.4-27.4-12.1-30.4c-13.1-2.4-31.2-5.4-29.6,4.2c18.9-1,30,9.7,21,14.3
				c3.5,2.1,8.4,12.9-1.7,15.2c7.7,2.7,3.4,10.7-1.5,10.2c9.3,9.8-9.7,11.3-18.3,7.6c-5.3-2.3-10.4-8.7-6.9-12.4
				c-3.5-2.7-3.5-8.7-0.5-11.6c0,0-3.4-3.2-2.9-7.7c0.3-2.5,1.4-4.8,3.1-6.5c-1.8-3.1,3.9-8.2,7.7-9.1"/>
			
				<ellipse transform="matrix(0.9335 -0.3587 0.3587 0.9335 -156.298 115.9615)" class="st1" cx="234.4" cy="479.2" rx="1.4" ry="2.9"/>
			<path class="st5" d="M645.9,163.8l182.4,70.6c0,0-38,15.8-89.9,12.7c-11-29.6-35.8-38.5-56.4-45.3s-27.5-4.9-27.5-4.9l-8.6-16
				V163.8z"/>
			<path class="st2" d="M644.3,194c-4.8-11.3-3.4-33.6-3.4-33.6l8.4-1.4"/>
			<path class="st5" d="M482.9,138.8c0,0,25.6,21.6,25.6,55.3"/>
			<path class="st5" d="M99.2,459c0,0,13.4,5,25.2,4.8"/>
			<path class="st5" d="M98.6,447.3c0,0,19.1,7.2,27.2,6.2"/>
			<path class="st5" d="M98.8,433.1c0,0,15.6,7.9,28.7,5.2"/>
			<path class="st2" d="M140.4,405.3l23.2-58.6c1-2.4,3.7-3.7,6.2-2.9l20.9,6.7"/>
			<path class="st5" d="M1054.9,330.5c0,0-6.4-4-8.3-9.6"/>
			<path class="st5" d="M1060.3,324c0,0-6.7-2.3-7.2-8.8"/>
			<path class="st5" d="M855.2,121.2c-7.8-3.2-12.4,2.2-16.8,12.2"/>
			<line class="st2" x1="838.9" y1="120.3" x2="832.7" y2="130.1"/>
			<line class="st2" x1="830.6" y1="123.8" x2="826" y2="131.9"/>
			<path class="st0" d="M54.9,248.8c33.5-46.5,91.3-71.3,91.3-71.3s-18.9,9.4-31.6,38C87.9,228.1,54.9,248.8,54.9,248.8z"/>
			<path class="st0" d="M136.4,182.2c0,0,32.2-9,57.1-5.5l50.7-21.9C244.2,154.9,200.1,149.1,136.4,182.2z"/>
			<line class="st9" x1="98.6" y1="383.1" x2="119.2" y2="410.6"/>
			<path class="st2" d="M618,159c-8.1-0.3-15.8,7.2-3.8,30.1"/>
			<path class="st2" d="M606.4,154.9c0,0-15.8,4.1-2.7,30"/>
			<path class="st2" d="M597.1,154c0,0-7.1,4.5-5.5,16.1c0.5,3.5,1.5,6.8,3,10"/>
			<path d="M356.5,162.5c-0.1-5.9-0.1-11.7-0.1-17.6v-17.6l0.1-17.6c0-5.9,0.1-11.7,0.1-17.6h0.4c1.3,5.8,2.2,11.7,2.6,17.6
				c0.3,2.9,0.4,5.9,0.5,8.8s0.1,5.9,0.2,8.8c0.1,2.9-0.1,5.9-0.2,8.8c-0.1,2.9-0.3,5.9-0.6,8.8c-0.4,5.9-1.3,11.8-2.6,17.6H356.5z"
				/>
			<path class="st7" d="M852.2,333.6c18.5,15.5,22.2,35.8,22.2,100.1s-4.4,92.1-4.4,92.1s17.7-7.2,33.8-7.9
				c16.1-0.6,22.7,4,37.5-4.9c0-31,13.3-173.8-41.3-186.2c-15.6,5.9-19.4,11-19.4,11S862.6,323.7,852.2,333.6z"/>
			<path class="st2" d="M880.7,337.7c0,0,13.1,11.1,18.4,54.4"/>
			<path class="st2" d="M891.1,330.5c0,0,9.3,1.4,15.2,11.5"/>
			<line class="st2" x1="916.2" y1="324" x2="919.4" y2="317.3"/>
			<line class="st2" x1="926.2" y1="308.1" x2="924" y2="298.1"/>
			<line class="st2" x1="939.5" y1="298.1" x2="939.5" y2="287.1"/>
			<line class="st2" x1="952.6" y1="287.1" x2="955.8" y2="278.7"/>
			<line class="st2" x1="932.5" y1="319.6" x2="935.1" y2="310.5"/>
			<line class="st2" x1="942.8" y1="303.1" x2="949.7" y2="298.1"/>
			<line class="st2" x1="933.8" y1="333.4" x2="942.8" y2="324"/>
			<line class="st2" x1="955.8" y1="325.7" x2="961.8" y2="320.9"/>
			<line class="st2" x1="949.7" y1="315.1" x2="955.8" y2="310.5"/>
			<line class="st2" x1="965.7" y1="310.5" x2="968.7" y2="305.3"/>
			<line class="st2" x1="958.8" y1="300.6" x2="965.7" y2="292.6"/>
			<line class="st2" x1="968.7" y1="282.9" x2="972.5" y2="280.6"/>
			<line class="st2" x1="939.5" y1="347.4" x2="938.3" y2="351.7"/>
			<line class="st2" x1="952.6" y1="342.1" x2="958.8" y2="342.1"/>
			<line class="st2" x1="968.7" y1="320.7" x2="982.3" y2="319.6"/>
			<line class="st2" x1="838.9" y1="238.4" x2="844.8" y2="227.9"/>
			<line class="st2" x1="835.8" y1="252.5" x2="832.7" y2="247.6"/>
			<line class="st2" x1="820.9" y1="258.9" x2="817.5" y2="250"/>
			<path class="st3" d="M838.9,273.6c-0.3,0.3,0-11,0-11"/>
			<line class="st2" x1="829.1" y1="268.1" x2="829.1" y2="262.5"/>
			<line class="st2" x1="829.1" y1="287.1" x2="819.2" y2="280.6"/>
			<line class="st2" x1="846.8" y1="283.6" x2="846.8" y2="273.6"/>
			<line class="st2" x1="858.8" y1="296.6" x2="856.4" y2="286.7"/>
			<line class="st2" x1="841.9" y1="298.1" x2="838.9" y2="291.6"/>
			<line class="st2" x1="834.3" y1="308.1" x2="826.2" y2="300.6"/>
			<line class="st2" x1="850.3" y1="262.5" x2="852.2" y2="250"/>
			<line class="st2" x1="811.2" y1="265.3" x2="801.8" y2="258.9"/>
			<line class="st2" x1="829.1" y1="225.4" x2="829.1" y2="218.9"/>
			<line class="st2" x1="852.2" y1="310.5" x2="851.3" y2="300.6"/>
			<line class="st2" x1="867" y1="323.3" x2="865.3" y2="310.5"/>
			<line class="st2" x1="866.1" y1="300.6" x2="870.7" y2="291.6"/>
			<path class="st0" d="M1026.9,315.1c0,0,6.5-18.2,33.4-25.1v18.4c-19.5,1.4-28.2,18.3-28.2,18.3L1026.9,315.1z"/>
			<path d="M726,175.2c0.3-3.1,1.6-5.9,2.6-8.7c0.5-1.4,1.1-2.8,1.5-4.2c0.5-1.3,0.8-2.7,1-4.1c0.2-1.3,0.2-2.6-0.1-3.8
				c-0.3-1.1-0.8-2.2-1.7-3c-1-0.9-2.1-1.7-3.2-2.4c-1.4-0.8-2.7-1.8-3.9-2.9c-1.4-1.4-2.3-3.2-2.6-5.1c-0.1-1.9,0.3-3.8,1.3-5.4
				c0.8-1.4,1.7-2.7,2.8-3.9c1-1.2,2-2.3,3-3.4c2-2.1,3.8-4.4,5.4-6.9c1.6-2.5,2.5-5.3,2.4-8.3c0.9,3,0.6,6.3-0.7,9.1
				c-1.3,2.8-2.9,5.5-4.8,8c-1.8,2.3-3.4,4.7-4.8,7.2c-0.5,1-0.8,2.1-0.7,3.2c0.2,1.1,0.7,2,1.5,2.8c1.7,1.7,4.7,2.9,7.2,5.6
				c1.3,1.4,2.1,3.1,2.4,4.9c0.3,1.7,0.1,3.5-0.3,5.1C732.6,165.2,728.4,169.7,726,175.2z"/>
			<path d="M689.6,163.1c1.5-0.5,2.7-1.6,3.5-3c0.5-1.3,0.5-2.8,0.2-4.2c-0.4-1.5-0.9-3-1.5-4.4c-0.3-0.7-0.7-1.5-1-2.2l-0.5-1.1
				l-0.6-1.2c-0.8-1.7-1.3-3.6-1.5-5.5c-0.2-2,0.2-4,1.1-5.8c0.9-1.7,2-3.1,3.5-4.3c1.3-1.1,2.8-2.1,4.4-2.9c-2,2.8-4.1,5.5-4.9,8.3
				s-0.2,5.6,1.1,8.4l1,2.3c0.3,0.8,0.7,1.6,1,2.5c0.6,1.7,1,3.6,1,5.4c0,1-0.1,2-0.3,2.9c-0.2,1-0.7,1.9-1.4,2.7
				c-0.7,0.7-1.5,1.3-2.4,1.6C691.4,163.1,690.5,163.2,689.6,163.1z"/>
			<path d="M773.5,124c-2.4,4.2-5.3,8.1-7,12.2c-0.9,2-1.3,4.1-1.4,6.2c0,1,0.1,2.1,0.3,3.1c0.2,1,0.5,1.9,1,2.8
				c0.6,0.9,1.2,1.8,1.9,2.6c0.7,0.9,1.5,1.8,2.2,2.8c0.8,1,1.4,2.2,2,3.3c0.3,0.7,0.5,1.4,0.7,2.1c0.1,0.7,0.1,1.5-0.1,2.2
				c-0.3,1.2-0.7,2.5-1.1,3.6c-0.4,1.1-0.9,2.2-1.4,3.3c-1,2.1-1.9,4.4-2.6,6.7c0-1.2,0.1-2.4,0.3-3.6c0.2-1.2,0.5-2.4,0.8-3.5
				c0.6-2.2,1.1-4.5,1.4-6.8c0-0.4,0-0.9-0.1-1.3c-0.2-0.4-0.4-0.8-0.6-1.2c-0.6-0.9-1.3-1.8-2-2.6c-1.8-1.8-3.4-3.7-4.8-5.7
				c-0.2-0.3-0.4-0.7-0.5-1c-0.1-0.3-0.3-0.7-0.4-1c-0.2-0.7-0.4-1.3-0.5-2c-0.3-1.3-0.4-2.7-0.3-4c0.2-2.7,1-5.2,2.3-7.5
				c1.3-2.2,2.8-4.2,4.5-5.9C769.8,127.1,771.6,125.5,773.5,124z"/>
		</g>
	</g>
</g>
</svg>
