<svg xmlns="http://www.w3.org/2000/svg" viewBox="0 0 401.52 608.34">
  <defs>
    <style>
      .cls-1, .cls-2, .cls-5 {
        fill: #fff;
      }

      .cls-2, .cls-3, .cls-4, .cls-5, .cls-7 {
        stroke: #000;
        stroke-width: 2.6px;
      }

      .cls-2, .cls-4 {
        stroke-miterlimit: 10;
      }

      .cls-3, .cls-5, .cls-6, .cls-7 {
        stroke-linecap: round;
        stroke-linejoin: round;
      }

      .cls-6, .cls-7 {
        fill: none;
      }

      .cls-6 {
        stroke: #fff;
        stroke-width: 2px;
      }
    </style>
  </defs>
  <title>illu_3_2_b</title>
  <g id="Layer_2" data-name="Layer 2">
    <g id="Layer_1-2" data-name="Layer 1">
      <g>
        <polyline class="cls-1" points="14.85 175.57 34.28 136.5 66.83 141.97 52.25 252.09 39.2 226.66 38.98 216.63 25.57 239.22"/>
        <path class="cls-2" d="M296,117.42l53.37-13.37s4.32-.78,7.7,7.92"/>
        <path class="cls-3" d="M158.39,550.46c-17.66-21.5-81.85-17.23-81.85-17.23V329.88h53.23S176,524.6,158.39,550.46Z"/>
        <path class="cls-4" d="M16.63,509.09C27.53,531,45.22,529,45.22,529l-2.06-54.28Z"/>
        <path class="cls-2" d="M209.59,127.7,198.54,98.91l-34.92,19.15s10.21-15.56,10.21-40.57c-39.8,3.45-49.25,11.14-49.25,11.14l-24.51,58.86L209.59,127.7"/>
        <path class="cls-2" d="M100.07,127.34,68.26,83.41l-29.1-2.22,13,42.86L32,123s5,26.32,18.28,128.71C50.3,139.44,100.07,127.34,100.07,127.34Z"/>
        <path class="cls-5" d="M129.77,127.34h35.49l44.33.36,133.23-15.85c22-2.61,40.91,15.88,38.39,37.87,0,.21,0,.4-.07.58-1.2,8.67,6.58,57.31,7.18,74.28s-20,86.91-16.56,107.9-11.18,113.17,0,142.49,0,70,0,70-7.38-7.18-63.64-7.18-77.4,14.69-111.32,14.69-47.59-3.64-47.59-3.64L81.15,150.3Z"/>
        <ellipse class="cls-3" cx="218.98" cy="471.37" rx="41.12" ry="21.23" transform="translate(-269.58 648.71) rotate(-85.03)"/>
        <ellipse class="cls-3" cx="222.86" cy="426.71" rx="7.32" ry="7.02" transform="translate(-221.54 611.79) rotate(-85.03)"/>
        <path class="cls-6" d="M222.23,434s-17,26.12-9.29,73.24"/>
        <g>
          <path class="cls-7" d="M228.52,443.78s16.16-2.95,20.65-14.78"/>
          <path class="cls-7" d="M237,457.43s15.89.2,19.61-2.81"/>
          <path class="cls-7" d="M235.32,474.45s19.76,2.32,23.92,4.4"/>
          <path class="cls-7" d="M233.78,492.16s15.71,4.39,18.44,13.12"/>
        </g>
        <g>
          <path class="cls-7" d="M212.24,442.36s-15.37-5.68-17.74-18.11"/>
          <path class="cls-7" d="M201.54,454.35s-15.64-2.55-18.78-6.15"/>
          <path class="cls-7" d="M200.27,471.4s-19.8-1.11-24.24.21"/>
          <path class="cls-7" d="M198.74,489.11s-16.19,1.62-20.38,9.75"/>
        </g>
        <path class="cls-7" d="M220.43,411.43s-4.66,1.16-3.7,4.87,12.62,6.86,14,1.93-2.33-6.11-2.33-6.11"/>
        <path class="cls-5" d="M362.05,338.65c-6.81-7.09-20.28,3.11-13.52,11.71,6.4,8.14,9.45,21.57,8.06,31.73s15.21,14.76,17.41,5.23C378,370.13,374.56,351.69,362.05,338.65Z"/>
        <path class="cls-5" d="M372.11,393.41c-5.69-8.61-21.63-1.16-16.15,9,5.19,9.6,4.46,22.72-.55,32.36s9.92,19.31,15.55,10.5C381.11,429.34,382.56,409.23,372.11,393.41Z"/>
        <path class="cls-5" d="M335.47,329.23c11.28-5,19.87,11.21,8.57,16.2-10.71,4.74-16.85,17.28-12.28,27.8,4.66,10.72-12.7,18.77-17.4,8C305.89,361.71,314.75,338.39,335.47,329.23Z"/>
        <path class="cls-5" d="M317.75,388.37c6.44-9.53,21.29-.45,15.35,10.14-5.62,10-6.35,23.38.42,32.78s-5.47,21.63-13.18,12.85C306.41,428.29,305.93,405.87,317.75,388.37Z"/>
        <path class="cls-5" d="M316.89,449.55c2.13-10.38,19.32-7,18,4.81-1.22,11.22,3.3,26,9.95,35.29s-5.35,22.11-12.36,13.82C319.86,488.5,313,468.62,316.89,449.55Z"/>
        <path class="cls-5" d="M333,505c8.4-8.07,20.92,3.1,13.33,12.39-7.19,8.81-7.07,21.63-.53,31.07s-6.19,20.86-13.73,11.79C318.48,543.92,317.6,519.85,333,505Z"/>
        <g>
          <path class="cls-2" d="M208.68,221.05s-.15-15.18-1-20.05-7.91-1.36-9.65-7.39,6.27-14.27,12.48-4.83c0,0,9.63-7.11,10.16,1.5s-7,3.8-5.28,14,2.82,14.08,2.82,14.08"/>
          <path class="cls-5" d="M208.49,220.59c-.62,4.77-3.91,17.87-7.92,25.23-3.54,6.48-10.53,13.81-8.2,26.77,6,33.19,39.37,32,45.32,18.69,11.52-25.71-6.35-45.35-13.28-57.9-7.49-13.55-6-15.71-6.85-14.76-2.93.86-6.61,2.78-7.75,1.59A.78.78,0,0,0,208.49,220.59Z"/>
        </g>
        <g>
          <path class="cls-5" d="M149.35,560.56h53.41S171.6,404,168.56,391.64L133.79,235.47H61.39l58.26,182.34Z"/>
          <ellipse cx="136.44" cy="600.17" rx="129.22" ry="8.17"/>
          <g>
            <rect class="cls-2" x="53.01" y="566.75" width="47.06" height="10.03" rx="5.01" ry="5.01"/>
            <path class="cls-2" d="M79.29,576.78H73.06c-13.7,0-21.92-14.54-40.84-5C17.55,579.14,12.39,602,41.33,602c42.17,0,42.29.18,50.18.18s16.59-9.8-1.63-25.4Z"/>
          </g>
          <g>
            <rect class="cls-2" x="155" y="566.75" width="39.06" height="10.03" rx="4.57" ry="4.57" transform="translate(349.06 1143.53) rotate(-180)"/>
            <path class="cls-2" d="M190.94,576.78h.62c11.37,0,25.24-10.91,44.08-5C249.23,576,253.25,602,229.23,602c-35,0-60.58.18-67.12.18s-13.77-9.8,1.35-25.4Z"/>
          </g>
          <path class="cls-7" d="M185.48,576.78a10.21,10.21,0,0,0-6.41,9.32"/>
          <path class="cls-7" d="M191.89,576.78a10.2,10.2,0,0,0-6.41,9.32"/>
          <path class="cls-7" d="M198.29,576.78a10.19,10.19,0,0,0-6.4,9.32"/>
          <polyline class="cls-5" points="62.98 224.58 37.07 401.96 47.25 560.56 100.66 560.56 93.4 403.75 110.35 330.81"/>
        </g>
        <path class="cls-2" d="M49.92,241.07s7,151.61,15.5,258c0,0-46.69-4.29-48.79,10.07C-9.23,438.47,42.38,332.65,42.09,303.72s-5-107-5-107"/>
        <path class="cls-2" d="M359.83,114.1c34.65-10,54.5,38.87,28.5,52.19C363.6,179,361.86,170.85,365,162.67c-8,1.59-12.3-9.11-4-13.93-5.76-2.11-9.34-9.09.71-11.87-15.24-13.18,7.38-10.6,20-16"/>
        <path class="cls-3" d="M149.19,148.92a125.92,125.92,0,0,0-3.85-12.42l-.16-.39c-14.9,0-29.8-.33-44.7-.82-4,1.57-7.86,2.61-10.43,2.16a7.13,7.13,0,0,1-4.23-2.67q-11-.41-22-.79a29.36,29.36,0,0,0-3.77,3.71,29.91,29.91,0,0,0-5.61,10.07C85.8,155.12,117.74,152,149.19,148.92Z"/>
        <path class="cls-5" d="M153.26,170.51c-.19-1.41-.38-2.82-.59-4.22-.76-5-1.67-9.9-2.82-14.73-.21-.89-.43-1.76-.66-2.64-31.45,3.1-63.39,6.2-94.71-1.15-.1.33-.22.66-.31,1A29.22,29.22,0,0,0,53,156.91q-1,5.39-1.82,10.81A319.77,319.77,0,0,0,153.26,170.51Z"/>
        <path class="cls-3" d="M154,190.07c.15-2.12.31-4.21.46-6.26,0-.58.09-1.18.13-1.75-.36-3.86-.79-7.72-1.3-11.55a319.77,319.77,0,0,1-102.07-2.79v0c-.58,4-1,7.95-1.4,11.95-.29,3.06-.49,6.12-.65,9.19C83.41,193.87,119.17,194.67,154,190.07Z"/>
        <path class="cls-5" d="M152.54,210.62c.29-4.18.58-8.31.86-12.35.19-2.77.38-5.51.57-8.2-34.8,4.6-70.56,3.8-104.83-1.18-.08,1.6-.17,3.19-.23,4.79q-.24,7.19,0,14.37C82.19,218.58,117.91,216.93,152.54,210.62Z"/>
        <path class="cls-3" d="M151.34,227.45l.15-1.9c.36-5,.7-9.87,1-14.72v-.21c-34.63,6.31-70.35,8-103.67-2.57,0,.72,0,1.43.06,2.14q.26,7.16,1,14.3c0,.16,0,.33,0,.5.14,1.47.29,3,.43,4.5C83,239.3,118.49,237.25,151.34,227.45Z"/>
        <path class="cls-5" d="M149.55,249.76q.33-3.67.64-7.37c.41-5,.78-10,1.15-14.94-32.85,9.8-68.34,11.85-101,2,.23,2.42.46,4.9.68,7.41.4,4.59.78,9.33,1.13,14.08a188.08,188.08,0,0,0,51.14,7.34C119.32,259.12,134.2,254.27,149.55,249.76Z"/>
        <path class="cls-3" d="M147.59,269.42c.16-1.4.31-2.8.46-4.22.52-4.82,1-9.72,1.43-14.67,0-.26.05-.52.07-.77-15.35,4.51-30.23,9.36-46.24,8.56A188.08,188.08,0,0,1,52.17,251c0,.37.06.74.08,1.11.34,4.74.64,9.49.88,14.15.07,1.31.12,2.61.18,3.9C83.19,278.47,117.56,280.13,147.59,269.42Z"/>
        <path class="cls-5" d="M53.31,270.14c.1,2.18.18,4.34.25,6.46.11,3.49.17,6.87.17,10.1,0,15.75,80.82,13.07,91.51,1q.81-5.42,1.51-11.1.44-3.54.84-7.17C117.56,280.13,83.19,278.47,53.31,270.14Z"/>
        <path class="cls-5" d="M83.67,131.34a23.59,23.59,0,0,1-1.44-4.07,28.74,28.74,0,0,0-16,4.88c-.84.57-1.64,1.19-2.42,1.84q11,.38,22,.79A15.74,15.74,0,0,1,83.67,131.34Z"/>
        <path class="cls-5" d="M145.18,136.11c-.94-2.49-2-4.94-3.08-7.33-.23-.49-.45-1-.69-1.46l-25.08,0s-2,1.22-4.92,2.81a102.3,102.3,0,0,1-10.93,5.19C115.38,135.78,130.28,136.13,145.18,136.11Z"/>
        <path class="cls-5" d="M141.41,127.32c8.17,16.54,11.35,35.61,13.15,54.74.06-.84.13-1.7.19-2.53l3.89-.92,3.65-.86c-.09-17.54-1-35.8-10.13-50.42Z"/>
        <path class="cls-3" d="M161.44,127.33h-9.28c9.14,14.62,10,32.88,10.13,50.42l2.46-.58,4.28-1c-.74-16.35.22-33.28-4.47-48.83Z"/>
        <path class="cls-5" d="M176,127.7l-7.47-.1-3.8,0a2.83,2.83,0,0,1,.55-.21h-.7c4.69,15.55,3.73,32.48,4.47,48.83l4.1-1,2.85-.67S183.12,156.28,176,127.7Z"/>
        <g>
          <path class="cls-3" d="M343.64,235.55a6.8,6.8,0,0,0-6.51-7.08,6.8,6.8,0,0,1-6.51-7.08l1.6-37.93-13.52-.57-1.6,37.92a6.82,6.82,0,0,1-7.09,6.52h0a6.79,6.79,0,0,0-7.08,6.51l-2.91,69h0a.77.77,0,0,0,0,.15c-.17,3.9,8.82,7.45,20.06,7.93s20.49-2.31,20.66-6.21c0-.05,0-.1,0-.15h0Z"/>
          <path class="cls-5" d="M334.86,191.5s-2.62,2.7-9.85,2.4-9.62-3.22-9.62-3.22l.34-7.91s2.38,2.91,9.61,3.22,9.85-2.4,9.85-2.4Z"/>
          <ellipse class="cls-5" cx="325.47" cy="182.88" rx="3.84" ry="9.74" transform="translate(129.03 500.35) rotate(-87.58)"/>
          <path class="cls-5" d="M343.12,247.88c-.16,3.9-9.41,6.68-20.65,6.21s-20.23-4-20.06-7.93l-1.54,36.33c-.16,3.9,8.82,7.45,20.06,7.92s20.5-2.3,20.66-6.2Z"/>
        </g>
        <path class="cls-2" d="M292.83,137.68c-16.21,5.47-33.2,6.88-48.86,6.56-15.93-.33-12.94,17.79.86,18.91,16.82,1.37,43.75-2.19,58.24-9.92C314.94,146.9,305.59,133.38,292.83,137.68Z"/>
        <path class="cls-5" d="M306.72,139C284.89,147.57,254,151.63,231,149.52c-9-.83-10.38,12.82-1.44,13.64,24.31,2.23,59.91-2.87,82.89-11.88C320.88,148,315.11,135.73,306.72,139Z"/>
        <path class="cls-2" d="M297.15,149.09c-12.09,5.1-37.61,8-51.08,7.68-19-.48-16.93,16.4-3.24,18.72,16.7,2.83,47.14-1.93,62.33-8.33C317.6,161.92,309.61,143.84,297.15,149.09Z"/>
        <g>
          <path class="cls-2" d="M237,333.46c-12.17,7.68-15.63,19.9-16,33.5,11,.2,26.92,1.47,36.37-6C254,349.55,245.61,341.16,237,333.46Z"/>
          <path class="cls-2" d="M235.61,344c1.13,2.85,2.42,5.65,3.65,8.46"/>
          <path class="cls-2" d="M241.55,346.16c-2.81,1.41-5.62,2.83-8.45,4.22"/>
          <path class="cls-5" d="M223.75,348.71c-20.77-9.32-40.94-30.37-48.42-51.44,1.32-6.55,2.66-13.07,3.77-19.67l-7.9,11L160,286.91a179.27,179.27,0,0,1,15.2,10.58"/>
          <path class="cls-7" d="M228,327.34c-15.44,4.3-21.85,22.14-27.05,35.31"/>
          <path class="cls-7" d="M226.38,315c-18.93,5.36-30.07,26.07-39.62,41.38"/>
          <path class="cls-7" d="M212.86,309.3c-16.55,3.79-26.16,21.52-33.75,34.85"/>
          <path class="cls-7" d="M188.62,302.11c-8.48-1.68-16.38,4.47-22.74,9.08"/>
          <path class="cls-7" d="M195.65,308.88C185.14,310.53,177,320.26,170.92,328"/>
        </g>
        <g>
          <path class="cls-3" d="M252,218.68h0a15.39,15.39,0,0,1,11.41-15.84l3.23-.85a7,7,0,0,1,8.73,6.29L276.52,226a7,7,0,0,1-7.87,7.35l-3.31-.44A15.38,15.38,0,0,1,252,218.68Z"/>
          <path class="cls-3" d="M254.37,255.67h0a15.36,15.36,0,0,1,11.41-15.83L269,239a7,7,0,0,1,8.74,6.29L278.86,263a7,7,0,0,1-7.86,7.35l-3.31-.44A15.37,15.37,0,0,1,254.37,255.67Z"/>
          <path class="cls-3" d="M268.65,233.38A8.59,8.59,0,0,1,269,239"/>
          <polyline class="cls-6" points="257.07 224.98 262.36 214.93 266.1 220.6 272.73 208.59"/>
          <polyline class="cls-6" points="259.36 262.39 264.64 252.35 268.38 258.02 275.01 246.01"/>
        </g>
        <path class="cls-2" d="M271.27,429.91s-5.75,56.24,20.91,89V428.15Z"/>
        <path class="cls-3" d="M281.46,429.33a68.23,68.23,0,0,0,0-20.41c-1.75-10.21-5.52-24.13-5.52-24.13l16.24,1.53v41.83Z"/>
        <circle class="cls-1" cx="285.2" cy="392.56" r="2.1"/>
        <ellipse class="cls-2" cx="97.39" cy="129.22" rx="20.13" ry="9.49" transform="translate(-7 5.59) rotate(-3.17)"/>
        <path class="cls-4" d="M64.52,64.15c-3.92,28.19,7.53,62.16,27.05,65.65s39.72-24.82,43.64-53S126.48,22.92,107,19.43,68.44,36,64.52,64.15Z"/>
        <path class="cls-5" d="M113.46,75.73c-1.26,5.55-3.49,15.94,3.9,17.37s9.74-9,11-14.51,3.52-15.88-3.88-17.31S114.73,70.17,113.46,75.73Z"/>
        <path class="cls-5" d="M93.23,73.66C92,79.21,89.72,89.94,97.17,91.27s9.71-9.06,11-14.62,3.55-16-3.89-17.57S94.5,68.11,93.23,73.66Z"/>
        <g>
          <path class="cls-5" d="M27,43.21S49.68,59,97.8,64.65s81.35,5.17,81.35,5.17L139.73,52.08,127.37,8.3A7.05,7.05,0,0,0,115.3,5.55L103.07,19.42,97.58,5.73A7.05,7.05,0,0,0,84.9,4.87L64.51,40.81Z"/>
          <path class="cls-3" d="M64.51,40.81s38.76,15.09,75.22,11.27l-2.64-9.36S105.5,47.59,71.22,29Z"/>
        </g>
        <g>
          <path class="cls-5" d="M115.84,105.93c1.15,4.7-1.58,9.81-5.75,11a25.24,25.24,0,0,1-4.66.85c1.48-5.85,2.92-11.69,3.83-17.53C112.19,101,115,102.51,115.84,105.93Z"/>
          <path class="cls-5" d="M106,99.65a22.86,22.86,0,0,1,3.23.57c-.91,5.84-2.35,11.68-3.83,17.53a22.49,22.49,0,0,1-9.25-1.06c1.64-6.12,3.25-12.24,4.73-18.4A17.76,17.76,0,0,0,106,99.65Z"/>
          <path class="cls-5" d="M95,94.58a26.28,26.28,0,0,0,5.88,3.71c-1.48,6.16-3.09,12.28-4.73,18.4a32.51,32.51,0,0,1-10-5.69c2.27-6,4.71-11.79,7.4-17.47C94.06,93.85,94.55,94.2,95,94.58Z"/>
          <path class="cls-5" d="M82.22,93.82c3.57-3.54,7.45-2.92,11.36-.29-2.69,5.68-5.13,11.52-7.4,17.47l-1.11-.91A14.76,14.76,0,0,1,81.55,106C79,101.67,78.59,97.41,82.22,93.82Z"/>
        </g>
        <path class="cls-2" d="M357.05,112a141.73,141.73,0,0,1,12.47-13.79c6.42-6.05,8.51,5.86,3.08,12.29s-5.57,5.29-5.57,5.29Z"/>
        <path class="cls-3" d="M176,174.53c-4,28.21-11.7,30.11-11.23,2.64"/>
        <polygon class="cls-3" points="182.84 560.56 160.71 560.56 162.13 566.75 184.26 566.75 182.84 560.56"/>
        <rect class="cls-3" x="65.48" y="560.56" width="22.13" height="6.19"/>
        <polygon class="cls-3" points="346.68 345.58 319.13 333.76 319.13 328.29 313.18 340.15 318.47 336.27 346.68 345.58"/>
        <polygon points="107.81 349.26 127.28 411.79 127.38 412.06 127.35 412.33 150.12 529.01 124.61 412.13 124.68 412.67 104.02 350.54 107.81 349.26"/>
        <path class="cls-2" d="M361.74,136.87s16.85,2.1,21.39-3.26"/>
        <path class="cls-2" d="M361,148.74s16.52,2.8,24.47-3.15"/>
        <path class="cls-2" d="M365,162.67a39.92,39.92,0,0,0,20.51-4.46"/>
        <path class="cls-7" d="M78.83,576.78s2.24,2,3.1,9.32"/>
        <path class="cls-7" d="M74.15,576.78s2.23,2,3.1,9.32"/>
        <path class="cls-7" d="M70,576.78s2.23,2,3.1,9.32"/>
        <g>
          <path class="cls-2" d="M136.25,278.92c4.61-.57,14.58.68,18.31.82,4.65.18,22.58,1.54,17.43,6.84-5.62,5.79-16.53,4-23.73,4"/>
          <path class="cls-2" d="M152,289.84c5.29,8.53,20.56,6,26.88,5.46,7.19-.64,4.89,2.21,6.64,5.58,2.27,1,4.16.5,5.86,3.39s.71,7-2.06,9.52c2.62,5.69-3.41,9-7.7,10.59-8.94,14.46-69.21,9.08-71.83-36.61-.75-12.94,2.3-12.1,2.33-16.66,7.16-1.19,13.43-.33,19.64,3.72"/>
          <path class="cls-2" d="M185.42,300.94c-1.13,8.17-23.52,5.46-27.59,4.85"/>
          <path class="cls-2" d="M189.35,313.83c-11.26,2.88-24.7,5.8-36.08,1.76"/>
          <path class="cls-2" d="M181.61,324.44c-10.38,1.43-20.84,2.13-30.82-1.55"/>
        </g>
        <path class="cls-2" d="M34.28,136.5S20.35,152.44,9.37,193.86c-6.7,25.29-20.09,73,15.91,91.57s88.47,38.41,95.65,35.29,21.25-43.13,14.23-46.63S28.56,246.9,36.64,226.37"/>
      </g>
    </g>
  </g>
</svg>
