<svg xmlns="http://www.w3.org/2000/svg" viewBox="0 0 435.41 605.64">
  <defs>
    <style>
      .cls-1, .cls-2, .cls-5 {
        fill: #fff;
      }

      .cls-2, .cls-3, .cls-4, .cls-5, .cls-6 {
        stroke: #000;
        stroke-width: 2.6px;
      }

      .cls-2, .cls-4 {
        stroke-miterlimit: 10;
      }

      .cls-3, .cls-5, .cls-6, .cls-7 {
        stroke-linecap: round;
        stroke-linejoin: round;
      }

      .cls-6, .cls-7 {
        fill: none;
      }

      .cls-7 {
        stroke: #fff;
        stroke-width: 2px;
      }
    </style>
  </defs>
  <title>illu_3_2_a</title>
  <g id="Layer_2" data-name="Layer 2">
    <g id="Layer_1-2" data-name="Layer 1">
      <g>
        <polyline class="cls-1" points="48.74 172.87 68.17 133.8 100.72 139.26 86.14 249.39 73.08 223.96 72.88 213.93 59.46 236.52"/>
        <line class="cls-2" x1="48.74" y1="172.87" x2="68.17" y2="133.8"/>
        <path class="cls-2" d="M329.86,114.72l53.38-13.37s4.32-.78,7.7,7.92"/>
        <path class="cls-2" d="M12.24,106.66S5.06,96.39,4.82,84.38,4,66.07,7.8,65.27a8.25,8.25,0,0,1,3.81,0s-1-25.45,1.52-30.26,8.64-1.62,8.78,1.37c2.44-9.82,11.82-5.23,11.31-1.35C37.58,28.46,45.84,33.44,45,40,44.3,45,41.32,69.4,38.82,80.78"/>
        <polygon class="cls-3" points="163.66 540.71 110.43 530.53 110.43 327.18 163.66 327.18 163.66 540.71"/>
        <path class="cls-4" d="M50.52,506.39c10.9,21.94,28.59,19.87,28.59,19.87L77.05,472Z"/>
        <path class="cls-2" d="M243.48,125l-11-28.78-34.92,19.14A97.81,97.81,0,0,0,207.72,72c-39.8,3.46-46.42,5.48-46.42,5.48L134,144.79,243.48,125"/>
        <path class="cls-2" d="M134,124.64,102.15,80.71l-29.1-2.22,13,42.86-20.15-1S71,146.65,84.19,249C84.19,136.74,134,124.64,134,124.64Z"/>
        <path class="cls-5" d="M163.66,124.64h35.49l44.33.36,133.23-15.85c22-2.61,40.91,15.88,38.39,37.88,0,.2-.05.39-.07.57-1.2,8.67,6.58,57.31,7.18,74.29s-20,86.9-16.56,107.89-11.18,113.17,0,142.5,0,70,0,70-7.38-7.18-63.64-7.18-77.4,14.69-111.32,14.69-47.6-3.64-47.6-3.64L115,147.6Z"/>
        <path class="cls-5" d="M395.94,336c-6.81-7.09-20.28,3.11-13.52,11.71,6.4,8.15,9.45,21.57,8.06,31.73s15.21,14.76,17.41,5.24C411.87,367.43,408.45,349,395.94,336Z"/>
        <path class="cls-5" d="M406.15,394.48c-4.74-9.18-21.39-3.46-17,7.2,4.14,10.1,2,23.07-4,32.12s7.81,20.26,14.34,12.1C411.27,431.17,414.85,411.32,406.15,394.48Z"/>
        <path class="cls-5" d="M369.36,326.53c11.28-5,19.87,11.21,8.57,16.2-10.71,4.74-16.85,17.28-12.28,27.8,4.66,10.72-12.7,18.78-17.4,8C339.78,359,348.64,335.69,369.36,326.53Z"/>
        <path class="cls-5" d="M355.5,385.16c7.69-8.55,21.15,2.48,13.82,12.15-6.95,9.16-9.51,22.29-4.09,32.54s-8.4,20.67-14.83,10.91C338.78,423.14,341.38,400.88,355.5,385.16Z"/>
        <path class="cls-5" d="M356.07,447.41c4.76-9.47,20.49-1.77,16.18,9.33-4.09,10.51-3.54,25.93.46,36.66s-10.9,20-15.52,10.14C348.84,485.8,347.34,464.81,356.07,447.41Z"/>
        <path class="cls-5" d="M350.79,505.93c7.4-9,21.14.65,14.67,10.76-6.12,9.58-4.51,22.31,3.08,30.93s-3.73,21.43-12.27,13.3C340.85,546.24,337.18,522.44,350.79,505.93Z"/>
        <g>
          <path class="cls-2" d="M239.78,218s1.69-15.08,1.41-20-7.69-2.31-8.68-8.51,8-13.4,13-3.28c0,0,10.42-5.89,9.91,2.72s-7.44,2.92-6.95,13.3,1.1,14.32,1.1,14.32"/>
          <path class="cls-5" d="M239.65,217.47c-1.19,4.67-6,17.27-10.92,24.09-4.29,6-12.12,12.43-11.38,25.58,1.9,33.67,35.21,36.51,42.73,24,14.55-24.13-.82-45.78-6.18-59.08-5.79-14.36-4-16.32-5-15.48-3,.5-6.9,2-7.88.64A.79.79,0,0,0,239.65,217.47Z"/>
        </g>
        <g>
          <path class="cls-5" d="M143.36,557.86h53.41L208.23,424a117.15,117.15,0,0,0-2.94-37.87L167.68,232.77H95.28l58.26,176.67Z"/>
          <ellipse cx="170.33" cy="597.47" rx="129.22" ry="8.17"/>
          <g>
            <rect class="cls-2" x="86.9" y="564.05" width="47.06" height="10.03" rx="5.01" ry="5.01"/>
            <path class="cls-2" d="M113.18,574.08H107c-13.7,0-21.92-14.54-40.84-5-14.67,7.39-19.83,30.24,9.11,30.24,42.17,0,42.29.18,50.18.18s16.59-9.8-1.63-25.4Z"/>
          </g>
          <g>
            <rect class="cls-2" x="155.3" y="564.05" width="39.06" height="10.03" rx="4.57" ry="4.57" transform="translate(349.67 1138.13) rotate(-180)"/>
            <path class="cls-2" d="M191.24,574.08h.63c11.37,0,25.23-10.91,44.08-5,13.59,4.25,17.61,30.24-6.41,30.24-35,0-60.58.18-67.13.18s-13.76-9.8,1.36-25.4Z"/>
          </g>
          <polyline class="cls-5" points="96.87 221.88 70.96 399.26 81.14 557.86 134.55 557.86 127.29 401.05 144.24 328.11"/>
        </g>
        <path class="cls-2" d="M83.81,238.37s7,151.61,15.5,258c0,0-46.69-4.29-48.79,10.07C24.66,435.77,76.27,330,76,301s-3.45-88.08-3.45-88.08-14.22,40.29-33.37,38.3S-4.35,118.46,2.84,111.33s37.5,0,37.5,0l10.18,74.55"/>
        <g>
          <path class="cls-1" d="M33.22,237.26s11.52,34.66,42.92-48.75"/>
          <path d="M33.22,237.26a14.79,14.79,0,0,0,2.54,4.21,7.36,7.36,0,0,0,4,2.51,7.14,7.14,0,0,0,4.59-.77l1.05-.57,1-.71a6.19,6.19,0,0,0,.94-.75l.91-.81a43.24,43.24,0,0,0,6.06-7.64c1.81-2.72,3.38-5.6,4.92-8.5,3-5.82,5.65-11.86,8.12-17.95S72.06,194,74.27,187.8L78,189.21c-2.53,6.13-5.08,12.26-7.91,18.27s-5.76,12-9.12,17.72c-1.71,2.86-3.44,5.7-5.43,8.39a45.51,45.51,0,0,1-6.63,7.52l-1,.79a7.43,7.43,0,0,1-1,.75l-1.07.68-1.15.56a7.8,7.8,0,0,1-5,.58,7.76,7.76,0,0,1-4.09-2.84A14.79,14.79,0,0,1,33.22,237.26Z"/>
        </g>
        <path class="cls-2" d="M393.72,111.4c34.65-10.05,54.5,38.87,28.5,52.19-24.73,12.68-26.47,4.56-23.34-3.62-8,1.59-12.31-9.11-4-13.93-5.76-2.11-9.34-9.09.71-11.87-15.24-13.18,7.38-10.6,20-16"/>
        <path class="cls-3" d="M183.08,146.22a125.92,125.92,0,0,0-3.85-12.42l-.16-.39c-14.9,0-29.8-.33-44.7-.82-4,1.57-7.86,2.61-10.43,2.17a7.2,7.2,0,0,1-4.23-2.68c-7.32-.26-14.64-.54-22-.79A29.36,29.36,0,0,0,94,135a29.91,29.91,0,0,0-5.61,10.07C119.69,152.42,151.63,149.32,183.08,146.22Z"/>
        <path class="cls-5" d="M187.15,167.81c-.19-1.41-.38-2.82-.59-4.22-.76-5-1.67-9.9-2.82-14.73-.21-.89-.43-1.76-.66-2.64-31.45,3.1-63.39,6.2-94.71-1.15-.1.33-.22.66-.31,1a29.22,29.22,0,0,0-1.16,8.14q-1,5.39-1.82,10.81A319.77,319.77,0,0,0,187.15,167.81Z"/>
        <path class="cls-3" d="M187.86,187.37c.15-2.11.31-4.21.46-6.26,0-.58.09-1.18.13-1.75-.36-3.86-.79-7.72-1.3-11.55A319.77,319.77,0,0,1,85.08,165v0c-.58,4-1,7.95-1.4,11.95-.29,3.06-.49,6.13-.65,9.19C117.3,191.17,153.06,192,187.86,187.37Z"/>
        <path class="cls-5" d="M186.43,207.92c.29-4.17.57-8.31.86-12.35.19-2.77.38-5.51.57-8.2-34.8,4.6-70.56,3.8-104.83-1.18-.08,1.6-.17,3.19-.23,4.79q-.24,7.19,0,14.38C116.08,215.88,151.8,214.23,186.43,207.92Z"/>
        <path class="cls-3" d="M185.23,224.75l.15-1.9c.36-4.95.7-9.87,1-14.72v-.21c-34.63,6.31-70.35,8-103.67-2.56,0,.71,0,1.42.06,2.13q.25,7.15,1,14.3c0,.16,0,.33,0,.5.14,1.47.29,3,.43,4.5C116.89,236.6,152.38,234.55,185.23,224.75Z"/>
        <path class="cls-5" d="M183.44,247.06c.22-2.45.43-4.9.64-7.37.41-5,.78-10,1.15-14.94-32.85,9.8-68.34,11.85-101,2,.23,2.42.46,4.9.68,7.42.4,4.58.78,9.32,1.13,14.07a188,188,0,0,0,51.14,7.34C153.21,256.42,168.09,251.58,183.44,247.06Z"/>
        <path class="cls-3" d="M181.48,266.72c.16-1.4.31-2.8.46-4.22.52-4.82,1-9.72,1.43-14.67,0-.26,0-.52.07-.77-15.35,4.52-30.23,9.36-46.24,8.56a188,188,0,0,1-51.14-7.34c0,.37.06.74.08,1.11.34,4.74.64,9.49.88,14.15.07,1.31.12,2.61.18,3.9C117.08,275.77,151.45,277.43,181.48,266.72Z"/>
        <path class="cls-5" d="M87.2,267.44c.1,2.18.18,4.34.25,6.46.11,3.49.17,6.87.17,10.1,0,15.75,80.82,13.07,91.51,1q.81-5.42,1.51-11.09c.29-2.36.57-4.76.84-7.18C151.45,277.43,117.08,275.77,87.2,267.44Z"/>
        <path class="cls-5" d="M117.56,128.64a22.61,22.61,0,0,1-1.44-4.07,28.82,28.82,0,0,0-16,4.88c-.84.57-1.64,1.19-2.42,1.84,7.32.25,14.64.53,22,.79A15.74,15.74,0,0,1,117.56,128.64Z"/>
        <path class="cls-5" d="M179.07,133.41c-.94-2.49-1.95-4.94-3.08-7.33-.23-.49-.45-1-.69-1.46l-25.08,0s-2,1.21-4.92,2.8a102.3,102.3,0,0,1-10.93,5.19C149.27,133.08,164.17,133.44,179.07,133.41Z"/>
        <path class="cls-5" d="M175.3,124.62c8.17,16.54,11.35,35.62,13.15,54.74.06-.84.13-1.7.19-2.53l3.89-.92,3.64-.85c-.08-17.55-1-35.81-10.12-50.43Z"/>
        <path class="cls-3" d="M195.33,124.63h-9.28c9.14,14.62,10,32.88,10.12,50.43l2.47-.59,4.28-1c-.74-16.35.22-33.28-4.47-48.83Z"/>
        <path class="cls-5" d="M209.87,125l-7.47-.1-3.8-.05a2.83,2.83,0,0,1,.55-.21h-.7c4.69,15.55,3.73,32.48,4.47,48.83l4.1-1,2.85-.67S217,153.59,209.87,125Z"/>
        <path class="cls-2" d="M35.4,109.67s1-4,7.54-16C49,82.54,43.35,76.21,31.51,67.8c-9.39-6.67-17.15-3.15-8.71,9.36l4.62,8s-14,5.52-10,19.67"/>
        <path class="cls-2" d="M10.52,62.48C-.48,58,.71,76.56,2.37,85.88s11,2.7,9.83-4.84l-1.14-7.55"/>
        <path class="cls-2" d="M33.22,35c-2.17,8.07-3.93,25.16-3.93,25.16"/>
        <path class="cls-2" d="M21.91,36.37S19.3,52.9,19.79,61.19"/>
        <g>
          <path class="cls-3" d="M378.14,234.34a6.8,6.8,0,0,0-6-7.52,6.81,6.81,0,0,1-6-7.53l4.26-37.72L357,180.05l-4.26,37.72a6.82,6.82,0,0,1-7.53,6h0a6.8,6.8,0,0,0-7.52,6l-7.75,68.58h0l0,.14c-.44,3.88,8.27,8.05,19.45,9.32s20.61-.86,21.05-4.74v-.15h0Z"/>
          <path class="cls-5" d="M372.47,189.77s-2.8,2.52-10,1.71-9.36-3.89-9.36-3.89l.89-7.87s2.17,3.08,9.36,3.89,10-1.7,10-1.7Z"/>
          <ellipse class="cls-5" cx="363.72" cy="180.52" rx="3.84" ry="9.74" transform="translate(143.5 521.67) rotate(-83.55)"/>
          <path class="cls-5" d="M376.76,246.6c-.44,3.88-9.86,6-21,4.74s-19.9-5.44-19.46-9.32l-4.08,36.13c-.44,3.88,8.27,8.05,19.45,9.32s20.61-.86,21-4.74Z"/>
        </g>
        <path class="cls-2" d="M327.91,136.45c-16.53,4.43-33.58,4.75-49.18,3.43-15.88-1.33-14,16.93-.35,18.93,16.71,2.44,43.8.6,58.76-6.19C349.39,147.06,340.92,133,327.91,136.45Z"/>
        <path class="cls-5" d="M341.69,138.66c-22.33,7.15-53.39,9.24-76.28,5.66-8.91-1.39-11.18,12.14-2.3,13.52,24.11,3.77,60,.95,83.47-6.57C355.25,148.49,350.27,135.91,341.69,138.66Z"/>
        <path class="cls-2" d="M331.49,148.11c-12.39,4.32-38,5.61-51.47,4.41-18.95-1.68-17.93,15.29-4.42,18.48,16.49,3.89,47.16,1.07,62.74-4.35C351.09,162.21,344.26,143.67,331.49,148.11Z"/>
        <path class="cls-2" d="M301.08,333.57s-12.79,14.7-2.88,37c26.93-8.88,31.66-18.5,31.66-18.5S321.64,340.05,301.08,333.57Z"/>
        <line class="cls-2" x1="303.55" y1="343.8" x2="309.9" y2="350.6"/>
        <line class="cls-2" x1="309.9" y1="343.8" x2="303.55" y2="350.6"/>
        <path class="cls-5" d="M294.44,352.08a573.82,573.82,0,0,0-70.18-1.48L207.1,341l8,11.09-5.18,9.62,14.54-10.95"/>
        <path class="cls-6" d="M286.09,329.22s-12,12.76-2,45.09"/>
        <path class="cls-6" d="M274.63,320.85s-12.05,16.16-2,57.08"/>
        <path class="cls-6" d="M260.8,325.59s-11.47,13.68-1.89,48.33"/>
        <path class="cls-6" d="M234.11,339.29s-6.67,7.06-1.09,25"/>
        <path class="cls-6" d="M246.27,336.19s-6.68,9-1.1,31.77"/>
        <g>
          <path class="cls-3" d="M284.37,217.35h0a15.37,15.37,0,0,1,9.88-16.83l3.13-1.15a7,7,0,0,1,9.28,5.44l2.79,17.57a7,7,0,0,1-7.14,8.05L299,230.3A15.38,15.38,0,0,1,284.37,217.35Z"/>
          <path class="cls-3" d="M290.19,254h0a15.37,15.37,0,0,1,9.87-16.84l3.13-1.15a7,7,0,0,1,9.29,5.44L315.26,259a7,7,0,0,1-7.14,8.05l-3.33-.12A15.37,15.37,0,0,1,290.19,254Z"/>
          <path class="cls-3" d="M302.31,230.43a8.64,8.64,0,0,1,.88,5.55"/>
          <polyline class="cls-7" points="290 223.15 294.31 212.66 298.57 217.95 304.04 205.37"/>
          <polyline class="cls-7" points="295.78 260.19 300.1 249.69 304.36 254.99 309.83 242.41"/>
        </g>
        <ellipse class="cls-3" cx="253.69" cy="471.45" rx="21.23" ry="41.12"/>
        <ellipse class="cls-3" cx="253.69" cy="426.63" rx="7.02" ry="7.32"/>
        <path class="cls-7" d="M253.69,433.94s-14.7,27.5-2.92,73.77"/>
        <g>
          <path class="cls-6" d="M260.8,443.14s15.85-4.33,19.29-16.51"/>
          <path class="cls-6" d="M270.45,456s15.84-1.18,19.29-4.5"/>
          <path class="cls-6" d="M270.23,473.11s19.88.6,24.21,2.31"/>
          <path class="cls-6" d="M270.23,490.88s16,3,19.51,11.48"/>
        </g>
        <g>
          <path class="cls-6" d="M244.45,443.14s-15.8-4.33-19.23-16.51"/>
          <path class="cls-6" d="M234.83,456s-15.8-1.18-19.23-4.5"/>
          <path class="cls-6" d="M235.05,473.11s-19.83.6-24.14,2.31"/>
          <path class="cls-6" d="M235.05,490.88s-16,3-19.45,11.48"/>
        </g>
        <path class="cls-6" d="M249.94,411.61s-4.54,1.56-3.27,5.17,13.17,5.75,14.13.71-2.85-5.88-2.85-5.88"/>
        <path class="cls-2" d="M305.15,427.22s-5.74,56.23,20.92,89V425.45Z"/>
        <path class="cls-3" d="M315.35,426.63a68.23,68.23,0,0,0,0-20.41c-1.75-10.21-5.52-24.13-5.52-24.13l16.24,1.53v41.83Z"/>
        <circle class="cls-1" cx="319.09" cy="389.86" r="2.1"/>
        <ellipse class="cls-2" cx="131.28" cy="126.52" rx="20.13" ry="9.49" transform="translate(-6.8 7.46) rotate(-3.17)"/>
        <path class="cls-4" d="M92.2,66.65c.16,28.45,16.36,60.44,36.18,61.1S164.13,97.49,164,69,147.61,17,127.79,16.31,92,38.19,92.2,66.65Z"/>
        <path class="cls-5" d="M112.79,69.77c0,5.7-.13,16.32-7.86,16.07s-7.7-10.92-7.71-16.59.1-16.26,7.84-16S112.79,64.08,112.79,69.77Z"/>
        <path class="cls-5" d="M133.79,69.43c0,5.69-.2,16.65-8,16.3s-7.65-11-7.66-16.7.1-16.39,7.9-16.27S133.79,63.74,133.79,69.43Z"/>
        <g>
          <path class="cls-5" d="M50.45,52s15.57,11.24,64,11.24S212.21,52,212.21,52l-48.79-4.3-17.36-42a7,7,0,0,0-12.31-1.32L123.22,19.53l-7-13a7.05,7.05,0,0,0-12.69.62L87.41,45.26Z"/>
          <path class="cls-3" d="M87.41,45.26s40.24,10.48,76,2.44l-3.71-9s-30.81,8.51-67-6Z"/>
        </g>
        <g>
          <path class="cls-5" d="M110.06,98.86c-1.63,4.57.68,9.91,4.83,11.45a27.64,27.64,0,0,0,4.68,1.29c-.94-6-1.86-11.92-2.24-17.82C114.26,94.26,111.24,95.53,110.06,98.86Z"/>
          <path class="cls-5" d="M120.69,93.51a24.89,24.89,0,0,0-3.36.27c.38,5.9,1.3,11.85,2.24,17.82a24,24,0,0,0,9.57-.21c-1.1-6.24-2.16-12.48-3.09-18.75A18.28,18.28,0,0,1,120.69,93.51Z"/>
          <path class="cls-5" d="M132.42,89.49a27.59,27.59,0,0,1-6.37,3.15c.93,6.27,2,12.51,3.09,18.75a33.55,33.55,0,0,0,10.76-4.74c-1.75-6.13-3.69-12.17-5.9-18.08C133.48,88.85,133,89.15,132.42,89.49Z"/>
          <path class="cls-5" d="M145.59,89.92c-3.31-3.86-7.34-3.6-11.59-1.35,2.21,5.91,4.15,12,5.9,18.08.41-.26.82-.52,1.22-.8a15,15,0,0,0,4-3.76C148.16,98,149,93.83,145.59,89.92Z"/>
        </g>
        <path class="cls-2" d="M390.94,109.27a141.73,141.73,0,0,1,12.47-13.79c6.42-6,8.51,5.86,3.08,12.29s-5.57,5.29-5.57,5.29Z"/>
        <path class="cls-3" d="M209.87,171.83c-4,28.21-11.7,30.11-11.23,2.64"/>
        <rect class="cls-3" x="163.66" y="557.86" width="22.13" height="6.19"/>
        <rect class="cls-3" x="99.37" y="557.86" width="22.13" height="6.19"/>
        <polygon class="cls-3" points="380.57 342.88 353.02 331.06 353.02 325.59 347.06 337.45 352.36 333.57 380.57 342.88"/>
        <polygon points="141.7 346.56 161.74 407.95 161.83 408.23 161.81 408.49 150.12 549.81 159.07 408.29 159.14 408.83 137.91 347.84 141.7 346.56"/>
        <path class="cls-2" d="M395.63,134.17s16.85,2.1,21.39-3.26"/>
        <path class="cls-2" d="M394.92,146s16.52,2.81,24.47-3.15"/>
        <path class="cls-2" d="M398.88,160a39.92,39.92,0,0,0,20.51-4.46"/>
        <path class="cls-6" d="M185.79,574.08a10.2,10.2,0,0,0-6.41,9.32"/>
        <path class="cls-6" d="M192.19,574.08a10.19,10.19,0,0,0-6.4,9.32"/>
        <path class="cls-6" d="M198.6,574.08a10.21,10.21,0,0,0-6.41,9.32"/>
        <path class="cls-6" d="M112.72,574.08s2.24,2,3.1,9.32"/>
        <path class="cls-6" d="M108,574.08s2.23,2,3.1,9.32"/>
        <path class="cls-6" d="M103.92,574.08s2.23,2,3.1,9.32"/>
      </g>
    </g>
  </g>
</svg>
