<svg xmlns="http://www.w3.org/2000/svg" viewBox="0 0 1487.5 571.94">
  <defs>
    <style>
      .cls-1 {
        isolation: isolate;
      }

      .cls-10, .cls-12, .cls-13, .cls-2, .cls-3, .cls-5, .cls-6, .cls-8 {
        stroke: #000;
        stroke-width: 2.6px;
      }

      .cls-12, .cls-13, .cls-2, .cls-5, .cls-6, .cls-7 {
        stroke-miterlimit: 10;
      }

      .cls-11, .cls-12, .cls-3, .cls-5 {
        fill: #fff;
      }

      .cls-10, .cls-12, .cls-3, .cls-6, .cls-7, .cls-8, .cls-9 {
        stroke-linecap: round;
      }

      .cls-10, .cls-3, .cls-8, .cls-9 {
        stroke-linejoin: round;
      }

      .cls-4 {
        mix-blend-mode: multiply;
      }

      .cls-10, .cls-13, .cls-7, .cls-9 {
        fill: none;
      }

      .cls-7, .cls-9 {
        stroke: #fff;
        stroke-width: 2px;
      }
    </style>
  </defs>
  <title>illu_1_2_a</title>
  <g class="cls-1">
    <g id="Layer_2" data-name="Layer 2">
      <g id="Layer_1-2" data-name="Layer 1">
        <g>
          <g>
            <rect class="cls-2" x="573.82" y="98.89" width="284.61" height="136.25"/>
            <rect class="cls-3" x="904.76" y="47.63" width="31" height="336.78"/>
            <rect class="cls-5" x="531.72" y="47.38" width="377.06" height="336.78"/>
            <line class="cls-5" x1="539.97" y1="166.51" x2="609.05" y2="47.63"/>
            <line class="cls-5" x1="609.66" y1="166.51" x2="678.74" y2="47.63"/>
            <line class="cls-5" x1="679.36" y1="166.51" x2="748.44" y2="47.63"/>
            <line class="cls-5" x1="749.06" y1="166.51" x2="818.14" y2="47.63"/>
            <line class="cls-5" x1="818.75" y1="166.51" x2="887.83" y2="47.63"/>
            <line class="cls-5" x1="534.14" y1="166.51" x2="935.75" y2="166.51"/>
            <g>
              <path class="cls-5" d="M695.14,166.5c0-22.32,10.32-41.59,25.24-50.57a34.57,34.57,0,0,0-14.87-3.39c-23.52,0-42.58,24.16-42.58,54s19.06,54,42.58,54a34.7,34.7,0,0,0,14.89-3.4C705.47,208.11,695.14,188.84,695.14,166.5Z"/>
              <path class="cls-2" d="M748.1,166.51c0-23.18-11.53-42.94-27.72-50.58-14.92,9-25.24,28.25-25.24,50.57s10.33,41.61,25.26,50.58C736.58,209.43,748.1,189.68,748.1,166.51Z"/>
            </g>
            <g>
              <path class="cls-5" d="M813.4,166.51c0-13.07,6.33-24.26,15.32-28.93a20.14,20.14,0,0,0-9.35-2.33c-13.62,0-24.66,14-24.66,31.26s11,31.26,24.66,31.26a20.26,20.26,0,0,0,9.35-2.33C819.73,190.77,813.4,179.58,813.4,166.51Z"/>
              <ellipse class="cls-2" cx="828.72" cy="166.51" rx="15.32" ry="28.93"/>
            </g>
            <g>
              <path class="cls-5" d="M578.26,166.51c0-13.07,6.34-24.26,15.32-28.93a20.1,20.1,0,0,0-9.34-2.33c-13.62,0-24.66,14-24.66,31.26s11,31.26,24.66,31.26a20.22,20.22,0,0,0,9.34-2.33C584.6,190.77,578.26,179.58,578.26,166.51Z"/>
              <ellipse class="cls-2" cx="593.58" cy="166.51" rx="15.32" ry="28.93"/>
            </g>
            <rect class="cls-5" x="910.97" y="159.04" width="24.5" height="15.74"/>
            <g>
              <path class="cls-5" d="M744.29,188.83S722,181.91,684,204c-34.55,20.09-73.26,16.47-74.65,2.08,40.81-27.45,21.35-95.86,24.11-107.3s18,24.36,18,24.36,12-.55,19-1.77c-.59-15.56-.64-43.3,8.83-25.43,1.6,3,5.84,17.2,7.07,19.83a36,36,0,0,0,47.79,17.48c2.31-1.08,3.69-1.85,3.69-1.85S756.28,154.07,744.29,188.83Z"/>
              <ellipse class="cls-2" cx="644.53" cy="163.07" rx="3.45" ry="7.18"/>
              <ellipse class="cls-2" cx="663.43" cy="163.07" rx="3.45" ry="7.18"/>
              <path class="cls-6" d="M652.85,165.8c0,7.41-4.3,8.88-4.3,8.88"/>
              <path class="cls-6" d="M672.37,165.8c0,7.41-4.3,8.88-4.3,8.88"/>
              <path class="cls-7" d="M644.2,158.16s-1.89.71-1.24,7.54"/>
              <path class="cls-7" d="M663.1,157.7s-1.9.7-1.24,7.53"/>
              <circle class="cls-2" cx="610.76" cy="204.04" r="5.64"/>
            </g>
            <path class="cls-2" d="M935.93,84.18S992.81,89,995,155.89s-59.27,117.17-59.27,117.17Z"/>
            <path class="cls-5" d="M997.52,322.1s11.8-.44,3.41,18.64c-7.84,17.86-27.13,16-34.25,27.12-5.66,8.82,0,16.55,20.68,16.55,23.1,0,31.35.15,44.54-19.38,27.76-41.11,15.08-97.88-11.51-101.56-16.55-2.28-22.78,19.18-22.78,19.18l-9.33,2.84"/>
            <ellipse class="cls-5" cx="995.73" cy="302.41" rx="12.85" ry="26.2" transform="translate(-42.1 225.96) rotate(-12.68)"/>
            <path class="cls-2" d="M935.75,284.48s37.2-13.79,47.13-8.28,19.42,53.66,12.19,58.08-59.32,17.8-59.32,17.8Z"/>
            <path class="cls-5" d="M692.62,168.33c10.3-1.67,10.46,12.1,3.32,20.5-6.66,7.83-14,7.29-16,3.6-3.2-6,3-8.32,5.56-12.92C687.35,176.13,687.93,169.09,692.62,168.33Z"/>
            <path class="cls-5" d="M794.34,163.07s-24.76,7.6-30.26,15.55,16.63,3.29,16.63,3.29"/>
            <path class="cls-5" d="M839.28,178.62s-3.95-1.54-10.45,7.91c-6.35,9.25.36,30,1.5,37.05,1.29,8-8.25,7.75-8.25,7.75s-.87,5.64-3.89,7.64c-2.81,1.85-7.8,2.86-13.8-1.89-1.5,1.75-9.68,3.25-13.06-5.75-11.84,0-11.84-16.42-11.84-39.92s20-32.77,30.34-35.52c18.5-4.94,27.54,1.81,27.54,1.81C846.5,166.51,839.28,178.62,839.28,178.62Z"/>
            <path class="cls-5" d="M822.08,231.33s-9.57.94-9.57-30.1"/>
            <path class="cls-5" d="M804.39,237.08c-4.68-10.33-5.18-35.85-5.18-35.85"/>
            <path class="cls-5" d="M791.33,231.33s-3.84-20.37-2.5-30.1"/>
            <path class="cls-5" d="M933.48,159c3.43,0,6.21,3.52,6.21,7.87s-2.78,7.87-6.21,7.87"/>
            <path class="cls-5" d="M927.68,159c3.43,0,6.21,3.52,6.21,7.87s-2.78,7.87-6.21,7.87"/>
            <path class="cls-5" d="M917.91,159c3.43,0,6.21,3.52,6.21,7.87s-2.78,7.87-6.21,7.87"/>
            <g>
              <path class="cls-5" d="M461.31,147.26S440.56,144.4,424.9,155s-27.22,59.36-13.09,103.67,86.83,21.62,86.83,21.62,51.84,23.78,63.63-3.94c-25.66-6.34-69.14-8.61-69.14-8.61S440.44,278.6,430.74,255c-16.93-41.19,5.31-70.64,10.54-73.64,8.15-4.7,30.42-.51,90.52,24.32l-.15-93.45C484.37,91.41,466.76,139,466.76,139"/>
              <path class="cls-5" d="M431.2,97.39s9.5,35.19,23.69,47.74,13.18-6.88,13.18-6.88S451,131,451.21,107"/>
              <path class="cls-5" d="M427.81,57.81c-2.64,32.15,6.11,61.28,22.2,62.6s33.4-25.66,36-57.81-9.61-42.77-25.7-44.09S430.45,25.66,427.81,57.81Z"/>
              <ellipse class="cls-8" cx="482.26" cy="61.6" rx="11.73" ry="8.1" transform="translate(414.59 543.04) rotate(-89.28)"/>
              <ellipse class="cls-8" cx="459.83" cy="59.81" rx="11.73" ry="8.1" transform="translate(394.22 518.85) rotate(-89.28)"/>
              <polyline class="cls-9" points="453.46 63.17 460.8 56.13 460.8 63.18 466.89 57.94"/>
              <polyline class="cls-9" points="475.65 64.31 483.33 56.96 483.33 64.01 489.03 59.1"/>
              <path class="cls-5" d="M470.15,79.51c5.14,8,11.58,13,14.39,11.15s.92-9.74-4.22-17.71-10.45-10.45-13.25-8.64S465,71.54,470.15,79.51Z"/>
              <ellipse class="cls-3" cx="461.16" cy="36.92" rx="13.71" ry="88.23" transform="translate(374.54 491.37) rotate(-83.79)"/>
              <path class="cls-3" d="M492.35,38.86s-9.35,4.85-36,1.33c-20.89-2.76-26.53-8.83-26.53-8.83C431.9,14.1,445.18,1.49,462.57,1.3,483.28,1.07,494.42,21.6,492.35,38.86Z"/>
              <path class="cls-10" d="M441.39,79.09a36.55,36.55,0,0,0,33.41,6.79"/>
            </g>
            <path class="cls-5" d="M502.54,244.05,505.27,268s11,11.85,39.87,18c31.37,6.7,45.35,1,45.35,1l12.06-22.18Z"/>
            <path class="cls-5" d="M502.3,250.32c-21.23-14.13,14.29-18,14.29-18a8.84,8.84,0,0,1,7.52-10.19c9-1.85,12.74,4.38,21.8,1.28s25-3.49,27.33,5.51,10,5,15.51,8,12.4,14.43,12.4,14.43,24.54,15.57,2,20.3C590.31,287.92,506.68,268.11,502.3,250.32Z"/>
            <path class="cls-11" d="M984.35,191.36c.56-10.38,1.19-20.52.7-30.48l-.26-3.73c0-.61,0-1.23-.1-1.85l-.19-1.84-.38-3.68-.6-3.62A85.58,85.58,0,0,0,980,132.05a69.74,69.74,0,0,0-14.34-24.8A78.42,78.42,0,0,0,941.8,89.54l-.06,0a.25.25,0,0,1-.11-.33.24.24,0,0,1,.28-.13,63.32,63.32,0,0,1,36.27,27.38,69.06,69.06,0,0,1,6.58,14c.38,1.24.85,2.45,1.15,3.7l1,3.76c.3,1.25.49,2.53.74,3.8l.36,1.9c.09.64.16,1.28.24,1.92l.46,3.84.23,3.86c.23,2.57.1,5.15.13,7.73a140.23,140.23,0,0,1-4.19,30.52.25.25,0,0,1-.49-.07Z"/>
            <ellipse class="cls-8" cx="559.15" cy="232.05" rx="6.25" ry="7.46" transform="translate(254.1 754.97) rotate(-82.28)"/>
            <g>
              <path class="cls-5" d="M597.44,71.05h0a7,7,0,0,1-3.28-.85A7.83,7.83,0,0,1,591.57,68a6.62,6.62,0,0,1-1.26-3.13c-.2-1.67-.34-3.21-.45-4.66s-.18-2.8-.23-4.11-.07-2.57-.07-3.84,0-2.52.05-3.83.11-2.67.21-4.11.24-3,.43-4.67a6.6,6.6,0,0,1,1.25-3.13,7.8,7.8,0,0,1,2.58-2.23,7,7,0,0,1,3.28-.85h0a8.33,8.33,0,0,1,6.16,2.33,28,28,0,0,0-.82,3.88c-.19,1.68-.33,3.22-.43,4.67s-.17,2.8-.21,4.11S602,51,602,52.23s0,2.53.08,3.84.12,2.66.23,4.11.25,3,.45,4.66a5.7,5.7,0,0,1-1.23,4.39A5.26,5.26,0,0,1,597.44,71.05Z"/>
              <path class="cls-5" d="M610.58,72.84h0a7.63,7.63,0,0,1-3.49-.89,8.41,8.41,0,0,1-2.77-2.36,7.07,7.07,0,0,1-1.39-3.3c-.24-1.9-.42-3.65-.56-5.29s-.22-3.17-.28-4.66S602,53.43,602,52s0-2.86.09-4.34.15-3,.28-4.67.32-3.38.56-5.28a7.07,7.07,0,0,1,1.39-3.3A8.29,8.29,0,0,1,607.09,32a7.51,7.51,0,0,1,3.49-.89h0c4.59,0,7.44,1.08,8.43,2.26,0,0-2.67,2.48-2.91,4.29s-.42,3.64-.56,5.28-.22,3.18-.28,4.67-.09,2.91-.09,4.34,0,2.87.09,4.35.15,3,.28,4.66.32,3.39.56,5.29a6,6,0,0,1-1.22,4.63A5.46,5.46,0,0,1,610.58,72.84Z"/>
              <path class="cls-5" d="M623.64,72.84h0a7.38,7.38,0,0,1-3.43-.88,8.34,8.34,0,0,1-2.73-2.31,7.1,7.1,0,0,1-1.36-3.25c-.25-1.87-.43-3.58-.56-5.2s-.23-3.12-.29-4.58-.09-2.87-.1-4.28,0-2.81.07-4.27.14-3,.26-4.59.3-3.33.53-5.19A7,7,0,0,1,617.37,35a8.3,8.3,0,0,1,2.72-2.31,7.34,7.34,0,0,1,3.42-.88h0c6.74,0,8.18,2.73,9.16,3.9a9.61,9.61,0,0,0-4.22,7.74c0,1.62-.2,3.13-.26,4.59s-.07,2.87-.07,4.27,0,2.82.1,4.28.15,3,.29,4.58.31,3.33.56,5.2a5.85,5.85,0,0,1-1.2,4.55A5.37,5.37,0,0,1,623.64,72.84Z"/>
              <path class="cls-5" d="M635.35,71.05h0a6.51,6.51,0,0,1-4.2-1.63A6.26,6.26,0,0,1,629,65.5c-.23-1.93-.4-3.67-.52-5.29s-.2-3.14-.25-4.61-.06-2.91,0-4.38,0-3,.13-4.61.19-3.37.38-5.3a6.12,6.12,0,0,1,2.09-3.94,6.39,6.39,0,0,1,4.17-1.63h0c6.18,0,11.68,5.21,12.6,11.89h-8.42c-.08,1.62.37,10.95.49,12.58s.29,3.36.52,5.29A5,5,0,0,1,639,69.42,4.65,4.65,0,0,1,635.35,71.05Z"/>
            </g>
            <path class="cls-5" d="M589.29,44.55s-9.92-14.55-16.07-9c-4.89,4.39,2.53,12.09,2.53,12.09h13.54Z"/>
            <path class="cls-5" d="M495,282.69c39.17,27.47,71.57,6.58,71.57,6.58-39.66-2.86-55.67-21-55.67-21s10.56-21.39,7.13-24.92c-6.61-6.81-26.11,23.87-26.11,23.87l-12.73-.2,1.5,18.11Z"/>
            <path d="M574.53,250.55a12.89,12.89,0,0,0-2.56-1.78,1,1,0,0,0-1.5.86,4.43,4.43,0,0,0,1.48,3.14,2.57,2.57,0,0,0,1.73,1.42,1.71,1.71,0,0,0,2-1.22A2.61,2.61,0,0,0,574.53,250.55Z"/>
            <path d="M541.35,251.17a9.91,9.91,0,0,0-4.34,1.26.87.87,0,0,0-.47.73,2,2,0,0,0,1.18,2.62,2.5,2.5,0,0,0,2.27-.53c.77-.61,1.08-1.66,1.86-2.22S542.42,251.12,541.35,251.17Z"/>
            <path d="M591.8,259.91l-2.45-1.2a1,1,0,0,0-1.36.36,4,4,0,0,0,.35,2.22,3.81,3.81,0,0,0,3.22.44A1,1,0,0,0,591.8,259.91Z"/>
            <path d="M536.67,232.77h-2.73a.42.42,0,0,0-.12,0H533a1,1,0,0,0-.27,1.95,8.89,8.89,0,0,0,3.4.34,1,1,0,0,0,.7-.38A1,1,0,0,0,536.67,232.77Z"/>
            <path d="M559.52,248.8a1,1,0,0,0-1.31-.37.87.87,0,0,0-.76.29,3.21,3.21,0,0,0-1.15,2.39,1.86,1.86,0,0,0,3.61.65A3.4,3.4,0,0,0,559.52,248.8Z"/>
            <path d="M585.05,242.11h-1.88a1,1,0,0,0,0,2h1.88A1,1,0,0,0,585.05,242.11Z"/>
            <path d="M526.34,242l-1.29.15a1,1,0,1,0,0,2l.45,0,.15,0,.69-.08a1,1,0,0,0,1-1A1,1,0,0,0,526.34,242Z"/>
            <path d="M572.33,260.58a1,1,0,0,0-1,1,.91.91,0,0,0,.49.82,1,1,0,0,0,1.94.12A1.55,1.55,0,0,0,572.33,260.58Z"/>
            <rect class="cls-5" x="473.15" y="262.76" width="7.43" height="27.07" rx="3.71" ry="3.71" transform="translate(-28.75 57) rotate(-6.64)"/>
            <g>
              <path class="cls-5" d="M586.45,183.59c-3.29-1.6-15-2.11-26.33-.23s-33.64.28-39-9.73c-1.52-2.82-1-11.24-1-11.24a10.3,10.3,0,0,1,.79-11.71,13.42,13.42,0,0,1,3.36-14.44c-.53-5,.47-8.71,5-11.62,10.72-6.85,32.47,6.7,32.47,6.7a120.36,120.36,0,0,1-1.24-15.57c0-10.07,6.52-16.86,11.07-1.45,4.33,14.66,10.33,26.47,22,29.84,0,0,5.31,1.53,3.52,19S586.45,183.59,586.45,183.59Z"/>
              <path class="cls-3" d="M549.39,125.43c21.94,9.82,18,19.91,11.38,18.17-8.77-6-27.11-6.87-27.11-6.87s37.17-.13,32.84,21c-2.1,10.25-6.92-11.93-36.89-8.49,27.31-2.61,33.47,12.34,34.36,18.64,1.51,10.61-29.05-5.48-34.65-4.39"/>
            </g>
            <ellipse class="cls-5" cx="910.97" cy="166.91" rx="6.21" ry="7.87"/>
            <ellipse class="cls-5" cx="910.97" cy="166.91" rx="1.86" ry="2.36"/>
            <path class="cls-5" d="M992.49,351.57s9.86-2.14,18.85,3.36"/>
            <path class="cls-5" d="M1000.93,340.74s10.69-3.31,18.38,2.36"/>
            <path class="cls-5" d="M1003.89,330.57a29.63,29.63,0,0,1,20.78,0"/>
            <path class="cls-12" d="M526.48,163.73s12-5.91,23.43,1.35c18,11.44,2.21,20.37-10.91,7.6l-5.5,2"/>
            <path d="M455.67,175a65.64,65.64,0,0,1,10,1.16c1.64.3,3.29.62,4.92,1s3.27.74,4.9,1.14c6.5,1.61,12.94,3.49,19.32,5.55,3.19,1,6.36,2.12,9.54,3.19s6.31,2.24,9.45,3.41,6.28,2.36,9.4,3.58l9.35,3.71-1.6,3.67-9.1-4.16c-3-1.36-6.1-2.67-9.16-4s-6.15-2.57-9.23-3.86-6.19-2.47-9.31-3.64c-6.23-2.37-12.54-4.55-18.92-6.48-1.6-.47-3.2-1-4.81-1.37s-3.23-.85-4.86-1.23A65.67,65.67,0,0,0,455.67,175Z"/>
          </g>
          <line class="cls-2" y1="570.64" x2="1487.5" y2="570.64"/>
          <g>
            <rect class="cls-5" x="237.19" y="399.62" width="1099.16" height="171.03"/>
            <g>
              <rect class="cls-5" x="1119.69" y="428.14" width="173.97" height="15.33" transform="translate(2413.35 871.62) rotate(180)"/>
              <rect class="cls-5" x="1147.04" y="473.37" width="173.97" height="15.33" transform="translate(2468.04 962.07) rotate(180)"/>
              <rect class="cls-5" x="1174.38" y="518.59" width="173.97" height="15.33" transform="translate(2522.74 1052.51) rotate(180)"/>
            </g>
            <g>
              <rect class="cls-3" x="1180.35" y="428.14" width="173.97" height="15.33" transform="translate(2534.66 871.62) rotate(180)"/>
              <rect class="cls-3" x="1207.69" y="473.37" width="173.97" height="15.33" transform="translate(2589.36 962.07) rotate(180)"/>
              <rect class="cls-3" x="1235.04" y="518.59" width="173.97" height="15.33" transform="translate(2644.05 1052.51) rotate(180)"/>
            </g>
            <g>
              <rect class="cls-5" x="176.75" y="384.4" width="1250.7" height="15.22"/>
              <rect class="cls-3" x="1116.21" y="384.28" width="311.24" height="15.33"/>
            </g>
          </g>
          <g>
            <polygon class="cls-11" points="1082.85 287.44 1054.34 259.28 1068.59 216.65 1121.58 173.75 1272.95 208.31 1267.33 272.04 1082.85 287.44"/>
            <path class="cls-8" d="M1275.07,248.91c5.27,55.56,8.58,123.28,12,179l-80.34.06c-23.6-.31,11.37-28.36,25.34-21.3-3.28-31.57-18.26-71.62-21.32-103.31-14.54,0-64.42-5-63.35,9.49,2,26.92,6.27,42.77,6.14,71l-70.11.09c-31.57,0,6.12-28,20.34-21.05-10.87-27.75-9.48-36.13-9.48-36.13"/>
            <path class="cls-5" d="M1244.39,256.22c4,11.91,4,35.12,4,35.12l32.54-.58,1,12.24-32.66,1.2s.38,46.56,9.65,72.56c-105.39-1.15-105.8-59.17-164.33-41.64-15.31-30.68-21-74.3,16.46-77.65"/>
            <path class="cls-2" d="M1152.22,243.15c1.5,3,2.89,5.32,4.4,8.78,14.36,12.1,42.55,32.37,47,47.84s26.4,9.43,29.16-1.17c-29.16-27.6-50.22-46.34-69.92-65.74C1166.37,236.33,1155.77,239.73,1152.22,243.15Z"/>
            <path class="cls-5" d="M1089.76,187.76c-27.33,16.71-54.12,65.11-34.43,92.85,15.58,21.95,39,26.51,53.4,17.5,9.65-6.05,3.13-9.44,6.38-14.52a14.61,14.61,0,0,0,3.21-11.54c-.55-2.83-3.21-7.47-6.41-8.34.11-5,2.68-4.94-2.52-10.69-2.62-2.9-17.15-4.53-22.35-.35-2.16-3.48.55-4.38-2.51-8.08s-18.27,5-18.38,9.31"/>
            <path class="cls-5" d="M1235.53,208.78l15.79,14.68c-22.58,0-44.65,16.31-55.82,16.81-8.76-7.41-16-7.41-28.46-3,0,0,5,4.28,8.73,7.53-6.58,4.79-10.35,19.16-20,9.45A26,26,0,0,0,1154,266c.15,2.51,2.29,3.24,2.92,5.41s-.22,5.83.71,7.31a43,43,0,0,0,6.93,8.77c1.94,1.83,5.4,2.44,8.31,4,2.07,1.14,3.31,3.34,6.05,4.3,10.11,3.56,20.28-4.26,33.07-5.61,36.83-3.9,95.86-6.4,104.75-61.16,10-61.34-86.62-84.81-109.19-82.08-56.47,6.83-84.74,11.19-117.78,40.83"/>
            <ellipse class="cls-5" cx="1090.85" cy="252.26" rx="14.92" ry="7.71" transform="translate(-28.77 245.62) rotate(-12.68)"/>
            <path class="cls-5" d="M1125.29,255.52c16.26-10.41,41.85-18.35,41.85-18.35L1017.66,92c7.21,34.46,21.35,68.55,44,94.54C1082.85,210.78,1102,230.92,1125.29,255.52Z"/>
            <path class="cls-5" d="M1095.4,249.77,1053,85.54l-4.44,1.21,36.32,166.59C1089.34,253.34,1093.39,252.21,1095.4,249.77Z"/>
            <path class="cls-3" d="M1216.45,149.27c-6.42-27.75-19.94-82.19-19.94-82.19,16-5.18,27.39-14.71,22-32.68-3.82-12.75-18.26-16.35-30.51-10.79-1.75-10.29-8.87-17.51-19.94-17.51-21.75,0-31.38,20.42-31.38,20.42-17.51-8.47-32.56-5.92-40.81,4.8-6.48,8.42-1.19,22.06,6.21,28.19-13.27,8.77-20.09,19.95-12.51,30.07,8.93,11.94,26.39,4.85,26.39,4.85,4.3,23.73,15.82,73.7,15.82,73.7C1150,189.22,1192.36,166.1,1216.45,149.27Z"/>
            <path class="cls-13" d="M1244.71,152.29c-27.3,9.16-31.41,47.28-11.36,73.86"/>
            <path class="cls-5" d="M1235.13,149.69c-20.23,5.67-30.65,25.05-31,47.31-22.26,7.8-51.93,10.77-71.83,6.55"/>
            <path class="cls-5" d="M1130.49,165.15c-5.69,6.51-10.48,17.93-11.32,26.4"/>
            <path class="cls-8" d="M1140.09,115.43c1,4.71,2.7,13.53-3.74,14.66s-8.25-7.71-9.24-12.4-2.71-13.47,3.73-14.61S1139.11,110.72,1140.09,115.43Z"/>
            <path class="cls-8" d="M1159,111.14c1,4.71,2.7,13.81-3.78,14.86s-8.23-7.78-9.21-12.5-2.75-13.58,3.73-14.82S1158.06,106.43,1159,111.14Z"/>
            <path class="cls-3" d="M1175.52,142.49a13.86,13.86,0,0,0,2.8-4.23c1.87-4.29,1.69-8.25-2.17-11-4.27-3.09-8.24-1.34-11.94,2.42-2.63,2.68-5.27,5-9.68,6.12-3.51.9-7.93,2.62-8.42,7.07s2.72,8.76,6.79,9.27C1162.65,153.3,1169.57,149,1175.52,142.49Z"/>
            <path class="cls-3" d="M1146.31,145.28c13.48,0,24.86-3.9,30.54-17-1.55-.83-3.1-1.68-4.66-2.48,1,1.81,2,3.63,3,5.45l4,3.76c-.42-1.85-.85-3.69-1.27-5.54"/>
            <path class="cls-5" d="M1287.08,171.45s-27.15-.35-44,44.32"/>
            <path class="cls-13" d="M1121.58,165.93s-7.73,9.12-10.57,17.65"/>
            <path class="cls-13" d="M1103.88,247.4a13.64,13.64,0,0,0,4.76-9.91"/>
            <g>
              <path class="cls-3" d="M1239.31,256.85s10.71-8.55,4.72-15.56-20.56,12.46-24.66,24.65C1245.53,278.35,1271.9,254.37,1239.31,256.85Z"/>
              <line class="cls-3" x1="1230.19" y1="259.28" x2="1216.04" y2="252.98"/>
              <line class="cls-3" x1="1246.88" y1="267.94" x2="1256.66" y2="272.23"/>
            </g>
            <path class="cls-11" d="M1103.79,367.18c-3.25.83-5.83,1.37-8.21,2.14a69.2,69.2,0,0,0-6.71,2.47c-2.19.91-4.41,2-6.8,3.08s-4.93,2.32-8,3.49l-.14.05a.23.23,0,0,1-.3-.13.26.26,0,0,1,0-.21,31.27,31.27,0,0,1,5.91-6.3,30.76,30.76,0,0,1,7.36-4.58,24.12,24.12,0,0,1,8.49-1.87,22.1,22.1,0,0,1,8.53,1.39.22.22,0,0,1,.14.29.21.21,0,0,1-.15.15Z"/>
            <path class="cls-11" d="M1233.51,411.36c-3.25.83-5.83,1.37-8.21,2.14s-4.51,1.55-6.71,2.47-4.41,2-6.8,3.09-4.93,2.31-8,3.48l-.14.06a.24.24,0,0,1-.3-.14.23.23,0,0,1,0-.21,31.27,31.27,0,0,1,5.91-6.3,30.76,30.76,0,0,1,7.36-4.58,24.12,24.12,0,0,1,8.49-1.87,22.29,22.29,0,0,1,8.53,1.39.22.22,0,0,1,.14.29.2.2,0,0,1-.16.15Z"/>
            <path class="cls-11" d="M1282.73,422.42a244.28,244.28,0,0,1-5.14-28.53c-1.23-9.55-2.18-19.12-2.76-28.72s-.9-19.21-.89-28.83a249.39,249.39,0,0,1,1.46-29v0a.24.24,0,0,1,.27-.21.25.25,0,0,1,.22.23l1,14.37,1,14.37,1.91,28.76,1.75,28.76.87,14.38.8,14.39a.25.25,0,0,1-.24.26.24.24,0,0,1-.25-.19Z"/>
            <ellipse class="cls-5" cx="1215.97" cy="298.55" rx="4.92" ry="4.34" transform="translate(-24.5 468.7) rotate(-21.61)"/>
            <path d="M1192.68,71.07l9.33,38.46,8.93,38.54-.38.09a146.65,146.65,0,0,1-7.15-18.63c-1.07-3.14-1.89-6.33-2.83-9.5s-1.65-6.39-2.46-9.58-1.45-6.44-2.1-9.67-1.28-6.48-1.73-9.76a146.5,146.5,0,0,1-2-19.86Z"/>
          </g>
        </g>
      </g>
    </g>
  </g>
</svg>
