<?xml version="1.0" encoding="utf-8"?>
<!-- Generator: Adobe Illustrator 22.0.1, SVG Export Plug-In . SVG Version: 6.00 Build 0)  -->
<svg version="1.1" id="Layer_1" xmlns="http://www.w3.org/2000/svg" xmlns:xlink="http://www.w3.org/1999/xlink" x="0px" y="0px"
	 width="1684px" height="1016px" viewBox="0 0 1684 1016" style="enable-background:new 0 0 1684 1016;" xml:space="preserve">
<style type="text/css">
	.st0{stroke:#000000;stroke-width:2.6;stroke-miterlimit:10;}
	.st1{fill:#FFFFFF;stroke:#000000;stroke-width:2.6;stroke-linecap:round;stroke-linejoin:round;}
	.st2{fill:#FFFFFF;stroke:#000000;stroke-width:2.6;stroke-miterlimit:10;}
	.st3{fill:none;stroke:#000000;stroke-width:2.6;stroke-miterlimit:10;}
	.st4{stroke:#000000;stroke-width:2.6;stroke-linecap:round;stroke-miterlimit:10;}
	.st5{fill:none;stroke:#FFFFFF;stroke-width:2;stroke-linecap:round;stroke-miterlimit:10;}
	.st6{stroke:#000000;stroke-width:2.6;stroke-linecap:round;stroke-linejoin:round;}
	.st7{fill:none;stroke:#FFFFFF;stroke-width:2;stroke-linecap:round;stroke-linejoin:round;}
	.st8{fill:none;stroke:#000000;stroke-width:2.6;stroke-linecap:round;stroke-linejoin:round;}
	.st9{fill:#FFFFFF;}
	.st10{fill:#FFFFFF;stroke:#000000;stroke-width:2.6;stroke-linecap:round;stroke-miterlimit:10;}
	.st11{fill:none;stroke:#000000;stroke-width:2.6;stroke-linecap:round;stroke-miterlimit:10;}
	.st12{stroke:#FFFFFF;stroke-width:2.6;stroke-linecap:round;stroke-linejoin:round;}
	.st13{fill:none;stroke:#000000;stroke-width:6;stroke-linecap:round;stroke-linejoin:round;}
	.st14{fill:#387CDB;stroke:#000000;stroke-width:2.6;stroke-linecap:round;stroke-linejoin:round;}
	.st15{stroke:#000000;stroke-width:2.59;stroke-linecap:round;stroke-linejoin:round;}
	.st16{fill:none;stroke:#000000;stroke-width:6;stroke-linejoin:round;}
	.st17{fill:#FFFFFF;stroke:#000000;stroke-width:2.6;stroke-linejoin:round;}
	.st18{fill:none;stroke:#000000;stroke-width:2.6;stroke-linejoin:round;}
	.st19{stroke:#000000;stroke-width:2.6;stroke-linejoin:round;}
	.st20{fill:none;stroke:#000000;stroke-width:5;stroke-linecap:round;stroke-linejoin:round;}
</style>
<g id="Layer_2_2_">
	<g id="Layer_1-2_1_">
		<rect x="680.3" y="418.2" class="st0" width="276.8" height="132.5"/>
		<rect x="1002.3" y="368.3" class="st1" width="30.2" height="327.6"/>
		<rect x="639.4" y="368.1" class="st2" width="366.8" height="327.6"/>
		<line class="st3" x1="647.4" y1="483.9" x2="714.6" y2="368.3"/>
		<line class="st3" x1="715.2" y1="483.9" x2="782.4" y2="368.3"/>
		<line class="st3" x1="783" y1="483.9" x2="850.2" y2="368.3"/>
		<line class="st3" x1="850.8" y1="483.9" x2="918" y2="368.3"/>
		<line class="st3" x1="918.6" y1="483.9" x2="985.7" y2="368.3"/>
		<line class="st3" x1="641.7" y1="483.9" x2="1032.4" y2="483.9"/>
		<path class="st2" d="M798.3,483.9c0-21.7,10-40.5,24.5-49.2c-4.5-2.2-9.5-3.3-14.5-3.3c-22.9,0-41.4,23.5-41.4,52.5
			s18.6,52.5,41.4,52.5c5,0,10-1.1,14.5-3.3C808.4,524.4,798.3,505.6,798.3,483.9z"/>
		<path class="st0" d="M849.9,483.9c0-22.6-11.2-41.7-26.9-49.2c-14.5,8.8-24.5,27.4-24.5,49.2s10,40.5,24.6,49.2
			C838.7,525.7,849.9,506.5,849.9,483.9z"/>
		<path class="st2" d="M913.4,483.9c0-12.7,6.1-23.6,14.9-28.1c-2.8-1.5-5.9-2.2-9-2.2c-13.2,0-24,13.6-24,30.4
			c0,16.8,10.7,30.3,24,30.3c3.2,0,6.3-0.8,9-2.2C919.5,507.6,913.4,496.7,913.4,483.9z"/>
		<ellipse class="st0" cx="928.3" cy="483.9" rx="14.9" ry="28.1"/>
		<path class="st2" d="M684.7,483.9c0-12.7,6.1-23.6,14.9-28.1c-2.8-1.5-5.9-2.2-9-2.2c-13.2,0-24,13.6-24,30.4
			c0,16.8,10.7,30.3,24,30.3c3.2,0,6.3-0.8,9-2.2C690.8,507.6,684.7,496.7,684.7,483.9z"/>
		<ellipse class="st0" cx="699.6" cy="483.9" rx="14.9" ry="28.1"/>
		<path class="st2" d="M700.3,534.8c-3.7,3.7-8.8,3.4-8.5-1.8c0.7-13.5,8-31.6,0.7-26.5c-8.7,6.1-3.9,31.4-3.5,38.3
			c0.4,7.9-8.4,6.7-8.4,6.7s-0.1,0.8-3.1,2.4c-2.7,1.6-7.5,2-12.5-3.1c-1.6,1.6-9.2,2.2-11.5-6.8c-10.9-1.1-8.6-20-4.1-42.5
			c3.9-19.6,18.7-27.1,28.5-28.8c10.3-1.9,20.9-2.1,31.3-0.8C715.2,487.5,709.2,525.9,700.3,534.8z"/>
		<path class="st2" d="M680.6,551.6c0,0-8.7-1.8-4.7-34.6"/>
		<path class="st2" d="M665,550.9c-3.3-10.4-1.3-35.2-1.3-35.2"/>
		<path class="st2" d="M653.6,544.2c0,0-1.6-20,0.7-29.4"/>
		<rect x="1008.3" y="476.6" class="st2" width="23.8" height="15.3"/>
		<path class="st2" d="M846.2,505.6c0,0-21.7-6.7-58.7,14.8c-33.6,19.6-71.3,16-72.7,2c39.7-26.7,20.7-93.3,23.4-104.4
			s17.5,23.7,17.5,23.7s11.7-0.5,18.5-1.8c-0.6-15.2-0.6-42.1,8.6-24.7c1.6,2.9,5.6,16.7,6.9,19.3c8.2,17.5,29,25.1,46.5,17
			c2.2-1.1,3.6-1.8,3.6-1.8S857.8,471.9,846.2,505.6z"/>
		<ellipse class="st0" cx="749.1" cy="480.5" rx="3.4" ry="7"/>
		<ellipse class="st0" cx="767.5" cy="480.5" rx="3.4" ry="7"/>
		<path class="st4" d="M757.2,483.2c0,7.2-4.2,8.7-4.2,8.7"/>
		<path class="st4" d="M776.2,483.2c0,7.2-4.2,8.7-4.2,8.7"/>
		<path class="st5" d="M748.8,475.8c0,0-1.8,0.7-1.2,7.3"/>
		<path class="st5" d="M767.2,475.4c0,0-1.8,0.7-1.2,7.3"/>
		<circle class="st0" cx="716.3" cy="520.4" r="5.4"/>
		<path class="st0" d="M1032.5,403.9c0,0,55.3,4.7,57.5,69.7s-57.7,114-57.7,114L1032.5,403.9z"/>
		<path class="st2" d="M1092.5,635.3c0,0,11.5-0.4,3.3,18.1c-7.6,17.4-26.4,15.6-33.3,26.4c-5.5,8.6,0,16,20.1,16
			c22.5,0,30.4,0.1,43.3-18.9c27-40,14.7-95.2-11.2-98.8c-16.1-2.2-22.2,18.7-22.2,18.7l-9,2.7"/>
		
			<ellipse transform="matrix(0.9756 -0.2195 0.2195 0.9756 -108.6379 254.4368)" class="st2" cx="1090.7" cy="616.1" rx="12.5" ry="25.5"/>
		<path class="st0" d="M1032.4,598.7c0,0,36.2-13.4,45.8-8.1c9.6,5.3,18.9,52.2,11.9,56.5c-7,4.3-57.7,17.3-57.7,17.3L1032.4,598.7
			L1032.4,598.7z"/>
		<path class="st2" d="M795.9,485.7c10-1.7,10.2,11.8,3.2,19.9c-6.5,7.6-13.6,7.1-15.6,3.5c-3.1-5.8,2.9-8.1,5.4-12.5
			C790.7,493.3,791.3,486.5,795.9,485.7z"/>
		<path class="st2" d="M894.8,480.5c0,0-24.1,7.4-29.5,15.2c-5.3,7.8,16.1,3.2,16.1,3.2"/>
		<path class="st2" d="M938.6,495.7c0,0-3.9-1.5-10.2,7.7c-6.1,8.9,0.4,29.2,1.5,36c1.3,7.8-8,7.6-8,7.6s-0.9,5.4-3.8,7.4
			c-2.7,1.8-7.6,2.8-13.4-1.8c-1.5,1.8-9.4,3.1-12.7-5.6c-11.5,0-11.5-16-11.5-38.8s19.5-31.9,29.5-34.5c18-4.8,26.7,1.8,26.7,1.8
			C945.6,483.9,938.6,495.7,938.6,495.7z"/>
		<path class="st2" d="M921.8,547c0,0-9.3,0.9-9.3-29.3"/>
		<path class="st2" d="M904.6,552.6c-4.6-10-5.1-34.8-5.1-34.8"/>
		<path class="st2" d="M891.9,547c0,0-3.7-19.8-2.4-29.3"/>
		<path class="st2" d="M1030.2,476.6c3.3,0,6,3.4,6,7.7c0,4.3-2.7,7.7-6,7.7"/>
		<path class="st2" d="M1024.6,476.6c3.3,0,6,3.4,6,7.7c0,4.3-2.7,7.7-6,7.7"/>
		<path class="st2" d="M1015,476.6c3.3,0,6,3.4,6,7.7c0,4.3-2.7,7.7-6,7.7"/>
		<path class="st2" d="M570.9,465.1c0,0-20.5-3.3-35.4,7.5c-20.4,14.9-9.7,71.9,32.3,88.5c34.9,13.9,71.6,1.8,71.6,1.8V543
			c0,0-42.4,12.5-66.9-0.6c-17.1-9.1-26.2-41.1-21-44.1c7.9-4.6,29.6-0.5,88,23.6l-0.2-90.9c-46-20.2-63.1,26.1-63.1,26.1"/>
		<path class="st2" d="M541.6,416.7c0,0,9.2,34.2,23.1,46.4c13.8,12.2,12.8-6.7,12.8-6.7s-16.6-7-16.4-30.3"/>
		<path class="st2" d="M532.8,386.2c2.5,31.3,15.5,57.9,31.1,56.6s28-29.9,25.5-61.2s-15.9-39.6-31.6-38.3
			C542,344.5,530.2,354.9,532.8,386.2z"/>
		
			<ellipse transform="matrix(0.9887 -0.1499 0.1499 0.9887 -50.512 92.2647)" class="st6" cx="586.9" cy="381.2" rx="7.9" ry="11.4"/>
		
			<ellipse transform="matrix(0.9889 -0.1488 0.1488 0.9889 -50.7316 88.1874)" class="st6" cx="563.8" cy="383" rx="7.9" ry="11.4"/>
		<polyline class="st7" points="558.2,387.3 564.2,379.5 565.2,386.2 570.3,380.2 		"/>
		<polyline class="st7" points="579.6,385 585.9,376.7 587,383.4 591.7,377.9 		"/>
		<path class="st2" d="M576.8,400.4c6.2,6.8,13.1,10.6,15.6,8.5c2.4-2.1-0.7-9.5-6.8-16.3c-6.1-6.8-11.7-8.4-14.1-6.2
			S570.6,393.6,576.8,400.4z"/>
		
			<ellipse transform="matrix(7.155853e-03 -1 1 7.155853e-03 196.0208 919.1753)" class="st1" cx="560.9" cy="360.9" rx="13.3" ry="85.8"/>
		<path class="st1" d="M591.2,359.7c0,0-8.6,5.6-34.7,4.9c-20.5-0.6-26.6-5.9-26.6-5.9c0.3-16.9,11.9-30.4,28.7-32.3
			C578.8,324,591.5,342.8,591.2,359.7z"/>
		<path class="st8" d="M549.1,404.6c10.2,5.8,22.6,6.3,33.2,1.3"/>
		<path class="st9" d="M1079.6,508c0.6-10.1,1.2-19.9,0.7-29.7l-0.3-3.6c0-0.6,0-1.2-0.1-1.8l-0.2-1.8l-0.4-3.6l-0.6-3.5
			c-0.7-4.7-1.9-9.2-3.4-13.7c-2.9-8.9-7.7-17.1-13.9-24.1c-6.6-7.2-14.5-13-23.2-17.2h-0.1c-0.1-0.1-0.2-0.2-0.1-0.3l0,0
			c0-0.1,0.1-0.2,0.2-0.1c0,0,0,0,0.1,0c14.7,4.2,27.3,13.7,35.3,26.7c2.6,4.3,4.8,8.9,6.4,13.6c0.4,1.2,0.9,2.4,1.2,3.6l1,3.7
			c0.3,1.2,0.5,2.4,0.7,3.7l0.4,1.8c0.1,0.6,0.2,1.2,0.2,1.8l0.5,3.7l0.2,3.8c0.2,2.5,0.1,5.1,0.1,7.5c-0.3,10-1.7,20-4.1,29.7
			c0,0.1-0.2,0.2-0.3,0.2C1079.8,508.3,1079.7,508.2,1079.6,508L1079.6,508z"/>
		<path class="st2" d="M703.3,391L703.3,391c-1.1,0-2.2-0.3-3.2-0.8c-1-0.5-1.9-1.2-2.5-2.1c-0.7-0.9-1.1-1.9-1.3-3
			c-0.2-1.7-0.3-3.1-0.5-4.6c-0.2-1.3-0.2-2.7-0.2-4c0-1.3-0.1-2.5-0.1-3.7v-3.7c0-1.3,0.1-2.6,0.2-4c0.1-1.4,0.2-2.9,0.4-4.6
			c0.1-1.1,0.5-2.1,1.2-3c0.7-0.9,1.5-1.6,2.5-2.1c1-0.5,2.1-0.8,3.2-0.8l0,0c2.2-0.1,4.4,0.7,6,2.2c-0.4,1.2-0.6,2.5-0.8,3.8
			c-0.2,1.7-0.3,3.1-0.4,4.6c-0.1,1.5-0.2,2.7-0.2,4s-0.1,2.5-0.1,3.7s0,2.4,0.1,3.7c0.1,1.3,0.1,2.6,0.2,4c0.1,1.5,0.2,3.1,0.5,4.6
			c0.2,1.5-0.2,3.1-1.2,4.3C706.2,390.5,704.7,391.1,703.3,391z"/>
		<path class="st2" d="M716.1,392.8L716.1,392.8c-1.2,0-2.4-0.3-3.4-0.9c-1-0.6-2-1.3-2.7-2.2c-0.7-1-1.2-2.1-1.4-3.2
			c-0.2-1.8-0.4-3.6-0.6-5.2c-0.2-1.6-0.2-3.1-0.3-4.6c-0.1-1.5-0.1-2.8-0.1-4.2s0-2.8,0.1-4.2s0.2-2.9,0.3-4.6
			c0.1-1.7,0.3-3.3,0.6-5.2c0.2-1.2,0.7-2.3,1.4-3.2c0.7-1,1.6-1.7,2.7-2.2c1-0.6,2.2-0.9,3.4-0.9l0,0c4.5,0,7.2,1.1,8.2,2.2
			c0,0-2.6,2.4-2.8,4.2c-0.2,1.8-0.4,3.5-0.6,5.2c-0.2,1.7-0.2,3.1-0.3,4.6c-0.1,1.5-0.1,2.8-0.1,4.2c0,1.4,0,2.8,0.1,4.2
			c0.1,1.4,0.2,2.9,0.3,4.6c0.1,1.7,0.3,3.3,0.6,5.2c0.3,1.6-0.2,3.2-1.2,4.5C719.2,392.2,717.7,392.9,716.1,392.8z"/>
		<path class="st2" d="M728.8,392.8L728.8,392.8c-1.2,0-2.3-0.3-3.3-0.9c-1-0.6-1.9-1.3-2.6-2.2c-0.7-1-1.2-2.1-1.4-3.2
			c-0.2-1.8-0.4-3.5-0.6-5.1c-0.2-1.6-0.2-3-0.3-4.5c-0.1-1.5-0.1-2.8-0.1-4.2s0-2.7,0.1-4.2c0.1-1.5,0.1-2.9,0.3-4.5
			c0.2-1.6,0.3-3.2,0.5-5.1c0.2-1.2,0.6-2.2,1.3-3.2c0.7-0.9,1.6-1.7,2.6-2.2c1-0.6,2.1-0.9,3.3-0.9l0,0c6.5,0,8,2.6,8.9,3.8
			c-2.5,1.7-4,4.5-4.1,7.5c0,1.6-0.2,3-0.3,4.5c-0.1,1.5-0.1,2.8-0.1,4.2c0,1.4,0,2.7,0.1,4.2c0.1,1.5,0.2,2.9,0.3,4.5
			c0.1,1.6,0.3,3.2,0.6,5.1c0.3,1.6-0.2,3.2-1.2,4.5C731.9,392.2,730.4,392.9,728.8,392.8z"/>
		<path class="st2" d="M740.1,391L740.1,391c-1.5,0-2.9-0.6-4.1-1.6c-1.2-1-1.9-2.3-2.1-3.8c-0.2-1.8-0.4-3.6-0.5-5.2
			c-0.1-1.6-0.2-3-0.2-4.5s-0.1-2.8,0-4.3c0.1-1.5,0-2.9,0.1-4.5s0.2-3.3,0.4-5.2c0.2-1.5,0.9-2.8,2-3.8c1.1-1,2.6-1.6,4.1-1.6l0,0
			c6,0,11.4,5.1,12.3,11.6h-8.2c-0.1,1.6,0.4,10.7,0.5,12.3s0.3,3.3,0.5,5.2c0.2,1.4-0.2,2.7-1.1,3.8
			C742.9,390.6,741.5,391.1,740.1,391z"/>
		<path class="st2" d="M695.4,365.3c0,0-9.6-14.1-15.7-8.8c-4.8,4.3,2.4,11.8,2.4,11.8h13.1L695.4,365.3z"/>
		<ellipse class="st2" cx="1008.3" cy="484.3" rx="6" ry="7.7"/>
		<ellipse class="st2" cx="1008.3" cy="484.3" rx="1.8" ry="2.3"/>
		<path class="st2" d="M1087.6,664c0,0,9.6-2,18.3,3.3"/>
		<path class="st2" d="M1095.8,653.4c0,0,10.4-3.2,17.9,2.3"/>
		<path class="st2" d="M1098.7,643.5c6.5-2.4,13.7-2.4,20.2,0"/>
		<path d="M565.4,492.2c3.3,0.1,6.5,0.5,9.7,1.2c1.6,0.3,3.2,0.6,4.8,1c1.6,0.4,3.2,0.7,4.8,1.1c6.3,1.6,12.5,3.4,18.8,5.3
			c3.1,1,6.2,2,9.2,3.1c3,1.1,6.1,2.1,9.2,3.3s6.1,2.2,9.1,3.5l9,3.6l-1.6,3.6l-8.9-4.1c-2.9-1.4-5.9-2.6-8.9-3.9
			c-3-1.3-6-2.5-8.9-3.8s-6-2.4-9-3.6c-6-2.3-12.2-4.4-18.4-6.3c-1.6-0.5-3.1-1-4.7-1.4c-1.6-0.4-3.1-0.8-4.8-1.2
			C571.8,493,568.6,492.5,565.4,492.2z"/>
		<line class="st3" x1="122.2" y1="877" x2="1569.1" y2="877"/>
		<rect x="352.9" y="710.7" class="st2" width="1069.2" height="166.3"/>
		<rect x="1211.3" y="738.4" class="st2" width="169.3" height="14.9"/>
		<rect x="1237.9" y="782.3" class="st2" width="169.3" height="14.9"/>
		<rect x="1264.5" y="826.4" class="st2" width="169.3" height="14.9"/>
		<rect x="1270.3" y="738.4" class="st1" width="169.3" height="14.9"/>
		<rect x="1296.9" y="782.3" class="st1" width="169.3" height="14.9"/>
		<rect x="1323.5" y="826.4" class="st1" width="169.3" height="14.9"/>
		<rect x="294.2" y="695.9" class="st2" width="1216.6" height="14.8"/>
		<rect x="1207.9" y="695.8" class="st1" width="302.7" height="14.9"/>
		<polygon class="st9" points="1175.4,601.5 1147.7,574.2 1161.6,532.7 1213.2,490.9 1360.3,524.6 1354.9,586.5 		"/>
		<path class="st6" d="M1362.5,564.1c5.2,54.1,8.4,119.9,11.7,174.1l-78.1,0.1c-23-0.3,11.1-27.6,24.6-20.7
			c-3.2-30.7-17.8-69.6-20.7-100.5c-14.1,0-62.6-4.9-61.6,9.2c1.9,26.2,6.1,41.6,5.9,69.1l-68.2,0.1c-30.7,0,5.9-27.2,19.7-20.4
			c-10.6-27-9.2-35.1-9.2-35.1"/>
		<path class="st2" d="M1332.6,571.2c3.9,11.6,3.9,34.1,3.9,34.1l31.6-0.6l1,11.9l-31.8,1.2c0,0,0.4,45.3,9.4,70.6
			c-102.5-1.2-102.9-57.6-159.8-40.5c-14.9-29.9-20.4-72.3,16-75.6"/>
		<path class="st0" d="M1251.5,568.1c1.8,2.7,3.5,4.8,5.4,7.9c15.5,9.7,45.2,25.6,51.6,39.9c6.3,14.3,26.7,5.6,27.9-5
			c-31.7-22.8-54.5-38-76.1-54.2C1264.1,559.6,1254.4,564.3,1251.5,568.1z"/>
		<path class="st2" d="M1182.2,504.5c-26.6,16.2-49.9,71.6-30.7,98.6c15.2,21.4,34.5,22.2,50.6,18.3c10.7-2.6,5.7-7.8,10.3-11.5
			c3.4-2.2,5.8-5.7,6.4-9.7c0.3-2.8-0.7-7.9-3.4-9.6c1.7-4.6,4-3.8,0.9-10.7c-1.6-3.5-14.5-9.4-20.5-7.1c-1-3.9,1.8-3.9,0.1-8.3
			c-1.8-4.4-18.4-0.9-19.8,3"/>
		<path class="st2" d="M1331,529.6l15.9,13.8c-22,0.7-42.9,17.3-53.7,18.1c-8.8-6.9-15.9-6.7-27.7-2c0,0,5.1,4,8.8,7
			c-6.2,4.9-9.4,19-19.1,9.8c-1.4,3.7-1.8,7.6-1.4,11.5c0.2,2.4,2.3,3.1,3,5.2s0,5.6,1,7.1c2,3.1,4.3,5.8,7,8.3
			c1.9,1.8,5.3,2.2,8.2,3.7c2,1.1,3.3,3.1,6,4c9.9,3.1,19.6-4.8,32-6.5c35.7-5,93-9.2,99.9-62.7c7.8-59.9-91.8-84.4-113.8-81.8
			c-55,6.6-82.4,10.9-114.6,39.7"/>
		
			<ellipse transform="matrix(0.9892 -0.1468 0.1468 0.9892 -70.8345 181.8518)" class="st2" cx="1196.9" cy="570.9" rx="14.5" ry="7.5"/>
		<path class="st2" d="M1227.1,583.5c14.3-12.2,37.9-23.2,37.9-23.2l-163.2-120.2c11.5,32.3,29.6,63.2,54.9,85.3
			C1180.3,546,1201.4,562.9,1227.1,583.5z"/>
		<path class="st2" d="M1201.5,568.8l-29.4-162.3l-4.4,0.9l23.2,164.2C1195.3,571.9,1199.4,571,1201.5,568.8z"/>
		<path class="st1" d="M1304.9,467.2c-7.3-27-22.5-80-22.5-80c15.4-5.1,26.1-14.3,20.1-31.8c-4.2-12.5-18.4-15.9-30.1-10.5
			c-2-10-9.3-17-20-17c-21.2,0-29.8,19.8-29.8,19.8c-17.3-8.3-31.9-5.7-39.5,4.7c-6,8.2-0.3,21.5,7.1,27.4
			c-12.5,8.6-18.8,19.4-11,29.3c9.1,11.6,25.9,4.7,25.9,4.7c5.1,23.1,18.2,71.7,18.2,71.7C1241.8,506,1282,483.5,1304.9,467.2z"/>
		<path class="st3" d="M1332.9,470.1c-26.6,8.9-30.5,46-11.1,71.9"/>
		<path class="st2" d="M1323.6,467.6c-19.6,5.5-29.9,24.3-30.2,46c-21.7,7.6-66.1,8.9-85.4,4.7"/>
		<path class="st2" d="M1221.8,482.6c-5.5,6.3-11.7,17.9-13.8,35.7"/>
		<path class="st6" d="M1229.3,434.2c1.2,4.6,3.1,13.1-3.1,14.3c-6.2,1.2-8.4-7.5-9.4-12.1s-3.1-13.1,3.1-14.2
			S1228.1,429.6,1229.3,434.2z"/>
		<path class="st6" d="M1247.6,430c1.2,4.6,3.1,13.4-3.1,14.4c-6.2,1-8.3-7.6-9.4-12.2c-1.2-4.6-3.2-13.2,3.1-14.4
			C1244.5,416.7,1246.4,425.5,1247.6,430z"/>
		<path class="st1" d="M1264.8,460.6c1.1-1.2,1.9-2.6,2.5-4.1c1.7-4.2,1.4-8-2.5-10.7c-4.3-3-8.1-1.3-11.5,2.3
			c-2.4,2.6-5,4.9-9.1,5.9c-3.4,0.9-7.6,2.5-8,6.9c-0.4,4.4,3,8.6,7,9C1252.7,471.1,1259.3,466.9,1264.8,460.6z"/>
		<path class="st1" d="M1236.5,463.3c13.1,0,24-3.8,29.1-16.5c-1.6-0.8-3.1-1.7-4.7-2.4c1.1,1.8,2.1,3.5,3.1,5.3l4.1,3.7
			c-0.5-1.8-1-3.6-1.5-5.3"/>
		<path class="st2" d="M1379.9,491.7c0,0-26.5,0.5-41.4,44.5"/>
		<path class="st3" d="M1213.2,483.3c0,0-13.9,14-13.9,28.5"/>
		<path class="st1" d="M1336.2,576.2c0,0,10.1-8.7,4.1-15.3c-6-6.6-19.6,12.7-23.2,24.8C1342.9,597,1367.8,572.7,1336.2,576.2z"/>
		<line class="st8" x1="1327.5" y1="578.9" x2="1313.5" y2="573.2"/>
		<line class="st8" x1="1343.9" y1="586.7" x2="1353.5" y2="590.6"/>
		<path class="st9" d="M1195.9,679.1c-3.1,0.8-5.6,1.4-8,2c-2.2,0.7-4.4,1.5-6.5,2.4c-2.1,0.9-4.3,1.9-6.6,3
			c-2.3,1.1-4.8,2.2-7.8,3.4h-0.1c-0.1,0-0.3,0-0.3-0.1l0,0v-0.2c1.6-2.3,3.6-4.4,5.7-6.1c2.2-1.8,4.6-3.3,7.2-4.5
			c2.6-1.1,5.4-1.7,8.3-1.8c2.8-0.1,5.6,0.4,8.3,1.4c0.1,0,0.2,0.1,0.1,0.2c0,0,0,0,0,0.1l0,0C1196.1,679,1196,679,1195.9,679.1
			L1195.9,679.1z"/>
		<path class="st9" d="M1322,722c-3.1,0.8-5.6,1.4-8,2c-2.2,0.6-4.4,1.5-6.5,2.4l-6.6,3c-2.3,1.1-4.8,2.2-7.8,3.4l-0.1,0.1
			c-0.1,0-0.3,0-0.3-0.1v-0.2c1.6-2.3,3.6-4.4,5.7-6.1c2.2-1.8,4.6-3.3,7.2-4.5c2.6-1.1,5.4-1.7,8.3-1.8c2.8-0.1,5.6,0.4,8.3,1.4
			c0.1,0,0.2,0.1,0.1,0.2c0,0,0,0,0,0.1l0,0C1322.3,722,1322.2,722,1322,722L1322,722z"/>
		<path class="st9" d="M1369.9,732.8c-2.2-9.1-3.9-18.4-5-27.7c-1.2-9.2-2.1-18.6-2.7-27.9c-0.6-9.3-0.9-18.7-0.9-28
			c-0.1-9.4,0.4-18.8,1.5-28.2l0,0c0-0.1,0.1-0.2,0.3-0.2l0,0c0.1,0,0.2,0.1,0.2,0.2l1,14l1,14l1.8,28l1.8,28l0.9,14l0.8,14
			c0,0.1-0.1,0.3-0.2,0.3l0,0C1370.1,733.1,1370,733,1369.9,732.8L1369.9,732.8z"/>
		
			<ellipse transform="matrix(0.9297 -0.3683 0.3683 0.9297 -133.375 530.1065)" class="st2" cx="1322.1" cy="614.5" rx="4.8" ry="4.2"/>
		<path d="M1278.8,391.1l10.5,37.4l10.1,37.4l-0.4,0.1c-2.9-5.9-5.5-11.9-7.7-18.1c-1.2-3-2-6.1-3.1-9.2c-1.1-3.1-1.8-6.2-2.7-9.3
			s-1.7-6.2-2.4-9.4s-1.5-6.3-2-9.5c-1.3-6.4-2.3-12.9-2.7-19.4H1278.8z"/>
		<path class="st1" d="M1575.4,523.9c0,0,8.9-6.2,13.1,1.6c4.2,7.8-7.4,15.9-12.5,16.4"/>
		<ellipse cx="1422.2" cy="947.6" rx="99.2" ry="6.6"/>
		<path class="st1" d="M1402.1,908.9c2.5,10.1,5.2,38.9,5.2,38.9h5.9v-8.9"/>
		<path class="st6" d="M1462.7,667.3c-0.9,0-1.8-0.1-2.7-0.2c-13.6-1.5-25.5-11.2-21.4-24.3c12.9-41.7,7.7-61.2-0.5-65.9l62.3,22.4
			l0.1-0.1c-7.7,14.6-12.6,30.5-14.5,46.9C1484.6,658.6,1475.1,667.3,1462.7,667.3z"/>
		<path d="M1448.2,519.6c-0.7,0.8-1.4,1.5-2.1,2.2c-0.7,0.7-1.5,1.3-2.3,1.8c-1.5,1.1-3.1,2-4.8,2.8c-1.6,0.8-3.3,1.5-5,2l-5,1.8
			c-3.3,1.2-6.6,2.3-9.9,3.6c-3.3,1.3-6.5,2.4-9.6,3.7c-3.1,1.2-6.1,2.6-9,4.2c-2.7,1.4-5.3,3.2-7.6,5.2c-1.9,1.5-3.5,3.5-4.6,5.6
			l-0.3,0.7l-0.2,0.6c-0.1,0.3-0.1,0.6-0.2,0.9c0,0.1,0.1,0,0-0.4c-0.1-0.6-0.3-1.1-0.6-1.6c-0.2-0.4-0.5-0.7-0.8-1
			c-0.1-0.1,0,0,0.3,0c1,0.3,2,0.5,3,0.6c3.1,0.3,6.3,0.4,9.4,0.3c3.4-0.1,7-0.3,10.7-0.5l11.3-0.8c7.7-0.4,15.7-1,24.7-0.2
			c5.1,0.4,10.2,1.6,15,3.5c3.2,1.3,6.1,3.1,8.7,5.3c3,2.6,5.5,5.8,7.3,9.4c3.2,8.1-0.9,17.3-9,20.5c-7.8,3-16.6-0.5-20.1-8.1
			c0.3,0.2,0.7,0.5,0.9,0.4c0.2-0.1,0-0.5-0.6-0.9c-2-1.3-4.1-2.1-6.4-2.6c-3.1-0.7-6.3-1.2-9.4-1.6c-3.4-0.4-6.9-0.6-10.5-0.7
			l-11.1-0.3c-3.8-0.1-7.7-0.1-11.7-0.4c-4.3-0.2-8.6-0.7-12.8-1.5c-2.7-0.5-5.3-1.3-7.8-2.3c-1.6-0.7-3.2-1.6-4.6-2.7
			c-1.8-1.3-3.4-3-4.6-5c-1.3-2.1-2.1-4.4-2.5-6.8c-0.3-2-0.3-4,0-6c0.3-1.5,0.7-3.1,1.2-4.6c0.2-0.7,0.5-1.4,0.8-2
			c0.3-0.7,0.6-1.3,0.9-1.9c2.3-4.5,5.4-8.5,9.1-11.9c3.2-3,6.6-5.8,10.2-8.4c3.4-2.4,6.9-4.6,10.6-6.6c7-3.9,14.4-7,22-9.4
			c1.8-0.6,3.8-1.2,5.6-1.7c1.9-0.6,3.8-1,5.7-1.2c2-0.2,4-0.3,6-0.1c1.1,0.1,2.1,0.2,3.1,0.5c1.1,0.2,2.3,0.5,3.3,1
			c4.4,1.6,6.7,6.4,5.3,10.8c-0.3,0.8-0.7,1.6-1.2,2.3L1448.2,519.6z"/>
		<path d="M1568.4,561.9c1,1.6,1.9,3.3,2.4,5.1c0.5,1.6,0.8,3.3,1,5c0.2,1.6,0.2,3.2,0,4.9c-0.1,1.7-0.3,3.2-0.5,4.9
			c-0.8,6.5-2,12.9-3.5,19.2c-1.6,6.4-3.4,12.7-5.6,19.5c-0.6,1.8-1.2,3.4-1.9,5.3c-0.8,2.1-1.9,4.2-3.1,6.1l-0.6,0.9l-0.6,0.8
			c-0.4,0.5-0.9,1.1-1.4,1.7s-1.2,1.2-1.8,1.8c-0.8,0.7-1.7,1.3-2.6,1.8c-1.2,0.7-2.5,1.2-3.8,1.5c-1.5,0.4-3.1,0.5-4.7,0.4
			c-1.4-0.1-2.8-0.4-4.2-1c-1.1-0.4-2.1-0.9-3.1-1.6c-1.4-0.9-2.6-1.9-3.7-3.1c-0.9-0.8-1.6-1.7-2.3-2.7c-1.4-1.8-2.3-3.3-3.3-4.8
			c-1.9-3-3.6-5.7-5.2-8.5s-3.1-5.2-4.8-7.6c-1.6-2.2-3.2-4.5-5-6.6c-3.4-4-7.1-6.8-10.2-8c-1.4-0.5-2.9-0.7-4.4-0.6
			c-1.6,0.1-3.1,0.5-4.5,1.2c-8.2,3.5-17.6-0.3-21.1-8.5c-3.5-8.2,0.3-17.6,8.5-21.1c0.1,0,0.2-0.1,0.3-0.1l0,0
			c1.4-0.6,2.9-1,4.5-1.2l2.1-0.2c4.8-0.5,9.6-0.3,14.3,0.6c4.7,0.9,9.3,2.7,13.4,5.3c3.7,2.3,7.1,5.1,10.1,8.3
			c2.6,2.9,5,5.9,7.2,9.1c1.9,3,3.8,6,5.4,9.2c1.7,3,3.1,6,4.5,8.9s2.7,5.6,4,8.1c0.7,1.2,1.3,2.3,1.8,3.1c0.3,0.4,0.5,0.8,0.7,1
			c0.2,0.2,0.2,0.2-0.2,0c-0.9-0.5-1.9-0.8-2.9-0.9c-0.8-0.1-1.6,0-2.3,0.2c-0.6,0.1-1.1,0.4-1.6,0.7c-0.2,0.1-0.5,0.3-0.7,0.5
			c-0.1,0.1-0.1,0.2-0.1,0.1l0.2-0.2l0.2-0.2v-0.1c0.5-0.7,0.9-1.5,1.2-2.3c0.5-1.2,0.9-2.4,1.2-3.6c0.8-2.7,1.4-5.5,1.8-8.4
			c0.5-2.9,0.8-5.9,1.2-8.9c0.6-6,1.3-12.2,2.1-18.2c0.2-1.6,0.5-3,0.8-4.6c0.5-3.2,1.5-6.2,3-9c0.9-1.6,2-3,3.3-4.3l0.4-0.4
			c3.8-3.5,9.6-3.3,13.1,0.5c0,0,0.1,0.1,0.1,0.1l0,0C1567.8,561.1,1568.1,561.5,1568.4,561.9z"/>
		<path class="st2" d="M1553.3,564.6c-3.6-5.6-6.1-11.9-7.4-18.4c-2.1-10.9,8.8-18.5,9.7-13.6c1,4.9,9.8,27.4,9.8,27.4L1553.3,564.6
			z"/>
		<path class="st1" d="M1454.5,908.9c2.5,10.1,5.2,38.9,5.2,38.9h5.9v-18.3"/>
		<path class="st1" d="M1458.3,889.8c-3.5,5.7-4.9,12.5-3.9,19.2c1.8,11,23.5,40.9,37.6,40.9h10.2c2,0,3.7-1.2,4.5-3
			c2.2-5.3-1.7-15.5-10.4-16c-5.2-14.1-12.8-21.9-17.4-31.7"/>
		<path class="st1" d="M1437,693.7l20.7,93.7c0,0-20.7,38.5,4.8,96.9c-12.1,12.3,0.2,23.2,0.2,23.2s32.9,33.5,28,11.8
			c-5.6-9.4-8.8-19.9-9.5-30.8c-4.4-57.1,11.3-150.5,11.3-150.5L1437,693.7z"/>
		<path class="st1" d="M1406.7,889.8c-3.9,5.6-5.4,12.5-4.3,19.2c1.9,11,12.2,40.9,27.7,40.9h11.3c2.1,0,4-1.2,5-3
			c2.5-5.3,0.4-12-5.3-16c-2.7-11-10.5-22.7-11.7-31.7"/>
		<path class="st1" d="M1409,738l4.4,49.5c0,0-21.4,31.9-2.9,94.2c-8,13.4-1.5,19.9,0.2,23.6c4.9,10.6,24.1,30.4,21.7,13.4
			c-8.9-61.4,30.6-225,30.6-225L1409,738z"/>
		<path class="st2" d="M1438.9,642.5c0,0-46.5,29.4-30,95.5h83.6c0,0,10.1-47-6.4-90C1457.8,654.4,1438.9,642.5,1438.9,642.5z"/>
		<path class="st1" d="M1441.1,930.8c0,0-10.9-3-18.7,1.8"/>
		<ellipse transform="matrix(0.2 -0.9798 0.9798 0.2 609.0245 1919.953)" class="st6" cx="1480.2" cy="587" rx="24.2" ry="36.1"/>
		<path class="st2" d="M1470.5,562.8l22-30.2l14.9,4.2l-11.8,34.2c0,0,36.8,28-7.7,21.7C1441.1,586.2,1470.5,562.8,1470.5,562.8z"/>
		
			<ellipse transform="matrix(0.1331 -0.9911 0.9911 0.1331 782.7674 1943.9012)" class="st2" cx="1502.6" cy="524.5" rx="26.7" ry="39.3"/>
		<path class="st2" d="M1534.8,530.2c-2.8,7.7-11.5,11.7-18.2,9.2s-9-10.4-6.2-18.1c2.8-7.7,9.7-12.4,16.4-9.8
			S1537.7,522.5,1534.8,530.2z"/>
		<path class="st2" d="M1513.7,522.5c-2.8,7.8-11.5,11.7-18.2,9.2c-6.7-2.4-9-10.4-6.2-18.1c2.8-7.7,9.7-12.4,16.4-9.8
			S1516.6,514.8,1513.7,522.5z"/>
		<path class="st10" d="M1495.6,592.5c0,0-1.5-7-5.5-11.9"/>
		<path class="st10" d="M1514.7,499.9c0,0,18.8-32.3,35.2-46.1c1.1-0.9,2.6-0.3,2.2,1.1l-16.3,59.3"/>
		<path class="st10" d="M1474.8,504.4c3.7-4.9,11.4-29.8,43.2-59c1.1-1,2.6-0.3,2.2,1.1l-14.9,53.4"/>
		<path class="st1" d="M1466,520.2c-2.8,2.3-6,4.2-9.4,5.4c-9.7,3.8-24.7-1-25.3-9.5c-0.5-7.3,6.5-27.4,54.2-25.5
			c6.9,0.3,5.7,7.5,0.7,7c-6.6-0.6-14.7,2.7-14.7,2.7"/>
		<path class="st1" d="M1466.1,497.3c0,0,10.4,0.8,12,9.2c1.6,8.5-5.7,10.6-5.7,10.6"/>
		<path class="st1" d="M1462.2,518.6c0,0,5.9,8.3,9.9,1.5c4-6.8,0.7-17.2-8-15.8"/>
		<path class="st1" d="M1463,513.4c0,0,7.1,0.3,5.6,8.4c-1.6,8.4-9,6.6-7.8,3.1c1.7-4.8-2.1-3.5-2.1-3.5"/>
		<path class="st6" d="M1510.6,535.1c-0.5,1.5-4.4,3.2-5.2,3c-0.8-0.2-3-4-2.5-5.4s2.3-1.4,4.5-0.7
			C1509.5,532.7,1511,533.6,1510.6,535.1z"/>
		<path class="st8" d="M1492.8,536.8c3.7,1.1,6.1,3.5,5.6,5.3"/>
		<path class="st1" d="M1560.4,553.7c6.9-5.3,13-6.5,20-18.8c3.4-5.9,8-3.5,8,3.8c0,13.9-14.2,26.8-24.6,28.4
			c-4.3,0.6-9.5-1.6-9.1-5.8"/>
		<path class="st4" d="M1508.5,519.5c-0.6,2.7-1.8,5.2-3.6,7.3c-1.5-5.4-0.3-11.2,3.3-15.5C1509,514,1509.1,516.8,1508.5,519.5z"/>
		<path class="st4" d="M1530.2,527.2c-0.6,2.7-1.8,5.2-3.6,7.3c-1.5-5.4-0.3-11.2,3.3-15.5C1530.7,521.7,1530.8,524.5,1530.2,527.2z
			"/>
		<path class="st11" d="M1506.1,498.1c7.2,1,13.8,3.2,22.4,8.8"/>
		<path class="st2" d="M1545.7,538c8.7-11.9,14.2-25.4,17.9-38.3c3.8-13.1,17.9-6,15.3,5.5c-3.2,14.1-13,35.2-23.1,45.1
			C1547.6,558.4,1538.9,547.3,1545.7,538z"/>
		<path class="st1" d="M1543.3,549.7c12.6-15.7,23.9-39.9,28.1-59.2c1.7-7.6,13.1-5.2,11.5,2.3c-4.5,20.4-17.8,48.2-31,64.8
			C1546.9,563.6,1538.4,555.7,1543.3,549.7z"/>
		<path class="st2" d="M1554,544.5c7.3-8.6,16.2-28.7,19.5-39.8c4.5-15.7,17.8-9.6,16.1,2.1c-1.9,14.4-13.7,38-22.9,48.8
			C1559.2,564.5,1546.5,553.3,1554,544.5z"/>
		<path class="st1" d="M1496.3,930.8c-6.2,0.5-8.2,1.8-8.2,1.8"/>
		<path d="M1482.7,654.7c2.2,6.2,3.8,12.5,4.9,19c1.2,6.4,2,12.9,2.4,19.5c0.1,1.7,0.1,3.2,0.2,4.9l0.1,2.4v7.3l-0.2,4.9l-0.1,2.4
			c-0.1,0.8-0.1,1.7-0.2,2.4l-0.4,4.9c-0.3,3.2-0.8,6.5-1.2,9.7h-0.4c-0.4-3.3-0.4-6.6-0.6-9.8l-0.2-4.9v-2.4l-0.1-2.4
			c-0.1-1.7-0.2-3.2-0.2-4.9l-0.3-4.8c-0.1-0.8,0-1.6-0.1-2.4l-0.1-2.4l-0.3-4.8l-0.3-4.8c-0.1-1.6-0.3-3.2-0.4-4.8
			c-0.1-1.6-0.2-3.2-0.4-4.8l-0.4-4.8c-0.7-6.4-1.4-12.7-2.2-19.4L1482.7,654.7z"/>
		<ellipse class="st12" cx="178.8" cy="473.9" rx="29.9" ry="37.7"/>
		<ellipse class="st12" cx="250.2" cy="457.8" rx="42.6" ry="53.9"/>
		<ellipse class="st12" cx="192.2" cy="473.9" rx="29.9" ry="37.7"/>
		<ellipse class="st12" cx="263.7" cy="457.8" rx="42.6" ry="53.9"/>
		<path class="st12" d="M211.6,465.2c3.6,14.3-2.1,29.7-12.8,34.5l-3.9-15.3c-1.5-5.8,0.9-12.2,5.3-14.1L211.6,465.2z"/>
		<path class="st12" d="M185.7,448.1c10.7-4.8,22.3,2.8,25.9,17.1l-11.5,5.2c-4.4,1.9-9-1.2-10.5-7L185.7,448.1z"/>
		<path class="st12" d="M185.7,448.1l3.9,15.3c1.5,5.8-0.9,12.2-5.3,14.1l-11.5,5.2C169.4,468.4,175.1,452.9,185.7,448.1z"/>
		<path class="st12" d="M198.7,499.8c-10.7,4.9-22.3-2.8-25.9-17.1l11.5-5.2c4.4-1.9,9,1.2,10.5,7L198.7,499.8z"/>
		<path class="st12" d="M232.6,473.4c6.6,22.4,25.9,33.6,43.1,25l-8.9-30.3c-1.7-5.6-6.5-8.5-10.8-6.3L232.6,473.4z"/>
		<path class="st12" d="M251.7,417.2c-17.2,8.7-25.8,33.9-19.2,56.2l23.2-11.7c4.3-2.1,6.5-8.6,4.9-14.1L251.7,417.2z"/>
		<path class="st12" d="M251.7,417.2l8.9,30.3c1.7,5.6,6.5,8.5,10.9,6.3l23.2-11.7C288.2,419.7,268.9,408.5,251.7,417.2z"/>
		<path class="st12" d="M275.7,498.3c17.2-8.7,25.8-33.8,19.2-56.2l-23.2,11.7c-4.3,2.1-6.5,8.6-4.9,14.1L275.7,498.3z"/>
		<polygon class="st6" points="269.2,527.8 296.6,504.6 333.7,504.6 		"/>
		<polygon class="st6" points="269.2,560.1 296.6,583 333.7,583 		"/>
		<rect x="240.1" y="704.4" class="st12" width="12.9" height="67.1"/>
		<path class="st12" d="M240.2,771.6H253l-44.2,190.1c-0.3,1.3-2.5,2.1-3.8,2.1l0,0c-1.8,0-3.9-1.1-3.5-2.8L240.2,771.6z"/>
		<path class="st12" d="M253.2,771.6h-13.1l105.3,194.6c1.2,1.3,2.7,2.2,4.5,2.6l0,0c1.6,0,2.9-1.2,3-2.8c0-0.5-0.1-1-0.4-1.5
			L253.2,771.6z"/>
		<path class="st12" d="M240.1,771.6h12.4L145.2,967.4c-0.5,1-1.5,1.6-2.6,1.6l0,0c-1.6,0-2.9-1.2-3-2.8c0-0.5,0.1-1,0.4-1.5"/>
		<ellipse cx="229.5" cy="968.7" rx="136.5" ry="7.8"/>
		<polygon class="st12" points="335.1,504.6 335.1,584.1 285.6,567.8 285.6,525.4 		"/>
		<rect x="168.6" y="508.1" class="st12" width="117.3" height="72.6"/>
		<rect x="235.6" y="580.7" class="st12" width="21.5" height="9.7"/>
		<rect x="158" y="508.1" class="st12" width="45.6" height="72.6"/>
		<line class="st13" x1="479.9" y1="847.1" x2="506.7" y2="968.2"/>
		<line class="st13" x1="423.7" y1="847.1" x2="388.2" y2="968.2"/>
		<path class="st6" d="M676.1,848.6c0,0,24.5-42.8,44.9-46.5c20.4-3.7,21.4,12.6,5.9,30.1c-10.6,12.1-20.4,24.9-29.6,38.1l-8.2,3.8
			l3.1,5.8c0,0-5.5,16.1-15.1,14.7c-9.5-1.5-14.1-19.2-14.1-19.2"/>
		<path class="st6" d="M712.9,737.6c6.6-21.2-3-49.9,4.1-61.3c9.5-15.3,24.3-4.9,26.7,12.7c2.4,17.6,1.2,34.9-2.7,52.5
			c-1.9,2.9-4.2,5.6-6.3,8.5c1.8,1.2,3.6,2,5.4,3.2c0.2,6.8,1.3,17.3-5.9,20.7c-7.2,3.4-16.4-2.6-21.5-7.6"/>
		<path class="st6" d="M479.5,847.2c0,0-174.3,18.8,63.9,17.2c55.5-0.4,65.9-17.2,65.9-17.2H479.5z"/>
		<path class="st1" d="M435.9,688.5c-42.1,1.3-51-101.4-32.6-160.4c-6.9-8.7-18-9.2-27.3-10.2C355,572.2,345.5,653,395.7,724.5
			c31.6,45.1,11.2-17.3,27.9-14.6"/>
		<circle class="st6" cx="484.5" cy="637.3" r="4.6"/>
		<polyline class="st13" points="382.1,732.2 396.1,847.1 501.1,847.1 		"/>
		<path class="st6" d="M396.1,847.2c0,0,8.4,16.5,63.9,16.5s65.9-16.5,65.9-16.5H396.1z"/>
		<path class="st1" d="M421.1,825.8l136.7-37.5c7.5-2.1,15.5-1.4,22.6,1.8l94.2,43.7c8.3,3.2,11.3,12.7,7,20.6l-7.1,13.2
			c-3.6,6.6-12.2,9.2-19.2,6.5l-98-39.1l-87.8,29.6"/>
		<path class="st1" d="M461.9,866.9c40.4,5.1,140.8-70.6,140.8-70.6l120.3-17.9c4.9-15.6,1.3-32.6-9.3-44.9l-114.6,14.1
			c-7.5,0.9-14.6,3.3-21.1,7.1l-83.8,48.8c0,0-1.9,15.9-7.9,23.5c-5.9,7.7-59.8,9.2-74,5.3c0,0,9.3,43.7,34.6,30.4
			C447.1,862.8,450.8,865.4,461.9,866.9z"/>
		<path class="st1" d="M423.7,689.3c5.1-1.6,10.3-2.7,15.6-3.3c6.2-0.7,12.4-1,18.6-1c33.4,0,39.2,33,43.3,64.8
			c7.3,56.8,7.3,75.3-8.7,86.2c-10.3,7.1-70.3,8.5-80.1-3.7c0,0-14.2-45.1-16.8-93c-0.5-7.1,0-14.2,1.6-21.2"/>
		<path class="st6" d="M519.6,798.3c0,0-32.5,3.4-73.8,3.4c-26.4,0-55.8-3.4-55.8-3.4l-7.9-66.1c18,2.1,36,3.2,54.1,3.3
			c39.6,0,75.6-3.3,75.6-3.3L519.6,798.3z"/>
		<polyline class="st13" points="511.7,732.2 525.8,847.1 630.8,847.1 		"/>
		<path class="st1" d="M396.3,474.3c0,0,3.6-7.5,6.5-13.4c6-12.2,13.3-2.3,9.4,5.4c-1.5,2.9-12,25.2-12,25.2"/>
		<path class="st1" d="M402.8,498.6c4.7,1.4,1.3-10.8,9.4-7.9c6.4,2.2,7,18.1-13.4,23c-5.2,1.2-1.3,8.9-1.3,8.9s-10.2,1.9-15.3-3.1
			l0.4-5.3c0,0-2.7-12.3-2.1-19.3c1.1-13.2,10.6-9.1,15.9-20.7"/>
		<polygon class="st1" points="412.1,490.3 371.7,467.4 379.5,457.3 414.5,486.5 		"/>
		<path class="st1" d="M398.8,487.4c0,0,11-22.4,14.8-27.8c3.8-5.4,9.9-0.2,8.2,5.3c-1,3-19,33.9-19,33.9"/>
		<path class="st1" d="M534.7,669.4c0,0-4.5-20.7,17.1-21.5c13.1-0.4,18.9,7.3,18.5,13.8c-0.5,9-5.3,34.1-5.3,34.1
			s-4.1,10.9-20.9,4.4c-2.8-1.1-4.8-3.6-5.3-6.5l0,0L534.7,669.4z"/>
		<path class="st1" d="M534.9,716.2c0,0,1.7-10-0.7-12.7c-2.3-2.7-4.3-16.1,2.6-16.8l3.6,11c0,0,1.7,0.6,4.1,1.2
			c8.7,2.2,17.6-2.6,20.5-11.1c0.5-1.7,1.3-3.4,2.3-4.9c2.5-2.6,9.3,6.4,6.9,19.1S553.2,722,553.2,722"/>
		<path class="st1" d="M466.2,685.8c66.9-4.2,69.5,73.4,70,94.2c0,0-0.1-5.7-1.6-21.3c-0.6-7.8-2.1-15.6-4.4-23.1l2.8-20.4
			c0,0,31-2.6,30,11.1c-1.3,15.5-1.9,74.9-18.3,86.7c-4.9,3.4-18.8,3.5-23.5-0.9c-24.7-22.6-35.5-94.5-35.5-94.5"/>
		<path class="st8" d="M546.7,653.9l-1.6-22.6c-0.4-5.6-3.5-10.6-8.4-13.4l-11.3-6.5"/>
		
			<ellipse transform="matrix(0.9968 -8.037290e-02 8.037290e-02 0.9968 -50.8177 46.4084)" class="st6" cx="551.1" cy="654.5" rx="7.8" ry="2.1"/>
		<line class="st13" x1="539.4" y1="847.1" x2="515.2" y2="968.2"/>
		<line class="st13" x1="609.1" y1="847.1" x2="636" y2="968.2"/>
		<path class="st1" d="M422.5,604.7c0,0-8.9-62.3-7.8-80.3c1.2-18.1,19.8-22.1,23-6.9c1.8,8.6,4.8,92.8,4.8,92.8"/>
		<path class="st1" d="M423.7,689.3l3.1-14.2c0,0-20.1-27.3-20-45.3c0-25.6,19.5-29.6,34.8-30.2s42.9,32.1,42.9,44.8
			s-8.2,17.5-18.3,26.4c-10.1,8.9,8.9,15.7,8.9,15.7S457.5,697.6,423.7,689.3z"/>
		<path class="st6" d="M403.9,616.1c-0.9-3.4,3.4-19.3,9.5-25.4c14.6-14.2,57.1-8.7,61.1-3.2c7.9,10.8-30.6,10.2-40.8,17.9
			C425.3,611.8,406.7,627.1,403.9,616.1z"/>
		<path class="st1" d="M437.5,609.2c0,0,2.4-62.9,12.1-87.4c8-20.4,32.9-17.2,27.1,0.7c-10.6,33-18.4,89.4-18.4,89.4"/>
		<path class="st8" d="M534.7,669.4c0,0,10,4.3,20.6,1.9"/>
		<path class="st14" d="M563.6,669.2c2.6-0.8,5-2.4,6.6-4.6"/>
		<polygon class="st1" points="425.6,773.4 418.3,778 419.1,768.1 412.4,761.2 420.8,759.8 424,750.8 428.4,759.8 436.9,761.2 
			431.3,768.1 433.4,778 		"/>
		<ellipse cx="502.3" cy="968.5" rx="170.7" ry="8"/>
		
			<ellipse transform="matrix(0.4699 -0.8827 0.8827 0.4699 -209.1088 576.2493)" class="st15" cx="375.3" cy="462.2" rx="6" ry="4.2"/>
		<path d="M605.1,790c9.1-2.5,18.4-4.5,27.6-6.2c4.7-1,9.2-1.7,13.9-2.4c4.7-0.8,9.3-1.5,13.9-2.1s9.3-1.3,14-1.8
			c4.7-0.5,9.3-1.1,14.1-1.5c9.3-0.9,18.8-1.6,28.3-1.7l0,0c0.1,0,0.2,0.1,0.2,0.2l0,0c0,0.1-0.1,0.2-0.2,0.2l-55.9,8l-55.9,7.7
			c-0.1,0-0.2-0.1-0.2-0.2C605,790.1,605,790,605.1,790z"/>
		<path d="M439.3,852.1c2.4,2.1,5.2,3.8,8.3,4.8c1.5,0.5,3,0.9,4.5,1.3c0.8,0.2,1.5,0.3,2.3,0.4l2.3,0.3l4.7,0.3h2.3l2.3-0.1
			c3.2-0.2,6.3-0.5,9.4-1.1c1.6-0.2,3.1-0.5,4.8-0.8c1.7-0.3,3.1-0.7,4.8-1.1c3.2-0.7,6.3-1.6,9.4-2.3c6.3-1.7,12.6-3.6,19.3-5.2
			v-0.2c0.1,0,0.2,0.3,0.2,0.4c0,0.1,0,0.2-0.1,0.2c-6,2.9-12.1,5.4-18.4,7.7c-6.3,2.3-12.7,4-19.3,5.2c-6.6,1.2-13.3,1.2-19.9,0.1
			c-3.3-0.6-6.5-1.7-9.5-3.2c-3-1.5-5.7-3.7-7.7-6.4c-0.1-0.1,0-0.2,0-0.3l0,0C439.1,852,439.2,852,439.3,852.1L439.3,852.1z"/>
		<path d="M444.1,859.6c-1.2,0.8-2.5,1.3-3.9,1.7c-1.3,0.3-2.8,0.3-4.1-0.1c-2.4-0.6-4.6-1.7-6.4-3.4c-1.8-1.5-3.3-3.1-4.7-5
			c-1.4-1.7-2.6-3.6-3.7-5.5c1.4,1.7,3,3.3,4.6,4.8c1.6,1.5,3.3,2.8,5.3,3.8c1.7,1,3.6,1.7,5.5,1.8c1.7,0.1,3.3-0.6,4.5-1.8
			c0.9-0.9,2.4-0.9,3.3,0c0,0,0.1,0.1,0.1,0.1c0.9,1,0.9,2.6-0.1,3.5c0,0,0,0,0,0C444.4,859.4,444.3,859.5,444.1,859.6L444.1,859.6z
			"/>
		<polyline points="554.4,828.7 656.4,869.8 559.1,826.2 		"/>
		<path class="st1" d="M558.6,653.5c-0.8,1.5-2.6,2-4.1,1.2c-0.8-0.4-1.3-1.2-1.5-2c-1.2-5.7-2.1-13.4-0.5-19.6c3.1-11.2,7-5,7-5
			s7.1-24.6,14.6-24.4c7.5,0.2-4.2,20.4-4.2,20.4s7.7-1.8,4.6,5.3C572,635.1,564.5,643,558.6,653.5z"/>
		<line class="st16" x1="246.6" y1="703.1" x2="246.6" y2="582.6"/>
		<ellipse cx="1046.5" cy="926.5" rx="278.5" ry="6.2"/>
		<path d="M780.2,811.7c0.5-1.4,0.8-2.5,1.3-3.7c0.5-1.1,1-2.2,1.6-3.3c1.1-2.1,2.3-4.1,3.7-5.9c2.7-3.6,5.9-6.9,9.4-9.7
			c1.7-1.5,3.6-2.7,5.6-3.5c1.1-0.4,2.3-0.6,3.5-0.6c1.3,0,2.4-0.1,3.7,0c2.3,0.1,4.7-0.2,6.9-0.9l6-2.6c8.3-3.7,16.8-6.7,25.6-9.1
			c4.6-1.3,9.3-2.1,14.1-2.6c4.9-0.5,9.9-0.5,14.9,0c10.1,1.1,19.9,4.5,28.5,10c8.6,5.4,16.1,12.3,22.3,20.3
			c5.7,7.5,10.4,15.7,14.2,24.3c3.7,8.2,6.6,16.3,9.2,24.1c2.6,7.8,5.2,15.4,7.8,22.4c1.4,3.5,2.7,6.8,4.3,9.9
			c1.4,2.9,3,5.7,4.9,8.3c1.5,2.2,3.3,4.2,5.3,5.9c1.8,1.5,3.9,2.7,6.1,3.6c2.5,1,5.1,1.6,7.8,1.8c0.7,0.1,1.5,0.1,2.2,0.2
			c0.7,0,1.4,0,2.1,0c1.3,0,2.6-0.1,3.9-0.4c2.4-0.4,4.7-1.1,6.9-2.2c2.4-1.3,4.5-2.9,6.4-4.8c4.2-4.1,8.1-9.9,11.9-16.4
			c3.8-6.5,7.4-13.8,11.7-21.4c2.1-3.8,4.5-7.6,7.1-11.5c2.8-4,6-7.8,9.4-11.3c3.9-3.8,8.2-7,13-9.5c4.9-2.6,10.3-4.3,15.8-5.1
			c2.6-0.4,5.3-0.6,8-0.5c1.3,0,2.6,0.1,3.9,0.1c1.3,0,2.7,0.2,4,0.5c5.5,0.8,10.9,2.5,15.8,5.3c4.7,2.6,9,6,12.6,10
			c3.3,3.6,6.3,7.6,8.8,11.9c4.3,7.6,8.1,15.6,11.2,23.7c3.1,7.7,5.9,15,9,21.6s6.9,12.1,11.1,15.1c2,1.4,4.4,2.4,6.8,2.9
			c0.3,0.1,0.7,0.1,1,0.2c0.3,0.1,0.7,0.1,1,0.1c0.7,0,1.4,0.1,2,0.1c3.7,0.1,7.4-1.3,10.1-3.9c2.4-2.2,4.6-4.6,6.3-7.4
			c4.1-5.9,7.8-13.1,12.4-20.4c2.3-3.8,4.9-7.5,7.7-11c3.1-3.8,6.7-7.1,10.7-9.9c6.4-4.3,14-6.7,21.7-6.7h1.8c0.7,0,1.5,0.1,2.1,0.1
			c4.4,0.4,8.5,1.9,12.2,4.4c2.2,1.5,4.2,3.2,5.9,5.2c3.1,3.5,5.8,7.4,8,11.5c4.2,7.8,7.2,15.5,10.3,22.9c1.6,3.7,3.1,7.3,4.9,10.6
			c1.5,3.1,3.4,6,5.6,8.7c0.9,1,1.9,1.8,3,2.4c0.9,0.5,2,0.8,3,0.8c2.2,0.1,5.3-1.1,8.2-3c3.1-2,6-4.4,8.6-7
			c2.8-2.7,5.4-5.6,7.9-8.6l0,0c1.8-2.1,5-2.4,7.2-0.6c2,1.7,2.4,4.8,0.8,6.9c-2.5,3.4-5.2,6.6-8.1,9.7c-3,3.3-6.3,6.3-9.8,8.9
			c-2,1.4-4.1,2.7-6.3,3.7c-2.5,1.1-5.2,1.8-8,1.9c-3,0.1-6-0.5-8.8-1.8c-2.5-1.2-4.7-2.8-6.7-4.7c-3.3-3.3-6.1-7.1-8.3-11.2
			c-2.1-3.8-4-7.6-5.8-11.3c-3.5-7.4-6.8-14.7-10.6-21.1c-1.7-3-3.8-5.8-6.2-8.3c-1.8-1.9-4.1-3.3-6.6-4c-0.5-0.1-1.1-0.2-1.7-0.2
			h-0.9l-1.2,0.1c-1.5,0.1-3.1,0.4-4.6,0.8c-2.9,0.7-5.6,2-8,3.8c-4.9,3.6-8.8,9.5-12.5,16.2c-3.7,6.7-7,14.2-11.9,21.9
			c-2.5,4.1-5.6,8-9,11.4c-2,1.9-4.2,3.6-6.5,5.1c-2.5,1.5-5.1,2.7-7.9,3.5c-2.7,0.8-5.5,1.3-8.4,1.5c-1.4,0.1-2.7,0.1-4.1,0
			c-0.7,0-1.4-0.1-2-0.1c-0.7,0-1.4-0.1-2-0.2c-5.6-0.8-10.9-2.8-15.7-5.8c-4.4-2.9-8.3-6.5-11.5-10.7c-2.9-3.7-5.5-7.6-7.7-11.8
			c-4.3-7.9-7.5-15.6-10.8-22.9c-3.3-7.3-6.5-14.2-10.2-19.9c-1.7-2.7-3.7-5.2-5.9-7.5c-1.9-2-4.1-3.6-6.5-4.8
			c-2.3-1.1-4.8-1.8-7.3-2c-2.8-0.3-5.6-0.2-8.4,0.3c-5.3,1-9.4,3.4-13.6,7.8c-4.2,4.4-7.8,10.3-11.4,16.9
			c-3.6,6.6-6.9,14.1-11,21.7c-2,3.8-4.3,7.8-6.8,11.7c-2.7,4.1-5.8,8-9.2,11.6c-3.8,4-8.1,7.3-12.8,10c-4.9,2.8-10.3,4.8-15.9,5.8
			c-2.7,0.5-5.4,0.8-8.2,1c-1.4,0.1-2.7,0.1-4,0.1c-1.3,0-2.5,0-3.9-0.1c-5.5-0.3-10.9-1.3-16-3.1c-2.7-1-5.3-2.1-7.9-3.5
			c-2.5-1.4-4.9-3-7.1-4.8c-4.3-3.4-8.1-7.3-11.3-11.7c-2.9-4-5.5-8.2-7.8-12.5c-2.1-4.2-4-8.3-5.6-12.4c-3.3-8.1-6-16-8.8-23.4
			c-2.7-7.5-5.4-14.6-8.6-21.1c-2.8-6.2-6.4-12-10.6-17.4c-3.8-4.8-8.5-8.9-13.7-12.1c-5.3-3-10.8-5.5-16.6-7.3
			c-3.1-1-6.2-1.8-9.3-2.3c-3.3-0.6-6.7-0.9-10.1-1c-7.2,0-14.3,1.3-21.1,3.7c-1.8,0.6-3.5,1.3-5.2,2c-1.7,1-3.1,2.5-4.1,4.3
			l-1.8,2.7c-0.5,0.8-1.1,1.6-1.8,2.2c-1.4,1.3-3.1,1.8-4.9,2.6c-3.5,1.4-7.2,2.6-10.9,3.5c-2,0.5-4,0.9-6,1.3
			c-1.1,0.2-2.1,0.3-3.2,0.5c-1.1,0.2-2.3,0.2-3.4,0.2l-1.8-0.1c-3.9-0.2-6.9-3.5-6.7-7.4c0,0,0,0,0,0l0,0
			C779.9,813.1,780,812.4,780.2,811.7z"/>
		<path d="M1325.8,901.5c-5.4,0.8-12.7-2.4-17.1-5.5c8.9,0.1,18.2-1.7,26.1-6.3c-2.4,8.8-1.1,18.1,1.1,26.8
			C1331.4,912.7,1326.8,907.3,1325.8,901.5z"/>
		<path class="st9" d="M905.4,786.9c5.4,3.7,10.3,8.1,14.5,13.1c4.2,5.1,7.8,10.7,10.8,16.5c3,5.8,5.7,11.8,8,18
			c2.3,6.1,4.4,12.4,6.4,18.5c2,6.1,4,12.4,6.3,18.3c2.1,6,4.9,11.7,8.2,17.1c3.2,5.4,7.8,9.8,13.1,13c2.8,1.5,5.8,2.7,8.9,3.3
			c0.8,0.2,1.6,0.3,2.3,0.5l2.4,0.3l2.4,0.2l2.4,0.1c-3.3,0.5-6.6,0.5-9.8,0.2c-6.7-0.7-13.1-3.5-18.2-8c-2.5-2.2-4.8-4.8-6.7-7.6
			c-3.8-5.5-6.9-11.4-9.3-17.6c-2.5-6.1-4.6-12.4-6.6-18.5c-2-6.1-4-12.4-6.1-18.4s-4.5-12.1-7.1-17.9c-2.6-5.8-5.7-11.4-9.3-16.7
			C914.4,796.1,910.1,791.2,905.4,786.9z"/>
		<path class="st9" d="M1103.9,826.5c4.6,2.1,8.7,4.9,12.3,8.5c3.6,3.5,6.7,7.5,9.2,11.8c5.3,8.6,8.9,17.8,12.5,26.9
			c1.8,4.6,3.5,9,5.3,13.5c1.8,4.4,4,8.6,6.6,12.6c2.6,4,5.9,7.3,9.8,9.9l0.8,0.5l0.8,0.4l1.6,0.8c1.1,0.5,2.2,0.9,3.3,1.4
			c1.1,0.4,2.3,0.8,3.5,1l3.6,0.7c-1.3,0-2.4,0.1-3.7,0.1c-1.2,0-2.5-0.2-3.7-0.4c-1.2-0.3-2.4-0.5-3.7-0.9l-1.8-0.7l-0.9-0.3
			l-0.9-0.4c-1.1-0.6-2.2-1.2-3.3-1.8c-0.5-0.4-1.1-0.7-1.6-1.1l-1.5-1.3c-1.9-1.7-3.7-3.5-5.3-5.5c-3.1-4-5.7-8.3-7.8-12.9
			c-2.1-4.5-4-9.1-5.7-13.6c-3.5-9.1-6.8-18.3-11.2-26.7c-2.2-4.3-4.8-8.3-7.8-12.1C1111.4,833,1107.9,829.5,1103.9,826.5z"/>
		<path class="st17" d="M1306.4,848.4c0,3.6-29.5,6.5-65.9,6.5c-36.5,0-65.9-2.9-65.9-6.5H1306.4z"/>
		<path class="st17" d="M1295.8,848.4c0-29.9-24.7-54.1-55.3-54.1c-30.6,0-55.2,24.2-55.2,54.1H1295.8z"/>
		<path class="st17" d="M1247.4,788.1c0,3.4-3.1,6.2-6.9,6.2s-6.9-2.8-6.9-6.2H1247.4z"/>
		<path class="st17" d="M1150.9,814.9c0,3.6-29.5,6.5-65.9,6.5c-36.5,0-65.9-2.9-65.9-6.5H1150.9z"/>
		<path class="st17" d="M936,764.4c0,3.6-29.5,6.5-65.9,6.5c-36.5,0-65.9-2.9-65.9-6.5H936z"/>
		<line class="st18" x1="883.1" y1="697.7" x2="890" y2="675.4"/>
		<polygon class="st18" points="856.8,665 924.6,686.6 893.3,665 		"/>
		<path class="st17" d="M896,698.2c-0.2-0.1-0.7-0.3-1.2-0.5c0-0.1,0.1-0.3,0.1-0.4c0.9-3.1-0.5-6.4-3.3-8c-2.6-1.4-5.8-1.8-8.7-1
			c-0.1-0.3-0.3-0.7-0.5-1c-0.9-1.5-2.1-2.7-3.6-3.5c-3.2-1.4-6.8-1.1-9.7,0.8c-0.6,0.4-3.1,2.4-2.8,2.4c0,0-3.1-1.7-4.2-2
			c-3.5-1.3-7.4-0.8-10.4,1.4c-1.2,0.9-2.2,1.9-3.1,3.1c-0.4,0.5-0.9,1.6-1.4,1.8c-1,0.6-0.4,0.1-1.5,0.3c-4.3,0.6-7.6-0.1-10.5,3.6
			c-1.5,1.9-1.3,5.9-2.8,7.3c-3.7,3.2-1.2,7.8,2.7,8.9c0.4,0.9,1,1.8,1.8,2.4c3.2,2.6,8.5,2.3,12.5,1.9c2.2-0.3,4.4-0.5,6.3-0.7
			c2.7,0.3,5.4,0.7,8.2,0.8c2.3,0.1,4.6,0.2,6.9,0.2c2.2,0.2,4.4,0.2,6.6,0c3.2-0.1,6.3-0.2,9.5-0.4c2,0,3.8-1.1,4.9-2.8
			c1.1-0.1,2.2-0.4,3.2-0.8C901.4,709.2,902.1,701.5,896,698.2z"/>
		<path class="st17" d="M857.7,764.4c-37.9,0-42.2-10.2-44.7-27.2c-2.4-16.8,15.4-33.9,15.4-33.9h75c0,0,9.4,15.2,10.1,38.1
			c14.1,12.7,7.6,21.5,0,17.3l1.9,5.6H857.7l-0.5-6.6c0,0-7.8,4.6-12,1.2c-6.4-5.3,6.2-16.3,6.2-16.3"/>
		
			<ellipse transform="matrix(0.9801 -0.1983 0.1983 0.9801 -127.8896 187.8356)" class="st19" cx="873.7" cy="732.3" rx="6.8" ry="11.7"/>
		
			<ellipse transform="matrix(0.9801 -0.1983 0.1983 0.9801 -127.3938 192.5775)" class="st19" cx="897.6" cy="732.2" rx="6.8" ry="11.7"/>
		<polygon class="st19" points="885.3,752.7 895.2,752.7 887.2,741.1 		"/>
		<line class="st18" x1="868.1" y1="764.4" x2="867.4" y2="757.7"/>
		<line class="st18" x1="875.5" y1="764.4" x2="874.9" y2="757.7"/>
		<line class="st18" x1="882.9" y1="764.4" x2="882.3" y2="757.7"/>
		<line class="st18" x1="890.4" y1="764.4" x2="889.6" y2="757.7"/>
		<line class="st18" x1="897.8" y1="764.4" x2="897.1" y2="757.7"/>
		<line class="st18" x1="905.2" y1="764.4" x2="904.5" y2="757.7"/>
		<path class="st18" d="M845.7,703.3l-7.2-45.7c-0.5-3.1-3.4-5.2-6.5-4.8c-0.2,0-0.4,0.1-0.7,0.1l-23,6.4"/>
		<path class="st9" d="M871.1,722c1.2-0.3,2.4,0,3.4,0.6c1,0.7,1.8,1.6,2.4,2.6c2.3,4.1,2.9,8.9,1.8,13.5c-0.3,1.2-0.9,2.3-1.8,3.1
			c-0.5,0.4-1.1,0.7-1.7,0.9c-0.6,0.1-1.2,0.1-1.8,0c0.5-0.1,1-0.3,1.5-0.6c0.4-0.3,0.7-0.7,1-1.1c0.5-0.8,0.8-1.8,0.9-2.7
			c0.2-2,0.1-4.1-0.3-6.1c-0.2-2.1-0.7-4.1-1.5-6C874.6,724.2,873.1,722.6,871.1,722z"/>
		<path class="st9" d="M895.3,722c1.2-0.3,2.4,0,3.4,0.6c1,0.7,1.9,1.6,2.5,2.6c2.3,4.1,2.9,8.9,1.8,13.5c-0.3,1.2-0.9,2.3-1.8,3.1
			c-0.5,0.4-1.1,0.7-1.7,0.9c-0.6,0.1-1.2,0.1-1.8,0c0.5-0.1,1-0.4,1.5-0.7c0.4-0.3,0.7-0.7,1-1.1c0.5-0.8,0.8-1.8,0.9-2.7
			c0.2-2,0.1-4.1-0.3-6.1c-0.2-2.1-0.7-4.1-1.5-6C898.8,724.2,897.3,722.6,895.3,722z"/>
		<path class="st17" d="M1100.6,746.8c-4.5,0-9,1.4-12.7,3.9c-3.8-2.5-8.2-3.9-12.7-3.9c-14.2,0-25.7,11.3-25.7,31.5
			c0,20.2,20.7,35,30.1,35c3.2-0.1,6.2-1.5,8.4-3.9c2.2,2.4,5.2,3.8,8.4,3.9c9.3,0,30.1-14.8,30.1-35
			C1126.3,758.1,1114.8,746.8,1100.6,746.8z"/>
		<path class="st17" d="M1092,726.7c-3.1,7.6-4.5,15.8-4.1,24c0,0-5.9-17.9-36.9-18.4c13.9,25.3,33.5,20.2,33.5,20.2"/>
		<path d="M1090,805.3c1.8,1.2,3.9,1.6,6,1.2c1.9-0.4,3.8-1.2,5.3-2.4c0.9-0.6,1.7-1.2,2.4-1.9c0.8-0.7,1.6-1.5,2.3-2.1
			s1.6-1.7,2.3-2.4s1.6-1.7,2.2-2.4c1.5-1.6,2.8-3.2,4.1-5c0.6-0.8,1.2-1.7,1.8-2.5c0.5-0.9,1-1.8,1.4-2.7c0.4-1,0.8-1.9,1.1-2.9
			s0.6-2,0.8-3.1c0.5-2.1,0.7-4.5,1.2-6.9l0.4-0.1c0.4,2.3,0.6,4.7,0.7,7c0,2.4-0.3,4.7-1,7c-1.5,4.5-4,8.5-7.4,11.9
			c-1.6,1.7-3.3,3.3-5.1,4.9c-1.7,1.6-3.7,3-5.7,4.1c-2.1,1.2-4.4,1.8-6.8,1.8c-2.4,0-4.8-1.1-6.3-3L1090,805.3z"/>
		<path class="st2" d="M1369.4,221.6c0,0,4.1-23.7,4.1-31.5s-12-4.4-12.9-14.3c-1-9.9,13.8-20.5,20.8-4c0,0,17-8.4,15.5,5.3
			c-1.6,13.6-12.1,3.9-12.3,20.4c-0.2,16.5,0.4,22.8,0.4,22.8"/>
		<path class="st20" d="M1377.2,84.9c4.1,0,7.4,3.3,7.4,7.4c0,4.1-3.3,7.4-7.4,7.4c-4.1,0-7.4-3.3-7.4-7.4c0,0,0,0,0,0l0,0"/>
		<path d="M1378.9,99.6c0,2.6,0.1,5.3,0.2,8c0,1.4,0.2,2.6,0.2,4l0.1,1.9l0.1,1v0.5c0,0.1,0,0.3,0.1,0.4c0.2,1.8,1.7,3.3,3.6,5.1
			c1.1,1,2,1.9,3,3c0.6,0.6,1.1,1.3,1.6,1.9c0.5,0.8,0.9,1.6,1.3,2.4c0.4,0.9,0.7,1.8,0.9,2.7c0.2,0.9,0.3,1.8,0.3,2.7
			c0,1.9-0.3,3.9-1.1,5.6c-0.8,2-2,3.7-3.7,5c-1.6,1.4-3.6,2.2-5.7,2.5c-2,0.3-4.1,0.1-6-0.7c-1.8-0.7-3.4-1.9-4.5-3.5
			c-1.1-1.4-1.7-3-1.8-4.8c-0.2-1.5,0-3.1,0.6-4.6c0.9,1.1,1.8,2,2.8,3c0.8,0.7,1.7,1.3,2.7,1.7c1.4,0.5,2.9,0.5,4.3-0.1
			c1-0.5,1.9-1.3,2.3-2.3c0.3-0.7,0.5-1.4,0.7-2.1c0.1-0.4,0.1-0.8,0.1-1.2v-1.2c-0.1-1.7-1.2-3.6-2.7-5.9c-0.8-1.3-1.6-2.5-2.2-3.9
			c-0.8-1.5-1.2-3.2-1.2-5v-1.1l0.1-1l0.1-1.9c0.1-1.4,0.2-2.6,0.2-4c0.1-2.6,0.2-5.3,0.2-8c0.1-0.9,0.8-1.6,1.8-1.6
			c0,0,0.1,0,0.1,0c0.8-0.2,1.5,0.3,1.7,1.1C1378.9,99.5,1378.9,99.5,1378.9,99.6L1378.9,99.6z"/>
		<path class="st1" d="M1354.7,306.9c22.2,6.3,23.6,46,43,55.7c9.5,4.9,16,0.2,20-5.7c2.2-4.7,3.5-9.7,3.9-14.9
			c3.8-38.5-21.4-71.5-28.7-96.4c-7.9-26.8-7.9-26.8-9.5-25.5c-4.9,0.6-11.1,2.8-12.5,0.4c-0.3-0.6-1-0.8-1.5-0.5c0,0,0,0,0,0
			c-0.3,0.2-0.5,0.4-0.6,0.8c-2.3,8.4-8.2,27.5-16.5,39.5c-7.4,10.5-18.7,32.7-20.3,53.5C1335,308.6,1341.6,303.2,1354.7,306.9z"/>
		<path class="st6" d="M1397.7,362.6c-19.4-9.7-20.8-49.5-43-55.7c-13.1-3.7-19.6,1.8-22.8,6.8c-0.8,10.1,0.7,19.9,6,28
			c16.4,24.4,44.1,28.7,44.1,28.7s25.3,7.2,35.6-13.4C1413.6,362.8,1407.2,367.4,1397.7,362.6z"/>
		
			<ellipse transform="matrix(0.5989 -0.8008 0.8008 0.5989 264.297 1230.2783)" class="st1" cx="1360.3" cy="351.3" rx="3.6" ry="12.1"/>
		<path d="M1406.7,357.4c1-0.6,2-1.3,2.7-2.2c0.8-0.9,1.5-1.8,2-2.8c1.1-2,1.8-4.1,2.1-6.3c0.3-2.3,0.4-4.5,0.3-6.8
			c0-1.2-0.2-2.3-0.2-3.5l-0.4-3.5c-1.3-9.5-3.5-18.8-6.5-27.8c-1.5-4.6-3.2-9.1-4.9-13.6l-5.2-13.7c-1.8-4.6-3.4-9.1-5-13.9
			c-1.6-4.7-2.8-9.6-3.5-14.5l0.4-0.1c1.3,4.7,2.9,9.3,4.9,13.8c1.8,4.5,3.9,8.9,5.8,13.5c4,8.9,7.8,18,11,27.3
			c3.2,9.3,5.3,18.9,6.2,28.7c0.3,4.9,0.6,9.9-0.8,14.7c-0.6,2.4-1.7,4.7-3.2,6.6c-1.5,2-3.5,3.6-5.8,4.5L1406.7,357.4z"/>
		<polyline class="st8" points="1372.9,196.9 1384.5,202.9 1378.6,138.1 1374.7,163.9 		"/>
		<path class="st8" d="M1377.2,90.3c-6.9-2.6-12.8-5.8-0.5-10.9V1.7"/>
		<path class="st1" d="M1445.1,119.6c5.4-6.1,16.2,2.6,10.8,10c-5.2,7-7.6,18.5-6.4,27.2c1.2,8.8-12.2,12.6-13.9,4.5
			C1432.4,146.6,1435.1,130.8,1445.1,119.6z"/>
		<path class="st1" d="M1437,169.8c3.8-7.9,17.1-2.9,13.6,6.2c-3.3,8.7-1.7,19.7,3.2,27.5s-6.2,17.4-11.5,10.4
			C1432.8,201.3,1430,184.2,1437,169.8z"/>
		<path class="st20" d="M1455.3,64.6c4.1,0,7.4,3.2,7.4,7.3c0,4.1-3.2,7.4-7.3,7.4c-4.1,0-7.4-3.2-7.4-7.3v-0.1"/>
		<path d="M1457,79.4c0,2.6,0.1,5.3,0.2,8c0,1.4,0.2,2.6,0.2,4l0.1,1.9l0.1,1v0.5c0,0.1,0,0.3,0.1,0.4c0.2,1.8,1.7,3.3,3.6,5.1
			c1.1,1,2,1.9,3,3c0.6,0.6,1.1,1.3,1.6,1.9c0.5,0.8,0.9,1.6,1.3,2.4c0.4,0.9,0.7,1.8,0.9,2.7c0.2,0.9,0.3,1.8,0.3,2.7
			c0,1.9-0.3,3.9-1.1,5.6c-0.8,2-2,3.7-3.7,5c-1.6,1.4-3.6,2.2-5.7,2.5c-2,0.3-4.1,0.1-5.9-0.7c-1.8-0.7-3.3-1.9-4.5-3.5
			c-1.1-1.4-1.7-3-1.8-4.8c-0.2-1.5,0-3.1,0.6-4.6c0.9,1.1,1.8,2,2.8,3c0.8,0.7,1.7,1.3,2.7,1.7c1.4,0.5,2.9,0.5,4.3-0.1
			c1-0.5,1.9-1.3,2.3-2.3c0.3-0.7,0.6-1.4,0.7-2.1c0.1-0.4,0.1-0.8,0.1-1.2c0-0.4,0-0.8-0.1-1.2c-0.1-1.7-1.2-3.6-2.7-5.9
			c-0.8-1.2-1.6-2.5-2.2-3.9c-0.8-1.5-1.2-3.2-1.2-5v-1.1l0.1-1l0.1-1.9c0.1-1.4,0.2-2.6,0.2-4c0.1-2.6,0.2-5.3,0.2-8
			c0.1-0.9,0.8-1.6,1.8-1.6c0,0,0.1,0,0.1,0c0.8-0.2,1.5,0.3,1.7,1.1C1457,79.3,1457,79.3,1457,79.4L1457,79.4z"/>
		<path class="st1" d="M1466.3,111.6c-9-4.3-15.9,9.6-6.8,13.9c8.6,4.1,13.4,14.8,9.8,23.8c-3.7,9.2,10.1,16,13.9,6.8
			C1489.9,139.4,1482.8,119.4,1466.3,111.6z"/>
		<path class="st1" d="M1477.4,161.8c-6.1-7.3-16.8,2.1-11,10.4c5.5,7.9,7.6,19.1,3.3,27.9c-4.3,8.9,6.7,17.7,11.9,9.3
			C1490.8,194.3,1488.6,175.3,1477.4,161.8z"/>
		<path class="st1" d="M1477,215.2c-3.8-8.2-16.3-1.6-12.9,8c3.2,9,2.8,22.3-0.4,31.4s8.7,17.1,12.4,8.7
			C1482.7,248.1,1483.9,230.1,1477,215.2z"/>
		<path class="st1" d="M1481.1,265.4c-5.9-7.7-16.8,0.6-11.7,9.2c4.9,8.3,3.6,19.2-2.4,26.6c-6,7.4,3,18.4,9.8,11.4
			C1489,299.9,1492,279.5,1481.1,265.4z"/>
		<path class="st1" d="M1479.5,317.2c-6.3-7.7-18.5,1.9-12.1,9.6c6,7.3,5.8,19.2-1.3,25.8c-7.1,6.6,2.3,18.9,9.6,12.1
			C1489,352.5,1491.2,331.4,1479.5,317.2z"/>
		<path class="st1" d="M1479,369c-4.9-7.7-16.9-0.1-12.2,9c4.5,8.7,4.5,20.8,1,30.1s8.6,17.4,12.5,9
			C1487.7,401.9,1487.9,383.2,1479,369z"/>
		<path class="st8" d="M1455.6,70.1c-6.9-2.6-12.8-5.8-0.5-10.9V1.9"/>
		<path class="st2" d="M280.7,155.5c-19.2-9.1-42.7-3.2-52.9,16.2c-2.4,4.7-3.9,9.8-4.3,15.1l-0.5-0.2c-19.2-9.1-42.7-3.2-52.9,16.2
			c-9.6,18.1-2.9,43.9,16.2,53c2,1,4,1.8,6.1,2.3c-2.8,2.8-5.2,5.9-7,9.4c-9.6,18.1-2.9,43.9,16.2,52.9c18.8,8.9,41.7,3.3,52.3-15.2
			c19,8.4,41.7,2.2,51.7-16.7c4.5-8.7,5.6-18.7,3.1-28.2c6.3-3.6,11.5-8.9,14.9-15.4c9.6-18.1,2.9-43.9-16.2-53
			c-2-1-4.2-1.8-6.3-2.4C301.1,175.7,293.8,161.8,280.7,155.5z"/>
		<path class="st2" d="M142.7,0.6c-10.2,16.6-12.7,38.1-3.1,55.7c14.8,26.9,47,40.1,75.6,27c15.5,26.3,47.9,38.6,76.3,24.7
			c12.8-6.3,22.8-17.8,28-31c10.7,1.2,21.4-0.7,31-5.4c25.2-12.5,39.3-44.9,29-71.5"/>
		<path class="st2" d="M312.9,350c-8.7,4.5-13,14.7-8.9,23.8c1,2.2,2.5,4.2,4.4,5.7l-0.2,0.1c-8.7,4.5-13,14.7-8.9,23.8
			c3.9,8.6,15.2,13.2,23.8,8.8c0.9-0.5,1.7-1,2.5-1.6c0.2,1.8,0.7,3.5,1.5,5.2c3.9,8.6,15.2,13.2,23.8,8.8c8.7-4.5,12.8-14.3,9-23.3
			c8.3-4.6,12.5-14.6,8.3-23.5c-2-4-5.3-7.2-9.4-8.9c0.5-3.3,0-6.7-1.5-9.7c-3.9-8.6-15.2-13.2-23.8-8.8c-0.9,0.5-1.8,1-2.6,1.7
			C326,348.1,318.9,347,312.9,350z"/>
	</g>
</g>
</svg>
