<svg xmlns="http://www.w3.org/2000/svg" viewBox="0 0 656.7 634.92">
  <defs>
    <style>
      .cls-1 {
        isolation: isolate;
      }

      .cls-10, .cls-2, .cls-4, .cls-6 {
        fill: #fff;
      }

      .cls-11, .cls-12, .cls-2, .cls-3, .cls-4, .cls-6, .cls-7, .cls-8, .cls-9 {
        stroke: #000;
        stroke-width: 2.6px;
      }

      .cls-12, .cls-13, .cls-2, .cls-3, .cls-6, .cls-7, .cls-8 {
        stroke-linecap: round;
      }

      .cls-12, .cls-13, .cls-2, .cls-3 {
        stroke-linejoin: round;
      }

      .cls-11, .cls-4, .cls-6, .cls-7, .cls-8, .cls-9 {
        stroke-miterlimit: 10;
      }

      .cls-5 {
        mix-blend-mode: multiply;
      }

      .cls-12, .cls-13, .cls-8, .cls-9 {
        fill: none;
      }

      .cls-13 {
        stroke: #fff;
        stroke-width: 2px;
      }
    </style>
  </defs>
  <title>illu3full_a</title>
  <g class="cls-1">
    <g id="Layer_2" data-name="Layer 2">
      <g id="Layer_1-2" data-name="Layer 1">
        <g>
          <g>
            <g>
              <ellipse cx="99.23" cy="626.75" rx="99.23" ry="8.17"/>
              <path class="cls-2" d="M49.64,579.09c3.64,12.39,8.3,47.93,8.3,47.93h7.27l-.46-11.09"/>
              <path class="cls-3" d="M117.5,283.61a32,32,0,0,1-3.29.68c-16.67,2.49-33.85-5.4-33.09-22.24,2.41-53.69-10-75.19-21.18-78.35L141,190.82l0-.15A162,162,0,0,0,138.51,251C140.83,266.55,132.37,279.7,117.5,283.61Z"/>
              <path d="M139.52,270.74a14.09,14.09,0,0,1,2-2.74,22.89,22.89,0,0,1,2.27-2.16,26,26,0,0,1,4.87-3.23c3.41-1.62,6.88-3,10.28-4.49s6.78-2.87,10.06-4.34a88.44,88.44,0,0,0,9.29-4.66,28.89,28.89,0,0,0,6.88-5.39,7.57,7.57,0,0,0,1.41-2.21,1.55,1.55,0,0,0,.11-.57l0-1.32a56.65,56.65,0,0,0-1.31-9.8,73.74,73.74,0,0,0-3-9.88,77.89,77.89,0,0,0-9.93-18.13,53.5,53.5,0,0,0-14-13.29c-5.16-3.15-10.46-4.83-15.54-4.7a29.25,29.25,0,0,0-15.06,4.76,16.32,16.32,0,0,1-17.08-27.81,17.36,17.36,0,0,1,2.59-1.29l.68-.26a72.1,72.1,0,0,1,15.08-4.13,55.08,55.08,0,0,1,8-.68,51.27,51.27,0,0,1,8.12.42,57.24,57.24,0,0,1,15.44,4.26,61.64,61.64,0,0,1,13.1,7.82,81.15,81.15,0,0,1,18.88,21,103.46,103.46,0,0,1,11.42,24.43,96.54,96.54,0,0,1,3.27,13.13,77.2,77.2,0,0,1,1.24,13.9l0,1.82a24.46,24.46,0,0,1-1.67,8,26.69,26.69,0,0,1-2.12,4.39,35.38,35.38,0,0,1-2.47,3.66,61.92,61.92,0,0,1-10.74,10.61,100.16,100.16,0,0,1-22.61,13.59c-7.91,3.09-15.42,7.12-25.39,3.67a9,9,0,0,1-5.58-11.49,9.67,9.67,0,0,1,.55-1.28Z"/>
              <path class="cls-2" d="M114.1,579.09c3.64,12.39,8.3,47.93,8.3,47.93h7.27l-.94-22.52"/>
              <path class="cls-2" d="M117.87,555.54a33.74,33.74,0,0,0-3.81,23.55c2.73,13.57,31,50.28,48.36,50.28H175a5.72,5.72,0,0,0,5.34-3.76c2.54-6.51-2.78-19.08-13.65-19.64-7-17.3-16.93-26.88-23.09-39"/>
              <path class="cls-2" d="M81.53,314.27l30.32,115.32S88.32,477,122.73,548.84c-14.27,15.11,1.47,28.5,1.47,28.5s42.19,41.24,35.13,14.53a89.86,89.86,0,0,1-13.35-38c-8.35-70.22,6.18-185.17,6.18-185.17Z"/>
              <path class="cls-2" d="M54.44,555.54a31.28,31.28,0,0,0-4.32,23.55c3,13.57,17.09,50.28,36.24,50.28h13.92a6.37,6.37,0,0,0,5.92-3.76C109,619.1,106,610.87,98.78,606c-3.87-13.51-14.15-27.9-15.94-39"/>
              <path class="cls-2" d="M49.31,368.71l7.93,60.88S32.57,468.88,58.5,545.45C49.41,561.93,57.73,570,60,574.6c6.52,13.08,31.28,37.45,27.33,16.49-14.22-75.52,26.11-276.82,26.11-276.82Z"/>
              <path class="cls-4" d="M81.32,251.16s-55.73,36.16-32,117.55H152.16S162.25,310.93,139.64,258C105.16,265.87,81.32,251.16,81.32,251.16Z"/>
              <path class="cls-2" d="M98.78,606s-13.54-3.7-22.87,2.27"/>
              <ellipse class="cls-3" cx="113.77" cy="183.43" rx="44.4" ry="29.75" transform="translate(-9.98 6.58) rotate(-3.17)"/>
              <path class="cls-2" d="M166.72,606c-7.7.65-10,2.27-10,2.27"/>
              <path d="M98,166.65c0,.06-.1.19-.18.28l-.31.29c-.21.2-.43.42-.65.61-.44.39-.9.78-1.36,1.16-.91.76-1.83,1.49-2.75,2.21-1.82,1.44-3.64,2.8-5.43,4.13L82,179.25c-1.76,1.27-3.49,2.55-5.12,4A66.1,66.1,0,0,0,61,202.91a69.57,69.57,0,0,0-7.5,25.39A95.65,95.65,0,0,0,55,256.52a24.17,24.17,0,0,0,.67,2.92,11.56,11.56,0,0,0,.73,1.9c.21.41.39.54.13.2a3.59,3.59,0,0,0-.82-.7,5.18,5.18,0,0,0-1.55-.66,5,5,0,0,0-1.92-.12c-.09,0,.27-.16.75-.51a25,25,0,0,0,3.76-3.43,79.85,79.85,0,0,0,8-10.75c1.26-2,2.49-4,3.67-6.13s2.29-4.25,3.39-6.42C74,228.46,76.08,224,78,219.46s3.6-9.16,5.19-13.81a198.81,198.81,0,0,0,7.37-28.36,16.29,16.29,0,1,1,32.1,5.58,18.21,18.21,0,0,1-.67,2.59l-.1.25c-3.73,10.48-7.82,20.64-12.47,30.53-2.29,4.95-4.7,9.84-7.27,14.66S96.9,240.5,94,245.2c-1.43,2.35-2.91,4.68-4.46,7s-3.1,4.63-4.77,6.92A101.55,101.55,0,0,1,73.3,272.54,47.32,47.32,0,0,1,65.1,279a26.89,26.89,0,0,1-6.27,2.79,20.64,20.64,0,0,1-4.35.77,17.73,17.73,0,0,1-5.24-.43A17.27,17.27,0,0,1,44.1,280a18,18,0,0,1-3.81-3.16,22.73,22.73,0,0,1-4-6.3,34,34,0,0,1-1.82-5.44c-.43-1.66-.73-3.43-.93-4.68A167.14,167.14,0,0,1,31,226.75c.14-2.88.34-5.78.7-8.68s.81-5.82,1.42-8.72a84.57,84.57,0,0,1,5.51-17.15A75.1,75.1,0,0,1,61,163.57a78.69,78.69,0,0,1,7.45-5.18,48.14,48.14,0,0,1,8.13-3.89,44,44,0,0,1,8.71-2.29,38.23,38.23,0,0,1,4.57-.42c.77,0,1.55,0,2.35,0,.4,0,.8,0,1.22.08l.63.05c.24,0,.4.06.76.06A7.5,7.5,0,0,1,98,166.65Z"/>
              <path class="cls-4" d="M94.16,156.93l16.77-42.79,19,.33-3.31,44.37s-3.77,24.49-14.78,24.59C81.53,183.7,94.16,156.93,94.16,156.93Z"/>
              <ellipse class="cls-4" cx="120.42" cy="99.29" rx="48.25" ry="33.01" transform="translate(-5.43 6.98) rotate(-3.25)"/>
              <path class="cls-4" d="M160.56,98c-.95,10.08-10.08,17.47-18.81,16.65s-14-9.56-13-19.65,7.72-17.69,16.46-16.87S161.51,87.92,160.56,98Z"/>
              <path class="cls-4" d="M133,95.41c-.95,10.09-10.08,17.47-18.81,16.65s-14-9.56-13-19.64,7.72-17.69,16.46-16.87S133.92,85.33,133,95.41Z"/>
              <path class="cls-6" d="M127,66.47s11.2-42.64,26.46-64.15c1-1.44,3.07-1.19,3,.57l.12,75.7"/>
              <path class="cls-6" d="M81,86.08c2.89-7,3.2-39,31.89-83.83.95-1.48,3.07-1.19,3,.58L116,71.06"/>
              <path class="cls-3" d="M133.19,111.37c-.09,1.91-4.21,5.25-5.24,5.2s-4.8-3.77-4.71-5.68,2.35-2.38,5.1-2.24S133.29,109.46,133.19,111.37Z"/>
              <path class="cls-7" d="M124.64,90.26a21.49,21.49,0,0,1,.62,6.95,22.26,22.26,0,0,1-3.2,9.49,22.33,22.33,0,0,1-1.58-9.89,22,22,0,0,1,1.87-7"/>
              <path class="cls-7" d="M153.41,99.64a22.34,22.34,0,0,1-3.2,9.49,20.91,20.91,0,0,1,1.62-19.38A22.33,22.33,0,0,1,153.41,99.64Z"/>
              <path class="cls-8" d="M116.37,67c8.94-1.11,17.47-.47,29.41,3.46"/>
              <g>
                <path class="cls-2" d="M106.49,154.28s3.63-15.72,1.53-25.3,9.36-6.43,10.37,14.22"/>
                <path class="cls-2" d="M141,166.65a42.41,42.41,0,0,1-7.14,11.24c-8.4,9.57-27.32,12.68-32.83,3.63-4.69-7.71.94-37.91,41-57.36,16.12-7.84,20.45.11,4.64,7.3-7.41,3.37-11,10.59-11,10.59"/>
                <path class="cls-2" d="M128.3,141.68s11.63-5,18.2,3.49-.2,14.81-.2,14.81"/>
                <path class="cls-2" d="M136.06,167.09s11.11,5.69,11.55-3.92-9-19.15-17.53-12.83"/>
                <path class="cls-2" d="M134,160.87s7.84-3.6,10.78,6c3.08,10-6,12.26-6.69,7.78-.91-6.16-4.36-2.64-4.36-2.64"/>
              </g>
            </g>
            <path d="M53.19,359.13a84.8,84.8,0,0,1-3.86-18.91c-.34-3.21-.47-6.43-.52-9.65l0-4.84.31-4.83c.07-1.61.36-3.2.55-4.8s.38-3.2.73-4.78l.93-4.75c.34-1.57.79-3.12,1.19-4.68.72-3.14,1.86-6.16,2.86-9.22.46-1.55,1.16-3,1.75-4.5L59,283.7l.37.17-.44,2.42-.5,2.38c-.31,1.59-.81,3.1-1,4.7l-1,4.67c-.36,1.54-.6,3.1-.86,4.65L55.22,305c-.13.77-.34,1.53-.43,2.31L54.16,312c-.26,1.54-.42,3.09-.58,4.63s-.4,3.09-.44,4.65l-.4,4.65c-.06,1.55-.06,3.11-.17,4.66-.15,3.12-.11,6.24-.11,9.37.1,6.28.43,12.58,1.11,19.07Z"/>
            <path class="cls-2" d="M113.77,120.92S124,118.31,127,125.49"/>
            <path class="cls-9" d="M101,89.75s19.4-3.67,32,4.06"/>
            <path class="cls-10" d="M70.67,270.19c4.3-6.95,8.87-13.65,13.49-20.3,2.27-3.36,4.66-6.62,7-9.95s4.7-6.58,7-9.9,4.66-6.58,7-9.88,4.55-6.64,6.81-10,4.4-6.72,6.32-10.2a41.6,41.6,0,0,0,2.6-5.33,13.26,13.26,0,0,0,.81-2.79,3.82,3.82,0,0,0-.35-2.74l0,0a.16.16,0,0,1,0-.21.14.14,0,0,1,.19,0,4.19,4.19,0,0,1,.82,3,14.12,14.12,0,0,1-.51,3,39,39,0,0,1-2.15,5.72,117.69,117.69,0,0,1-5.73,10.75c-4.16,7-8.69,13.72-13.35,20.36-9.43,13.22-19.37,26-29.65,38.61a.14.14,0,0,1-.21,0,.14.14,0,0,1,0-.19Z"/>
            <path class="cls-9" d="M72.2,327.26l-.57-165.85a1.92,1.92,0,0,0-3.62-.87c-10.29,20.17-39.18,84.08-39.65,166.72"/>
            <rect class="cls-4" x="17.34" y="327.26" width="78.76" height="60.75" rx="21.13" ry="21.13"/>
            <rect class="cls-4" x="8.58" y="327.26" width="78.76" height="60.75" rx="21.13" ry="21.13"/>
            <path class="cls-9" d="M9.35,342.73s36.91,49.73,77.22,0h8.76"/>
            <rect class="cls-4" x="45.03" y="358.64" width="7.52" height="12.48" rx="3.76" ry="3.76"/>
            <path class="cls-4" d="M144.2,260.3c-22.79.9-30.18,8-26.4,13.12-6,2.24-4.74,10.4-.76,11.32-1.69,5.57,2.81,8,5.4,7.59-.31,5.88,31.29,5.25,40.41-12.34s-17.93-26.76-17.93-26.76"/>
            <path class="cls-4" d="M153.18,257s-13.77-14.38-15.4-13.63-2.3,8.47,6.42,17"/>
            <path class="cls-4" d="M117.8,273.42s1.89,3.22,24.25-3.47"/>
            <path class="cls-4" d="M117,284.74s17.81-1.64,27.19-6"/>
            <path class="cls-4" d="M122.44,292.33s11.15-.62,20.76-4.62"/>
          </g>
          <g>
            <polyline class="cls-10" points="270.03 202.15 289.45 163.08 322 168.54 307.43 278.67 294.37 253.23 294.16 243.21 280.75 265.79"/>
            <line class="cls-4" x1="270.03" y1="202.15" x2="289.46" y2="163.08"/>
            <path class="cls-4" d="M551.15,144l53.37-13.38s4.32-.78,7.71,7.93"/>
            <path class="cls-4" d="M233.53,135.94s-7.18-10.27-7.43-22.28-.82-18.31,3-19.11a8.27,8.27,0,0,1,3.81,0s-1.05-25.46,1.52-30.26,8.63-1.63,8.77,1.37c2.44-9.83,11.82-5.23,11.32-1.36,4.36-6.55,12.61-1.57,11.75,5-.68,5.06-3.65,29.42-6.16,40.81"/>
            <polygon class="cls-3" points="384.94 569.98 331.72 559.8 331.72 356.46 384.94 356.46 384.94 569.98"/>
            <path class="cls-11" d="M271.8,535.67c10.91,21.94,28.6,19.87,28.6,19.87l-2.06-54.29Z"/>
            <path class="cls-4" d="M464.77,154.28l-11-28.79L418.8,144.64A97.86,97.86,0,0,0,429,101.23c-39.8,3.45-46.42,5.47-46.42,5.47l-27.34,67.37,109.52-19.79"/>
            <path class="cls-4" d="M355.25,153.91,323.43,110l-29.09-2.22,13,42.85-20.15-1s5.05,26.33,18.28,128.72C305.48,166,355.25,153.91,355.25,153.91Z"/>
            <path class="cls-2" d="M384.94,153.91h35.5l44.33.37L598,138.43c22-2.62,40.91,15.88,38.38,37.87,0,.2,0,.4-.07.58-1.19,8.66,6.59,57.31,7.18,74.28s-20,86.9-16.56,107.9-11.17,113.17,0,142.49,0,70,0,70-7.38-7.19-63.63-7.19-77.41,14.7-111.33,14.7-47.59-3.64-47.59-3.64L336.33,176.88Z"/>
            <path class="cls-2" d="M617.23,365.23c-6.82-7.1-20.29,3.11-13.53,11.7,6.41,8.15,9.46,21.57,8.07,31.74s15.21,14.75,17.41,5.23C633.16,396.71,629.74,378.26,617.23,365.23Z"/>
            <path class="cls-2" d="M627.43,423.75c-4.74-9.17-21.38-3.46-17,7.21,4.14,10.1,2,23.06-4,32.12s7.8,20.25,14.34,12.09C632.55,460.44,636.13,440.6,627.43,423.75Z"/>
            <path class="cls-2" d="M590.64,355.81c11.28-5,19.87,11.2,8.57,16.2-10.7,4.73-16.84,17.28-12.27,27.79,4.66,10.73-12.71,18.78-17.4,8C561.07,388.29,569.93,365,590.64,355.81Z"/>
            <path class="cls-2" d="M576.79,414.44c7.69-8.56,21.14,2.48,13.81,12.15-7,9.16-9.51,22.29-4.09,32.53s-8.39,20.67-14.83,10.92C560.07,452.42,562.67,430.15,576.79,414.44Z"/>
            <path class="cls-2" d="M577.36,476.69c4.76-9.48,20.49-1.78,16.18,9.32-4.09,10.52-3.55,25.94.46,36.66s-10.9,20-15.52,10.15C570.13,515.08,568.63,494.09,577.36,476.69Z"/>
            <path class="cls-2" d="M572.07,535.21c7.41-9,21.14.64,14.68,10.76-6.12,9.58-4.51,22.31,3.08,30.92s-3.73,21.43-12.27,13.3C562.13,575.51,558.47,551.71,572.07,535.21Z"/>
            <g>
              <path class="cls-4" d="M461.07,247.23s1.69-15.09,1.41-20-7.69-2.31-8.69-8.51,8-13.41,13-3.29c0,0,10.42-5.89,9.91,2.73s-7.44,2.92-6.95,13.29,1.09,14.33,1.09,14.33"/>
              <path class="cls-2" d="M460.93,246.75c-1.18,4.67-6,17.27-10.91,24.08-4.3,6-12.12,12.44-11.38,25.59,1.9,33.67,35.21,36.51,42.73,24,14.55-24.14-.82-45.79-6.18-59.08-5.79-14.37-4-16.32-5-15.48-3,.49-6.9,2-7.89.64A.79.79,0,0,0,460.93,246.75Z"/>
            </g>
            <g>
              <path class="cls-2" d="M364.65,587.14h53.4l11.47-133.89a116.8,116.8,0,0,0-2.95-37.86L389,262.05h-72.4l58.27,176.66Z"/>
              <ellipse cx="391.61" cy="626.75" rx="129.22" ry="8.17"/>
              <g>
                <rect class="cls-4" x="308.19" y="593.33" width="47.06" height="10.03" rx="5.01" ry="5.01"/>
                <path class="cls-4" d="M334.46,603.35h-6.22c-13.71,0-21.93-14.53-40.85-5-14.66,7.38-19.82,30.24,9.12,30.24,42.17,0,42.29.18,50.18.18s16.58-9.8-1.63-25.41Z"/>
              </g>
              <g>
                <rect class="cls-4" x="376.59" y="593.33" width="39.06" height="10.03" rx="4.57" ry="4.57" transform="translate(792.24 1196.68) rotate(-180)"/>
                <path class="cls-4" d="M412.53,603.35h.62c11.38,0,25.24-10.9,44.08-5,13.59,4.25,17.61,30.24-6.41,30.24-35,0-60.57.18-67.12.18s-13.77-9.8,1.35-25.41Z"/>
              </g>
              <polyline class="cls-2" points="318.15 251.16 292.25 428.54 302.43 587.14 355.83 587.14 348.58 430.33 365.53 357.39"/>
            </g>
            <path class="cls-4" d="M305.1,267.65s7,151.61,15.5,258c0,0-46.7-4.29-48.8,10.07C246,465.05,297.56,359.22,297.26,330.29s-3.45-88.07-3.45-88.07-14.22,40.29-33.37,38.29-43.5-132.77-36.32-139.9,37.5,0,37.5,0l10.18,74.55"/>
            <g>
              <path class="cls-10" d="M254.51,266.54S266,301.2,297.43,217.78"/>
              <path d="M254.51,266.54a14.17,14.17,0,0,0,2.54,4.2,7.39,7.39,0,0,0,4,2.52,7.16,7.16,0,0,0,4.6-.77l1-.58,1-.7a7.45,7.45,0,0,0,.94-.76l.9-.8A43.66,43.66,0,0,0,275.6,262a98.14,98.14,0,0,0,4.91-8.5c3-5.83,5.65-11.86,8.13-17.95s4.71-12.28,6.91-18.48l3.75,1.41c-2.54,6.13-5.08,12.25-7.91,18.27s-5.76,12-9.13,17.72a99,99,0,0,1-5.43,8.38,44.67,44.67,0,0,1-6.62,7.53l-1,.79a7.7,7.7,0,0,1-1,.74l-1.07.69-1.15.56a7.11,7.11,0,0,1-9.12-2.27A14.59,14.59,0,0,1,254.51,266.54Z"/>
            </g>
            <path class="cls-4" d="M615,140.68c34.64-10.06,54.49,38.87,28.5,52.19-24.74,12.67-26.48,4.55-23.35-3.63-8,1.6-12.3-9.11-3.95-13.93-5.76-2.1-9.35-9.08.71-11.86-15.24-13.19,7.38-10.6,20-16"/>
            <path class="cls-3" d="M404.37,175.5a122.55,122.55,0,0,0-3.86-12.42l-.15-.39c-14.9,0-29.8-.33-44.7-.82-4,1.56-7.87,2.61-10.44,2.16a7.16,7.16,0,0,1-4.22-2.67l-22-.8a30.64,30.64,0,0,0-3.76,3.71,29.93,29.93,0,0,0-5.61,10.07C341,181.7,372.91,178.6,404.37,175.5Z"/>
            <path class="cls-2" d="M408.44,197.08c-.19-1.4-.39-2.81-.6-4.21-.75-5-1.66-9.9-2.81-14.73-.21-.89-.44-1.76-.66-2.64-31.46,3.1-63.39,6.2-94.71-1.16-.11.34-.22.67-.32,1a29.72,29.72,0,0,0-1.15,8.15q-1.05,5.38-1.82,10.81A319.47,319.47,0,0,0,408.44,197.08Z"/>
            <path class="cls-3" d="M409.15,216.65q.23-3.18.46-6.27c0-.57.08-1.17.13-1.74-.37-3.86-.79-7.72-1.3-11.56a319.47,319.47,0,0,1-102.07-2.78v0c-.57,4-1,7.95-1.4,11.94-.28,3.06-.48,6.13-.64,9.2C338.59,220.45,374.35,221.24,409.15,216.65Z"/>
            <path class="cls-2" d="M407.72,237.2c.29-4.18.57-8.31.85-12.35.19-2.77.39-5.51.58-8.2-34.8,4.59-70.56,3.8-104.83-1.18-.09,1.6-.18,3.19-.23,4.79q-.24,7.19,0,14.37C337.36,245.16,373.09,243.5,407.72,237.2Z"/>
            <path class="cls-3" d="M406.52,254c0-.63.1-1.27.14-1.9.37-4.95.71-9.87,1-14.72l0-.21c-34.63,6.3-70.36,8-103.67-2.57,0,.71,0,1.43.05,2.14q.25,7.15,1,14.29c0,.17,0,.34,0,.5.15,1.48.29,3,.44,4.51C338.17,265.88,373.66,263.83,406.52,254Z"/>
            <path class="cls-2" d="M404.73,276.33c.21-2.45.43-4.9.63-7.36.41-5,.79-10,1.16-14.94-32.86,9.8-68.35,11.85-101,2q.34,3.63.67,7.41c.41,4.59.79,9.32,1.14,14.08a188.4,188.4,0,0,0,51.13,7.34C374.49,285.7,389.38,280.85,404.73,276.33Z"/>
            <path class="cls-3" d="M402.77,296c.15-1.4.31-2.8.46-4.22.51-4.82,1-9.72,1.43-14.67,0-.26,0-.52.07-.78-15.35,4.52-30.24,9.37-46.25,8.57a188.4,188.4,0,0,1-51.13-7.34c0,.37,0,.74.08,1.11.34,4.74.64,9.49.88,14.15l.18,3.9C338.37,305,372.74,306.71,402.77,296Z"/>
            <path class="cls-2" d="M308.49,296.72c.09,2.18.18,4.34.25,6.46.1,3.48.17,6.87.17,10.1,0,15.74,80.82,13.06,91.51,1q.79-5.41,1.5-11.1c.3-2.36.57-4.76.85-7.17C372.74,306.71,338.37,305,308.49,296.72Z"/>
            <path class="cls-2" d="M338.85,157.91a22.87,22.87,0,0,1-1.45-4.07,28.77,28.77,0,0,0-15.94,4.89,29.12,29.12,0,0,0-2.43,1.83l22,.8A15.43,15.43,0,0,1,338.85,157.91Z"/>
            <path class="cls-2" d="M400.36,162.69c-.94-2.49-1.95-4.94-3.08-7.33l-.69-1.47-25.08,0s-2,1.22-4.93,2.81a103,103,0,0,1-10.92,5.19C370.56,162.36,385.46,162.71,400.36,162.69Z"/>
            <path class="cls-2" d="M396.59,153.89c8.17,16.54,11.34,35.62,13.15,54.75.06-.84.12-1.7.19-2.53l3.89-.92,3.64-.86c-.09-17.54-1-35.8-10.12-50.43Z"/>
            <path class="cls-3" d="M416.62,153.91h-9.28c9.13,14.63,10,32.89,10.12,50.43l2.47-.58,4.27-1c-.74-16.34.23-33.27-4.47-48.83Z"/>
            <path class="cls-2" d="M431.16,154.28l-7.47-.1-3.8-.05a2.87,2.87,0,0,1,.55-.22h-.71c4.7,15.56,3.73,32.49,4.47,48.83l4.11-1,2.85-.68S438.29,182.86,431.16,154.28Z"/>
            <path class="cls-4" d="M256.68,139s1-4,7.55-16c6-11.14.4-17.48-11.43-25.89-9.39-6.67-17.16-3.15-8.71,9.37l4.62,8s-14,5.52-10,19.66"/>
            <path class="cls-4" d="M231.81,91.75c-11-4.45-9.82,14.08-8.15,23.41s11,2.7,9.83-4.85l-1.14-7.54"/>
            <path class="cls-4" d="M254.51,64.29c-2.17,8.08-3.93,25.16-3.93,25.16"/>
            <path class="cls-4" d="M243.19,65.65s-2.6,16.52-2.12,24.81"/>
            <g>
              <path class="cls-3" d="M599.43,263.62a6.8,6.8,0,0,0-6-7.53,6.79,6.79,0,0,1-6-7.52l4.26-37.72-13.46-1.52L574,247.05a6.79,6.79,0,0,1-7.52,6h0a6.82,6.82,0,0,0-7.53,6l-7.75,68.58h0c0,.05,0,.1,0,.15-.44,3.88,8.27,8.05,19.45,9.31s20.6-.85,21-4.73a.76.76,0,0,0,0-.15h0Z"/>
              <path class="cls-2" d="M593.76,219.05s-2.8,2.52-10,1.7-9.37-3.89-9.37-3.89l.89-7.86s2.17,3.07,9.36,3.89,10-1.71,10-1.71Z"/>
              <ellipse class="cls-2" cx="585" cy="209.8" rx="3.84" ry="9.74" transform="translate(310.85 767.54) rotate(-83.55)"/>
              <path class="cls-2" d="M598,275.88c-.43,3.88-9.86,6-21,4.73s-19.89-5.43-19.45-9.31l-4.08,36.13c-.44,3.88,8.27,8.05,19.45,9.32s20.6-.86,21-4.74Z"/>
            </g>
            <path class="cls-4" d="M549.2,165.73c-16.53,4.42-33.58,4.74-49.19,3.43-15.87-1.34-14,16.93-.34,18.93,16.7,2.43,43.8.6,58.76-6.2C570.67,176.33,562.2,162.24,549.2,165.73Z"/>
            <path class="cls-2" d="M563,167.94c-22.33,7.15-53.38,9.24-76.28,5.66-8.9-1.39-11.17,12.13-2.3,13.52,24.12,3.77,60,.95,83.47-6.58C576.54,177.77,571.55,165.19,563,167.94Z"/>
            <path class="cls-4" d="M552.78,177.39c-12.39,4.31-38,5.61-51.47,4.41-18.95-1.69-17.94,15.29-4.42,18.48,16.48,3.88,47.16,1.07,62.74-4.35C572.38,191.49,565.54,172.94,552.78,177.39Z"/>
            <path class="cls-4" d="M522.36,362.85s-12.78,14.7-2.87,37c26.93-8.88,31.66-18.51,31.66-18.51S542.93,369.33,522.36,362.85Z"/>
            <line class="cls-4" x1="524.84" y1="373.08" x2="531.19" y2="379.88"/>
            <line class="cls-4" x1="531.19" y1="373.08" x2="524.84" y2="379.88"/>
            <path class="cls-2" d="M515.72,381.35a572.5,572.5,0,0,0-70.17-1.47l-17.16-9.61,7.94,11.08L431.16,391l14.54-11"/>
            <path class="cls-12" d="M507.38,358.5s-12.06,12.76-2,45.09"/>
            <path class="cls-12" d="M495.92,350.13s-12.06,16.15-2,57.08"/>
            <path class="cls-12" d="M482.09,354.87s-11.47,13.68-1.89,48.33"/>
            <path class="cls-12" d="M455.4,368.57s-6.67,7.06-1.1,24.95"/>
            <path class="cls-12" d="M467.55,365.47s-6.67,9-1.1,31.77"/>
            <g>
              <path class="cls-3" d="M505.66,246.63h0a15.38,15.38,0,0,1,9.88-16.84l3.12-1.15a7,7,0,0,1,9.29,5.45l2.79,17.56a7,7,0,0,1-7.14,8.06l-3.34-.13A15.37,15.37,0,0,1,505.66,246.63Z"/>
              <path class="cls-3" d="M511.47,283.24h0a15.37,15.37,0,0,1,9.88-16.83l3.13-1.16a7,7,0,0,1,9.28,5.45l2.79,17.56a7,7,0,0,1-7.14,8.06l-3.33-.13A15.37,15.37,0,0,1,511.47,283.24Z"/>
              <path class="cls-3" d="M523.6,259.71a8.62,8.62,0,0,1,.88,5.54"/>
              <polyline class="cls-13" points="511.28 252.43 515.6 241.93 519.85 247.23 525.33 234.65"/>
              <polyline class="cls-13" points="517.07 289.46 521.39 278.97 525.64 284.26 531.12 271.68"/>
            </g>
            <ellipse class="cls-3" cx="474.97" cy="500.73" rx="21.23" ry="41.12"/>
            <ellipse class="cls-3" cx="474.97" cy="455.9" rx="7.02" ry="7.32"/>
            <path class="cls-13" d="M475,463.22s-14.69,27.5-2.91,73.77"/>
            <g>
              <path class="cls-12" d="M482.09,472.42s15.84-4.34,19.29-16.52"/>
              <path class="cls-12" d="M491.74,485.28s15.84-1.18,19.29-4.5"/>
              <path class="cls-12" d="M491.52,502.38s19.88.61,24.2,2.31"/>
              <path class="cls-12" d="M491.52,520.16s16,3,19.51,11.48"/>
            </g>
            <g>
              <path class="cls-12" d="M465.74,472.42s-15.8-4.34-19.24-16.52"/>
              <path class="cls-12" d="M456.12,485.28s-15.8-1.18-19.24-4.5"/>
              <path class="cls-12" d="M456.34,502.38s-19.83.61-24.14,2.31"/>
              <path class="cls-12" d="M456.34,520.16s-16,3-19.46,11.48"/>
            </g>
            <path class="cls-12" d="M471.23,440.89s-4.55,1.56-3.27,5.17,13.16,5.74,14.13.71-2.85-5.88-2.85-5.88"/>
            <path class="cls-4" d="M526.44,456.49s-5.74,56.23,20.92,89V454.73Z"/>
            <path class="cls-3" d="M536.64,455.9a68.53,68.53,0,0,0,0-20.4c-1.75-10.21-5.52-24.13-5.52-24.13l16.24,1.53v41.83Z"/>
            <circle class="cls-10" cx="540.37" cy="419.14" r="2.1"/>
            <ellipse class="cls-4" cx="352.57" cy="155.79" rx="20.13" ry="9.49" transform="translate(-8.08 19.76) rotate(-3.17)"/>
            <path class="cls-11" d="M313.48,95.92c.17,28.46,16.36,60.45,36.18,61.11s35.76-30.26,35.59-58.72-16.36-52.07-36.17-52.73S313.32,67.46,313.48,95.92Z"/>
            <path class="cls-2" d="M334.08,99.05c0,5.69-.14,16.32-7.87,16.07s-7.7-10.92-7.71-16.59.11-16.26,7.85-16S334.08,93.35,334.08,99.05Z"/>
            <path class="cls-2" d="M355.07,98.71c0,5.68-.19,16.65-7.95,16.29s-7.66-11-7.66-16.69.1-16.39,7.9-16.27S355.08,93,355.07,98.71Z"/>
            <g>
              <path class="cls-2" d="M271.74,81.27s15.57,11.25,64,11.25S433.5,81.27,433.5,81.27L384.71,77l-17.36-42A7.06,7.06,0,0,0,355,33.61L344.5,48.8l-7-13a7.06,7.06,0,0,0-12.7.63L308.69,74.54Z"/>
              <path class="cls-3" d="M308.69,74.54S348.94,85,384.71,77L381,68s-30.81,8.51-67-6Z"/>
            </g>
            <g>
              <path class="cls-2" d="M331.34,128.14c-1.62,4.56.69,9.9,4.84,11.45a27.33,27.33,0,0,0,4.68,1.28c-.95-6-1.86-11.91-2.24-17.81C335.55,123.53,332.53,124.81,331.34,128.14Z"/>
              <path class="cls-2" d="M342,122.79a24.63,24.63,0,0,0-3.36.27c.38,5.9,1.29,11.85,2.24,17.81a23.8,23.8,0,0,0,9.57-.2c-1.1-6.24-2.16-12.49-3.09-18.76A18.67,18.67,0,0,1,342,122.79Z"/>
              <path class="cls-2" d="M353.7,118.76a27.52,27.52,0,0,1-6.36,3.15c.93,6.27,2,12.52,3.09,18.76a33.64,33.64,0,0,0,10.76-4.74c-1.75-6.13-3.69-12.17-5.9-18.08C354.76,118.13,354.23,118.43,353.7,118.76Z"/>
              <path class="cls-2" d="M366.88,119.19c-3.31-3.85-7.34-3.59-11.59-1.34,2.21,5.91,4.15,12,5.9,18.08l1.22-.8a14.94,14.94,0,0,0,4-3.77C369.45,127.31,370.24,123.1,366.88,119.19Z"/>
            </g>
            <path class="cls-4" d="M612.23,138.55a140.92,140.92,0,0,1,12.46-13.79c6.43-6.05,8.52,5.86,3.09,12.29s-5.58,5.29-5.58,5.29Z"/>
            <path class="cls-3" d="M431.16,201.1c-4.05,28.21-11.7,30.11-11.23,2.65"/>
            <rect class="cls-3" x="384.94" y="587.14" width="22.13" height="6.19"/>
            <rect class="cls-3" x="320.65" y="587.14" width="22.13" height="6.19"/>
            <polygon class="cls-3" points="601.86 372.16 574.31 360.34 574.31 354.87 568.35 366.73 573.64 362.85 601.86 372.16"/>
            <polygon points="362.99 375.84 383.03 437.23 383.12 437.51 383.1 437.77 371.41 579.09 380.36 437.57 380.42 438.11 359.2 377.12 362.99 375.84"/>
            <path class="cls-4" d="M616.92,163.45s16.85,2.1,21.39-3.27"/>
            <path class="cls-4" d="M616.21,175.31s16.52,2.81,24.46-3.14"/>
            <path class="cls-4" d="M620.16,189.24a39.84,39.84,0,0,0,20.51-4.45"/>
            <path class="cls-12" d="M407.07,603.35a10.22,10.22,0,0,0-6.4,9.33"/>
            <path class="cls-12" d="M413.48,603.35a10.23,10.23,0,0,0-6.41,9.33"/>
            <path class="cls-12" d="M419.88,603.35a10.22,10.22,0,0,0-6.4,9.33"/>
            <path class="cls-12" d="M334,603.35s2.23,2,3.1,9.33"/>
            <path class="cls-12" d="M329.32,603.35s2.24,2,3.1,9.33"/>
            <path class="cls-12" d="M325.2,603.35s2.24,2,3.1,9.33"/>
          </g>
        </g>
      </g>
    </g>
  </g>
</svg>
