<?xml version="1.0" encoding="utf-8"?>
<!-- Generator: Adobe Illustrator 25.2.1, SVG Export Plug-In . SVG Version: 6.00 Build 0)  -->
<svg version="1.1" id="Layer_1" xmlns="http://www.w3.org/2000/svg" xmlns:xlink="http://www.w3.org/1999/xlink" x="0px" y="0px"
	 viewBox="0 0 1684 1016.5" style="enable-background:new 0 0 1684 1016.5;" xml:space="preserve">
<style type="text/css">
	.st0{stroke:#000000;stroke-width:2.6;stroke-miterlimit:10;}
	.st1{fill:#FFFFFF;stroke:#000000;stroke-width:2.6;stroke-linecap:round;stroke-linejoin:round;}
	.st2{fill:#FFFFFF;stroke:#000000;stroke-width:2.6;stroke-miterlimit:10;}
	.st3{fill:none;stroke:#000000;stroke-width:2.6;stroke-miterlimit:10;}
	.st4{stroke:#000000;stroke-width:2.6;stroke-linecap:round;stroke-miterlimit:10;}
	.st5{fill:none;stroke:#FFFFFF;stroke-width:2;stroke-linecap:round;stroke-miterlimit:10;}
	.st6{fill:#FFFFFF;stroke:#000000;stroke-width:2.6;stroke-miterlimit:9.9999;}
	.st7{stroke:#000000;stroke-width:2.6034;stroke-linecap:round;stroke-linejoin:round;stroke-miterlimit:4.0051;}
	.st8{stroke:#000000;stroke-width:2.6001;stroke-linecap:round;stroke-linejoin:round;stroke-miterlimit:4.0001;}
	.st9{fill:none;stroke:#FFFFFF;stroke-width:2;stroke-linecap:round;stroke-linejoin:round;}
	.st10{fill:#FFFFFF;stroke:#000000;stroke-width:2.6001;stroke-linecap:round;stroke-linejoin:round;stroke-miterlimit:4.0001;}
	.st11{fill:none;stroke:#000000;stroke-width:2.6;stroke-linecap:round;stroke-linejoin:round;}
	.st12{fill:#FFFFFF;}
	.st13{stroke:#000000;stroke-width:2.6;stroke-linecap:round;stroke-linejoin:round;}
	.st14{fill:#FFFFFF;stroke:#000000;stroke-width:2.6001;stroke-miterlimit:10.0003;}
	.st15{stroke:#000000;stroke-width:2.6001;stroke-linecap:round;stroke-linejoin:round;stroke-miterlimit:4.0002;}
	.st16{fill:#FFFFFF;stroke:#000000;stroke-width:2.6;stroke-linecap:round;stroke-miterlimit:10;}
	.st17{fill:none;stroke:#000000;stroke-width:2.6;stroke-linecap:round;stroke-miterlimit:10;}
	.st18{stroke:#FFFFFF;stroke-width:2.6;stroke-linecap:round;stroke-linejoin:round;}
	.st19{fill:none;stroke:#000000;stroke-width:6;stroke-linecap:round;stroke-linejoin:round;}
	.st20{fill:#387CDB;stroke:#000000;stroke-width:2.6;stroke-linecap:round;stroke-linejoin:round;}
	.st21{stroke:#000000;stroke-width:2.5908;stroke-linecap:round;stroke-linejoin:round;stroke-miterlimit:3.9858;}
	.st22{fill:none;stroke:#000000;stroke-width:6;stroke-linejoin:round;}
	.st23{fill:#FFFFFF;stroke:#000000;stroke-width:2.6;stroke-linejoin:round;}
	.st24{fill:none;stroke:#000000;stroke-width:2.6;stroke-linejoin:round;}
	.st25{stroke:#000000;stroke-width:2.5999;stroke-linejoin:round;stroke-miterlimit:3.9998;}
	.st26{stroke:#000000;stroke-width:2.6;stroke-linejoin:round;}
	.st27{fill:none;stroke:#000000;stroke-width:5;stroke-linecap:round;stroke-linejoin:round;}
	.st28{fill:#FFFFFF;stroke:#000000;stroke-width:2.6;stroke-linecap:round;stroke-linejoin:round;stroke-miterlimit:3.9999;}
</style>
<g>
	<g>
		<g id="Layer_2_2_">
			<g id="Layer_1-2_1_">
				<g>
					<g>
						<g>
							<rect x="675.8" y="429.7" class="st0" width="284.6" height="136.2"/>
							<rect x="1006.8" y="378.4" class="st1" width="31" height="336.8"/>
							<rect x="633.7" y="378.2" class="st2" width="377.1" height="336.8"/>
							<line class="st3" x1="642" y1="497.3" x2="711" y2="378.4"/>
							<line class="st3" x1="711.7" y1="497.3" x2="780.7" y2="378.4"/>
							<line class="st3" x1="781.4" y1="497.3" x2="850.4" y2="378.4"/>
							<line class="st3" x1="851.1" y1="497.3" x2="920.1" y2="378.4"/>
							<line class="st3" x1="920.8" y1="497.3" x2="989.8" y2="378.4"/>
							<line class="st3" x1="636.1" y1="497.3" x2="1037.8" y2="497.3"/>
							<g>
								<path class="st2" d="M797.1,497.3c0-22.3,10.3-41.6,25.2-50.6c-4.6-2.2-9.7-3.4-14.9-3.4c-23.5,0-42.6,24.2-42.6,54
									s19.1,54,42.6,54c5.2,0,10.2-1.2,14.9-3.4C807.5,538.9,797.1,519.6,797.1,497.3z"/>
								<path class="st0" d="M850.1,497.3c0-23.2-11.5-42.9-27.7-50.6c-14.9,9-25.2,28.2-25.2,50.6c0,22.3,10.3,41.6,25.3,50.6
									C838.6,540.2,850.1,520.5,850.1,497.3z"/>
							</g>
							<g>
								<path class="st2" d="M915.4,497.3c0-13.1,6.3-24.3,15.3-28.9c-2.9-1.5-6.1-2.3-9.3-2.3c-13.6,0-24.7,14-24.7,31.3
									c0,17.3,11,31.2,24.7,31.2c3.3,0,6.5-0.8,9.3-2.3C921.7,521.6,915.4,510.4,915.4,497.3z"/>
								<ellipse class="st0" cx="930.7" cy="497.3" rx="15.3" ry="28.9"/>
							</g>
							<g>
								<path class="st2" d="M680.3,497.3c0-13.1,6.3-24.3,15.3-28.9c-2.9-1.5-6.1-2.3-9.3-2.3c-13.6,0-24.7,14-24.7,31.3
									c0,17.3,11,31.2,24.7,31.2c3.3,0,6.5-0.8,9.3-2.3C686.6,521.6,680.3,510.4,680.3,497.3z"/>
								<ellipse class="st0" cx="695.6" cy="497.3" rx="15.3" ry="28.9"/>
							</g>
							<g>
								<path class="st2" d="M696.3,549.6c-3.8,3.8-9,3.5-8.7-1.9c0.7-13.9,8.2-32.5,0.7-27.2c-8.9,6.3-4,32.3-3.6,39.4
									c0.4,8.1-8.6,6.9-8.6,6.9s-0.1,0.8-3.2,2.5c-2.8,1.6-7.7,2.1-12.9-3.2c-1.6,1.6-9.5,2.3-11.8-7c-11.2-1.1-8.8-20.6-4.2-43.7
									c4-20.1,19.2-27.9,29.3-29.6c10.6-1.9,21.5-2.2,32.2-0.8C711.7,501,705.5,540.5,696.3,549.6z"/>
								<path class="st2" d="M676.1,566.9c0,0-8.9-1.9-4.8-35.6"/>
								<path class="st2" d="M660.1,566.2c-3.4-10.7-1.3-36.2-1.3-36.2"/>
								<path class="st2" d="M648.3,559.3c0,0-1.6-20.6,0.7-30.2"/>
							</g>
							<rect x="1013" y="489.8" class="st2" width="24.5" height="15.7"/>
							<g>
								<path class="st2" d="M846.3,519.6c0,0-22.3-6.9-60.3,15.2c-34.5,20.1-73.3,16.5-74.7,2.1c40.8-27.4,21.3-95.9,24.1-107.3
									s18,24.4,18,24.4s12-0.5,19-1.8c-0.6-15.6-0.6-43.3,8.8-25.4c1.6,3,5.8,17.2,7.1,19.8c8.4,18,29.8,25.8,47.8,17.5
									c2.3-1.1,3.7-1.8,3.7-1.8S858.3,484.9,846.3,519.6z"/>
								<ellipse class="st0" cx="746.5" cy="493.8" rx="3.5" ry="7.2"/>
								<ellipse class="st0" cx="765.4" cy="493.8" rx="3.5" ry="7.2"/>
								<path class="st4" d="M754.8,496.6c0,7.4-4.3,8.9-4.3,8.9"/>
								<path class="st4" d="M774.4,496.6c0,7.4-4.3,8.9-4.3,8.9"/>
								<path class="st5" d="M746.2,488.9c0,0-1.9,0.7-1.2,7.5"/>
								<path class="st5" d="M765.1,488.5c0,0-1.9,0.7-1.2,7.5"/>
								<circle class="st0" cx="712.8" cy="534.8" r="5.6"/>
							</g>
							<path class="st0" d="M1037.9,415c0,0,56.9,4.8,59.1,71.7s-59.3,117.2-59.3,117.2L1037.9,415z"/>
							<path class="st2" d="M1099.5,652.9c0,0,11.8-0.4,3.4,18.6c-7.8,17.9-27.1,16-34.2,27.1c-5.7,8.8,0,16.5,20.7,16.5
								c23.1,0,31.3,0.1,44.5-19.4c27.8-41.1,15.1-97.9-11.5-101.6c-16.6-2.3-22.8,19.2-22.8,19.2l-9.3,2.8"/>
							
								<ellipse transform="matrix(0.9756 -0.2195 0.2195 0.9756 -112.2193 256.3872)" class="st6" cx="1097.7" cy="633.2" rx="12.8" ry="26.2"/>
							<path class="st0" d="M1037.8,615.3c0,0,37.2-13.8,47.1-8.3s19.4,53.7,12.2,58.1s-59.3,17.8-59.3,17.8L1037.8,615.3
								L1037.8,615.3z"/>
							<path class="st2" d="M794.6,499.1c10.3-1.7,10.5,12.1,3.3,20.5c-6.7,7.8-14,7.3-16,3.6c-3.2-6,3-8.3,5.6-12.9
								C789.3,506.9,789.9,499.9,794.6,499.1z"/>
							<path class="st2" d="M896.3,493.8c0,0-24.8,7.6-30.3,15.6c-5.5,8,16.6,3.3,16.6,3.3"/>
							<path class="st2" d="M941.3,509.4c0,0-4-1.5-10.5,7.9c-6.3,9.2,0.4,30,1.5,37c1.3,8-8.2,7.8-8.2,7.8s-0.9,5.6-3.9,7.6
								c-2.8,1.8-7.8,2.9-13.8-1.9c-1.5,1.8-9.7,3.2-13.1-5.8c-11.8,0-11.8-16.4-11.8-39.9s20-32.8,30.3-35.5
								c18.5-4.9,27.5,1.8,27.5,1.8C948.5,497.3,941.3,509.4,941.3,509.4z"/>
							<path class="st2" d="M924.1,562.1c0,0-9.6,0.9-9.6-30.1"/>
							<path class="st2" d="M906.4,567.9c-4.7-10.3-5.2-35.8-5.2-35.8"/>
							<path class="st2" d="M893.3,562.1c0,0-3.8-20.4-2.5-30.1"/>
							<path class="st2" d="M1035.5,489.8c3.4,0,6.2,3.5,6.2,7.9s-2.8,7.9-6.2,7.9"/>
							<path class="st2" d="M1029.7,489.8c3.4,0,6.2,3.5,6.2,7.9s-2.8,7.9-6.2,7.9"/>
							<path class="st2" d="M1019.9,489.8c3.4,0,6.2,3.5,6.2,7.9s-2.8,7.9-6.2,7.9"/>
							<g>
								<path class="st2" d="M563.3,478c0,0-21.1-3.4-36.4,7.7c-21,15.3-10,73.9,33.2,91c35.9,14.3,73.6,1.8,73.6,1.8V558
									c0,0-43.6,12.8-68.8-0.6c-17.6-9.4-26.9-42.3-21.6-45.3c8.1-4.7,30.4-0.5,90.5,24.3l-0.2-93.4
									c-47.3-20.8-64.9,26.8-64.9,26.8"/>
								<path class="st2" d="M533.2,428.2c0,0,9.5,35.2,23.7,47.7s13.2-6.9,13.2-6.9s-17.1-7.2-16.9-31.2"/>
								<path class="st2" d="M524.1,396.8c2.6,32.2,15.9,59.5,32,58.2s28.8-30.7,26.2-62.9s-16.3-40.7-32.5-39.4
									S521.5,364.7,524.1,396.8z"/>
								
									<ellipse transform="matrix(0.9887 -0.1498 0.1498 0.9887 -52.1504 91.2594)" class="st7" cx="579.7" cy="391.8" rx="8.1" ry="11.7"/>
								
									<ellipse transform="matrix(0.9889 -0.1488 0.1488 0.9889 -52.3834 87.1125)" class="st8" cx="556" cy="393.6" rx="8.1" ry="11.7"/>
								<polyline class="st9" points="550.3,398 556.4,389.9 557.5,396.8 562.7,390.7 								"/>
								<polyline class="st9" points="572.3,395.6 578.7,387.1 579.9,394 584.7,388.3 								"/>
								<path class="st2" d="M569.4,411.4c6.4,7,13.5,10.9,16,8.7s-0.7-9.8-7-16.8s-12-8.6-14.5-6.4
									C561.4,399.2,563,404.4,569.4,411.4z"/>
								
									<ellipse transform="matrix(7.155670e-03 -1 1 7.155670e-03 178.2678 921.2438)" class="st10" cx="553.1" cy="370.8" rx="13.7" ry="88.2"/>
								<path class="st1" d="M584.2,369.6c0,0-8.8,5.8-35.7,5c-21.1-0.6-27.3-6.1-27.3-6.1c0.3-17.4,12.2-31.3,29.5-33.2
									C571.4,332.9,584.5,352.2,584.2,369.6z"/>
								<path class="st11" d="M540.9,415.7c10.4,6,23.2,6.5,34.1,1.3"/>
							</g>
							<path class="st12" d="M1086.3,522.1c0.6-10.4,1.2-20.5,0.7-30.5l-0.3-3.7c0-0.6,0-1.2-0.1-1.8l-0.2-1.8l-0.4-3.7l-0.6-3.6
								c-0.8-4.8-1.9-9.5-3.5-14.1c-3-9.2-7.9-17.6-14.3-24.8c-6.8-7.4-14.9-13.4-23.9-17.7h-0.1c-0.1-0.1-0.2-0.2-0.1-0.3l0,0
								c0-0.1,0.2-0.2,0.3-0.1c15.1,4.3,28,14.1,36.3,27.4c2.7,4.4,4.9,9.1,6.6,14c0.4,1.2,0.9,2.5,1.2,3.7l1,3.8
								c0.3,1.2,0.5,2.5,0.7,3.8l0.4,1.9c0.1,0.6,0.2,1.3,0.2,1.9l0.5,3.8l0.2,3.9c0.2,2.6,0.1,5.2,0.1,7.7
								c-0.3,10.3-1.7,20.5-4.2,30.5c0,0.1-0.2,0.2-0.3,0.2C1086.5,522.4,1086.4,522.3,1086.3,522.1L1086.3,522.1z"/>
							<g>
								<path class="st2" d="M699.4,401.8L699.4,401.8c-1.1,0-2.3-0.3-3.3-0.8s-1.9-1.3-2.6-2.2c-0.7-0.9-1.1-2-1.3-3.1
									c-0.2-1.7-0.3-3.2-0.5-4.7s-0.2-2.8-0.2-4.1s-0.1-2.6-0.1-3.8s0-2.5,0-3.8s0.1-2.7,0.2-4.1s0.2-3,0.4-4.7
									c0.1-1.1,0.6-2.2,1.2-3.1c0.7-0.9,1.6-1.7,2.6-2.2s2.1-0.8,3.3-0.8l0,0c2.3-0.1,4.5,0.7,6.2,2.3c-0.4,1.3-0.6,2.6-0.8,3.9
									c-0.2,1.7-0.3,3.2-0.4,4.7s-0.2,2.8-0.2,4.1s-0.1,2.6-0.1,3.8s0,2.5,0.1,3.8s0.1,2.7,0.2,4.1s0.2,3,0.5,4.7
									c0.2,1.6-0.2,3.2-1.2,4.4C702.5,401.2,701,401.9,699.4,401.8z"/>
								<path class="st2" d="M712.6,403.6L712.6,403.6c-1.2,0-2.4-0.3-3.5-0.9s-2-1.4-2.8-2.3c-0.7-1-1.2-2.1-1.4-3.3
									c-0.2-1.9-0.4-3.7-0.6-5.3s-0.2-3.2-0.3-4.7s-0.1-2.9-0.1-4.3s0-2.9,0.1-4.3s0.2-3,0.3-4.7s0.3-3.4,0.6-5.3
									c0.2-1.2,0.7-2.3,1.4-3.3s1.7-1.8,2.8-2.3c1.1-0.6,2.3-0.9,3.5-0.9l0,0c4.6,0,7.4,1.1,8.4,2.3c0,0-2.7,2.5-2.9,4.3
									s-0.4,3.6-0.6,5.3s-0.2,3.2-0.3,4.7s-0.1,2.9-0.1,4.3s0,2.9,0.1,4.3s0.2,3,0.3,4.7s0.3,3.4,0.6,5.3c0.3,1.6-0.2,3.3-1.2,4.6
									C715.8,403,714.2,403.7,712.6,403.6z"/>
								<path class="st2" d="M725.6,403.6L725.6,403.6c-1.2,0-2.4-0.3-3.4-0.9c-1.1-0.6-2-1.4-2.7-2.3c-0.7-1-1.2-2.1-1.4-3.3
									c-0.2-1.9-0.4-3.6-0.6-5.2s-0.2-3.1-0.3-4.6s-0.1-2.9-0.1-4.3s0-2.8,0.1-4.3s0.1-3,0.3-4.6s0.3-3.3,0.5-5.2
									c0.2-1.2,0.6-2.3,1.3-3.3s1.7-1.7,2.7-2.3c1.1-0.6,2.2-0.9,3.4-0.9l0,0c6.7,0,8.2,2.7,9.2,3.9c-2.6,1.7-4.1,4.6-4.2,7.7
									c0,1.6-0.2,3.1-0.3,4.6s-0.1,2.9-0.1,4.3s0,2.8,0.1,4.3s0.2,3,0.3,4.6s0.3,3.3,0.6,5.2c0.3,1.6-0.2,3.3-1.2,4.6
									C728.8,403,727.3,403.7,725.6,403.6z"/>
								<path class="st2" d="M737.3,401.8L737.3,401.8c-1.5,0-3-0.6-4.2-1.6s-2-2.4-2.2-3.9c-0.2-1.9-0.4-3.7-0.5-5.3
									s-0.2-3.1-0.2-4.6s-0.1-2.9,0-4.4s0-3,0.1-4.6s0.2-3.4,0.4-5.3c0.2-1.5,0.9-2.9,2.1-3.9c1.1-1,2.6-1.6,4.2-1.6l0,0
									c6.2,0,11.7,5.2,12.6,11.9h-8.4c-0.1,1.6,0.4,11,0.5,12.6s0.3,3.4,0.5,5.3c0.2,1.4-0.2,2.8-1.1,3.9
									C740.1,401.3,738.8,401.9,737.3,401.8z"/>
							</g>
							<path class="st2" d="M691.3,375.3c0,0-9.9-14.5-16.1-9c-4.9,4.4,2.5,12.1,2.5,12.1h13.5L691.3,375.3L691.3,375.3z"/>
							<ellipse class="st2" cx="1013" cy="497.7" rx="6.2" ry="7.9"/>
							<ellipse class="st2" cx="1013" cy="497.7" rx="1.9" ry="2.4"/>
							<path class="st2" d="M1094.5,682.4c0,0,9.9-2.1,18.8,3.4"/>
							<path class="st2" d="M1102.9,671.5c0,0,10.7-3.3,18.4,2.4"/>
							<path class="st2" d="M1105.9,661.4c6.7-2.5,14.1-2.5,20.8,0"/>
							<path d="M557.7,505.8c3.4,0.1,6.7,0.5,10,1.2c1.6,0.3,3.3,0.6,4.9,1s3.3,0.7,4.9,1.1c6.5,1.6,12.9,3.5,19.3,5.5
								c3.2,1,6.4,2.1,9.5,3.2s6.3,2.2,9.5,3.4s6.3,2.3,9.4,3.6l9.3,3.7l-1.6,3.7l-9.1-4.2c-3-1.4-6.1-2.7-9.2-4s-6.2-2.6-9.2-3.9
								s-6.2-2.5-9.3-3.7c-6.2-2.4-12.5-4.5-18.9-6.5c-1.6-0.5-3.2-1-4.8-1.4s-3.2-0.8-4.9-1.2C564.3,506.6,561,506.1,557.7,505.8z"
								/>
						</g>
						<line class="st3" x1="102" y1="901.4" x2="1589.5" y2="901.4"/>
						<g>
							<rect x="339.2" y="730.4" class="st2" width="1099.2" height="171"/>
							<g>
								<rect x="1221.7" y="758.9" class="st2" width="174" height="15.3"/>
								<rect x="1249" y="804.1" class="st2" width="174" height="15.3"/>
								<rect x="1276.4" y="849.4" class="st2" width="174" height="15.3"/>
							</g>
							<g>
								<rect x="1282.3" y="758.9" class="st1" width="174" height="15.3"/>
								<rect x="1309.7" y="804.1" class="st1" width="174" height="15.3"/>
								<rect x="1337" y="849.4" class="st1" width="174" height="15.3"/>
							</g>
							<g>
								<rect x="278.8" y="715.2" class="st2" width="1250.7" height="15.2"/>
								<rect x="1218.2" y="715.1" class="st1" width="311.2" height="15.3"/>
							</g>
						</g>
						<g>
							<polygon class="st12" points="1184.8,618.2 1156.3,590.1 1170.6,547.4 1223.6,504.5 1374.9,539.1 1369.3,602.8 							"/>
							<path class="st13" d="M1377.1,579.7c5.3,55.6,8.6,123.3,12,179l-80.3,0.1c-23.6-0.3,11.4-28.4,25.3-21.3
								c-3.3-31.6-18.3-71.6-21.3-103.3c-14.5,0-64.4-5-63.3,9.5c2,26.9,6.3,42.8,6.1,71l-70.1,0.1c-31.6,0,6.1-28,20.3-21
								c-10.9-27.8-9.5-36.1-9.5-36.1"/>
							<path class="st2" d="M1346.4,587c4,11.9,4,35.1,4,35.1l32.5-0.6l1,12.2l-32.7,1.2c0,0,0.4,46.6,9.7,72.6
								c-105.4-1.2-105.8-59.2-164.3-41.6c-15.3-30.7-21-74.3,16.5-77.7"/>
							<path class="st0" d="M1263,583.8c1.9,2.8,3.6,4.9,5.6,8.1c15.9,10,46.5,26.3,53,41s27.4,5.8,28.7-5.1
								c-32.6-23.4-56-39.1-78.2-55.7C1276,575.1,1266,579.9,1263,583.8z"/>
							<path class="st2" d="M1191.8,518.5c-27.3,16.7-51.3,73.6-31.6,101.4c15.6,22,35.5,22.8,52,18.8c11-2.7,5.9-8,10.6-11.8
								c3.5-2.2,6-5.9,6.6-10c0.3-2.9-0.7-8.1-3.5-9.9c1.7-4.7,4.1-3.9,0.9-11c-1.6-3.6-14.9-9.7-21.1-7.3c-1-4,1.9-4,0.1-8.5
								s-18.9-0.9-20.4,3.1"/>
							<path class="st2" d="M1344.7,544.3l16.3,14.2c-22.6,0.7-44.1,17.8-55.2,18.6c-9-7.1-16.3-6.9-28.5-2.1c0,0,5.2,4.1,9,7.2
								c-6.4,5-9.7,19.5-19.6,10.1c-1.4,3.8-1.9,7.8-1.4,11.8c0.2,2.5,2.4,3.2,3.1,5.3s0,5.8,1,7.3c2,3.2,4.5,6,7.2,8.5
								c2,1.8,5.5,2.3,8.4,3.8c2.1,1.1,3.4,3.2,6.2,4.1c10.2,3.2,20.1-4.9,32.9-6.7c36.7-5.1,95.6-9.5,102.7-64.5
								c8-61.6-94.4-86.8-117-84.1c-56.5,6.8-84.7,11.2-117.8,40.8"/>
							
								<ellipse transform="matrix(0.9892 -0.1468 0.1468 0.9892 -73.0491 183.5147)" class="st14" cx="1206.8" cy="586.7" rx="14.9" ry="7.7"/>
							<path class="st2" d="M1237.9,599.7c14.7-12.5,39-23.8,39-23.8l-167.8-123.6c11.8,33.2,30.4,65,56.4,87.7
								C1189.8,561.1,1211.5,578.5,1237.9,599.7z"/>
							<path class="st2" d="M1211.6,584.6l-30.2-166.9l-4.5,0.9l23.9,168.8C1205.2,587.7,1209.4,586.8,1211.6,584.6z"/>
							<path class="st1" d="M1317.9,480.1c-7.5-27.8-23.1-82.2-23.1-82.2c15.8-5.2,26.8-14.7,20.7-32.7
								c-4.3-12.8-18.9-16.3-30.9-10.8c-2.1-10.3-9.6-17.5-20.6-17.5c-21.8,0-30.6,20.4-30.6,20.4c-17.8-8.5-32.8-5.9-40.6,4.8
								c-6.2,8.4-0.3,22.1,7.3,28.2c-12.9,8.8-19.3,19.9-11.3,30.1c9.4,11.9,26.6,4.8,26.6,4.8c5.2,23.7,18.7,73.7,18.7,73.7
								C1253,520,1294.4,496.9,1317.9,480.1z"/>
							<path class="st3" d="M1346.7,483.1c-27.3,9.2-31.4,47.3-11.4,73.9"/>
							<path class="st2" d="M1337.1,480.5c-20.2,5.7-30.7,25-31,47.3c-22.3,7.8-68,9.1-87.8,4.8"/>
							<path class="st2" d="M1232.5,495.9c-5.7,6.5-12,18.4-14.2,36.7"/>
							<path class="st13" d="M1240.2,446.2c1.2,4.7,3.2,13.5-3.2,14.7s-8.6-7.7-9.7-12.4s-3.2-13.5,3.2-14.6
								S1239,441.5,1240.2,446.2z"/>
							<path class="st13" d="M1259,441.9c1.2,4.7,3.2,13.8-3.2,14.8s-8.5-7.8-9.7-12.5s-3.3-13.6,3.2-14.8S1257.8,437.2,1259,441.9z
								"/>
							<path class="st1" d="M1276.7,473.3c1.1-1.2,2-2.7,2.6-4.2c1.7-4.3,1.4-8.2-2.6-11c-4.4-3.1-8.3-1.3-11.8,2.4
								c-2.5,2.7-5.1,5-9.4,6.1c-3.5,0.9-7.8,2.6-8.2,7.1s3.1,8.8,7.2,9.3C1264.2,484.1,1271,479.8,1276.7,473.3z"/>
							<path class="st1" d="M1247.6,476.1c13.5,0,24.7-3.9,29.9-17c-1.6-0.8-3.2-1.7-4.8-2.5c1.1,1.8,2.2,3.6,3.2,5.5l4.2,3.8
								c-0.5-1.8-1-3.7-1.5-5.5"/>
							<path class="st2" d="M1395,505.3c0,0-27.2,0.5-42.6,45.7"/>
							<path class="st3" d="M1223.6,496.7c0,0-14.3,14.4-14.3,29.3"/>
							<g>
								<path class="st1" d="M1350.1,592.2c0,0,10.4-8.9,4.2-15.7s-20.2,13.1-23.8,25.5C1357,613.5,1382.6,588.6,1350.1,592.2z"/>
								<line class="st11" x1="1341.1" y1="594.9" x2="1326.7" y2="589.1"/>
								<line class="st11" x1="1358" y1="603" x2="1367.9" y2="607"/>
							</g>
							<path class="st12" d="M1205.8,698c-3.2,0.8-5.8,1.4-8.2,2.1c-2.3,0.7-4.5,1.5-6.7,2.5c-2.2,0.9-4.4,2-6.8,3.1s-4.9,2.3-8,3.5
								h-0.1c-0.1,0-0.3,0-0.3-0.1l0,0c0-0.1,0-0.1,0-0.2c1.7-2.4,3.7-4.5,5.9-6.3c2.2-1.9,4.7-3.4,7.4-4.6c2.7-1.1,5.6-1.8,8.5-1.9
								c2.9-0.1,5.8,0.4,8.5,1.4c0.1,0,0.2,0.2,0.1,0.3l0,0c0,0.1-0.1,0.1-0.2,0.2H1205.8z"/>
							<path class="st12" d="M1335.5,742.1c-3.2,0.8-5.8,1.4-8.2,2.1s-4.5,1.5-6.7,2.5s-4.4,2-6.8,3.1s-4.9,2.3-8,3.5l-0.1,0.1
								c-0.1,0-0.3,0-0.3-0.1s0-0.1,0-0.2c1.7-2.4,3.7-4.5,5.9-6.3c2.2-1.9,4.7-3.4,7.4-4.6c2.7-1.1,5.6-1.8,8.5-1.9
								c2.9-0.1,5.8,0.4,8.5,1.4c0.1,0,0.2,0.2,0.1,0.3l0,0c0,0.1-0.1,0.1-0.2,0.2L1335.5,742.1z"/>
							<path class="st12" d="M1384.7,753.2c-2.3-9.4-4-18.9-5.1-28.5c-1.2-9.5-2.2-19.1-2.8-28.7s-0.9-19.2-0.9-28.8
								c-0.1-9.7,0.4-19.4,1.5-29l0,0c0-0.1,0.1-0.2,0.3-0.2l0,0c0.1,0,0.2,0.1,0.2,0.2l1,14.4l1,14.4l1.9,28.8l1.8,28.8l0.9,14.4
								l0.8,14.4c0,0.1-0.1,0.3-0.2,0.3l0,0C1384.9,753.4,1384.8,753.3,1384.7,753.2L1384.7,753.2z"/>
							
								<ellipse transform="matrix(0.9297 -0.3683 0.3683 0.9297 -138.6832 536.2909)" class="st6" cx="1335.6" cy="631.5" rx="4.9" ry="4.3"/>
							<path d="M1291.1,401.9l10.8,38.5l10.4,38.5l-0.4,0.1c-3-6-5.7-12.3-7.9-18.6c-1.2-3.1-2.1-6.3-3.2-9.5s-1.9-6.4-2.8-9.6
								s-1.7-6.4-2.5-9.7s-1.5-6.5-2.1-9.8c-1.4-6.6-2.3-13.2-2.8-19.9H1291.1z"/>
						</g>
					</g>
					<g>
						<g>
							<path class="st1" d="M1596,538.4c0,0,9.2-6.4,13.5,1.6s-7.6,16.3-12.9,16.9"/>
							<ellipse cx="1438.5" cy="974" rx="102" ry="6.8"/>
							<path class="st1" d="M1417.8,934.2c2.6,10.4,5.3,40,5.3,40h6.1V965"/>
							<path class="st13" d="M1480.1,685.8c-0.9,0-1.9-0.1-2.8-0.2c-14-1.5-26.2-11.5-22-25c13.3-42.9,7.9-62.9-0.5-67.8l64,23
								l0.1-0.1c-7.9,15-13,31.3-14.9,48.2C1502.6,676.9,1492.9,685.8,1480.1,685.8z"/>
							<path d="M1465.2,534c-0.7,0.8-1.4,1.6-2.2,2.3c-0.8,0.7-1.5,1.3-2.4,1.9c-1.6,1.1-3.2,2.1-4.9,2.9c-1.6,0.8-3.3,1.5-5.1,2.1
								l-5.1,1.8c-3.4,1.2-6.8,2.4-10.2,3.7s-6.7,2.5-9.9,3.8c-3.2,1.3-6.3,2.7-9.3,4.3c-2.8,1.5-5.4,3.2-7.8,5.3
								c-2,1.6-3.6,3.6-4.7,5.8l-0.3,0.7l-0.2,0.6c-0.1,0.3-0.1,0.6-0.2,0.9c0,0.1,0.1,0,0-0.4c-0.1-0.6-0.3-1.1-0.6-1.6
								c-0.2-0.4-0.5-0.7-0.8-1c-0.1-0.1,0,0,0.3,0c1,0.3,2,0.5,3.1,0.6c3.2,0.3,6.5,0.4,9.7,0.3c3.5-0.1,7.2-0.3,11-0.5l11.6-0.8
								c7.9-0.4,16.1-1,25.4-0.2c5.3,0.4,10.5,1.6,15.4,3.6c3.2,1.3,6.2,3.2,8.9,5.5c3.1,2.7,5.7,6,7.5,9.7
								c3.3,8.3-0.7,17.8-9.1,21.1c-8.1,3.2-17.2-0.5-20.8-8.4c0.3,0.2,0.7,0.5,0.9,0.4s0-0.5-0.6-0.9c-2-1.3-4.3-2.2-6.6-2.7
								c-3.2-0.7-6.5-1.3-9.7-1.6c-3.5-0.4-7.1-0.6-10.8-0.7l-11.4-0.3c-3.9-0.1-7.9-0.1-12-0.4c-4.4-0.2-8.9-0.7-13.2-1.5
								c-2.7-0.5-5.4-1.3-8-2.4c-1.7-0.7-3.3-1.7-4.7-2.8c-1.9-1.4-3.5-3.1-4.7-5.1c-1.3-2.1-2.2-4.5-2.6-7c-0.3-2-0.3-4.1,0-6.2
								c0.3-1.6,0.7-3.2,1.2-4.7c0.2-0.7,0.5-1.4,0.8-2.1s0.6-1.3,0.9-2c2.4-4.6,5.6-8.7,9.4-12.2c3.3-3.1,6.8-6,10.5-8.6
								c3.5-2.5,7.1-4.7,10.9-6.8c7.2-4,14.8-7.2,22.6-9.7c1.9-0.6,3.9-1.2,5.8-1.7c1.9-0.6,3.9-1,5.9-1.2c2.1-0.2,4.1-0.3,6.2-0.1
								c1.1,0.1,2.2,0.2,3.2,0.5c1.2,0.2,2.3,0.5,3.4,1c4.5,1.6,6.9,6.5,5.4,11.1c-0.3,0.8-0.7,1.6-1.2,2.4L1465.2,534z"/>
							<path d="M1588.8,577.5c1.1,1.6,1.9,3.4,2.5,5.2c0.5,1.7,0.8,3.4,1,5.1c0.2,1.7,0.2,3.3,0,5c-0.1,1.7-0.3,3.3-0.5,5
								c-0.8,6.6-2,13.2-3.6,19.7c-1.6,6.6-3.5,13.1-5.8,20c-0.6,1.8-1.2,3.5-2,5.4c-0.9,2.2-1.9,4.3-3.2,6.3l-0.6,0.9l-0.6,0.8
								c-0.4,0.5-0.9,1.1-1.4,1.7c-0.6,0.6-1.2,1.2-1.9,1.8c-0.8,0.7-1.7,1.3-2.7,1.9c-1.2,0.7-2.5,1.2-3.9,1.5
								c-1.6,0.4-3.2,0.5-4.8,0.4c-1.5-0.1-3-0.5-4.3-1c-1.1-0.4-2.2-1-3.2-1.6c-1.4-0.9-2.7-2-3.8-3.2c-0.9-0.9-1.7-1.8-2.4-2.8
								c-1.4-1.8-2.4-3.4-3.4-4.9c-2-3.1-3.7-5.9-5.3-8.7s-3.2-5.3-4.9-7.8c-1.6-2.3-3.3-4.6-5.1-6.8c-3.5-4.1-7.3-7-10.5-8.2
								c-1.4-0.5-3-0.7-4.5-0.6c-1.6,0.1-3.1,0.5-4.6,1.2c-8.4,3.5-18.1-0.5-21.6-8.9s0.5-18.1,8.9-21.6l0,0c1.5-0.6,3-1,4.6-1.2
								l2.2-0.2c4.9-0.5,9.9-0.3,14.7,0.6c4.9,1,9.6,2.8,13.8,5.4c3.8,2.4,7.3,5.2,10.4,8.5c2.7,2.9,5.2,6.1,7.4,9.4
								c2,3.1,3.9,6.2,5.6,9.5c1.7,3.1,3.2,6.2,4.6,9.1s2.8,5.8,4.1,8.3c0.7,1.2,1.3,2.4,1.9,3.2c0.3,0.4,0.5,0.8,0.7,1
								s0.2,0.2-0.2,0c-0.9-0.5-1.9-0.9-3-0.9c-0.8-0.1-1.6,0-2.4,0.2c-0.6,0.1-1.1,0.4-1.6,0.7c-0.2,0.1-0.5,0.3-0.7,0.5
								c-0.1,0.1-0.1,0.2-0.1,0.1l0.2-0.2l0.2-0.2V637c0.5-0.7,0.9-1.5,1.2-2.4c0.5-1.2,0.9-2.5,1.2-3.7c0.8-2.8,1.4-5.7,1.8-8.6
								c0.5-3,0.8-6.1,1.2-9.2c0.6-6.2,1.3-12.5,2.2-18.7c0.2-1.6,0.5-3.1,0.8-4.7c0.2-1.6,0.6-3.1,1.1-4.7c0.5-1.6,1.2-3.1,2-4.6
								c0.9-1.6,2.1-3.1,3.4-4.4l0.4-0.4c3.9-3.6,10-3.4,13.6,0.6l0,0C1588.2,576.8,1588.5,577.1,1588.8,577.5z"/>
							<path class="st2" d="M1573.3,580.2c-3.7-5.8-6.2-12.2-7.6-18.9c-2.2-11.2,9-19,10-14s10.1,28.2,10.1,28.2L1573.3,580.2z"/>
							<path class="st1" d="M1471.7,934.2c2.6,10.4,5.3,40,5.3,40h6.1v-18.8"/>
							<path class="st1" d="M1475.6,914.6c-3.6,5.9-5.1,12.8-4,19.7c1.8,11.3,24.2,42,38.7,42h10.5c2,0,3.8-1.3,4.6-3.1
								c2.3-5.4-1.7-15.9-10.7-16.4c-5.3-14.5-13.2-22.5-17.9-32.6"/>
							<path class="st1" d="M1453.7,713l21.3,96.3c0,0-21.3,39.6,4.9,99.6c-12.4,12.6,0.2,23.8,0.2,23.8s33.8,34.4,28.8,12.1
								c-5.7-9.7-9.1-20.5-9.8-31.7c-4.5-58.7,11.6-154.7,11.6-154.7L1453.7,713z"/>
							<path class="st1" d="M1422.6,914.6c-4,5.7-5.6,12.8-4.4,19.7c2,11.3,12.5,42,28.5,42h11.6c2.2,0,4.1-1.2,5.1-3.1
								c2.6-5.4,0.4-12.3-5.5-16.4c-2.8-11.3-10.8-23.3-12-32.6"/>
							<path class="st1" d="M1424.9,758.5l4.5,50.9c0,0-22,32.8-3,96.8c-8.2,13.8-1.5,20.5,0.2,24.3c5,10.9,24.8,31.3,22.3,13.8
								c-9.2-63.1,31.5-231.3,31.5-231.3L1424.9,758.5z"/>
							<path class="st2" d="M1455.7,660.3c0,0-47.8,30.2-30.8,98.2h85.9c0,0,10.4-48.3-6.6-92.5
								C1475.1,672.6,1455.7,660.3,1455.7,660.3z"/>
							<path class="st1" d="M1457.9,956.7c0,0-11.2-3.1-19.2,1.9"/>
							
								<ellipse transform="matrix(0.2002 -0.9798 0.9798 0.2002 606.7166 1950.8505)" class="st15" cx="1498.2" cy="603.8" rx="24.9" ry="37.1"/>
							<path class="st2" d="M1488.2,578.4l22.6-31l15.3,4.3l-12.1,35.2c0,0,37.8,28.8-7.9,22.3
								C1457.9,602.4,1488.2,578.4,1488.2,578.4z"/>
							
								<ellipse transform="matrix(0.1331 -0.9911 0.9911 0.1331 784.4589 1974.9004)" class="st2" cx="1521.2" cy="539" rx="27.5" ry="40.4"/>
							<path class="st2" d="M1554.3,544.9c-2.9,7.9-11.8,12-18.7,9.5s-9.3-10.7-6.4-18.6s10-12.7,16.9-10.1S1557.2,537,1554.3,544.9
								z"/>
							<path class="st2" d="M1532.6,537c-2.9,8-11.8,12-18.7,9.5s-9.3-10.7-6.4-18.6s10-12.7,16.9-10.1S1535.5,529,1532.6,537z"/>
							<path class="st16" d="M1514,608.9c0,0-1.5-7.2-5.7-12.2"/>
							<path class="st16" d="M1533.6,513.7c0,0,19.3-33.2,36.2-47.4c1.1-0.9,2.7-0.3,2.3,1.1l-16.8,61"/>
							<path class="st16" d="M1492.6,518.4c3.8-5,11.7-30.6,44.4-60.7c1.1-1,2.7-0.3,2.3,1.1l-15.3,54.9"/>
							<path class="st1" d="M1483.5,534.6c-2.9,2.4-6.2,4.3-9.7,5.6c-10,3.9-25.4-1-26-9.8c-0.5-7.5,6.7-28.2,55.7-26.2
								c7.1,0.3,5.9,7.7,0.7,7.2c-6.8-0.6-15.1,2.8-15.1,2.8"/>
							<path class="st1" d="M1483.6,511.1c0,0,10.7,0.8,12.3,9.5c1.7,8.8-5.9,10.9-5.9,10.9"/>
							<path class="st1" d="M1479.6,533c0,0,6.1,8.5,10.2,1.5s0.7-17.7-8.2-16.2"/>
							<path class="st1" d="M1480.4,527.6c0,0,7.3,0.3,5.8,8.6c-1.6,8.6-9.3,6.8-8,3.2c1.7-4.9-2.2-3.6-2.2-3.6"/>
							<path class="st13" d="M1529.4,549.9c-0.5,1.5-4.5,3.3-5.3,3.1s-3.1-4.1-2.6-5.6s2.4-1.4,4.6-0.7S1529.8,548.4,1529.4,549.9z"
								/>
							<path class="st11" d="M1511.1,551.7c3.8,1.1,6.3,3.6,5.8,5.5"/>
							<path class="st1" d="M1580.6,569c7.1-5.4,13.4-6.7,20.6-19.3c3.5-6.1,8.2-3.6,8.2,3.9c0,14.3-14.6,27.6-25.3,29.2
								c-4.4,0.6-9.8-1.6-9.4-6"/>
							<path class="st4" d="M1527.2,533.9c-0.6,2.7-1.9,5.3-3.7,7.5c-1.5-5.5-0.3-11.5,3.4-15.9
								C1527.7,528.2,1527.8,531.1,1527.2,533.9z"/>
							<path class="st4" d="M1549.5,541.8c-0.6,2.8-1.9,5.3-3.7,7.5c-1.5-5.5-0.3-11.5,3.4-15.9C1550,536.1,1550.1,539,1549.5,541.8
								z"/>
							<path class="st17" d="M1524.8,511.9c7.4,1,14.2,3.3,23,9"/>
							<path class="st2" d="M1565.5,552.9c8.9-12.2,14.6-26.1,18.4-39.4c3.9-13.5,18.4-6.2,15.7,5.7c-3.3,14.5-13.4,36.2-23.7,46.4
								C1567.4,573.9,1558.5,562.5,1565.5,552.9z"/>
							<path class="st1" d="M1563,564.9c13-16.1,24.6-41,28.9-60.9c1.7-7.8,13.5-5.3,11.8,2.4c-4.6,21-18.3,49.6-31.9,66.6
								C1566.7,579.2,1558,571.1,1563,564.9z"/>
							<path class="st2" d="M1574,559.6c7.5-8.8,16.7-29.5,20-40.9c4.6-16.1,18.3-9.9,16.6,2.2c-2,14.8-14.1,39.1-23.5,50.2
								C1579.3,580.1,1566.3,568.6,1574,559.6z"/>
							<path class="st1" d="M1514.7,956.7c-6.4,0.5-8.4,1.9-8.4,1.9"/>
							<path d="M1500.7,672.9c2.2,6.3,3.9,12.8,5,19.5c1.2,6.6,2,13.3,2.5,20c0.1,1.7,0.1,3.3,0.2,5l0.1,2.5v7.5l-0.2,5l-0.1,2.5
								c-0.1,0.8-0.1,1.7-0.2,2.5l-0.4,5c-0.3,3.3-0.8,6.7-1.2,10h-0.4c-0.4-3.4-0.4-6.8-0.6-10.1l-0.2-5c0-0.8,0-1.7,0-2.5
								l-0.1-2.5c-0.1-1.7-0.2-3.3-0.2-5l-0.3-4.9c-0.1-0.8,0-1.6-0.1-2.5l-0.1-2.5l-0.3-4.9l-0.3-4.9c-0.1-1.6-0.3-3.3-0.4-4.9
								s-0.2-3.3-0.4-4.9l-0.4-4.9c-0.7-6.6-1.4-13.1-2.3-19.9L1500.7,672.9z"/>
						</g>
						<g>
							<g>
								<ellipse class="st18" cx="160.2" cy="487" rx="30.7" ry="38.8"/>
								<ellipse class="st18" cx="233.6" cy="470.4" rx="43.8" ry="55.4"/>
								<ellipse class="st18" cx="174" cy="487" rx="30.7" ry="38.8"/>
								<ellipse class="st18" cx="247.5" cy="470.4" rx="43.8" ry="55.4"/>
								<g>
									<path class="st18" d="M193.9,478.1c3.7,14.7-2.2,30.5-13.2,35.5l-4-15.7c-1.5-6,0.9-12.5,5.4-14.5L193.9,478.1z"/>
									<path class="st18" d="M167.3,460.5c11-4.9,22.9,2.9,26.6,17.6l-11.8,5.3c-4.5,2-9.3-1.2-10.8-7.2L167.3,460.5z"/>
									<path class="st18" d="M167.3,460.5l4,15.7c1.5,6-0.9,12.5-5.4,14.5l-11.8,5.3C150.5,481.3,156.4,465.4,167.3,460.5z"/>
									<path class="st18" d="M180.7,513.6c-11,5-22.9-2.9-26.6-17.6l11.8-5.3c4.5-2,9.3,1.2,10.8,7.2L180.7,513.6z"/>
								</g>
								<g>
									<path class="st18" d="M215.5,486.5c6.8,23,26.6,34.5,44.3,25.7l-9.2-31.2c-1.7-5.8-6.7-8.7-11.1-6.5L215.5,486.5z"/>
									<path class="st18" d="M235.2,428.7c-17.7,8.9-26.5,34.8-19.7,57.8l23.9-12c4.4-2.2,6.7-8.8,5-14.5L235.2,428.7z"/>
									<path class="st18" d="M235.2,428.7l9.2,31.2c1.7,5.8,6.7,8.7,11.2,6.5l23.9-12C272.7,431.3,252.8,419.8,235.2,428.7z"/>
									<path class="st18" d="M259.8,512.1c17.7-8.9,26.5-34.7,19.7-57.8l-23.9,12c-4.4,2.2-6.7,8.8-5,14.5L259.8,512.1z"/>
								</g>
							</g>
							<g>
								<polygon class="st13" points="253.1,542.4 281.3,518.6 319.5,518.6 								"/>
								<polygon class="st13" points="253.1,575.6 281.3,599.2 319.5,599.2 								"/>
								<g>
									<rect x="223.2" y="724" class="st18" width="13.3" height="69"/>
									<path class="st18" d="M223.3,793.1h13.2l-45.4,195.4c-0.3,1.3-2.6,2.2-3.9,2.2l0,0c-1.8,0-4-1.1-3.6-2.9L223.3,793.1z"/>
									<path class="st18" d="M236.7,793.1h-13.5l108.3,200.1c1.2,1.4,2.9,2.3,4.6,2.7l0,0c1.7,0,3-1.3,3.1-2.9
										c0-0.5-0.1-1-0.4-1.5L236.7,793.1z"/>
									<path class="st18" d="M223.2,793.1h12.7L125.7,994.3c-0.5,1-1.6,1.6-2.7,1.6l0,0c-1.7,0-3-1.3-3.1-2.9c0-0.5,0.1-1,0.4-1.5
										"/>
									<ellipse cx="212.3" cy="995.7" rx="140.3" ry="8"/>
								</g>
								<polygon class="st18" points="320.9,518.6 320.9,600.3 270,583.5 270,539.9 								"/>
								<rect x="149.7" y="522.2" class="st18" width="120.6" height="74.6"/>
								<rect x="218.6" y="596.8" class="st18" width="22.1" height="10"/>
								<rect x="138.8" y="522.2" class="st18" width="46.9" height="74.6"/>
							</g>
							<g>
								<line class="st19" x1="469.8" y1="870.7" x2="497.3" y2="995.2"/>
								<line class="st19" x1="412" y1="870.7" x2="375.5" y2="995.2"/>
								<path class="st13" d="M671.5,872.2c0,0,25.2-44,46.2-47.8s22,13,6.1,30.9c-10.9,12.5-21,25.6-30.4,39.2l-8.4,3.9l3.2,6
									c0,0-5.7,16.6-15.5,15.1s-14.5-19.7-14.5-19.7"/>
								<path class="st13" d="M709.3,758.1c6.8-21.8-3.1-51.3,4.2-63c9.8-15.7,25-5,27.5,13.1s1.2,35.9-2.8,54c-2,3-4.3,5.8-6.5,8.7
									c1.9,1.2,3.7,2.1,5.6,3.3c0.2,7,1.3,17.8-6.1,21.3s-16.9-2.7-22.1-7.8"/>
								<path class="st13" d="M469.3,870.8c0,0-179.2,19.3,65.7,17.7c57.1-0.4,67.7-17.7,67.7-17.7H469.3z"/>
								<path class="st1" d="M424.5,707.6c-43.3,1.3-52.4-104.2-33.5-164.9c-7.1-8.9-18.5-9.5-28.1-10.5
									c-21.5,55.9-31.3,138.9,20.3,212.4c32.5,46.4,11.5-17.8,28.7-15"/>
								<circle class="st13" cx="474.5" cy="655" r="4.7"/>
								<polyline class="st19" points="369.2,752.5 383.6,870.7 491.6,870.7 								"/>
								<path class="st13" d="M383.6,870.8c0,0,8.6,17,65.7,17s67.7-17,67.7-17H383.6z"/>
								<path class="st1" d="M409.3,848.8l140.5-38.6c7.7-2.1,15.9-1.5,23.2,1.9l96.8,44.9c8.5,3.3,11.6,13.1,7.2,21.2l-7.3,13.6
									c-3.7,6.8-12.5,9.5-19.7,6.7l-100.7-40.2L459,888.7"/>
								<path class="st1" d="M451.3,891c41.5,5.2,144.8-72.6,144.8-72.6L719.8,800c5-16,1.4-33.5-9.6-46.2l-117.8,14.5
									c-7.7,0.9-15.1,3.4-21.7,7.3l-86.2,50.2c0,0-2,16.3-8.1,24.2s-61.5,9.5-76.1,5.5c0,0,9.6,44.9,35.6,31.3
									C436,886.8,439.8,889.5,451.3,891z"/>
								<path class="st1" d="M412,708.4c5.2-1.7,10.6-2.8,16-3.4c6.3-0.7,12.7-1,19.1-1c34.3,0,40.3,33.9,44.5,66.6
									c7.5,58.4,7.5,77.4-8.9,88.6c-10.6,7.3-72.3,8.7-82.3-3.8c0,0-14.6-46.4-17.3-95.6c-0.5-7.3,0-14.7,1.6-21.8"/>
								<path class="st13" d="M510.6,820.5c0,0-33.4,3.5-75.9,3.5c-27.1,0-57.4-3.5-57.4-3.5l-8.1-68c18.5,2.2,37.1,3.3,55.6,3.4
									c40.7,0,77.7-3.4,77.7-3.4L510.6,820.5z"/>
								<polyline class="st19" points="502.5,752.5 516.9,870.7 624.9,870.7 								"/>
								<path class="st1" d="M383.8,487.4c0,0,3.7-7.7,6.7-13.8c6.2-12.5,13.7-2.4,9.7,5.6c-1.5,3-12.3,25.9-12.3,25.9"/>
								<path class="st1" d="M390.5,512.4c4.8,1.4,1.3-11.1,9.7-8.1c6.6,2.3,7.2,18.6-13.8,23.6c-5.3,1.2-1.3,9.1-1.3,9.1
									s-10.5,2-15.7-3.2l0.4-5.4c0,0-2.8-12.6-2.2-19.8c1.1-13.6,10.9-9.4,16.3-21.3"/>
								<polygon class="st1" points="400.1,503.9 358.5,480.3 366.5,469.9 402.5,500 								"/>
								<path class="st1" d="M386.4,500.9c0,0,11.3-23,15.2-28.6s10.2-0.2,8.4,5.4c-1,3.1-19.5,34.8-19.5,34.8"/>
								<path class="st1" d="M526.1,688c0,0-4.6-21.3,17.6-22.1c13.5-0.4,19.4,7.5,19,14.2c-0.5,9.3-5.4,35.1-5.4,35.1
									s-4.2,11.2-21.5,4.5c-2.9-1.1-4.9-3.7-5.5-6.7l0,0L526.1,688z"/>
								<path class="st1" d="M526.3,736.1c0,0,1.7-10.3-0.7-13.1s-4.4-16.6,2.7-17.3L532,717c0,0,1.7,0.6,4.2,1.2
									c8.9,2.2,18.1-2.7,21.1-11.4c0.5-1.8,1.3-3.5,2.4-5c2.6-2.7,9.6,6.6,7.1,19.6s-21.7,20.7-21.7,20.7"/>
								<path class="st1" d="M455.7,704.8c68.8-4.3,71.4,75.5,72,96.8c0,0-0.1-5.9-1.6-21.9c-1.3-14.5-4.5-23.7-4.5-23.7l2.9-21
									c0,0,31.9-2.7,30.8,11.4c-1.3,15.9-2,77-18.8,89.1c-5,3.5-19.3,3.6-24.2-0.9c-25.4-23.2-36.5-97.2-36.5-97.2"/>
								<path class="st11" d="M538.4,672l-1.6-23.2c-0.4-5.7-3.6-10.9-8.6-13.8l-11.6-6.7"/>
								
									<ellipse transform="matrix(0.9968 -8.037008e-02 8.037008e-02 0.9968 -52.3027 45.8102)" class="st8" cx="542.9" cy="672.6" rx="8" ry="2.2"/>
								<line class="st19" x1="530.9" y1="870.7" x2="506" y2="995.2"/>
								<line class="st19" x1="602.6" y1="870.7" x2="630.2" y2="995.2"/>
								<path class="st1" d="M410.7,621.5c0,0-9.2-64-8-82.6s20.4-22.7,23.6-7.1c1.8,8.8,4.9,95.4,4.9,95.4"/>
								<path class="st1" d="M412,708.4l3.2-14.6c0,0-20.7-28.1-20.6-46.6c0-26.3,20-30.4,35.8-31s44.1,33,44.1,46.1
									s-8.4,18-18.8,27.1s9.1,16.1,9.1,16.1S446.7,717,412,708.4z"/>
								<path class="st13" d="M391.6,633.2c-0.9-3.5,3.5-19.8,9.8-26.1c15-14.6,58.7-8.9,62.8-3.3c8.1,11.1-31.5,10.5-41.9,18.4
									C413.6,628.8,394.5,644.5,391.6,633.2z"/>
								<path class="st1" d="M426.2,626.1c0,0,2.5-64.7,12.4-89.9c8.2-21,33.8-17.7,27.9,0.7c-10.9,33.9-18.9,91.9-18.9,91.9"/>
								<path class="st11" d="M526.1,688c0,0,10.3,4.4,21.2,2"/>
								<path class="st20" d="M555.8,687.8c2.7-0.8,5.1-2.4,6.8-4.7"/>
								<polygon class="st1" points="413.9,794.9 406.4,799.6 407.2,789.5 400.4,782.4 409,780.9 412.3,771.7 416.8,780.9 
									425.6,782.4 419.8,789.5 422,799.6 								"/>
								<ellipse cx="492.8" cy="995.5" rx="175.5" ry="8.2"/>
								
									<ellipse transform="matrix(0.5219 -0.853 0.853 0.5219 -233.912 534.6418)" class="st21" cx="360" cy="476" rx="6" ry="4.3"/>
								<path d="M598.5,812c9.4-2.6,18.9-4.6,28.4-6.4c4.8-1,9.5-1.7,14.3-2.5s9.6-1.5,14.3-2.2s9.6-1.3,14.4-1.8s9.6-1.1,14.5-1.5
									c9.6-0.9,19.3-1.6,29.1-1.7l0,0c0.1,0,0.2,0.1,0.2,0.2l0,0c0,0.1-0.1,0.2-0.2,0.2l-57.5,8.2l-57.5,7.9
									c-0.1,0-0.2-0.1-0.2-0.2C598.4,812.1,598.4,812,598.5,812L598.5,812z"/>
								<path d="M428,875.8c2.5,2.2,5.4,3.9,8.5,4.9c1.5,0.5,3.1,1,4.6,1.3c0.8,0.2,1.6,0.3,2.4,0.4s1.6,0.2,2.4,0.3
									c1.6,0.1,3.2,0.2,4.8,0.3h2.4l2.4-0.1c3.2-0.2,6.5-0.5,9.7-1.1c1.6-0.2,3.2-0.5,4.9-0.8s3.2-0.7,4.9-1.1
									c3.3-0.7,6.5-1.6,9.7-2.4c6.5-1.7,13-3.7,19.8-5.3V872c0.1,0,0.2,0.3,0.2,0.4c0,0.1,0,0.2-0.1,0.2c-6.2,3-12.5,5.6-18.9,7.9
									c-6.4,2.3-13.1,4.1-19.8,5.3c-6.8,1.2-13.7,1.2-20.5,0.1c-3.4-0.6-6.7-1.7-9.8-3.3c-3.1-1.5-5.8-3.8-7.9-6.6
									c-0.1-0.1,0-0.2,0-0.3l0,0C427.7,875.7,427.8,875.7,428,875.8L428,875.8z"/>
								<path d="M433,883.5c-1.2,0.8-2.6,1.4-4,1.7s-2.8,0.3-4.2-0.1c-2.5-0.6-4.7-1.8-6.6-3.5c-1.8-1.5-3.4-3.2-4.8-5.1
									c-1.4-1.8-2.7-3.7-3.8-5.7c1.5,1.7,3,3.4,4.7,4.9c1.6,1.5,3.4,2.8,5.4,3.9c1.7,1.1,3.7,1.7,5.7,1.9c1.7,0.1,3.4-0.6,4.6-1.9
									c1-1,2.6-0.9,3.5,0.1c1,1,0.9,2.6-0.1,3.6C433.3,883.3,433.1,883.4,433,883.5L433,883.5z"/>
								<polyline points="546.3,851.8 651.2,894 551.2,849.2 								"/>
								<path class="st1" d="M550.7,671.6c-0.8,1.5-2.7,2.1-4.2,1.3c-0.8-0.4-1.4-1.2-1.6-2.1c-1.2-5.9-2.2-13.8-0.5-20.1
									c3.2-11.5,7.2-5.1,7.2-5.1s7.3-25.3,15-25.1s-4.3,21-4.3,21s7.9-1.8,4.7,5.4C564.4,652.7,556.7,660.8,550.7,671.6z"/>
							</g>
							<line class="st22" x1="229.9" y1="722.6" x2="229.9" y2="598.7"/>
						</g>
						<g>
							<g>
								<ellipse cx="1052.3" cy="952.3" rx="286.3" ry="6.4"/>
								<g>
									<path d="M778.5,834.3c0.5-1.4,0.8-2.6,1.3-3.8s1-2.3,1.6-3.4c1.1-2.1,2.4-4.2,3.8-6.1c2.8-3.7,6-7.1,9.7-10
										c1.8-1.4,3.6-2.9,5.8-3.6c1.2-0.4,2.4-0.6,3.6-0.6c1.3,0,2.5-0.1,3.8,0c2.4,0.1,4.8-0.2,7.1-0.9l6.2-2.7
										c8.5-3.8,17.3-6.9,26.3-9.4c4.8-1.3,9.6-2.2,14.5-2.7c5.1-0.5,10.2-0.5,15.3,0c10.4,1.1,20.5,4.7,29.3,10.3
										s16.5,12.6,22.9,20.9c5.8,7.7,10.7,16.1,14.6,25c3.8,8.4,6.8,16.8,9.5,24.8s5.3,15.8,8,23c1.4,3.6,2.8,7,4.4,10.2
										c1.4,3,3.1,5.8,5,8.5c1.6,2.3,3.4,4.3,5.5,6.1c1.9,1.6,4,2.8,6.3,3.7c2.6,1,5.2,1.6,8,1.8c0.7,0.1,1.5,0.1,2.3,0.2
										s1.5,0,2.2,0c1.3,0,2.7-0.1,4-0.4c2.5-0.4,4.9-1.2,7.1-2.3c2.4-1.3,4.6-2.9,6.6-4.9c4.3-4.2,8.3-10.2,12.2-16.9
										c3.9-6.7,7.6-14.2,12-22c2.2-3.9,4.6-7.8,7.3-11.8c2.9-4.2,6.1-8,9.7-11.6c3.9-3.9,8.5-7.2,13.4-9.8
										c5.1-2.6,10.5-4.4,16.2-5.2c2.7-0.4,5.4-0.6,8.2-0.5c1.3,0,2.7,0.1,4,0.1s2.7,0.2,4.1,0.5c5.7,0.8,11.2,2.6,16.2,5.4
										c4.9,2.7,9.3,6.2,13,10.3c3.4,3.7,6.4,7.8,9,12.2c4.9,8.3,8.3,16.5,11.5,24.4s6.1,15.4,9.3,22.2s7.1,12.4,11.4,15.5
										c2.1,1.5,4.5,2.5,7,3c0.3,0.1,0.7,0.1,1,0.2c0.3,0,0.7,0.1,1,0.1c0.7,0,1.4,0.1,2.1,0.1c1.2,0,2.5-0.1,3.7-0.4
										c2.5-0.6,4.8-1.9,6.7-3.6c2.5-2.2,4.7-4.8,6.5-7.6c4.2-6.1,8-13.5,12.7-21c2.4-3.9,5-7.7,7.9-11.3c3.2-3.9,6.9-7.4,11-10.2
										c4.4-3,9.4-5.1,14.6-6.1c2.5-0.5,5.1-0.8,7.7-0.8h1.9c0.7,0,1.5,0.1,2.2,0.1c4.5,0.4,8.8,2,12.5,4.5
										c2.2,1.5,4.3,3.3,6.1,5.3c3.2,3.6,5.9,7.6,8.2,11.8c4.3,8,7.4,15.9,10.6,23.5c1.6,3.8,3.2,7.5,5,10.9
										c1.5,3.2,3.5,6.2,5.8,8.9c0.9,1,2,1.9,3.1,2.5c1,0.5,2,0.8,3.1,0.8c2.3,0.1,5.4-1.1,8.4-3.1c3.2-2.1,6.1-4.5,8.8-7.2
										c2.8-2.7,5.5-5.7,8.1-8.8l0,0c1.9-2.2,5.2-2.4,7.4-0.6c2.1,1.8,2.4,4.9,0.8,7.1c-2.6,3.4-5.3,6.8-8.3,10
										c-3.1,3.4-6.4,6.5-10.1,9.2c-2,1.5-4.2,2.7-6.5,3.8c-2.6,1.2-5.4,1.8-8.2,2c-3.1,0.1-6.2-0.5-9-1.8
										c-2.5-1.2-4.9-2.9-6.9-4.8c-3.4-3.4-6.2-7.3-8.5-11.5c-2.2-3.9-4.1-7.8-6-11.6c-3.6-7.6-7-15.1-10.9-21.7
										c-1.8-3.1-3.9-5.9-6.4-8.5c-1.8-2-4.2-3.4-6.8-4.1c-0.6-0.1-1.1-0.2-1.7-0.2c-0.3,0-0.6,0-0.9,0l-1.2,0.1
										c-1.6,0.1-3.2,0.4-4.7,0.8c-3,0.7-5.7,2.1-8.2,3.9c-5,3.7-9,9.8-12.8,16.7s-7.2,14.6-12.2,22.5c-2.6,4.3-5.8,8.2-9.3,11.7
										c-2,1.9-4.3,3.7-6.7,5.2c-2.5,1.5-5.3,2.8-8.1,3.6c-2.8,0.8-5.7,1.3-8.6,1.5c-1.4,0.1-2.8,0.1-4.2,0
										c-0.7,0-1.4-0.1-2.1-0.1s-1.4-0.1-2.1-0.2c-5.7-0.8-11.2-2.8-16.1-6c-4.5-3-8.5-6.7-11.8-11c-3-3.8-5.6-7.9-7.9-12.1
										c-4.4-8.1-7.7-16-11.1-23.5s-6.7-14.6-10.5-20.5c-1.8-2.8-3.8-5.4-6.1-7.7c-1.9-2-4.2-3.7-6.7-4.9
										c-2.4-1.1-4.9-1.9-7.5-2.1c-2.9-0.3-5.8-0.2-8.6,0.3c-5.4,1-9.7,3.5-14,8s-8,10.6-11.7,17.4s-7.1,14.5-11.3,22.3
										c-2.1,3.9-4.4,8-7,12c-2.8,4.3-6,8.2-9.5,11.9c-3.9,4.1-8.3,7.5-13.2,10.3c-5.1,2.9-10.6,4.9-16.3,6
										c-2.8,0.5-5.6,0.9-8.4,1c-1.4,0.1-2.8,0.1-4.1,0.1s-2.6,0-4-0.1c-5.6-0.3-11.2-1.4-16.5-3.2c-2.8-1-5.5-2.2-8.1-3.6
										c-2.6-1.4-5-3.1-7.3-4.9c-4.4-3.5-8.3-7.5-11.6-12c-3-4.1-5.7-8.4-8-12.9c-2.2-4.3-4.1-8.5-5.8-12.7
										c-3.4-8.3-6.2-16.4-9-24.1s-5.6-15-8.8-21.7c-2.9-6.4-6.6-12.4-10.9-17.9c-3.9-4.9-8.7-9.1-14.1-12.4
										c-2.7-1.6-5.5-3-8.3-4.2c-2.9-1.3-5.8-2.4-8.8-3.3c-3.1-1-6.3-1.8-9.6-2.4c-3.4-0.6-6.9-0.9-10.4-1
										c-7.4,0-14.7,1.3-21.7,3.8c-1.8,0.6-3.6,1.3-5.3,2.1c-1.8,1.1-3.3,2.6-4.2,4.4l-1.8,2.8c-0.5,0.9-1.2,1.6-1.9,2.3
										c-1.4,1.3-3.2,1.9-5,2.7c-3.7,1.5-7.4,2.7-11.2,3.6c-2,0.5-4.1,1-6.2,1.3c-1.1,0.2-2.2,0.3-3.3,0.5
										c-1.2,0.2-2.3,0.2-3.5,0.2l-1.9-0.1c-4-0.2-7.1-3.6-6.9-7.7l0,0C778.2,835.4,778.3,834.9,778.5,834.3z"/>
									<path d="M1339.4,926.6c-5.6,0.8-13.1-2.5-17.6-5.7c9.2,0.1,18.7-1.7,26.8-6.5c-2.5,9-1.1,18.6,1.1,27.6
										C1345.2,938.1,1340.4,932.6,1339.4,926.6z"/>
								</g>
								<path class="st12" d="M907.2,808.8c5.6,3.8,10.6,8.3,14.9,13.5c4.3,5.3,8,11,11.1,17s5.9,12.2,8.2,18.5
									c2.4,6.3,4.5,12.7,6.6,19s4.1,12.7,6.5,18.8c2.2,6.1,5,12,8.4,17.6c3.3,5.5,8,10.1,13.5,13.4c2.8,1.6,5.9,2.7,9.1,3.4
									c0.8,0.2,1.6,0.3,2.4,0.5l2.5,0.3l2.5,0.2l2.5,0.1c-3.3,0.5-6.7,0.5-10.1,0.2c-6.9-0.7-13.5-3.6-18.7-8.2
									c-2.6-2.3-4.9-4.9-6.9-7.8c-4.1-5.6-7-11.8-9.6-18.1s-4.7-12.7-6.8-19s-4.1-12.7-6.3-18.9s-4.6-12.4-7.3-18.4
									s-5.9-11.8-9.6-17.2C916.5,818.3,912.1,813.3,907.2,808.8z"/>
								<path class="st12" d="M1111.3,849.5c4.7,2.1,8.9,5.1,12.6,8.7c3.7,3.6,6.9,7.7,9.5,12.1c5.4,8.8,9.2,18.3,12.8,27.7
									c1.8,4.7,3.6,9.3,5.5,13.9c1.9,4.5,4.1,8.9,6.8,13c2.6,4,6,7.5,10.1,10.2l0.8,0.5l0.8,0.4l1.6,0.8c1.1,0.5,2.3,0.9,3.4,1.4
									s2.4,0.7,3.6,1l3.7,0.7c-1.3,0-2.5,0.1-3.8,0.1s-2.6-0.2-3.8-0.4c-1.2-0.3-2.5-0.5-3.8-0.9l-1.8-0.7l-0.9-0.3l-0.9-0.4
									c-1.2-0.6-2.3-1.2-3.4-1.9c-0.5-0.4-1.1-0.7-1.6-1.1l-1.5-1.3c-2-1.7-3.8-3.6-5.4-5.7c-3.2-4.1-5.8-8.6-8-13.3
									c-2.2-4.6-4.1-9.4-5.9-14c-3.6-9.4-7-18.8-11.5-27.5c-2.3-4.4-4.9-8.5-8-12.4C1118.9,856,1115.3,852.5,1111.3,849.5z"/>
								<g>
									<path class="st23" d="M1319.4,872c0,3.7-30.3,6.7-67.8,6.7s-67.8-3-67.8-6.7H1319.4z"/>
									<path class="st23" d="M1308.6,872c0-30.7-25.4-55.6-56.9-55.6s-56.8,24.9-56.8,55.6H1308.6z"/>
									<path class="st23" d="M1258.8,810c0,3.5-3.2,6.4-7.1,6.4s-7.1-2.9-7.1-6.4H1258.8z"/>
								</g>
								<path class="st23" d="M1159.6,837.6c0,3.7-30.3,6.7-67.8,6.7s-67.8-3-67.8-6.7H1159.6z"/>
								<path class="st23" d="M938.7,785.6c0,3.7-30.3,6.7-67.8,6.7s-67.8-3-67.8-6.7H938.7z"/>
							</g>
							<g>
								<line class="st24" x1="884.3" y1="717.1" x2="891.4" y2="694.2"/>
								<polygon class="st24" points="857.2,683.5 926.9,705.7 894.8,683.5 								"/>
								<path class="st23" d="M897.5,717.6c-0.2-0.1-0.7-0.3-1.2-0.5c0-0.1,0.1-0.3,0.1-0.4c0.9-3.2-0.5-6.6-3.4-8.2
									c-2-1.3-6.3-2-8.9-1c-0.1-0.3-0.3-0.7-0.5-1c-0.9-1.5-2.2-2.8-3.7-3.6c-3.3-1.4-7-1.1-10,0.8c-0.6,0.4-3.2,2.5-2.9,2.5
									c0,0-3.2-1.7-4.3-2.1c-3.6-1.4-7.6-0.8-10.7,1.4c-1.2,0.9-2.3,2-3.2,3.2c-0.4,0.5-0.9,1.6-1.4,1.9c-1,0.6-0.4,0.1-1.5,0.3
									c-4.4,0.6-7.8-0.1-10.8,3.7c-1.5,2-1.3,6.1-2.9,7.5c-3.8,3.3-1.2,8,2.8,9.2c0.4,1,1,1.8,1.8,2.5c3.3,2.7,8.7,2.4,12.8,2
									c2.3-0.3,4.5-0.5,6.5-0.7c2.8,0.3,5.6,0.7,8.4,0.8c2.4,0.1,4.7,0.2,7.1,0.2c2.3,0.2,4.6,0.2,6.8,0c3.3-0.1,6.5-0.2,9.8-0.4
									c2,0,3.9-1.1,5-2.9c1.1-0.1,2.3-0.4,3.3-0.8C903.1,728.9,903.8,721,897.5,717.6z"/>
								<path class="st23" d="M858.2,785.6c-39,0-43.4-10.5-46-28c-2.5-17.3,15.8-34.8,15.8-34.8h77.1c0,0,9.7,15.6,10.4,39.2
									c14.5,13.1,7.8,22.1,0,17.8l2,5.8H858.2l-0.5-6.8c0,0-8,4.7-12.3,1.2c-6.6-5.5,6.4-16.8,6.4-16.8"/>
								
									<ellipse transform="matrix(0.9801 -0.1983 0.1983 0.9801 -131.8976 188.399)" class="st25" cx="874.6" cy="752.7" rx="7" ry="12"/>
								
									<ellipse transform="matrix(0.9801 -0.1983 0.1983 0.9801 -131.3898 193.2716)" class="st25" cx="899.2" cy="752.6" rx="7" ry="12"/>
								<polygon class="st26" points="886.5,773.6 896.7,773.6 888.5,761.7 								"/>
								<line class="st24" x1="868.8" y1="785.6" x2="868.1" y2="778.8"/>
								<line class="st24" x1="876.5" y1="785.6" x2="875.8" y2="778.8"/>
								<line class="st24" x1="884.1" y1="785.6" x2="883.4" y2="778.8"/>
								<line class="st24" x1="891.8" y1="785.6" x2="891" y2="778.8"/>
								<line class="st24" x1="899.4" y1="785.6" x2="898.7" y2="778.8"/>
								<line class="st24" x1="907" y1="785.6" x2="906.3" y2="778.8"/>
								<path class="st24" d="M845.8,722.8l-7.4-47c-0.5-3.2-3.5-5.4-6.7-4.9c-0.2,0-0.4,0.1-0.7,0.1l-23.6,6.6"/>
								<path class="st12" d="M871.9,742.1c1.2-0.3,2.5,0,3.5,0.6c1,0.7,1.9,1.6,2.5,2.7c2.3,4.2,3,9.2,1.9,13.9
									c-0.3,1.2-1,2.4-1.9,3.2c-0.5,0.4-1.1,0.7-1.7,0.9c-0.6,0.1-1.2,0.1-1.8,0c0.5-0.1,1.1-0.3,1.5-0.6s0.7-0.7,1-1.1
									c0.5-0.9,0.8-1.8,0.9-2.8c0.2-2.1,0.1-4.2-0.3-6.3c-0.2-2.1-0.7-4.2-1.5-6.2C875.5,744.4,874.2,742.7,871.9,742.1z"/>
								<path class="st12" d="M896.8,742.1c1.2-0.3,2.5,0,3.5,0.6c1.1,0.7,1.9,1.6,2.6,2.7c2.3,4.2,3,9.2,1.9,13.9
									c-0.3,1.2-1,2.4-1.9,3.2c-0.5,0.4-1.1,0.7-1.7,0.9c-0.6,0.1-1.2,0.1-1.8,0c0.5-0.1,1-0.4,1.5-0.7c0.4-0.3,0.7-0.7,1-1.1
									c0.5-0.9,0.8-1.8,0.9-2.8c0.2-2.1,0.1-4.2-0.3-6.3c-0.2-2.1-0.7-4.2-1.5-6.2C900.3,744.4,899.1,742.7,896.8,742.1z"/>
							</g>
							<g>
								<path class="st23" d="M1107.9,767.6c-4.7,0-9.2,1.4-13.1,4c-3.9-2.6-8.4-4-13.1-4c-14.6,0-26.4,11.6-26.4,32.4
									s21.3,36,30.9,36c3.3-0.1,6.4-1.6,8.6-4c2.2,2.4,5.3,3.9,8.6,4c9.6,0,30.9-15.2,30.9-36S1122.5,767.6,1107.9,767.6z"/>
								<path class="st23" d="M1099,746.9c-3.2,7.8-4.6,16.2-4.2,24.7c0,0-6.1-18.4-37.9-18.9c14.3,26,34.4,20.8,34.4,20.8"/>
							</g>
							<path d="M1097,827.7c1.8,1.2,4.1,1.6,6.2,1.2c2-0.4,3.9-1.3,5.5-2.5c0.9-0.6,1.7-1.3,2.5-2s1.6-1.5,2.4-2.2s1.6-1.7,2.4-2.5
								s1.6-1.7,2.3-2.5c1.5-1.6,2.9-3.3,4.2-5.1c0.6-0.8,1.2-1.7,1.8-2.6c0.5-0.9,1-1.8,1.4-2.8s0.8-2,1.1-3
								c0.3-1.1,0.6-2.1,0.8-3.2c0.5-2.2,0.7-4.6,1.2-7.1l0.4-0.1c0.4,2.4,0.6,4.8,0.7,7.2c0,2.4-0.3,4.8-1,7.2
								c-1.4,4.7-4.3,8.7-7.6,12.2c-1.6,1.8-3.4,3.4-5.2,5c-1.8,1.6-3.8,3.1-5.9,4.2c-2.1,1.2-4.5,1.9-7,1.9s-4.9-1.2-6.5-3.1
								L1097,827.7z"/>
						</g>
						<g>
							<g>
								<path class="st2" d="M1384.2,227.6c0,0,4.2-24.4,4.2-32.4s-12.3-4.5-13.3-14.7s14.2-21.1,21.4-4.1c0,0,17.5-8.6,15.9,5.4
									s-12.4,4-12.6,21s0.4,23.4,0.4,23.4"/>
								<path class="st27" d="M1392.2,87.1c4.2,0,7.6,3.4,7.6,7.6s-3.4,7.6-7.6,7.6s-7.6-3.4-7.6-7.6l0,0"/>
								<path d="M1394,102.2c0,2.7,0.1,5.5,0.2,8.2c0,1.4,0.2,2.7,0.2,4.1l0.1,2l0.1,1v0.5c0,0.1,0,0.2,0.1,0.4
									c0.2,1.9,1.7,3.4,3.7,5.2c1.1,1,2.1,2,3.1,3.1c0.6,0.6,1.1,1.3,1.6,2c0.5,0.8,0.9,1.6,1.3,2.5s0.7,1.8,0.9,2.8
									c0.2,0.9,0.3,1.9,0.3,2.8c0,2-0.3,3.9-1.1,5.8c-0.8,2-2.1,3.8-3.8,5.1c-1.7,1.4-3.7,2.3-5.9,2.6c-2.1,0.3-4.2,0.1-6.2-0.7
									c-1.8-0.7-3.5-2-4.6-3.6c-1.1-1.4-1.7-3.1-1.9-4.9c-0.2-1.6,0-3.2,0.6-4.7c0.9,1.1,1.9,2.1,2.9,3.1c0.8,0.7,1.8,1.3,2.8,1.7
									c1.4,0.5,3,0.5,4.4-0.1c1.1-0.5,1.9-1.3,2.4-2.4c0.3-0.7,0.5-1.4,0.7-2.2c0.1-0.5,0.1-0.8,0.1-1.2s0-0.8,0-1.2
									c-0.1-1.7-1.2-3.7-2.8-6.1c-0.8-1.3-1.6-2.6-2.3-4c-0.8-1.6-1.2-3.3-1.2-5.1v-0.6v-0.5l0.1-1l0.1-2c0.1-1.4,0.2-2.7,0.2-4.1
									c0.1-2.7,0.2-5.5,0.2-8.2c0.1-1,0.9-1.7,1.9-1.6C1393.2,100.7,1393.9,101.4,1394,102.2L1394,102.2z"/>
								<path class="st1" d="M1369.1,315.3c22.8,6.5,24.3,47.3,44.2,57.3c9.8,5,16.4,0.2,20.6-5.9c2.2-4.8,3.6-10,4-15.3
									c3.9-39.6-22-73.5-29.5-99.1c-8.1-27.6-8.1-27.6-9.8-26.2c-5,0.6-11.4,2.9-12.9,0.4c-0.3-0.6-1-0.8-1.6-0.5
									c-0.3,0.2-0.5,0.4-0.6,0.8c-2.4,8.6-8.4,28.3-17,40.6c-7.6,10.8-19.2,33.6-20.9,55C1348.9,317.1,1355.6,311.5,1369.1,315.3z
									"/>
								<path class="st13" d="M1413.3,372.6c-19.9-10-21.4-50.9-44.2-57.3c-13.5-3.8-20.2,1.8-23.4,7c-0.8,10.4,0.7,20.5,6.2,28.8
									c16.9,25.1,45.3,29.5,45.3,29.5s26,7.4,36.6-13.8C1429.7,372.8,1423.1,377.5,1413.3,372.6z"/>
								
									<ellipse transform="matrix(0.5989 -0.8008 0.8008 0.5989 262.3681 1245.8108)" class="st28" cx="1374.9" cy="361" rx="3.7" ry="12.4"/>
								<path d="M1422.6,367.2c1.1-0.6,2-1.4,2.8-2.3s1.5-1.8,2.1-2.9c1.1-2,1.9-4.2,2.2-6.5c0.3-2.3,0.4-4.7,0.3-7
									c0-1.2-0.2-2.4-0.2-3.6l-0.4-3.6c-1.3-9.7-3.6-19.3-6.7-28.6c-1.5-4.7-3.3-9.4-5-14l-5.3-14.1c-1.8-4.7-3.5-9.4-5.1-14.3
									c-1.7-4.8-2.8-9.8-3.6-14.9l0.4-0.1c1.3,4.8,3,9.6,5,14.2c1.9,4.6,4,9.2,6,13.9c4.1,9.2,8,18.5,11.3,28.1s5.5,19.5,6.4,29.5
									c0.3,5,0.6,10.2-0.8,15.1c-0.6,2.5-1.8,4.8-3.3,6.8c-1.5,2.1-3.6,3.7-6,4.6L1422.6,367.2z"/>
								<polyline class="st11" points="1387.8,202.2 1399.7,208.4 1393.7,141.8 1389.7,168.3 								"/>
								<path class="st11" d="M1392.2,92.6c-7.1-2.7-13.2-6-0.5-11.2V3.9"/>
							</g>
							<g>
								<path class="st1" d="M1462,122.8c5.6-6.3,16.7,2.7,11.1,10.3c-5.3,7.2-7.8,19-6.6,28s-12.5,13-14.3,4.6
									C1449,150.5,1451.8,134.3,1462,122.8z"/>
								<path class="st1" d="M1453.7,174.4c3.9-8.1,17.6-3,14,6.4c-3.4,8.9-1.7,20.3,3.3,28.3s-6.4,17.9-11.8,10.7
									C1449.4,206.7,1446.5,189.2,1453.7,174.4z"/>
								<path class="st27" d="M1472.5,66.2c4.2,0,7.6,3.3,7.6,7.5s-3.3,7.6-7.5,7.6s-7.6-3.3-7.6-7.5v-0.1"/>
								<path d="M1474.3,81.4c0,2.7,0.1,5.4,0.2,8.2c0,1.4,0.2,2.7,0.2,4.1l0.1,2l0.1,1v0.5c0,0.1,0,0.2,0.1,0.4
									c0.2,1.9,1.7,3.4,3.7,5.2c1.1,1,2.1,2,3.1,3.1c0.6,0.6,1.1,1.3,1.6,2c0.5,0.8,0.9,1.6,1.3,2.5s0.7,1.8,0.9,2.8
									c0.2,0.9,0.3,1.9,0.3,2.8c0,2-0.3,3.9-1.1,5.8c-0.8,2-2.1,3.8-3.8,5.1c-1.7,1.4-3.7,2.3-5.9,2.6c-2.1,0.3-4.2,0.1-6.1-0.7
									c-1.8-0.7-3.4-2-4.6-3.6c-1.1-1.4-1.7-3.1-1.9-4.9c-0.2-1.6,0-3.2,0.6-4.7c0.9,1.1,1.9,2.1,2.9,3.1c0.8,0.7,1.8,1.3,2.8,1.7
									c1.4,0.5,3,0.5,4.4-0.1c1.1-0.5,1.9-1.3,2.4-2.4c0.3-0.7,0.6-1.4,0.7-2.2c0.1-0.5,0.1-0.8,0.1-1.2c0-0.4,0-0.8-0.1-1.2
									c-0.1-1.7-1.2-3.7-2.8-6.1c-0.9-1.3-1.6-2.6-2.3-4c-0.8-1.6-1.2-3.3-1.2-5.1v-0.6V97l0.1-1l0.1-2c0.1-1.4,0.2-2.7,0.2-4.1
									c0.1-2.7,0.2-5.4,0.2-8.2c0.1-1,0.9-1.7,1.9-1.6C1473.5,79.9,1474.2,80.6,1474.3,81.4L1474.3,81.4z"/>
								<path class="st1" d="M1483.8,114.5c-9.3-4.4-16.3,9.9-7,14.3c8.8,4.2,13.8,15.2,10.1,24.5c-3.8,9.5,10.4,16.5,14.3,7
									C1508.1,143.1,1500.8,122.5,1483.8,114.5z"/>
								<path class="st1" d="M1495.2,166.1c-6.3-7.5-17.3,2.2-11.3,10.7c5.7,8.1,7.8,19.6,3.4,28.7s6.9,18.2,12.2,9.6
									C1509,199.6,1506.8,180,1495.2,166.1z"/>
								<path class="st1" d="M1494.8,221c-3.9-8.4-16.8-1.6-13.3,8.2c3.3,9.3,2.9,22.9-0.4,32.3c-3.3,9.5,8.9,17.6,12.7,8.9
									C1500.7,254.9,1501.9,236.4,1494.8,221z"/>
								<path class="st1" d="M1499.1,272.6c-6.1-7.9-17.3,0.6-12,9.5c5,8.5,3.7,19.7-2.5,27.3s3.1,18.9,10.1,11.7
									C1507.2,308.1,1510.3,287.1,1499.1,272.6z"/>
								<path class="st1" d="M1497.4,325.9c-6.5-7.9-19,2-12.4,9.9c6.2,7.5,6,19.7-1.3,26.5s2.4,19.4,9.9,12.4
									C1507.2,362.2,1509.4,340.5,1497.4,325.9z"/>
								<path class="st1" d="M1496.9,379.2c-5-7.9-17.4-0.1-12.5,9.3c4.6,8.9,4.6,21.4,1,30.9s8.8,17.9,12.9,9.3
									C1505.8,413,1506,393.8,1496.9,379.2z"/>
								<path class="st11" d="M1472.8,71.9c-7.1-2.7-13.2-6-0.5-11.2V4.1"/>
							</g>
						</g>
						<path class="st2" d="M265,159.7c-19.7-9.4-43.9-3.3-54.4,16.7c-2.5,4.8-4,10.1-4.4,15.5l-0.5-0.2
							c-19.7-9.4-43.9-3.3-54.4,16.7c-9.9,18.6-3,45.1,16.7,54.5c2,1,4.1,1.8,6.3,2.4c-2.9,2.8-5.3,6.1-7.2,9.7
							c-9.9,18.6-3,45.1,16.7,54.4c19.3,9.1,42.9,3.4,53.8-15.6c19.5,8.6,42.9,2.3,53.2-17.2c4.6-9,5.7-19.3,3.2-29
							c6.5-3.7,11.8-9.2,15.3-15.8c9.9-18.6,3-45.1-16.7-54.5c-2.1-1-4.3-1.8-6.5-2.5C285.9,180.4,278.4,166.1,265,159.7z"/>
						<path class="st2" d="M123.1,0.4c-10.5,17.1-13.1,39.2-3.2,57.3c15.2,27.7,48.3,41.2,77.7,27.8c15.9,27,49.2,39.7,78.4,25.4
							c13.2-6.5,23.4-18.3,28.8-31.9c11,1.2,22-0.7,31.9-5.6c25.9-12.8,40.4-46.2,29.8-73.5"/>
						<path class="st2" d="M298.1,359.6c-8.9,4.6-13.4,15.1-9.1,24.5c1.1,2.3,2.6,4.3,4.5,5.9l-0.2,0.1c-8.9,4.6-13.4,15.1-9.1,24.5
							c4,8.8,15.6,13.6,24.5,9c0.9-0.5,1.8-1,2.6-1.6c0.2,1.8,0.8,3.6,1.5,5.3c4,8.8,15.6,13.6,24.5,9s13.2-14.7,9.3-24
							c8.5-4.7,12.8-15,8.5-24.2c-2-4.2-5.5-7.4-9.7-9.2c0.5-3.4,0-6.9-1.5-10c-4-8.8-15.6-13.6-24.5-9c-0.9,0.5-1.9,1-2.7,1.7
							C311.5,357.7,304.2,356.5,298.1,359.6z"/>
					</g>
				</g>
			</g>
		</g>
	</g>
</g>
</svg>
