<svg xmlns="http://www.w3.org/2000/svg" viewBox="0 0 283.81 634.92">
  <defs>
    <style>
      .cls-1 {
        isolation: isolate;
      }

      .cls-2, .cls-4, .cls-6, .cls-9 {
        fill: #fff;
      }

      .cls-10, .cls-2, .cls-3, .cls-4, .cls-6, .cls-7, .cls-8 {
        stroke: #000;
        stroke-width: 2.6px;
      }

      .cls-2, .cls-3, .cls-6, .cls-7, .cls-8 {
        stroke-linecap: round;
      }

      .cls-2, .cls-3 {
        stroke-linejoin: round;
      }

      .cls-10, .cls-4, .cls-6, .cls-7, .cls-8 {
        stroke-miterlimit: 10;
      }

      .cls-5 {
        mix-blend-mode: multiply;
      }

      .cls-10, .cls-8 {
        fill: none;
      }
    </style>
  </defs>
  <title>illu_3_1_b</title>
  <g class="cls-1">
    <g id="Layer_2" data-name="Layer 2">
      <g id="Layer_1-2" data-name="Layer 1">
        <g>
          <g>
            <ellipse cx="99.23" cy="626.75" rx="99.23" ry="8.17"/>
            <path class="cls-2" d="M48.77,579.09C52.11,591.48,55.89,627,55.89,627h7.27L63,615.93"/>
            <path class="cls-3" d="M124,283.61a32.33,32.33,0,0,1-3.31.68c-16.73,2.49-33.71-5.4-32.54-22.24,3.74-53.69-8.15-75.19-19.24-78.35l80.87,7.12,0-.15a162.82,162.82,0,0,0-4,60.33C147.71,266.55,138.92,279.7,124,283.61Z"/>
            <path class="cls-2" d="M113.23,579.09c3.33,12.39,7.12,47.93,7.12,47.93h7.26l-.38-22.52"/>
            <path class="cls-2" d="M117.59,555.54a34.26,34.26,0,0,0-4.4,23.55c2.4,13.57,29.78,50.28,47.12,50.28h12.61a5.9,5.9,0,0,0,5.43-3.76c2.7-6.51-2.3-19.08-13.16-19.64-6.61-17.3-16.26-26.88-22.13-39"/>
            <path class="cls-2" d="M87.22,314.27l27.47,115.32S90,477,122.62,548.84c-14.65,15.11.76,28.5.76,28.5s41.16,41.24,34.76,14.53a87.83,87.83,0,0,1-12.4-38c-6.61-70.22,10.77-185.17,10.77-185.17Z"/>
            <path class="cls-2" d="M54.16,555.54a31.78,31.78,0,0,0-4.9,23.55c2.62,13.57,15.84,50.28,35,50.28H98.17a6.55,6.55,0,0,0,6-3.76c3-6.51.21-14.74-6.93-19.64-3.54-13.51-13.46-27.9-15-39"/>
            <path class="cls-2" d="M53.65,368.71l6.43,60.88s-25.65,39.29-1.61,115.86c-9.5,16.48-1.39,24.56.79,29.15,6.2,13.08,30.36,37.45,26.93,16.49-12.35-75.52,33-276.82,33-276.82Z"/>
            <path class="cls-4" d="M88.58,251.16S32,287.32,53.65,368.71H156.51S168,310.93,146.73,258C112.05,265.87,88.58,251.16,88.58,251.16Z"/>
            <path class="cls-2" d="M97.25,606s-13.45-3.7-22.93,2.27"/>
            <ellipse class="cls-3" cx="122.71" cy="183.43" rx="44.47" ry="29.71" transform="translate(-13.43 9.74) rotate(-4.31)"/>
            <path d="M230.25,207.53c-.14,5.59.26,16.69-3.67,20.59-15,14.89-44,32.56-53.11,34A15.31,15.31,0,0,1,159,257.08c-3.31-4-4.14-9.34-4.19-14.45-.05-5.66.6-11.35,1-17a85.18,85.18,0,0,0-.14-17.49c-.63-4.55-2-9.76-5.72-12.72-2-1.58-4.32-2-6.73-2.68a15.83,15.83,0,0,1-5.57-2.81,16.12,16.12,0,0,1-6-10.58,17.18,17.18,0,0,1,14-18.82c4.3-.74,8.19.42,11.89,2.45a49.88,49.88,0,0,1,11.93,8.81c7.92,8.16,11.73,19.08,12.36,30.43.66,11.85-1.79,23.51-3.56,35.22-.2,1.3-.37,2.6-.5,3.91-.06.62-.11,1.26-.13,1.89a4.91,4.91,0,0,0,0,1.32c-.28-.22-.48-1-.69-1.29a7.19,7.19,0,0,0-1.92-1.89,6.29,6.29,0,0,0-4.2-1c.45.21,1.7-.64,2-.83a27.93,27.93,0,0,0,3.47-2.46A72.29,72.29,0,0,0,182.8,231c4.33-4.47,8.28-9.29,12.38-14a153.58,153.58,0,0,1,12.28-13.1c3.6-3.26,8.67-6.14,13.62-6A9.45,9.45,0,0,1,230.25,207.53Z"/>
            <path class="cls-2" d="M165.19,606c-7.72.65-10.08,2.27-10.08,2.27"/>
            <path d="M107.37,166.65c0,.06-.12.19-.19.28l-.32.29c-.21.2-.44.42-.67.61-.45.39-.92.78-1.38,1.16-.93.76-1.88,1.49-2.81,2.21-1.86,1.44-3.71,2.8-5.53,4.13l-5.41,3.92c-1.79,1.27-3.55,2.55-5.21,4a68.2,68.2,0,0,0-16.41,19.7,70.84,70.84,0,0,0-8.13,25.39,95.1,95.1,0,0,0,.86,28.22,24,24,0,0,0,.6,2.92,10.44,10.44,0,0,0,.68,1.9c.19.41.38.54.12.2a3.37,3.37,0,0,0-.8-.7,5.24,5.24,0,0,0-3.46-.78,8.74,8.74,0,0,1,.77-.51,25.43,25.43,0,0,0,3.84-3.43,82.44,82.44,0,0,0,8.26-10.75c1.31-2,2.59-4,3.83-6.13s2.39-4.25,3.54-6.42C81.84,228.46,84,224,86,219.46s3.83-9.16,5.53-13.81a202,202,0,0,0,8.08-28.36A16.75,16.75,0,0,1,118.78,164a15.85,15.85,0,0,1,12.79,18.84,17.12,17.12,0,0,1-.74,2.59l-.09.25c-4,10.48-8.34,20.64-13.23,30.53-2.42,4.95-5,9.84-7.64,14.66s-5.45,9.6-8.44,14.3q-2.24,3.53-4.63,7c-1.59,2.33-3.22,4.63-5,6.92A104.93,104.93,0,0,1,80,272.54,49,49,0,0,1,71.67,279a27.62,27.62,0,0,1-6.33,2.79,21.06,21.06,0,0,1-4.38.77,17.64,17.64,0,0,1-5.23-.43A16.71,16.71,0,0,1,50.65,280a17.46,17.46,0,0,1-3.74-3.16,22,22,0,0,1-3.89-6.3,33.75,33.75,0,0,1-1.69-5.44c-.39-1.66-.64-3.43-.81-4.68a166,166,0,0,1-1.64-33.67c.22-2.88.49-5.78.92-8.68s1-5.82,1.63-8.72a86.75,86.75,0,0,1,5.94-17.15,77.8,77.8,0,0,1,23.07-28.63A81.83,81.83,0,0,1,78,158.39a49.77,49.77,0,0,1,8.22-3.89A44.83,44.83,0,0,1,95,152.21a38.23,38.23,0,0,1,4.57-.42c.77,0,1.55,0,2.35,0,.4,0,.8,0,1.22.08l.63.05c.24,0,.4.06.76.06a7.3,7.3,0,0,1,8.78,5.74A7.72,7.72,0,0,1,107.37,166.65Z"/>
            <path class="cls-4" d="M103.75,156.93l15-42.79,19,.33-1.57,44.37s-4.38,24.49-15.39,24.59C90.46,183.7,103.75,156.93,103.75,156.93Z"/>
            <ellipse class="cls-4" cx="131.44" cy="99.29" rx="48.33" ry="32.95" transform="translate(-7.34 10.55) rotate(-4.47)"/>
            <path class="cls-4" d="M171.61,98c-1.2,10.08-10.51,17.47-19.22,16.65S138.65,105.1,139.84,95,148,77.32,156.72,78.14,172.81,87.92,171.61,98Z"/>
            <path class="cls-4" d="M144.09,95.41c-1.2,10.09-10.52,17.47-19.23,16.65s-13.74-9.56-12.54-19.64,8.17-17.69,16.88-16.87S145.28,85.33,144.09,95.41Z"/>
            <path class="cls-6" d="M138.86,66.47s12.26-42.64,28-64.15c1.06-1.44,3.1-1.19,3,.57l-1.76,75.7"/>
            <path class="cls-6" d="M92.33,86.08c3.07-7,4.17-39,34-83.83,1-1.48,3.1-1.19,3,.58l-1.62,68.23"/>
            <path class="cls-3" d="M143.92,111.37c-.14,1.91-4.35,5.25-5.37,5.2s-4.71-3.77-4.57-5.68,2.4-2.38,5.15-2.24S144.06,109.46,143.92,111.37Z"/>
            <path class="cls-7" d="M163.13,105a18.25,18.25,0,0,1-8.89,5.44,18,18,0,0,1,3.69-9.72,18.19,18.19,0,0,1,8.89-5.43A18.09,18.09,0,0,1,163.13,105Z"/>
            <path class="cls-7" d="M135.32,102.57a18.18,18.18,0,0,1-8.88,5.43,18,18,0,0,1,3.68-9.71A18.25,18.25,0,0,1,139,92.85,18,18,0,0,1,135.32,102.57Z"/>
            <path class="cls-8" d="M128.19,67c9-1.11,17.49-.47,29.33,3.46"/>
            <g>
              <path class="cls-2" d="M116.15,154.28s4-15.72,2.16-25.3,9.52-6.43,10,14.22"/>
              <path class="cls-2" d="M150.39,166.65A44,44,0,0,1,143,177.89c-8.64,9.57-27.64,12.68-32.92,3.63-4.51-7.71,6.41-55.62,50-47.7,17.56,3.19,16.15,12.17-.77,8.64a35.92,35.92,0,0,0-13.68-.41"/>
              <path class="cls-2" d="M138.27,141.68s11.75-5,18.12,3.49-.57,14.81-.57,14.81"/>
              <path class="cls-2" d="M145.4,167.09s11,5.69,11.65-3.92-8.52-19.15-17.21-12.83"/>
              <path class="cls-2" d="M143.45,160.87s7.92-3.6,10.63,6c2.83,10-6.33,12.26-6.88,7.78-.76-6.16-4.3-2.64-4.3-2.64"/>
            </g>
          </g>
          <path d="M57.78,359.13a84.06,84.06,0,0,1-3.4-18.91c-.26-3.21-.31-6.43-.28-9.65l.16-4.84.43-4.83c.11-1.61.44-3.2.67-4.8s.46-3.2.85-4.78l1-4.75c.38-1.57.88-3.12,1.31-4.68.8-3.14,2-6.16,3.09-9.22.5-1.55,1.24-3,1.86-4.5l1.95-4.47.37.17-.5,2.42-.56,2.38c-.35,1.59-.89,3.1-1.14,4.7L62.57,298c-.4,1.54-.68,3.1-1,4.65L61.14,305c-.14.77-.38,1.53-.48,2.31L59.91,312c-.3,1.54-.49,3.09-.7,4.63s-.47,3.09-.55,4.65l-.51,4.65c-.1,1.55-.14,3.11-.29,4.66-.23,3.12-.26,6.24-.34,9.37-.06,6.28.12,12.58.64,19.07Z"/>
          <path class="cls-2" d="M137.48,122.2s-10.27,2.6-13.14-4.58"/>
          <path class="cls-9" d="M77.45,270.19c4.48-6.95,9.22-13.65,14-20.3,2.35-3.36,4.83-6.62,7.2-9.95s4.86-6.58,7.23-9.9,4.83-6.58,7.21-9.88,4.72-6.64,7.06-10,4.56-6.72,6.57-10.2a42.54,42.54,0,0,0,2.73-5.33,14.11,14.11,0,0,0,.88-2.79,3.76,3.76,0,0,0-.29-2.74v0a.15.15,0,0,1,.05-.21.14.14,0,0,1,.19,0,4.14,4.14,0,0,1,.75,3,14.25,14.25,0,0,1-.59,3,39.68,39.68,0,0,1-2.29,5.72,117.77,117.77,0,0,1-6,10.75c-4.33,7-9,13.72-13.85,20.36-9.76,13.22-20,26-30.61,38.61a.14.14,0,0,1-.21,0,.14.14,0,0,1,0-.19Z"/>
          <path class="cls-10" d="M77.57,327.26l3.54-165.85a1.89,1.89,0,0,0-3.59-.87c-10.8,20.17-41.27,84.08-43.79,166.72"/>
          <path class="cls-4" d="M78.84,388H42.34a20.51,20.51,0,0,1-20.61-21.12l.46-18.5a21.77,21.77,0,0,1,21.65-21.13H80.35A20.5,20.5,0,0,1,101,348.39l-.45,18.5A21.78,21.78,0,0,1,78.84,388Z"/>
          <path class="cls-4" d="M70.08,388H33.57A20.51,20.51,0,0,1,13,366.89l.46-18.5a21.77,21.77,0,0,1,21.65-21.13H71.59a20.5,20.5,0,0,1,20.6,21.13l-.46,18.5A21.77,21.77,0,0,1,70.08,388Z"/>
          <path class="cls-10" d="M14.34,342.73s35.68,49.73,77.22,0h8.76"/>
          <path class="cls-4" d="M53.08,371.12h0a3.66,3.66,0,0,1-3.67-3.77l.13-5a3.87,3.87,0,0,1,3.85-3.76h0a3.65,3.65,0,0,1,3.67,3.76l-.12,5A3.88,3.88,0,0,1,53.08,371.12Z"/>
          <g>
            <g>
              <path class="cls-4" d="M223.71,223.31c1.88-1.57,5.31-2.42,12.73-3.61,3.75-.59,17.88-6,19.95-13.53.59-2.11-.87-7.65-.87-7.65a7.16,7.16,0,0,0-2.09-7.71,9.29,9.29,0,0,0-4.09-9.13c-.35-3.45-1.48-5.75-4.78-7-7.76-3-17.2,8-17.2,8s-4.71-19.52-8.89-12.28c-2.58,4.46-.81,8.82-1.58,18-.87,10.44-2.29,4.8-3.09,19.49A15.16,15.16,0,0,0,223.71,223.31Z"/>
              <path class="cls-2" d="M231.83,178.27c-12.65,9.88-8.76,16-4.78,13.86a21.36,21.36,0,0,1,16.34-8.69s-23.71,5.54-18.09,19c2.73,6.53,2.8-9,22.36-11.25-17.76,2.39-19.66,13.31-19.38,17.65.48,7.31,31.36-17.21,12.91-.47"/>
            </g>
            <path class="cls-6" d="M251.63,200.38s-8.45-2.13-14.76,4.45c-9.93,10.36,1.35,13.94,8,3.42l3.77.5"/>
          </g>
          <path class="cls-4" d="M230.45,179.07l-5.91-.48s-5.61-34.94,3.2-55.82c20.91,1.57,27.45,2.64,27.45,2.64s-17.41,30.09-16.11,44.38C232.21,168.56,230.45,179.07,230.45,179.07Z"/>
          <path class="cls-4" d="M231.62,176.81l-6.07-.54s3.62-29.5,18.53-46.85c21.49,1.8,28.06,2.85,28.06,2.85s-26.43,24.9-28.95,36.93C236.32,168,231.62,176.81,231.62,176.81Z"/>
          <path class="cls-4" d="M229.89,179.89l-5.56-.6a82.52,82.52,0,0,1,25.46-42c19.75,2,25.59,3.17,25.59,3.17s-24.6,18.94-31.59,31.55C237.72,170.69,229.89,179.89,229.89,179.89Z"/>
          <path class="cls-4" d="M229.66,180.36l-5.38-1.47s8.13-20.15,31.39-34.87c19.12,5.08,24.69,7.13,24.69,7.13s-27,12.11-35.8,23.53C238.78,172.45,229.66,180.36,229.66,180.36Z"/>
        </g>
      </g>
    </g>
  </g>
</svg>
