<svg xmlns="http://www.w3.org/2000/svg" viewBox="0 0 1487.5 568.96">
  <defs>
    <style>
      .cls-1 {
        isolation: isolate;
      }

      .cls-10, .cls-12, .cls-2, .cls-3, .cls-5, .cls-6, .cls-8 {
        stroke: #000;
        stroke-width: 2.6px;
      }

      .cls-12, .cls-2, .cls-5, .cls-6, .cls-7 {
        stroke-miterlimit: 10;
      }

      .cls-11, .cls-3, .cls-5 {
        fill: #fff;
      }

      .cls-10, .cls-3, .cls-6, .cls-7, .cls-8, .cls-9 {
        stroke-linecap: round;
      }

      .cls-10, .cls-3, .cls-8, .cls-9 {
        stroke-linejoin: round;
      }

      .cls-4 {
        mix-blend-mode: multiply;
      }

      .cls-10, .cls-12, .cls-7, .cls-9 {
        fill: none;
      }

      .cls-7, .cls-9 {
        stroke: #fff;
        stroke-width: 2px;
      }
    </style>
  </defs>
  <title>illu_1_2_b</title>
  <g class="cls-1">
    <g id="Layer_2" data-name="Layer 2">
      <g id="Layer_1-2" data-name="Layer 1">
        <g>
          <g>
            <rect class="cls-2" x="573.82" y="95.91" width="284.61" height="136.25"/>
            <rect class="cls-3" x="904.76" y="44.65" width="31" height="336.78"/>
            <rect class="cls-5" x="531.72" y="44.4" width="377.06" height="336.78"/>
            <line class="cls-5" x1="539.97" y1="163.53" x2="609.05" y2="44.65"/>
            <line class="cls-5" x1="609.66" y1="163.53" x2="678.74" y2="44.65"/>
            <line class="cls-5" x1="679.36" y1="163.53" x2="748.44" y2="44.65"/>
            <line class="cls-5" x1="749.06" y1="163.53" x2="818.14" y2="44.65"/>
            <line class="cls-5" x1="818.75" y1="163.53" x2="887.83" y2="44.65"/>
            <line class="cls-5" x1="534.14" y1="163.53" x2="935.75" y2="163.53"/>
            <g>
              <path class="cls-5" d="M695.14,163.52c0-22.32,10.32-41.59,25.24-50.57a34.57,34.57,0,0,0-14.87-3.39c-23.52,0-42.58,24.16-42.58,54s19.06,54,42.58,54a34.7,34.7,0,0,0,14.89-3.4C705.47,205.13,695.14,185.86,695.14,163.52Z"/>
              <path class="cls-2" d="M748.1,163.53c0-23.18-11.53-42.94-27.72-50.58-14.92,9-25.24,28.25-25.24,50.57s10.33,41.61,25.26,50.58C736.58,206.45,748.1,186.7,748.1,163.53Z"/>
            </g>
            <g>
              <path class="cls-5" d="M813.4,163.53c0-13.07,6.33-24.26,15.32-28.93a20.14,20.14,0,0,0-9.35-2.33c-13.62,0-24.66,14-24.66,31.26s11,31.26,24.66,31.26a20.26,20.26,0,0,0,9.35-2.33C819.73,187.79,813.4,176.6,813.4,163.53Z"/>
              <ellipse class="cls-2" cx="828.72" cy="163.53" rx="15.32" ry="28.93"/>
            </g>
            <g>
              <path class="cls-5" d="M578.26,163.53c0-13.07,6.34-24.26,15.32-28.93a20.1,20.1,0,0,0-9.34-2.33c-13.62,0-24.66,14-24.66,31.26s11,31.26,24.66,31.26a20.22,20.22,0,0,0,9.34-2.33C584.6,187.79,578.26,176.6,578.26,163.53Z"/>
              <ellipse class="cls-2" cx="593.58" cy="163.53" rx="15.32" ry="28.93"/>
            </g>
            <g>
              <path class="cls-5" d="M594.28,215.8c-3.82,3.77-8.95,3.52-8.67-1.86.73-13.91,8.15-32.5.69-27.16-8.87,6.35-4,32.32-3.62,39.43.42,8.11-8.58,6.93-8.58,6.93s-.1.82-3.16,2.52c-2.84,1.57-7.67,2.1-12.87-3.2-1.6,1.6-9.49,2.31-11.8-7-11.2-1.13-8.8-20.64-4.21-43.68,4-20.09,19.22-27.87,29.27-29.62a105,105,0,0,1,32.19-.77C609.66,167.26,603.52,206.7,594.28,215.8Z"/>
              <path class="cls-5" d="M574.1,233.14s-8.93-1.91-4.77-35.58"/>
              <path class="cls-5" d="M558.07,232.46c-3.4-10.72-1.32-36.16-1.32-36.16"/>
              <path class="cls-5" d="M546.27,225.5s-1.59-20.63.65-30.19"/>
            </g>
            <rect class="cls-5" x="910.97" y="156.06" width="24.5" height="15.74"/>
            <g>
              <path class="cls-5" d="M744.29,185.85S722,178.94,684,201c-34.55,20.09-73.26,16.47-74.65,2.08,40.81-27.44,21.35-95.86,24.11-107.3s18,24.36,18,24.36,12-.55,19-1.77c-.59-15.56-.64-43.3,8.83-25.43,1.6,3,5.84,17.2,7.07,19.83a36,36,0,0,0,47.79,17.48c2.31-1.08,3.69-1.85,3.69-1.85S756.28,151.09,744.29,185.85Z"/>
              <ellipse class="cls-2" cx="644.53" cy="160.09" rx="3.45" ry="7.18"/>
              <ellipse class="cls-2" cx="663.43" cy="160.09" rx="3.45" ry="7.18"/>
              <path class="cls-6" d="M652.85,162.82c0,7.41-4.3,8.88-4.3,8.88"/>
              <path class="cls-6" d="M672.37,162.82c0,7.41-4.3,8.88-4.3,8.88"/>
              <path class="cls-7" d="M644.2,155.19s-1.89.7-1.24,7.53"/>
              <path class="cls-7" d="M663.1,154.72s-1.9.7-1.24,7.53"/>
              <circle class="cls-2" cx="610.76" cy="201.06" r="5.64"/>
            </g>
            <path class="cls-2" d="M935.93,81.2S992.81,86,995,152.91s-59.27,117.17-59.27,117.17Z"/>
            <path class="cls-5" d="M997.52,319.12s11.8-.44,3.41,18.65c-7.84,17.85-27.13,16-34.25,27.11-5.66,8.82,0,16.55,20.68,16.55,23.1,0,31.35.15,44.54-19.38,27.76-41.11,15.08-97.88-11.51-101.55-16.55-2.29-22.78,19.17-22.78,19.17l-9.33,2.84"/>
            <ellipse class="cls-5" cx="995.73" cy="299.43" rx="12.85" ry="26.2" transform="translate(-41.44 225.89) rotate(-12.68)"/>
            <path class="cls-2" d="M935.75,281.5s37.2-13.79,47.13-8.28,19.42,53.66,12.19,58.08-59.32,17.8-59.32,17.8Z"/>
            <path class="cls-5" d="M692.62,165.35c10.3-1.67,10.46,12.11,3.32,20.5-6.66,7.83-14,7.29-16,3.61-3.2-6,3-8.33,5.56-12.93C687.35,173.15,687.93,166.11,692.62,165.35Z"/>
            <path class="cls-5" d="M794.34,160.09s-24.76,7.6-30.26,15.55,16.63,3.3,16.63,3.3"/>
            <path class="cls-5" d="M839.28,175.64s-3.95-1.54-10.45,7.91c-6.35,9.25.36,30,1.5,37,1.29,8-8.25,7.75-8.25,7.75s-.87,5.64-3.89,7.64c-2.81,1.85-7.8,2.86-13.8-1.89-1.5,1.75-9.68,3.25-13.06-5.75-11.84,0-11.84-16.42-11.84-39.92s20-32.77,30.34-35.52c18.5-4.94,27.54,1.81,27.54,1.81C846.5,163.53,839.28,175.64,839.28,175.64Z"/>
            <path class="cls-5" d="M822.08,228.35s-9.57.94-9.57-30.1"/>
            <path class="cls-5" d="M804.39,234.1c-4.68-10.33-5.18-35.85-5.18-35.85"/>
            <path class="cls-5" d="M791.33,228.35s-3.84-20.37-2.5-30.1"/>
            <path class="cls-5" d="M933.48,156.06c3.43,0,6.21,3.53,6.21,7.87s-2.78,7.87-6.21,7.87"/>
            <path class="cls-5" d="M927.68,156.06c3.43,0,6.21,3.53,6.21,7.87s-2.78,7.87-6.21,7.87"/>
            <path class="cls-5" d="M917.91,156.06c3.43,0,6.21,3.53,6.21,7.87s-2.78,7.87-6.21,7.87"/>
            <g>
              <path class="cls-5" d="M461.31,144.28s-21.14-3.42-36.41,7.69c-21,15.29-10,73.9,33.25,91,35.94,14.26,73.57,1.84,73.57,1.84V224.27s-43.59,12.83-68.82-.61c-17.6-9.38-26.85-42.28-21.62-45.28,8.15-4.7,30.42-.51,90.52,24.32l-.15-93.45C484.37,88.43,466.76,136,466.76,136"/>
              <path class="cls-5" d="M431.2,94.41s9.5,35.19,23.69,47.74,13.18-6.88,13.18-6.88-17.05-7.21-16.86-31.22"/>
              <path class="cls-5" d="M422.08,63.08c2.58,32.16,15.92,59.49,32,58.2s28.83-30.71,26.25-62.86S464,17.76,447.86,19.05,419.51,30.93,422.08,63.08Z"/>
              <ellipse class="cls-8" cx="476.43" cy="58.04" rx="8.1" ry="11.73" transform="translate(-3.33 71.53) rotate(-8.56)"/>
              <ellipse class="cls-8" cx="454.01" cy="59.89" rx="8.1" ry="11.73" transform="translate(-3.86 68.21) rotate(-8.56)"/>
              <polyline class="cls-9" points="448.26 64.23 454.37 56.11 455.51 63.06 460.67 56.91"/>
              <polyline class="cls-9" points="470.34 61.79 476.74 53.29 477.87 60.25 482.71 54.49"/>
              <path class="cls-5" d="M467.37,77.67c6.36,7,13.52,10.92,16,8.68s-.66-9.76-7-16.79-12-8.63-14.48-6.39S461,70.64,467.37,77.67Z"/>
              <ellipse class="cls-3" cx="450.98" cy="37.07" rx="13.71" ry="88.23" transform="translate(410.71 487.77) rotate(-89.59)"/>
              <path class="cls-3" d="M482.21,35.85s-8.81,5.76-35.67,5c-21.06-.63-27.29-6.1-27.29-6.1.31-17.39,12.25-31.27,29.53-33.22C469.36-.83,482.52,18.46,482.21,35.85Z"/>
              <path class="cls-10" d="M438.92,81.89A36.53,36.53,0,0,0,473,83.21"/>
            </g>
            <path class="cls-11" d="M984.35,188.38c.56-10.38,1.19-20.51.7-30.48l-.26-3.72c0-.62,0-1.24-.1-1.86l-.19-1.84-.38-3.68-.6-3.62A85.58,85.58,0,0,0,980,129.07a69.74,69.74,0,0,0-14.34-24.8A78.42,78.42,0,0,0,941.8,86.56l-.06,0a.25.25,0,0,1-.11-.33.24.24,0,0,1,.28-.13,63.32,63.32,0,0,1,36.27,27.38,69.31,69.31,0,0,1,6.58,14c.38,1.24.85,2.45,1.15,3.7l1,3.76c.3,1.25.49,2.53.74,3.8l.36,1.9c.09.64.16,1.28.24,1.92l.46,3.84.23,3.86c.23,2.57.1,5.15.13,7.73a140.23,140.23,0,0,1-4.19,30.52.25.25,0,0,1-.49-.07Z"/>
            <g>
              <path class="cls-5" d="M597.44,68.07h0a7,7,0,0,1-3.28-.85A7.83,7.83,0,0,1,591.57,65a6.62,6.62,0,0,1-1.26-3.13c-.2-1.67-.34-3.21-.45-4.66s-.18-2.8-.23-4.11-.07-2.57-.07-3.83,0-2.53.05-3.84.11-2.67.21-4.11.24-3,.43-4.67a6.6,6.6,0,0,1,1.25-3.13,7.8,7.8,0,0,1,2.58-2.23,7,7,0,0,1,3.28-.84h0a8.33,8.33,0,0,1,6.16,2.32,28,28,0,0,0-.82,3.88c-.19,1.68-.33,3.22-.43,4.67s-.17,2.8-.21,4.11S602,48,602,49.26s0,2.52.08,3.83.12,2.66.23,4.11.25,3,.45,4.66a5.69,5.69,0,0,1-1.23,4.39A5.26,5.26,0,0,1,597.44,68.07Z"/>
              <path class="cls-5" d="M610.58,69.86h0a7.51,7.51,0,0,1-3.49-.89,8.29,8.29,0,0,1-2.77-2.36,7.07,7.07,0,0,1-1.39-3.3c-.24-1.9-.42-3.64-.56-5.28s-.22-3.18-.28-4.67S602,50.45,602,49s0-2.86.09-4.34.15-3,.28-4.67.32-3.38.56-5.28a7.07,7.07,0,0,1,1.39-3.3,8.29,8.29,0,0,1,2.77-2.36,7.51,7.51,0,0,1,3.49-.89h0c4.59,0,7.44,1.08,8.43,2.27,0,0-2.67,2.47-2.91,4.28s-.42,3.64-.56,5.28-.22,3.18-.28,4.67-.09,2.91-.09,4.34,0,2.87.09,4.35.15,3,.28,4.66.32,3.39.56,5.29a6,6,0,0,1-1.22,4.63A5.46,5.46,0,0,1,610.58,69.86Z"/>
              <path class="cls-5" d="M623.64,69.86h0a7.38,7.38,0,0,1-3.43-.88,8.34,8.34,0,0,1-2.73-2.31,7.1,7.1,0,0,1-1.36-3.25c-.25-1.87-.43-3.58-.56-5.2s-.23-3.12-.29-4.58-.09-2.87-.1-4.28,0-2.81.07-4.27.14-3,.26-4.59.3-3.33.53-5.19a7,7,0,0,1,1.34-3.26,8.3,8.3,0,0,1,2.72-2.31,7.34,7.34,0,0,1,3.42-.88h0c6.74,0,8.18,2.73,9.16,3.9a9.61,9.61,0,0,0-4.22,7.74c0,1.62-.2,3.13-.26,4.59s-.07,2.87-.07,4.27,0,2.82.1,4.28.15,3,.29,4.58.31,3.33.56,5.2a5.85,5.85,0,0,1-1.2,4.55A5.37,5.37,0,0,1,623.64,69.86Z"/>
              <path class="cls-5" d="M635.35,68.07h0a6.51,6.51,0,0,1-4.2-1.63,6.26,6.26,0,0,1-2.2-3.92c-.23-1.93-.4-3.67-.52-5.29s-.2-3.14-.25-4.61-.06-2.91,0-4.38,0-3,.13-4.61.19-3.37.38-5.3a6.12,6.12,0,0,1,2.09-3.94,6.39,6.39,0,0,1,4.17-1.63h0c6.18,0,11.68,5.21,12.6,11.89h-8.42c-.08,1.63.37,11,.49,12.58s.29,3.36.52,5.29A5,5,0,0,1,639,66.44,4.65,4.65,0,0,1,635.35,68.07Z"/>
            </g>
            <path class="cls-5" d="M589.29,41.57s-9.92-14.55-16.07-9c-4.89,4.39,2.53,12.09,2.53,12.09h13.54Z"/>
            <ellipse class="cls-5" cx="910.97" cy="163.93" rx="6.21" ry="7.87"/>
            <ellipse class="cls-5" cx="910.97" cy="163.93" rx="1.86" ry="2.36"/>
            <path class="cls-5" d="M992.49,348.59s9.86-2.13,18.85,3.37"/>
            <path class="cls-5" d="M1000.93,337.77s10.69-3.31,18.38,2.35"/>
            <path class="cls-5" d="M1003.89,327.59a29.63,29.63,0,0,1,20.78,0"/>
            <path d="M455.67,172a65.64,65.64,0,0,1,10,1.16c1.64.3,3.29.62,4.92,1s3.27.74,4.9,1.14c6.5,1.61,12.94,3.49,19.32,5.55,3.19,1,6.36,2.12,9.54,3.19s6.31,2.24,9.45,3.41,6.28,2.36,9.4,3.58l9.35,3.71-1.6,3.67-9.1-4.16c-3-1.36-6.1-2.67-9.16-4s-6.15-2.57-9.23-3.86-6.19-2.47-9.31-3.64c-6.23-2.37-12.54-4.55-18.92-6.48-1.6-.47-3.2-.95-4.81-1.37s-3.23-.85-4.86-1.23A65.67,65.67,0,0,0,455.67,172Z"/>
          </g>
          <line class="cls-2" y1="567.66" x2="1487.5" y2="567.66"/>
          <g>
            <rect class="cls-5" x="237.19" y="396.64" width="1099.16" height="171.03"/>
            <g>
              <rect class="cls-5" x="1119.69" y="425.16" width="173.97" height="15.33" transform="translate(2413.35 865.66) rotate(180)"/>
              <rect class="cls-5" x="1147.04" y="470.39" width="173.97" height="15.33" transform="translate(2468.04 956.11) rotate(180)"/>
              <rect class="cls-5" x="1174.38" y="515.61" width="173.97" height="15.33" transform="translate(2522.74 1046.56) rotate(180)"/>
            </g>
            <g>
              <rect class="cls-3" x="1180.35" y="425.16" width="173.97" height="15.33" transform="translate(2534.66 865.66) rotate(180)"/>
              <rect class="cls-3" x="1207.69" y="470.39" width="173.97" height="15.33" transform="translate(2589.36 956.11) rotate(180)"/>
              <rect class="cls-3" x="1235.04" y="515.61" width="173.97" height="15.33" transform="translate(2644.05 1046.56) rotate(180)"/>
            </g>
            <g>
              <rect class="cls-5" x="176.75" y="381.42" width="1250.7" height="15.22"/>
              <rect class="cls-3" x="1116.21" y="381.3" width="311.24" height="15.33"/>
            </g>
          </g>
          <g>
            <polygon class="cls-11" points="1082.85 284.45 1054.34 256.3 1068.59 213.67 1121.58 170.77 1272.95 205.33 1267.33 269.06 1082.85 284.45"/>
            <path class="cls-8" d="M1275.07,245.93c5.27,55.56,8.58,123.28,12,179l-80.34.06c-23.6-.31,11.37-28.36,25.34-21.3-3.28-31.57-18.26-71.62-21.32-103.31-14.54,0-64.42-5-63.35,9.49,2,26.92,6.27,42.77,6.14,71l-70.11.09c-31.57,0,6.12-28,20.34-21.05-10.87-27.75-9.48-36.13-9.48-36.13"/>
            <path class="cls-5" d="M1244.39,253.25c4,11.9,4,35.11,4,35.11l32.54-.58,1,12.24-32.66,1.2s.38,46.56,9.65,72.56c-105.39-1.15-105.8-59.17-164.33-41.64-15.31-30.68-21-74.3,16.46-77.65"/>
            <path class="cls-2" d="M1161,250c1.89,2.77,3.58,4.88,5.55,8.1,15.86,10.06,46.53,26.32,53,41.05s27.43,5.77,28.73-5.1c-32.62-23.4-56-39.13-78.17-55.68C1174,241.35,1164,246.16,1161,250Z"/>
            <path class="cls-5" d="M1089.76,184.78c-27.33,16.71-51.29,73.62-31.6,101.36,15.58,21.95,35.54,22.84,52,18.75,11-2.74,5.9-8,10.58-11.8a14.68,14.68,0,0,0,6.64-10c.35-2.87-.73-8.1-3.5-9.92,1.67-4.74,4.09-3.87.93-10.95-1.59-3.58-14.89-9.65-21.13-7.29-1-4,1.89-4,.13-8.46s-18.91-.94-20.37,3.13"/>
            <path class="cls-5" d="M1242.74,210.49,1259,224.65c-22.57.74-44.09,17.75-55.24,18.62-9-7.12-16.26-6.88-28.54-2.08,0,0,5.16,4.12,9,7.25-6.41,5-9.71,19.48-19.63,10.09a26,26,0,0,0-1.44,11.76c.23,2.5,2.39,3.17,3.09,5.32s0,5.83,1,7.27a42.9,42.9,0,0,0,7.22,8.55c2,1.76,5.47,2.26,8.43,3.76,2.11,1.07,3.42,3.23,6.18,4.11,10.23,3.22,20.13-4.93,32.88-6.7,36.68-5.09,95.59-9.52,102.69-64.53,8-61.64-94.44-86.85-117-84.12-56.47,6.83-84.74,11.2-117.78,40.83"/>
            <ellipse class="cls-5" cx="1104.83" cy="252.94" rx="14.92" ry="7.71" transform="translate(-25.16 164.93) rotate(-8.44)"/>
            <path class="cls-5" d="M1135.94,265.93c14.7-12.52,39-23.86,39-23.86L1007.17,118.44c11.8,33.17,30.43,65,56.4,87.71C1087.84,227.34,1109.54,244.7,1135.94,265.93Z"/>
            <path class="cls-5" d="M1109.55,250.8,1079.39,83.88l-4.51.88,23.9,168.82C1103.24,253.91,1107.37,253.08,1109.55,250.8Z"/>
            <path class="cls-3" d="M1215.87,146.29c-7.5-27.75-23.14-82.18-23.14-82.18,15.8-5.19,26.82-14.72,20.73-32.69-4.32-12.75-18.9-16.35-30.94-10.78-2.14-10.3-9.55-17.52-20.62-17.52-21.75,0-30.58,20.42-30.58,20.42-17.84-8.47-32.79-5.92-40.62,4.8-6.15,8.42-.33,22.07,7.3,28.19-12.93,8.77-19.3,20-11.33,30.07,9.4,11.94,26.58,4.85,26.58,4.85,5.22,23.73,18.69,73.7,18.69,73.7C1151,186.24,1192.44,163.12,1215.87,146.29Z"/>
            <path class="cls-12" d="M1244.71,149.31c-27.3,9.16-31.41,47.28-11.36,73.86"/>
            <path class="cls-5" d="M1235.13,146.71c-20.23,5.67-30.65,25-31,47.31-22.26,7.8-68,9.07-87.85,4.84"/>
            <path class="cls-5" d="M1130.49,162.17c-5.69,6.51-12,18.43-14.19,36.69"/>
            <path class="cls-8" d="M1138.19,112.45c1.17,4.72,3.23,13.53-3.16,14.66s-8.56-7.71-9.72-12.4-3.25-13.47,3.16-14.61S1137,107.74,1138.19,112.45Z"/>
            <path class="cls-8" d="M1157,108.16c1.16,4.71,3.25,13.81-3.19,14.86s-8.53-7.78-9.71-12.5-3.27-13.58,3.16-14.82S1155.81,103.45,1157,108.16Z"/>
            <path class="cls-3" d="M1174.68,139.51a13.26,13.26,0,0,0,2.63-4.23c1.71-4.29,1.37-8.25-2.59-11-4.39-3.09-8.3-1.34-11.85,2.42-2.52,2.68-5.08,5-9.44,6.12-3.48.9-7.83,2.62-8.15,7.07s3.06,8.76,7.15,9.27C1162.23,150.32,1169,146,1174.68,139.51Z"/>
            <path class="cls-3" d="M1145.58,142.3c13.48,0,24.71-3.89,29.87-17-1.58-.83-3.16-1.68-4.75-2.48,1.09,1.81,2.16,3.64,3.25,5.45l4.2,3.76-1.49-5.54"/>
            <path class="cls-5" d="M1293,171.5s-27.15.54-42.56,45.73"/>
            <path class="cls-12" d="M1121.58,163s-14.27,14.43-14.27,29.32"/>
            <g>
              <path class="cls-3" d="M1248.09,258.41s10.43-8.89,4.21-15.71-20.15,13.14-23.85,25.45C1255,279.7,1280.58,254.87,1248.09,258.41Z"/>
              <line class="cls-3" x1="1239.05" y1="261.14" x2="1224.7" y2="255.31"/>
              <line class="cls-3" x1="1256.01" y1="269.25" x2="1265.92" y2="273.22"/>
            </g>
            <path class="cls-11" d="M1103.79,364.2c-3.25.83-5.83,1.37-8.21,2.14a69.2,69.2,0,0,0-6.71,2.47c-2.19.91-4.41,2-6.8,3.08s-4.93,2.32-8,3.49l-.14.05a.23.23,0,0,1-.3-.13.26.26,0,0,1,0-.21,31.27,31.27,0,0,1,5.91-6.3,30.76,30.76,0,0,1,7.36-4.58,24.12,24.12,0,0,1,8.49-1.87,22.1,22.1,0,0,1,8.53,1.39.22.22,0,0,1,.14.29.21.21,0,0,1-.15.15Z"/>
            <path class="cls-11" d="M1233.51,408.39c-3.25.82-5.83,1.37-8.21,2.13s-4.51,1.55-6.71,2.47-4.41,2-6.8,3.09-4.93,2.31-8,3.48l-.14.06a.25.25,0,0,1-.3-.13.24.24,0,0,1,0-.22,31.27,31.27,0,0,1,5.91-6.3,30.76,30.76,0,0,1,7.36-4.58,24.12,24.12,0,0,1,8.49-1.87,22.48,22.48,0,0,1,8.53,1.39.23.23,0,0,1,.14.3.21.21,0,0,1-.16.14Z"/>
            <path class="cls-11" d="M1282.73,419.44a244.28,244.28,0,0,1-5.14-28.53c-1.23-9.55-2.18-19.12-2.76-28.72s-.9-19.2-.89-28.83a249.39,249.39,0,0,1,1.46-29v0a.24.24,0,0,1,.27-.21.25.25,0,0,1,.22.23l1,14.37,1,14.37,1.91,28.76,1.75,28.76.87,14.38.8,14.39a.25.25,0,0,1-.24.26.24.24,0,0,1-.25-.19Z"/>
            <ellipse class="cls-5" cx="1233.54" cy="297.84" rx="4.92" ry="4.34" transform="translate(-23 475.12) rotate(-21.61)"/>
            <path d="M1189.06,68.09l10.82,38.46,10.44,38.54-.38.09a151.46,151.46,0,0,1-7.88-18.63c-1.19-3.14-2.13-6.33-3.2-9.5s-1.89-6.39-2.83-9.58-1.7-6.44-2.48-9.67-1.52-6.47-2.11-9.76a148.76,148.76,0,0,1-2.76-19.86Z"/>
          </g>
        </g>
      </g>
    </g>
  </g>
</svg>
