<svg xmlns="http://www.w3.org/2000/svg" viewBox="0 0 208.7 634.92">
  <defs>
    <style>
      .cls-1 {
        isolation: isolate;
      }

      .cls-10, .cls-2, .cls-4, .cls-6 {
        fill: #fff;
      }

      .cls-2, .cls-3, .cls-4, .cls-6, .cls-7, .cls-8, .cls-9 {
        stroke: #000;
        stroke-width: 2.6px;
      }

      .cls-2, .cls-3, .cls-6, .cls-7, .cls-8 {
        stroke-linecap: round;
      }

      .cls-2, .cls-3 {
        stroke-linejoin: round;
      }

      .cls-4, .cls-6, .cls-7, .cls-8, .cls-9 {
        stroke-miterlimit: 10;
      }

      .cls-5 {
        mix-blend-mode: multiply;
      }

      .cls-8, .cls-9 {
        fill: none;
      }
    </style>
  </defs>
  <title>illu_3_1_a</title>
  <g class="cls-1">
    <g id="Layer_2" data-name="Layer 2">
      <g id="Layer_1-2" data-name="Layer 1">
        <g>
          <g>
            <ellipse cx="99.23" cy="626.75" rx="99.23" ry="8.17"/>
            <path class="cls-2" d="M49.64,579.09c3.64,12.39,8.3,47.93,8.3,47.93h7.27l-.46-11.09"/>
            <path class="cls-3" d="M117.5,283.61a32,32,0,0,1-3.29.68c-16.67,2.49-33.85-5.4-33.09-22.24,2.41-53.69-10-75.19-21.18-78.35L141,190.82l0-.15A162,162,0,0,0,138.51,251C140.83,266.55,132.37,279.7,117.5,283.61Z"/>
            <path d="M139.52,270.74a14.09,14.09,0,0,1,2-2.74,22.89,22.89,0,0,1,2.27-2.16,26,26,0,0,1,4.87-3.23c3.41-1.62,6.88-3,10.28-4.49s6.78-2.87,10.06-4.34a88.44,88.44,0,0,0,9.29-4.66,28.89,28.89,0,0,0,6.88-5.39,7.57,7.57,0,0,0,1.41-2.21,1.55,1.55,0,0,0,.11-.57l0-1.32a56.65,56.65,0,0,0-1.31-9.8,73.74,73.74,0,0,0-3-9.88,77.89,77.89,0,0,0-9.93-18.13,53.5,53.5,0,0,0-14-13.29c-5.16-3.15-10.46-4.83-15.54-4.7a29.25,29.25,0,0,0-15.06,4.76,16.32,16.32,0,0,1-17.08-27.81,17.36,17.36,0,0,1,2.59-1.29l.68-.26a72.1,72.1,0,0,1,15.08-4.13,55.08,55.08,0,0,1,8-.68,51.27,51.27,0,0,1,8.12.42,57.24,57.24,0,0,1,15.44,4.26,61.64,61.64,0,0,1,13.1,7.82,81.15,81.15,0,0,1,18.88,21,103.46,103.46,0,0,1,11.42,24.43,96.54,96.54,0,0,1,3.27,13.13,77.2,77.2,0,0,1,1.24,13.9l0,1.82a24.46,24.46,0,0,1-1.67,8,26.69,26.69,0,0,1-2.12,4.39,35.38,35.38,0,0,1-2.47,3.66,61.92,61.92,0,0,1-10.74,10.61,100.16,100.16,0,0,1-22.61,13.59c-7.91,3.09-15.42,7.12-25.39,3.67a9,9,0,0,1-5.58-11.49,9.67,9.67,0,0,1,.55-1.28Z"/>
            <path class="cls-2" d="M114.1,579.09c3.64,12.39,8.3,47.93,8.3,47.93h7.27l-.94-22.52"/>
            <path class="cls-2" d="M117.87,555.54a33.74,33.74,0,0,0-3.81,23.55c2.73,13.57,31,50.28,48.36,50.28H175a5.72,5.72,0,0,0,5.34-3.76c2.54-6.51-2.78-19.08-13.65-19.64-7-17.3-16.93-26.88-23.09-39"/>
            <path class="cls-2" d="M81.53,314.27l30.32,115.32S88.32,477,122.73,548.84c-14.27,15.11,1.47,28.5,1.47,28.5s42.19,41.24,35.13,14.53a89.86,89.86,0,0,1-13.35-38c-8.35-70.22,6.18-185.17,6.18-185.17Z"/>
            <path class="cls-2" d="M54.44,555.54a31.28,31.28,0,0,0-4.32,23.55c3,13.57,17.09,50.28,36.24,50.28h13.92a6.37,6.37,0,0,0,5.92-3.76C109,619.1,106,610.87,98.78,606c-3.87-13.51-14.15-27.9-15.94-39"/>
            <path class="cls-2" d="M49.31,368.71l7.93,60.88S32.57,468.88,58.5,545.45C49.41,561.93,57.73,570,60,574.6c6.52,13.08,31.28,37.45,27.33,16.49-14.22-75.52,26.11-276.82,26.11-276.82Z"/>
            <path class="cls-4" d="M81.32,251.16s-55.73,36.16-32,117.55H152.16S162.25,310.93,139.64,258C105.16,265.87,81.32,251.16,81.32,251.16Z"/>
            <path class="cls-2" d="M98.78,606s-13.54-3.7-22.87,2.27"/>
            <ellipse class="cls-3" cx="113.77" cy="183.43" rx="44.4" ry="29.75" transform="translate(-9.98 6.58) rotate(-3.17)"/>
            <path class="cls-2" d="M166.72,606c-7.7.65-10,2.27-10,2.27"/>
            <path d="M98,166.65c0,.06-.1.19-.18.28l-.31.29c-.21.2-.43.42-.65.61-.44.39-.9.78-1.36,1.16-.91.76-1.83,1.49-2.75,2.21-1.82,1.44-3.64,2.8-5.43,4.13L82,179.25c-1.76,1.27-3.49,2.55-5.12,4A66.1,66.1,0,0,0,61,202.91a69.57,69.57,0,0,0-7.5,25.39A95.65,95.65,0,0,0,55,256.52a24.17,24.17,0,0,0,.67,2.92,11.56,11.56,0,0,0,.73,1.9c.21.41.39.54.13.2a3.59,3.59,0,0,0-.82-.7,5.18,5.18,0,0,0-1.55-.66,5,5,0,0,0-1.92-.12c-.09,0,.27-.16.75-.51a25,25,0,0,0,3.76-3.43,79.85,79.85,0,0,0,8-10.75c1.26-2,2.49-4,3.67-6.13s2.29-4.25,3.39-6.42C74,228.46,76.08,224,78,219.46s3.6-9.16,5.19-13.81a198.81,198.81,0,0,0,7.37-28.36,16.29,16.29,0,1,1,32.1,5.58,18.21,18.21,0,0,1-.67,2.59l-.1.25c-3.73,10.48-7.82,20.64-12.47,30.53-2.29,4.95-4.7,9.84-7.27,14.66S96.9,240.5,94,245.2c-1.43,2.35-2.91,4.68-4.46,7s-3.1,4.63-4.77,6.92A101.55,101.55,0,0,1,73.3,272.54,47.32,47.32,0,0,1,65.1,279a26.89,26.89,0,0,1-6.27,2.79,20.64,20.64,0,0,1-4.35.77,17.73,17.73,0,0,1-5.24-.43A17.27,17.27,0,0,1,44.1,280a18,18,0,0,1-3.81-3.16,22.73,22.73,0,0,1-4-6.3,34,34,0,0,1-1.82-5.44c-.43-1.66-.73-3.43-.93-4.68A167.14,167.14,0,0,1,31,226.75c.14-2.88.34-5.78.7-8.68s.81-5.82,1.42-8.72a84.57,84.57,0,0,1,5.51-17.15A75.1,75.1,0,0,1,61,163.57a78.69,78.69,0,0,1,7.45-5.18,48.14,48.14,0,0,1,8.13-3.89,44,44,0,0,1,8.71-2.29,38.23,38.23,0,0,1,4.57-.42c.77,0,1.55,0,2.35,0,.4,0,.8,0,1.22.08l.63.05c.24,0,.4.06.76.06A7.5,7.5,0,0,1,98,166.65Z"/>
            <path class="cls-4" d="M94.16,156.93l16.77-42.79,19,.33-3.31,44.37s-3.77,24.49-14.78,24.59C81.53,183.7,94.16,156.93,94.16,156.93Z"/>
            <ellipse class="cls-4" cx="120.42" cy="99.29" rx="48.25" ry="33.01" transform="matrix(1, -0.06, 0.06, 1, -5.43, 6.98)"/>
            <path class="cls-4" d="M160.56,98c-.95,10.08-10.08,17.47-18.81,16.65s-14-9.56-13-19.65,7.72-17.69,16.46-16.87S161.51,87.92,160.56,98Z"/>
            <path class="cls-4" d="M133,95.41c-.95,10.09-10.08,17.47-18.81,16.65s-14-9.56-13-19.64,7.72-17.69,16.46-16.87S133.92,85.33,133,95.41Z"/>
            <path class="cls-6" d="M127,66.47s11.2-42.64,26.46-64.15c1-1.44,3.07-1.19,3,.57l.12,75.7"/>
            <path class="cls-6" d="M81,86.08c2.89-7,3.2-39,31.89-83.83.95-1.48,3.07-1.19,3,.58L116,71.06"/>
            <path class="cls-3" d="M133.19,111.37c-.09,1.91-4.21,5.25-5.24,5.2s-4.8-3.77-4.71-5.68,2.35-2.38,5.1-2.24S133.29,109.46,133.19,111.37Z"/>
            <path class="cls-7" d="M124.64,90.26a21.49,21.49,0,0,1,.62,6.95,22.26,22.26,0,0,1-3.2,9.49,22.33,22.33,0,0,1-1.58-9.89,22,22,0,0,1,1.87-7"/>
            <path class="cls-7" d="M153.41,99.64a22.34,22.34,0,0,1-3.2,9.49,20.91,20.91,0,0,1,1.62-19.38A22.33,22.33,0,0,1,153.41,99.64Z"/>
            <path class="cls-8" d="M116.37,67c8.94-1.11,17.47-.47,29.41,3.46"/>
            <g>
              <path class="cls-2" d="M106.49,154.28s3.63-15.72,1.53-25.3,9.36-6.43,10.37,14.22"/>
              <path class="cls-2" d="M141,166.65a42.41,42.41,0,0,1-7.14,11.24c-8.4,9.57-27.32,12.68-32.83,3.63-4.69-7.71.94-37.91,41-57.36,16.12-7.84,20.45.11,4.64,7.3-7.41,3.37-11,10.59-11,10.59"/>
              <path class="cls-2" d="M128.3,141.68s11.63-5,18.2,3.49-.2,14.81-.2,14.81"/>
              <path class="cls-2" d="M136.06,167.09s11.11,5.69,11.55-3.92-9-19.15-17.53-12.83"/>
              <path class="cls-2" d="M134,160.87s7.84-3.6,10.78,6c3.08,10-6,12.26-6.69,7.78-.91-6.16-4.36-2.64-4.36-2.64"/>
            </g>
          </g>
          <path d="M53.19,359.13a84.8,84.8,0,0,1-3.86-18.91c-.34-3.21-.47-6.43-.52-9.65l0-4.84.31-4.83c.07-1.61.36-3.2.55-4.8s.38-3.2.73-4.78l.93-4.75c.34-1.57.79-3.12,1.19-4.68.72-3.14,1.86-6.16,2.86-9.22.46-1.55,1.16-3,1.75-4.5L59,283.7l.37.17-.44,2.42-.5,2.38c-.31,1.59-.81,3.1-1,4.7l-1,4.67c-.36,1.54-.6,3.1-.86,4.65L55.22,305c-.13.77-.34,1.53-.43,2.31L54.16,312c-.26,1.54-.42,3.09-.58,4.63s-.4,3.09-.44,4.65l-.4,4.65c-.06,1.55-.06,3.11-.17,4.66-.15,3.12-.11,6.24-.11,9.37.1,6.28.43,12.58,1.11,19.07Z"/>
          <path class="cls-2" d="M113.77,120.92S124,118.31,127,125.49"/>
          <path class="cls-9" d="M101,89.75s19.4-3.67,32,4.06"/>
          <path class="cls-10" d="M70.67,270.19c4.3-6.95,8.87-13.65,13.49-20.3,2.27-3.36,4.66-6.62,7-9.95s4.7-6.58,7-9.9,4.66-6.58,7-9.88,4.55-6.64,6.81-10,4.4-6.72,6.32-10.2a41.6,41.6,0,0,0,2.6-5.33,13.26,13.26,0,0,0,.81-2.79,3.82,3.82,0,0,0-.35-2.74l0,0a.16.16,0,0,1,0-.21.14.14,0,0,1,.19,0,4.19,4.19,0,0,1,.82,3,14.12,14.12,0,0,1-.51,3,39,39,0,0,1-2.15,5.72,117.69,117.69,0,0,1-5.73,10.75c-4.16,7-8.69,13.72-13.35,20.36-9.43,13.22-19.37,26-29.65,38.61a.14.14,0,0,1-.21,0,.14.14,0,0,1,0-.19Z"/>
          <path class="cls-9" d="M72.2,327.26l-.57-165.85a1.92,1.92,0,0,0-3.62-.87c-10.29,20.17-39.18,84.08-39.65,166.72"/>
          <rect class="cls-4" x="17.34" y="327.26" width="78.76" height="60.75" rx="21.13" ry="21.13"/>
          <rect class="cls-4" x="8.58" y="327.26" width="78.76" height="60.75" rx="21.13" ry="21.13"/>
          <path class="cls-9" d="M9.35,342.73s36.91,49.73,77.22,0h8.76"/>
          <rect class="cls-4" x="45.03" y="358.64" width="7.52" height="12.48" rx="3.76" ry="3.76"/>
          <path class="cls-4" d="M144.2,260.3c-22.79.9-30.18,8-26.4,13.12-6,2.24-4.74,10.4-.76,11.32-1.69,5.57,2.81,8,5.4,7.59-.31,5.88,31.29,5.25,40.41-12.34s-17.93-26.76-17.93-26.76"/>
          <path class="cls-4" d="M153.18,257s-13.77-14.38-15.4-13.63-2.3,8.47,6.42,17"/>
          <path class="cls-4" d="M117.8,273.42s1.89,3.22,24.25-3.47"/>
          <path class="cls-4" d="M117,284.74s17.81-1.64,27.19-6"/>
          <path class="cls-4" d="M122.44,292.33s11.15-.62,20.76-4.62"/>
        </g>
      </g>
    </g>
  </g>
</svg>
