<?xml version="1.0" encoding="utf-8"?>
<!-- Generator: Adobe Illustrator 22.0.1, SVG Export Plug-In . SVG Version: 6.00 Build 0)  -->
<svg version="1.1" id="Layer_1" xmlns="http://www.w3.org/2000/svg" xmlns:xlink="http://www.w3.org/1999/xlink" x="0px" y="0px"
	 width="901.5px" height="851.8px" viewBox="0 0 901.5 851.8" style="enable-background:new 0 0 901.5 851.8;" xml:space="preserve"
	>
<style type="text/css">
	.st0{clip-path:url(#SVGID_2_);}
	.st1{fill:#010101;stroke:#010101;stroke-width:2.1409;stroke-miterlimit:10;}
	.st2{fill:#FFFFFF;stroke:#010101;stroke-width:2.1409;stroke-linecap:round;stroke-linejoin:round;}
	.st3{fill:#FFFFFF;stroke:#010101;stroke-width:2.1409;stroke-miterlimit:10;}
	.st4{fill:none;stroke:#010101;stroke-width:2.1409;stroke-miterlimit:10;}
	.st5{fill:#010101;stroke:#010101;stroke-width:2.1409;stroke-linecap:round;stroke-miterlimit:10;}
	.st6{fill:none;stroke:#FFFFFF;stroke-width:1.6469;stroke-linecap:round;stroke-miterlimit:10;}
	.st7{fill:#010101;stroke:#010101;stroke-width:2.1409;stroke-linecap:round;stroke-linejoin:round;}
	.st8{fill:none;stroke:#FFFFFF;stroke-width:1.6469;stroke-linecap:round;stroke-linejoin:round;}
	.st9{fill:none;stroke:#010101;stroke-width:2.1409;stroke-linecap:round;stroke-linejoin:round;}
	.st10{fill:#FFFFFF;}
	.st11{fill:#010101;}
	.st12{fill:#FFFFFF;stroke:#010101;stroke-width:2.1409;stroke-linecap:round;stroke-miterlimit:10;}
	.st13{fill:none;stroke:#010101;stroke-width:2.1409;stroke-linecap:round;stroke-miterlimit:10;}
	.st14{fill:#010101;stroke:#FFFFFF;stroke-width:2.1409;stroke-linecap:round;stroke-linejoin:round;}
	.st15{fill:none;stroke:#010101;stroke-width:4.9406;stroke-linecap:round;stroke-linejoin:round;}
	.st16{fill:#4978BC;stroke:#010101;stroke-width:2.1409;stroke-linecap:round;stroke-linejoin:round;}
	.st17{fill:#010101;stroke:#010101;stroke-width:2.1327;stroke-linecap:round;stroke-linejoin:round;}
	.st18{fill:none;stroke:#010101;stroke-width:4.9406;stroke-linejoin:round;}
	.st19{fill:#FFFFFF;stroke:#010101;stroke-width:2.1409;stroke-linejoin:round;}
	.st20{fill:none;stroke:#010101;stroke-width:2.1409;stroke-linejoin:round;}
	.st21{fill:#010101;stroke:#010101;stroke-width:2.1409;stroke-linejoin:round;}
	.st22{fill:none;stroke:#010101;stroke-width:4.1172;stroke-linecap:round;stroke-linejoin:round;}
</style>
<g>
	<defs>
		<rect id="SVGID_1_" x="-1" y="0.8" width="902.4" height="851"/>
	</defs>
	<clipPath id="SVGID_2_">
		<use xlink:href="#SVGID_1_"  style="overflow:visible;"/>
	</clipPath>
	<g id="Layer_2_2_" class="st0">
		<g id="Layer_1-2_1_">
			<rect x="318.1" y="344.4" class="st1" width="227.9" height="109.1"/>
			<rect x="583.2" y="303.3" class="st2" width="24.9" height="269.8"/>
			<rect x="284.4" y="303.1" class="st3" width="302" height="269.8"/>
			<line class="st4" x1="291" y1="398.5" x2="346.3" y2="303.3"/>
			<line class="st4" x1="346.8" y1="398.5" x2="402.2" y2="303.3"/>
			<line class="st4" x1="402.7" y1="398.5" x2="458" y2="303.3"/>
			<line class="st4" x1="458.5" y1="398.5" x2="513.8" y2="303.3"/>
			<line class="st4" x1="514.3" y1="398.5" x2="569.6" y2="303.3"/>
			<line class="st4" x1="286.3" y1="398.5" x2="608" y2="398.5"/>
			<path class="st3" d="M415.3,398.5c0-17.9,8.2-33.3,20.2-40.5c-3.7-1.8-7.8-2.7-11.9-2.7c-18.9,0-34.1,19.4-34.1,43.2
				s15.3,43.2,34.1,43.2c4.1,0,8.2-0.9,11.9-2.7C423.6,431.8,415.3,416.3,415.3,398.5z"/>
			<path class="st1" d="M457.7,398.5c0-18.6-9.2-34.3-22.2-40.5c-11.9,7.2-20.2,22.6-20.2,40.5c0,18,8.2,33.3,20.3,40.5
				C448.5,432.9,457.7,417.1,457.7,398.5z"/>
			<path class="st3" d="M510,398.5c0-10.5,5-19.4,12.3-23.1c-2.3-1.2-4.9-1.8-7.4-1.8c-10.9,0-19.8,11.2-19.8,25
				c0,13.8,8.8,25,19.8,25c2.6,0,5.2-0.7,7.4-1.8C515.1,418,510,409,510,398.5z"/>
			<ellipse class="st1" cx="522.3" cy="398.5" rx="12.3" ry="23.1"/>
			<path class="st3" d="M321.7,398.5c0-10.5,5-19.4,12.3-23.1c-2.3-1.2-4.9-1.8-7.4-1.8c-10.9,0-19.8,11.2-19.8,25
				c0,13.8,8.8,25,19.8,25c2.6,0,5.2-0.7,7.4-1.8C326.7,418,321.7,409,321.7,398.5z"/>
			<ellipse class="st1" cx="334" cy="398.5" rx="12.3" ry="23.1"/>
			<path class="st3" d="M334.6,440.4c-3,3-7.2,2.8-7-1.5c0.6-11.1,6.6-26,0.6-21.8c-7.2,5-3.2,25.9-2.9,31.5
				c0.3,6.5-6.9,5.5-6.9,5.5s-0.1,0.7-2.6,2c-2.2,1.3-6.2,1.6-10.3-2.6c-1.3,1.3-7.6,1.8-9.5-5.6c-9-0.9-7.1-16.5-3.4-35
				c3.2-16.1,15.4-22.3,23.5-23.7c8.5-1.6,17.2-1.7,25.8-0.7C346.8,401.4,341.9,433.1,334.6,440.4z"/>
			<path class="st3" d="M318.3,454.2c0,0-7.2-1.5-3.9-28.5"/>
			<path class="st3" d="M305.5,453.6c-2.7-8.6-1.1-29-1.1-29"/>
			<path class="st3" d="M296.1,448.1c0,0-1.3-16.5,0.6-24.2"/>
			<rect x="588.2" y="392.5" class="st3" width="19.6" height="12.6"/>
			<path class="st3" d="M454.7,416.3c0,0-17.9-5.5-48.3,12.2c-27.7,16.1-58.7,13.2-59.9,1.6c32.7-22,17-76.8,19.3-86
				c2.2-9.1,14.4,19.5,14.4,19.5s9.6-0.4,15.2-1.5c-0.5-12.5-0.5-34.7,7.1-20.3c1.3,2.4,4.6,13.8,5.7,15.9
				c6.8,14.4,23.9,20.7,38.3,14c1.8-0.9,3-1.5,3-1.5S464.3,388.6,454.7,416.3z"/>
			<ellipse class="st1" cx="374.7" cy="395.7" rx="2.8" ry="5.8"/>
			<ellipse class="st1" cx="389.9" cy="395.7" rx="2.8" ry="5.8"/>
			<path class="st5" d="M381.4,397.9c0,5.9-3.5,7.2-3.5,7.2"/>
			<path class="st5" d="M397.1,397.9c0,5.9-3.5,7.2-3.5,7.2"/>
			<path class="st6" d="M374.5,391.8c0,0-1.5,0.6-1,6"/>
			<path class="st6" d="M389.6,391.5c0,0-1.5,0.6-1,6"/>
			<circle class="st1" cx="347.7" cy="428.5" r="4.4"/>
			<path class="st1" d="M608.1,332.6c0,0,45.5,3.9,47.3,57.4s-47.5,93.9-47.5,93.9L608.1,332.6z"/>
			<path class="st3" d="M657.5,523.1c0,0,9.5-0.3,2.7,14.9c-6.3,14.3-21.7,12.8-27.4,21.7c-4.5,7.1,0,13.2,16.6,13.2
				c18.5,0,25,0.1,35.7-15.6c22.2-32.9,12.1-78.4-9.2-81.4c-13.3-1.8-18.3,15.4-18.3,15.4l-7.4,2.2"/>
			
				<ellipse transform="matrix(0.9756 -0.2195 0.2195 0.9756 -95.3615 156.3698)" class="st3" cx="656" cy="507.3" rx="10.3" ry="21"/>
			<path class="st1" d="M608,493c0,0,29.8-11,37.7-6.7c7.9,4.4,15.6,43,9.8,46.5S608,547.1,608,547.1L608,493L608,493z"/>
			<path class="st3" d="M413.3,400c8.2-1.4,8.4,9.7,2.6,16.4c-5.4,6.3-11.2,5.8-12.8,2.9c-2.6-4.8,2.4-6.7,4.4-10.3
				C409,406.2,409.5,400.6,413.3,400z"/>
			<path class="st3" d="M494.7,395.7c0,0-19.8,6.1-24.3,12.5c-4.4,6.4,13.3,2.6,13.3,2.6"/>
			<path class="st3" d="M530.8,408.2c0,0-3.2-1.2-8.4,6.3c-5,7.3,0.3,24,1.2,29.6c1.1,6.4-6.6,6.3-6.6,6.3s-0.7,4.4-3.1,6.1
				c-2.2,1.5-6.3,2.3-11-1.5c-1.2,1.5-7.7,2.6-10.5-4.6c-9.5,0-9.5-13.2-9.5-31.9s16.1-26.3,24.3-28.4c14.8-4,22,1.5,22,1.5
				C536.5,398.5,530.8,408.2,530.8,408.2z"/>
			<path class="st3" d="M517,450.4c0,0-7.7,0.7-7.7-24.1"/>
			<path class="st3" d="M502.8,455c-3.8-8.2-4.2-28.7-4.2-28.7"/>
			<path class="st3" d="M492.3,450.4c0,0-3-16.3-2-24.1"/>
			<path class="st3" d="M606.2,392.5c2.7,0,4.9,2.8,4.9,6.3s-2.2,6.3-4.9,6.3"/>
			<path class="st3" d="M601.6,392.5c2.7,0,4.9,2.8,4.9,6.3s-2.2,6.3-4.9,6.3"/>
			<path class="st3" d="M593.7,392.5c2.7,0,4.9,2.8,4.9,6.3s-2.2,6.3-4.9,6.3"/>
			<path class="st3" d="M228,383c0,0-16.9-2.7-29.1,6.2c-16.8,12.3-8,59.2,26.6,72.9c28.7,11.4,59,1.5,59,1.5v-16.4
				c0,0-34.9,10.3-55.1-0.5c-14.1-7.5-21.6-33.8-17.3-36.3c6.5-3.8,24.4-0.4,72.5,19.4l-0.2-74.9c-37.9-16.6-52,21.5-52,21.5"/>
			<path class="st3" d="M203.9,343.1c0,0,7.6,28.2,19,38.2c11.4,10,10.5-5.5,10.5-5.5s-13.7-5.8-13.5-25"/>
			<path class="st3" d="M196.6,318c2.1,25.8,12.8,47.7,25.6,46.6c12.8-1.1,23.1-24.6,21-50.4c-2.1-25.8-13.1-32.6-26-31.5
				C204.2,283.7,194.5,292.3,196.6,318z"/>
			
				<ellipse transform="matrix(0.9887 -0.1499 0.1499 0.9887 -44.3278 39.6998)" class="st7" cx="241.2" cy="313.9" rx="6.5" ry="9.4"/>
			
				<ellipse transform="matrix(0.9889 -0.1488 0.1488 0.9889 -44.461 36.568)" class="st7" cx="222.2" cy="315.4" rx="6.5" ry="9.4"/>
			<polyline class="st8" points="217.6,318.9 222.5,312.5 223.3,318 227.5,313.1 			"/>
			<polyline class="st8" points="235.2,317 240.4,310.2 241.3,315.7 245.1,311.2 			"/>
			<path class="st3" d="M232.9,329.7c5.1,5.6,10.8,8.7,12.8,7c2-1.7-0.6-7.8-5.6-13.4c-5-5.6-9.6-6.9-11.6-5.1
				C226.5,320,227.8,324.1,232.9,329.7z"/>
			
				<ellipse transform="matrix(7.155670e-03 -1 1 7.155670e-03 -78.923 514.83)" class="st2" cx="219.8" cy="297.2" rx="11" ry="70.7"/>
			<path class="st2" d="M244.7,296.2c0,0-7.1,4.6-28.6,4c-16.9-0.5-21.9-4.9-21.9-4.9c0.2-13.9,9.8-25,23.6-26.6
				C234.5,266.8,245,282.3,244.7,296.2z"/>
			<path class="st9" d="M210.1,333.2c8.4,4.8,18.6,5.2,27.3,1.1"/>
			<path class="st10" d="M646.9,418.3c0.5-8.3,1-16.4,0.6-24.5l-0.2-3c0-0.5,0-1-0.1-1.5l-0.2-1.5l-0.3-3l-0.5-2.9
				c-0.6-3.9-1.6-7.6-2.8-11.3c-2.4-7.3-6.3-14.1-11.4-19.8c-5.4-5.9-11.9-10.7-19.1-14.2h-0.1c-0.1-0.1-0.2-0.2-0.1-0.2l0,0
				c0-0.1,0.1-0.2,0.2-0.1c0,0,0,0,0.1,0c12.1,3.5,22.5,11.3,29.1,22c2.1,3.5,4,7.3,5.3,11.2c0.3,1,0.7,2,1,3l0.8,3
				c0.2,1,0.4,2,0.6,3l0.3,1.5c0.1,0.5,0.2,1,0.2,1.5l0.4,3l0.2,3.1c0.2,2.1,0.1,4.2,0.1,6.2c-0.2,8.2-1.4,16.5-3.4,24.5
				c0,0.1-0.2,0.2-0.2,0.2C647.1,418.6,647,418.5,646.9,418.3L646.9,418.3z"/>
			<path class="st3" d="M337,322L337,322c-0.9,0-1.8-0.2-2.6-0.7s-1.6-1-2.1-1.7c-0.6-0.7-0.9-1.6-1.1-2.5c-0.2-1.4-0.2-2.6-0.4-3.8
				c-0.2-1.1-0.2-2.2-0.2-3.3c0-1.1-0.1-2.1-0.1-3v-3c0-1.1,0.1-2.1,0.2-3.3c0.1-1.2,0.2-2.4,0.3-3.8c0.1-0.9,0.4-1.7,1-2.5
				c0.6-0.7,1.2-1.3,2.1-1.7s1.7-0.7,2.6-0.7l0,0c1.8-0.1,3.6,0.6,4.9,1.8c-0.3,1-0.5,2.1-0.7,3.1c-0.2,1.4-0.2,2.6-0.3,3.8
				c-0.1,1.2-0.2,2.2-0.2,3.3c0,1.1-0.1,2.1-0.1,3c0,1,0,2,0.1,3c0.1,1.1,0.1,2.1,0.2,3.3c0.1,1.2,0.2,2.6,0.4,3.8
				c0.2,1.2-0.2,2.6-1,3.5C339.4,321.6,338.2,322.1,337,322z"/>
			<path class="st3" d="M347.6,323.5L347.6,323.5c-1,0-2-0.2-2.8-0.7c-0.8-0.5-1.6-1.1-2.2-1.8c-0.6-0.8-1-1.7-1.2-2.6
				c-0.2-1.5-0.3-3-0.5-4.3c-0.2-1.3-0.2-2.6-0.2-3.8c-0.1-1.2-0.1-2.3-0.1-3.5s0-2.3,0.1-3.5c0.1-1.2,0.2-2.4,0.2-3.8
				c0.1-1.4,0.2-2.7,0.5-4.3c0.2-1,0.6-1.9,1.2-2.6c0.6-0.8,1.3-1.4,2.2-1.8c0.8-0.5,1.8-0.7,2.8-0.7l0,0c3.7,0,5.9,0.9,6.8,1.8
				c0,0-2.1,2-2.3,3.5s-0.3,2.9-0.5,4.3c-0.2,1.4-0.2,2.6-0.2,3.8c-0.1,1.2-0.1,2.3-0.1,3.5c0,1.2,0,2.3,0.1,3.5
				c0.1,1.2,0.2,2.4,0.2,3.8c0.1,1.4,0.2,2.7,0.5,4.3c0.2,1.3-0.2,2.6-1,3.7C350.1,323,348.9,323.5,347.6,323.5z"/>
			<path class="st3" d="M358,323.5L358,323.5c-1,0-1.9-0.2-2.7-0.7c-0.8-0.5-1.6-1.1-2.1-1.8c-0.6-0.8-1-1.7-1.2-2.6
				c-0.2-1.5-0.3-2.9-0.5-4.2c-0.2-1.3-0.2-2.5-0.2-3.7c-0.1-1.2-0.1-2.3-0.1-3.5s0-2.2,0.1-3.5c0.1-1.2,0.1-2.4,0.2-3.7
				s0.2-2.6,0.4-4.2c0.2-1,0.5-1.8,1.1-2.6c0.6-0.7,1.3-1.4,2.1-1.8c0.8-0.5,1.7-0.7,2.7-0.7l0,0c5.4,0,6.6,2.1,7.3,3.1
				c-2.1,1.4-3.3,3.7-3.4,6.2c0,1.3-0.2,2.5-0.2,3.7s-0.1,2.3-0.1,3.5c0,1.2,0,2.2,0.1,3.5c0.1,1.2,0.2,2.4,0.2,3.7
				c0.1,1.3,0.2,2.6,0.5,4.2c0.2,1.3-0.2,2.6-1,3.7C360.6,323,359.3,323.5,358,323.5z"/>
			<path class="st3" d="M367.3,322L367.3,322c-1.2,0-2.4-0.5-3.4-1.3c-1-0.8-1.6-1.9-1.7-3.1c-0.2-1.5-0.3-3-0.4-4.3
				c-0.1-1.3-0.2-2.5-0.2-3.7c0-1.2-0.1-2.3,0-3.5c0.1-1.2,0-2.4,0.1-3.7c0.1-1.3,0.2-2.7,0.3-4.3c0.2-1.2,0.7-2.3,1.6-3.1
				c0.9-0.8,2.1-1.3,3.4-1.3l0,0c4.9,0,9.4,4.2,10.1,9.6h-6.8c-0.1,1.3,0.3,8.8,0.4,10.1c0.1,1.3,0.2,2.7,0.4,4.3
				c0.2,1.2-0.2,2.2-0.9,3.1C369.6,321.7,368.5,322.1,367.3,322z"/>
			<path class="st3" d="M330.5,300.8c0,0-7.9-11.6-12.9-7.2c-4,3.5,2,9.7,2,9.7h10.8L330.5,300.8z"/>
			<ellipse class="st3" cx="588.2" cy="398.8" rx="4.9" ry="6.3"/>
			<ellipse class="st3" cx="588.2" cy="398.8" rx="1.5" ry="1.9"/>
			<path class="st3" d="M653.5,546.8c0,0,7.9-1.6,15.1,2.7"/>
			<path class="st3" d="M660.2,538c0,0,8.6-2.6,14.7,1.9"/>
			<path class="st3" d="M662.6,529.9c5.4-2,11.3-2,16.6,0"/>
			<path class="st11" d="M223.5,405.3c2.7,0.1,5.4,0.4,8,1c1.3,0.2,2.6,0.5,4,0.8c1.3,0.3,2.6,0.6,4,0.9c5.2,1.3,10.3,2.8,15.5,4.4
				c2.6,0.8,5.1,1.6,7.6,2.6c2.5,0.9,5,1.7,7.6,2.7s5,1.8,7.5,2.9l7.4,3l-1.3,3l-7.3-3.4c-2.4-1.2-4.9-2.1-7.3-3.2
				c-2.5-1.1-4.9-2.1-7.3-3.1c-2.4-1.1-4.9-2-7.4-3c-4.9-1.9-10-3.6-15.2-5.2c-1.3-0.4-2.6-0.8-3.9-1.2c-1.3-0.3-2.6-0.7-4-1
				C228.7,406,226.1,405.6,223.5,405.3z"/>
			<line class="st4" x1="-141.5" y1="722.2" x2="1050" y2="722.2"/>
			<rect x="48.5" y="585.2" class="st3" width="880.4" height="136.9"/>
			<rect x="755.3" y="608" class="st3" width="139.4" height="12.3"/>
			<rect x="777.2" y="644.2" class="st3" width="139.4" height="12.3"/>
			<rect x="799.1" y="680.5" class="st3" width="139.4" height="12.3"/>
			<rect x="803.9" y="608" class="st2" width="139.4" height="12.3"/>
			<rect x="825.8" y="644.2" class="st2" width="139.4" height="12.3"/>
			<rect x="847.7" y="680.5" class="st2" width="139.4" height="12.3"/>
			<rect x="0.2" y="573" class="st3" width="1001.8" height="12.2"/>
			<rect x="752.5" y="573" class="st2" width="249.3" height="12.3"/>
			<polygon class="st10" points="725.8,495.3 703,472.8 714.4,438.7 756.9,404.2 878,432 873.6,483 			"/>
			<path class="st7" d="M879.8,464.5c4.3,44.5,6.9,98.7,9.6,143.4l-64.3,0.1c-18.9-0.2,9.1-22.7,20.3-17
				c-2.6-25.3-14.7-57.3-17-82.8c-11.6,0-51.5-4-50.7,7.6c1.6,21.6,5,34.3,4.9,56.9l-56.2,0.1c-25.3,0,4.9-22.4,16.2-16.8
				c-8.7-22.2-7.6-28.9-7.6-28.9"/>
			<path class="st3" d="M855.2,470.4c3.2,9.6,3.2,28.1,3.2,28.1l26-0.5l0.8,9.8l-26.2,1c0,0,0.3,37.3,7.7,58.1
				c-84.4-1-84.7-47.4-131.6-33.3c-12.3-24.6-16.8-59.5,13.2-62.3"/>
			<path class="st1" d="M788.4,467.8c1.5,2.2,2.9,4,4.4,6.5c12.8,8,37.2,21.1,42.5,32.9c5.2,11.8,22,4.6,23-4.1
				c-26.1-18.8-44.9-31.3-62.7-44.6C798.8,460.8,790.8,464.7,788.4,467.8z"/>
			<path class="st3" d="M731.4,415.4c-21.9,13.3-41.1,59-25.3,81.2c12.5,17.6,28.4,18.3,41.7,15.1c8.8-2.1,4.7-6.4,8.5-9.5
				c2.8-1.8,4.8-4.7,5.3-8c0.2-2.3-0.6-6.5-2.8-7.9c1.4-3.8,3.3-3.1,0.7-8.8c-1.3-2.9-11.9-7.7-16.9-5.8c-0.8-3.2,1.5-3.2,0.1-6.8
				c-1.5-3.6-15.2-0.7-16.3,2.5"/>
			<path class="st3" d="M853.9,436.1l13.1,11.4c-18.1,0.6-35.3,14.2-44.2,14.9c-7.2-5.7-13.1-5.5-22.8-1.6c0,0,4.2,3.3,7.2,5.8
				c-5.1,4-7.7,15.6-15.7,8.1c-1.2,3-1.5,6.3-1.2,9.5c0.2,2,1.9,2.6,2.5,4.3s0,4.6,0.8,5.8c1.6,2.6,3.5,4.8,5.8,6.8
				c1.6,1.5,4.4,1.8,6.8,3c1.6,0.9,2.7,2.6,4.9,3.3c8.2,2.6,16.1-4,26.3-5.4c29.4-4.1,76.6-7.6,82.3-51.6
				c6.4-49.3-75.6-69.5-93.7-67.4c-45.3,5.4-67.9,9-94.4,32.7"/>
			
				<ellipse transform="matrix(0.9892 -0.1468 0.1468 0.9892 -60.9538 114.2371)" class="st3" cx="743.5" cy="470.1" rx="11.9" ry="6.2"/>
			<path class="st3" d="M768.3,480.5c11.8-10,31.2-19.1,31.2-19.1l-134.4-99c9.5,26.6,24.4,52,45.2,70.2
				C729.8,449.6,747.2,463.5,768.3,480.5z"/>
			<path class="st3" d="M747.3,468.4l-24.2-133.6l-3.6,0.7l19.1,135.2C742.2,470.9,745.5,470.2,747.3,468.4z"/>
			<path class="st2" d="M832.4,384.7c-6-22.2-18.5-65.9-18.5-65.9c12.7-4.2,21.5-11.8,16.6-26.2c-3.5-10.3-15.2-13.1-24.8-8.6
				c-1.6-8.2-7.7-14-16.5-14c-17.5,0-24.5,16.3-24.5,16.3c-14.2-6.8-26.3-4.7-32.5,3.9c-4.9,6.8-0.2,17.7,5.8,22.6
				c-10.3,7.1-15.5,16-9.1,24.1c7.5,9.6,21.3,3.9,21.3,3.9c4.2,19,15,59,15,59C780.4,416.7,813.6,398.1,832.4,384.7z"/>
			<path class="st4" d="M855.5,387.1c-21.9,7.3-25.1,37.9-9.1,59.2"/>
			<path class="st3" d="M847.8,385.1c-16.1,4.5-24.6,20-24.9,37.9c-17.9,6.3-54.4,7.3-70.3,3.9"/>
			<path class="st3" d="M764,397.4c-4.5,5.2-9.6,14.7-11.4,29.4"/>
			<path class="st7" d="M770.2,357.6c1,3.8,2.6,10.8-2.6,11.8c-5.1,1-6.9-6.2-7.7-10c-0.8-3.8-2.6-10.8,2.6-11.7
				C767.5,346.8,769.2,353.8,770.2,357.6z"/>
			<path class="st7" d="M785.2,354.1c1,3.8,2.6,11-2.6,11.9c-5.1,0.8-6.8-6.3-7.7-10c-1-3.8-2.6-10.9,2.6-11.9
				C782.7,343.1,784.2,350.4,785.2,354.1z"/>
			<path class="st2" d="M799.4,379.3c0.9-1,1.6-2.1,2.1-3.4c1.4-3.5,1.2-6.6-2.1-8.8c-3.5-2.5-6.7-1.1-9.5,1.9c-2,2.1-4.1,4-7.5,4.9
				c-2.8,0.7-6.3,2.1-6.6,5.7c-0.3,3.6,2.5,7.1,5.8,7.4C789.4,387.9,794.9,384.5,799.4,379.3z"/>
			<path class="st2" d="M776.1,381.5c10.8,0,19.8-3.1,24-13.6c-1.3-0.7-2.6-1.4-3.9-2c0.9,1.5,1.7,2.9,2.6,4.4l3.4,3
				c-0.4-1.5-0.8-3-1.2-4.4"/>
			<path class="st3" d="M894.2,404.9c0,0-21.8,0.4-34.1,36.6"/>
			<path class="st4" d="M756.9,398c0,0-11.4,11.5-11.4,23.5"/>
			<path class="st2" d="M858.2,474.5c0,0,8.3-7.2,3.4-12.6s-16.1,10.5-19.1,20.4C863.7,491.6,884.2,471.6,858.2,474.5z"/>
			<line class="st9" x1="851" y1="476.7" x2="839.5" y2="472"/>
			<line class="st9" x1="864.5" y1="483.1" x2="872.4" y2="486.3"/>
			<path class="st10" d="M742.7,559.2c-2.6,0.7-4.6,1.2-6.6,1.6c-1.8,0.6-3.6,1.2-5.4,2c-1.7,0.7-3.5,1.6-5.4,2.5
				c-1.9,0.9-4,1.8-6.4,2.8h-0.1c-0.1,0-0.2,0-0.2-0.1l0,0v-0.2c1.3-1.9,3-3.6,4.7-5c1.8-1.5,3.8-2.7,5.9-3.7
				c2.1-0.9,4.4-1.4,6.8-1.5c2.3-0.1,4.6,0.3,6.8,1.2c0.1,0,0.2,0.1,0.1,0.2c0,0,0,0,0,0.1l0,0C742.8,559.1,742.7,559.1,742.7,559.2
				L742.7,559.2z"/>
			<path class="st10" d="M846.5,594.5c-2.6,0.7-4.6,1.2-6.6,1.6c-1.8,0.5-3.6,1.2-5.4,2l-5.4,2.5c-1.9,0.9-4,1.8-6.4,2.8l-0.1,0.1
				c-0.1,0-0.2,0-0.2-0.1v-0.2c1.3-1.9,3-3.6,4.7-5c1.8-1.5,3.8-2.7,5.9-3.7c2.1-0.9,4.4-1.4,6.8-1.5c2.3-0.1,4.6,0.3,6.8,1.2
				c0.1,0,0.2,0.1,0.1,0.2c0,0,0,0,0,0.1l0,0C846.7,594.5,846.7,594.5,846.5,594.5L846.5,594.5z"/>
			<path class="st10" d="M885.9,603.4c-1.8-7.5-3.2-15.2-4.1-22.8c-1-7.6-1.7-15.3-2.2-23c-0.5-7.7-0.7-15.4-0.7-23.1
				c-0.1-7.7,0.3-15.5,1.2-23.2l0,0c0-0.1,0.1-0.2,0.2-0.2l0,0c0.1,0,0.2,0.1,0.2,0.2l0.8,11.5l0.8,11.5l1.5,23.1l1.5,23.1l0.7,11.5
				l0.7,11.5c0,0.1-0.1,0.2-0.2,0.2l0,0C886.1,603.7,886,603.6,885.9,603.4L885.9,603.4z"/>
			
				<ellipse transform="matrix(0.9297 -0.3683 0.3683 0.9297 -126.8517 347.3633)" class="st3" cx="846.6" cy="506" rx="4" ry="3.5"/>
			<path class="st11" d="M810.9,322.1l8.6,30.8l8.3,30.8l-0.3,0.1c-2.4-4.9-4.5-9.8-6.3-14.9c-1-2.5-1.6-5-2.6-7.6
				c-0.9-2.6-1.5-5.1-2.2-7.7s-1.4-5.1-2-7.7s-1.2-5.2-1.6-7.8c-1.1-5.3-1.9-10.6-2.2-16H810.9z"/>
			<path class="st2" d="M1055.1,431.4c0,0,7.3-5.1,10.8,1.3c3.5,6.4-6.1,13.1-10.3,13.5"/>
			<ellipse class="st11" cx="929" cy="780.3" rx="81.7" ry="5.4"/>
			<path class="st2" d="M912.4,748.4c2.1,8.3,4.3,32,4.3,32h4.9v-7.3"/>
			<path class="st7" d="M962.3,549.5c-0.7,0-1.5-0.1-2.2-0.2c-11.2-1.2-21-9.2-17.6-20c10.6-34.3,6.3-50.4-0.4-54.3l51.3,18.4
				l0.1-0.1c-6.3,12-10.4,25.1-11.9,38.6C980.4,542.3,972.6,549.5,962.3,549.5z"/>
			<path class="st11" d="M950.4,427.9c-0.6,0.7-1.2,1.2-1.7,1.8s-1.2,1.1-1.9,1.5c-1.2,0.9-2.6,1.6-4,2.3c-1.3,0.7-2.7,1.2-4.1,1.6
				l-4.1,1.5c-2.7,1-5.4,1.9-8.2,3c-2.7,1.1-5.4,2-7.9,3c-2.6,1-5,2.1-7.4,3.5c-2.2,1.2-4.4,2.6-6.3,4.3c-1.6,1.2-2.9,2.9-3.8,4.6
				l-0.2,0.6l-0.2,0.5c-0.1,0.2-0.1,0.5-0.2,0.7c0,0.1,0.1,0,0-0.3c-0.1-0.5-0.2-0.9-0.5-1.3c-0.2-0.3-0.4-0.6-0.7-0.8
				c-0.1-0.1,0,0,0.2,0c0.8,0.2,1.6,0.4,2.5,0.5c2.6,0.2,5.2,0.3,7.7,0.2c2.8-0.1,5.8-0.2,8.8-0.4l9.3-0.7
				c6.3-0.3,12.9-0.8,20.3-0.2c4.2,0.3,8.4,1.3,12.4,2.9c2.6,1.1,5,2.6,7.2,4.4c2.5,2.1,4.5,4.8,6,7.7c2.6,6.7-0.7,14.2-7.4,16.9
				c-6.4,2.5-13.7-0.4-16.6-6.7c0.2,0.2,0.6,0.4,0.7,0.3c0.2-0.1,0-0.4-0.5-0.7c-1.6-1.1-3.4-1.7-5.3-2.1c-2.6-0.6-5.2-1-7.7-1.3
				c-2.8-0.3-5.7-0.5-8.6-0.6l-9.1-0.2c-3.1-0.1-6.3-0.1-9.6-0.3c-3.5-0.2-7.1-0.6-10.5-1.2c-2.2-0.4-4.4-1.1-6.4-1.9
				c-1.3-0.6-2.6-1.3-3.8-2.2c-1.5-1.1-2.8-2.5-3.8-4.1c-1.1-1.7-1.7-3.6-2.1-5.6c-0.2-1.6-0.2-3.3,0-4.9c0.2-1.2,0.6-2.6,1-3.8
				c0.2-0.6,0.4-1.2,0.7-1.6c0.2-0.6,0.5-1.1,0.7-1.6c1.9-3.7,4.4-7,7.5-9.8c2.6-2.5,5.4-4.8,8.4-6.9c2.8-2,5.7-3.8,8.7-5.4
				c5.8-3.2,11.9-5.8,18.1-7.7c1.5-0.5,3.1-1,4.6-1.4c1.6-0.5,3.1-0.8,4.7-1c1.6-0.2,3.3-0.2,4.9-0.1c0.9,0.1,1.7,0.2,2.6,0.4
				c0.9,0.2,1.9,0.4,2.7,0.8c3.6,1.3,5.5,5.3,4.4,8.9c-0.2,0.7-0.6,1.3-1,1.9L950.4,427.9z"/>
			<path class="st11" d="M1049.4,462.7c0.8,1.3,1.6,2.7,2,4.2c0.4,1.3,0.7,2.7,0.8,4.1c0.2,1.3,0.2,2.6,0,4c-0.1,1.4-0.2,2.6-0.4,4
				c-0.7,5.4-1.6,10.6-2.9,15.8c-1.3,5.3-2.8,10.5-4.6,16.1c-0.5,1.5-1,2.8-1.6,4.4c-0.7,1.7-1.6,3.5-2.6,5l-0.5,0.7l-0.5,0.7
				c-0.3,0.4-0.7,0.9-1.2,1.4c-0.4,0.5-1,1-1.5,1.5c-0.7,0.6-1.4,1.1-2.1,1.5c-1,0.6-2.1,1-3.1,1.2c-1.2,0.3-2.6,0.4-3.9,0.3
				c-1.2-0.1-2.3-0.3-3.5-0.8c-0.9-0.3-1.7-0.7-2.6-1.3c-1.2-0.7-2.1-1.6-3-2.6c-0.7-0.7-1.3-1.4-1.9-2.2c-1.2-1.5-1.9-2.7-2.7-4
				c-1.6-2.5-3-4.7-4.3-7c-1.3-2.3-2.6-4.3-4-6.3c-1.3-1.8-2.6-3.7-4.1-5.4c-2.8-3.3-5.8-5.6-8.4-6.6c-1.2-0.4-2.4-0.6-3.6-0.5
				c-1.3,0.1-2.6,0.4-3.7,1c-6.8,2.9-14.5-0.2-17.4-7s0.2-14.5,7-17.4c0.1,0,0.2-0.1,0.2-0.1l0,0c1.2-0.5,2.4-0.8,3.7-1l1.7-0.2
				c4-0.4,7.9-0.2,11.8,0.5c3.9,0.7,7.7,2.2,11,4.4c3,1.9,5.8,4.2,8.3,6.8c2.1,2.4,4.1,4.9,5.9,7.5c1.6,2.5,3.1,4.9,4.4,7.6
				c1.4,2.5,2.6,4.9,3.7,7.3s2.2,4.6,3.3,6.7c0.6,1,1.1,1.9,1.5,2.6c0.2,0.3,0.4,0.7,0.6,0.8s0.2,0.2-0.2,0
				c-0.7-0.4-1.6-0.7-2.4-0.7c-0.7-0.1-1.3,0-1.9,0.2c-0.5,0.1-0.9,0.3-1.3,0.6c-0.2,0.1-0.4,0.2-0.6,0.4c-0.1,0.1-0.1,0.2-0.1,0.1
				l0.2-0.2l0.2-0.2v-0.1c0.4-0.6,0.7-1.2,1-1.9c0.4-1,0.7-2,1-3c0.7-2.2,1.2-4.5,1.5-6.9c0.4-2.4,0.7-4.9,1-7.3
				c0.5-4.9,1.1-10,1.7-15c0.2-1.3,0.4-2.5,0.7-3.8c0.4-2.6,1.2-5.1,2.5-7.4c0.7-1.3,1.6-2.5,2.7-3.5l0.3-0.3
				c3.1-2.9,7.9-2.7,10.8,0.4l0.1,0.1l0,0C1048.9,462,1049.1,462.4,1049.4,462.7z"/>
			<path class="st3" d="M1036.9,464.9c-3-4.6-5-9.8-6.1-15.2c-1.7-9,7.2-15.2,8-11.2c0.8,4,8.1,22.6,8.1,22.6L1036.9,464.9z"/>
			<path class="st2" d="M955.6,748.4c2.1,8.3,4.3,32,4.3,32h4.9v-15.1"/>
			<path class="st2" d="M958.7,732.7c-2.9,4.7-4,10.3-3.2,15.8c1.5,9.1,19.4,33.7,31,33.7h8.4c1.6,0,3-1,3.7-2.5
				c1.8-4.4-1.4-12.8-8.6-13.2c-4.3-11.6-10.5-18-14.3-26.1"/>
			<path class="st2" d="M941.2,571.2l17,77.2c0,0-17,31.7,4,79.8c-10,10.1,0.2,19.1,0.2,19.1s27.1,27.6,23.1,9.7
				c-4.6-7.7-7.2-16.4-7.8-25.4c-3.6-47,9.3-123.9,9.3-123.9L941.2,571.2z"/>
			<path class="st2" d="M916.2,732.7c-3.2,4.6-4.4,10.3-3.5,15.8c1.6,9.1,10,33.7,22.8,33.7h9.3c1.7,0,3.3-1,4.1-2.5
				c2.1-4.4,0.3-9.9-4.4-13.2c-2.2-9.1-8.6-18.7-9.6-26.1"/>
			<path class="st2" d="M918.1,607.7l3.6,40.8c0,0-17.6,26.3-2.4,77.6c-6.6,11-1.2,16.4,0.2,19.4c4,8.7,19.8,25,17.9,11
				c-7.3-50.6,25.2-185.3,25.2-185.3L918.1,607.7z"/>
			<path class="st3" d="M942.7,529.1c0,0-38.3,24.2-24.7,78.6h68.8c0,0,8.3-38.7-5.3-74.1C958.3,538.9,942.7,529.1,942.7,529.1z"/>
			<path class="st2" d="M944.6,766.5c0,0-9-2.5-15.4,1.5"/>
			
				<ellipse transform="matrix(0.2 -0.9798 0.9798 0.2 307.7603 1343.7607)" class="st7" cx="976.8" cy="483.4" rx="19.9" ry="29.7"/>
			<path class="st3" d="M968.8,463.4l18.1-24.9l12.3,3.5l-9.7,28.2c0,0,30.3,23.1-6.3,17.9C944.6,482.7,968.8,463.4,968.8,463.4z"/>
			
				<ellipse transform="matrix(0.1331 -0.9911 0.9911 0.1331 434.6823 1360.7528)" class="st3" cx="995.2" cy="431.9" rx="22" ry="32.4"/>
			<path class="st3" d="M1021.7,436.6c-2.3,6.3-9.5,9.6-15,7.6c-5.5-2.1-7.4-8.6-5.1-14.9c2.3-6.3,8-10.2,13.5-8.1
				C1020.6,423.3,1024.1,430.3,1021.7,436.6z"/>
			<path class="st3" d="M1004.3,430.3c-2.3,6.4-9.5,9.6-15,7.6c-5.5-2-7.4-8.6-5.1-14.9c2.3-6.3,8-10.2,13.5-8.1
				C1003.3,417,1006.7,423.9,1004.3,430.3z"/>
			<path class="st12" d="M989.4,487.9c0,0-1.2-5.8-4.5-9.8"/>
			<path class="st12" d="M1005.2,411.7c0,0,15.5-26.6,29-38c0.9-0.7,2.1-0.2,1.8,0.9l-13.4,48.8"/>
			<path class="st12" d="M972.3,415.4c3-4,9.4-24.5,35.6-48.6c0.9-0.8,2.1-0.2,1.8,0.9l-12.3,44"/>
			<path class="st2" d="M965.1,428.4c-2.3,1.9-4.9,3.5-7.7,4.4c-8,3.1-20.3-0.8-20.8-7.8c-0.4-6,5.4-22.6,44.6-21
				c5.7,0.2,4.7,6.2,0.6,5.8c-5.4-0.5-12.1,2.2-12.1,2.2"/>
			<path class="st2" d="M965.1,409.5c0,0,8.6,0.7,9.9,7.6c1.3,7-4.7,8.7-4.7,8.7"/>
			<path class="st2" d="M961.9,427c0,0,4.9,6.8,8.2,1.2c3.3-5.6,0.6-14.2-6.6-13"/>
			<path class="st2" d="M962.6,422.8c0,0,5.8,0.2,4.6,6.9c-1.3,6.9-7.4,5.4-6.4,2.6c1.4-4-1.7-2.9-1.7-2.9"/>
			<path class="st7" d="M1001.8,440.6c-0.4,1.2-3.6,2.6-4.3,2.5c-0.7-0.2-2.5-3.3-2.1-4.4c0.4-1.2,1.9-1.2,3.7-0.6
				C1000.9,438.7,1002.1,439.4,1001.8,440.6z"/>
			<path class="st9" d="M987.1,442c3,0.9,5,2.9,4.6,4.4"/>
			<path class="st2" d="M1042.8,456c5.7-4.4,10.7-5.4,16.5-15.5c2.8-4.9,6.6-2.9,6.6,3.1c0,11.4-11.7,22.1-20.3,23.4
				c-3.5,0.5-7.8-1.3-7.5-4.8"/>
			<path class="st5" d="M1000.1,427.8c-0.5,2.2-1.5,4.3-3,6c-1.2-4.4-0.2-9.2,2.7-12.8C1000.5,423.3,1000.6,425.6,1000.1,427.8z"/>
			<path class="st5" d="M1017.9,434.1c-0.5,2.2-1.5,4.3-3,6c-1.2-4.4-0.2-9.2,2.7-12.8C1018.3,429.6,1018.4,431.9,1017.9,434.1z"/>
			<path class="st13" d="M998.1,410.2c5.9,0.8,11.4,2.6,18.4,7.2"/>
			<path class="st3" d="M1030.7,443c7.2-9.8,11.7-20.9,14.7-31.5c3.1-10.8,14.7-4.9,12.6,4.5c-2.6,11.6-10.7,29-19,37.1
				C1032.3,459.8,1025.1,450.7,1030.7,443z"/>
			<path class="st2" d="M1028.7,452.7c10.4-12.9,19.7-32.9,23.1-48.7c1.4-6.3,10.8-4.3,9.5,1.9c-3.7,16.8-14.7,39.7-25.5,53.4
				C1031.7,464.1,1024.7,457.6,1028.7,452.7z"/>
			<path class="st3" d="M1037.5,448.4c6-7.1,13.3-23.6,16.1-32.8c3.7-12.9,14.7-7.9,13.3,1.7c-1.6,11.9-11.3,31.3-18.9,40.2
				C1041.8,464.8,1031.3,455.6,1037.5,448.4z"/>
			<path class="st2" d="M990,766.5c-5.1,0.4-6.8,1.5-6.8,1.5"/>
			<path class="st11" d="M978.8,539.1c1.8,5.1,3.1,10.3,4,15.6c1,5.3,1.6,10.6,2,16.1c0.1,1.4,0.1,2.6,0.2,4l0.1,2v6l-0.2,4l-0.1,2
				c-0.1,0.7-0.1,1.4-0.2,2l-0.3,4c-0.2,2.6-0.7,5.4-1,8H983c-0.3-2.7-0.3-5.4-0.5-8.1l-0.2-4v-2l-0.1-2c-0.1-1.4-0.2-2.6-0.2-4
				l-0.2-4c-0.1-0.7,0-1.3-0.1-2l-0.1-2l-0.2-4l-0.2-4c-0.1-1.3-0.2-2.6-0.3-4c-0.1-1.3-0.2-2.6-0.3-4l-0.3-4
				c-0.6-5.3-1.2-10.5-1.8-16L978.8,539.1z"/>
			<ellipse class="st14" cx="-94.9" cy="390.2" rx="24.6" ry="31"/>
			<ellipse class="st14" cx="-36.1" cy="377" rx="35.1" ry="44.4"/>
			<ellipse class="st14" cx="-83.8" cy="390.2" rx="24.6" ry="31"/>
			<ellipse class="st14" cx="-25" cy="377" rx="35.1" ry="44.4"/>
			<path class="st14" d="M-67.9,383.1c3,11.8-1.7,24.5-10.5,28.4l-3.2-12.6c-1.2-4.8,0.7-10,4.4-11.6L-67.9,383.1z"/>
			<path class="st14" d="M-89.2,369c8.8-4,18.4,2.3,21.3,14.1l-9.5,4.3c-3.6,1.6-7.4-1-8.6-5.8L-89.2,369z"/>
			<path class="st14" d="M-89.2,369l3.2,12.6c1.2,4.8-0.7,10-4.4,11.6l-9.5,4.3C-102.6,385.7-97.9,373-89.2,369z"/>
			<path class="st14" d="M-78.5,411.6c-8.8,4-18.4-2.3-21.3-14.1l9.5-4.3c3.6-1.6,7.4,1,8.6,5.8L-78.5,411.6z"/>
			<path class="st14" d="M-50.6,389.8c5.4,18.4,21.3,27.7,35.5,20.6l-7.3-25c-1.4-4.6-5.4-7-8.9-5.2L-50.6,389.8z"/>
			<path class="st14" d="M-34.8,343.6c-14.2,7.2-21.2,27.9-15.8,46.3l19.1-9.6c3.5-1.7,5.4-7.1,4-11.6L-34.8,343.6z"/>
			<path class="st14" d="M-34.8,343.6l7.3,25c1.4,4.6,5.4,7,9,5.2l19.1-9.6C-4.8,345.6-20.7,336.4-34.8,343.6z"/>
			<path class="st14" d="M-15.1,410.3c14.2-7.2,21.2-27.8,15.8-46.3l-19.1,9.6c-3.5,1.7-5.4,7.1-4,11.6L-15.1,410.3z"/>
			<polygon class="st7" points="-20.4,434.6 2.1,415.5 32.7,415.5 			"/>
			<polygon class="st7" points="-20.4,461.2 2.1,480.1 32.7,480.1 			"/>
			<rect x="-44.4" y="580" class="st14" width="10.6" height="55.3"/>
			<path class="st14" d="M-44.3,635.4h10.5l-36.4,156.5c-0.2,1.1-2.1,1.7-3.1,1.7l0,0c-1.5,0-3.2-0.9-2.9-2.3L-44.3,635.4z"/>
			<path class="st14" d="M-33.6,635.4h-10.8l86.7,160.2c1,1.1,2.2,1.8,3.7,2.1l0,0c1.3,0,2.4-1,2.5-2.3c0-0.4-0.1-0.8-0.3-1.2
				L-33.6,635.4z"/>
			<path class="st14" d="M-44.4,635.4h10.2l-88.4,161.2c-0.4,0.8-1.2,1.3-2.1,1.3l0,0c-1.3,0-2.4-1-2.5-2.3c0-0.4,0.1-0.8,0.3-1.2"
				/>
			<ellipse class="st11" cx="-53.1" cy="797.7" rx="112.4" ry="6.4"/>
			<polygon class="st14" points="33.8,415.5 33.8,481 -6.9,467.6 -6.9,432.6 			"/>
			<rect x="-103.3" y="418.4" class="st14" width="96.6" height="59.8"/>
			<rect x="-48.1" y="478.2" class="st14" width="17.7" height="8"/>
			<rect x="-112" y="418.4" class="st14" width="37.5" height="59.8"/>
			<line class="st15" x1="153.1" y1="697.5" x2="175.1" y2="797.3"/>
			<line class="st15" x1="106.8" y1="697.5" x2="77.6" y2="797.3"/>
			<path class="st7" d="M314.6,698.8c0,0,20.2-35.2,37-38.3c16.8-3,17.6,10.4,4.9,24.8c-8.7,10-16.8,20.5-24.4,31.4l-6.8,3.1
				l2.6,4.8c0,0-4.5,13.3-12.4,12.1c-7.8-1.2-11.6-15.8-11.6-15.8"/>
			<path class="st7" d="M344.9,607.4c5.4-17.5-2.5-41.1,3.4-50.5c7.8-12.6,20-4,22,10.5c2,14.5,1,28.7-2.2,43.2
				c-1.6,2.4-3.5,4.6-5.2,7c1.5,1,3,1.6,4.4,2.6c0.2,5.6,1.1,14.2-4.9,17c-5.9,2.8-13.5-2.1-17.7-6.3"/>
			<path class="st7" d="M152.7,697.6c0,0-143.5,15.5,52.6,14.2c45.7-0.3,54.3-14.2,54.3-14.2H152.7z"/>
			<path class="st2" d="M116.8,567c-34.7,1.1-42-83.5-26.8-132.1c-5.7-7.2-14.8-7.6-22.5-8.4c-17.3,44.7-25.1,111.2,16.2,170.1
				c26,37.1,9.2-14.2,23-12"/>
			<circle class="st7" cx="156.9" cy="524.8" r="3.8"/>
			<polyline class="st15" points="72.5,602.9 84.1,697.5 170.5,697.5 			"/>
			<path class="st7" d="M84.1,697.6c0,0,6.9,13.6,52.6,13.6s54.3-13.6,54.3-13.6H84.1z"/>
			<path class="st2" d="M104.7,680l112.6-30.9c6.2-1.7,12.8-1.2,18.6,1.5l77.6,36c6.8,2.6,9.3,10.5,5.8,17l-5.8,10.9
				c-3,5.4-10,7.6-15.8,5.4l-80.7-32.2L144.5,712"/>
			<path class="st2" d="M138.3,713.9c33.3,4.2,115.9-58.1,115.9-58.1l99.1-14.7c4-12.8,1.1-26.8-7.7-37l-94.4,11.6
				c-6.2,0.7-12,2.7-17.4,5.8l-69,40.2c0,0-1.6,13.1-6.5,19.4c-4.9,6.3-49.2,7.6-60.9,4.4c0,0,7.7,36,28.5,25
				C126.1,710.5,129.1,712.6,138.3,713.9z"/>
			<path class="st2" d="M106.8,567.6c4.2-1.3,8.5-2.2,12.8-2.7c5.1-0.6,10.2-0.8,15.3-0.8c27.5,0,32.3,27.2,35.7,53.4
				c6,46.8,6,62-7.2,71c-8.5,5.8-57.9,7-66-3c0,0-11.7-37.1-13.8-76.6c-0.4-5.8,0-11.7,1.3-17.5"/>
			<path class="st7" d="M185.8,657.4c0,0-26.8,2.8-60.8,2.8c-21.7,0-45.9-2.8-45.9-2.8l-6.5-54.4c14.8,1.7,29.6,2.6,44.5,2.7
				c32.6,0,62.3-2.7,62.3-2.7L185.8,657.4z"/>
			<polyline class="st15" points="179.3,602.9 190.9,697.5 277.3,697.5 			"/>
			<path class="st2" d="M84.2,390.6c0,0,3-6.2,5.4-11c4.9-10,11-1.9,7.7,4.4c-1.2,2.4-9.9,20.8-9.9,20.8"/>
			<path class="st2" d="M89.6,410.6c3.9,1.2,1.1-8.9,7.7-6.5c5.3,1.8,5.8,14.9-11,18.9c-4.3,1-1.1,7.3-1.1,7.3s-8.4,1.6-12.6-2.6
				l0.3-4.4c0,0-2.2-10.1-1.7-15.9c0.9-10.9,8.7-7.5,13.1-17"/>
			<polygon class="st2" points="97.2,403.7 64,384.9 70.4,376.6 99.2,400.6 			"/>
			<path class="st2" d="M86.3,401.4c0,0,9.1-18.4,12.2-22.9s8.2-0.2,6.8,4.4c-0.8,2.5-15.6,27.9-15.6,27.9"/>
			<path class="st2" d="M198.2,551.2c0,0-3.7-17,14.1-17.7c10.8-0.3,15.6,6,15.2,11.4c-0.4,7.4-4.4,28.1-4.4,28.1s-3.4,9-17.2,3.6
				c-2.3-0.9-4-3-4.4-5.4l0,0L198.2,551.2z"/>
			<path class="st2" d="M198.4,589.8c0,0,1.4-8.2-0.6-10.5c-1.9-2.2-3.5-13.3,2.1-13.8l3,9.1c0,0,1.4,0.5,3.4,1
				c7.2,1.8,14.5-2.1,16.9-9.1c0.4-1.4,1.1-2.8,1.9-4c2.1-2.1,7.7,5.3,5.7,15.7c-2,10.5-17.3,16.5-17.3,16.5"/>
			<path class="st2" d="M141.8,564.7c55.1-3.5,57.2,60.4,57.6,77.6c0,0-0.1-4.7-1.3-17.5c-0.5-6.4-1.7-12.8-3.6-19l2.3-16.8
				c0,0,25.5-2.1,24.7,9.1c-1.1,12.8-1.6,61.7-15.1,71.4c-4,2.8-15.5,2.9-19.4-0.7c-20.3-18.6-29.2-77.8-29.2-77.8"/>
			<path class="st9" d="M208.1,538.5l-1.3-18.6c-0.3-4.6-2.9-8.7-6.9-11l-9.3-5.4"/>
			
				<ellipse transform="matrix(0.9968 -8.037008e-02 8.037008e-02 0.9968 -42.6323 18.7597)" class="st7" cx="211.7" cy="539" rx="6.4" ry="1.7"/>
			<line class="st15" x1="202.1" y1="697.5" x2="182.1" y2="797.3"/>
			<line class="st15" x1="259.5" y1="697.5" x2="281.6" y2="797.3"/>
			<path class="st2" d="M105.8,497.9c0,0-7.3-51.3-6.4-66.1c1-14.9,16.3-18.2,18.9-5.7c1.5,7.1,4,76.4,4,76.4"/>
			<path class="st2" d="M106.8,567.6l2.6-11.7c0,0-16.6-22.5-16.5-37.3c0-21.1,16.1-24.4,28.7-24.9s35.3,26.4,35.3,36.9
				c0,10.5-6.8,14.4-15.1,21.7c-8.3,7.3,7.3,12.9,7.3,12.9S134.6,574.4,106.8,567.6z"/>
			<path class="st7" d="M90.5,507.3c-0.7-2.8,2.8-15.9,7.8-20.9c12-11.7,47-7.2,50.3-2.6c6.5,8.9-25.2,8.4-33.6,14.7
				C108.1,503.8,92.8,516.4,90.5,507.3z"/>
			<path class="st2" d="M118.2,501.7c0,0,2-51.8,10-72c6.6-16.8,27.1-14.2,22.3,0.6c-8.7,27.2-15.2,73.6-15.2,73.6"/>
			<path class="st9" d="M198.2,551.2c0,0,8.2,3.5,17,1.6"/>
			<path class="st16" d="M222,551.1c2.1-0.7,4.1-2,5.4-3.8"/>
			<polygon class="st2" points="108.4,636.9 102.4,640.6 103,632.5 97.5,626.8 104.4,625.7 107,618.3 110.7,625.7 117.7,626.8 
				113.1,632.5 114.8,640.6 			"/>
			<ellipse class="st11" cx="171.5" cy="797.5" rx="140.6" ry="6.6"/>
			
				<ellipse transform="matrix(0.4699 -0.8827 0.8827 0.4699 -300.484 260.7809)" class="st17" cx="66.9" cy="380.6" rx="4.9" ry="3.5"/>
			<path class="st11" d="M256.2,650.5c7.5-2.1,15.2-3.7,22.7-5.1c3.9-0.8,7.6-1.4,11.4-2c3.9-0.7,7.7-1.2,11.4-1.7
				c3.8-0.5,7.7-1.1,11.5-1.5c3.9-0.4,7.7-0.9,11.6-1.2c7.7-0.7,15.5-1.3,23.3-1.4l0,0c0.1,0,0.2,0.1,0.2,0.2l0,0
				c0,0.1-0.1,0.2-0.2,0.2l-46,6.6l-46,6.3c-0.1,0-0.2-0.1-0.2-0.2C256.1,650.6,256.1,650.5,256.2,650.5z"/>
			<path class="st11" d="M119.6,701.7c2,1.7,4.3,3.1,6.8,4c1.2,0.4,2.5,0.7,3.7,1.1c0.7,0.2,1.2,0.2,1.9,0.3l1.9,0.2l3.9,0.2h1.9
				l1.9-0.1c2.6-0.2,5.2-0.4,7.7-0.9c1.3-0.2,2.6-0.4,4-0.7c1.4-0.2,2.6-0.6,4-0.9c2.6-0.6,5.2-1.3,7.7-1.9c5.2-1.4,10.4-3,15.9-4.3
				v-0.2c0.1,0,0.2,0.2,0.2,0.3s0,0.2-0.1,0.2c-4.9,2.4-10,4.4-15.2,6.3c-5.2,1.9-10.5,3.3-15.9,4.3c-5.4,1-11,1-16.4,0.1
				c-2.7-0.5-5.4-1.4-7.8-2.6c-2.5-1.2-4.7-3-6.3-5.3c-0.1-0.1,0-0.2,0-0.2l0,0C119.5,701.6,119.6,701.6,119.6,701.7L119.6,701.7z"
				/>
			<path class="st11" d="M123.6,707.8c-1,0.7-2.1,1.1-3.2,1.4c-1.1,0.2-2.3,0.2-3.4-0.1c-2-0.5-3.8-1.4-5.3-2.8
				c-1.5-1.2-2.7-2.6-3.9-4.1c-1.2-1.4-2.1-3-3-4.5c1.2,1.4,2.5,2.7,3.8,4s2.7,2.3,4.4,3.1c1.4,0.8,3,1.4,4.5,1.5
				c1.4,0.1,2.7-0.5,3.7-1.5c0.7-0.7,2-0.7,2.7,0l0.1,0.1c0.7,0.8,0.7,2.1-0.1,2.9l0,0C123.8,707.7,123.8,707.8,123.6,707.8
				L123.6,707.8z"/>
			<polyline class="st11" points="214.4,682.4 298.4,716.2 218.3,680.3 			"/>
			<path class="st2" d="M217.9,538.1c-0.7,1.2-2.1,1.6-3.4,1c-0.7-0.3-1.1-1-1.2-1.6c-1-4.7-1.7-11-0.4-16.1
				c2.6-9.2,5.8-4.1,5.8-4.1s5.8-20.3,12-20.1c6.2,0.2-3.5,16.8-3.5,16.8s6.3-1.5,3.8,4.4C228.9,523,222.7,529.5,217.9,538.1z"/>
			<line class="st18" x1="-39" y1="579" x2="-39" y2="479.7"/>
			<ellipse class="st11" cx="619.6" cy="762.9" rx="229.3" ry="5.1"/>
			<path class="st11" d="M400.4,668.4c0.4-1.2,0.7-2.1,1.1-3c0.4-0.9,0.8-1.8,1.3-2.7c0.9-1.7,1.9-3.4,3-4.9c2.2-3,4.9-5.7,7.7-8
				c1.4-1.2,3-2.2,4.6-2.9c0.9-0.3,1.9-0.5,2.9-0.5c1.1,0,2-0.1,3,0c1.9,0.1,3.9-0.2,5.7-0.7l4.9-2.1c6.8-3,13.8-5.5,21.1-7.5
				c3.8-1.1,7.7-1.7,11.6-2.1c4-0.4,8.2-0.4,12.3,0c8.3,0.9,16.4,3.7,23.5,8.2c7.1,4.4,13.3,10.1,18.4,16.7
				c4.7,6.2,8.6,12.9,11.7,20c3,6.8,5.4,13.4,7.6,19.8c2.1,6.4,4.3,12.7,6.4,18.4c1.2,2.9,2.2,5.6,3.5,8.2c1.2,2.4,2.5,4.7,4,6.8
				c1.2,1.8,2.7,3.5,4.4,4.9c1.5,1.2,3.2,2.2,5,3c2.1,0.8,4.2,1.3,6.4,1.5c0.6,0.1,1.2,0.1,1.8,0.2c0.6,0,1.2,0,1.7,0
				c1.1,0,2.1-0.1,3.2-0.3c2-0.3,3.9-0.9,5.7-1.8c2-1.1,3.7-2.4,5.3-4c3.5-3.4,6.7-8.2,9.8-13.5s6.1-11.4,9.6-17.6
				c1.7-3.1,3.7-6.3,5.8-9.5c2.3-3.3,4.9-6.4,7.7-9.3c3.2-3.1,6.8-5.8,10.7-7.8c4-2.1,8.5-3.5,13-4.2c2.1-0.3,4.4-0.5,6.6-0.4
				c1.1,0,2.1,0.1,3.2,0.1s2.2,0.2,3.3,0.4c4.5,0.7,9,2.1,13,4.4c3.9,2.1,7.4,4.9,10.4,8.2c2.7,3,5.2,6.3,7.2,9.8
				c3.5,6.3,6.7,12.8,9.2,19.5c2.6,6.3,4.9,12.4,7.4,17.8c2.6,5.4,5.7,10,9.1,12.4c1.6,1.2,3.6,2,5.6,2.4c0.2,0.1,0.6,0.1,0.8,0.2
				s0.6,0.1,0.8,0.1c0.6,0,1.2,0.1,1.6,0.1c3,0.1,6.1-1.1,8.3-3.2c2-1.8,3.8-3.8,5.2-6.1c3.4-4.9,6.4-10.8,10.2-16.8
				c1.9-3.1,4-6.2,6.3-9.1c2.6-3.1,5.5-5.8,8.8-8.2c5.3-3.5,11.5-5.5,17.9-5.5h1.5c0.6,0,1.2,0.1,1.7,0.1c3.6,0.3,7,1.6,10,3.6
				c1.8,1.2,3.5,2.6,4.9,4.3c2.6,2.9,4.8,6.1,6.6,9.5c3.5,6.4,5.9,12.8,8.5,18.9c1.3,3,2.6,6,4,8.7c1.2,2.6,2.8,4.9,4.6,7.2
				c0.7,0.8,1.6,1.5,2.5,2c0.7,0.4,1.6,0.7,2.5,0.7c1.8,0.1,4.4-0.9,6.8-2.5c2.6-1.6,4.9-3.6,7.1-5.8c2.3-2.2,4.4-4.6,6.5-7.1l0,0
				c1.5-1.7,4.1-2,5.9-0.5c1.6,1.4,2,4,0.7,5.7c-2.1,2.8-4.3,5.4-6.7,8c-2.5,2.7-5.2,5.2-8.1,7.3c-1.6,1.2-3.4,2.2-5.2,3
				c-2.1,0.9-4.3,1.5-6.6,1.6c-2.5,0.1-4.9-0.4-7.2-1.5c-2.1-1-3.9-2.3-5.5-3.9c-2.7-2.7-5-5.8-6.8-9.2c-1.7-3.1-3.3-6.3-4.8-9.3
				c-2.9-6.1-5.6-12.1-8.7-17.4c-1.4-2.5-3.1-4.8-5.1-6.8c-1.5-1.6-3.4-2.7-5.4-3.3c-0.4-0.1-0.9-0.2-1.4-0.2h-0.7l-1,0.1
				c-1.2,0.1-2.6,0.3-3.8,0.7c-2.4,0.6-4.6,1.6-6.6,3.1c-4,3-7.2,7.8-10.3,13.3c-3,5.5-5.8,11.7-9.8,18c-2.1,3.4-4.6,6.6-7.4,9.4
				c-1.6,1.6-3.5,3-5.4,4.2c-2.1,1.2-4.2,2.2-6.5,2.9c-2.2,0.7-4.5,1.1-6.9,1.2c-1.2,0.1-2.2,0.1-3.4,0c-0.6,0-1.2-0.1-1.6-0.1
				c-0.6,0-1.2-0.1-1.6-0.2c-4.6-0.7-9-2.3-12.9-4.8c-3.6-2.4-6.8-5.4-9.5-8.8c-2.4-3-4.5-6.3-6.3-9.7c-3.5-6.5-6.2-12.8-8.9-18.9
				c-2.7-6-5.4-11.7-8.4-16.4c-1.4-2.2-3-4.3-4.9-6.2c-1.6-1.6-3.4-3-5.4-4c-1.9-0.9-4-1.5-6-1.6c-2.3-0.2-4.6-0.2-6.9,0.2
				c-4.4,0.8-7.7,2.8-11.2,6.4s-6.4,8.5-9.4,13.9c-3,5.4-5.7,11.6-9.1,17.9c-1.6,3.1-3.5,6.4-5.6,9.6c-2.2,3.4-4.8,6.6-7.6,9.6
				c-3.1,3.3-6.7,6-10.5,8.2c-4,2.3-8.5,4-13.1,4.8c-2.2,0.4-4.4,0.7-6.8,0.8c-1.2,0.1-2.2,0.1-3.3,0.1c-1.1,0-2.1,0-3.2-0.1
				c-4.5-0.2-9-1.1-13.2-2.6c-2.2-0.8-4.4-1.7-6.5-2.9c-2.1-1.2-4-2.5-5.8-4c-3.5-2.8-6.7-6-9.3-9.6c-2.4-3.3-4.5-6.8-6.4-10.3
				c-1.7-3.5-3.3-6.8-4.6-10.2c-2.7-6.7-4.9-13.2-7.2-19.3c-2.2-6.2-4.4-12-7.1-17.4c-2.3-5.1-5.3-9.9-8.7-14.3
				c-3.1-4-7-7.3-11.3-10c-4.4-2.5-8.9-4.5-13.7-6c-2.6-0.8-5.1-1.5-7.7-1.9c-2.7-0.5-5.5-0.7-8.3-0.8c-5.9,0-11.8,1.1-17.4,3
				c-1.5,0.5-2.9,1.1-4.3,1.6c-1.4,0.8-2.6,2.1-3.4,3.5l-1.5,2.2c-0.4,0.7-0.9,1.3-1.5,1.8c-1.2,1.1-2.6,1.5-4,2.1
				c-2.9,1.2-5.9,2.1-9,2.9c-1.6,0.4-3.3,0.7-4.9,1.1c-0.9,0.2-1.7,0.2-2.6,0.4c-0.9,0.2-1.9,0.2-2.8,0.2l-1.5-0.1
				c-3.2-0.2-5.7-2.9-5.5-6.1l0,0l0,0C400.1,669.6,400.2,669,400.4,668.4z"/>
			<path class="st11" d="M849.6,742.3c-4.4,0.7-10.5-2-14.1-4.5c7.3,0.1,15-1.4,21.5-5.2c-2,7.2-0.9,14.9,0.9,22.1
				C854.2,751.6,850.4,747.1,849.6,742.3z"/>
			<path class="st10" d="M503.4,648c4.4,3,8.5,6.7,11.9,10.8c3.5,4.2,6.4,8.8,8.9,13.6c2.5,4.8,4.7,9.7,6.6,14.8
				c1.9,5,3.6,10.2,5.3,15.2c1.6,5,3.3,10.2,5.2,15.1c1.7,4.9,4,9.6,6.8,14.1c2.6,4.4,6.4,8.1,10.8,10.7c2.3,1.2,4.8,2.2,7.3,2.7
				c0.7,0.2,1.3,0.2,1.9,0.4l2,0.2l2,0.2l2,0.1c-2.7,0.4-5.4,0.4-8.1,0.2c-5.5-0.6-10.8-2.9-15-6.6c-2.1-1.8-4-4-5.5-6.3
				c-3.1-4.5-5.7-9.4-7.7-14.5c-2.1-5-3.8-10.2-5.4-15.2c-1.6-5-3.3-10.2-5-15.2s-3.7-10-5.8-14.7c-2.1-4.8-4.7-9.4-7.7-13.8
				C510.9,655.6,507.3,651.5,503.4,648z"/>
			<path class="st10" d="M666.9,680.6c3.8,1.7,7.2,4,10.1,7c3,2.9,5.5,6.2,7.6,9.7c4.4,7.1,7.3,14.7,10.3,22.2
				c1.5,3.8,2.9,7.4,4.4,11.1c1.5,3.6,3.3,7.1,5.4,10.4c2.1,3.3,4.9,6,8.1,8.2l0.7,0.4l0.7,0.3l1.3,0.7c0.9,0.4,1.8,0.7,2.7,1.2
				c0.9,0.3,1.9,0.7,2.9,0.8l3,0.6c-1.1,0-2,0.1-3,0.1c-1,0-2.1-0.2-3-0.3c-1-0.2-2-0.4-3-0.7l-1.5-0.6l-0.7-0.2l-0.7-0.3
				c-0.9-0.5-1.8-1-2.7-1.5c-0.4-0.3-0.9-0.6-1.3-0.9l-1.2-1.1c-1.6-1.4-3-2.9-4.4-4.5c-2.6-3.3-4.7-6.8-6.4-10.6
				c-1.7-3.7-3.3-7.5-4.7-11.2c-2.9-7.5-5.6-15.1-9.2-22c-1.8-3.5-4-6.8-6.4-10C673.1,685.9,670.2,683.1,666.9,680.6z"/>
			<path class="st19" d="M833.6,698.6c0,3-24.3,5.4-54.3,5.4c-30.1,0-54.3-2.4-54.3-5.4H833.6z"/>
			<path class="st19" d="M824.9,698.6c0-24.6-20.3-44.5-45.5-44.5c-25.2,0-45.5,19.9-45.5,44.5H824.9z"/>
			<path class="st19" d="M785.1,649c0,2.8-2.6,5.1-5.7,5.1s-5.7-2.3-5.7-5.1H785.1z"/>
			<path class="st19" d="M705.6,671c0,3-24.3,5.4-54.3,5.4c-30.1,0-54.3-2.4-54.3-5.4H705.6z"/>
			<path class="st19" d="M528.6,629.4c0,3-24.3,5.4-54.3,5.4c-30.1,0-54.3-2.4-54.3-5.4H528.6z"/>
			<line class="st20" x1="485.1" y1="574.5" x2="490.8" y2="556.2"/>
			<polygon class="st20" points="463.4,547.6 519.3,565.4 493.5,547.6 			"/>
			<path class="st19" d="M495.7,574.9c-0.2-0.1-0.6-0.2-1-0.4c0-0.1,0.1-0.2,0.1-0.3c0.7-2.6-0.4-5.3-2.7-6.6
				c-2.1-1.2-4.8-1.5-7.2-0.8c-0.1-0.2-0.2-0.6-0.4-0.8c-0.7-1.2-1.7-2.2-3-2.9c-2.6-1.2-5.6-0.9-8,0.7c-0.5,0.3-2.6,2-2.3,2
				c0,0-2.6-1.4-3.5-1.6c-2.9-1.1-6.1-0.7-8.6,1.2c-1,0.7-1.8,1.6-2.6,2.6c-0.3,0.4-0.7,1.3-1.2,1.5c-0.8,0.5-0.3,0.1-1.2,0.2
				c-3.5,0.5-6.3-0.1-8.6,3c-1.2,1.6-1.1,4.9-2.3,6c-3,2.6-1,6.4,2.2,7.3c0.3,0.7,0.8,1.5,1.5,2c2.6,2.1,7,1.9,10.3,1.6
				c1.8-0.2,3.6-0.4,5.2-0.6c2.2,0.2,4.4,0.6,6.8,0.7c1.9,0.1,3.8,0.2,5.7,0.2c1.8,0.2,3.6,0.2,5.4,0c2.6-0.1,5.2-0.2,7.8-0.3
				c1.6,0,3.1-0.9,4-2.3c0.9-0.1,1.8-0.3,2.6-0.7C500.2,584,500.7,577.7,495.7,574.9z"/>
			<path class="st19" d="M464.2,629.4c-31.2,0-34.7-8.4-36.8-22.4c-2-13.8,12.7-27.9,12.7-27.9h61.8c0,0,7.7,12.5,8.3,31.4
				c11.6,10.5,6.3,17.7,0,14.2l1.6,4.6L464.2,629.4l-0.4-5.5c0,0-6.4,3.8-9.9,1c-5.3-4.4,5.1-13.4,5.1-13.4"/>
			
				<ellipse transform="matrix(0.9801 -0.1983 0.1983 0.9801 -110.1054 106.6273)" class="st21" cx="477.3" cy="603" rx="5.6" ry="9.6"/>
			
				<ellipse transform="matrix(0.9801 -0.1983 0.1983 0.9801 -109.699 110.5285)" class="st21" cx="497" cy="602.9" rx="5.6" ry="9.6"/>
			<polygon class="st21" points="486.9,619.8 495,619.8 488.5,610.3 			"/>
			<line class="st20" x1="472.7" y1="629.4" x2="472.2" y2="623.9"/>
			<line class="st20" x1="478.8" y1="629.4" x2="478.3" y2="623.9"/>
			<line class="st20" x1="484.9" y1="629.4" x2="484.4" y2="623.9"/>
			<line class="st20" x1="491.1" y1="629.4" x2="490.4" y2="623.9"/>
			<line class="st20" x1="497.2" y1="629.4" x2="496.6" y2="623.9"/>
			<line class="st20" x1="503.3" y1="629.4" x2="502.7" y2="623.9"/>
			<path class="st20" d="M454.3,579.1l-5.9-37.6c-0.4-2.6-2.8-4.3-5.4-4c-0.2,0-0.3,0.1-0.6,0.1l-18.9,5.3"/>
			<path class="st10" d="M475.2,594.5c1-0.2,2,0,2.8,0.5c0.8,0.6,1.5,1.3,2,2.1c1.9,3.4,2.4,7.3,1.5,11.1c-0.2,1-0.7,1.9-1.5,2.6
				c-0.4,0.3-0.9,0.6-1.4,0.7c-0.5,0.1-1,0.1-1.5,0c0.4-0.1,0.8-0.2,1.2-0.5c0.3-0.2,0.6-0.6,0.8-0.9c0.4-0.7,0.7-1.5,0.7-2.2
				c0.2-1.6,0.1-3.4-0.2-5c-0.2-1.7-0.6-3.4-1.2-4.9C478.1,596.3,476.8,595,475.2,594.5z"/>
			<path class="st10" d="M495.1,594.5c1-0.2,2,0,2.8,0.5c0.8,0.6,1.6,1.3,2.1,2.1c1.9,3.4,2.4,7.3,1.5,11.1c-0.2,1-0.7,1.9-1.5,2.6
				c-0.4,0.3-0.9,0.6-1.4,0.7c-0.5,0.1-1,0.1-1.5,0c0.4-0.1,0.8-0.3,1.2-0.6c0.3-0.2,0.6-0.6,0.8-0.9c0.4-0.7,0.7-1.5,0.7-2.2
				c0.2-1.6,0.1-3.4-0.2-5c-0.2-1.7-0.6-3.4-1.2-4.9C498,596.3,496.8,595,495.1,594.5z"/>
			<path class="st19" d="M664.2,615c-3.7,0-7.4,1.2-10.5,3.2c-3.1-2.1-6.8-3.2-10.5-3.2c-11.7,0-21.2,9.3-21.2,25.9
				s17,28.8,24.8,28.8c2.6-0.1,5.1-1.2,6.9-3.2c1.8,2,4.3,3.1,6.9,3.2c7.7,0,24.8-12.2,24.8-28.8C685.3,624.3,675.9,615,664.2,615z"
				/>
			<path class="st19" d="M657.1,598.4c-2.6,6.3-3.7,13-3.4,19.8c0,0-4.9-14.7-30.4-15.2c11.4,20.8,27.6,16.6,27.6,16.6"/>
			<path class="st11" d="M655.5,663.1c1.5,1,3.2,1.3,4.9,1c1.6-0.3,3.1-1,4.4-2c0.7-0.5,1.4-1,2-1.6c0.7-0.6,1.3-1.2,1.9-1.7
				c0.6-0.5,1.3-1.4,1.9-2c0.6-0.6,1.3-1.4,1.8-2c1.2-1.3,2.3-2.6,3.4-4.1c0.5-0.7,1-1.4,1.5-2.1c0.4-0.7,0.8-1.5,1.2-2.2
				c0.3-0.8,0.7-1.6,0.9-2.4c0.2-0.8,0.5-1.6,0.7-2.6c0.4-1.7,0.6-3.7,1-5.7l0.3-0.1c0.3,1.9,0.5,3.9,0.6,5.8c0,2-0.2,3.9-0.8,5.8
				c-1.2,3.7-3.3,7-6.1,9.8c-1.3,1.4-2.7,2.7-4.2,4c-1.4,1.3-3,2.5-4.7,3.4c-1.7,1-3.6,1.5-5.6,1.5s-4-0.9-5.2-2.5L655.5,663.1z"/>
			<path class="st3" d="M812,182.5c0,0,3.4-19.5,3.4-25.9c0-6.4-9.9-3.6-10.6-11.8c-0.8-8.2,11.4-16.9,17.1-3.3c0,0,14-6.9,12.8,4.4
				c-1.3,11.2-10,3.2-10.1,16.8c-0.2,13.6,0.3,18.8,0.3,18.8"/>
			<path class="st22" d="M818.4,69.9c3.4,0,6.1,2.7,6.1,6.1c0,3.4-2.7,6.1-6.1,6.1c-3.4,0-6.1-2.7-6.1-6.1l0,0l0,0"/>
			<path class="st11" d="M819.8,82c0,2.1,0.1,4.4,0.2,6.6c0,1.2,0.2,2.1,0.2,3.3l0.1,1.6l0.1,0.8v0.4c0,0.1,0,0.2,0.1,0.3
				c0.2,1.5,1.4,2.7,3,4.2c0.9,0.8,1.6,1.6,2.5,2.5c0.5,0.5,0.9,1.1,1.3,1.6c0.4,0.7,0.7,1.3,1.1,2c0.3,0.7,0.6,1.5,0.7,2.2
				c0.2,0.7,0.2,1.5,0.2,2.2c0,1.6-0.2,3.2-0.9,4.6c-0.7,1.6-1.6,3-3,4.1c-1.3,1.2-3,1.8-4.7,2.1c-1.6,0.2-3.4,0.1-4.9-0.6
				c-1.5-0.6-2.8-1.6-3.7-2.9c-0.9-1.2-1.4-2.5-1.5-4c-0.2-1.2,0-2.6,0.5-3.8c0.7,0.9,1.5,1.6,2.3,2.5c0.7,0.6,1.4,1.1,2.2,1.4
				c1.2,0.4,2.4,0.4,3.5-0.1c0.8-0.4,1.6-1.1,1.9-1.9c0.2-0.6,0.4-1.2,0.6-1.7c0.1-0.3,0.1-0.7,0.1-1v-1c-0.1-1.4-1-3-2.2-4.9
				c-0.7-1.1-1.3-2.1-1.8-3.2c-0.7-1.2-1-2.6-1-4.1v-0.9l0.1-0.8l0.1-1.6c0.1-1.2,0.2-2.1,0.2-3.3c0.1-2.1,0.2-4.4,0.2-6.6
				c0.1-0.7,0.7-1.3,1.5-1.3h0.1c0.7-0.2,1.2,0.2,1.4,0.9C819.8,81.9,819.8,81.9,819.8,82L819.8,82z"/>
			<path class="st2" d="M799.9,252.7c18.3,5.2,19.4,37.9,35.4,45.9c7.8,4,13.2,0.2,16.5-4.7c1.8-3.9,2.9-8,3.2-12.3
				c3.1-31.7-17.6-58.9-23.6-79.4c-6.5-22.1-6.5-22.1-7.8-21c-4,0.5-9.1,2.3-10.3,0.3c-0.2-0.5-0.8-0.7-1.2-0.4l0,0
				c-0.2,0.2-0.4,0.3-0.5,0.7c-1.9,6.9-6.8,22.6-13.6,32.5c-6.1,8.6-15.4,26.9-16.7,44.1C783.7,254.1,789.1,249.7,799.9,252.7z"/>
			<path class="st7" d="M835.3,298.6c-16-8-17.1-40.8-35.4-45.9c-10.8-3-16.1,1.5-18.8,5.6c-0.7,8.3,0.6,16.4,4.9,23.1
				c13.5,20.1,36.3,23.6,36.3,23.6s20.8,5.9,29.3-11C848.4,298.8,843.1,302.5,835.3,298.6z"/>
			<ellipse transform="matrix(0.5989 -0.8008 0.8008 0.5989 90.9898 760.3218)" class="st2" cx="804.5" cy="289.3" rx="3" ry="10"/>
			<path class="st11" d="M842.7,294.3c0.8-0.5,1.6-1.1,2.2-1.8c0.7-0.7,1.2-1.5,1.6-2.3c0.9-1.6,1.5-3.4,1.7-5.2
				c0.2-1.9,0.3-3.7,0.2-5.6c0-1-0.2-1.9-0.2-2.9l-0.3-2.9c-1.1-7.8-2.9-15.5-5.4-22.9c-1.2-3.8-2.6-7.5-4-11.2l-4.3-11.3
				c-1.5-3.8-2.8-7.5-4.1-11.4c-1.3-3.9-2.3-7.9-2.9-11.9l0.3-0.1c1.1,3.9,2.4,7.7,4,11.4c1.5,3.7,3.2,7.3,4.8,11.1
				c3.3,7.3,6.4,14.8,9.1,22.5s4.4,15.6,5.1,23.6c0.2,4,0.5,8.2-0.7,12.1c-0.5,2-1.4,3.9-2.6,5.4c-1.2,1.6-2.9,3-4.8,3.7
				L842.7,294.3z"/>
			<polyline class="st9" points="814.9,162.2 824.5,167.1 819.6,113.7 816.4,135 			"/>
			<path class="st9" d="M818.4,74.4c-5.7-2.1-10.5-4.8-0.4-9v-64"/>
			<path class="st2" d="M874.4,98.5c4.4-5,13.3,2.1,8.9,8.2c-4.3,5.8-6.3,15.2-5.3,22.4c1,7.2-10,10.4-11.4,3.7
				C863.9,120.7,866.1,107.7,874.4,98.5z"/>
			<path class="st2" d="M867.7,139.8c3.1-6.5,14.1-2.4,11.2,5.1c-2.7,7.2-1.4,16.2,2.6,22.6c4,6.4-5.1,14.3-9.5,8.6
				C864.2,165.8,861.9,151.7,867.7,139.8z"/>
			<path class="st22" d="M882.8,53.2c3.4,0,6.1,2.6,6.1,6c0,3.4-2.6,6.1-6,6.1c-3.4,0-6.1-2.6-6.1-6v-0.1"/>
			<path class="st11" d="M884.2,65.4c0,2.1,0.1,4.4,0.2,6.6c0,1.2,0.2,2.1,0.2,3.3l0.1,1.6l0.1,0.8v0.4c0,0.1,0,0.2,0.1,0.3
				c0.2,1.5,1.4,2.7,3,4.2c0.9,0.8,1.6,1.6,2.5,2.5c0.5,0.5,0.9,1.1,1.3,1.6c0.4,0.7,0.7,1.3,1.1,2c0.3,0.7,0.6,1.5,0.7,2.2
				c0.2,0.7,0.2,1.5,0.2,2.2c0,1.6-0.2,3.2-0.9,4.6c-0.7,1.6-1.6,3-3,4.1c-1.3,1.2-3,1.8-4.7,2.1c-1.6,0.2-3.4,0.1-4.9-0.6
				c-1.5-0.6-2.7-1.6-3.7-2.9c-0.9-1.2-1.4-2.5-1.5-4c-0.2-1.2,0-2.6,0.5-3.8c0.7,0.9,1.5,1.6,2.3,2.5c0.7,0.6,1.4,1.1,2.2,1.4
				c1.2,0.4,2.4,0.4,3.5-0.1c0.8-0.4,1.6-1.1,1.9-1.9c0.2-0.6,0.5-1.2,0.6-1.7c0.1-0.3,0.1-0.7,0.1-1s0-0.7-0.1-1
				c-0.1-1.4-1-3-2.2-4.9c-0.7-1-1.3-2.1-1.8-3.2c-0.7-1.2-1-2.6-1-4.1v-0.9l0.1-0.8l0.1-1.6c0.1-1.2,0.2-2.1,0.2-3.3
				c0.1-2.1,0.2-4.4,0.2-6.6c0.1-0.7,0.7-1.3,1.5-1.3h0.1c0.7-0.2,1.2,0.2,1.4,0.9C884.2,65.3,884.2,65.3,884.2,65.4L884.2,65.4z"/>
			<path class="st2" d="M891.8,91.9c-7.4-3.5-13.1,7.9-5.6,11.4c7.1,3.4,11,12.2,8.1,19.6c-3,7.6,8.3,13.2,11.4,5.6
				C911.2,114.8,905.4,98.3,891.8,91.9z"/>
			<path class="st2" d="M900.9,133.2c-5-6-13.8,1.7-9.1,8.6c4.5,6.5,6.3,15.7,2.7,23c-3.5,7.3,5.5,14.6,9.8,7.7
				C912,160,910.2,144.4,900.9,133.2z"/>
			<path class="st2" d="M900.6,177.2c-3.1-6.8-13.4-1.3-10.6,6.6c2.6,7.4,2.3,18.4-0.3,25.9c-2.6,7.5,7.2,14.1,10.2,7.2
				C905.3,204.3,906.3,189.5,900.6,177.2z"/>
			<path class="st2" d="M904,218.6c-4.9-6.3-13.8,0.5-9.6,7.6c4,6.8,3,15.8-2,21.9s2.5,15.2,8.1,9.4C910.5,247,913,230.2,904,218.6z
				"/>
			<path class="st2" d="M902.7,261.2c-5.2-6.3-15.2,1.6-10,7.9c4.9,6,4.8,15.8-1.1,21.2c-5.8,5.4,1.9,15.6,7.9,10
				C910.5,290.3,912.3,272.9,902.7,261.2z"/>
			<path class="st2" d="M902.3,303.9c-4-6.3-13.9-0.1-10,7.4c3.7,7.2,3.7,17.1,0.8,24.8c-2.9,7.7,7.1,14.3,10.3,7.4
				C909.4,331,909.6,315.6,902.3,303.9z"/>
			<path class="st9" d="M883,57.7c-5.7-2.1-10.5-4.8-0.4-9V1.6"/>
			<path class="st3" d="M23.1,128.1c-15.8-7.5-35.2-2.6-43.6,13.3c-2,3.9-3.2,8.1-3.5,12.4l-0.4-0.2C-40.3,146.2-59.6,151-68,167
				c-7.9,14.9-2.4,36.1,13.3,43.6c1.6,0.8,3.3,1.5,5,1.9c-2.3,2.3-4.3,4.9-5.8,7.7c-7.9,14.9-2.4,36.1,13.3,43.6
				c15.5,7.3,34.3,2.7,43.1-12.5c15.6,6.9,34.3,1.8,42.6-13.8c3.7-7.2,4.6-15.4,2.6-23.2c5.2-3,9.5-7.3,12.3-12.7
				c7.9-14.9,2.4-36.1-13.3-43.6c-1.6-0.8-3.5-1.5-5.2-2C39.9,144.7,33.9,133.2,23.1,128.1z"/>
			<path class="st3" d="M-90.6,0.5C-99,14.2-101,31.9-93.1,46.4c12.2,22.2,38.7,33,62.3,22.2C-18.1,90.3,8.6,100.4,32,88.9
				C42.5,83.8,50.7,74.3,55,63.4c8.8,1,17.6-0.6,25.5-4.4c20.8-10.3,32.4-37,23.9-58.9"/>
			<path class="st3" d="M49.6,288.2c-7.2,3.7-10.7,12.1-7.3,19.6c0.8,1.8,2.1,3.5,3.6,4.7l-0.2,0.1c-7.2,3.7-10.7,12.1-7.3,19.6
				c3.2,7.1,12.5,10.9,19.6,7.2c0.7-0.4,1.4-0.8,2.1-1.3c0.2,1.5,0.6,2.9,1.2,4.3c3.2,7.1,12.5,10.9,19.6,7.2
				c7.2-3.7,10.5-11.8,7.4-19.2c6.8-3.8,10.3-12,6.8-19.4c-1.6-3.3-4.4-5.9-7.7-7.3c0.4-2.7,0-5.5-1.2-8
				c-3.2-7.1-12.5-10.9-19.6-7.2c-0.7,0.4-1.5,0.8-2.1,1.4C60.4,286.7,54.5,285.7,49.6,288.2z"/>
		</g>
	</g>
</g>
</svg>
