<?xml version="1.0" encoding="utf-8"?>
<!-- Generator: Adobe Illustrator 22.0.1, SVG Export Plug-In . SVG Version: 6.00 Build 0)  -->
<svg version="1.1" id="Layer_1" xmlns="http://www.w3.org/2000/svg" xmlns:xlink="http://www.w3.org/1999/xlink" x="0px" y="0px"
	 width="901.5px" height="851.8px" viewBox="0 0 901.5 851.8" style="enable-background:new 0 0 901.5 851.8;" xml:space="preserve"
	>
<style type="text/css">
	.st0{clip-path:url(#SVGID_2_);}
	.st1{fill:#010101;stroke:#010101;stroke-width:2.1409;stroke-miterlimit:10;}
	.st2{fill:#FFFFFF;stroke:#010101;stroke-width:2.1409;stroke-linecap:round;stroke-linejoin:round;}
	.st3{fill:#FFFFFF;stroke:#010101;stroke-width:2.1409;stroke-miterlimit:10;}
	.st4{fill:none;stroke:#010101;stroke-width:2.1409;stroke-miterlimit:10;}
	.st5{fill:#010101;stroke:#010101;stroke-width:2.1409;stroke-linecap:round;stroke-miterlimit:10;}
	.st6{fill:none;stroke:#FFFFFF;stroke-width:1.6469;stroke-linecap:round;stroke-miterlimit:10;}
	.st7{fill:#FFFFFF;stroke:#010101;stroke-width:2.1409;stroke-miterlimit:9.9998;}
	.st8{fill:#010101;stroke:#010101;stroke-width:2.1408;stroke-linecap:round;stroke-linejoin:round;stroke-miterlimit:3.9998;}
	.st9{fill:none;stroke:#FFFFFF;stroke-width:1.6469;stroke-linecap:round;stroke-linejoin:round;}
	.st10{fill:#FFFFFF;stroke:#010101;stroke-width:2.1408;stroke-linecap:round;stroke-linejoin:round;stroke-miterlimit:3.9998;}
	.st11{fill:none;stroke:#010101;stroke-width:2.1409;stroke-linecap:round;stroke-linejoin:round;}
	.st12{fill:#FFFFFF;}
	.st13{fill:#010101;stroke:#010101;stroke-width:2.1377;stroke-linecap:round;stroke-linejoin:round;stroke-miterlimit:3.994;}
	.st14{fill:#010101;}
	.st15{fill:#FFFFFF;stroke:#010101;stroke-width:2.1409;stroke-linecap:round;stroke-miterlimit:10;}
	.st16{fill:#010101;stroke:#010101;stroke-width:2.1409;stroke-linecap:round;stroke-linejoin:round;}
	.st17{fill:#010101;stroke:#010101;stroke-width:2.1411;stroke-linecap:round;stroke-linejoin:round;stroke-miterlimit:4.0004;}
	.st18{fill:none;stroke:#010101;stroke-width:2.1409;stroke-linecap:round;stroke-miterlimit:10;}
	.st19{fill:#010101;stroke:#FFFFFF;stroke-width:2.1409;stroke-linecap:round;stroke-linejoin:round;}
	.st20{fill:none;stroke:#010101;stroke-width:4.9406;stroke-linecap:round;stroke-linejoin:round;}
	.st21{fill:#010101;stroke:#010101;stroke-width:2.1408;stroke-linecap:round;stroke-linejoin:round;stroke-miterlimit:3.9996;}
	.st22{fill:#4978BC;stroke:#010101;stroke-width:2.1409;stroke-linecap:round;stroke-linejoin:round;}
	.st23{fill:#010101;stroke:#010101;stroke-width:2.1411;stroke-linecap:round;stroke-linejoin:round;stroke-miterlimit:4.0002;}
	.st24{fill:none;stroke:#010101;stroke-width:4.9406;stroke-linejoin:round;}
	.st25{fill:#FFFFFF;stroke:#010101;stroke-width:2.1409;stroke-linejoin:round;}
	.st26{fill:none;stroke:#010101;stroke-width:2.1409;stroke-linejoin:round;}
	.st27{fill:#010101;stroke:#010101;stroke-width:2.1408;stroke-linejoin:round;stroke-miterlimit:3.9996;}
	.st28{fill:#010101;stroke:#010101;stroke-width:2.1409;stroke-linejoin:round;}
	.st29{fill:none;stroke:#010101;stroke-width:4.1172;stroke-linecap:round;stroke-linejoin:round;}
	.st30{fill:#FFFFFF;stroke:#010101;stroke-width:2.1409;stroke-linecap:round;stroke-linejoin:round;stroke-miterlimit:3.9998;}
</style>
<g>
	<defs>
		<rect id="SVGID_1_" x="-1" y="0.8" width="902.4" height="851"/>
	</defs>
	<clipPath id="SVGID_2_">
		<use xlink:href="#SVGID_1_"  style="overflow:visible;"/>
	</clipPath>
	<g class="st0">
		<g>
			<g id="Layer_2_1_">
				<g id="Layer_1-2">
					<g>
						<g>
							<g>
								<rect x="318.1" y="344.4" class="st1" width="227.9" height="109.1"/>
								<rect x="583.2" y="303.4" class="st2" width="24.9" height="269.8"/>
								<rect x="284.4" y="303.1" class="st3" width="302" height="269.8"/>
								<line class="st4" x1="291" y1="398.5" x2="346.3" y2="303.4"/>
								<line class="st4" x1="346.8" y1="398.5" x2="402.2" y2="303.4"/>
								<line class="st4" x1="402.7" y1="398.5" x2="458" y2="303.4"/>
								<line class="st4" x1="458.5" y1="398.5" x2="513.8" y2="303.4"/>
								<line class="st4" x1="514.3" y1="398.5" x2="569.6" y2="303.4"/>
								<line class="st4" x1="286.3" y1="398.5" x2="608" y2="398.5"/>
								<g>
									<path class="st3" d="M415.3,398.5c0-17.9,8.2-33.3,20.2-40.5c-3.7-1.7-7.7-2.7-11.9-2.7c-18.9,0-34.1,19.4-34.1,43.2
										s15.3,43.2,34.1,43.2c4.2,0,8.2-1,11.9-2.7C423.6,431.8,415.3,416.4,415.3,398.5z"/>
									<path class="st1" d="M457.7,398.5c0-18.6-9.2-34.3-22.2-40.5c-11.9,7.2-20.2,22.6-20.2,40.5c0,17.9,8.2,33.3,20.3,40.5
										C448.5,432.9,457.7,417.1,457.7,398.5z"/>
								</g>
								<g>
									<path class="st3" d="M510,398.5c0-10.5,5-19.4,12.3-23.1c-2.3-1.2-4.9-1.8-7.4-1.8c-10.9,0-19.8,11.2-19.8,25
										c0,13.8,8.8,25,19.8,25c2.6,0,5.2-0.7,7.4-1.8C515.1,418,510,409,510,398.5z"/>
									<ellipse class="st1" cx="522.3" cy="398.5" rx="12.3" ry="23.1"/>
								</g>
								<g>
									<path class="st3" d="M321.7,398.5c0-10.5,5-19.4,12.3-23.1c-2.3-1.2-4.9-1.8-7.4-1.8c-10.9,0-19.8,11.2-19.8,25
										c0,13.8,8.8,25,19.8,25c2.6,0,5.2-0.7,7.4-1.8C326.7,418,321.7,409,321.7,398.5z"/>
									<ellipse class="st1" cx="334" cy="398.5" rx="12.3" ry="23.1"/>
								</g>
								<rect x="588.2" y="392.5" class="st3" width="19.6" height="12.6"/>
								<g>
									<path class="st3" d="M454.7,416.4c0,0-17.9-5.5-48.3,12.2c-27.7,16.1-58.7,13.2-59.9,1.6c32.7-22,17-76.8,19.3-86
										c2.2-9.1,14.4,19.5,14.4,19.5s9.6-0.4,15.2-1.5c-0.5-12.5-0.5-34.7,7.1-20.3c1.3,2.4,4.6,13.8,5.7,15.9
										c6.8,14.4,23.9,20.7,38.3,14c1.8-0.9,3-1.5,3-1.5S464.3,388.6,454.7,416.4z"/>
									<ellipse class="st1" cx="374.7" cy="395.8" rx="2.8" ry="5.8"/>
									<ellipse class="st1" cx="389.9" cy="395.8" rx="2.8" ry="5.8"/>
									<path class="st5" d="M381.4,397.9c0,5.9-3.5,7.2-3.5,7.2"/>
									<path class="st5" d="M397.1,397.9c0,5.9-3.5,7.2-3.5,7.2"/>
									<path class="st6" d="M374.5,391.8c0,0-1.5,0.6-1,6"/>
									<path class="st6" d="M389.6,391.5c0,0-1.5,0.6-1,6"/>
									<circle class="st1" cx="347.7" cy="428.6" r="4.4"/>
								</g>
								<path class="st1" d="M608.1,332.6c0,0,45.5,3.9,47.3,57.4s-47.5,93.9-47.5,93.9L608.1,332.6z"/>
								<path class="st3" d="M657.5,523.1c0,0,9.5-0.3,2.7,14.9c-6.3,14.3-21.7,12.8-27.4,21.7c-4.5,7.1,0,13.2,16.6,13.2
									c18.5,0,25,0.1,35.7-15.6c22.2-32.9,12.1-78.4-9.2-81.4c-13.3-1.8-18.3,15.4-18.3,15.4l-7.4,2.2"/>
								
									<ellipse transform="matrix(0.9756 -0.2195 0.2195 0.9756 -95.3612 156.3699)" class="st7" cx="656" cy="507.3" rx="10.3" ry="21"/>
								<path class="st1" d="M608,493c0,0,29.8-11,37.7-6.7c7.9,4.4,15.6,43,9.8,46.5S608,547.1,608,547.1L608,493L608,493z"/>
								<path class="st3" d="M413.3,400c8.2-1.4,8.4,9.7,2.6,16.4c-5.4,6.3-11.2,5.8-12.8,2.9c-2.6-4.8,2.4-6.7,4.4-10.3
									C409,406.3,409.5,400.6,413.3,400z"/>
								<path class="st3" d="M494.7,395.8c0,0-19.8,6.1-24.3,12.5c-4.4,6.4,13.3,2.6,13.3,2.6"/>
								<path class="st3" d="M530.8,408.3c0,0-3.2-1.2-8.4,6.3c-5,7.3,0.3,24,1.2,29.6c1.1,6.4-6.6,6.3-6.6,6.3s-0.7,4.4-3.1,6.1
									c-2.2,1.5-6.3,2.3-11-1.5c-1.2,1.5-7.7,2.6-10.5-4.6c-9.5,0-9.5-13.2-9.5-31.9c0-18.9,16.1-26.3,24.3-28.4
									c14.8-4,22,1.5,22,1.5C536.5,398.5,530.8,408.3,530.8,408.3z"/>
								<path class="st3" d="M517,450.5c0,0-7.7,0.7-7.7-24.1"/>
								<path class="st3" d="M502.8,455c-3.8-8.2-4.2-28.7-4.2-28.7"/>
								<path class="st3" d="M492.3,450.5c0,0-3-16.3-2-24.1"/>
								<path class="st3" d="M606.2,392.5c2.7,0,4.9,2.8,4.9,6.3c0,3.5-2.2,6.3-4.9,6.3"/>
								<path class="st3" d="M601.6,392.5c2.7,0,4.9,2.8,4.9,6.3c0,3.5-2.2,6.3-4.9,6.3"/>
								<path class="st3" d="M593.7,392.5c2.7,0,4.9,2.8,4.9,6.3c0,3.5-2.2,6.3-4.9,6.3"/>
								<g>
									<path class="st3" d="M228,383.1c0,0-16.6-2.3-29.1,6.2c-12.6,8.4-21.8,47.6-10.5,83.1c11.3,35.5,69.5,17.3,69.5,17.3
										s41.5,19.1,51-3.1c-20.6-5-55.3-6.9-55.3-6.9s-42.2,8.7-50-10.2c-13.5-33,4.3-56.6,8.4-59c6.5-3.8,24.4-0.4,72.5,19.4
										l-0.2-74.9c-37.9-16.6-52,21.5-52,21.5"/>
									<path class="st3" d="M203.9,343.1c0,0,7.6,28.2,19,38.2c11.4,10,10.5-5.5,10.5-5.5s-13.6-5.8-13.5-25"/>
									<path class="st3" d="M201.2,311.4c-2.1,25.8,4.9,49.1,17.8,50.1c12.9,1.1,26.8-20.6,28.8-46.3s-7.7-34.3-20.6-35.3
										C214.3,278.9,203.3,285.7,201.2,311.4z"/>
									
										<ellipse transform="matrix(1.256624e-02 -0.9999 0.9999 1.256624e-02 -72.7724 555.3624)" class="st8" cx="244.8" cy="314.5" rx="9.4" ry="6.5"/>
									
										<ellipse transform="matrix(1.256710e-02 -0.9999 0.9999 1.256710e-02 -89.1058 535.7671)" class="st8" cx="226.7" cy="313" rx="9.4" ry="6.5"/>
									<polyline class="st9" points="221.7,315.7 227.6,310.1 227.6,315.7 232.5,311.6 									"/>
									<polyline class="st9" points="239.5,316.6 245.6,310.8 245.6,316.4 250.2,312.5 									"/>
									<path class="st3" d="M235.1,328.8c4.1,6.4,9.3,10.4,11.5,9c2.2-1.4,0.7-7.7-3.4-14.2c-4.1-6.4-8.3-8.4-10.5-6.9
										C230.4,318.2,231,322.5,235.1,328.8z"/>
									
										<ellipse transform="matrix(0.1082 -0.9941 0.9941 0.1082 -89.9494 489.4206)" class="st10" cx="227.8" cy="294.8" rx="11" ry="70.6"/>
									<path class="st2" d="M252.8,296.3c0,0-7.4,3.9-28.8,1.1c-16.7-2.2-21.2-7.1-21.2-7.1c1.6-13.8,12.4-24,26.2-24.1
										C245.6,266,254.5,282.5,252.8,296.3z"/>
									<path class="st11" d="M212,328.5c7.4,6.1,17.5,8.2,26.8,5.4"/>
								</g>
								<path class="st3" d="M261,460.6l2.1,19.2c0,0,8.8,9.5,31.9,14.4c25.1,5.4,36.3,0.8,36.3,0.8l9.7-17.8L261,460.6z"/>
								<path class="st3" d="M260.9,465.7c-17-11.3,11.4-14.4,11.4-14.4c-0.7-3.9,2-7.5,5.8-8.2c0.1,0,0.2,0,0.2,0
									c7.2-1.5,10.2,3.5,17.5,1.1c7.2-2.5,20-2.8,21.9,4.4c1.9,7.2,8,4,12.4,6.4c4.4,2.4,10,11.5,10,11.5s19.6,12.5,1.6,16.2
									C331.3,495.8,264.4,479.8,260.9,465.7z"/>
								<path class="st12" d="M646.9,418.4c0.5-8.3,1-16.4,0.6-24.5l-0.2-3c0-0.5,0-1-0.1-1.5L647,388l-0.3-3l-0.5-2.9
									c-0.7-3.9-1.5-7.6-2.8-11.3c-2.4-7.3-6.3-14.1-11.4-19.8c-5.4-5.9-11.9-10.7-19.1-14.2h-0.1c-0.1-0.1-0.2-0.2-0.1-0.2l0,0
									c0-0.1,0.2-0.2,0.2-0.1c12.1,3.5,22.4,11.3,29.1,22c2.1,3.5,4,7.3,5.3,11.2c0.3,1,0.7,1.9,1,3l0.8,3c0.2,1.1,0.4,2,0.6,3
									l0.3,1.5c0.1,0.5,0.2,1.1,0.2,1.5l0.4,3l0.2,3.1c0.2,2.1,0.1,4.2,0.1,6.2c-0.2,8.2-1.4,16.4-3.4,24.5c0,0.1-0.2,0.2-0.2,0.2
									C647,418.7,647,418.6,646.9,418.4L646.9,418.4z"/>
								
									<ellipse transform="matrix(0.1302 -0.9915 0.9915 0.1302 -180.8624 691.783)" class="st13" cx="303.9" cy="449" rx="4.9" ry="5.9"/>
								<g>
									<path class="st3" d="M337,322.1L337,322.1c-0.9,0-1.8-0.2-2.6-0.7c-0.8-0.4-1.5-1.1-2.1-1.7c-0.6-0.7-0.9-1.6-1.1-2.5
										c-0.2-1.4-0.2-2.6-0.4-3.8c-0.2-1.2-0.2-2.2-0.2-3.3c0-1.1-0.1-2.1-0.1-3c0-1,0-2,0-3c0-1.1,0.1-2.1,0.2-3.3
										c0.1-1.2,0.2-2.4,0.3-3.8c0.1-0.9,0.5-1.7,1-2.5c0.6-0.7,1.3-1.4,2.1-1.7c0.8-0.4,1.6-0.7,2.6-0.7l0,0
										c1.8-0.1,3.6,0.6,4.9,1.8c-0.3,1.1-0.5,2.1-0.7,3.1c-0.2,1.4-0.2,2.6-0.3,3.8c-0.1,1.2-0.2,2.2-0.2,3.3
										c0,1.1-0.1,2.1-0.1,3s0,2,0.1,3c0.1,1.1,0.1,2.1,0.2,3.3c0.1,1.2,0.2,2.4,0.4,3.8c0.2,1.3-0.2,2.6-1,3.5
										C339.5,321.5,338.3,322.1,337,322.1z"/>
									<path class="st3" d="M347.6,323.5L347.6,323.5c-1,0-1.9-0.2-2.8-0.7c-0.9-0.5-1.6-1.2-2.2-1.8c-0.6-0.8-1-1.6-1.2-2.6
										c-0.2-1.5-0.3-3-0.5-4.3c-0.2-1.3-0.2-2.6-0.2-3.8c-0.1-1.2-0.1-2.3-0.1-3.5s0-2.3,0.1-3.5c0.1-1.2,0.2-2.4,0.2-3.8
										c0.1-1.4,0.2-2.7,0.5-4.3c0.2-1,0.6-1.8,1.2-2.6c0.6-0.8,1.4-1.5,2.2-1.8c0.9-0.5,1.8-0.7,2.8-0.7l0,0
										c3.7,0,5.9,0.9,6.8,1.8c0,0-2.1,2-2.3,3.5c-0.2,1.5-0.3,2.9-0.5,4.3c-0.2,1.4-0.2,2.6-0.2,3.8c-0.1,1.2-0.1,2.3-0.1,3.5
										s0,2.3,0.1,3.5c0.1,1.2,0.2,2.4,0.2,3.8c0.1,1.4,0.2,2.7,0.5,4.3c0.2,1.3-0.2,2.6-1,3.7C350.1,323,348.9,323.5,347.6,323.5
										z"/>
									<path class="st3" d="M358,323.5L358,323.5c-1,0-1.9-0.2-2.7-0.7c-0.9-0.5-1.6-1.2-2.1-1.8c-0.6-0.8-1-1.6-1.2-2.6
										c-0.2-1.5-0.3-2.9-0.5-4.2c-0.2-1.3-0.2-2.5-0.2-3.7c-0.1-1.2-0.1-2.3-0.1-3.5c0-1.2,0-2.2,0.1-3.5
										c0.1-1.2,0.1-2.4,0.2-3.7c0.2-1.3,0.2-2.6,0.4-4.2c0.2-1,0.5-1.8,1.1-2.6s1.4-1.4,2.1-1.8c0.9-0.5,1.7-0.7,2.7-0.7l0,0
										c5.4,0,6.6,2.1,7.3,3.1c-2.1,1.4-3.3,3.7-3.4,6.2c0,1.3-0.2,2.5-0.2,3.7c-0.1,1.2-0.1,2.3-0.1,3.5s0,2.2,0.1,3.5
										c0.1,1.2,0.2,2.4,0.2,3.7c0.1,1.3,0.2,2.6,0.5,4.2c0.2,1.3-0.2,2.6-1,3.7C360.6,323,359.3,323.5,358,323.5z"/>
									<path class="st3" d="M367.3,322.1L367.3,322.1c-1.2,0-2.4-0.5-3.4-1.3c-1-0.8-1.6-1.9-1.7-3.1c-0.2-1.5-0.3-3-0.4-4.3
										c-0.1-1.3-0.2-2.5-0.2-3.7c0-1.2-0.1-2.3,0-3.5c0.1-1.2,0-2.4,0.1-3.7c0.1-1.3,0.2-2.7,0.3-4.3c0.2-1.2,0.7-2.3,1.6-3.1
										s2.1-1.3,3.3-1.3l0,0c4.9,0,9.4,4.2,10.1,9.6h-6.8c-0.1,1.3,0.3,8.8,0.4,10.1c0.1,1.3,0.2,2.7,0.4,4.3
										c0.2,1.2-0.2,2.2-0.9,3.1C369.6,321.6,368.6,322.1,367.3,322.1z"/>
								</g>
								<path class="st3" d="M330.5,300.9c0,0-7.9-11.6-12.9-7.2c-4,3.5,2,9.7,2,9.7h10.8L330.5,300.9L330.5,300.9z"/>
								<path class="st3" d="M255,491.6c31.4,22,57.3,5.3,57.3,5.3c-31.8-2.3-44.6-16.8-44.6-16.8s8.5-17.1,5.7-19.9
									c-5.3-5.4-20.9,19.1-20.9,19.1l-10.2-0.2l1.2,14.5L255,491.6z"/>
								<path class="st14" d="M318.7,465.8c-0.7-0.6-1.3-1.1-2-1.5c-0.4-0.2-0.9-0.1-1.2,0.3c-0.1,0.2-0.1,0.2-0.1,0.4
									c0.1,1,0.5,1.8,1.2,2.5c0.2,0.6,0.8,1,1.4,1.2c0.7,0.2,1.5-0.2,1.6-1C319.7,467,319.3,466.2,318.7,465.8z"/>
								<path class="st14" d="M292.1,466.3c-1.2,0.1-2.4,0.4-3.5,1.1c-0.2,0.1-0.4,0.3-0.4,0.6c-0.3,0.8,0.1,1.7,0.9,2.1
									c0,0,0,0,0.1,0c0.7,0.2,1.3,0,1.8-0.4c0.7-0.5,0.9-1.4,1.5-1.7C293.2,467.5,293,466.2,292.1,466.3z"/>
								<path class="st14" d="M332.5,473.3l-2-1c-0.4-0.2-0.9-0.1-1.2,0.3c-0.2,0.2-0.2,0.6,0,0.8c-0.2,0.4-0.1,0.8,0.3,1.1
									c0.8,0.5,1.6,0.7,2.6,0.4c0.4-0.2,0.7-0.6,0.6-1C332.8,473.7,332.7,473.5,332.5,473.3z"/>
								<path class="st14" d="M288.4,451.6h-2.1h-0.1h-0.7c-0.5-0.1-0.9,0.2-0.9,0.7c0,0.5,0.2,0.9,0.7,0.9c0.9,0.2,1.8,0.3,2.7,0.2
									c0.2,0,0.4-0.2,0.6-0.3c0.4-0.1,0.7-0.6,0.6-1C288.9,451.8,288.7,451.6,288.4,451.6z"/>
								<path class="st14" d="M306.6,464.4c-0.2-0.3-0.7-0.5-1.1-0.3c-0.2,0-0.5,0.1-0.7,0.2c-0.6,0.5-0.9,1.2-1,1.9
									c0,0.8,0.7,1.5,1.5,1.5c0.7,0,1.2-0.4,1.5-1C307.2,466,307.1,465.2,306.6,464.4z"/>
								<path class="st14" d="M327.1,459.1h-1.5c-0.5,0-0.8,0.3-0.8,0.8s0.3,0.8,0.8,0.8h1.5c0.5,0,0.8-0.3,0.8-0.8
									C327.9,459.3,327.6,459.1,327.1,459.1z"/>
								<path class="st14" d="M280,459l-1.1,0.2c-0.5,0-0.8,0.3-0.8,0.8c0,0.5,0.3,0.8,0.8,0.8h0.4h0.2l0.6-0.1
									c0.5,0,0.8-0.3,0.8-0.8C281,459.4,280.6,459.1,280,459C280.1,459,280.1,459,280,459z"/>
								<path class="st14" d="M316.9,473.9c-0.5,0-0.8,0.3-0.8,0.8c0,0.2,0.2,0.6,0.4,0.7c0.1,0.4,0.5,0.7,1,0.7
									c0.3-0.1,0.6-0.2,0.7-0.6c0.2-0.7-0.2-1.4-0.9-1.5C317.1,473.9,317,473.9,316.9,473.9z"/>
								<path class="st3" d="M239.2,475.7L239.2,475.7c1.6-0.2,3.1,1,3.3,2.6l1.8,15.6c0.2,1.6-1,3.1-2.6,3.3l0,0
									c-1.6,0.2-3.1-1-3.3-2.6l-1.8-15.6C236.4,477.4,237.6,475.9,239.2,475.7z"/>
								<g>
									<path class="st3" d="M328.3,412.2c-2.6-1.3-12-1.6-21.1-0.2s-26.9,0.2-31.2-7.7c-1.2-2.2-0.8-9-0.8-9
										c-1.7-3-1.5-6.8,0.7-9.4c-1.5-4.1-0.5-8.6,2.7-11.5c-0.4-4,0.4-7,4-9.3c8.6-5.4,26,5.4,26,5.4c-0.7-4.2-1-8.3-1.1-12.5
										c0-8.1,5.2-13.5,8.9-1.2c3.5,11.8,8.2,21.2,17.6,23.9c0,0,4.3,1.2,2.8,15.2C335.4,409.8,328.3,412.2,328.3,412.2z"/>
									<path class="st2" d="M298.6,365.6c17.5,7.8,14.4,16,9.1,14.6c-7.1-4.8-21.7-5.5-21.7-5.5s29.8-0.1,26.3,16.8
										c-1.6,8.2-5.5-9.6-29.6-6.8c21.9-2.1,26.8,9.9,27.6,14.9c1.2,8.5-23.2-4.4-27.8-3.5"/>
								</g>
								<ellipse class="st3" cx="588.2" cy="398.8" rx="4.9" ry="6.3"/>
								<ellipse class="st3" cx="588.2" cy="398.8" rx="1.5" ry="1.9"/>
								<path class="st3" d="M653.5,546.8c0,0,7.9-1.6,15.1,2.7"/>
								<path class="st3" d="M660.2,538.1c0,0,8.6-2.6,14.7,1.9"/>
								<path class="st3" d="M662.6,529.9c5.4-2,11.3-2,16.6,0"/>
								<path class="st15" d="M280.2,396.3c0,0,9.6-4.7,18.8,1.1c14.4,9.1,1.7,16.3-8.7,6.1l-4.4,1.6"/>
								<path class="st14" d="M223.5,405.3c2.7,0.1,5.4,0.4,8,1c1.3,0.2,2.6,0.5,4,0.8c1.3,0.3,2.6,0.6,4,0.9
									c5.2,1.3,10.3,2.8,15.5,4.4c2.6,0.8,5.1,1.6,7.6,2.6c2.5,0.9,5,1.7,7.6,2.7c2.6,1,5,1.8,7.5,2.9l7.4,3l-1.3,3l-7.3-3.4
									c-2.4-1.2-4.9-2.1-7.3-3.2c-2.5-1.1-4.9-2.1-7.3-3.1c-2.4-1.1-4.9-2-7.4-3c-4.9-1.9-10-3.6-15.2-5.2
									c-1.3-0.4-2.6-0.8-3.9-1.2c-1.3-0.3-2.6-0.7-4-1C228.8,406,226.2,405.6,223.5,405.3z"/>
							</g>
							<line class="st4" x1="-141.5" y1="722.3" x2="1050" y2="722.3"/>
							<g>
								<rect x="48.5" y="585.2" class="st3" width="880.4" height="136.9"/>
								<g>
									<rect x="755.3" y="608.1" class="st3" width="139.4" height="12.3"/>
									<rect x="777.2" y="644.3" class="st3" width="139.4" height="12.3"/>
									<rect x="799.1" y="680.5" class="st3" width="139.4" height="12.3"/>
								</g>
								<g>
									<rect x="803.9" y="608.1" class="st2" width="139.4" height="12.3"/>
									<rect x="825.8" y="644.3" class="st2" width="139.4" height="12.3"/>
									<rect x="847.7" y="680.5" class="st2" width="139.4" height="12.3"/>
								</g>
								<g>
									<rect x="0.2" y="573" class="st3" width="1001.8" height="12.2"/>
									<rect x="752.5" y="573" class="st2" width="249.3" height="12.3"/>
								</g>
							</g>
							<g>
								<polygon class="st12" points="725.8,495.4 703,472.8 714.4,438.7 756.9,404.3 878,432 873.6,483 								"/>
								<path class="st16" d="M879.8,464.5c4.3,44.5,6.9,98.7,9.6,143.4l-64.3,0.1c-18.9-0.2,9.1-22.7,20.3-17
									c-2.6-25.3-14.7-57.3-17-82.8c-11.6,0-51.5-4-50.7,7.6c1.6,21.6,5,34.3,4.9,56.9l-56.2,0.1c-25.3,0,4.9-22.4,16.2-16.8
									c-8.7-22.2-7.6-28.9-7.6-28.9"/>
								<path class="st3" d="M855.2,470.4c3.2,9.6,3.2,28.1,3.2,28.1l26-0.5l0.8,9.8l-26.2,1c0,0,0.3,37.3,7.7,58.1
									c-84.4-1-84.7-47.4-131.6-33.3c-12.3-24.6-16.8-59.5,13.2-62.3"/>
								<path class="st1" d="M781.4,459.9c1.2,2.4,2.3,4.3,3.5,7.1c11.5,9.7,34.1,25.9,37.6,38.3c3.5,12.4,21.2,7.5,23.4-1
									c-23.4-22.1-40.2-37.1-56-52.6C792.7,454.5,784.2,457.2,781.4,459.9z"/>
								<path class="st3" d="M731.4,415.5c-21.9,13.3-43.3,52.1-27.6,74.4c12.5,17.6,31.2,21.2,42.7,14c7.7-4.8,2.5-7.5,5.1-11.6
									c2.1-2.6,3-5.9,2.6-9.2c-0.5-2.2-2.6-6-5.1-6.7c0.1-4,2.1-4-2-8.6c-2.1-2.3-13.8-3.6-17.9-0.3c-1.7-2.8,0.5-3.5-2-6.5
									c-2.5-3-14.7,4-14.7,7.4"/>
								<path class="st3" d="M848.1,432.4l12.7,11.8c-18.1,0-35.8,13.1-44.7,13.4c-7.1-5.9-12.8-5.9-22.8-2.4c0,0,4,3.5,7,6
									c-5.3,3.9-8.2,15.4-16.1,7.6c-1.2,3-1.6,6.2-1.5,9.4c0.2,2,1.8,2.6,2.3,4.4c0.5,1.8-0.2,4.6,0.6,5.8
									c1.5,2.6,3.5,4.9,5.5,7.1c1.5,1.5,4.4,1.9,6.7,3.2c1.6,0.9,2.6,2.6,4.9,3.5c8.1,2.9,16.2-3.5,26.5-4.4
									c29.5-3.1,76.8-5.1,83.9-49c8-49.1-69.3-67.9-87.4-65.8c-45.3,5.4-67.9,9-94.4,32.7"/>
								
									<ellipse transform="matrix(0.9756 -0.2195 0.2195 0.9756 -84.7013 172.112)" class="st7" cx="732.2" cy="467.2" rx="11.9" ry="6.2"/>
								<path class="st3" d="M759.9,469.9c13.1-8.3,33.5-14.7,33.5-14.7L673.7,338.9c5.8,27.7,17,54.8,35.2,75.7
									C725.8,434,741.2,450.2,759.9,469.9z"/>
								<path class="st3" d="M735.9,465.2L702,333.7l-3.5,1l29.1,133.5C731,468.1,734.3,467.2,735.9,465.2z"/>
								<path class="st2" d="M832.8,384.7c-5.1-22.2-16-65.9-16-65.9c12.8-4.2,22-11.8,17.6-26.2c-3-10.3-14.7-13.2-24.5-8.6
									c-1.5-8.2-7.2-14-16-14c-17.5,0-25.1,16.3-25.1,16.3c-14-6.8-26.1-4.7-32.7,3.9c-5.2,6.8-1,17.7,4.9,22.6
									c-10.6,7.1-16.1,16-10,24.1c7.2,9.6,21.2,3.9,21.2,3.9c3.5,19,12.7,59,12.7,59C779.6,416.8,813.6,398.1,832.8,384.7z"/>
								<path class="st4" d="M855.5,387.1c-21.9,7.3-25.1,37.9-9.1,59.2"/>
								<path class="st3" d="M847.8,385.1c-16.1,4.5-24.6,20-24.9,37.9c-17.9,6.3-41.6,8.6-57.5,5.2"/>
								<path class="st3" d="M764,397.5c-4.5,5.2-8.4,14.3-9.1,21.2"/>
								<path class="st16" d="M771.7,357.6c0.8,3.8,2.1,10.8-3,11.8c-5.1,1-6.6-6.2-7.3-10c-0.8-3.8-2.1-10.8,3-11.7
									S770.9,353.8,771.7,357.6z"/>
								<path class="st16" d="M786.8,354.2c0.8,3.8,2.1,11-3,11.9c-5.2,0.8-6.6-6.3-7.3-10c-0.8-3.8-2.2-10.9,3-11.9
									C784.6,343.2,786.1,350.5,786.8,354.2z"/>
								<path class="st2" d="M800,379.3c1-1,1.6-2.1,2.2-3.4c1.5-3.5,1.4-6.6-1.7-8.8c-3.5-2.5-6.6-1.1-9.6,1.9
									c-2.1,2.1-4.3,4-7.7,4.9c-2.8,0.7-6.3,2.1-6.8,5.7c-0.4,3.6,2.1,7.1,5.4,7.4C789.8,387.9,795.4,384.5,800,379.3z"/>
								<path class="st2" d="M776.7,381.5c10.8,0,19.9-3.1,24.5-13.6c-1.3-0.7-2.5-1.4-3.8-2c0.8,1.5,1.6,2.9,2.4,4.4l3.2,3
									c-0.3-1.5-0.7-3-1.1-4.4"/>
								<path class="st3" d="M889.4,402.5c0,0-21.8-0.2-35.2,35.5"/>
								<path class="st4" d="M756.9,398.1c0,0-6.2,7.3-8.5,14.1"/>
								<path class="st4" d="M742.7,463.3c2.3-2,3.7-4.9,3.9-7.9"/>
								<g>
									<path class="st2" d="M851.2,470.9c0,0,8.6-6.8,3.8-12.5c-4.8-5.7-16.5,10-19.8,19.8C856.1,488.1,877.3,468.9,851.2,470.9z"
										/>
									<line class="st11" x1="843.9" y1="472.8" x2="832.5" y2="467.8"/>
									<line class="st11" x1="857.2" y1="479.8" x2="865.1" y2="483.2"/>
								</g>
								<path class="st12" d="M742.7,559.2c-2.6,0.7-4.6,1.2-6.6,1.6c-1.8,0.6-3.6,1.2-5.4,2c-1.7,0.7-3.5,1.6-5.4,2.5
									c-1.9,0.9-4,1.8-6.4,2.8h-0.1c-0.1,0-0.2,0-0.2-0.1l0,0c0-0.1,0-0.1,0-0.2c1.4-1.9,3-3.6,4.7-5c1.7-1.5,3.8-2.7,5.9-3.7
									c2.1-0.9,4.4-1.5,6.8-1.5c2.3-0.1,4.6,0.3,6.8,1.2c0.1,0,0.2,0.2,0.1,0.2l0,0C742.8,559.1,742.7,559.1,742.7,559.2
									L742.7,559.2z"/>
								<path class="st12" d="M846.5,594.6c-2.6,0.7-4.6,1.2-6.6,1.6c-1.9,0.6-3.6,1.2-5.4,2c-1.7,0.8-3.5,1.6-5.4,2.5
									c-1.9,0.9-4,1.8-6.4,2.8l-0.1,0.1c-0.1,0-0.2,0-0.2-0.1c0-0.1,0-0.1,0-0.2c1.4-1.9,3-3.6,4.7-5c1.7-1.5,3.8-2.7,5.9-3.7
									c2.1-0.9,4.4-1.5,6.8-1.5c2.3-0.1,4.6,0.3,6.8,1.2c0.1,0,0.2,0.2,0.1,0.2l0,0C846.7,594.6,846.7,594.6,846.5,594.6
									L846.5,594.6z"/>
								<path class="st12" d="M885.9,603.5c-1.8-7.5-3.2-15.2-4.1-22.8c-1-7.6-1.7-15.3-2.2-23c-0.5-7.7-0.7-15.4-0.7-23.1
									c-0.1-7.7,0.3-15.6,1.2-23.2l0,0c0-0.1,0.1-0.2,0.2-0.2l0,0c0.1,0,0.2,0.1,0.2,0.2l0.8,11.5l0.8,11.5l1.5,23.1l1.5,23.1
									l0.7,11.5l0.7,11.5c0,0.1-0.1,0.2-0.2,0.2l0,0C886.1,603.7,886,603.6,885.9,603.5L885.9,603.5z"/>
								
									<ellipse transform="matrix(0.9297 -0.3683 0.3683 0.9297 -127.1803 342.0449)" class="st7" cx="832.5" cy="504.2" rx="4" ry="3.5"/>
								<path class="st14" d="M813.8,322.1l7.4,30.8l7.2,30.8l-0.3,0.1c-2.2-4.8-4.2-9.9-5.8-14.9c-0.9-2.5-1.5-5-2.2-7.6
									c-0.7-2.6-1.4-5.1-2-7.7c-0.6-2.6-1.2-5.1-1.6-7.7c-0.6-2.6-1.1-5.2-1.4-7.8c-0.9-5.3-1.5-10.5-1.6-16H813.8z"/>
							</g>
						</g>
						<g>
							<g>
								<ellipse class="st14" cx="929" cy="780.4" rx="81.7" ry="5.4"/>
								<path class="st14" d="M950.4,427.9c-0.6,0.7-1.2,1.3-1.7,1.8c-0.7,0.6-1.2,1.1-1.9,1.5c-1.3,0.9-2.6,1.6-4,2.3
									c-1.3,0.7-2.6,1.2-4.1,1.6l-4.1,1.5c-2.7,1-5.4,1.9-8.2,3c-2.7,1.1-5.4,2-7.9,3s-5,2.1-7.4,3.5c-2.2,1.2-4.4,2.6-6.3,4.3
									c-1.6,1.3-2.9,2.9-3.8,4.6l-0.2,0.6l-0.2,0.5c-0.1,0.2-0.1,0.5-0.2,0.7c0,0.1,0.1,0,0-0.3c-0.1-0.5-0.2-0.9-0.5-1.3
									c-0.2-0.3-0.4-0.6-0.7-0.8c-0.1-0.1,0,0,0.2,0c0.8,0.2,1.6,0.4,2.5,0.5c2.6,0.2,5.2,0.4,7.7,0.2c2.8-0.1,5.8-0.2,8.8-0.4
									l9.3-0.7c6.3-0.3,12.9-0.8,20.3-0.2c4.3,0.3,8.4,1.3,12.4,2.9c2.6,1.1,4.9,2.6,7.2,4.4c2.5,2.1,4.5,4.8,6,7.7
									c2.6,6.7-0.6,14.2-7.3,16.9c-6.5,2.6-13.8-0.4-16.6-6.8c0.2,0.2,0.6,0.4,0.7,0.3c0.2-0.1,0-0.4-0.5-0.7
									c-1.6-1.1-3.5-1.7-5.3-2.1c-2.6-0.6-5.2-1.1-7.7-1.3c-2.8-0.3-5.7-0.5-8.6-0.6l-9.1-0.2c-3.1-0.1-6.3-0.1-9.6-0.3
									c-3.5-0.2-7.2-0.6-10.5-1.2c-2.1-0.4-4.4-1.1-6.4-1.9c-1.4-0.6-2.6-1.4-3.8-2.2c-1.5-1.2-2.8-2.5-3.8-4.1
									c-1.1-1.6-1.7-3.6-2.1-5.6c-0.2-1.6-0.2-3.3,0-4.9c0.2-1.3,0.6-2.6,1-3.8c0.2-0.6,0.4-1.2,0.7-1.6s0.5-1.1,0.7-1.6
									c1.9-3.7,4.4-7,7.5-9.8c2.6-2.5,5.4-4.8,8.4-6.9c2.8-2,5.7-3.8,8.7-5.4c5.8-3.2,11.9-5.8,18.1-7.7c1.5-0.5,3.1-1,4.6-1.4
									c1.5-0.5,3.1-0.8,4.7-1c1.6-0.2,3.3-0.2,4.9-0.1c0.9,0.1,1.7,0.2,2.6,0.4c1,0.2,1.8,0.4,2.7,0.8c3.6,1.3,5.5,5.2,4.4,8.9
									c-0.2,0.7-0.6,1.3-1,1.9L950.4,427.9z"/>
							</g>
							<g>
								<g>
									<ellipse class="st19" cx="-36.1" cy="377.1" rx="35.1" ry="44.4"/>
									<ellipse class="st19" cx="-25" cy="377.1" rx="35.1" ry="44.4"/>
									<g>
										<path class="st19" d="M0.7,389.8c-5.4,18.4-21.3,27.7-35.5,20.6l7.3-25c1.4-4.6,5.4-7,9-5.2L0.7,389.8z"/>
										<path class="st19" d="M-15.1,343.6c14.2,7.2,21.2,27.9,15.8,46.3l-19.1-9.6c-3.5-1.7-5.4-7.1-4-11.6L-15.1,343.6z"/>
									</g>
								</g>
								<g>
									<polygon class="st16" points="-20.4,434.6 2.1,415.5 32.7,415.5 									"/>
									<polygon class="st16" points="-20.4,461.3 2.1,480.2 32.7,480.2 									"/>
									<g>
										<path class="st19" d="M-33.6,635.4h-10.8l86.7,160.2c1,1.2,2.3,1.8,3.7,2.1l0,0c1.4,0,2.4-1.1,2.5-2.3
											c0-0.4-0.1-0.8-0.3-1.2L-33.6,635.4z"/>
										<ellipse class="st14" cx="-53.1" cy="797.7" rx="112.4" ry="6.4"/>
									</g>
									<polygon class="st19" points="33.8,415.5 33.8,481.1 -6.9,467.6 -6.9,432.7 									"/>
								</g>
								<g>
									<line class="st20" x1="153.1" y1="697.6" x2="175.1" y2="797.3"/>
									<line class="st20" x1="106.8" y1="697.6" x2="77.6" y2="797.3"/>
									<path class="st16" d="M339.6,703.4c0,0,11.4-38.9,27.2-45.8c15.7-6.9,19.5,6,10.5,22.9c-6.2,11.8-11.6,23.9-16.4,36.2
										l-5.8,4.5l3.6,4.1c0,0-1.4,14-9.2,14.7s-15-12.7-15-12.7"/>
									<path class="st16" d="M332.4,620c9.4-15.7,7.2-40.5,15.2-48.3c10.5-10.4,20.4,0.8,19,15.4c-1.5,14.6-5.8,28.1-12.4,41.5
										c-2.1,2-4.4,3.8-6.8,5.6c1.2,1.3,2.5,2.3,3.8,3.6c-1.2,5.4-2.2,14.1-8.7,15.5c-6.5,1.4-12.7-5.3-15.7-10.2"/>
									<path class="st16" d="M152.7,697.6c0,0-143.5,15.5,52.6,14.2c45.7-0.3,54.3-14.2,54.3-14.2H152.7z"/>
									<path class="st2" d="M116.8,567c-34.7,1.1-44.2-83.1-43-133.9c-7.4-5.3-16.3-3.2-24-1.9c-4.3,47.8-7.4,106.6,33.8,165.6
										c26,37.1,9.2-14.2,23-12"/>
									<circle class="st16" cx="156.9" cy="524.9" r="3.8"/>
									<polyline class="st20" points="72.5,602.9 84.1,697.6 170.5,697.6 									"/>
									<path class="st16" d="M84.1,697.6c0,0,6.9,13.6,52.6,13.6s54.3-13.6,54.3-13.6H84.1z"/>
									<path class="st2" d="M131.6,672.7l97.5-64.2c5.4-3.5,11.8-5,18.2-4.3l84.9,10.2c7.3,0.4,12.1,7.2,10.8,14.3l-2.2,12.1
										c-1.2,6.1-7.2,10.3-13.3,10l-86.6-5.7l-61.3,45.7"/>
									<path class="st2" d="M138.3,713.9c33.3,4.2,103.3-48.5,103.3-48.5l85.9,65.9c4.1,3,13.9,2.6,17.5-1.1l0,0
										c9.7-9.8,9.6-25.6-0.2-35.3c-0.5-0.5-1-0.9-1.5-1.3L259,621.3c-4.7-4.1-11.5-4.8-17-1.7l-77.1,42.2c0,0-1.6,13.1-6.5,19.4
										s-49.2,7.6-60.9,4.4c0,0,7.7,36,28.5,25C126.1,710.5,129.1,712.7,138.3,713.9z"/>
									<path class="st2" d="M106.8,567.7c4.2-1.4,8.5-2.2,12.8-2.7c5-0.6,10.2-0.8,15.3-0.8c27.5,0,32.3,27.2,35.7,53.4
										c6,46.8,6,62-7.2,71c-8.5,5.8-57.9,7-66-3c0,0-11.7-37.1-13.8-76.6c-0.4-5.8,0-11.8,1.3-17.5"/>
									<path class="st16" d="M185.8,657.4c0,0-26.8,2.8-60.8,2.8c-21.7,0-45.9-2.8-45.9-2.8L72.5,603c14.8,1.7,29.7,2.6,44.5,2.7
										c32.6,0,62.3-2.7,62.3-2.7L185.8,657.4z"/>
									<polyline class="st20" points="179.3,602.9 190.9,697.6 277.3,697.6 									"/>
									<path class="st2" d="M56.1,392c0,0,1.2-6.8,2.1-12.1c2-11,10-4.9,8.7,2.1c-0.5,2.6-3.8,22.6-3.8,22.6"/>
									<path class="st2" d="M66.8,409.8c4,0-1.5-8.9,5.7-8.4c5.6,0.4,9.7,12.8-5.4,21.2c-3.8,2.1,1,7.3,1,7.3s-7.6,3.9-12.8,1
										l-0.9-4.3c0,0-4.9-9.1-6.1-14.7c-2.1-10.7,6.3-9.6,7.8-20"/>
									<polygon class="st2" points="72.2,401.1 35.1,392.1 38.9,382.4 73.3,397.7 									"/>
									<path class="st2" d="M61.1,401.9c0,0,3.6-20.2,5.4-25.4c1.7-5.2,7.8-2.4,7.7,2.2c-0.1,2.6-7.3,31-7.3,31"/>
									<path class="st2" d="M188.5,558.2c0,0-8-15.6,9-20.8c10.4-3.1,16.5,1.7,17.7,7.1c1.6,7.3,3.1,28.2,3.1,28.2
										s-1,9.6-15.7,7.9c-2.5-0.2-4.5-1.7-5.7-4l0,0L188.5,558.2z"/>
									<path class="st2" d="M196.9,588.9c0,0,0.3-4-2.1-5.6c-2.4-1.6-6.3-9.8-1-11.8l5.2,7.9c0,0,1.5,0.2,3.5,0.1
										c7.3-0.2,13.4-5.8,13.9-13.2c0-1.5,0.3-3,0.9-4.4c1.5-2.6,8.8,3,9.6,13.6c0.8,10.5-12.5,20.5-12.5,20.5"/>
									<path class="st2" d="M141.8,564.8c55.1-3.5,57.2,60.4,57.6,77.6c0,0-0.1-4.7-1.3-17.5c-1.1-11.6-3.6-19-3.6-19l2.3-16.8
										c0,0,25.5-2.1,24.7,9.1c-1.1,12.8-1.6,61.7-15.1,71.4c-4,2.8-15.5,2.9-19.4-0.7c-20.3-18.6-29.2-77.8-29.2-77.8"/>
									<path class="st11" d="M194.1,544.4l-15.8-9.9c-4-2.5-8.8-2.8-13-1l-9.9,4.4"/>
									
										<ellipse transform="matrix(0.9416 -0.3366 0.3366 0.9416 -171.1729 98.4193)" class="st21" cx="198.3" cy="542.9" rx="6.4" ry="1.7"/>
									<line class="st20" x1="202.1" y1="697.6" x2="182.1" y2="797.3"/>
									<line class="st20" x1="259.5" y1="697.6" x2="281.6" y2="797.3"/>
									<path class="st2" d="M105.2,502.2c0,0-15.6-46.1-16.9-60.1c-1.4-13.9,13.2-19.6,17.7-8.5c2.6,6.3,16.1,70,16.1,70"/>
									<path class="st2" d="M106.8,567.7l2.6-11.7c0,0-16.6-22.5-16.5-37.3c0-21.1,16.1-24.4,28.7-24.9
										c12.6-0.5,35.3,26.4,35.3,36.9c0,10.5-6.8,14.4-15.1,21.7c-8.3,7.3,7.3,12.9,7.3,12.9S134.6,574.4,106.8,567.7z"/>
									<path class="st16" d="M89.6,504.2c0-2.9,6.8-14.7,13-18.2c14.6-8.2,47.3,5.1,49.2,10.3c4,10.3-26.5,1.6-36.2,5.6
										C107.5,505.3,89.5,513.5,89.6,504.2z"/>
									<path class="st2" d="M117.4,505.3c0,0-12.5-53.2-12.1-67.1c0.4-13.9,18.3-18,21.4-6.4c1.7,6.5,7.7,70.3,7.7,70.3"/>
									<path class="st11" d="M188.5,558.2c0,0,8.9,1.2,16.8-2.8"/>
									<path class="st22" d="M211.4,551.9c1.9-1.2,3.5-3,4.3-5"/>
									<polygon class="st2" points="108.4,636.9 102.4,640.7 103,632.6 97.5,626.8 104.4,625.7 107,618.3 110.7,625.7 
										117.7,626.8 113.1,632.6 114.8,640.7 									"/>
									<ellipse class="st14" cx="171.5" cy="797.5" rx="140.6" ry="6.6"/>
									
										<ellipse transform="matrix(0.2664 -0.9639 0.9639 0.2664 -345.9185 319.8614)" class="st23" cx="37.2" cy="387.2" rx="4.8" ry="3.5"/>
									<path class="st14" d="M246.9,664.1c7.5,4.4,14.7,9.1,21.9,14.1c3.6,2.4,7.1,5,10.5,7.5c3.5,2.5,6.9,5.2,10.3,7.7
										c3.5,2.6,6.8,5.3,10.2,8c3.4,2.7,6.8,5.4,10,8.2c6.6,5.6,13.1,11.3,19.2,17.5l0,0c0.1,0.1,0.1,0.2,0,0.2l0,0
										c-0.1,0.1-0.2,0.1-0.2,0l-41.1-31.5l-41-31.6c-0.1-0.1-0.1-0.2,0-0.2l0,0C246.9,664.1,246.9,664,246.9,664.1L246.9,664.1z"
										/>
									<path class="st14" d="M119.6,701.7c2,1.7,4.4,3.1,6.8,4c1.2,0.4,2.5,0.8,3.7,1.1c0.7,0.2,1.3,0.2,1.9,0.3
										c0.7,0.1,1.3,0.2,1.9,0.2c1.3,0.1,2.6,0.2,3.9,0.2h1.9l1.9-0.1c2.6-0.2,5.2-0.4,7.7-0.9c1.3-0.2,2.6-0.4,4-0.7
										c1.4-0.2,2.6-0.6,4-0.9c2.6-0.6,5.2-1.3,7.7-1.9c5.2-1.4,10.4-3,15.9-4.3l0,0c0.1,0,0.2,0,0.2,0.1c0,0.1,0,0.2-0.1,0.2
										c-4.9,2.4-10,4.4-15.2,6.3c-5.1,1.8-10.5,3.3-15.9,4.3c-5.4,1-11,1-16.4,0.1c-2.7-0.5-5.4-1.4-7.8-2.6
										c-2.5-1.2-4.6-3-6.3-5.3c-0.1-0.1,0-0.2,0-0.2l0,0C119.4,701.7,119.5,701.7,119.6,701.7L119.6,701.7z"/>
									<path class="st14" d="M123.6,707.9c-1,0.7-2.1,1.2-3.2,1.4s-2.2,0.2-3.4-0.1c-2-0.5-3.8-1.5-5.3-2.8
										c-1.5-1.2-2.7-2.6-3.9-4.1c-1.2-1.5-2.1-3-3-4.5c1.2,1.4,2.4,2.7,3.8,4c1.3,1.2,2.7,2.2,4.4,3.1c1.4,0.9,3,1.4,4.5,1.5
										c1.4,0.1,2.7-0.5,3.7-1.5c0.8-0.8,2.1-0.7,2.8,0.1c0.8,0.8,0.7,2.1-0.1,2.9C123.8,707.8,123.7,707.8,123.6,707.9
										L123.6,707.9z"/>
									<polygon class="st14" points="284.4,641.3 327,647.2 284.1,644.4 									"/>
									<path class="st2" d="M204.1,540.4c-0.3,1.4-1.6,2.1-3,1.7c-0.7-0.2-1.3-0.7-1.6-1.3c-2.1-4.3-4.5-10.2-4.5-15.5
										c0-9.6,4.4-5.4,4.4-5.4s0.4-21.2,6.3-22.5c5.9-1.4,1.1,17.1,1.1,17.1s5.8-3,4.7,3.2C210.8,523,206.5,530.9,204.1,540.4z"/>
								</g>
							</g>
							<g>
								<g>
									<ellipse class="st14" cx="619.6" cy="762.9" rx="229.3" ry="5.1"/>
									<g>
										<path class="st14" d="M400.4,668.4c0.4-1.2,0.7-2.1,1.1-3c0.4-1,0.8-1.8,1.3-2.7c0.9-1.6,1.9-3.4,3-4.9
											c2.2-3,4.8-5.7,7.7-8c1.5-1.2,2.9-2.3,4.6-2.9c1-0.3,1.9-0.5,2.9-0.5c1.1,0,2-0.1,3,0c1.9,0.1,3.9-0.2,5.7-0.7l4.9-2.1
											c6.8-3,13.8-5.5,21.1-7.5c3.9-1.1,7.7-1.7,11.6-2.1c4.1-0.4,8.2-0.4,12.3,0c8.3,0.9,16.4,3.8,23.5,8.2
											c7.1,4.4,13.2,10.1,18.4,16.7c4.6,6.2,8.6,12.9,11.7,20c3,6.8,5.4,13.4,7.6,19.8c2.1,6.4,4.3,12.7,6.4,18.4
											c1.2,2.9,2.2,5.6,3.5,8.2c1.2,2.4,2.5,4.6,4,6.8c1.3,1.8,2.7,3.5,4.4,4.9c1.5,1.3,3.2,2.2,5,3c2.1,0.8,4.2,1.3,6.4,1.5
											c0.6,0.1,1.2,0.1,1.8,0.2c0.7,0.1,1.2,0,1.7,0c1.1,0,2.1-0.1,3.2-0.3c2-0.3,4-1,5.7-1.8c1.9-1.1,3.7-2.3,5.3-4
											c3.5-3.4,6.7-8.2,9.8-13.5s6.1-11.4,9.6-17.6c1.7-3.1,3.7-6.3,5.8-9.5c2.3-3.4,4.9-6.4,7.7-9.3c3.1-3.1,6.8-5.8,10.7-7.8
											c4.1-2.1,8.4-3.5,13-4.2c2.1-0.3,4.4-0.5,6.6-0.4c1.1,0,2.1,0.1,3.2,0.1s2.1,0.2,3.3,0.4c4.5,0.7,9,2.1,13,4.4
											c4,2.1,7.4,4.9,10.4,8.2c2.7,3,5.1,6.3,7.2,9.8c4,6.7,6.7,13.2,9.2,19.5c2.6,6.3,4.9,12.4,7.4,17.8
											c2.6,5.4,5.7,10,9.1,12.4c1.6,1.2,3.6,2,5.6,2.4c0.2,0.1,0.6,0.1,0.8,0.2c0.2,0,0.6,0.1,0.8,0.1c0.6,0,1.2,0.1,1.6,0.1
											c1,0,2-0.1,3-0.3c2-0.5,3.9-1.5,5.4-2.9c2-1.7,3.8-3.9,5.2-6.1c3.4-4.9,6.4-10.8,10.2-16.8c1.9-3.1,4-6.2,6.3-9.1
											c2.6-3.1,5.5-5.9,8.8-8.2c3.5-2.4,7.5-4.1,11.7-4.9c2-0.4,4.1-0.7,6.2-0.7h1.5c0.6,0,1.2,0.1,1.7,0.1
											c3.6,0.3,7.1,1.6,10,3.6c1.7,1.2,3.5,2.6,4.9,4.3c2.6,2.9,4.7,6.1,6.6,9.5c3.5,6.4,5.9,12.8,8.5,18.9c1.3,3,2.6,6,4,8.7
											c1.2,2.6,2.8,4.9,4.6,7.2c0.7,0.8,1.6,1.5,2.5,2c0.8,0.4,1.6,0.7,2.5,0.7c1.8,0.1,4.4-0.9,6.8-2.5
											c2.6-1.6,4.9-3.6,7.1-5.8c2.2-2.1,4.4-4.5,6.5-7.1l0,0c1.5-1.7,4.2-1.9,5.9-0.5c1.6,1.5,1.9,4,0.7,5.7
											c-2.1,2.7-4.3,5.4-6.7,8c-2.5,2.7-5.1,5.2-8.1,7.3c-1.6,1.2-3.4,2.1-5.2,3c-2.1,1-4.4,1.5-6.6,1.6
											c-2.5,0.1-4.9-0.4-7.2-1.5c-2-1-4-2.3-5.5-3.9c-2.6-2.7-4.9-5.8-6.8-9.1c-1.7-3.1-3.3-6.3-4.8-9.3
											c-2.9-6.1-5.6-12.1-8.7-17.4c-1.5-2.5-3.1-4.7-5.1-6.8c-1.5-1.6-3.4-2.7-5.4-3.3c-0.5-0.1-0.9-0.2-1.4-0.2
											c-0.2,0-0.5,0-0.7,0l-1,0.1c-1.3,0.1-2.6,0.3-3.8,0.7c-2.4,0.6-4.5,1.6-6.6,3.1c-4,3-7.2,7.8-10.3,13.3
											c-3,5.5-5.8,11.7-9.8,18c-2.1,3.5-4.6,6.6-7.4,9.4c-1.6,1.5-3.5,3-5.4,4.2c-2,1.2-4.3,2.2-6.5,2.9
											c-2.2,0.7-4.5,1.1-6.9,1.2c-1.2,0.1-2.2,0.1-3.4,0c-0.6,0-1.2-0.1-1.6-0.1c-0.6,0-1.2-0.1-1.6-0.2
											c-4.5-0.7-9-2.2-12.9-4.8c-3.6-2.4-6.8-5.4-9.5-8.8c-2.4-3-4.4-6.3-6.3-9.7c-3.5-6.5-6.2-12.8-8.9-18.9
											s-5.4-11.7-8.4-16.4c-1.5-2.2-3-4.4-4.9-6.2c-1.5-1.6-3.4-3-5.4-4c-1.9-0.9-4-1.5-6-1.6c-2.3-0.2-4.6-0.2-6.9,0.2
											c-4.4,0.8-7.7,2.8-11.2,6.4c-3.5,3.6-6.4,8.5-9.4,13.9c-3,5.4-5.7,11.6-9.1,17.9c-1.6,3.1-3.5,6.4-5.6,9.6
											c-2.2,3.5-4.8,6.6-7.6,9.6c-3.1,3.3-6.7,6-10.5,8.2c-4.1,2.3-8.5,4-13.1,4.8c-2.2,0.4-4.4,0.7-6.8,0.8
											c-1.2,0.1-2.2,0.1-3.3,0.1s-2.1,0-3.2-0.1c-4.4-0.2-9-1.2-13.2-2.6c-2.2-0.8-4.4-1.7-6.5-2.9s-4-2.5-5.8-4
											c-3.5-2.8-6.7-6-9.3-9.6c-2.4-3.3-4.5-6.8-6.4-10.3c-1.7-3.5-3.3-6.8-4.6-10.2c-2.7-6.7-4.9-13.2-7.2-19.2
											s-4.4-12-7.1-17.4c-2.3-5.1-5.3-10-8.7-14.3c-3.1-4-7-7.3-11.3-10c-2.1-1.3-4.4-2.4-6.7-3.4c-2.3-1.1-4.6-1.9-7.1-2.6
											c-2.5-0.8-5-1.5-7.7-1.9c-2.7-0.5-5.5-0.7-8.3-0.8c-6-0.1-11.9,1-17.5,3c-1.5,0.5-2.9,1.1-4.3,1.6
											c-1.5,0.9-2.6,2.1-3.4,3.5l-1.5,2.2c-0.4,0.7-1,1.3-1.5,1.8c-1.2,1.1-2.6,1.5-4,2.1c-3,1.2-5.9,2.1-9.1,3
											c-1.6,0.4-3.3,0.8-4.9,1.1c-0.9,0.2-1.7,0.2-2.6,0.4c-1,0.2-1.8,0.2-2.8,0.2l-1.5-0.1c-3.2-0.2-5.7-2.9-5.5-6.2l0,0
											C400,669.5,400.1,668.9,400.4,668.4z"/>
										<path class="st14" d="M849.6,742.3c-4.4,0.7-10.5-2-14.1-4.5c7.3,0.1,15-1.4,21.5-5.2c-2,7.2-0.9,14.9,0.9,22.1
											C854.2,751.6,850.4,747.1,849.6,742.3z"/>
									</g>
									<path class="st12" d="M503.4,648.1c4.4,3,8.5,6.7,11.9,10.8c3.5,4.3,6.4,8.8,8.9,13.6c2.5,4.8,4.7,9.8,6.6,14.8
										c1.9,5,3.6,10.2,5.3,15.2c1.6,5,3.3,10.2,5.2,15.1c1.7,4.9,4,9.6,6.8,14.1c2.6,4.4,6.4,8.1,10.8,10.6
										c2.2,1.3,4.7,2.1,7.3,2.7c0.7,0.2,1.3,0.2,1.9,0.4l2,0.2l2,0.2l2,0.1c-2.6,0.4-5.4,0.4-8.1,0.2c-5.5-0.6-10.8-2.9-15-6.6
										c-2.1-1.8-4-4-5.5-6.3c-3.3-4.4-5.6-9.5-7.7-14.5c-2.1-5-3.8-10.2-5.4-15.2c-1.6-5-3.3-10.2-5-15.2s-3.7-10-5.8-14.7
										c-2.1-4.8-4.7-9.5-7.7-13.8C510.9,655.6,507.4,651.6,503.4,648.1z"/>
									<path class="st12" d="M666.9,680.7c3.8,1.6,7.2,4.1,10.1,7c3,2.9,5.5,6.2,7.6,9.7c4.4,7.1,7.3,14.7,10.3,22.2
										c1.5,3.8,2.9,7.4,4.4,11.1c1.5,3.6,3.3,7.2,5.4,10.4c2.1,3.2,4.8,6,8.1,8.2l0.7,0.4l0.7,0.3l1.3,0.7
										c0.9,0.4,1.8,0.7,2.7,1.2c0.9,0.4,1.9,0.6,2.9,0.8l3,0.6c-1.1,0-2,0.1-3,0.1c-1.1,0-2.1-0.2-3-0.3c-1-0.2-2-0.4-3-0.7
										l-1.5-0.6l-0.7-0.2l-0.7-0.3c-1-0.5-1.8-1-2.7-1.5c-0.4-0.3-0.9-0.6-1.3-0.9l-1.2-1.1c-1.6-1.4-3-2.9-4.4-4.5
										c-2.6-3.3-4.6-6.9-6.4-10.6c-1.7-3.7-3.3-7.5-4.7-11.3c-2.9-7.5-5.6-15.1-9.2-22c-1.8-3.5-4-6.8-6.4-10
										C673,685.8,670.1,683,666.9,680.7z"/>
									<g>
										<path class="st25" d="M833.6,698.6c0,3-24.3,5.4-54.3,5.4c-30.1,0-54.3-2.4-54.3-5.4H833.6z"/>
										<path class="st25" d="M824.9,698.6c0-24.6-20.3-44.5-45.5-44.5c-25.2,0-45.5,19.9-45.5,44.5H824.9z"/>
										<path class="st25" d="M785.1,649c0,2.8-2.6,5.1-5.7,5.1s-5.7-2.3-5.7-5.1H785.1z"/>
									</g>
									<path class="st25" d="M705.6,671c0,3-24.3,5.4-54.3,5.4c-30.1,0-54.3-2.4-54.3-5.4H705.6z"/>
									<path class="st25" d="M528.6,629.4c0,3-24.3,5.4-54.3,5.4c-30.1,0-54.3-2.4-54.3-5.4H528.6z"/>
								</g>
								<g>
									<line class="st26" x1="485.1" y1="574.6" x2="490.8" y2="556.2"/>
									<polygon class="st26" points="463.4,547.7 519.3,565.4 493.5,547.7 									"/>
									<path class="st25" d="M495.7,574.9c-0.2-0.1-0.6-0.2-1-0.4c0-0.1,0.1-0.2,0.1-0.3c0.7-2.6-0.4-5.3-2.7-6.6
										c-1.6-1.1-5-1.6-7.2-0.8c-0.1-0.2-0.2-0.6-0.4-0.8c-0.7-1.2-1.7-2.2-3-2.9c-2.6-1.2-5.6-0.9-8,0.7c-0.5,0.3-2.6,2-2.3,2
										c0,0-2.6-1.4-3.5-1.6c-2.9-1.2-6.1-0.7-8.6,1.2c-1,0.7-1.7,1.6-2.5,2.6c-0.3,0.4-0.7,1.3-1.2,1.5c-0.8,0.5-0.3,0.1-1.2,0.2
										c-3.5,0.5-6.3-0.1-8.6,3c-1.2,1.6-1.1,4.9-2.3,6c-3,2.6-1,6.4,2.2,7.3c0.3,0.7,0.8,1.5,1.5,1.9c2.6,2.1,7,1.9,10.3,1.6
										c1.8-0.2,3.6-0.4,5.2-0.6c2.2,0.2,4.4,0.6,6.8,0.7c1.9,0.1,3.8,0.2,5.7,0.2c1.8,0.2,3.7,0.2,5.4,0c2.6-0.1,5.2-0.2,7.8-0.3
										c1.6,0,3.1-0.9,4-2.3c0.9-0.1,1.8-0.3,2.6-0.7C500.2,584.1,500.7,577.7,495.7,574.9z"/>
									<path class="st25" d="M464.2,629.4c-31.2,0-34.7-8.4-36.8-22.4c-2-13.8,12.7-27.9,12.7-27.9h61.8c0,0,7.7,12.5,8.3,31.4
										c11.6,10.5,6.3,17.7,0,14.2l1.6,4.6L464.2,629.4l-0.4-5.5c0,0-6.4,3.8-9.9,1c-5.3-4.4,5.1-13.4,5.1-13.4"/>
									
										<ellipse transform="matrix(0.9801 -0.1983 0.1983 0.9801 -110.0989 106.6292)" class="st27" cx="477.3" cy="603" rx="5.6" ry="9.6"/>
									
										<ellipse transform="matrix(0.9801 -0.1983 0.1983 0.9801 -109.7089 110.5319)" class="st27" cx="497" cy="603" rx="5.6" ry="9.6"/>
									<polygon class="st28" points="486.9,619.8 495,619.8 488.5,610.3 									"/>
									<line class="st26" x1="472.7" y1="629.4" x2="472.2" y2="623.9"/>
									<line class="st26" x1="478.8" y1="629.4" x2="478.3" y2="623.9"/>
									<line class="st26" x1="484.9" y1="629.4" x2="484.4" y2="623.9"/>
									<line class="st26" x1="491.1" y1="629.4" x2="490.4" y2="623.9"/>
									<line class="st26" x1="497.2" y1="629.4" x2="496.6" y2="623.9"/>
									<line class="st26" x1="503.3" y1="629.4" x2="502.7" y2="623.9"/>
									<path class="st26" d="M454.3,579.1l-5.9-37.6c-0.4-2.6-2.8-4.4-5.4-4c-0.2,0-0.3,0.1-0.6,0.1l-18.9,5.3"/>
									<path class="st12" d="M475.2,594.5c1-0.2,2,0,2.8,0.5c0.9,0.6,1.5,1.3,2.1,2.1c1.8,3.4,2.4,7.3,1.5,11.1
										c-0.2,1-0.8,1.9-1.5,2.6c-0.4,0.3-0.9,0.6-1.4,0.7c-0.5,0.1-1,0.1-1.5,0c0.4-0.1,0.8-0.3,1.2-0.6c0.3-0.2,0.6-0.6,0.8-0.9
										c0.4-0.7,0.7-1.5,0.7-2.2c0.2-1.6,0.1-3.4-0.2-5c-0.2-1.6-0.6-3.4-1.2-4.9C478.1,596.5,477,595,475.2,594.5z"/>
									<path class="st12" d="M495.1,594.5c1-0.2,2,0,2.8,0.5c0.9,0.6,1.5,1.3,2.1,2.1c1.8,3.4,2.4,7.3,1.5,11.1
										c-0.2,1-0.8,1.9-1.5,2.6c-0.4,0.3-0.9,0.6-1.4,0.7c-0.5,0.1-1,0.1-1.5,0c0.4-0.1,0.8-0.3,1.2-0.6c0.3-0.2,0.6-0.6,0.8-0.9
										c0.4-0.7,0.7-1.5,0.7-2.2c0.2-1.6,0.1-3.4-0.2-5c-0.2-1.6-0.6-3.4-1.2-4.9C497.9,596.5,496.9,595,495.1,594.5z"/>
								</g>
								<g>
									<path class="st25" d="M664.2,615c-3.8,0-7.3,1.2-10.5,3.2c-3.1-2.1-6.8-3.2-10.5-3.2c-11.7,0-21.2,9.3-21.2,25.9
										s17,28.8,24.8,28.8c2.6-0.1,5.1-1.3,6.9-3.2c1.7,1.9,4.3,3.1,6.9,3.2c7.7,0,24.8-12.2,24.8-28.8S675.9,615,664.2,615z"/>
									<path class="st25" d="M657.1,598.5c-2.6,6.3-3.7,13-3.4,19.8c0,0-4.9-14.7-30.4-15.2c11.4,20.8,27.6,16.6,27.6,16.6"/>
								</g>
								<path class="st14" d="M655.5,663.1c1.5,1,3.3,1.3,4.9,1c1.6-0.3,3.1-1.1,4.4-2c0.7-0.5,1.4-1.1,2-1.6
									c0.6-0.5,1.3-1.2,1.9-1.7c0.6-0.5,1.3-1.4,1.9-2c0.6-0.6,1.3-1.4,1.8-2c1.2-1.3,2.3-2.6,3.4-4.1c0.5-0.7,1-1.4,1.5-2.1
									c0.4-0.7,0.8-1.5,1.2-2.2c0.3-0.8,0.7-1.6,0.9-2.4c0.2-0.9,0.5-1.6,0.7-2.6c0.4-1.7,0.6-3.7,1-5.7l0.3-0.1
									c0.3,1.9,0.5,3.9,0.6,5.8c0,1.9-0.2,3.9-0.8,5.8c-1.2,3.8-3.5,7-6.1,9.8c-1.3,1.5-2.7,2.7-4.2,4c-1.5,1.3-3,2.5-4.7,3.4
									c-1.6,1-3.6,1.5-5.6,1.5s-4-1-5.2-2.5L655.5,663.1z"/>
							</g>
							<g>
								<g>
									<path class="st3" d="M812,182.5c0,0,3.4-19.5,3.4-25.9c0-6.4-9.9-3.6-10.6-11.7c-0.8-8.1,11.4-16.9,17.1-3.3
										c0,0,14-6.9,12.8,4.4c-1.3,11.2-10,3.2-10.1,16.8c-0.2,13.6,0.3,18.8,0.3,18.8"/>
									<path class="st29" d="M818.4,69.9c3.4,0,6.1,2.7,6.1,6.1c0,3.4-2.7,6.1-6.1,6.1c-3.4,0-6.1-2.7-6.1-6.1l0,0"/>
									<path class="st14" d="M819.8,82.1c0,2.1,0.1,4.4,0.2,6.6c0,1.2,0.2,2.1,0.2,3.3l0.1,1.6l0.1,0.8v0.4c0,0.1,0,0.2,0.1,0.3
										c0.2,1.5,1.4,2.7,3,4.2c0.9,0.8,1.6,1.6,2.5,2.5c0.5,0.5,0.9,1.1,1.3,1.6c0.4,0.7,0.7,1.3,1.1,2c0.3,0.7,0.6,1.5,0.7,2.2
										c0.2,0.7,0.2,1.5,0.2,2.2c0,1.6-0.2,3.1-0.9,4.6c-0.7,1.6-1.6,3-3,4.1c-1.4,1.2-3,1.8-4.7,2.1c-1.6,0.2-3.4,0.1-4.9-0.6
										c-1.5-0.6-2.8-1.6-3.7-2.9c-0.9-1.2-1.4-2.5-1.5-4c-0.2-1.3,0-2.6,0.5-3.8c0.7,0.9,1.5,1.6,2.3,2.5
										c0.7,0.6,1.5,1.1,2.2,1.4c1.2,0.4,2.4,0.4,3.5-0.1c0.9-0.4,1.5-1.1,1.9-1.9c0.2-0.6,0.4-1.2,0.6-1.7c0.1-0.4,0.1-0.7,0.1-1
										s0-0.7,0-1c-0.1-1.4-1-3-2.2-4.9c-0.7-1.1-1.3-2.1-1.8-3.2c-0.7-1.3-1-2.6-1-4.1v-0.5v-0.4l0.1-0.8l0.1-1.6
										c0.1-1.2,0.2-2.1,0.2-3.3c0.1-2.1,0.2-4.4,0.2-6.6c0.1-0.8,0.7-1.4,1.5-1.3C819.2,80.8,819.8,81.4,819.8,82.1L819.8,82.1z"
										/>
									<path class="st2" d="M799.9,252.7c18.3,5.2,19.4,37.9,35.4,45.9c7.8,4,13.2,0.2,16.5-4.7c1.7-3.9,2.9-8,3.2-12.3
										c3.1-31.7-17.6-58.9-23.6-79.4c-6.5-22.1-6.5-22.1-7.8-21c-4,0.5-9.1,2.3-10.3,0.3c-0.2-0.5-0.8-0.7-1.3-0.4
										c-0.2,0.2-0.4,0.3-0.5,0.7c-1.9,6.9-6.8,22.6-13.6,32.5c-6.1,8.6-15.4,26.9-16.7,44.1C783.7,254.1,789.1,249.7,799.9,252.7
										z"/>
									<path class="st16" d="M835.3,298.6c-16-8-17.1-40.8-35.4-45.9c-10.8-3-16.1,1.5-18.8,5.6c-0.7,8.3,0.6,16.4,4.9,23.1
										c13.5,20.1,36.3,23.6,36.3,23.6s20.8,5.9,29.3-11C848.4,298.8,843.1,302.6,835.3,298.6z"/>
									
										<ellipse transform="matrix(0.5989 -0.8008 0.8008 0.5989 90.8773 760.3731)" class="st30" cx="804.5" cy="289.5" rx="3" ry="10"/>
									<path class="st14" d="M842.7,294.3c0.9-0.5,1.6-1.2,2.2-1.8c0.7-0.7,1.2-1.5,1.6-2.3c0.9-1.6,1.5-3.4,1.7-5.2
										c0.2-1.8,0.3-3.8,0.2-5.6c0-1-0.2-1.9-0.2-2.9l-0.3-2.9c-1.1-7.7-2.9-15.5-5.4-22.9c-1.2-3.8-2.6-7.5-4-11.2l-4.3-11.3
										c-1.5-3.8-2.8-7.5-4.1-11.4c-1.4-3.9-2.2-7.8-2.9-11.9l0.3-0.1c1.1,3.9,2.4,7.7,4,11.4c1.5,3.7,3.2,7.3,4.8,11.1
										c3.3,7.3,6.4,14.8,9.1,22.5s4.4,15.6,5.1,23.6c0.2,4,0.5,8.2-0.7,12.1c-0.5,2-1.5,3.9-2.6,5.4c-1.2,1.6-2.9,3-4.8,3.7
										L842.7,294.3z"/>
									<polyline class="st11" points="814.9,162.2 824.5,167.1 819.6,113.8 816.4,135.1 									"/>
									<path class="st11" d="M818.4,74.5c-5.7-2.1-10.5-4.8-0.4-9V0.8"/>
								</g>
								<g>
									<path class="st2" d="M874.4,98.5c4.4-5,13.3,2.1,8.9,8.2c-4.3,5.8-6.3,15.2-5.3,22.4c1,7.2-10,10.4-11.4,3.7
										C863.9,120.8,866.1,107.7,874.4,98.5z"/>
									<path class="st2" d="M867.7,139.8c3.1-6.5,14.1-2.4,11.2,5.1c-2.7,7.2-1.4,16.2,2.6,22.6c4,6.4-5.1,14.3-9.5,8.6
										C864.2,165.8,861.9,151.8,867.7,139.8z"/>
									<path class="st29" d="M882.8,53.3c3.4,0,6.1,2.7,6.1,6.1s-2.7,6.1-6.1,6.1c-3.4,0-6.1-2.7-6.1-6.1l0,0"/>
									<path class="st14" d="M884.2,65.5c0,2.1,0.1,4.4,0.2,6.6c0,1.2,0.2,2.1,0.2,3.3l0.1,1.6l0.1,0.8v0.4c0,0.1,0,0.2,0.1,0.3
										c0.2,1.5,1.4,2.7,3,4.2c0.9,0.8,1.6,1.6,2.5,2.5c0.5,0.5,0.9,1.1,1.3,1.6c0.4,0.7,0.7,1.3,1.1,2c0.3,0.7,0.6,1.5,0.7,2.2
										c0.2,0.7,0.2,1.5,0.2,2.2c0,1.6-0.2,3.1-0.9,4.6c-0.7,1.6-1.6,3-3,4.1c-1.4,1.2-3,1.8-4.7,2.1c-1.6,0.2-3.4,0.1-4.9-0.6
										c-1.5-0.6-2.7-1.6-3.7-2.9c-0.9-1.2-1.4-2.5-1.5-4c-0.2-1.3,0-2.6,0.5-3.8c0.7,0.9,1.5,1.6,2.3,2.5
										c0.7,0.6,1.5,1.1,2.2,1.4c1.2,0.4,2.4,0.4,3.5-0.1c0.9-0.4,1.5-1.1,1.9-1.9c0.2-0.6,0.5-1.2,0.6-1.7c0.1-0.4,0.1-0.7,0.1-1
										c0-0.3,0-0.7-0.1-1c-0.1-1.4-1-3-2.2-4.9c-0.7-1.1-1.3-2.1-1.8-3.2c-0.7-1.3-1-2.6-1-4.1v-0.5v-0.7l0.1-0.8l0.1-1.6
										c0.1-1.2,0.2-2.1,0.2-3.3c0.1-2.1,0.2-4.4,0.2-6.6c0.1-0.8,0.7-1.4,1.5-1.3C883.5,64.2,884.1,64.7,884.2,65.5L884.2,65.5z"
										/>
									<path class="st2" d="M891.8,91.9c-7.4-3.5-13.1,7.9-5.6,11.4c7.1,3.4,11,12.2,8.1,19.6c-3,7.6,8.3,13.2,11.4,5.6
										C911.2,114.8,905.4,98.4,891.8,91.9z"/>
									<path class="st2" d="M900.9,133.3c-5-6-13.8,1.7-9.1,8.6c4.5,6.5,6.3,15.7,2.7,23c-3.5,7.3,5.5,14.6,9.8,7.7
										C912,160.1,910.2,144.4,900.9,133.3z"/>
									<path class="st2" d="M900.6,177.3c-3.1-6.8-13.4-1.3-10.6,6.6c2.6,7.4,2.3,18.4-0.3,25.9c-2.6,7.6,7.2,14.1,10.2,7.2
										C905.3,204.3,906.3,189.5,900.6,177.3z"/>
									<path class="st2" d="M904,218.6c-4.9-6.3-13.8,0.5-9.6,7.6c4,6.8,3,15.8-2,21.9s2.5,15.2,8.1,9.4
										C910.5,247,913,230.2,904,218.6z"/>
									<path class="st2" d="M902.7,261.3c-5.2-6.3-15.2,1.6-10,7.9c4.9,6,4.8,15.8-1.1,21.2c-5.8,5.4,1.9,15.6,7.9,10
										C910.5,290.3,912.3,272.9,902.7,261.3z"/>
									<path class="st2" d="M902.3,303.9c-4-6.3-13.9-0.1-10,7.4c3.7,7.2,3.7,17.1,0.8,24.8c-2.9,7.7,7.1,14.3,10.3,7.4
										C909.4,331,909.6,315.6,902.3,303.9z"/>
									<path class="st11" d="M883,57.8c-5.7-2.1-10.5-4.8-0.4-9v-48"/>
								</g>
							</g>
							<path class="st3" d="M-76.9,176.3c-10,14.4-8.2,34.3,6.3,45.2c3.5,2.6,7.4,4.4,11.7,5.4c-0.1,0.1-0.2,0.2-0.2,0.3
								c-10,14.4-8.2,34.3,6.3,45.2c13.4,10.2,35.2,8.1,45.2-6.3c1.1-1.5,1.9-3,2.7-4.6c1.8,2.6,4.2,4.9,6.8,6.9
								c13.4,10.2,35.2,8.2,45.2-6.3c9.8-14.1,8.2-33.5-5.4-44.5c9.3-14.3,7.3-33.7-6.8-44.3c-6.5-4.7-14.5-7-22.5-6.3
								c-2.1-5.6-5.7-10.5-10.5-14.1c-13.4-10.2-35.2-8.2-45.2,6.3c-1.1,1.5-2,3.1-2.8,4.8C-57.8,162.5-70.1,166.5-76.9,176.3z"/>
							<path class="st3" d="M-113.2,0.3c-0.2,20.9,12.9,40.2,34.3,45.3c-3,23.6,11,46.6,35.2,51.5c10.9,2.2,22.4-0.1,32-5.8
								c6,5.8,13.5,9.8,21.7,11.4c23,4.7,49.2-11,52.9-35c0.4-2.6,0.7-5.1,0.7-7.7c15.2-4.9,28.2-17.4,30.8-33.8
								c1.5-9,0.3-18-2.9-25.9"/>
							<path class="st3" d="M78,333.5c-0.4-8-6.5-14.8-14.8-14.8c-2,0-4,0.5-5.8,1.3v-0.2c-0.3-8-6.5-14.8-14.8-14.8
								c-7.7,0-15.2,6.8-14.8,14.8c0,0.8,0.2,1.6,0.3,2.5c-1.5-0.5-2.9-0.7-4.4-0.7c-7.7,0-15.2,6.8-14.8,14.8
								c0.3,7.8,6.3,14.5,14.3,14.8c0.6,7.7,6.7,14.3,14.7,14.3c3.7-0.1,7.2-1.5,10-4c2.3,1.5,5,2.2,7.7,2.2
								c7.7,0,15.2-6.8,14.8-14.8c-0.1-0.9-0.2-1.6-0.3-2.6C74.8,344,78.2,339,78,333.5z"/>
						</g>
					</g>
				</g>
			</g>
		</g>
	</g>
</g>
</svg>
