<svg xmlns="http://www.w3.org/2000/svg" viewBox="0 0 656.7 634.92">
  <defs>
    <style>
      .cls-1 {
        isolation: isolate;
      }

      .cls-2, .cls-4, .cls-6, .cls-9 {
        fill: #fff;
      }

      .cls-10, .cls-11, .cls-13, .cls-2, .cls-3, .cls-4, .cls-6, .cls-7, .cls-8 {
        stroke: #000;
        stroke-width: 2.6px;
      }

      .cls-12, .cls-13, .cls-2, .cls-3, .cls-6, .cls-7, .cls-8 {
        stroke-linecap: round;
      }

      .cls-12, .cls-13, .cls-2, .cls-3 {
        stroke-linejoin: round;
      }

      .cls-10, .cls-11, .cls-4, .cls-6, .cls-7, .cls-8 {
        stroke-miterlimit: 10;
      }

      .cls-5 {
        mix-blend-mode: multiply;
      }

      .cls-10, .cls-12, .cls-13, .cls-8 {
        fill: none;
      }

      .cls-12 {
        stroke: #fff;
        stroke-width: 2px;
      }
    </style>
  </defs>
  <title>illu3full_b</title>
  <g class="cls-1">
    <g id="Layer_2" data-name="Layer 2">
      <g id="Layer_1-2" data-name="Layer 1">
        <g>
          <g>
            <g>
              <ellipse cx="99.23" cy="626.75" rx="99.23" ry="8.17"/>
              <path class="cls-2" d="M48.77,579.09C52.11,591.48,55.89,627,55.89,627h7.27L63,615.93"/>
              <path class="cls-3" d="M124,283.61a32.33,32.33,0,0,1-3.31.68c-16.73,2.49-33.71-5.4-32.54-22.24,3.74-53.69-8.15-75.19-19.24-78.35l80.87,7.12,0-.15a162.82,162.82,0,0,0-4,60.33C147.71,266.55,138.92,279.7,124,283.61Z"/>
              <path class="cls-2" d="M113.23,579.09c3.33,12.39,7.12,47.93,7.12,47.93h7.26l-.38-22.52"/>
              <path class="cls-2" d="M117.59,555.54a34.26,34.26,0,0,0-4.4,23.55c2.4,13.57,29.78,50.28,47.12,50.28h12.61a5.9,5.9,0,0,0,5.43-3.76c2.7-6.51-2.3-19.08-13.16-19.64-6.61-17.3-16.26-26.88-22.13-39"/>
              <path class="cls-2" d="M87.22,314.27l27.47,115.32S90,477,122.62,548.84c-14.65,15.11.76,28.5.76,28.5s41.16,41.24,34.76,14.53a87.83,87.83,0,0,1-12.4-38c-6.61-70.22,10.77-185.17,10.77-185.17Z"/>
              <path class="cls-2" d="M54.16,555.54a31.78,31.78,0,0,0-4.9,23.55c2.62,13.57,15.84,50.28,35,50.28H98.17a6.55,6.55,0,0,0,6-3.76c3-6.51.21-14.74-6.93-19.64-3.54-13.51-13.46-27.9-15-39"/>
              <path class="cls-2" d="M53.65,368.71l6.43,60.88s-25.65,39.29-1.61,115.86c-9.5,16.48-1.39,24.56.79,29.15,6.2,13.08,30.36,37.45,26.93,16.49-12.35-75.52,33-276.82,33-276.82Z"/>
              <path class="cls-4" d="M88.58,251.16S32,287.32,53.65,368.71H156.51S168,310.93,146.73,258C112.05,265.87,88.58,251.16,88.58,251.16Z"/>
              <path class="cls-2" d="M97.25,606s-13.45-3.7-22.93,2.27"/>
              <ellipse class="cls-3" cx="122.71" cy="183.43" rx="44.47" ry="29.71" transform="translate(-13.43 9.74) rotate(-4.31)"/>
              <path d="M230.25,207.53c-.14,5.59.26,16.69-3.67,20.59-15,14.89-44,32.56-53.11,34A15.31,15.31,0,0,1,159,257.08c-3.31-4-4.14-9.34-4.19-14.45-.05-5.66.6-11.35,1-17a85.18,85.18,0,0,0-.14-17.49c-.63-4.55-2-9.76-5.72-12.72-2-1.58-4.32-2-6.73-2.68a15.83,15.83,0,0,1-5.57-2.81,16.12,16.12,0,0,1-6-10.58,17.18,17.18,0,0,1,14-18.82c4.3-.74,8.19.42,11.89,2.45a49.88,49.88,0,0,1,11.93,8.81c7.92,8.16,11.73,19.08,12.36,30.43.66,11.85-1.79,23.51-3.56,35.22-.2,1.3-.37,2.6-.5,3.91-.06.62-.11,1.26-.13,1.89a4.91,4.91,0,0,0,0,1.32c-.28-.22-.48-1-.69-1.29a7.19,7.19,0,0,0-1.92-1.89,6.29,6.29,0,0,0-4.2-1c.45.21,1.7-.64,2-.83a27.93,27.93,0,0,0,3.47-2.46A72.29,72.29,0,0,0,182.8,231c4.33-4.47,8.28-9.29,12.38-14a153.58,153.58,0,0,1,12.28-13.1c3.6-3.26,8.67-6.14,13.62-6A9.45,9.45,0,0,1,230.25,207.53Z"/>
              <path class="cls-2" d="M165.19,606c-7.72.65-10.08,2.27-10.08,2.27"/>
              <path d="M107.37,166.65c0,.06-.12.19-.19.28l-.32.29c-.21.2-.44.42-.67.61-.45.39-.92.78-1.38,1.16-.93.76-1.88,1.49-2.81,2.21-1.86,1.44-3.71,2.8-5.53,4.13l-5.41,3.92c-1.79,1.27-3.55,2.55-5.21,4a68.2,68.2,0,0,0-16.41,19.7,70.84,70.84,0,0,0-8.13,25.39,95.1,95.1,0,0,0,.86,28.22,24,24,0,0,0,.6,2.92,10.44,10.44,0,0,0,.68,1.9c.19.41.38.54.12.2a3.37,3.37,0,0,0-.8-.7,5.24,5.24,0,0,0-3.46-.78,8.74,8.74,0,0,1,.77-.51,25.43,25.43,0,0,0,3.84-3.43,82.44,82.44,0,0,0,8.26-10.75c1.31-2,2.59-4,3.83-6.13s2.39-4.25,3.54-6.42C81.84,228.46,84,224,86,219.46s3.83-9.16,5.53-13.81a202,202,0,0,0,8.08-28.36A16.75,16.75,0,0,1,118.78,164a15.85,15.85,0,0,1,12.79,18.84,17.12,17.12,0,0,1-.74,2.59l-.09.25c-4,10.48-8.34,20.64-13.23,30.53-2.42,4.95-5,9.84-7.64,14.66s-5.45,9.6-8.44,14.3q-2.24,3.53-4.63,7c-1.59,2.33-3.22,4.63-5,6.92A104.93,104.93,0,0,1,80,272.54,49,49,0,0,1,71.67,279a27.62,27.62,0,0,1-6.33,2.79,21.06,21.06,0,0,1-4.38.77,17.64,17.64,0,0,1-5.23-.43A16.71,16.71,0,0,1,50.65,280a17.46,17.46,0,0,1-3.74-3.16,22,22,0,0,1-3.89-6.3,33.75,33.75,0,0,1-1.69-5.44c-.39-1.66-.64-3.43-.81-4.68a166,166,0,0,1-1.64-33.67c.22-2.88.49-5.78.92-8.68s1-5.82,1.63-8.72a86.75,86.75,0,0,1,5.94-17.15,77.8,77.8,0,0,1,23.07-28.63A81.83,81.83,0,0,1,78,158.39a49.77,49.77,0,0,1,8.22-3.89A44.83,44.83,0,0,1,95,152.21a38.23,38.23,0,0,1,4.57-.42c.77,0,1.55,0,2.35,0,.4,0,.8,0,1.22.08l.63.05c.24,0,.4.06.76.06a7.3,7.3,0,0,1,8.78,5.74A7.72,7.72,0,0,1,107.37,166.65Z"/>
              <path class="cls-4" d="M103.75,156.93l15-42.79,19,.33-1.57,44.37s-4.38,24.49-15.39,24.59C90.46,183.7,103.75,156.93,103.75,156.93Z"/>
              <ellipse class="cls-4" cx="131.44" cy="99.29" rx="48.33" ry="32.95" transform="translate(-7.34 10.55) rotate(-4.47)"/>
              <path class="cls-4" d="M171.61,98c-1.2,10.08-10.51,17.47-19.22,16.65S138.65,105.1,139.84,95,148,77.32,156.72,78.14,172.81,87.92,171.61,98Z"/>
              <path class="cls-4" d="M144.09,95.41c-1.2,10.09-10.52,17.47-19.23,16.65s-13.74-9.56-12.54-19.64,8.17-17.69,16.88-16.87S145.28,85.33,144.09,95.41Z"/>
              <path class="cls-6" d="M138.86,66.47s12.26-42.64,28-64.15c1.06-1.44,3.1-1.19,3,.57l-1.76,75.7"/>
              <path class="cls-6" d="M92.33,86.08c3.07-7,4.17-39,34-83.83,1-1.48,3.1-1.19,3,.58l-1.62,68.23"/>
              <path class="cls-3" d="M143.92,111.37c-.14,1.91-4.35,5.25-5.37,5.2s-4.71-3.77-4.57-5.68,2.4-2.38,5.15-2.24S144.06,109.46,143.92,111.37Z"/>
              <path class="cls-7" d="M163.13,105a18.25,18.25,0,0,1-8.89,5.44,18,18,0,0,1,3.69-9.72,18.19,18.19,0,0,1,8.89-5.43A18.09,18.09,0,0,1,163.13,105Z"/>
              <path class="cls-7" d="M135.32,102.57a18.18,18.18,0,0,1-8.88,5.43,18,18,0,0,1,3.68-9.71A18.25,18.25,0,0,1,139,92.85,18,18,0,0,1,135.32,102.57Z"/>
              <path class="cls-8" d="M128.19,67c9-1.11,17.49-.47,29.33,3.46"/>
              <g>
                <path class="cls-2" d="M116.15,154.28s4-15.72,2.16-25.3,9.52-6.43,10,14.22"/>
                <path class="cls-2" d="M150.39,166.65A44,44,0,0,1,143,177.89c-8.64,9.57-27.64,12.68-32.92,3.63-4.51-7.71,6.41-55.62,50-47.7,17.56,3.19,16.15,12.17-.77,8.64a35.92,35.92,0,0,0-13.68-.41"/>
                <path class="cls-2" d="M138.27,141.68s11.75-5,18.12,3.49-.57,14.81-.57,14.81"/>
                <path class="cls-2" d="M145.4,167.09s11,5.69,11.65-3.92-8.52-19.15-17.21-12.83"/>
                <path class="cls-2" d="M143.45,160.87s7.92-3.6,10.63,6c2.83,10-6.33,12.26-6.88,7.78-.76-6.16-4.3-2.64-4.3-2.64"/>
              </g>
            </g>
            <path d="M57.78,359.13a84.06,84.06,0,0,1-3.4-18.91c-.26-3.21-.31-6.43-.28-9.65l.16-4.84.43-4.83c.11-1.61.44-3.2.67-4.8s.46-3.2.85-4.78l1-4.75c.38-1.57.88-3.12,1.31-4.68.8-3.14,2-6.16,3.09-9.22.5-1.55,1.24-3,1.86-4.5l1.95-4.47.37.17-.5,2.42-.56,2.38c-.35,1.59-.89,3.1-1.14,4.7L62.57,298c-.4,1.54-.68,3.1-1,4.65L61.14,305c-.14.77-.38,1.53-.48,2.31L59.91,312c-.3,1.54-.49,3.09-.7,4.63s-.47,3.09-.55,4.65l-.51,4.65c-.1,1.55-.14,3.11-.29,4.66-.23,3.12-.26,6.24-.34,9.37-.06,6.28.12,12.58.64,19.07Z"/>
            <path class="cls-2" d="M137.48,122.2s-10.27,2.6-13.14-4.58"/>
            <path class="cls-9" d="M77.45,270.19c4.48-6.95,9.22-13.65,14-20.3,2.35-3.36,4.83-6.62,7.2-9.95s4.86-6.58,7.23-9.9,4.83-6.58,7.21-9.88,4.72-6.64,7.06-10,4.56-6.72,6.57-10.2a42.54,42.54,0,0,0,2.73-5.33,14.11,14.11,0,0,0,.88-2.79,3.76,3.76,0,0,0-.29-2.74v0a.15.15,0,0,1,.05-.21.14.14,0,0,1,.19,0,4.14,4.14,0,0,1,.75,3,14.25,14.25,0,0,1-.59,3,39.68,39.68,0,0,1-2.29,5.72,117.77,117.77,0,0,1-6,10.75c-4.33,7-9,13.72-13.85,20.36-9.76,13.22-20,26-30.61,38.61a.14.14,0,0,1-.21,0,.14.14,0,0,1,0-.19Z"/>
            <path class="cls-10" d="M77.57,327.26l3.54-165.85a1.89,1.89,0,0,0-3.59-.87c-10.8,20.17-41.27,84.08-43.79,166.72"/>
            <path class="cls-4" d="M78.84,388H42.34a20.51,20.51,0,0,1-20.61-21.12l.46-18.5a21.77,21.77,0,0,1,21.65-21.13H80.35A20.5,20.5,0,0,1,101,348.39l-.45,18.5A21.78,21.78,0,0,1,78.84,388Z"/>
            <path class="cls-4" d="M70.08,388H33.57A20.51,20.51,0,0,1,13,366.89l.46-18.5a21.77,21.77,0,0,1,21.65-21.13H71.59a20.5,20.5,0,0,1,20.6,21.13l-.46,18.5A21.77,21.77,0,0,1,70.08,388Z"/>
            <path class="cls-10" d="M14.34,342.73s35.68,49.73,77.22,0h8.76"/>
            <path class="cls-4" d="M53.08,371.12h0a3.66,3.66,0,0,1-3.67-3.77l.13-5a3.87,3.87,0,0,1,3.85-3.76h0a3.65,3.65,0,0,1,3.67,3.76l-.12,5A3.88,3.88,0,0,1,53.08,371.12Z"/>
            <g>
              <g>
                <path class="cls-4" d="M223.71,223.31c1.88-1.57,5.31-2.42,12.73-3.61,3.75-.59,17.88-6,19.95-13.53.59-2.11-.87-7.65-.87-7.65a7.16,7.16,0,0,0-2.09-7.71,9.29,9.29,0,0,0-4.09-9.13c-.35-3.45-1.48-5.75-4.78-7-7.76-3-17.2,8-17.2,8s-4.71-19.52-8.89-12.28c-2.58,4.46-.81,8.82-1.58,18-.87,10.44-2.29,4.8-3.09,19.49A15.16,15.16,0,0,0,223.71,223.31Z"/>
                <path class="cls-2" d="M231.83,178.27c-12.65,9.88-8.76,16-4.78,13.86a21.36,21.36,0,0,1,16.34-8.69s-23.71,5.54-18.09,19c2.73,6.53,2.8-9,22.36-11.25-17.76,2.39-19.66,13.31-19.38,17.65.48,7.31,31.36-17.21,12.91-.47"/>
              </g>
              <path class="cls-6" d="M251.63,200.38s-8.45-2.13-14.76,4.45c-9.93,10.36,1.35,13.94,8,3.42l3.77.5"/>
            </g>
            <path class="cls-4" d="M230.45,179.07l-5.91-.48s-5.61-34.94,3.2-55.82c20.91,1.57,27.45,2.64,27.45,2.64s-17.41,30.09-16.11,44.38C232.21,168.56,230.45,179.07,230.45,179.07Z"/>
            <path class="cls-4" d="M231.62,176.81l-6.07-.54s3.62-29.5,18.53-46.85c21.49,1.8,28.06,2.85,28.06,2.85s-26.43,24.9-28.95,36.93C236.32,168,231.62,176.81,231.62,176.81Z"/>
            <path class="cls-4" d="M229.89,179.89l-5.56-.6a82.52,82.52,0,0,1,25.46-42c19.75,2,25.59,3.17,25.59,3.17s-24.6,18.94-31.59,31.55C237.72,170.69,229.89,179.89,229.89,179.89Z"/>
            <path class="cls-4" d="M229.66,180.36l-5.38-1.47s8.13-20.15,31.39-34.87c19.12,5.08,24.69,7.13,24.69,7.13s-27,12.11-35.8,23.53C238.78,172.45,229.66,180.36,229.66,180.36Z"/>
          </g>
          <g>
            <polyline class="cls-9" points="270.03 202.15 289.45 163.08 322 168.54 307.43 278.67 294.37 253.23 294.16 243.21 280.75 265.79"/>
            <path class="cls-4" d="M551.15,144l53.37-13.38s4.32-.78,7.71,7.93"/>
            <path class="cls-3" d="M413.57,577c-17.67-21.49-81.85-17.23-81.85-17.23V356.46h53.22S431.2,551.18,413.57,577Z"/>
            <path class="cls-11" d="M271.8,535.67c10.91,21.94,28.6,19.87,28.6,19.87l-2.06-54.29Z"/>
            <path class="cls-4" d="M464.77,154.28l-11-28.79L418.8,144.64S429,129.08,429,104.06c-39.8,3.46-49.26,11.15-49.26,11.15l-24.5,58.86,109.52-19.79"/>
            <path class="cls-4" d="M355.25,153.91,323.43,110l-29.09-2.22,13,42.85-20.15-1s5.05,26.33,18.28,128.72C305.48,166,355.25,153.91,355.25,153.91Z"/>
            <path class="cls-2" d="M384.94,153.91h35.5l44.33.37L598,138.43c22-2.62,40.91,15.88,38.38,37.87,0,.2,0,.4-.07.58-1.19,8.66,6.59,57.31,7.18,74.28s-20,86.9-16.56,107.9-11.17,113.17,0,142.49,0,70,0,70-7.38-7.19-63.63-7.19-77.41,14.7-111.33,14.7-47.59-3.64-47.59-3.64L336.33,176.88Z"/>
            <ellipse class="cls-3" cx="474.16" cy="497.94" rx="41.12" ry="21.23" transform="translate(-62.97 927.2) rotate(-85.03)"/>
            <ellipse class="cls-3" cx="478.04" cy="453.29" rx="7.32" ry="7.02" transform="translate(-14.94 890.28) rotate(-85.03)"/>
            <path class="cls-12" d="M477.41,460.58s-17,26.12-9.3,73.24"/>
            <g>
              <path class="cls-13" d="M483.7,470.36s16.16-2.95,20.65-14.78"/>
              <path class="cls-13" d="M492.2,484s15.88.19,19.6-2.81"/>
              <path class="cls-13" d="M490.5,501s19.75,2.32,23.91,4.39"/>
              <path class="cls-13" d="M489,518.73s15.7,4.39,18.44,13.13"/>
            </g>
            <g>
              <path class="cls-13" d="M467.41,468.94s-15.36-5.68-17.73-18.12"/>
              <path class="cls-13" d="M456.71,480.92s-15.64-2.54-18.77-6.14"/>
              <path class="cls-13" d="M455.45,498s-19.81-1.11-24.25.21"/>
              <path class="cls-13" d="M453.91,515.69s-16.18,1.62-20.37,9.75"/>
            </g>
            <path class="cls-13" d="M475.61,438s-4.66,1.16-3.71,4.88,12.62,6.86,14,1.93-2.33-6.11-2.33-6.11"/>
            <path class="cls-2" d="M617.23,365.23c-6.82-7.1-20.29,3.11-13.53,11.7,6.41,8.15,9.46,21.57,8.07,31.74s15.21,14.75,17.41,5.23C633.16,396.71,629.74,378.26,617.23,365.23Z"/>
            <path class="cls-2" d="M627.28,420c-5.69-8.62-21.62-1.16-16.15,9,5.2,9.61,4.47,22.73-.54,32.37s9.92,19.31,15.54,10.5C636.29,455.92,637.73,435.81,627.28,420Z"/>
            <path class="cls-2" d="M590.64,355.81c11.28-5,19.87,11.2,8.57,16.2-10.7,4.73-16.84,17.28-12.27,27.79,4.66,10.73-12.71,18.78-17.4,8C561.07,388.29,569.93,365,590.64,355.81Z"/>
            <path class="cls-2" d="M572.93,415c6.44-9.53,21.29-.45,15.35,10.13-5.62,10-6.35,23.39.42,32.79s-5.48,21.63-13.19,12.85C561.58,454.86,561.1,432.45,572.93,415Z"/>
            <path class="cls-2" d="M572.06,476.13c2.14-10.39,19.33-7,18,4.81-1.21,11.21,3.31,26,10,35.29s-5.35,22.11-12.36,13.82C575,515.08,568.14,495.2,572.06,476.13Z"/>
            <path class="cls-2" d="M588.21,531.62c8.4-8.07,20.92,3.09,13.33,12.39-7.2,8.81-7.08,21.63-.54,31.07s-6.19,20.85-13.73,11.79C573.66,570.5,572.78,546.43,588.21,531.62Z"/>
            <g>
              <path class="cls-4" d="M463.86,247.62s-.15-15.18-1-20-7.91-1.37-9.65-7.4,6.28-14.26,12.49-4.83c0,0,9.63-7.1,10.16,1.51s-7,3.8-5.29,14S473.36,245,473.36,245"/>
              <path class="cls-2" d="M463.66,247.16c-.61,4.78-3.9,17.88-7.91,25.23-3.54,6.49-10.53,13.81-8.21,26.77,6,33.2,39.37,32,45.33,18.7,11.52-25.72-6.36-45.35-13.29-57.9-7.48-13.56-6-15.71-6.84-14.76-2.93.86-6.61,2.78-7.75,1.59A.79.79,0,0,0,463.66,247.16Z"/>
            </g>
            <g>
              <path class="cls-2" d="M404.53,587.14h53.41s-31.16-156.54-34.2-168.92L389,262.05h-72.4l58.27,182.33Z"/>
              <ellipse cx="391.61" cy="626.75" rx="129.22" ry="8.17"/>
              <g>
                <rect class="cls-4" x="308.19" y="593.33" width="47.06" height="10.03" rx="5.01" ry="5.01"/>
                <path class="cls-4" d="M334.46,603.35h-6.22c-13.71,0-21.93-14.53-40.85-5-14.66,7.38-19.82,30.24,9.12,30.24,42.17,0,42.29.18,50.18.18s16.58-9.8-1.63-25.41Z"/>
              </g>
              <g>
                <rect class="cls-4" x="410.17" y="593.33" width="39.06" height="10.03" rx="4.57" ry="4.57" transform="translate(859.41 1196.68) rotate(-180)"/>
                <path class="cls-4" d="M446.11,603.35h.63c11.37,0,25.23-10.9,44.08-5,13.59,4.25,17.61,30.24-6.41,30.24-35,0-60.58.18-67.13.18s-13.77-9.8,1.36-25.41Z"/>
              </g>
              <path class="cls-13" d="M440.66,603.35a10.22,10.22,0,0,0-6.41,9.33"/>
              <path class="cls-13" d="M447.06,603.35a10.22,10.22,0,0,0-6.4,9.33"/>
              <path class="cls-13" d="M453.47,603.35a10.23,10.23,0,0,0-6.41,9.33"/>
              <polyline class="cls-2" points="318.15 251.16 292.25 428.54 302.43 587.14 355.83 587.14 348.58 430.33 365.53 357.39"/>
            </g>
            <path class="cls-4" d="M305.1,267.65s7,151.61,15.5,258c0,0-46.7-4.29-48.8,10.07C246,465.05,297.56,359.22,297.26,330.29s-5-107-5-107"/>
            <path class="cls-4" d="M615,140.68c34.64-10.06,54.49,38.87,28.5,52.19-24.74,12.67-26.48,4.55-23.35-3.63-8,1.6-12.3-9.11-3.95-13.93-5.76-2.1-9.35-9.08.71-11.86-15.24-13.19,7.38-10.6,20-16"/>
            <path class="cls-3" d="M404.37,175.5a122.55,122.55,0,0,0-3.86-12.42l-.15-.39c-14.9,0-29.8-.33-44.7-.82-4,1.56-7.87,2.61-10.44,2.16a7.16,7.16,0,0,1-4.22-2.67l-22-.8a30.64,30.64,0,0,0-3.76,3.71,29.93,29.93,0,0,0-5.61,10.07C341,181.7,372.91,178.6,404.37,175.5Z"/>
            <path class="cls-2" d="M408.44,197.08c-.19-1.4-.39-2.81-.6-4.21-.75-5-1.66-9.9-2.81-14.73-.21-.89-.44-1.76-.66-2.64-31.46,3.1-63.39,6.2-94.71-1.16-.11.34-.22.67-.32,1a29.72,29.72,0,0,0-1.15,8.15q-1.05,5.38-1.82,10.81A319.47,319.47,0,0,0,408.44,197.08Z"/>
            <path class="cls-3" d="M409.15,216.65q.23-3.18.46-6.27c0-.57.08-1.17.13-1.74-.37-3.86-.79-7.72-1.3-11.56a319.47,319.47,0,0,1-102.07-2.78v0c-.57,4-1,7.95-1.4,11.94-.28,3.06-.48,6.13-.64,9.2C338.59,220.45,374.35,221.24,409.15,216.65Z"/>
            <path class="cls-2" d="M407.72,237.2c.29-4.18.57-8.31.85-12.35.19-2.77.39-5.51.58-8.2-34.8,4.59-70.56,3.8-104.83-1.18-.09,1.6-.18,3.19-.23,4.79q-.24,7.19,0,14.37C337.36,245.16,373.09,243.5,407.72,237.2Z"/>
            <path class="cls-3" d="M406.52,254c0-.63.1-1.27.14-1.9.37-4.95.71-9.87,1-14.72l0-.21c-34.63,6.3-70.36,8-103.67-2.57,0,.71,0,1.43.05,2.14q.25,7.15,1,14.29c0,.17,0,.34,0,.5.15,1.48.29,3,.44,4.51C338.17,265.88,373.66,263.83,406.52,254Z"/>
            <path class="cls-2" d="M404.73,276.33c.21-2.45.43-4.9.63-7.36.41-5,.79-10,1.16-14.94-32.86,9.8-68.35,11.85-101,2q.34,3.63.67,7.41c.41,4.59.79,9.32,1.14,14.08a188.4,188.4,0,0,0,51.13,7.34C374.49,285.7,389.38,280.85,404.73,276.33Z"/>
            <path class="cls-3" d="M402.77,296c.15-1.4.31-2.8.46-4.22.51-4.82,1-9.72,1.43-14.67,0-.26,0-.52.07-.78-15.35,4.52-30.24,9.37-46.25,8.57a188.4,188.4,0,0,1-51.13-7.34c0,.37,0,.74.08,1.11.34,4.74.64,9.49.88,14.15l.18,3.9C338.37,305,372.74,306.71,402.77,296Z"/>
            <path class="cls-2" d="M308.49,296.72c.09,2.18.18,4.34.25,6.46.1,3.48.17,6.87.17,10.1,0,15.74,80.82,13.06,91.51,1q.79-5.41,1.5-11.1c.3-2.36.57-4.76.85-7.17C372.74,306.71,338.37,305,308.49,296.72Z"/>
            <path class="cls-2" d="M338.85,157.91a22.87,22.87,0,0,1-1.45-4.07,28.77,28.77,0,0,0-15.94,4.89,29.12,29.12,0,0,0-2.43,1.83l22,.8A15.43,15.43,0,0,1,338.85,157.91Z"/>
            <path class="cls-2" d="M400.36,162.69c-.94-2.49-1.95-4.94-3.08-7.33l-.69-1.47-25.08,0s-2,1.22-4.93,2.81a103,103,0,0,1-10.92,5.19C370.56,162.36,385.46,162.71,400.36,162.69Z"/>
            <path class="cls-2" d="M396.59,153.89c8.17,16.54,11.34,35.62,13.15,54.75.06-.84.12-1.7.19-2.53l3.89-.92,3.64-.86c-.09-17.54-1-35.8-10.12-50.43Z"/>
            <path class="cls-3" d="M416.62,153.91h-9.28c9.13,14.63,10,32.89,10.12,50.43l2.47-.58,4.27-1c-.74-16.34.23-33.27-4.47-48.83Z"/>
            <path class="cls-2" d="M431.16,154.28l-7.47-.1-3.8-.05a2.87,2.87,0,0,1,.55-.22h-.71c4.7,15.56,3.73,32.49,4.47,48.83l4.11-1,2.85-.68S438.29,182.86,431.16,154.28Z"/>
            <g>
              <path class="cls-3" d="M598.82,262.13a6.8,6.8,0,0,0-6.51-7.08A6.81,6.81,0,0,1,585.8,248L587.4,210l-13.53-.57-1.6,37.92a6.8,6.8,0,0,1-7.08,6.51h0a6.81,6.81,0,0,0-7.09,6.51l-2.91,69h0c0,.05,0,.1,0,.15-.17,3.9,8.81,7.45,20.06,7.92s20.49-2.3,20.65-6.2v-.15h0Z"/>
              <path class="cls-2" d="M590,218.08s-2.61,2.7-9.85,2.4-9.61-3.23-9.61-3.23l.33-7.91s2.38,2.92,9.62,3.23,9.85-2.4,9.85-2.4Z"/>
              <ellipse class="cls-2" cx="580.65" cy="209.46" rx="3.84" ry="9.74" transform="translate(346.89 780.76) rotate(-87.58)"/>
              <path class="cls-2" d="M598.3,274.46c-.17,3.9-9.41,6.68-20.66,6.2s-20.22-4-20.06-7.92l-1.53,36.33c-.17,3.9,8.82,7.45,20.06,7.92s20.49-2.3,20.66-6.2Z"/>
            </g>
            <path class="cls-4" d="M548,164.26c-16.21,5.47-33.21,6.88-48.87,6.56-15.92-.33-12.93,17.78.86,18.91,16.83,1.37,43.75-2.19,58.25-9.92C570.12,173.48,560.77,160,548,164.26Z"/>
            <path class="cls-2" d="M561.9,165.59c-21.83,8.56-52.69,12.62-75.77,10.51-9-.83-10.37,12.81-1.43,13.63,24.3,2.23,59.9-2.87,82.88-11.87C576.06,174.54,570.29,162.3,561.9,165.59Z"/>
            <path class="cls-4" d="M552.33,175.67c-12.09,5.09-37.62,8-51.09,7.68-19-.48-16.92,16.4-3.23,18.72,16.69,2.83,47.13-1.93,62.33-8.34C572.78,188.49,564.78,170.42,552.33,175.67Z"/>
            <g>
              <path class="cls-4" d="M492.19,360c-12.16,7.68-15.62,19.89-16,33.5,11,.2,26.91,1.47,36.36-6C509.2,376.13,500.78,367.73,492.19,360Z"/>
              <path class="cls-4" d="M490.79,370.57c1.12,2.85,2.41,5.64,3.64,8.46"/>
              <path class="cls-4" d="M496.73,372.73c-2.82,1.42-5.63,2.84-8.45,4.23"/>
              <path class="cls-2" d="M478.93,375.29C458.15,366,438,344.92,430.51,323.85c1.32-6.56,2.66-13.07,3.76-19.68q-3.94,5.52-7.9,11l-11.15-1.7a179,179,0,0,1,15.19,10.57"/>
              <path class="cls-13" d="M483.14,353.91c-15.44,4.3-21.85,22.14-27,35.32"/>
              <path class="cls-13" d="M481.55,341.57c-18.93,5.37-30.06,26.07-39.61,41.38"/>
              <path class="cls-13" d="M468,335.88c-16.54,3.78-26.15,21.52-33.75,34.85"/>
              <path class="cls-13" d="M443.8,328.69c-8.48-1.68-16.39,4.47-22.74,9.07"/>
              <path class="cls-13" d="M450.83,335.46c-10.51,1.65-18.62,11.37-24.73,19.07"/>
            </g>
            <g>
              <path class="cls-3" d="M507.2,245.25h0a15.36,15.36,0,0,1,11.41-15.83l3.22-.85a7,7,0,0,1,8.74,6.29l1.12,17.75a7,7,0,0,1-7.87,7.35l-3.3-.44A15.36,15.36,0,0,1,507.2,245.25Z"/>
              <path class="cls-3" d="M509.54,282.25h0A15.37,15.37,0,0,1,521,266.42l3.22-.86a7,7,0,0,1,8.73,6.3L534,289.61a7,7,0,0,1-7.87,7.34l-3.3-.43A15.39,15.39,0,0,1,509.54,282.25Z"/>
              <path class="cls-3" d="M523.82,260a8.61,8.61,0,0,1,.36,5.6"/>
              <polyline class="cls-12" points="512.25 251.55 517.53 241.51 521.27 247.18 527.9 235.17"/>
              <polyline class="cls-12" points="514.53 288.97 519.82 278.93 523.56 284.6 530.19 272.59"/>
            </g>
            <path class="cls-4" d="M526.44,456.49s-5.74,56.23,20.92,89V454.73Z"/>
            <path class="cls-3" d="M536.64,455.9a68.53,68.53,0,0,0,0-20.4c-1.75-10.21-5.52-24.13-5.52-24.13l16.24,1.53v41.83Z"/>
            <circle class="cls-9" cx="540.37" cy="419.14" r="2.1"/>
            <ellipse class="cls-4" cx="352.57" cy="155.79" rx="20.13" ry="9.49" transform="translate(-8.08 19.76) rotate(-3.17)"/>
            <path class="cls-11" d="M319.7,90.72c-3.92,28.19,7.53,62.17,27.05,65.66s39.72-24.82,43.64-53S381.65,49.49,362.13,46,323.61,62.54,319.7,90.72Z"/>
            <path class="cls-2" d="M368.64,102.3c-1.27,5.56-3.5,16,3.89,17.38s9.74-9,11-14.51,3.51-15.88-3.89-17.31S369.91,96.75,368.64,102.3Z"/>
            <path class="cls-2" d="M348.41,100.24c-1.26,5.55-3.51,16.28,3.93,17.61s9.71-9.07,11-14.62,3.55-16-3.88-17.57S349.67,94.69,348.41,100.24Z"/>
            <g>
              <path class="cls-2" d="M282.2,69.79S304.86,85.6,353,91.23s81.36,5.17,81.36,5.17L394.91,78.65,382.55,34.88a7.06,7.06,0,0,0-12.08-2.75L358.25,46l-5.49-13.69a7.05,7.05,0,0,0-12.68-.86L319.69,67.39Z"/>
              <path class="cls-3" d="M319.69,67.39s38.75,15.09,75.22,11.26l-2.65-9.35s-31.58,4.86-65.87-13.73Z"/>
            </g>
            <g>
              <path class="cls-2" d="M371,132.51c1.15,4.69-1.58,9.8-5.76,11a26.91,26.91,0,0,1-4.65.85c1.47-5.85,2.91-11.69,3.83-17.53C367.37,127.55,370.18,129.09,371,132.51Z"/>
              <path class="cls-2" d="M361.2,126.22a23.32,23.32,0,0,1,3.24.58c-.92,5.84-2.36,11.68-3.83,17.53a22.68,22.68,0,0,1-9.26-1.06c1.65-6.12,3.26-12.24,4.74-18.4A17.38,17.38,0,0,0,361.2,126.22Z"/>
              <path class="cls-2" d="M350.21,121.16a27,27,0,0,0,5.88,3.71c-1.48,6.16-3.09,12.28-4.74,18.4a32.5,32.5,0,0,1-10-5.7c2.26-5.94,4.7-11.78,7.4-17.47C349.24,120.43,349.72,120.78,350.21,121.16Z"/>
              <path class="cls-2" d="M337.39,120.4c3.57-3.54,7.45-2.92,11.37-.3-2.7,5.69-5.14,11.53-7.4,17.47q-.56-.44-1.11-.9a15.14,15.14,0,0,1-3.53-4.11C334.15,128.25,333.77,124,337.39,120.4Z"/>
            </g>
            <path class="cls-4" d="M612.23,138.55a140.92,140.92,0,0,1,12.46-13.79c6.43-6.05,8.52,5.86,3.09,12.29s-5.58,5.29-5.58,5.29Z"/>
            <path class="cls-3" d="M431.16,201.1c-4.05,28.21-11.7,30.11-11.23,2.65"/>
            <polygon class="cls-3" points="438.01 587.14 415.88 587.14 417.3 593.33 439.43 593.33 438.01 587.14"/>
            <rect class="cls-3" x="320.65" y="587.14" width="22.13" height="6.19"/>
            <polygon class="cls-3" points="601.86 372.16 574.31 360.34 574.31 354.87 568.35 366.73 573.64 362.85 601.86 372.16"/>
            <polygon points="362.99 375.84 382.46 438.37 382.55 438.64 382.53 438.9 405.3 555.59 379.79 438.7 379.86 439.24 359.2 377.12 362.99 375.84"/>
            <path class="cls-4" d="M616.92,163.45s16.85,2.1,21.39-3.27"/>
            <path class="cls-4" d="M616.21,175.31s16.52,2.81,24.46-3.14"/>
            <path class="cls-4" d="M620.16,189.24a39.84,39.84,0,0,0,20.51-4.45"/>
            <path class="cls-13" d="M334,603.35s2.23,2,3.1,9.33"/>
            <path class="cls-13" d="M329.32,603.35s2.24,2,3.1,9.33"/>
            <path class="cls-13" d="M325.2,603.35s2.24,2,3.1,9.33"/>
            <g>
              <path class="cls-4" d="M391.43,305.49c4.61-.56,14.58.69,18.3.83,4.65.18,22.59,1.54,17.43,6.84-5.62,5.79-16.52,4-23.73,4"/>
              <path class="cls-4" d="M407.2,316.41c5.28,8.54,20.56,6,26.87,5.47,7.2-.64,4.9,2.2,6.65,5.57,2.26,1,4.15.51,5.86,3.4s.7,7-2.06,9.52c2.61,5.69-3.42,9-7.7,10.59C427.87,365.42,367.6,360,365,314.35c-.74-12.94,2.3-12.1,2.34-16.66,7.15-1.2,13.43-.33,19.64,3.72"/>
              <path class="cls-4" d="M440.6,327.52c-1.13,8.17-23.52,5.46-27.6,4.85"/>
              <path class="cls-4" d="M444.52,340.4c-11.25,2.88-24.7,5.81-36.08,1.76"/>
              <path class="cls-4" d="M436.79,351c-10.39,1.42-20.84,2.13-30.82-1.55"/>
            </g>
            <path class="cls-4" d="M289.46,163.08S275.53,179,264.55,220.44c-6.7,25.29-20.1,73,15.9,91.57s88.48,38.41,95.66,35.29,21.24-43.13,14.23-46.63S283.74,273.48,291.82,253"/>
          </g>
        </g>
      </g>
    </g>
  </g>
</svg>
