<?xml version="1.0" encoding="utf-8"?>
<!-- Generator: Adobe Illustrator 25.2.1, SVG Export Plug-In . SVG Version: 6.00 Build 0)  -->
<svg version="1.1" id="Layer_1" xmlns="http://www.w3.org/2000/svg" xmlns:xlink="http://www.w3.org/1999/xlink" x="0px" y="0px"
	 viewBox="0 0 1081.2 603" style="enable-background:new 0 0 1081.2 603;" xml:space="preserve">
<style type="text/css">
	.st0{fill:#FFFFFF;}
	.st1{fill:#FFFFFF;stroke:#000000;stroke-width:2.6;stroke-miterlimit:10;}
	.st2{stroke:#000000;stroke-width:2.6;stroke-linecap:round;stroke-linejoin:round;}
	.st3{fill:none;stroke:#000000;stroke-width:2.6;stroke-miterlimit:10;}
	.st4{fill:#FFFFFF;stroke:#000000;stroke-width:2.6;stroke-linecap:round;stroke-linejoin:round;}
	.st5{fill:none;stroke:#000000;stroke-width:2.6;stroke-linecap:round;stroke-linejoin:round;}
	.st6{stroke:#000000;stroke-width:2.6;stroke-miterlimit:10;}
	.st7{fill:none;stroke:#FFFFFF;stroke-width:2.6;stroke-miterlimit:10;}
	.st8{stroke:#000000;stroke-width:2.6;stroke-linejoin:round;}
	.st9{fill:#FFFFFF;stroke:#000000;stroke-width:2.6;stroke-linejoin:round;}
	.st10{fill:none;stroke:#FFFFFF;stroke-width:2;stroke-linecap:round;stroke-miterlimit:10;}
</style>
<g id="Layer_2_2_">
	<g id="Layer_1-2_1_">
		<g>
			<g>
				<g>
					<path class="st0" d="M459.9,171.9c-52.6,20.9-103.2,46.2-155.4,68c16.6,36.7,31.1,74.4,47,111.5c44.6-30,89.5-59.8,134.1-89.8
						c-3.1-13.3-6.1-26.6-9.2-39.8l21.8-17.9"/>
					<path class="st1" d="M572.3,274.3c4.3,10.7,27.5,1.4,25.6-3.9c-7.9-22.2,3.9-59.2,11.6-73.8s-30.5-11.2-32.9,0.8
						S566.8,260.4,572.3,274.3z"/>
					<path class="st1" d="M596.3,255.7c5.2-1.5,8.4-5.9,10.7-10.7c4-1.8,5-6,2.9-9.8c3.8-3.4,5.3-7.1,3.2-11.9
						c2.1-7.7-0.5-11.5-5.5-17.3c-4.2,15.8-19.8,3.3-25.5,24.3C579.4,239.6,579.2,260.5,596.3,255.7z"/>
					<g>
						<path class="st2" d="M316.1,276.5c11,57.8,4.9,120.7,18.2,174.9c30.6-9.2,69.5-15.7,97.6-25.7s-20.8-17.9-28.3-11
							c-6.3-32.7-3.3-66-9.1-98.6c9.8-4.2,57.5-22.2,61.6-10.2c7.8,22.3,7,43.7,15.5,65.4c19.5-7.2,47-13.4,65-20.7
							c32.3-13.2-13.1-19-24-12.7c0.4-10.7,3-24.7-1.4-35.1"/>
						<path class="st1" d="M349.9,284c-0.6,11.4-0.8,22.9-0.6,34.3c-9.3,0.8-20.6-6.7-30.4-6c0.2,4,0.4,8,0.6,12
							c10.2-0.6,21.8,6.3,31.4,5.7c0.9,22.3,1.3,44.6,0.4,66.9c55.6-18.6,111.5-84.3,162.1-86.6c4.9-36.3-15.1-23.1-41.1-17"/>
						<g>
							<path class="st1" d="M406,270.7c5.6-6.1,11.3-12.3,16.8-18.5l11.4,2.3c2.9,6.9,5.8,13.8,8.7,20.7
								C432.8,282.3,415.6,274.2,406,270.7z"/>
							<path class="st1" d="M345.8,239.8c-3.6,5.9-7.3,11.8-11,17.6c32.1-6.4,31.1,14.1,54.6,20.7c6.2-5.2,13-9.6,20.2-13.2
								c0,2.3,0.1,4.5,0.1,6.8c10.3,4,24.8,11.1,31.8-0.9c2.9,2.3,5.3,5.2,7,8.6c1,2.1-0.3,3.8,0.2,5.9s2.8,4.1,2.8,6.2
								c0,3.6-0.6,7.3-1.8,10.7c-0.8,2.6-3.4,4.5-5.1,7.4c-1.2,2.1-1.1,3.8-3.5,6.5c-9.1,10.1-53.9,9.3-64.6,9.6
								c-30.9,0.8-88.9-9.2-101.8-34.2c-26.7-51.4,42.6-100.7,76-113.7c165.1-64.1,93.2,22.1,211.1,52c7.8-5.3,17.1-2.7,25.6,1.6
								c6.9,3.5,19.5,19,8.5,20.8c-10.3,1.7-11-3.3-16.3-8.3c-9.9,6.2-19.5,4.4-28.8-2.3c-5.2-2.2-13.2-4.5-18.1-1.9
								s-4.7,6.8-5.2,11.2"/>
							<path class="st3" d="M317.2,196.4c33.1,1.6,45.5,29.3,35.5,58.6"/>
							<path class="st3" d="M421.8,160c13.9,9.1,33.6,26.9,35,46.4c-24.6,11.5-56.9,20.5-84,21.6c-8.9-21.1-26.8-36.7-49.5-36.6"/>
							<path class="st1" d="M281.8,232.2c21.5-11.3,43.5,0.1,58.8,15.9"/>
							<path class="st3" d="M426.2,155.6c52,21.9,58.5,92.2,61.3,125.5"/>
							<path class="st1" d="M443.5,253.9c-1.1,5.7-10.9,5.9-15.6,5s-13.7-4.8-12.6-10.5s11.3-3.2,15-2.4S444.6,248.2,443.5,253.9z"
								/>
							<path class="st1" d="M419.9,249.1l3.5,0.7"/>
							<path class="st1" d="M435.3,252.1l3.5,0.7"/>
							<path class="st1" d="M428,248.2l3.5,0.7"/>
							<path class="st1" d="M427.3,252.4l3.5,0.7"/>
						</g>
						<path class="st4" d="M376.7,146.8c-0.9-1.9,1.7-3.7,2.8-4.6"/>
						<g>
							<path class="st4" d="M421.2,159.9c-6-21-13.9-41.5-21.3-62.1c16,1.2,25.7-23.2,18.3-40.5c-5.2-12.3-19.8-12.8-32.4-8.9
								c-1.7-9.4-11.1-18.8-19.4-18.4c-16.3,0.9-25.2,7.5-34.4,19.8c-11.8-5.6-26.7-4.3-36.4,7.5c-7.7,9.2-4.2,19.7,2.7,26.6
								c-12.2,6.2-17.6,23.7-12.4,32.2c8.1,13.2,17.9,10.9,30.1,6.9c9,20.7,12.8,35.9,22.6,59.6s54,15.5,71.6,2.5
								c1.3-1,2.5-1.8,3.5-2.6C420.7,177.1,423.6,168.2,421.2,159.9z"/>
							<path class="st5" d="M334,150.2c-1.4-3.3-3.6-9.4,2.8-10.3s8.5,4.9,10.2,8.6"/>
							<path class="st5" d="M352.9,147.2c-1.5-3.4-3.8-9.5,2.8-10.5s8.8,4.9,10.5,8.7"/>
							<path class="st4" d="M377.4,149.8c-4.2,10-12.2,12.9-22.5,11.9"/>
							<path d="M417.6,165.9c-1.7-6.6-1.3-6.7-3.4-13.5c-1.6-5.1-4-12.4-5.9-17.9s-4.5-12.5-6.4-17.5c-2.5-6.6-4.3-11.2-6.6-17.4
								c-0.1,0.1-0.2,0.1-0.4,0.1c0.8,6,2.1,11.9,3.7,17.7c0.8,2.9,1.7,5.9,2.7,8.9c1,2.9,1.9,5.8,2.9,8.8s2.1,5.9,3.3,8.9
								s2.3,6,3.5,9C412.9,157.4,415.1,161.8,417.6,165.9z"/>
						</g>
					</g>
					<path class="st1" d="M582.1,197.1c11.2-64.2,22.3-128.8,33.5-192.8c14.7,26.2,21,62.2,20.7,90.4c-0.3,30-2.3,56.2-13,83.1
						c-10.5,1.5-18,7.7-24.4,15.9C593.3,194.9,587.7,196,582.1,197.1z"/>
					<path class="st3" d="M612,192.7c-10,5.6-20.9,8.3-32.2,10c-1-2.7-2-5.3-3-7.9"/>
					<path class="st1" d="M476.5,221.7c2.3-13.9,11.5-20.1,24.9-21.8"/>
					<path class="st3" d="M582.8,225.5c5,15.9,21.9,3.8,30.3-2.2"/>
					<path class="st3" d="M581.1,237.7c7.2,12,22.1,1.9,30-3.3"/>
					<path class="st3" d="M582,247c4.9,4.2,10.9,3.9,17,2.2c3.3-1.1,6.3-2.7,9.1-4.7"/>
				</g>
				<g>
					<path class="st1" d="M1034.9,363.3c0,0-0.7,13.5,3.8,16.2c4.5,2.8,8.2-1.6,8.2-1.6"/>
					<path class="st1" d="M872.6,334.5c22.2-13.9,53.9-23.1,78.2-27.2c18.9-3.3,26.3-3.9,43.3-6.4c3.9-7.5,7.9-19.5,19.8-16.4
						c18.6,4.8,25.3,38.6,38.6,56.1c17.2,22.6,19.7,55.6-2.6,38.8c-9,12-8.5-11-15-16.2c-9.4-7.5-17.5-18.1-30.4-22.7
						c-7-2.7-14.7-2.6-21.6,0c-35.7,12.6-71.4,32-105.8,47.9s-56.9,8.2-60.7-31.7c-0.3-3.4-0.2-11.2-0.6-15"/>
					<path class="st6" d="M968,340.7c3.3,2.1,6.5,4.3,9.8,6.5"/>
					<path class="st6" d="M954.4,337c1.7-1,3.3-2,5-3"/>
					<path class="st6" d="M948.8,321.9c3-1.1,6-2.1,9-3.2"/>
					<path class="st6" d="M933.7,340.3c3.4-0.8,7.3-0.3,10.8-0.2"/>
					<path class="st6" d="M939.4,330.2h5.5"/>
					<path class="st6" d="M920.5,330.8c2.2-3.4,4.4-6.9,6.6-10.3"/>
					<path class="st6" d="M924,348.6c3.2-0.2,6.5-0.3,9.7-0.4"/>
					<path class="st6" d="M911.6,361.6c3.2-1,6.4-2,9.6-3"/>
					<path class="st6" d="M909.6,344.5l6.3-3.4"/>
					<path class="st6" d="M899.6,337.4c2.4-2.9,4.9-5.9,7.3-8.8"/>
					<path class="st6" d="M944.2,351.6c4,0.6,8,1.2,11.9,2"/>
					<path class="st6" d="M942.8,312.1c2.3-3.1,4.7-6.2,7-9.4"/>
					<path class="st6" d="M981.3,331.7l6.2,0.5"/>
					<path class="st6" d="M897.7,355.8l9.6-1.6"/>
					<path class="st6" d="M885.4,370.8c4.2-0.7,8.5-1.4,12.7-2.1"/>
					<path class="st6" d="M907.8,369.1c3,1.3,5.9,2.7,8.8,4.1"/>
				</g>
				<line class="st3" x1="17.5" y1="597" x2="1070.6" y2="597"/>
				<path class="st2" d="M89.8,305c0,0,11.9,8.4,20.3,12.7s23.2-3.2,46.4,0.1l-52.7,25.1L89.8,305z"/>
				<g>
					<circle class="st1" cx="111.5" cy="316.6" r="11.4"/>
					
						<ellipse transform="matrix(0.8822 -0.4709 0.4709 0.8822 -134.6212 91.5116)" class="st1" cx="115.6" cy="314.8" rx="6.3" ry="7.7"/>
					
						<ellipse transform="matrix(0.8822 -0.4709 0.4709 0.8822 -134.4094 91.8734)" class="st6" cx="116.4" cy="314.6" rx="2.2" ry="2.9"/>
				</g>
				<polyline class="st3" points="100.9,337 83.4,287.9 156.5,317.8 110.5,339.8 				"/>
				<path class="st6" d="M293,142c3.5,7-56.6,43.9-134.2,82.5S15.5,288.8,12,281.9s46.8-61,124.4-99.7S289.6,135.1,293,142z"/>
				
					<ellipse transform="matrix(0.8952 -0.4456 0.4456 0.8952 -78.4619 90.1623)" class="st1" cx="152.5" cy="211.9" rx="156.9" ry="14.1"/>
				<polyline class="st3" points="146.3,199.4 206.1,317 206.1,596.6 				"/>
				<path class="st1" d="M117.7,374.6c0,0,69.3,66,76.4,61.6c17.2-10.8,124-71.3,124-71.3l38.8,41.6c0,0-128.4,74.5-158.8,73.4
					c-37.2-1.3-104.6-87.3-104.6-87.3s-14.8-2.6-18.1-8.7"/>
				<path class="st1" d="M105.1,355.5c0,0-7.6,14.4,1.5,21.6"/>
				<polyline class="st1" points="94,366.3 78.1,405.7 90.1,418.2 60.5,405.5 78.4,405.5 				"/>
				<rect x="400.8" y="418.9" class="st1" width="307.5" height="177.7"/>
				<rect x="708.2" y="418.9" class="st1" width="120.2" height="177.7"/>
				<rect x="433.9" y="429.1" class="st6" width="383.7" height="167.6"/>
				<g>
					<path class="st0" d="M771.8,595.1c20.7-24.7,1.3-65.8-8.6-79c0.7,12.1-0.2,26.1-10.2,39.8c-0.6-6.6-2.3-13.1-5.2-19.2
						c-5.8-12.4-13.4-23.5-19.2-35.9c0.3,21.9,11.8,47.8-8.8,73.8c8.2-16,3.8-30.6-0.3-42.4c-4.8-14-11.8-26.8-14-42.4
						c-2.7,22.5,7,40.3,2.1,63.5c-1.9-17.5-10.8-31.3-16.9-46.2c-5.1-12.4-11.9-21.3-1.7-46.2c-31.5,35.4-1.5,66.1-15.2,100.1
						c-5.7-24.7-25.1-41.2-37.7-61c0.1,19.9,8.7,39.8-1.7,62.9c2.5-32.7-23.7-50.6-26.2-80.9c-11,30.6,9.6,58.6-15.8,90.5
						c3-18.6-7.8-33-15.9-45.3c-9.4-14.3-20.9-27.7-25.8-45.2c-7.1,31.1,21.5,63.3-9.4,97.6c8.5-15.7,3.8-29.8-0.8-40.8
						c-5.9-14.1-14.4-26.5-20.1-40.8c-0.4,21.9,11,45.5-5.2,71.2c-1-14.6-9.3-25.8-17-36c-0.6,10.1-2.7,21.5-10.2,32.2
						c-1.1,1.5-6.4,9.2-8.5,9.5s-0.6,0.7-1.1-0.9s0.9-4.9,1-6.8c0.3-3.9,0-7.9-0.8-11.7c-3.7-18.9-15.2-33.4-23.6-49.3
						c3.4,19.4-20.8,63.3-39.1,88.5"/>
					<path class="st0" d="M657.9,478.6c2.3,11.8,4.2,16.7,6,28.9C655.3,500.7,651.5,493.3,657.9,478.6z"/>
					<path class="st0" d="M692.1,439.8c-8,7.6-13.4,13.4-19.2,24.3C669.6,452,683.9,444.5,692.1,439.8z"/>
					<path class="st0" d="M595.9,529c-1.9-18.7-4-35,1-56.5C573.7,489.8,590.1,518.9,595.9,529z"/>
					<path class="st0" d="M518.6,450.8c3.5,16.1,8.5,23.5,14.3,38.2C534.4,471.5,533.7,457.3,518.6,450.8z"/>
					<path class="st0" d="M490.8,542.4c0.9-5.8,1.3-11.7,1.4-17.6c0-2.2,2.2-21,2.2-21s-10.6,10.8-10.5,23.4
						C483.9,534.3,489,536.2,490.8,542.4z"/>
					<path class="st0" d="M755.7,519.2c-10.5-11.2-16.4-20.8-28.5-36.3C747.2,485,756.6,499.4,755.7,519.2z"/>
					<path class="st0" d="M447.3,501.2c0.1,0.7,0.2,1.4,0.3,2.1s0.2,1.4,0.3,2s0.2,1.3,0.3,1.9s0.2,1.2,0.3,1.8l0.3,1.8
						c0.1,0.6,0.2,1.1,0.3,1.7s0.2,1.1,0.4,1.7s0.2,1.1,0.3,1.6s0.2,1.1,0.4,1.6s0.2,1.1,0.4,1.7l0.4,1.7l0.4,1.7
						c0.1,0.6,0.2,1.2,0.4,1.8s0.2,1.2,0.4,1.8s0.2,1.3,0.4,1.9s0.2,1.3,0.4,2s0.2,1.4,0.4,2.1l-0.1-0.1l-0.4-0.3
						c-0.1-0.1-0.3-0.2-0.5-0.4s-0.4-0.4-0.7-0.6l-0.8-0.8c-0.3-0.3-0.6-0.6-0.9-1s-0.6-0.8-0.9-1.2s-0.6-0.9-0.9-1.4
						s-0.6-1-0.9-1.6s-0.6-1.2-0.8-1.8c-0.3-0.7-0.5-1.3-0.7-2c-0.5-1.5-0.8-3-1-4.6c-0.1-0.9-0.1-1.7-0.1-2.6
						c0-0.9,0.1-1.9,0.1-2.8c0.1-1,0.3-2.1,0.5-3.1c0.3-1.1,0.6-2.2,0.9-3.3C446.3,503.5,446.8,502.3,447.3,501.2z"/>
				</g>
				<rect x="280.5" y="418.9" class="st1" width="136.7" height="177.7"/>
				<path class="st1" d="M249.7,391.5H385c7.6,0,13.7,6.1,13.7,13.7l0,0c0,7.6-6.1,13.7-13.7,13.7H249.7c-7.6,0-13.7-6.1-13.7-13.7
					l0,0C236,397.7,242.2,391.5,249.7,391.5z"/>
				<path class="st1" d="M376.7,391.5h476.9c7.6,0,13.7,6.1,13.7,13.7l0,0c0,7.6-6.1,13.7-13.7,13.7H376.7
					c-7.6,0-13.7-6.1-13.7-13.7l0,0C362.9,397.7,369.1,391.5,376.7,391.5z"/>
				<path class="st1" d="M438.4,392.1h-4.5C435.4,392.2,436.9,392.2,438.4,392.1z"/>
				<path class="st1" d="M814.7,596.6h-46.2l0.1-91.9c0-36.5-29.6-66.2-66.1-66.2c0,0,0,0-0.1,0H488.6c-21.3,0-38.6,17.3-38.6,38.6
					c0,0,0,0,0,0l0.1,119.4h-25.1V418.9h389.9V596.6z"/>
				<path class="st1" d="M829.1,596.6H782v-91.9c0-36.5-29.6-66.2-66.1-66.2c0,0,0,0,0,0H529.6c-36.5,0-66.2,29.6-66.2,66.1
					c0,0,0,0,0,0v91.9h-48.3V418.9h413.9V596.6z"/>
				<path class="st1" d="M117.7,374.6c0,0,12.1-25-2.9-32.6c-11.9-6-28.3-14.1-29.6-4.4c18.4,4.5,26,17.9,16,19.7
					c2.8,3,4.4,14.7-5.9,14.1c6.6,4.8,0.2,11.2-4.3,9.4c6.2,12-12.6,8-19.7,2c-4.4-3.7-7.5-11.3-3-13.8c-2.6-3.6-0.9-9.3,2.8-11.3
					c0,0-2.3-4.1-0.6-8.2c1-2.3,2.7-4.2,4.8-5.4c-0.9-3.5,6.1-6.8,10-6.5"/>
				<path class="st1" d="M68.2,368.9c0,0,11.5,8.6,22.8,11.8"/>
				<path class="st1" d="M71,357.7c0,0,16.3,12.4,24.3,13.7"/>
				<path class="st1" d="M75.2,344.1c0,0,12.7,12,26,13.2"/>
				<path class="st3" d="M116.3,331.7l35.9-51.3c1.4-2.1,4.2-2.7,6.4-1.4l17.6,11.4"/>
				<path class="st4" d="M54.9,248.8c33.5-46.5,91.3-71.3,91.3-71.3s-18.9,9.4-31.6,38C87.9,228.1,54.9,248.8,54.9,248.8z"/>
				<path class="st4" d="M136.4,182.2c0,0,32.2-8.9,57.1-5.5l50.7-21.9C244.2,154.9,200.1,149.1,136.4,182.2z"/>
				<line class="st7" x1="89.4" y1="296.1" x2="101.2" y2="328.3"/>
				<g>
					<path class="st4" d="M998.5,227.8c8.9-5,14,5.9,12.8-12.1s-25.2-29.2-42.2-34s-81.2-37.9-91.8-18
						c-11.9,22.2,63.5,36.5,76.7,41.7"/>
					<path class="st4" d="M995.7,230.9c9-5,14,6,12.9-12.1s-25.2-29.2-42.3-34S885,147,874.4,166.8c-11.8,22,63.9,35.5,76.8,41.2"/>
					<path class="st6" d="M854.7,416.3c2,16,0.9,36.6-0.7,51.7s-1.3,24.5-1,38.6c25.2-1.6,50.3-2.5,75.5-3.8
						c-8.1-50.1-11-101.6-29.2-149.5c-17.6-2-34.3-9.6-52.1-6.6"/>
					<g>
						<path class="st8" d="M598.8,286.4c-1.6-30.4-8.3-57.6-30.9-79.3c-3.8,3.2-4.2,6.5-3.5,11.3C585,236.6,592.7,260.4,598.8,286.4
							z"/>
						<path class="st8" d="M681.4,293.6c0.5-35.1-1.2-70.7-26.8-97.5c-5.2,0.7-7.6,3-8.8,8.1C669.6,233.4,676.2,257.1,681.4,293.6z"
							/>
						<path class="st8" d="M745,238.6c-2.1-2.5-5.8,4-6.4,8.4c4.1,12.9,6.6,25.9,8.7,39.2C747.5,270.3,746.7,254.4,745,238.6z"/>
						<path class="st8" d="M515.5,319c0-29.1-0.5-58.2-23.8-79c-3.2,5.2-2.7,10.2-2.1,16.1C509.6,276.2,511.8,292,515.5,319z"/>
						<path class="st9" d="M985.3,220.5c3.1-0.8,14.1,2.7,13.2-6.1c-3.3-34.2-60.3-18.8-94.8-21c-10.3-0.6-34.5,12.9-7.2,32.9
							c-10.7,29.6-20.8,60.1-34.3,87.3c-3.2,6.5-1.9,8.3-6.7,11.8c-7,5.1-13.5,0.4-21.9-0.7c-15.7-2-31.7-16.1-39.3-28.5
							c-14.3-23.6-26.7-42.6-49.4-57.5c2,16,2.4,31.6,2.3,47.6c-3.3-21.8-8.5-42.3-20.6-61c-21.8-15.2-46.2-24.3-72.2-29
							c25.7,26.7,27.4,62.3,26.8,97.5c-5.5-37.4-13.4-79.7-50.4-98.3c-4.1,0.3-7.8,0.1-12,0.6c-17.3,2.1-34.3,6.2-51.1,11.1
							c21.3,20.5,28.6,46,30.7,74.8c0,0.4-0.7,0.5-0.8,0.2c-7.8-27.7-19.5-51.9-42-70.6c-21.7,8.6-43.8,16.8-64.1,28.5
							c23.2,20.8,23.8,49.9,23.8,79c-4.6-27.5-11.3-54.4-36.2-70.2c-16.8,12.5-33.6,25.5-49.8,38.3c-18.2,11-71.9,34.3-90.8,20.9
							c-6-4.3,3.2-48.1,0.6-54c-4.6-10.8-23.7,28.6-23.7,28.6s-10.9,0.5-11.9-2.4c2.4-6.5,6.7-36.7,0-33.9
							c-5.1,2.1-20.2,43.3-26.9,47.4c-17.4,10.6-41.1,5.6-56.6-4.5c-0.4,0-0.9,0.1-1.2,0.1c-1.9,0-4.3-0.8-4.7-2.4
							c5.4,50,68.8,105,145,105h518.5c0,0,20.5-4.6,23-12.8c21.1-42.4,28.3-92.1,29.4-138.2c12.8-13.4,29-18.6,46.5-15.8
							c7.2,1.1,9.1,7.3,15.6,5.6s3.7-6.2,2.8-10.7"/>
						<path class="st8" d="M219.6,293c2.6-1,5.1-2.5,4.9-5.6c-0.1-3.4-2.6-5.3-6-5.2s-5.5,2.3-6.2,5.5c-0.2,0.9,0.1,1.8,0.6,2.4
							c1.3,1.8,3.3,2.9,5.5,3C218.8,293.2,219.2,293.1,219.6,293z"/>
					</g>
					<path class="st8" d="M473.3,390.8c-3.7-8.2-7.5-13.1-11-21.4c-12,2.3-24,4.5-36,6.7c0,6.5,0.2,9.8,0.7,16.3
						C442.5,391.3,457.9,391.6,473.3,390.8z"/>
					<path class="st6" d="M294.3,557.1c-10.8-13.8-21.2-28.3-32.3-41.8c-2.9-3.6-5.1-4-9.6-3.2c-8.1,1.7-16.2,3.9-24,6.7
						c-3.6,1.2-4.5,3.4-2.1,6.6c11.7,15.3,24.5,30.2,36.5,45.3C273.4,566.2,283.9,561.7,294.3,557.1z"/>
					<g>
						<path class="st1" d="M514.3,339.9c-1.5,8.5-4.6,16.6-9,24c-7.7-3.7-15.4-7.2-23.1-10.8C493,348.9,503.6,344.3,514.3,339.9z"/>
						<path class="st1" d="M458.4,362.5c-3.3,6-7.2,12.5-10.1,19C451.2,374.9,455.1,368.5,458.4,362.5c7.4-2.9,11.8-4.6,18.8-7.4
							c-1.6,9.4-1.3,19,1,28.3c-17.3,1.5-31.2-1.4-45.6-11.2C440.4,369.1,451,365.3,458.4,362.5z"/>
						<path class="st1" d="M477,355.1l5.2-2.1c7.7,3.5,15.5,7.1,23.1,10.8c-3.8,4.7-8.2,8.9-13,12.6c-4.3,2.9-9,5.3-14,6.9
							C475.8,373.9,475.8,364.7,477,355.1z"/>
						<path class="st1" d="M432.4,372.2c14.5,9.5,28.4,13.1,45.7,11c0.1,0.2,0.1,0.2,0.2,0.3c-0.1-0.1-0.1,0-0.2-0.3
							c5.4-0.7,9.7-4,14-6.9c5.1-3.4,9.5-7.6,13.1-12.6c0.1,0.1,0.4,0.3,0.4,0.3s-0.3-0.2-0.4-0.3c5.1-7.2,7.2-15.4,9.1-23.8
							c1.1-0.6,2.3-1,3.5-1.2c-2.9,24.1-5.8,35.7-28.4,47.1s-44.2,2.7-62.9-11.2C428.4,373.7,430.4,372.8,432.4,372.2z"/>
					</g>
					<g>
						<path class="st1" d="M379.7,383.9c15.6,9,21,107.3,11.6,115.6c-23.6,20.7-45.7,29.9-70.1,42.6c-6.8,3.6-14.9,3.5-21.6-0.2
							c-4.5-2.5-9.3-3.5-14.5-0.4c-4.8,2.9,6.4,8.5,7.6,11.6c0.6,1.5-3.4,5.3-6.5,5.2c-6.1-0.2-11,2.2-18.3,0
							c-6.9-2.1-25.9-11.8-20.6,4.9c-4.6,4.2-1.5,7.4,2.6,10.4c-2.9,6.1,1.8,8.6,7.1,10.5c0.3,3.3,0.8,5.9,4.8,6.8
							c20.9,4.6,43.7,2.7,55.6-7.6c7.6-6.8,16.5-12.1,26.1-15.6c22-7.8,56.3-20.2,75.6-30c24.7-12.5,24-60.7,24.5-86.7
							c0.9-48.6,17-105.3-40.5-120.7"/>
						<path class="st1" d="M256.9,584.3c4.4,0.8,14.9,1.2,19.3,0.6"/>
						<path class="st1" d="M250,573.6c6,1.9,19,2.9,25.4,2.4"/>
						<path class="st1" d="M246.9,563c6,2.3,16.5,3.9,27.1,3.9"/>
					</g>
					<g>
						<path class="st8" d="M583.7,391.9c12.7-35,41.6-38.5,73.3-47.7c53.4-57.1,70.3-4.7,71.4,47.5"/>
						<g>
							<g>
								<path class="st9" d="M720.8,390.5c-9.2-0.9-0.5-2.4-8.3-4.2C709,390.3,730,391.3,720.8,390.5c-28-2.6-48.2-5.4-49.8-40.2
									c-0.9-18.7,6.1-31.1,26.5-33.1c6.7-0.7,9.4,2,15.2,3.6"/>
								<path class="st9" d="M700.7,317.5c4.5-2.6,6,2.9,9.8,3.2c3.6-1,3.4-5.2,8.1-3.4c14.5,5.6,20.9,18.8,24,33.8
									s2,29.5-10.8,38.6c-4.2,3-3.7-2.6-7-3c-1.9,1.4-1.6,4.6-5,3.4c-16.5-5.9-25.8-21.3-30-37.2S686.9,325.6,700.7,317.5z"/>
								<path class="st9" d="M692.9,299.4c6.1,5.2,11.3,11.2,15.7,17.9c1.1-16,9.4-24.5,21.5-34.1c-1.6,14.8-4.7,25.5-17.7,34"/>
							</g>
							<path class="st8" d="M715.9,354c1.3,1.3,4.6,8.8,1.2,9.1S715,355.8,715.9,354z"/>
							<path class="st8" d="M723.9,353.8c1.5,0.7,7.5,8.3,4.2,9S723.8,356.1,723.9,353.8z"/>
						</g>
						<path class="st9" d="M626.5,380.4c-1.8-2-3.4-4-4.9-6.2c-1.2-1.7-2.4-3.7-2.3-5.6s1.5-2.5,2.2-4c0.5-0.8,1-1.5,1.5-2.3
							c2.3,1.1,3.1,2.8,4.7,4.7c3,3.6,6,6,11,6.4c2.4,0.2,4.9-1.3,7.2-2c0.5-0.2,1-0.4,1.4-0.6c1-0.5,1.2-0.6,1-1.8
							c-0.1-0.7-1.4-1.5-0.2-2.2c2-1.1,4.6-0.6,6.9-0.7c-0.8-2-2-3.8-3.6-5.2c1-0.5,2-1,3.1-1.3c1.1-0.2,2.2,0,3.3-0.4
							c1.3-0.5,2.5-1.2,3.5-2.1c0.8-0.6,2.3-1.2,2.5-2.3c0.2-1.6-1.1-1.9-2.1-2.8c0.6,0,1.2,0,1.8-0.1c-0.1-1.3-0.5-2.6-1.3-3.7
							c-1.3-2.2-2.4-3.5-5.1-4c-1.4-0.1-2.7,0.3-3.7,1.3c-0.9,0.9-0.5,2.2-1.5,3c-2.1,1.6-5,1.8-7.5,1.7s-5.1-0.7-6.4-2.6
							s0.2-2.2,1.9-2.7c3.2-0.8,6.3-1.9,9.3-3.1c1.4-0.6,2.2-1.7,3.8-1.9c2-0.3,6.3,1.2,6-2.2c-0.2-3-3.9-4.9-5.9-6.9
							c0.4-2.1-0.3-4.3-1.8-5.8c-1.2-1-2.6-1.5-4.1-1.7c-1.3-0.2-1.1,0-2.2,0.6s-2.2,1.3-3.4,2.2c-0.9,0.6-1.9,2-1.5,3.2
							c-1,0-1.9-0.8-1.9-1.8c0,0,0-0.1,0-0.1c0.1-1,1.3-1.5,1.7-2c0.7-0.6,1.3-1.4,1.6-2.3c0.1-0.4-0.1-0.9,0-1.3s0.5-0.9,0.3-1.3
							c-0.9-2-3.4-3.1-5.4-3.2c-3.8-0.2-5.9,1-7.8,3.9c-0.6,1-0.8,2.3-0.5,3.5c0.2,1.2,1.5,1.4,2,2.3c1.6,2.8,2.4,6.1,2.2,9.3
							c0,2.2-1,4.6-3.4,5c-1.8,0.3-2.6-1-3-2.5c-0.1-0.8-0.1-1.6,0-2.3c-0.1-0.6,0-1.2,0.2-1.8c0.2-0.9,1-1.3,0.6-2.4
							c-0.6-1.4-1.3-2.1-3.1-1.7c-2.4,0.5-5.1,1.7-7.7,1.8c-1.3,0-2.4-0.8-3.8-0.8c-1.5,0.2-2.9,0.5-4.3,1c-1.2,0.4-1.5,0.6-1.7,1.8
							c-0.1,0.9,0,1.8,0.3,2.6c1.2,2.1,2.7,4.1,4.4,5.8c-1-0.1-1.5,0.4-2.4,1c-0.9,0.7-2,1.2-3.1,1.2c-2.8-0.2-4-2.3-6.2-3.7
							c-1.2-0.8-2-0.4-3.3,0.1c-2.4,0.9-6.2,1.2-6.2,4.5c0,3.9,3.9,6.5,6.4,8.8c1.5,1.4,2.7,3.4,4.3,4.2c5.4,2.6,10.5,1.5,16.1,1.6
							c1.1,0,2.7-0.3,2.9,1c0.3,2.3-2.6,3.3-3.6,4.9c-0.7,0.9-1,2-1,3.1c0.1,1.8,1.2,3,2.1,4.4c2,3.4,4.2,6.6,6.5,9.7"/>
						<g>
							<path class="st4" d="M604.4,389.9c1.6-6.4,4.7-10.9,11.8-11.3c5.9-0.3,9,3.5,11.6,8.1c0.5,0.9,0.3,2.1,0.5,3.1"/>
							<path class="st4" d="M644.7,388.2c0.1,1.7-0.3,3.4-1,4.9c-0.3,0.8-0.7,1.5-1.3,2.1c-3.1,2.7-6,5.2-10.4,5.1
								c-6.7-0.3-10-3.9-12.6-9.8c-0.4-0.8-0.5-1.7-0.3-2.6c1.2-6.4,4-10,10.1-12.4c0.8-0.3,1.8-0.4,2.7-0.3
								c6.6,1.1,10.1,4.3,12.5,10.4C644.7,386.5,644.8,387.3,644.7,388.2z"/>
							<path class="st4" d="M630.2,373.7c-1.4,6.6-4.8,10.5-11.6,11.5c-3.4,0.5-5.8-1.5-8.5-3.2c-0.9-0.6-1.5-1.4-1.9-2.4
								c-2.4-6-1.3-11.7,4.4-14.9c6.3-3.5,10.9-1.4,15.9,3c0.8,0.8,1,1.8,1.3,2.9C630.2,371.6,630.3,372.6,630.2,373.7z"/>
							<path class="st4" d="M682.1,352.7c-1.3,7.4-4.9,10.7-12.3,11.5c-3-2-5.6-4.6-7.5-7.6c-0.6-0.8-1-1.8-1.1-2.8
								c-0.6-2.9-0.3-6,0.9-8.7c0.2-1,0.9-1.8,1.7-2.4c8.6-3.8,13.6-0.8,18,7C682.1,350.6,682.3,351.6,682.1,352.7z"/>
							<path class="st4" d="M638.9,362.5c-0.7,5.3-3,8.3-7.4,11.1c-0.7,0.4-1.5,0.6-2.3,0.7c-0.8,0.2-1.6,0.3-2.5,0.3
								c-0.8,0-1.7-0.1-2.5-0.2c-0.8-0.1-1.6-0.4-2.4-0.8c-7.2-5.8-9.9-13-1.8-19.5c5.9-4.7,12.6-2.1,17.4,2.8
								c0.7,0.9,1.1,1.9,1.2,3C638.8,360.8,638.9,361.6,638.9,362.5z"/>
							<path class="st4" d="M666.7,348.9c-0.2,3.6-2.1,6.1-4,9c-0.7,0.5-1.4,1-2.1,1.4c-0.7,0.5-1.4,0.8-2.2,1
								c-2.5,0.2-5-0.1-7.3-0.9c-0.8-0.2-1.5-0.6-2.2-1.1c-4.7-4.8-6.2-9.5-4.1-15.9c0.6-1.9,2.2-2.4,3.6-3.5
								c0.7-0.5,1.4-0.8,2.3-0.9c4-0.4,8.1,0.3,11.7,2.1c0.8,0.4,1.1,1,1.8,1.5c0.6,1.5,1.7,2.8,2.2,4.3
								C666.6,346.9,666.7,347.9,666.7,348.9z"/>
							<path class="st4" d="M651.3,350.9c-0.4,3-1.2,5.7-3.6,7.7c-0.7,0.7-1.6,1.2-2.5,1.6c-2.5,1-5.1,1.4-7.8,1.2
								c-0.7,0-1.4-0.2-2-0.5c-6-3.1-7.8-6.9-7.5-13.5c3.5-5.4,6.9-8.1,13.5-7.7c0.9,0,1.7,0.3,2.5,0.7c3.2,1.6,5.7,4.2,7.2,7.4
								C651.4,348.8,651.5,349.9,651.3,350.9z"/>
							<path class="st4" d="M676.6,358.5c-1.4,7.3-5.1,10.9-12.2,12.8c-0.8,0.2-1.7,0-2.4-0.4c-4.2-1.9-7.4-4.2-9.7-8.3
								c-0.4-0.9-0.6-1.8-0.7-2.7c-0.2-0.9-0.3-1.8-0.3-2.7c-0.1-2.8,0.6-5.6,2-8c0.4-0.8,1-1.5,1.8-2.1c1.4-1.2,3.1-2,4.9-2.4
								c0.9-0.3,1.8-0.3,2.6-0.2c6.7,1.9,10.5,5.1,13.5,11.3C676.7,356.7,676.8,357.6,676.6,358.5z"/>
							<path class="st4" d="M652.2,370.3c-2.3,8.4-7.3,11.1-15.8,11.4c-0.9,0-1.7-0.3-2.4-0.8c-2.9-1.5-5.3-3.9-6.9-6.8
								c-0.5-0.7-0.7-1.6-0.8-2.4c0-7.8,3.2-12.1,10.4-15c1-0.3,2-0.3,3-0.1c1,0,1.9,0.3,2.8,0.6c0.9,0.3,1.8,0.7,2.7,1.2
								c3.2,2.3,5.6,5.5,6.9,9.3C652.4,368.5,652.5,369.4,652.2,370.3z"/>
							<path class="st4" d="M667.6,369c-0.1,1.7-0.4,3.3-1,4.9c-0.3,0.8-0.8,1.5-1.4,2.1c-0.6,0.6-1,1.6-1.7,1.9
								c-5.2,2-9.6,4.3-14.9,1.1c-6.9-4.1-8.6-10.6-6.1-18.2c0.4-1.1,1.3-2,2.3-2.6c4.1-2.5,9-3.2,13.6-2c1,0.2,1.9,0.6,2.7,1.2
								c3.5,2.3,5.1,5.1,6.2,9C667.5,367.1,667.6,368.1,667.6,369z"/>
							<path class="st4" d="M688.6,370.6c-2.5,8.9-7.5,12.2-16.7,11.8c-0.9-0.1-1.7-0.5-2.3-1.1c-2.1-1.6-3.6-3.8-4.3-6.4
								c-0.3-0.9-0.4-1.9-0.3-2.9c1.2-7.3,3.5-13.1,11.9-13.2c5.9-0.1,9.4,4.4,11.4,9.6C688.6,369,688.7,369.8,688.6,370.6z"/>
							<path class="st4" d="M687.4,387.9c-2.8,9.5-7.5,14.2-17.6,14.4c-1.1-0.1-2.1-0.6-2.8-1.4c-1.7-1.4-3.5-2.7-4-4.9
								c-1.7-6.5,0.1-11,5-15.5c0.7-0.6,1.5-1,2.4-1.1c4.1-1.1,8.4-0.8,12.3,0.9c0.7,0.3,1.4,0.8,1.9,1.4c1.3,1,2.2,2.4,2.6,4
								C687.5,386.4,687.5,387.2,687.4,387.9z"/>
							<path class="st4" d="M689.1,410.5c-0.1,2.9-0.8,5.8-1.8,8.5c-6.1,4.8-11,6-18.2,3c-0.6-0.2-0.9-0.9-1.4-1.4
								c-0.4-0.6-0.8-1.2-1.1-1.9c-0.4-0.8-0.7-1.7-0.9-2.5c-0.3-1.8-0.3-3.6,0-5.3c0.2-0.9,0.5-1.8,0.8-2.6
								c0.3-0.9,0.7-1.8,1.3-2.6c0.5-0.8,1.1-1.6,1.8-2.2c8-5,13.9-4.4,19.3,3.6C689.4,408.1,689.1,409.4,689.1,410.5z"/>
							<path class="st4" d="M665,386.2c-3.6,9.9-9.6,12.8-19.7,10c-0.8-0.2-1.2-0.9-1.8-1.4c-0.6-0.5-1.2-1-1.7-1.6
								c-0.6-0.7-1.1-1.5-1.5-2.4c-0.5-0.9-0.9-1.8-1-2.8c0-7.1,2.2-13,10-14.1s12.3,3.3,15.5,9.9
								C665.2,384.5,665.3,385.4,665,386.2z"/>
							<path class="st4" d="M679.8,385.2c-1.1,5.7-3.7,9.3-8.9,11.7c-0.9,0.4-1.9,0.7-2.9,0.6c-3.8-0.3-7.7,0.1-10.3-3.2
								c-5.3-6.7-3.9-12.8,2-18.5c0.9-0.7,1.9-1.1,3-1.2c1-0.4,2.1-0.6,3.1-0.6c6.6,0.6,10.6,3,13.7,9
								C679.9,383.7,680,384.4,679.8,385.2z"/>
							<path class="st4" d="M661.2,403.7c0,0.9-0.2,1.9-0.5,2.8c-0.2,0.9-0.5,1.8-1,2.6c-4.8,6.3-11.4,8.9-18.2,4s-6-11.5-2.3-18.1
								c0.5-0.9,1.4-1.5,2.5-1.8c9.1-2.8,14.9-0.5,19.3,8C661.4,402,661.1,402.8,661.2,403.7z"/>
							<path class="st4" d="M674.6,444.5c-2.4,8.9-7.5,11.3-16.3,9.6c-0.9-0.3-1.6-0.8-2.2-1.5c-0.8-0.5-1.4-1.2-1.8-2
								c-2.2-6.3-1.5-11,2.8-16.2c0.5-0.6,1.2-1.1,1.9-1.4c1.5-0.6,3.1-0.8,4.7-0.4c0.8,0.1,1.5,0.3,2.3,0.6
								c2.4,1.2,4.6,2.8,6.4,4.8c0.4,0.5,0.8,1.1,1.1,1.7c0.3,0.6,0.6,1.2,0.8,1.8C674.4,442.5,674.9,443.5,674.6,444.5z"/>
							<path class="st4" d="M682.1,430.2c-0.2,2.3-0.8,4.6-1.9,6.7c-0.3,0.7-0.8,1.3-1.5,1.8c-2.1,1.8-4.7,2.9-7.4,3.2
								c-0.7,0.1-1.3,0.1-2,0c-0.8-0.1-1.7-0.2-2.5-0.4c-2.8-0.8-4.4-2.6-6.5-4.5c-0.3-0.9-1-1.5-1.1-2.5
								c-0.7-6.1,0.8-10.3,5.5-14.3c0.8-0.6,1.7-1,2.7-1.2c7.2-1,11.1,1.5,14.1,7.9C682.1,427.9,682.2,429.1,682.1,430.2z"/>
							<path class="st4" d="M670.3,419.7c-0.1,0.8-0.5,1.6-0.7,2.4c-0.2,0.8-0.4,1.7-0.7,2.5c-0.5,1.6-1.2,3.1-2.3,4.4
								c-0.4,0.6-1,1-1.6,1.3c-6.1,1.9-10.6,1.2-16-2.4c-2.2-4.4-3.5-8.8-1.2-13.3s6-5.6,10.4-7c1-0.2,2-0.2,3,0.1
								c1.6,0.3,3.2,0.9,4.5,1.8c0.7,0.4,1.2,1,1.7,1.6c1.4,1.8,2.4,3.9,2.7,6.2C670.4,418.1,670.4,418.9,670.3,419.7z"/>
							<path class="st4" d="M675.8,404.6c-1,5.4-4.1,8.6-8.3,11.9c-0.7,0.5-1.5,0.8-2.3,0.9c-0.8,0.2-1.6,0.3-2.4,0.3
								c-4.3-0.5-6.9-2.5-9.8-5.6c-1-2.5-1.5-5.3-1.3-8c0-1.1,0.3-2.1,0.9-3c3.4-5.4,7.6-7.7,14-7.9c1.6,0,2.8,0.9,4.1,1.6
								c0.6,0.3,1.2,0.8,1.7,1.4c1.4,1.9,2.9,3.6,3.4,6C675.9,403,676,403.8,675.8,404.6z"/>
						</g>
					</g>
					<path class="st0" d="M245.8,523c0.6,0.8,1.2,2.2,0,2.7s-2.2-0.9-2.8-1.8s-1.2-2.2,0-2.7S245.3,522.2,245.8,523z"/>
					<path class="st1" d="M999.2,211.8c-4.3,1.1-8.7,1.2-13,0.5"/>
					<path class="st1" d="M995.3,205c-4.2,1.7-5.3,0.4-9.6-1"/>
					<path class="st9" d="M848.3,326.7c21.6,20.8,21.2,73.2,21.4,101.9s1.2,58.1-2.6,86.7c11.4-3,21.7-6.1,33.8-6.4
						s24.6,0.5,36.4-3.8c-0.3-49.1,0.4-198.8-71-198.4c-5.7,4.1-9.2,7.5-9.8,14.8C851.7,320.6,850,322.3,848.3,326.7z"/>
					<path class="st3" d="M856.6,321.6c20.4,19,29.1,45.3,34.5,72"/>
					<path class="st3" d="M859.8,312.2c7.5,0,12.9,2.7,18.8,7.2"/>
					<path class="st6" d="M881,299.3c0.2-2.3,0.1-4.7,0-7"/>
					<path class="st6" d="M883.1,281.2c-2.2-2.4-4.4-4.8-6.6-7.2"/>
					<path class="st6" d="M889,265.6c-2-3.2-4-6.4-6.1-9.6"/>
					<path class="st6" d="M892.6,247.4c-1-3.1-2-6.2-3.1-9.4"/>
					<path class="st6" d="M893.9,288.3c-0.7-3.2-1.5-6.3-2.2-9.5"/>
					<path class="st6" d="M894.3,268c0.9-2.8,1.8-5.7,2.7-8.5"/>
					<path class="st6" d="M901.9,301.5c1.2-4.7,2.3-9.5,3.3-14.2"/>
					<path class="st6" d="M917,281.4c0.8-2.8,1.7-5.6,2.4-8.5"/>
					<path class="st6" d="M906.2,274.6c0.9-2.7,1.7-5.3,2.5-8"/>
					<path class="st6" d="M916.5,260.1c-0.2-2.4-0.5-4.7-0.7-7.1"/>
					<path class="st6" d="M905.2,255.3c0.2-4.1,0.4-8.1,0.3-12.2"/>
					<path class="st6" d="M901.2,232.2c0.4-1.6,0.8-3.3,1.2-4.9"/>
					<path class="st6" d="M914.2,315.8c0.4,2.1,0.8,4.2,1.2,6.3"/>
					<path class="st6" d="M922.8,301.2c1.7-1.3,3.5-2.6,5.2-3.9"/>
					<path class="st6" d="M924.6,267.9c3.5-3.6,6.9-7.2,10.3-10.7"/>
					<path class="st4" d="M967.4,223.4c-5.4-13.2-4.5-24.4-0.4-37.9c6.5,1.6,12.8,4,18.8,7.1c-5,11-7.7,22.6-4.6,34.3L967.4,223.4z"
						/>
				</g>
			</g>
			<path class="st1" d="M302.7,347.7c2.5,10.1-11.2,11.4-20.1,5"/>
			<path class="st1" d="M304,294.9c0,0,8-4,12.5,4"/>
			<path class="st1" d="M285,288.9c0,0,8-4,12.5,4"/>
			
				<ellipse transform="matrix(0.4808 -0.8768 0.8768 0.4808 -121.1246 406.2344)" class="st6" cx="282.5" cy="305.4" rx="7.9" ry="3.5"/>
			
				<ellipse transform="matrix(0.4808 -0.8768 0.8768 0.4808 -116.6833 425.5835)" class="st6" cx="301" cy="311.3" rx="7.9" ry="3.5"/>
			<path class="st10" d="M284.6,300.5c0,0-2.2,0.1-4.9,7"/>
			<path class="st10" d="M303.4,305.9c0,0-2.2,0.1-4.9,7"/>
			<path class="st1" d="M1049.9,379.5c-5.5-3.6-5.4-14.2-5.4-14.2"/>
			<path d="M720.2,196.4c-0.5-3.5-1.2-6.9-2.1-10.3c-0.9-3.5-1.4-7.1-1.5-10.7c-0.1-3.9,1-7.7,3.1-10.9c1.1-1.5,2.4-2.9,3.9-4.1
				c1.3-1.1,2.6-2.2,3.7-3.4c2.1-2.1,3.2-5,3.1-8c-0.2-3.1-1.5-6.3-2.6-9.6c-1.3-3.4-2.1-6.9-2.5-10.5c-0.3-3.6,0.3-7.2,1.7-10.5
				c-0.6,3.4-0.6,6.9,0.2,10.2c0.8,3.3,2,6.5,3.5,9.6c0.7,1.6,1.4,3.2,2,4.9c0.7,1.8,1.2,3.6,1.4,5.5c0.2,2,0,4.1-0.7,6
				c-0.7,1.9-1.8,3.6-3.2,5.1c-2.7,2.8-5.7,4.5-7.5,7c-0.9,1.2-1.7,2.6-2.1,4.1c-0.5,1.5-0.8,3.1-0.9,4.8c-0.2,3.4-0.1,6.8,0.3,10.2
				C720.2,189.3,720.6,192.9,720.2,196.4z"/>
			<path d="M765.5,217.5c-1.1-0.4-2.1-0.9-3-1.7c-1-0.8-1.7-1.8-2.1-3c-0.4-1.2-0.6-2.5-0.4-3.8c0.1-1.2,0.4-2.4,0.9-3.6
				c0.9-2.2,2.1-4.2,3.6-6c0.7-0.9,1.5-1.8,2.2-2.6c0.4-0.4,0.8-0.8,1.2-1.2l1.1-1.1c1.4-1.4,2.6-3.1,3.6-4.8
				c0.9-1.7,1.4-3.6,1.5-5.5c0-2.1-0.3-4.1-0.9-6.1c-0.6-2.1-1.4-4.1-2.1-6.3c1.5,1.7,2.8,3.6,3.9,5.5c1.2,2.1,1.9,4.3,2.2,6.7
				c0.3,2.5-0.1,5-1.2,7.3c-1,2.2-2.4,4.2-4.1,5.9l-1.2,1.3l-1.1,1.1c-0.8,0.8-1.5,1.5-2.2,2.3c-1.4,1.5-2.6,3.2-3.7,5
				c-1.1,1.6-1.6,3.6-1.4,5.5C762.4,214.3,763.8,216,765.5,217.5z"/>
			<path d="M678.3,122.7c1.6,1.6,3,3.3,4.3,5.2c1.4,1.9,2.4,4,3.2,6.2c0.8,2.3,1.1,4.8,0.9,7.2c-0.1,1.2-0.4,2.4-0.8,3.6
				c-0.2,0.6-0.4,1.2-0.7,1.7c-0.3,0.6-0.6,1.2-1,1.8c-1.4,1.8-2.8,3.5-4.4,5.2c-0.7,0.7-1.3,1.5-1.8,2.4c-0.2,0.4-0.4,0.8-0.6,1.2
				c-0.1,0.4-0.2,0.8-0.2,1.3c0,2.2,0.1,4.3,0.4,6.4c0.1,1.1,0.2,2.2,0.2,3.3c0.1,1.1,0,2.3-0.2,3.4c-0.4-2.2-0.9-4.3-1.6-6.4
				c-0.7-2.2-1.2-4.4-1.5-6.7c-0.1-0.7,0-1.3,0.1-2c0.1-0.7,0.3-1.3,0.6-1.9c0.5-1.1,1.1-2.1,1.9-3.1c1.3-1.9,2.8-3.6,3.9-5.2
				c0.2-0.4,0.4-0.7,0.6-1.1c0.2-0.5,0.3-0.9,0.5-1.4c0.3-0.9,0.5-1.9,0.7-2.9c0.3-2,0.2-4-0.2-5.9c-0.4-2.1-1.1-4.1-1.9-6
				C680,126.8,679,124.8,678.3,122.7z"/>
		</g>
	</g>
</g>
</svg>
