<?xml version="1.0" encoding="utf-8"?>
<!-- Generator: Adobe Illustrator 22.0.1, SVG Export Plug-In . SVG Version: 6.00 Build 0)  -->
<svg version="1.1" id="Layer_1" xmlns="http://www.w3.org/2000/svg" xmlns:xlink="http://www.w3.org/1999/xlink" x="0px" y="0px"
	 width="1684px" height="1016px" viewBox="0 0 1684 1016" style="enable-background:new 0 0 1684 1016;" xml:space="preserve">
<style type="text/css">
	.st0{stroke:#000000;stroke-width:2.6;stroke-miterlimit:10;}
	.st1{fill:#FFFFFF;stroke:#000000;stroke-width:2.6;stroke-linecap:round;stroke-linejoin:round;}
	.st2{fill:#FFFFFF;stroke:#000000;stroke-width:2.6;stroke-miterlimit:10;}
	.st3{fill:none;stroke:#000000;stroke-width:2.6;stroke-miterlimit:10;}
	.st4{stroke:#000000;stroke-width:2.6;stroke-linecap:round;stroke-miterlimit:10;}
	.st5{fill:none;stroke:#FFFFFF;stroke-width:2;stroke-linecap:round;stroke-miterlimit:10;}
	.st6{fill:#FFFFFF;stroke:#000000;stroke-width:2.6;stroke-miterlimit:9.9998;}
	.st7{stroke:#000000;stroke-width:2.5998;stroke-linecap:round;stroke-linejoin:round;stroke-miterlimit:3.9998;}
	.st8{fill:none;stroke:#FFFFFF;stroke-width:2;stroke-linecap:round;stroke-linejoin:round;}
	.st9{fill:#FFFFFF;stroke:#000000;stroke-width:2.5998;stroke-linecap:round;stroke-linejoin:round;stroke-miterlimit:3.9998;}
	.st10{fill:none;stroke:#000000;stroke-width:2.6;stroke-linecap:round;stroke-linejoin:round;}
	.st11{fill:#FFFFFF;}
	.st12{stroke:#000000;stroke-width:2.5961;stroke-linecap:round;stroke-linejoin:round;stroke-miterlimit:3.994;}
	.st13{fill:#FFFFFF;stroke:#000000;stroke-width:2.6;stroke-linecap:round;stroke-miterlimit:10;}
	.st14{stroke:#000000;stroke-width:2.6;stroke-linecap:round;stroke-linejoin:round;}
	.st15{stroke:#000000;stroke-width:2.6002;stroke-linecap:round;stroke-linejoin:round;stroke-miterlimit:4.0004;}
	.st16{fill:none;stroke:#000000;stroke-width:2.6;stroke-linecap:round;stroke-miterlimit:10;}
	.st17{stroke:#FFFFFF;stroke-width:2.6;stroke-linecap:round;stroke-linejoin:round;}
	.st18{fill:none;stroke:#000000;stroke-width:6;stroke-linecap:round;stroke-linejoin:round;}
	.st19{stroke:#000000;stroke-width:2.5998;stroke-linecap:round;stroke-linejoin:round;stroke-miterlimit:3.9996;}
	.st20{fill:#387CDB;stroke:#000000;stroke-width:2.6;stroke-linecap:round;stroke-linejoin:round;}
	.st21{stroke:#000000;stroke-width:2.6002;stroke-linecap:round;stroke-linejoin:round;stroke-miterlimit:4.0002;}
	.st22{fill:none;stroke:#000000;stroke-width:6;stroke-linejoin:round;}
	.st23{fill:#FFFFFF;stroke:#000000;stroke-width:2.6;stroke-linejoin:round;}
	.st24{fill:none;stroke:#000000;stroke-width:2.6;stroke-linejoin:round;}
	.st25{stroke:#000000;stroke-width:2.5998;stroke-linejoin:round;stroke-miterlimit:3.9996;}
	.st26{stroke:#000000;stroke-width:2.6;stroke-linejoin:round;}
	.st27{fill:none;stroke:#000000;stroke-width:5;stroke-linecap:round;stroke-linejoin:round;}
	.st28{fill:#FFFFFF;stroke:#000000;stroke-width:2.6;stroke-linecap:round;stroke-linejoin:round;stroke-miterlimit:3.9998;}
</style>
<g>
	<g>
		<g id="Layer_2_1_">
			<g id="Layer_1-2">
				<g>
					<g>
						<g>
							<rect x="680.3" y="418.2" class="st0" width="276.8" height="132.5"/>
							<rect x="1002.3" y="368.4" class="st1" width="30.2" height="327.6"/>
							<rect x="639.4" y="368.1" class="st2" width="366.8" height="327.6"/>
							<line class="st3" x1="647.4" y1="483.9" x2="714.6" y2="368.4"/>
							<line class="st3" x1="715.2" y1="483.9" x2="782.4" y2="368.4"/>
							<line class="st3" x1="783" y1="483.9" x2="850.2" y2="368.4"/>
							<line class="st3" x1="850.8" y1="483.9" x2="918" y2="368.4"/>
							<line class="st3" x1="918.6" y1="483.9" x2="985.7" y2="368.4"/>
							<line class="st3" x1="641.7" y1="483.9" x2="1032.4" y2="483.9"/>
							<g>
								<path class="st2" d="M798.3,483.9c0-21.7,10-40.5,24.5-49.2c-4.5-2.1-9.4-3.3-14.5-3.3c-22.9,0-41.4,23.5-41.4,52.5
									s18.6,52.5,41.4,52.5c5.1,0,9.9-1.2,14.5-3.3C808.4,524.4,798.3,505.7,798.3,483.9z"/>
								<path class="st0" d="M849.9,483.9c0-22.6-11.2-41.7-26.9-49.2c-14.5,8.8-24.5,27.4-24.5,49.2c0,21.7,10,40.5,24.6,49.2
									C838.7,525.7,849.9,506.5,849.9,483.9z"/>
							</g>
							<g>
								<path class="st2" d="M913.4,483.9c0-12.7,6.1-23.6,14.9-28.1c-2.8-1.5-5.9-2.2-9-2.2c-13.2,0-24,13.6-24,30.4
									c0,16.8,10.7,30.3,24,30.3c3.2,0,6.3-0.8,9-2.2C919.5,507.6,913.4,496.7,913.4,483.9z"/>
								<ellipse class="st0" cx="928.3" cy="483.9" rx="14.9" ry="28.1"/>
							</g>
							<g>
								<path class="st2" d="M684.7,483.9c0-12.7,6.1-23.6,14.9-28.1c-2.8-1.5-5.9-2.2-9-2.2c-13.2,0-24,13.6-24,30.4
									c0,16.8,10.7,30.3,24,30.3c3.2,0,6.3-0.8,9-2.2C690.8,507.6,684.7,496.7,684.7,483.9z"/>
								<ellipse class="st0" cx="699.6" cy="483.9" rx="14.9" ry="28.1"/>
							</g>
							<rect x="1008.3" y="476.7" class="st2" width="23.8" height="15.3"/>
							<g>
								<path class="st2" d="M846.2,505.7c0,0-21.7-6.7-58.7,14.8c-33.6,19.6-71.3,16-72.7,2c39.7-26.7,20.7-93.3,23.4-104.4
									c2.7-11.1,17.5,23.7,17.5,23.7s11.7-0.5,18.5-1.8c-0.6-15.2-0.6-42.1,8.6-24.7c1.6,2.9,5.6,16.7,6.9,19.3
									c8.2,17.5,29,25.1,46.5,17c2.2-1.1,3.6-1.8,3.6-1.8S857.8,471.9,846.2,505.7z"/>
								<ellipse class="st0" cx="749.1" cy="480.6" rx="3.4" ry="7"/>
								<ellipse class="st0" cx="767.5" cy="480.6" rx="3.4" ry="7"/>
								<path class="st4" d="M757.2,483.2c0,7.2-4.2,8.7-4.2,8.7"/>
								<path class="st4" d="M776.2,483.2c0,7.2-4.2,8.7-4.2,8.7"/>
								<path class="st5" d="M748.8,475.8c0,0-1.8,0.7-1.2,7.3"/>
								<path class="st5" d="M767.2,475.4c0,0-1.8,0.7-1.2,7.3"/>
								<circle class="st0" cx="716.3" cy="520.5" r="5.4"/>
							</g>
							<path class="st0" d="M1032.5,403.9c0,0,55.3,4.7,57.5,69.7s-57.7,114-57.7,114L1032.5,403.9z"/>
							<path class="st2" d="M1092.5,635.3c0,0,11.5-0.4,3.3,18.1c-7.6,17.4-26.4,15.6-33.3,26.4c-5.5,8.6,0,16,20.1,16
								c22.5,0,30.4,0.1,43.3-18.9c27-40,14.7-95.2-11.2-98.8c-16.1-2.2-22.2,18.7-22.2,18.7l-9,2.7"/>
							
								<ellipse transform="matrix(0.9756 -0.2195 0.2195 0.9756 -108.6368 254.4351)" class="st6" cx="1090.7" cy="616.1" rx="12.5" ry="25.5"/>
							<path class="st0" d="M1032.4,598.7c0,0,36.2-13.4,45.8-8.1c9.6,5.3,18.9,52.2,11.9,56.5c-7,4.3-57.7,17.3-57.7,17.3
								L1032.4,598.7L1032.4,598.7z"/>
							<path class="st2" d="M795.9,485.8c10-1.7,10.2,11.8,3.2,19.9c-6.5,7.6-13.6,7.1-15.6,3.5c-3.1-5.8,2.9-8.1,5.4-12.5
								C790.7,493.4,791.3,486.5,795.9,485.8z"/>
							<path class="st2" d="M894.8,480.6c0,0-24.1,7.4-29.5,15.2c-5.3,7.8,16.1,3.2,16.1,3.2"/>
							<path class="st2" d="M938.6,495.8c0,0-3.9-1.5-10.2,7.7c-6.1,8.9,0.4,29.2,1.5,36c1.3,7.8-8,7.6-8,7.6s-0.9,5.4-3.8,7.4
								c-2.7,1.8-7.6,2.8-13.4-1.8c-1.5,1.8-9.4,3.1-12.7-5.6c-11.5,0-11.5-16-11.5-38.8c0-22.9,19.5-31.9,29.5-34.5
								c18-4.8,26.7,1.8,26.7,1.8C945.6,483.9,938.6,495.8,938.6,495.8z"/>
							<path class="st2" d="M921.8,547.1c0,0-9.3,0.9-9.3-29.3"/>
							<path class="st2" d="M904.6,552.6c-4.6-10-5.1-34.8-5.1-34.8"/>
							<path class="st2" d="M891.9,547.1c0,0-3.7-19.8-2.4-29.3"/>
							<path class="st2" d="M1030.2,476.7c3.3,0,6,3.4,6,7.7c0,4.3-2.7,7.7-6,7.7"/>
							<path class="st2" d="M1024.6,476.7c3.3,0,6,3.4,6,7.7c0,4.3-2.7,7.7-6,7.7"/>
							<path class="st2" d="M1015,476.7c3.3,0,6,3.4,6,7.7c0,4.3-2.7,7.7-6,7.7"/>
							<g>
								<path class="st2" d="M570.9,465.2c0,0-20.2-2.8-35.4,7.5c-15.3,10.2-26.5,57.8-12.7,100.9c13.7,43.1,84.4,21,84.4,21
									s50.4,23.2,61.9-3.8c-25-6.1-67.2-8.4-67.2-8.4s-51.3,10.6-60.7-12.4c-16.4-40.1,5.2-68.7,10.2-71.6
									c7.9-4.6,29.6-0.5,88,23.6l-0.2-90.9c-46-20.2-63.1,26.1-63.1,26.1"/>
								<path class="st2" d="M541.6,416.7c0,0,9.2,34.2,23.1,46.4c13.8,12.2,12.8-6.7,12.8-6.7s-16.5-7-16.4-30.3"/>
								<path class="st2" d="M538.3,378.2c-2.5,31.3,5.9,59.6,21.6,60.9c15.7,1.3,32.5-25,35-56.2s-9.3-41.6-25-42.9
									C554.3,338.7,540.9,347,538.3,378.2z"/>
								
									<ellipse transform="matrix(1.256598e-02 -0.9999 0.9999 1.256598e-02 201.9086 968.3902)" class="st7" cx="591.3" cy="382" rx="11.4" ry="7.9"/>
								
									<ellipse transform="matrix(1.256684e-02 -0.9999 0.9999 1.256684e-02 182.1165 944.6608)" class="st7" cx="569.4" cy="380.1" rx="11.4" ry="7.9"/>
								<polyline class="st8" points="563.3,383.4 570.4,376.6 570.4,383.4 576.3,378.4 								"/>
								<polyline class="st8" points="584.9,384.5 592.3,377.4 592.3,384.2 597.8,379.5 								"/>
								<path class="st2" d="M579.5,399.3c5,7.8,11.3,12.6,14,10.9s0.9-9.4-4.1-17.2c-5-7.8-10.1-10.2-12.8-8.4
									C573.8,386.4,574.5,391.6,579.5,399.3z"/>
								
									<ellipse transform="matrix(0.1082 -0.9941 0.9941 0.1082 153.0288 886.6448)" class="st9" cx="570.7" cy="358" rx="13.3" ry="85.8"/>
								<path class="st1" d="M601,359.8c0,0-9,4.7-35,1.3c-20.3-2.7-25.8-8.6-25.8-8.6c2-16.8,15-29.1,31.8-29.3
									C592.3,323,603.1,343,601,359.8z"/>
								<path class="st10" d="M551.5,398.9c9,7.4,21.2,9.9,32.5,6.6"/>
							</g>
							<path class="st2" d="M611,559.4l2.6,23.3c0,0,10.7,11.5,38.8,17.5c30.5,6.5,44.1,1,44.1,1l11.8-21.6L611,559.4z"/>
							<path class="st2" d="M610.8,565.5c-20.6-13.7,13.9-17.5,13.9-17.5c-0.8-4.7,2.4-9.1,7.1-9.9c0.1,0,0.2,0,0.2,0
								c8.8-1.8,12.4,4.3,21.2,1.3s24.3-3.4,26.6,5.3s9.7,4.9,15.1,7.8c5.3,2.9,12.1,14,12.1,14s23.8,15.2,1.9,19.7
								C696.4,602.1,615.1,582.7,610.8,565.5z"/>
							<path class="st11" d="M1079.6,508.1c0.6-10.1,1.2-19.9,0.7-29.7l-0.3-3.6c0-0.6,0-1.2-0.1-1.8l-0.2-1.8l-0.4-3.6l-0.6-3.5
								c-0.8-4.7-1.8-9.2-3.4-13.7c-2.9-8.9-7.7-17.1-13.9-24.1c-6.6-7.2-14.5-13-23.2-17.2h-0.1c-0.1-0.1-0.2-0.2-0.1-0.3l0,0
								c0-0.1,0.2-0.2,0.3-0.1c14.7,4.2,27.2,13.7,35.3,26.7c2.6,4.3,4.8,8.9,6.4,13.6c0.4,1.2,0.9,2.3,1.2,3.6l1,3.7
								c0.3,1.3,0.5,2.4,0.7,3.7l0.4,1.8c0.1,0.6,0.2,1.3,0.2,1.8l0.5,3.7l0.2,3.8c0.2,2.5,0.1,5.1,0.1,7.5
								c-0.3,10-1.7,19.9-4.1,29.7c0,0.1-0.2,0.2-0.3,0.2C1079.7,508.4,1079.7,508.3,1079.6,508.1L1079.6,508.1z"/>
							
								<ellipse transform="matrix(0.1302 -0.9915 0.9915 0.1302 36.0182 1131.5917)" class="st12" cx="663" cy="545.3" rx="6" ry="7.2"/>
							<g>
								<path class="st2" d="M703.3,391.1L703.3,391.1c-1.1,0-2.2-0.3-3.2-0.8c-1-0.5-1.8-1.3-2.5-2.1c-0.7-0.9-1.1-1.9-1.3-3
									c-0.2-1.7-0.3-3.1-0.5-4.6c-0.2-1.5-0.2-2.7-0.2-4s-0.1-2.5-0.1-3.7s0-2.4,0-3.7s0.1-2.6,0.2-4c0.1-1.4,0.2-2.9,0.4-4.6
									c0.1-1.1,0.6-2.1,1.2-3c0.7-0.9,1.6-1.7,2.5-2.1c1-0.5,2-0.8,3.2-0.8l0,0c2.2-0.1,4.4,0.7,6,2.2c-0.4,1.3-0.6,2.5-0.8,3.8
									c-0.2,1.7-0.3,3.1-0.4,4.6c-0.1,1.5-0.2,2.7-0.2,4c0,1.3-0.1,2.5-0.1,3.7c0,1.2,0,2.4,0.1,3.7c0.1,1.3,0.1,2.6,0.2,4
									c0.1,1.4,0.2,2.9,0.5,4.6c0.2,1.6-0.2,3.1-1.2,4.3C706.3,390.4,704.8,391.1,703.3,391.1z"/>
								<path class="st2" d="M716.1,392.9L716.1,392.9c-1.2,0-2.3-0.3-3.4-0.9s-1.9-1.4-2.7-2.2c-0.7-1-1.2-2-1.4-3.2
									c-0.2-1.8-0.4-3.6-0.6-5.2c-0.2-1.6-0.2-3.1-0.3-4.6c-0.1-1.5-0.1-2.8-0.1-4.2c0-1.4,0-2.8,0.1-4.2c0.1-1.4,0.2-2.9,0.3-4.6
									c0.1-1.7,0.3-3.3,0.6-5.2c0.2-1.2,0.7-2.2,1.4-3.2c0.7-1,1.7-1.8,2.7-2.2c1.1-0.6,2.2-0.9,3.4-0.9l0,0
									c4.5,0,7.2,1.1,8.2,2.2c0,0-2.6,2.4-2.8,4.2c-0.2,1.8-0.4,3.5-0.6,5.2c-0.2,1.7-0.2,3.1-0.3,4.6c-0.1,1.5-0.1,2.8-0.1,4.2
									s0,2.8,0.1,4.2c0.1,1.4,0.2,2.9,0.3,4.6c0.1,1.7,0.3,3.3,0.6,5.2c0.3,1.6-0.2,3.2-1.2,4.5
									C719.2,392.2,717.7,392.9,716.1,392.9z"/>
								<path class="st2" d="M728.8,392.9L728.8,392.9c-1.2,0-2.3-0.3-3.3-0.9c-1.1-0.6-1.9-1.4-2.6-2.2c-0.7-1-1.2-2-1.4-3.2
									c-0.2-1.8-0.4-3.5-0.6-5.1c-0.2-1.6-0.2-3-0.3-4.5c-0.1-1.5-0.1-2.8-0.1-4.2c0-1.4,0-2.7,0.1-4.2c0.1-1.5,0.1-2.9,0.3-4.5
									c0.2-1.6,0.3-3.2,0.5-5.1c0.2-1.2,0.6-2.2,1.3-3.2c0.7-1,1.7-1.7,2.6-2.2c1.1-0.6,2.1-0.9,3.3-0.9l0,0c6.5,0,8,2.6,8.9,3.8
									c-2.5,1.7-4,4.5-4.1,7.5c0,1.6-0.2,3-0.3,4.5c-0.1,1.5-0.1,2.8-0.1,4.2s0,2.7,0.1,4.2c0.1,1.5,0.2,2.9,0.3,4.5
									c0.1,1.6,0.3,3.2,0.6,5.1c0.3,1.6-0.2,3.2-1.2,4.5C731.9,392.2,730.4,392.9,728.8,392.9z"/>
								<path class="st2" d="M740.1,391.1L740.1,391.1c-1.5,0-2.9-0.6-4.1-1.6c-1.2-1-1.9-2.3-2.1-3.8c-0.2-1.8-0.4-3.6-0.5-5.2
									c-0.1-1.6-0.2-3-0.2-4.5c0-1.5-0.1-2.8,0-4.3s0-2.9,0.1-4.5c0.1-1.6,0.2-3.3,0.4-5.2c0.2-1.5,0.9-2.8,2-3.8
									c1.1-1,2.5-1.6,4-1.6l0,0c6,0,11.4,5.1,12.3,11.6h-8.2c-0.1,1.6,0.4,10.7,0.5,12.3c0.1,1.6,0.3,3.3,0.5,5.2
									c0.2,1.4-0.2,2.7-1.1,3.8C742.9,390.5,741.6,391.1,740.1,391.1z"/>
							</g>
							<path class="st2" d="M695.4,365.4c0,0-9.6-14.1-15.7-8.8c-4.8,4.3,2.4,11.8,2.4,11.8h13.1L695.4,365.4L695.4,365.4z"/>
							<path class="st2" d="M603.7,597c38.1,26.7,69.6,6.4,69.6,6.4c-38.6-2.8-54.2-20.4-54.2-20.4s10.3-20.8,6.9-24.2
								c-6.4-6.6-25.4,23.2-25.4,23.2l-12.4-0.2l1.5,17.6L603.7,597z"/>
							<path d="M681,565.7c-0.8-0.7-1.6-1.3-2.4-1.8c-0.5-0.3-1.1-0.1-1.4,0.4c-0.1,0.2-0.1,0.3-0.1,0.5c0.1,1.2,0.6,2.2,1.5,3
								c0.3,0.7,1,1.2,1.7,1.4c0.9,0.2,1.8-0.3,1.9-1.2C682.3,567.1,681.8,566.2,681,565.7z"/>
							<path d="M648.7,566.3c-1.5,0.1-2.9,0.5-4.2,1.3c-0.3,0.1-0.5,0.4-0.5,0.7c-0.4,1,0.1,2.1,1.1,2.5c0,0,0,0,0.1,0
								c0.8,0.2,1.6,0,2.2-0.5c0.8-0.6,1.1-1.7,1.8-2.1C650.1,567.7,649.8,566.2,648.7,566.3z"/>
							<path d="M697.8,574.8l-2.4-1.2c-0.5-0.3-1.1-0.1-1.4,0.4c-0.2,0.3-0.2,0.7,0,1c-0.2,0.5-0.1,1,0.4,1.3c1,0.6,2,0.8,3.1,0.5
								c0.5-0.2,0.8-0.7,0.7-1.2C698.2,575.2,698,575,697.8,574.8z"/>
							<path d="M644.2,548.4h-2.6h-0.1h-0.9c-0.6-0.1-1.1,0.3-1.1,0.9c0,0.6,0.3,1.1,0.9,1.1c1.1,0.3,2.2,0.4,3.3,0.3
								c0.3,0,0.5-0.2,0.7-0.4c0.5-0.1,0.8-0.7,0.7-1.2C644.9,548.7,644.6,548.4,644.2,548.4z"/>
							<path d="M666.4,564c-0.3-0.4-0.8-0.6-1.3-0.4c-0.3,0-0.6,0.1-0.8,0.3c-0.7,0.6-1.1,1.5-1.2,2.3c0,1,0.8,1.8,1.8,1.8
								c0.8,0,1.5-0.5,1.8-1.2C667.1,565.9,667,564.9,666.4,564z"/>
							<path d="M691.2,557.5h-1.8c-0.6,0-1,0.4-1,1c0,0.6,0.4,1,1,1h1.8c0.6,0,1-0.4,1-1C692.2,557.8,691.8,557.5,691.2,557.5z"/>
							<path d="M634.1,557.4l-1.3,0.2c-0.6,0-1,0.4-1,1c0,0.6,0.4,1,1,1h0.5h0.2l0.7-0.1c0.6,0,1-0.4,1-1S634.8,557.5,634.1,557.4
								C634.2,557.4,634.2,557.4,634.1,557.4z"/>
							<path d="M678.9,575.5c-0.6,0-1,0.4-1,1c0,0.3,0.2,0.7,0.5,0.8c0.1,0.5,0.6,0.9,1.2,0.8c0.4-0.1,0.7-0.3,0.8-0.7
								c0.2-0.8-0.3-1.7-1.1-1.8C679.1,575.5,679,575.5,678.9,575.5z"/>
							<path class="st2" d="M584.5,577.7L584.5,577.7c1.9-0.2,3.8,1.2,4,3.2l2.2,19c0.2,1.9-1.2,3.8-3.2,4l0,0
								c-1.9,0.2-3.8-1.2-4-3.2l-2.2-19C581.1,579.7,582.5,577.9,584.5,577.7z"/>
							<g>
								<path class="st2" d="M692.7,500.6c-3.2-1.6-14.6-2-25.6-0.2c-11,1.8-32.7,0.3-37.9-9.4c-1.5-2.7-1-10.9-1-10.9
									c-2.1-3.6-1.8-8.2,0.8-11.4c-1.8-5-0.6-10.4,3.3-14c-0.5-4.9,0.5-8.5,4.9-11.3c10.4-6.6,31.6,6.5,31.6,6.5
									c-0.8-5.1-1.2-10.1-1.3-15.2c0-9.8,6.3-16.4,10.8-1.5c4.2,14.3,10,25.8,21.4,29c0,0,5.2,1.5,3.4,18.5
									S692.7,500.6,692.7,500.6z"/>
								<path class="st1" d="M656.6,444c21.3,9.5,17.5,19.4,11.1,17.7c-8.6-5.8-26.4-6.7-26.4-6.7s36.2-0.1,31.9,20.4
									c-2,9.9-6.7-11.6-35.9-8.3c26.6-2.5,32.6,12,33.5,18.1c1.5,10.3-28.2-5.3-33.8-4.3"/>
							</g>
							<ellipse class="st2" cx="1008.3" cy="484.3" rx="6" ry="7.7"/>
							<ellipse class="st2" cx="1008.3" cy="484.3" rx="1.8" ry="2.3"/>
							<path class="st2" d="M1087.6,664c0,0,9.6-2,18.3,3.3"/>
							<path class="st2" d="M1095.8,653.5c0,0,10.4-3.2,17.9,2.3"/>
							<path class="st2" d="M1098.7,643.5c6.5-2.4,13.7-2.4,20.2,0"/>
							<path class="st13" d="M634.3,481.3c0,0,11.7-5.7,22.8,1.3c17.5,11.1,2.1,19.8-10.6,7.4l-5.3,1.9"/>
							<path d="M565.4,492.2c3.3,0.1,6.5,0.5,9.7,1.2c1.6,0.3,3.2,0.6,4.8,1c1.6,0.4,3.2,0.7,4.8,1.1c6.3,1.6,12.5,3.4,18.8,5.3
								c3.1,1,6.2,2,9.2,3.1c3,1.1,6.1,2.1,9.2,3.3c3.1,1.2,6.1,2.2,9.1,3.5l9,3.6l-1.6,3.6l-8.9-4.1c-2.9-1.4-5.9-2.6-8.9-3.9
								c-3-1.3-6-2.5-8.9-3.8s-6-2.4-9-3.6c-6-2.3-12.2-4.4-18.4-6.3c-1.6-0.5-3.1-1-4.7-1.4c-1.6-0.4-3.1-0.8-4.8-1.2
								C571.9,493,568.7,492.5,565.4,492.2z"/>
						</g>
						<line class="st3" x1="122.2" y1="877.1" x2="1569.1" y2="877.1"/>
						<g>
							<rect x="352.9" y="710.7" class="st2" width="1069.2" height="166.3"/>
							<g>
								<rect x="1211.3" y="738.5" class="st2" width="169.3" height="14.9"/>
								<rect x="1237.9" y="782.4" class="st2" width="169.3" height="14.9"/>
								<rect x="1264.5" y="826.4" class="st2" width="169.3" height="14.9"/>
							</g>
							<g>
								<rect x="1270.3" y="738.5" class="st1" width="169.3" height="14.9"/>
								<rect x="1296.9" y="782.4" class="st1" width="169.3" height="14.9"/>
								<rect x="1323.5" y="826.4" class="st1" width="169.3" height="14.9"/>
							</g>
							<g>
								<rect x="294.2" y="695.9" class="st2" width="1216.6" height="14.8"/>
								<rect x="1207.9" y="695.8" class="st1" width="302.7" height="14.9"/>
							</g>
						</g>
						<g>
							<polygon class="st11" points="1175.4,601.6 1147.7,574.2 1161.6,532.8 1213.2,491 1360.3,524.6 1354.9,586.6 							"/>
							<path class="st14" d="M1362.5,564.1c5.2,54.1,8.4,119.9,11.7,174.1l-78.1,0.1c-23-0.3,11.1-27.6,24.6-20.7
								c-3.2-30.7-17.8-69.6-20.7-100.5c-14.1,0-62.6-4.9-61.6,9.2c1.9,26.2,6.1,41.6,5.9,69.1l-68.2,0.1
								c-30.7,0,5.9-27.2,19.7-20.4c-10.6-27-9.2-35.1-9.2-35.1"/>
							<path class="st2" d="M1332.6,571.3c3.9,11.6,3.9,34.1,3.9,34.1l31.6-0.6l1,11.9l-31.8,1.2c0,0,0.4,45.3,9.4,70.6
								c-102.5-1.2-102.9-57.6-159.8-40.5c-14.9-29.9-20.4-72.3,16-75.6"/>
							<path class="st0" d="M1242.9,558.5c1.5,2.9,2.8,5.2,4.3,8.6c14,11.8,41.4,31.5,45.7,46.5s25.7,9.1,28.4-1.2
								c-28.4-26.8-48.8-45-68-63.9C1256.7,551.9,1246.4,555.2,1242.9,558.5z"/>
							<path class="st2" d="M1182.2,504.6c-26.6,16.2-52.6,63.3-33.5,90.3c15.2,21.4,37.9,25.8,51.9,17c9.4-5.8,3-9.1,6.2-14.1
								c2.6-3.1,3.7-7.2,3.1-11.2c-0.6-2.7-3.1-7.3-6.2-8.1c0.1-4.9,2.6-4.8-2.4-10.4c-2.5-2.8-16.7-4.4-21.7-0.4
								c-2.1-3.4,0.6-4.3-2.4-7.9c-3-3.6-17.8,4.9-17.9,9"/>
							<path class="st2" d="M1324,525.1l15.4,14.3c-22,0-43.5,15.9-54.3,16.3c-8.6-7.2-15.6-7.2-27.7-2.9c0,0,4.9,4.2,8.5,7.3
								c-6.4,4.7-10,18.7-19.5,9.2c-1.5,3.6-2,7.5-1.8,11.4c0.2,2.4,2.2,3.1,2.8,5.3s-0.2,5.6,0.7,7.1c1.8,3.1,4.2,6,6.7,8.6
								c1.8,1.8,5.3,2.3,8.1,3.9c2,1.1,3.2,3.2,5.9,4.2c9.8,3.5,19.7-4.2,32.2-5.4c35.8-3.8,93.3-6.2,101.9-59.5
								c9.7-59.6-84.2-82.5-106.2-79.9c-55,6.6-82.4,10.9-114.6,39.7"/>
							
								<ellipse transform="matrix(0.9756 -0.2195 0.2195 0.9756 -95.6841 273.5512)" class="st6" cx="1183.2" cy="567.4" rx="14.5" ry="7.5"/>
							<path class="st2" d="M1216.8,570.6c15.9-10.1,40.7-17.9,40.7-17.9l-145.3-141.2c7,33.6,20.7,66.6,42.8,91.9
								C1175.4,527,1194.1,546.7,1216.8,570.6z"/>
							<path class="st2" d="M1187.7,564.9l-41.2-159.7l-4.3,1.2l35.3,162.1C1181.7,568.5,1185.7,567.3,1187.7,564.9z"/>
							<path class="st1" d="M1305.4,467.2c-6.2-27-19.4-80-19.4-80c15.6-5.1,26.7-14.3,21.4-31.8c-3.7-12.5-17.8-16-29.7-10.5
								c-1.8-10-8.7-17-19.4-17c-21.2,0-30.5,19.8-30.5,19.8c-17-8.3-31.7-5.7-39.7,4.7c-6.3,8.2-1.2,21.5,6,27.4
								c-12.9,8.6-19.6,19.4-12.2,29.3c8.7,11.6,25.7,4.7,25.7,4.7c4.2,23.1,15.4,71.7,15.4,71.7
								C1240.8,506.1,1282,483.5,1305.4,467.2z"/>
							<path class="st3" d="M1332.9,470.1c-26.6,8.9-30.5,46-11.1,71.9"/>
							<path class="st2" d="M1323.6,467.6c-19.6,5.5-29.9,24.3-30.2,46c-21.7,7.6-50.5,10.5-69.8,6.3"/>
							<path class="st2" d="M1221.8,482.7c-5.5,6.3-10.2,17.4-11,25.7"/>
							<path class="st14" d="M1231.2,434.3c1,4.6,2.6,13.1-3.6,14.3c-6.2,1.2-8-7.5-8.9-12.1c-1-4.6-2.6-13.1,3.6-14.2
								S1230.2,429.7,1231.2,434.3z"/>
							<path class="st14" d="M1249.5,430.1c1,4.6,2.6,13.4-3.7,14.4c-6.3,1-8-7.6-8.9-12.2c-1-4.6-2.7-13.2,3.6-14.4
								C1246.8,416.8,1248.7,425.6,1249.5,430.1z"/>
							<path class="st1" d="M1265.6,460.6c1.2-1.2,2-2.6,2.7-4.1c1.8-4.2,1.7-8-2.1-10.7c-4.2-3-8-1.3-11.6,2.3
								c-2.5,2.6-5.2,4.9-9.4,5.9c-3.4,0.9-7.7,2.5-8.2,6.9s2.6,8.6,6.6,9C1253.1,471.1,1259.9,466.9,1265.6,460.6z"/>
							<path class="st1" d="M1237.2,463.3c13.1,0,24.2-3.8,29.7-16.5c-1.6-0.8-3-1.7-4.6-2.4c1,1.8,1.9,3.5,2.9,5.3l3.9,3.7
								c-0.4-1.8-0.8-3.6-1.3-5.3"/>
							<path class="st2" d="M1374.1,488.8c0,0-26.5-0.3-42.8,43.1"/>
							<path class="st3" d="M1213.2,483.4c0,0-7.5,8.9-10.3,17.1"/>
							<path class="st3" d="M1195.9,562.6c2.8-2.4,4.5-5.9,4.7-9.6"/>
							<g>
								<path class="st1" d="M1327.7,571.9c0,0,10.4-8.3,4.6-15.2c-5.8-6.9-20,12.2-24,24C1333.7,592.8,1359.4,569.4,1327.7,571.9z"
									/>
								<line class="st10" x1="1318.8" y1="574.2" x2="1305" y2="568.1"/>
								<line class="st10" x1="1335" y1="582.7" x2="1344.6" y2="586.8"/>
							</g>
							<path class="st11" d="M1195.9,679.1c-3.1,0.8-5.6,1.4-8,2c-2.2,0.7-4.4,1.5-6.5,2.4c-2.1,0.9-4.3,1.9-6.6,3
								c-2.3,1.1-4.8,2.2-7.8,3.4h-0.1c-0.1,0-0.3,0-0.3-0.1l0,0c0-0.1,0-0.1,0-0.2c1.7-2.3,3.6-4.4,5.7-6.1
								c2.1-1.8,4.6-3.3,7.2-4.5c2.6-1.1,5.4-1.8,8.3-1.8c2.8-0.1,5.6,0.4,8.3,1.4c0.1,0,0.2,0.2,0.1,0.3l0,0
								C1196.1,679,1196,679,1195.9,679.1L1195.9,679.1z"/>
							<path class="st11" d="M1322,722.1c-3.1,0.8-5.6,1.4-8,2c-2.3,0.7-4.4,1.5-6.5,2.4c-2.1,1-4.3,1.9-6.6,3s-4.8,2.2-7.8,3.4
								l-0.1,0.1c-0.1,0-0.3,0-0.3-0.1s0-0.1,0-0.2c1.7-2.3,3.6-4.4,5.7-6.1c2.1-1.8,4.6-3.3,7.2-4.5c2.6-1.1,5.4-1.8,8.3-1.8
								c2.8-0.1,5.6,0.4,8.3,1.4c0.1,0,0.2,0.2,0.1,0.3l0,0C1322.3,722.1,1322.2,722.1,1322,722.1L1322,722.1z"/>
							<path class="st11" d="M1369.9,732.9c-2.2-9.1-3.9-18.4-5-27.7c-1.2-9.2-2.1-18.6-2.7-27.9c-0.6-9.3-0.9-18.7-0.9-28
								c-0.1-9.4,0.4-18.9,1.5-28.2l0,0c0-0.1,0.1-0.2,0.3-0.2l0,0c0.1,0,0.2,0.1,0.2,0.2l1,14l1,14l1.8,28l1.8,28l0.9,14l0.8,14
								c0,0.1-0.1,0.3-0.2,0.3l0,0C1370.1,733.1,1370,733,1369.9,732.9L1369.9,732.9z"/>
							
								<ellipse transform="matrix(0.9297 -0.3683 0.3683 0.9297 -133.7866 523.6699)" class="st6" cx="1305" cy="612.3" rx="4.8" ry="4.2"/>
							<path d="M1282.3,391.1l9,37.4l8.7,37.4l-0.4,0.1c-2.7-5.8-5.1-12-7-18.1c-1.1-3-1.8-6.1-2.7-9.2c-0.9-3.1-1.7-6.2-2.4-9.3
								s-1.4-6.2-2-9.4c-0.7-3.2-1.3-6.3-1.7-9.5c-1.1-6.4-1.8-12.8-1.9-19.4H1282.3z"/>
						</g>
					</g>
					<g>
						<g>
							<path class="st1" d="M1575.4,524c0,0,8.9-6.2,13.1,1.6c4.2,7.8-7.4,15.9-12.5,16.4"/>
							<ellipse cx="1422.2" cy="947.7" rx="99.2" ry="6.6"/>
							<path class="st1" d="M1402.1,909c2.5,10.1,5.2,38.9,5.2,38.9h5.9v-9"/>
							<path class="st14" d="M1462.7,667.3c-0.9,0-1.8-0.1-2.7-0.2c-13.6-1.5-25.5-11.2-21.4-24.3c12.9-41.7,7.7-61.2-0.5-65.9
								l62.3,22.4l0.1-0.1c-7.7,14.6-12.6,30.4-14.5,46.9C1484.6,658.7,1475.1,667.3,1462.7,667.3z"/>
							<path d="M1448.2,519.6c-0.7,0.8-1.4,1.6-2.1,2.2c-0.8,0.7-1.5,1.3-2.3,1.8c-1.6,1.1-3.1,2-4.8,2.8c-1.6,0.8-3.2,1.5-5,2
								l-5,1.8c-3.3,1.2-6.6,2.3-9.9,3.6c-3.3,1.3-6.5,2.4-9.6,3.7c-3.1,1.3-6.1,2.6-9,4.2c-2.7,1.5-5.3,3.1-7.6,5.2
								c-1.9,1.6-3.5,3.5-4.6,5.6l-0.3,0.7l-0.2,0.6c-0.1,0.3-0.1,0.6-0.2,0.9c0,0.1,0.1,0,0-0.4c-0.1-0.6-0.3-1.1-0.6-1.6
								c-0.2-0.4-0.5-0.7-0.8-1c-0.1-0.1,0,0,0.3,0c1,0.3,1.9,0.5,3,0.6c3.1,0.3,6.3,0.5,9.4,0.3c3.4-0.1,7-0.3,10.7-0.5l11.3-0.8
								c7.7-0.4,15.7-1,24.7-0.2c5.2,0.4,10.2,1.6,15,3.5c3.1,1.3,6,3.1,8.7,5.3c3,2.6,5.5,5.8,7.3,9.4c3.2,8.1-0.7,17.3-8.9,20.5
								c-7.9,3.1-16.7-0.5-20.2-8.2c0.3,0.2,0.7,0.5,0.9,0.4c0.2-0.1,0-0.5-0.6-0.9c-1.9-1.3-4.2-2.1-6.4-2.6
								c-3.1-0.7-6.3-1.3-9.4-1.6c-3.4-0.4-6.9-0.6-10.5-0.7l-11.1-0.3c-3.8-0.1-7.7-0.1-11.7-0.4c-4.3-0.2-8.7-0.7-12.8-1.5
								c-2.6-0.5-5.3-1.3-7.8-2.3c-1.7-0.7-3.2-1.7-4.6-2.7c-1.8-1.4-3.4-3-4.6-5c-1.3-2-2.1-4.4-2.5-6.8c-0.3-1.9-0.3-4,0-6
								c0.3-1.6,0.7-3.1,1.2-4.6c0.2-0.7,0.5-1.4,0.8-2s0.6-1.3,0.9-1.9c2.3-4.5,5.4-8.5,9.1-11.9c3.2-3,6.6-5.8,10.2-8.4
								c3.4-2.4,6.9-4.6,10.6-6.6c7-3.9,14.4-7,22-9.4c1.8-0.6,3.8-1.2,5.6-1.7c1.8-0.6,3.8-1,5.7-1.2c2-0.2,4-0.3,6-0.1
								c1.1,0.1,2.1,0.2,3.1,0.5c1.2,0.2,2.2,0.5,3.3,1c4.4,1.6,6.7,6.3,5.3,10.8c-0.3,0.8-0.7,1.6-1.2,2.3L1448.2,519.6z"/>
							<path d="M1568.4,562c1.1,1.6,1.8,3.3,2.4,5.1c0.5,1.7,0.8,3.3,1,5c0.2,1.7,0.2,3.2,0,4.9c-0.1,1.7-0.3,3.2-0.5,4.9
								c-0.8,6.4-1.9,12.8-3.5,19.2c-1.6,6.4-3.4,12.7-5.6,19.5c-0.6,1.8-1.2,3.4-1.9,5.3c-0.9,2.1-1.8,4.2-3.1,6.1l-0.6,0.9
								l-0.6,0.8c-0.4,0.5-0.9,1.1-1.4,1.7c-0.6,0.6-1.2,1.2-1.8,1.8c-0.8,0.7-1.7,1.3-2.6,1.8c-1.2,0.7-2.4,1.2-3.8,1.5
								c-1.6,0.4-3.1,0.5-4.7,0.4c-1.5-0.1-2.9-0.5-4.2-1c-1.1-0.4-2.1-1-3.1-1.6c-1.4-0.9-2.6-1.9-3.7-3.1
								c-0.9-0.9-1.7-1.8-2.3-2.7c-1.4-1.8-2.3-3.3-3.3-4.8c-1.9-3-3.6-5.7-5.2-8.5s-3.1-5.2-4.8-7.6c-1.6-2.2-3.2-4.5-5-6.6
								c-3.4-4-7.1-6.8-10.2-8c-1.4-0.5-2.9-0.7-4.4-0.6c-1.6,0.1-3,0.5-4.5,1.2c-8.2,3.4-17.6-0.5-21-8.7c-3.4-8.2,0.5-17.6,8.7-21
								l0,0c1.5-0.6,2.9-1,4.5-1.2l2.1-0.2c4.8-0.5,9.5-0.4,14.3,0.6c4.8,1,9.3,2.7,13.4,5.3c3.7,2.3,7.1,5.1,10.1,8.3
								c2.6,2.8,5.1,5.9,7.2,9.1c1.9,3,3.8,6,5.4,9.2c1.7,3,3.1,6,4.5,8.9s2.7,5.6,4,8.1c0.7,1.2,1.3,2.3,1.8,3.1
								c0.3,0.4,0.5,0.8,0.7,1c0.2,0.2,0.2,0.2-0.2,0c-0.9-0.5-1.8-0.9-2.9-0.9c-0.8-0.1-1.6,0-2.3,0.2c-0.6,0.1-1.1,0.4-1.6,0.7
								c-0.2,0.1-0.5,0.3-0.7,0.5c-0.1,0.1-0.1,0.2-0.1,0.1l0.2-0.2l0.2-0.2v-0.1c0.5-0.7,0.9-1.5,1.2-2.3c0.5-1.2,0.9-2.4,1.2-3.6
								c0.8-2.7,1.4-5.5,1.8-8.4c0.5-2.9,0.8-5.9,1.2-8.9c0.6-6,1.3-12.2,2.1-18.2c0.2-1.6,0.5-3,0.8-4.6c0.2-1.6,0.6-3,1.1-4.6
								c0.5-1.6,1.2-3,1.9-4.5c0.9-1.6,2-3,3.3-4.3l0.4-0.4c3.8-3.5,9.7-3.3,13.2,0.6l0,0C1567.8,561.3,1568.1,561.6,1568.4,562z"/>
							<path class="st2" d="M1553.3,564.7c-3.6-5.6-6-11.9-7.4-18.4c-2.1-10.9,8.8-18.5,9.7-13.6c1,4.9,9.8,27.4,9.8,27.4
								L1553.3,564.7z"/>
							<path class="st1" d="M1454.5,909c2.5,10.1,5.2,38.9,5.2,38.9h5.9v-18.3"/>
							<path class="st1" d="M1458.3,889.8c-3.5,5.7-5,12.5-3.9,19.2c1.8,11,23.5,40.9,37.6,40.9h10.2c1.9,0,3.7-1.3,4.5-3
								c2.2-5.3-1.7-15.5-10.4-16c-5.2-14.1-12.8-21.9-17.4-31.7"/>
							<path class="st1" d="M1437,693.7l20.7,93.7c0,0-20.7,38.5,4.8,96.9c-12.1,12.3,0.2,23.2,0.2,23.2s32.9,33.5,28,11.8
								c-5.5-9.4-8.9-19.9-9.5-30.8c-4.4-57.1,11.3-150.5,11.3-150.5L1437,693.7z"/>
							<path class="st1" d="M1406.7,889.8c-3.9,5.5-5.4,12.5-4.3,19.2c1.9,11,12.2,40.9,27.7,40.9h11.3c2.1,0,4-1.2,5-3
								c2.5-5.3,0.4-12-5.3-16c-2.7-11-10.5-22.7-11.7-31.7"/>
							<path class="st1" d="M1409,738l4.4,49.5c0,0-21.4,31.9-2.9,94.2c-8,13.4-1.5,19.9,0.2,23.6c4.9,10.6,24.1,30.4,21.7,13.4
								c-8.9-61.4,30.6-225,30.6-225L1409,738z"/>
							<path class="st2" d="M1438.9,642.5c0,0-46.5,29.4-30,95.5h83.6c0,0,10.1-47-6.4-90C1457.8,654.4,1438.9,642.5,1438.9,642.5z"
								/>
							<path class="st1" d="M1441.1,930.8c0,0-10.9-3-18.7,1.8"/>
							
								<ellipse transform="matrix(0.2002 -0.9798 0.9798 0.2002 608.5568 1920.3256)" class="st15" cx="1480.5" cy="587.4" rx="24.2" ry="36.1"/>
							<path class="st2" d="M1470.5,562.9l22-30.2l14.9,4.2l-11.8,34.1c0,0,36.8,28-7.7,21.7
								C1441.1,586.2,1470.5,562.9,1470.5,562.9z"/>
							
								<ellipse transform="matrix(0.1331 -0.9911 0.9911 0.1331 782.6725 1944.0194)" class="st2" cx="1502.6" cy="524.6" rx="26.7" ry="39.3"/>
							<path class="st2" d="M1534.8,530.3c-2.8,7.7-11.5,11.7-18.2,9.2c-6.7-2.4-9-10.4-6.2-18.1c2.8-7.7,9.7-12.4,16.4-9.8
								C1533.6,514.2,1537.7,522.5,1534.8,530.3z"/>
							<path class="st2" d="M1513.7,522.5c-2.8,7.8-11.5,11.7-18.2,9.2c-6.7-2.4-9-10.4-6.2-18.1c2.8-7.7,9.7-12.4,16.4-9.8
								S1516.6,514.9,1513.7,522.5z"/>
							<path class="st13" d="M1495.6,592.6c0,0-1.5-7-5.5-11.9"/>
							<path class="st13" d="M1514.7,499.9c0,0,18.8-32.3,35.2-46.1c1.1-0.9,2.6-0.3,2.2,1.1l-16.3,59.3"/>
							<path class="st13" d="M1474.8,504.4c3.7-4.9,11.4-29.8,43.2-59c1.1-1,2.6-0.3,2.2,1.1l-14.9,53.4"/>
							<path class="st1" d="M1466,520.2c-2.8,2.3-6,4.2-9.4,5.4c-9.7,3.8-24.7-1-25.3-9.5c-0.5-7.3,6.5-27.4,54.2-25.5
								c6.9,0.3,5.7,7.5,0.7,7c-6.6-0.6-14.7,2.7-14.7,2.7"/>
							<path class="st1" d="M1466.1,497.4c0,0,10.4,0.7,12,9.2c1.6,8.6-5.7,10.6-5.7,10.6"/>
							<path class="st1" d="M1462.2,518.6c0,0,5.9,8.3,9.9,1.5c4-6.8,0.7-17.2-8-15.8"/>
							<path class="st1" d="M1463,513.4c0,0,7.1,0.3,5.6,8.4c-1.6,8.4-9,6.6-7.8,3.1c1.7-4.8-2.1-3.5-2.1-3.5"/>
							<path class="st14" d="M1510.6,535.2c-0.5,1.5-4.4,3.2-5.2,3c-0.8-0.2-3-4-2.5-5.4s2.3-1.4,4.5-0.7
								C1509.5,532.8,1511,533.6,1510.6,535.2z"/>
							
								<ellipse transform="matrix(0.2849 -0.9586 0.9586 0.2849 549.1542 1816.4791)" class="st15" cx="1492" cy="540.2" rx="3.6" ry="6.9"/>
							<path class="st1" d="M1560.4,553.8c6.9-5.3,13-6.5,20-18.8c3.4-5.9,8-3.5,8,3.8c0,13.9-14.2,26.8-24.6,28.4
								c-4.3,0.6-9.5-1.6-9.1-5.8"/>
							<path class="st4" d="M1497.3,516.9c-1,2.6-2.5,4.9-4.5,6.8c-0.8-5.5,1.2-11.1,5.3-14.9
								C1498.5,511.5,1498.2,514.4,1497.3,516.9z"/>
							<path class="st4" d="M1518.9,524.7c-1,2.6-2.5,4.9-4.5,6.8c-0.8-5.5,1.2-11.1,5.3-14.9
								C1520.1,519.2,1519.8,522.1,1518.9,524.7z"/>
							<path class="st16" d="M1506.1,498.1c7.2,1,13.8,3.2,22.4,8.8"/>
							<path class="st2" d="M1545.7,538.1c8.7-11.9,14.2-25.4,17.9-38.3c3.8-13.1,17.9-6,15.3,5.5c-3.2,14.1-13,35.2-23.1,45.1
								C1547.6,558.5,1538.9,547.4,1545.7,538.1z"/>
							<path class="st1" d="M1543.3,549.8c12.6-15.7,23.9-39.9,28.1-59.2c1.7-7.6,13.1-5.2,11.5,2.3c-4.5,20.4-17.8,48.2-31,64.8
								C1546.9,563.7,1538.4,555.8,1543.3,549.8z"/>
							<path class="st2" d="M1554,544.5c7.3-8.6,16.2-28.7,19.5-39.8c4.5-15.7,17.8-9.6,16.1,2.1c-1.9,14.4-13.7,38-22.9,48.8
								C1559.2,564.6,1546.5,553.4,1554,544.5z"/>
							<path class="st1" d="M1496.3,930.8c-6.2,0.5-8.2,1.8-8.2,1.8"/>
							<path d="M1482.7,654.7c2.1,6.1,3.8,12.5,4.9,19c1.2,6.4,1.9,12.9,2.4,19.5c0.1,1.7,0.1,3.2,0.2,4.9l0.1,2.4v7.3l-0.2,4.9
								l-0.1,2.4c-0.1,0.8-0.1,1.7-0.2,2.4l-0.4,4.9c-0.3,3.2-0.8,6.5-1.2,9.7h-0.4c-0.4-3.3-0.4-6.6-0.6-9.8l-0.2-4.9
								c0-0.8,0-1.7,0-2.4l-0.1-2.4c-0.1-1.7-0.2-3.2-0.2-4.9l-0.3-4.8c-0.1-0.8,0-1.6-0.1-2.4l-0.1-2.4l-0.3-4.8l-0.3-4.8
								c-0.1-1.6-0.3-3.2-0.4-4.8c-0.1-1.6-0.2-3.2-0.4-4.8l-0.4-4.8c-0.7-6.4-1.4-12.7-2.2-19.4L1482.7,654.7z"/>
						</g>
						<g>
							<g>
								<ellipse class="st17" cx="178.8" cy="474" rx="29.9" ry="37.7"/>
								<ellipse class="st17" cx="250.2" cy="457.9" rx="42.6" ry="53.9"/>
								<ellipse class="st17" cx="192.2" cy="474" rx="29.9" ry="37.7"/>
								<ellipse class="st17" cx="263.7" cy="457.9" rx="42.6" ry="53.9"/>
								<g>
									<path class="st17" d="M173,465.2c-3.6,14.3,2.1,29.7,12.8,34.5l3.9-15.3c1.5-5.8-0.9-12.2-5.3-14.1L173,465.2z"/>
									<path class="st17" d="M198.7,448.1c-10.7-4.8-22.3,2.8-25.9,17.1l11.5,5.2c4.4,1.9,9-1.2,10.5-7L198.7,448.1z"/>
									<path class="st17" d="M198.7,448.1l-3.9,15.3c-1.5,5.8,0.9,12.2,5.3,14.1l11.5,5.2C215.2,468.5,209.4,453,198.7,448.1z"/>
									<path class="st17" d="M185.7,499.8c10.7,4.9,22.3-2.8,25.9-17.1l-11.5-5.2c-4.4-1.9-9,1.2-10.5,7L185.7,499.8z"/>
								</g>
								<g>
									<path class="st17" d="M294.8,473.4c-6.6,22.4-25.9,33.6-43.1,25l8.9-30.3c1.7-5.6,6.5-8.5,10.9-6.3L294.8,473.4z"/>
									<path class="st17" d="M275.7,417.2c17.2,8.7,25.8,33.9,19.2,56.2l-23.2-11.7c-4.3-2.1-6.5-8.6-4.9-14.1L275.7,417.2z"/>
									<path class="st17" d="M275.7,417.2l-8.9,30.3c-1.7,5.6-6.5,8.5-10.8,6.3l-23.2-11.7C239.2,419.7,258.5,408.5,275.7,417.2z"
										/>
									<path class="st17" d="M251.7,498.4c-17.2-8.7-25.8-33.8-19.2-56.2l23.2,11.7c4.3,2.1,6.5,8.6,4.9,14.1L251.7,498.4z"/>
								</g>
							</g>
							<g>
								<polygon class="st14" points="269.2,527.8 296.6,504.6 333.7,504.6 								"/>
								<polygon class="st14" points="269.2,560.2 296.6,583.1 333.7,583.1 								"/>
								<g>
									<rect x="240.1" y="704.5" class="st17" width="12.9" height="67.1"/>
									<path class="st17" d="M240.2,771.6H253l-44.2,190.1c-0.3,1.3-2.5,2.1-3.8,2.1l0,0c-1.8,0-3.9-1.1-3.5-2.8L240.2,771.6z"/>
									<path class="st17" d="M253.2,771.6h-13.1l105.3,194.6c1.2,1.4,2.8,2.2,4.5,2.6l0,0c1.7,0,2.9-1.3,3-2.8
										c0-0.5-0.1-1-0.4-1.5L253.2,771.6z"/>
									<path class="st17" d="M240.1,771.6h12.4L145.2,967.5c-0.5,1-1.6,1.6-2.6,1.6l0,0c-1.7,0-2.9-1.3-3-2.8c0-0.5,0.1-1,0.4-1.5
										"/>
									<ellipse cx="229.5" cy="968.7" rx="136.5" ry="7.8"/>
								</g>
								<polygon class="st17" points="335.1,504.6 335.1,584.2 285.6,567.8 285.6,525.5 								"/>
								<rect x="168.6" y="508.2" class="st17" width="117.3" height="72.6"/>
								<rect x="235.6" y="580.7" class="st17" width="21.5" height="9.7"/>
								<rect x="158" y="508.2" class="st17" width="45.6" height="72.6"/>
							</g>
							<g>
								<line class="st18" x1="479.9" y1="847.2" x2="506.7" y2="968.3"/>
								<line class="st18" x1="423.7" y1="847.2" x2="388.2" y2="968.3"/>
								<path class="st14" d="M706.4,854.2c0,0,13.9-47.3,33-55.6c19.1-8.4,23.7,7.3,12.7,27.8c-7.5,14.3-14.1,29-19.9,44l-7.1,5.5
									l4.4,5c0,0-1.7,17-11.2,17.8s-18.2-15.4-18.2-15.4"/>
								<path class="st14" d="M697.7,752.9c11.4-19.1,8.8-49.2,18.4-58.6c12.8-12.6,24.8,1,23.1,18.7c-1.8,17.7-7,34.1-15,50.4
									c-2.6,2.4-5.4,4.6-8.2,6.8c1.5,1.6,3,2.8,4.6,4.4c-1.5,6.6-2.7,17.1-10.6,18.8c-7.9,1.7-15.4-6.4-19.1-12.4"/>
								<path class="st14" d="M479.5,847.2c0,0-174.3,18.8,63.9,17.2c55.5-0.4,65.9-17.2,65.9-17.2H479.5z"/>
								<path class="st1" d="M435.9,688.6c-42.1,1.3-53.7-100.9-52.2-162.6c-9-6.4-19.8-3.9-29.1-2.3c-5.2,58-9,129.5,41.1,201.1
									c31.6,45.1,11.2-17.3,27.9-14.6"/>
								<circle class="st14" cx="484.5" cy="637.4" r="4.6"/>
								<polyline class="st18" points="382.1,732.2 396.1,847.2 501.1,847.2 								"/>
								<path class="st14" d="M396.1,847.2c0,0,8.4,16.5,63.9,16.5s65.9-16.5,65.9-16.5H396.1z"/>
								<path class="st1" d="M453.8,816.9l118.4-78c6.5-4.3,14.3-6.1,22.1-5.2l103.1,12.4c8.9,0.5,14.7,8.7,13.1,17.4l-2.7,14.7
									c-1.4,7.4-8.7,12.5-16.1,12.1l-105.2-6.9l-74.5,55.5"/>
								<path class="st1" d="M461.9,866.9c40.4,5.1,125.5-58.9,125.5-58.9l104.3,80c5,3.6,16.9,3.1,21.2-1.3l0,0
									c11.8-11.9,11.7-31.1-0.2-42.9c-0.6-0.6-1.2-1.1-1.8-1.6l-102.4-87.7c-5.7-5-14-5.8-20.6-2.1l-93.6,51.2
									c0,0-1.9,15.9-7.9,23.5s-59.8,9.2-74,5.3c0,0,9.3,43.7,34.6,30.4C447.1,862.8,450.8,865.5,461.9,866.9z"/>
								<path class="st1" d="M423.7,689.4c5.1-1.7,10.3-2.7,15.6-3.3c6.1-0.7,12.4-1,18.6-1c33.4,0,39.2,33,43.3,64.8
									c7.3,56.8,7.3,75.3-8.7,86.2c-10.3,7.1-70.3,8.5-80.1-3.7c0,0-14.2-45.1-16.8-93c-0.5-7.1,0-14.3,1.6-21.2"/>
								<path class="st14" d="M519.6,798.4c0,0-32.5,3.4-73.8,3.4c-26.4,0-55.8-3.4-55.8-3.4l-7.9-66.1c18,2.1,36.1,3.2,54.1,3.3
									c39.6,0,75.6-3.3,75.6-3.3L519.6,798.4z"/>
								<polyline class="st18" points="511.7,732.2 525.8,847.2 630.8,847.2 								"/>
								<path class="st1" d="M362.1,476c0,0,1.4-8.2,2.6-14.7c2.4-13.4,12.2-5.9,10.6,2.6c-0.6,3.1-4.6,27.4-4.6,27.4"/>
								<path class="st1" d="M375.1,497.6c4.9,0-1.8-10.8,6.9-10.2c6.8,0.5,11.8,15.5-6.6,25.8c-4.6,2.5,1.2,8.9,1.2,8.9
									s-9.2,4.7-15.6,1.2l-1.1-5.2c0,0-5.9-11-7.4-17.9c-2.6-13,7.7-11.7,9.5-24.3"/>
								<polygon class="st1" points="381.7,487.1 336.6,476.1 341.2,464.4 383,482.9 								"/>
								<path class="st1" d="M368.2,488c0,0,4.4-24.5,6.5-30.8c2.1-6.3,9.5-2.9,9.3,2.7c-0.1,3.2-8.9,37.7-8.9,37.7"/>
								<path class="st1" d="M522.9,677.9c0,0-9.7-18.9,10.9-25.2c12.6-3.8,20,2.1,21.5,8.6c1.9,8.9,3.8,34.3,3.8,34.3
									s-1.2,11.6-19.1,9.6c-3-0.3-5.5-2.1-6.9-4.9l0,0L522.9,677.9z"/>
								<path class="st1" d="M533.1,715.1c0,0,0.4-4.8-2.5-6.8c-2.9-2-7.7-11.9-1.2-14.3l6.3,9.6c0,0,1.8,0.2,4.3,0.1
									c8.9-0.2,16.3-7.1,16.9-16c0-1.8,0.4-3.6,1.1-5.3c1.8-3.2,10.7,3.7,11.7,16.5c1,12.8-15.2,24.9-15.2,24.9"/>
								<path class="st1" d="M466.2,685.9c66.9-4.2,69.5,73.4,70,94.2c0,0-0.1-5.7-1.6-21.3c-1.3-14.1-4.4-23.1-4.4-23.1l2.8-20.4
									c0,0,31-2.6,30,11.1c-1.3,15.5-1.9,74.9-18.3,86.7c-4.9,3.4-18.8,3.5-23.5-0.9c-24.7-22.6-35.5-94.5-35.5-94.5"/>
								<path class="st10" d="M529.7,661.1l-19.2-12c-4.8-3-10.7-3.4-15.8-1.2l-12,5.3"/>
								
									<ellipse transform="matrix(0.9416 -0.3366 0.3366 0.9416 -190.7128 218.4888)" class="st19" cx="534.8" cy="659.3" rx="7.8" ry="2.1"/>
								<line class="st18" x1="539.4" y1="847.2" x2="515.2" y2="968.3"/>
								<line class="st18" x1="609.1" y1="847.2" x2="636" y2="968.3"/>
								<path class="st1" d="M421.8,609.9c0,0-18.9-56-20.5-73c-1.7-16.9,16-23.8,21.5-10.3c3.1,7.6,19.6,85,19.6,85"/>
								<path class="st1" d="M423.7,689.4l3.1-14.2c0,0-20.1-27.3-20-45.3c0-25.6,19.5-29.6,34.8-30.2s42.9,32.1,42.9,44.8
									c0,12.7-8.2,17.5-18.3,26.4c-10.1,8.9,8.9,15.7,8.9,15.7S457.5,697.6,423.7,689.4z"/>
								<path class="st14" d="M402.8,612.3c0-3.5,8.2-17.8,15.8-22.1c17.7-10,57.4,6.2,59.8,12.5c4.9,12.5-32.2,2-44,6.8
									C424.6,613.6,402.7,623.6,402.8,612.3z"/>
								<path class="st1" d="M436.6,613.6c0,0-15.2-64.6-14.7-81.5s22.2-21.8,26-7.8c2.1,7.9,9.3,85.4,9.3,85.4"/>
								<path class="st10" d="M522.9,677.9c0,0,10.8,1.5,20.4-3.4"/>
								<path class="st20" d="M550.7,670.2c2.3-1.5,4.2-3.6,5.2-6.1"/>
								<polygon class="st1" points="425.6,773.4 418.3,778.1 419.1,768.2 412.4,761.2 420.8,759.9 424,750.9 428.4,759.9 
									436.9,761.2 431.3,768.2 433.4,778.1 								"/>
								<ellipse cx="502.3" cy="968.5" rx="170.7" ry="8"/>
								
									<ellipse transform="matrix(0.2664 -0.9639 0.9639 0.2664 -204.423 671.7732)" class="st21" cx="339.1" cy="470.2" rx="5.8" ry="4.2"/>
								<path d="M593.9,806.5c9.1,5.3,17.9,11.1,26.6,17.1c4.4,2.9,8.6,6.1,12.8,9.1c4.3,3,8.4,6.3,12.5,9.4
									c4.2,3.1,8.3,6.4,12.4,9.7c4.1,3.3,8.2,6.6,12.2,10c8,6.8,15.9,13.7,23.3,21.2l0,0c0.1,0.1,0.1,0.2,0,0.3l0,0
									c-0.1,0.1-0.2,0.1-0.3,0l-49.9-38.2l-49.8-38.4c-0.1-0.1-0.1-0.2,0-0.3l0,0C593.8,806.5,593.9,806.4,593.9,806.5
									L593.9,806.5z"/>
								<path d="M439.3,852.2c2.4,2.1,5.3,3.8,8.3,4.8c1.5,0.5,3,1,4.5,1.3c0.8,0.2,1.6,0.3,2.3,0.4c0.8,0.1,1.6,0.2,2.3,0.3
									c1.6,0.1,3.1,0.2,4.7,0.3h2.3l2.3-0.1c3.1-0.2,6.3-0.5,9.4-1.1c1.6-0.2,3.1-0.5,4.8-0.8c1.7-0.3,3.1-0.7,4.8-1.1
									c3.2-0.7,6.3-1.6,9.4-2.3c6.3-1.7,12.6-3.6,19.3-5.2l0,0c0.1,0,0.2,0,0.2,0.1c0,0.1,0,0.2-0.1,0.2c-6,2.9-12.2,5.4-18.4,7.7
									c-6.2,2.2-12.7,4-19.3,5.2c-6.6,1.2-13.3,1.2-19.9,0.1c-3.3-0.6-6.5-1.7-9.5-3.2c-3-1.5-5.6-3.7-7.7-6.4
									c-0.1-0.1,0-0.2,0-0.3l0,0C439,852.1,439.1,852.1,439.3,852.2L439.3,852.2z"/>
								<path d="M444.1,859.7c-1.2,0.8-2.5,1.4-3.9,1.7c-1.4,0.3-2.7,0.3-4.1-0.1c-2.4-0.6-4.6-1.8-6.4-3.4c-1.8-1.5-3.3-3.1-4.7-5
									c-1.4-1.8-2.6-3.6-3.7-5.5c1.5,1.7,2.9,3.3,4.6,4.8c1.6,1.5,3.3,2.7,5.3,3.8c1.7,1.1,3.6,1.7,5.5,1.8
									c1.7,0.1,3.3-0.6,4.5-1.8c1-1,2.5-0.9,3.4,0.1c1,1,0.9,2.5-0.1,3.5C444.4,859.5,444.2,859.6,444.1,859.7L444.1,859.7z"/>
								<polygon points="639.4,778.8 691.1,785.9 639,782.6 								"/>
								<path class="st1" d="M541.9,656.3c-0.4,1.7-2,2.6-3.7,2.1c-0.9-0.2-1.6-0.8-1.9-1.6c-2.6-5.2-5.5-12.4-5.5-18.8
									c0-11.6,5.4-6.6,5.4-6.6s0.5-25.7,7.7-27.3c7.2-1.7,1.3,20.8,1.3,20.8s7-3.7,5.7,3.9C550,635.1,544.8,644.7,541.9,656.3z"/>
							</g>
							<line class="st22" x1="246.6" y1="703.1" x2="246.6" y2="582.7"/>
						</g>
						<g>
							<g>
								<ellipse cx="1046.5" cy="926.5" rx="278.5" ry="6.2"/>
								<g>
									<path d="M780.2,811.7c0.5-1.4,0.8-2.5,1.3-3.7c0.5-1.2,1-2.2,1.6-3.3c1.1-2,2.3-4.1,3.7-5.9c2.7-3.6,5.8-6.9,9.4-9.7
										c1.8-1.4,3.5-2.8,5.6-3.5c1.2-0.4,2.3-0.6,3.5-0.6c1.3,0,2.4-0.1,3.7,0c2.3,0.1,4.7-0.2,6.9-0.9l6-2.6
										c8.3-3.7,16.8-6.7,25.6-9.1c4.7-1.3,9.3-2.1,14.1-2.6c5-0.5,9.9-0.5,14.9,0c10.1,1.1,19.9,4.6,28.5,10
										c8.6,5.4,16,12.3,22.3,20.3c5.6,7.5,10.4,15.7,14.2,24.3c3.7,8.2,6.6,16.3,9.2,24.1c2.6,7.8,5.2,15.4,7.8,22.4
										c1.4,3.5,2.7,6.8,4.3,9.9c1.4,2.9,3,5.6,4.9,8.3c1.6,2.2,3.3,4.2,5.3,5.9c1.8,1.6,3.9,2.7,6.1,3.6c2.5,1,5.1,1.6,7.8,1.8
										c0.7,0.1,1.5,0.1,2.2,0.2c0.8,0.1,1.5,0,2.1,0c1.3,0,2.6-0.1,3.9-0.4c2.4-0.4,4.8-1.2,6.9-2.2c2.3-1.3,4.5-2.8,6.4-4.8
										c4.2-4.1,8.1-9.9,11.9-16.4c3.8-6.5,7.4-13.8,11.7-21.4c2.1-3.8,4.5-7.6,7.1-11.5c2.8-4.1,5.9-7.8,9.4-11.3
										c3.8-3.8,8.3-7,13-9.5c5-2.5,10.2-4.3,15.8-5.1c2.6-0.4,5.3-0.6,8-0.5c1.3,0,2.6,0.1,3.9,0.1s2.6,0.2,4,0.5
										c5.5,0.8,10.9,2.5,15.8,5.3c4.8,2.6,9,6,12.6,10c3.3,3.6,6.2,7.6,8.8,11.9c4.8,8.1,8.1,16,11.2,23.7c3.1,7.7,5.9,15,9,21.6
										s6.9,12.1,11.1,15.1c2,1.5,4.4,2.4,6.8,2.9c0.3,0.1,0.7,0.1,1,0.2c0.3,0,0.7,0.1,1,0.1c0.7,0,1.4,0.1,2,0.1
										c1.2,0,2.4-0.1,3.6-0.4c2.4-0.6,4.7-1.8,6.5-3.5c2.4-2.1,4.6-4.7,6.3-7.4c4.1-5.9,7.8-13.1,12.4-20.4
										c2.3-3.8,4.9-7.5,7.7-11c3.1-3.8,6.7-7.2,10.7-9.9c4.3-2.9,9.1-5,14.2-5.9c2.4-0.5,5-0.8,7.5-0.8h1.8
										c0.7,0,1.5,0.1,2.1,0.1c4.4,0.4,8.6,1.9,12.2,4.4c2.1,1.5,4.2,3.2,5.9,5.2c3.1,3.5,5.7,7.4,8,11.5
										c4.2,7.8,7.2,15.5,10.3,22.9c1.6,3.7,3.1,7.3,4.9,10.6c1.5,3.1,3.4,6,5.6,8.7c0.9,1,1.9,1.8,3,2.4c1,0.5,1.9,0.8,3,0.8
										c2.2,0.1,5.3-1.1,8.2-3c3.1-2,5.9-4.4,8.6-7c2.7-2.6,5.3-5.5,7.9-8.6l0,0c1.8-2.1,5.1-2.3,7.2-0.6c2,1.8,2.3,4.8,0.8,6.9
										c-2.5,3.3-5.2,6.6-8.1,9.7c-3,3.3-6.2,6.3-9.8,8.9c-1.9,1.5-4.1,2.6-6.3,3.7c-2.5,1.2-5.3,1.8-8,1.9c-3,0.1-6-0.5-8.8-1.8
										c-2.4-1.2-4.8-2.8-6.7-4.7c-3.2-3.3-5.9-7.1-8.2-11.1c-2.1-3.8-4-7.6-5.8-11.3c-3.5-7.4-6.8-14.7-10.6-21.1
										c-1.8-3-3.8-5.7-6.2-8.3c-1.8-1.9-4.1-3.3-6.6-4c-0.6-0.1-1.1-0.2-1.7-0.2c-0.3,0-0.6,0-0.9,0l-1.2,0.1
										c-1.6,0.1-3.1,0.4-4.6,0.8c-2.9,0.7-5.5,2-8,3.8c-4.9,3.6-8.8,9.5-12.5,16.2c-3.7,6.7-7,14.2-11.9,21.9
										c-2.5,4.2-5.6,8-9,11.4c-1.9,1.8-4.2,3.6-6.5,5.1c-2.4,1.5-5.2,2.7-7.9,3.5s-5.5,1.3-8.4,1.5c-1.4,0.1-2.7,0.1-4.1,0
										c-0.7,0-1.4-0.1-2-0.1c-0.7,0-1.4-0.1-2-0.2c-5.5-0.8-10.9-2.7-15.7-5.8c-4.4-2.9-8.3-6.5-11.5-10.7
										c-2.9-3.7-5.4-7.7-7.7-11.8c-4.3-7.9-7.5-15.6-10.8-22.9s-6.5-14.2-10.2-19.9c-1.8-2.7-3.7-5.3-5.9-7.5
										c-1.8-1.9-4.1-3.6-6.5-4.8c-2.3-1.1-4.8-1.8-7.3-2c-2.8-0.3-5.6-0.2-8.4,0.3c-5.3,1-9.4,3.4-13.6,7.8
										c-4.2,4.4-7.8,10.3-11.4,16.9c-3.6,6.6-6.9,14.1-11,21.7c-2,3.8-4.3,7.8-6.8,11.7c-2.7,4.2-5.8,8-9.2,11.6
										c-3.8,4-8.1,7.3-12.8,10c-5,2.8-10.3,4.8-15.9,5.8c-2.7,0.5-5.4,0.9-8.2,1c-1.4,0.1-2.7,0.1-4,0.1c-1.3,0-2.5,0-3.9-0.1
										c-5.4-0.3-10.9-1.4-16-3.1c-2.7-1-5.3-2.1-7.9-3.5s-4.9-3-7.1-4.8c-4.3-3.4-8.1-7.3-11.3-11.7c-2.9-4-5.5-8.2-7.8-12.5
										c-2.1-4.2-4-8.3-5.6-12.4c-3.3-8.1-6-16-8.8-23.3s-5.4-14.6-8.6-21.1c-2.8-6.2-6.4-12.1-10.6-17.4
										c-3.8-4.8-8.5-8.9-13.7-12.1c-2.6-1.6-5.3-2.9-8.1-4.1c-2.8-1.3-5.6-2.3-8.6-3.2c-3-1-6.1-1.8-9.3-2.3
										c-3.3-0.6-6.7-0.9-10.1-1c-7.3-0.1-14.5,1.2-21.3,3.6c-1.8,0.6-3.5,1.3-5.2,2c-1.8,1.1-3.2,2.5-4.1,4.3l-1.8,2.7
										c-0.5,0.9-1.2,1.6-1.8,2.2c-1.4,1.3-3.1,1.8-4.9,2.6c-3.6,1.5-7.2,2.6-11,3.6c-1.9,0.5-4,1-6,1.3c-1.1,0.2-2.1,0.3-3.2,0.5
										c-1.2,0.2-2.2,0.2-3.4,0.2l-1.8-0.1c-3.9-0.2-6.9-3.5-6.7-7.5l0,0C779.8,813,779.9,812.3,780.2,811.7z"/>
									<path d="M1325.8,901.5c-5.4,0.8-12.7-2.4-17.1-5.5c8.9,0.1,18.2-1.7,26.1-6.3c-2.4,8.8-1.1,18.1,1.1,26.8
										C1331.4,912.7,1326.8,907.3,1325.8,901.5z"/>
								</g>
								<path class="st11" d="M905.4,787c5.4,3.7,10.3,8.1,14.5,13.1c4.2,5.2,7.8,10.7,10.8,16.5c3,5.8,5.7,11.9,8,18
									c2.3,6.1,4.4,12.4,6.4,18.5c2,6.1,4,12.4,6.3,18.3c2.1,5.9,4.9,11.7,8.2,17.1c3.2,5.3,7.8,9.8,13.1,12.9
									c2.7,1.6,5.7,2.6,8.9,3.3c0.8,0.2,1.6,0.3,2.3,0.5l2.4,0.3l2.4,0.2l2.4,0.1c-3.2,0.5-6.5,0.5-9.8,0.2
									c-6.7-0.7-13.1-3.5-18.2-8c-2.5-2.2-4.8-4.8-6.7-7.6c-4-5.4-6.8-11.5-9.3-17.6c-2.5-6.1-4.6-12.4-6.6-18.5
									c-2-6.1-4-12.4-6.1-18.4s-4.5-12.1-7.1-17.9c-2.6-5.8-5.7-11.5-9.3-16.7C914.4,796.2,910.2,791.3,905.4,787z"/>
								<path class="st11" d="M1103.9,826.6c4.6,2,8.7,5,12.3,8.5c3.6,3.5,6.7,7.5,9.2,11.8c5.3,8.6,8.9,17.8,12.5,26.9
									c1.8,4.6,3.5,9,5.3,13.5c1.8,4.4,4,8.7,6.6,12.6c2.5,3.9,5.8,7.3,9.8,9.9l0.8,0.5l0.8,0.4l1.6,0.8c1.1,0.5,2.2,0.9,3.3,1.4
									c1.1,0.5,2.3,0.7,3.5,1l3.6,0.7c-1.3,0-2.4,0.1-3.7,0.1s-2.5-0.2-3.7-0.4c-1.2-0.3-2.4-0.5-3.7-0.9l-1.8-0.7l-0.9-0.3
									l-0.9-0.4c-1.2-0.6-2.2-1.2-3.3-1.8c-0.5-0.4-1.1-0.7-1.6-1.1l-1.5-1.3c-1.9-1.7-3.7-3.5-5.3-5.5c-3.1-4-5.6-8.4-7.8-12.9
									c-2.1-4.5-4-9.1-5.7-13.7c-3.5-9.1-6.8-18.3-11.2-26.7c-2.2-4.3-4.8-8.3-7.8-12.1C1111.3,832.8,1107.8,829.4,1103.9,826.6z"
									/>
								<g>
									<path class="st23" d="M1306.4,848.4c0,3.6-29.5,6.5-65.9,6.5c-36.5,0-65.9-2.9-65.9-6.5H1306.4z"/>
									<path class="st23" d="M1295.8,848.4c0-29.9-24.7-54.1-55.3-54.1c-30.6,0-55.2,24.2-55.2,54.1H1295.8z"/>
									<path class="st23" d="M1247.4,788.1c0,3.4-3.1,6.2-6.9,6.2s-6.9-2.8-6.9-6.2H1247.4z"/>
								</g>
								<path class="st23" d="M1150.9,814.9c0,3.6-29.5,6.5-65.9,6.5c-36.5,0-65.9-2.9-65.9-6.5H1150.9z"/>
								<path class="st23" d="M936,764.4c0,3.6-29.5,6.5-65.9,6.5c-36.5,0-65.9-2.9-65.9-6.5H936z"/>
							</g>
							<g>
								<line class="st24" x1="883.1" y1="697.8" x2="890" y2="675.5"/>
								<polygon class="st24" points="856.8,665.1 924.6,686.6 893.3,665.1 								"/>
								<path class="st23" d="M896,698.2c-0.2-0.1-0.7-0.3-1.2-0.5c0-0.1,0.1-0.3,0.1-0.4c0.9-3.1-0.5-6.4-3.3-8
									c-1.9-1.3-6.1-1.9-8.7-1c-0.1-0.3-0.3-0.7-0.5-1c-0.9-1.5-2.1-2.7-3.7-3.5c-3.2-1.4-6.8-1.1-9.7,0.8
									c-0.6,0.4-3.1,2.4-2.8,2.4c0,0-3.1-1.7-4.2-2c-3.5-1.4-7.4-0.8-10.4,1.4c-1.2,0.9-2.1,1.9-3,3.1c-0.4,0.5-0.9,1.6-1.4,1.8
									c-1,0.6-0.4,0.1-1.5,0.3c-4.3,0.6-7.6-0.1-10.5,3.6c-1.5,1.9-1.3,5.9-2.8,7.3c-3.7,3.2-1.2,7.8,2.7,8.9
									c0.4,0.9,1,1.8,1.8,2.3c3.2,2.6,8.5,2.3,12.5,1.9c2.2-0.3,4.4-0.5,6.3-0.7c2.7,0.3,5.4,0.7,8.2,0.8c2.3,0.1,4.6,0.2,6.9,0.2
									c2.2,0.2,4.5,0.2,6.6,0c3.2-0.1,6.3-0.2,9.5-0.4c1.9,0,3.8-1.1,4.9-2.8c1.1-0.1,2.2-0.4,3.2-0.8
									C901.4,709.3,902.1,701.5,896,698.2z"/>
								<path class="st23" d="M857.7,764.4c-37.9,0-42.2-10.2-44.7-27.2c-2.4-16.7,15.4-33.9,15.4-33.9h75c0,0,9.4,15.2,10.1,38.1
									c14.1,12.7,7.6,21.5,0,17.3l1.9,5.6H857.7l-0.5-6.6c0,0-7.8,4.6-12,1.2c-6.4-5.3,6.2-16.3,6.2-16.3"/>
								
									<ellipse transform="matrix(0.9801 -0.1983 0.1983 0.9801 -127.8741 187.797)" class="st25" cx="873.7" cy="732.3" rx="6.8" ry="11.7"/>
								
									<ellipse transform="matrix(0.9801 -0.1983 0.1983 0.9801 -127.3989 192.542)" class="st25" cx="897.6" cy="732.3" rx="6.8" ry="11.7"/>
								<polygon class="st26" points="885.3,752.7 895.2,752.7 887.2,741.2 								"/>
								<line class="st24" x1="868.1" y1="764.4" x2="867.4" y2="757.7"/>
								<line class="st24" x1="875.5" y1="764.4" x2="874.9" y2="757.7"/>
								<line class="st24" x1="882.9" y1="764.4" x2="882.3" y2="757.7"/>
								<line class="st24" x1="890.4" y1="764.4" x2="889.6" y2="757.7"/>
								<line class="st24" x1="897.8" y1="764.4" x2="897.1" y2="757.7"/>
								<line class="st24" x1="905.2" y1="764.4" x2="904.5" y2="757.7"/>
								<path class="st24" d="M845.7,703.3l-7.2-45.7c-0.5-3.1-3.4-5.3-6.5-4.8c-0.2,0-0.4,0.1-0.7,0.1l-23,6.4"/>
								<path class="st11" d="M871.1,722c1.2-0.3,2.4,0,3.4,0.6c1.1,0.7,1.8,1.6,2.5,2.6c2.2,4.1,2.9,8.9,1.8,13.5
									c-0.3,1.2-1,2.3-1.8,3.1c-0.5,0.4-1.1,0.7-1.7,0.9c-0.6,0.1-1.2,0.1-1.8,0c0.5-0.1,1-0.4,1.5-0.7c0.4-0.3,0.7-0.7,1-1.1
									c0.5-0.9,0.8-1.8,0.9-2.7c0.2-2,0.1-4.1-0.3-6.1c-0.2-2-0.7-4.1-1.5-6C874.6,724.4,873.3,722.6,871.1,722z"/>
								<path class="st11" d="M895.3,722c1.2-0.3,2.4,0,3.4,0.6c1.1,0.7,1.8,1.6,2.5,2.6c2.2,4.1,2.9,8.9,1.8,13.5
									c-0.3,1.2-1,2.3-1.8,3.1c-0.5,0.4-1.1,0.7-1.7,0.9c-0.6,0.1-1.2,0.1-1.8,0c0.5-0.1,1-0.4,1.5-0.7c0.4-0.3,0.7-0.7,1-1.1
									c0.5-0.9,0.8-1.8,0.9-2.7c0.2-2,0.1-4.1-0.3-6.1c-0.2-2-0.7-4.1-1.5-6C898.7,724.4,897.5,722.6,895.3,722z"/>
							</g>
							<g>
								<path class="st23" d="M1100.6,746.9c-4.6,0-8.9,1.4-12.7,3.9c-3.8-2.5-8.2-3.9-12.7-3.9c-14.2,0-25.7,11.3-25.7,31.5
									s20.7,35,30.1,35c3.2-0.1,6.2-1.6,8.4-3.9c2.1,2.3,5.2,3.8,8.4,3.9c9.3,0,30.1-14.8,30.1-35S1114.8,746.9,1100.6,746.9z"/>
								<path class="st23" d="M1092,726.8c-3.1,7.6-4.5,15.8-4.1,24c0,0-5.9-17.9-36.9-18.4c13.9,25.3,33.5,20.2,33.5,20.2"/>
							</g>
							<path d="M1090,805.3c1.8,1.2,4,1.6,6,1.2c1.9-0.4,3.8-1.3,5.3-2.4c0.9-0.6,1.7-1.3,2.4-1.9s1.6-1.5,2.3-2.1s1.6-1.7,2.3-2.4
								s1.6-1.7,2.2-2.4c1.5-1.6,2.8-3.2,4.1-5c0.6-0.8,1.2-1.7,1.8-2.5c0.5-0.9,1-1.8,1.4-2.7c0.4-1,0.8-1.9,1.1-2.9
								c0.3-1.1,0.6-2,0.8-3.1c0.5-2.1,0.7-4.5,1.2-6.9l0.4-0.1c0.4,2.3,0.6,4.7,0.7,7c0,2.3-0.3,4.7-1,7c-1.4,4.6-4.2,8.5-7.4,11.9
								c-1.6,1.8-3.3,3.3-5.1,4.9c-1.8,1.6-3.7,3-5.7,4.1c-2,1.2-4.4,1.8-6.8,1.8c-2.4,0-4.8-1.2-6.3-3L1090,805.3z"/>
						</g>
						<g>
							<g>
								<path class="st2" d="M1369.4,221.6c0,0,4.1-23.7,4.1-31.5s-12-4.4-12.9-14.2c-1-9.8,13.8-20.5,20.8-4c0,0,17-8.4,15.5,5.3
									c-1.6,13.6-12.1,3.9-12.3,20.4c-0.2,16.5,0.4,22.8,0.4,22.8"/>
								<path class="st27" d="M1377.2,84.9c4.1,0,7.4,3.3,7.4,7.4c0,4.1-3.3,7.4-7.4,7.4s-7.4-3.3-7.4-7.4l0,0"/>
								<path d="M1378.9,99.7c0,2.6,0.1,5.3,0.2,8c0,1.4,0.2,2.6,0.2,4l0.1,1.9l0.1,1v0.5c0,0.1,0,0.2,0.1,0.4
									c0.2,1.8,1.7,3.3,3.6,5.1c1.1,1,2,1.9,3,3c0.6,0.6,1.1,1.3,1.6,1.9c0.5,0.8,0.9,1.6,1.3,2.4s0.7,1.8,0.9,2.7
									c0.2,0.9,0.3,1.8,0.3,2.7c0,1.9-0.3,3.8-1.1,5.6c-0.8,1.9-2,3.7-3.7,5c-1.7,1.4-3.6,2.2-5.7,2.5c-2,0.3-4.1,0.1-6-0.7
									c-1.8-0.7-3.4-1.9-4.5-3.5c-1.1-1.4-1.7-3-1.8-4.8c-0.2-1.6,0-3.1,0.6-4.6c0.9,1.1,1.8,2,2.8,3c0.8,0.7,1.8,1.3,2.7,1.7
									c1.4,0.5,2.9,0.5,4.3-0.1c1.1-0.5,1.8-1.3,2.3-2.3c0.3-0.7,0.5-1.4,0.7-2.1c0.1-0.5,0.1-0.8,0.1-1.2c0-0.4,0-0.8,0-1.2
									c-0.1-1.7-1.2-3.6-2.7-5.9c-0.8-1.3-1.6-2.5-2.2-3.9c-0.8-1.6-1.2-3.2-1.2-5v-0.6v-0.5l0.1-1l0.1-1.9c0.1-1.4,0.2-2.6,0.2-4
									c0.1-2.6,0.2-5.3,0.2-8c0.1-1,0.9-1.7,1.8-1.6C1378.1,98.1,1378.8,98.8,1378.9,99.7L1378.9,99.7z"/>
								<path class="st1" d="M1354.7,306.9c22.2,6.3,23.6,46,43,55.7c9.5,4.9,16,0.2,20-5.7c2.1-4.7,3.5-9.7,3.9-14.9
									c3.8-38.5-21.4-71.5-28.7-96.4c-7.9-26.8-7.9-26.8-9.5-25.5c-4.9,0.6-11.1,2.8-12.5,0.4c-0.3-0.6-1-0.8-1.6-0.5
									c-0.3,0.2-0.5,0.4-0.6,0.8c-2.3,8.4-8.2,27.5-16.5,39.5c-7.4,10.5-18.7,32.7-20.3,53.5
									C1335,308.6,1341.6,303.2,1354.7,306.9z"/>
								<path class="st14" d="M1397.7,362.6c-19.4-9.7-20.8-49.5-43-55.7c-13.1-3.7-19.6,1.8-22.8,6.8c-0.8,10.1,0.7,19.9,6,28
									c16.4,24.4,44.1,28.7,44.1,28.7s25.3,7.2,35.6-13.4C1413.6,362.8,1407.2,367.5,1397.7,362.6z"/>
								
									<ellipse transform="matrix(0.5989 -0.8008 0.8008 0.5989 264.1308 1230.326)" class="st28" cx="1360.3" cy="351.5" rx="3.6" ry="12.1"/>
								<path d="M1406.7,357.4c1.1-0.6,1.9-1.4,2.7-2.2s1.5-1.8,2-2.8c1.1-1.9,1.8-4.1,2.1-6.3s0.4-4.6,0.3-6.8
									c0-1.2-0.2-2.3-0.2-3.5l-0.4-3.5c-1.3-9.4-3.5-18.8-6.5-27.8c-1.5-4.6-3.2-9.1-4.9-13.6l-5.2-13.7c-1.8-4.6-3.4-9.1-5-13.9
									c-1.7-4.7-2.7-9.5-3.5-14.5l0.4-0.1c1.3,4.7,2.9,9.3,4.9,13.8c1.8,4.5,3.9,8.9,5.8,13.5c4,8.9,7.8,18,11,27.3
									c3.2,9.3,5.3,19,6.2,28.7c0.3,4.9,0.6,9.9-0.8,14.7c-0.6,2.4-1.8,4.7-3.2,6.6c-1.5,2-3.5,3.6-5.8,4.5L1406.7,357.4z"/>
								<polyline class="st10" points="1372.9,196.9 1384.5,202.9 1378.6,138.2 1374.7,164 								"/>
								<path class="st10" d="M1377.2,90.4c-6.9-2.6-12.8-5.8-0.5-10.9V1"/>
							</g>
							<g>
								<path class="st1" d="M1445.1,119.6c5.4-6.1,16.2,2.6,10.8,10c-5.2,7-7.6,18.5-6.4,27.2c1.2,8.8-12.2,12.6-13.9,4.5
									C1432.4,146.7,1435.1,130.8,1445.1,119.6z"/>
								<path class="st1" d="M1437,169.8c3.8-7.9,17.1-2.9,13.6,6.2c-3.3,8.7-1.7,19.7,3.2,27.5s-6.2,17.4-11.5,10.4
									C1432.8,201.3,1430,184.3,1437,169.8z"/>
								<path class="st27" d="M1455.3,64.7c4.1,0,7.4,3.3,7.4,7.4c0,4.1-3.3,7.4-7.4,7.4s-7.4-3.3-7.4-7.4l0,0"/>
								<path d="M1457,79.5c0,2.6,0.1,5.3,0.2,8c0,1.4,0.2,2.6,0.2,4l0.1,2l0.1,1v0.5c0,0.1,0,0.2,0.1,0.4c0.2,1.8,1.7,3.3,3.6,5.1
									c1.1,1,2,1.9,3,3c0.6,0.6,1.1,1.3,1.6,1.9c0.5,0.8,0.9,1.6,1.3,2.4s0.7,1.8,0.9,2.7c0.2,0.9,0.3,1.8,0.3,2.7
									c0,1.9-0.3,3.8-1.1,5.6c-0.8,1.9-2,3.7-3.7,5c-1.7,1.4-3.6,2.2-5.7,2.5c-2,0.3-4.1,0.1-6-0.7c-1.8-0.7-3.3-1.9-4.5-3.5
									c-1.1-1.4-1.7-3-1.8-4.8c-0.2-1.6,0-3.1,0.6-4.6c0.9,1.1,1.8,2,2.8,3c0.8,0.7,1.8,1.3,2.7,1.7c1.4,0.5,2.9,0.5,4.3-0.1
									c1.1-0.5,1.8-1.3,2.3-2.3c0.3-0.7,0.6-1.4,0.7-2.1c0.1-0.5,0.1-0.8,0.1-1.2c0-0.4,0-0.8-0.1-1.2c-0.1-1.7-1.2-3.6-2.7-5.9
									c-0.9-1.3-1.6-2.5-2.2-3.9c-0.8-1.6-1.2-3.2-1.2-5v-0.6v-0.9l0.1-1l0.1-2c0.1-1.4,0.2-2.6,0.2-4c0.1-2.6,0.2-5.3,0.2-8
									c0.1-1,0.9-1.7,1.8-1.6C1456.2,77.9,1456.9,78.6,1457,79.5L1457,79.5z"/>
								<path class="st1" d="M1466.3,111.6c-9-4.3-15.9,9.6-6.8,13.9c8.6,4.1,13.4,14.8,9.8,23.8c-3.7,9.2,10.1,16,13.9,6.8
									C1489.9,139.4,1482.8,119.5,1466.3,111.6z"/>
								<path class="st1" d="M1477.4,161.9c-6.1-7.3-16.8,2.1-11,10.4c5.5,7.9,7.6,19.1,3.3,27.9c-4.3,8.9,6.7,17.7,11.9,9.3
									C1490.8,194.4,1488.6,175.3,1477.4,161.9z"/>
								<path class="st1" d="M1477,215.3c-3.8-8.2-16.3-1.6-12.9,8c3.2,9,2.8,22.3-0.4,31.4c-3.2,9.2,8.7,17.1,12.4,8.7
									C1482.7,248.1,1483.9,230.1,1477,215.3z"/>
								<path class="st1" d="M1481.1,265.4c-5.9-7.7-16.8,0.6-11.7,9.2c4.9,8.3,3.6,19.2-2.4,26.6c-6,7.4,3,18.4,9.8,11.4
									C1489,300,1492,279.6,1481.1,265.4z"/>
								<path class="st1" d="M1479.5,317.3c-6.3-7.7-18.5,1.9-12.1,9.6c6,7.3,5.8,19.2-1.3,25.8c-7.1,6.6,2.3,18.9,9.6,12.1
									C1489,352.5,1491.2,331.4,1479.5,317.3z"/>
								<path class="st1" d="M1479,369.1c-4.9-7.7-16.9-0.1-12.2,9c4.5,8.7,4.5,20.8,1,30.1s8.6,17.4,12.5,9
									C1487.7,402,1487.9,383.3,1479,369.1z"/>
								<path class="st10" d="M1455.6,70.2c-6.9-2.6-12.8-5.8-0.5-10.9V1"/>
							</g>
						</g>
						<path class="st2" d="M159.3,214.1c-12.1,17.5-9.9,41.6,7.6,54.9c4.3,3.2,9,5.4,14.2,6.6c-0.1,0.1-0.2,0.3-0.3,0.4
							c-12.1,17.5-9.9,41.6,7.6,54.9c16.3,12.4,42.8,9.8,54.9-7.6c1.3-1.8,2.3-3.7,3.3-5.6c2.2,3.2,5.1,6,8.2,8.4
							c16.3,12.4,42.8,9.9,54.9-7.6c11.9-17.1,10-40.7-6.6-54.1c11.3-17.4,8.9-40.9-8.3-53.8c-7.9-5.7-17.6-8.5-27.3-7.6
							c-2.5-6.8-6.9-12.8-12.7-17.1c-16.3-12.4-42.8-9.9-54.9,7.6c-1.3,1.8-2.4,3.8-3.4,5.8C182.5,197.3,167.5,202.2,159.3,214.1z"
							/>
						<path class="st2" d="M115.2,0.3c-0.2,25.4,15.7,48.8,41.6,55c-3.7,28.6,13.4,56.6,42.7,62.5c13.2,2.7,27.2-0.1,38.9-7
							c7.3,7.1,16.4,11.9,26.4,13.9c27.9,5.7,59.7-13.3,64.3-42.5c0.5-3.1,0.8-6.2,0.8-9.3c18.5-5.9,34.3-21.1,37.4-41
							c1.8-10.9,0.4-21.9-3.5-31.5"/>
						<path class="st2" d="M347.4,405c-0.5-9.7-7.9-18-18-18c-2.4,0-4.9,0.6-7,1.6v-0.2c-0.4-9.7-7.9-18-18-18
							c-9.4,0-18.4,8.3-18,18c0,1,0.2,2,0.4,3c-1.8-0.6-3.5-0.8-5.3-0.8c-9.4,0-18.4,8.3-18,18c0.4,9.5,7.6,17.6,17.4,18
							c0.7,9.4,8.1,17.4,17.9,17.4c4.5-0.1,8.8-1.8,12.1-4.9c2.8,1.8,6.1,2.7,9.4,2.7c9.4,0,18.4-8.3,18-18c-0.1-1.1-0.2-2-0.4-3.1
							C343.5,417.7,347.7,411.7,347.4,405z"/>
					</g>
				</g>
			</g>
		</g>
	</g>
</g>
</svg>
