<?xml version="1.0" encoding="utf-8"?>
<!-- Generator: Adobe Illustrator 25.2.1, SVG Export Plug-In . SVG Version: 6.00 Build 0)  -->
<svg version="1.1" id="Layer_1" xmlns="http://www.w3.org/2000/svg" xmlns:xlink="http://www.w3.org/1999/xlink" x="0px" y="0px"
	 viewBox="0 0 1684 1016.5" style="enable-background:new 0 0 1684 1016.5;" xml:space="preserve">
<style type="text/css">
	.st0{stroke:#000000;stroke-width:2.6;stroke-miterlimit:10;}
	.st1{fill:#FFFFFF;stroke:#000000;stroke-width:2.6;stroke-linecap:round;stroke-linejoin:round;}
	.st2{fill:#FFFFFF;stroke:#000000;stroke-width:2.6;stroke-miterlimit:10;}
	.st3{fill:none;stroke:#000000;stroke-width:2.6;stroke-miterlimit:10;}
	.st4{stroke:#000000;stroke-width:2.6;stroke-linecap:round;stroke-miterlimit:10;}
	.st5{fill:none;stroke:#FFFFFF;stroke-width:2;stroke-linecap:round;stroke-miterlimit:10;}
	.st6{fill:#FFFFFF;stroke:#000000;stroke-width:2.6;stroke-miterlimit:9.9999;}
	.st7{stroke:#000000;stroke-width:2.5999;stroke-linecap:round;stroke-linejoin:round;stroke-miterlimit:3.9999;}
	.st8{fill:none;stroke:#FFFFFF;stroke-width:2;stroke-linecap:round;stroke-linejoin:round;}
	.st9{fill:#FFFFFF;stroke:#000000;stroke-width:2.5999;stroke-linecap:round;stroke-linejoin:round;stroke-miterlimit:3.9999;}
	.st10{fill:none;stroke:#000000;stroke-width:2.6;stroke-linecap:round;stroke-linejoin:round;}
	.st11{fill:#FFFFFF;}
	.st12{stroke:#000000;stroke-width:2.5961;stroke-linecap:round;stroke-linejoin:round;stroke-miterlimit:3.994;}
	.st13{fill:#FFFFFF;stroke:#000000;stroke-width:2.6;stroke-linecap:round;stroke-miterlimit:10;}
	.st14{stroke:#000000;stroke-width:2.6;stroke-linecap:round;stroke-linejoin:round;}
	.st15{stroke:#000000;stroke-width:2.6001;stroke-linecap:round;stroke-linejoin:round;stroke-miterlimit:4.0002;}
	.st16{fill:none;stroke:#000000;stroke-width:2.6;stroke-linecap:round;stroke-miterlimit:10;}
	.st17{stroke:#FFFFFF;stroke-width:2.6;stroke-linecap:round;stroke-linejoin:round;}
	.st18{fill:none;stroke:#000000;stroke-width:6;stroke-linecap:round;stroke-linejoin:round;}
	.st19{stroke:#000000;stroke-width:2.5999;stroke-linecap:round;stroke-linejoin:round;stroke-miterlimit:3.9998;}
	.st20{fill:#387CDB;stroke:#000000;stroke-width:2.6;stroke-linecap:round;stroke-linejoin:round;}
	.st21{stroke:#000000;stroke-width:2.6001;stroke-linecap:round;stroke-linejoin:round;stroke-miterlimit:4.0001;}
	.st22{fill:none;stroke:#000000;stroke-width:6;stroke-linejoin:round;}
	.st23{fill:#FFFFFF;stroke:#000000;stroke-width:2.6;stroke-linejoin:round;}
	.st24{fill:none;stroke:#000000;stroke-width:2.6;stroke-linejoin:round;}
	.st25{stroke:#000000;stroke-width:2.5999;stroke-linejoin:round;stroke-miterlimit:3.9998;}
	.st26{stroke:#000000;stroke-width:2.6;stroke-linejoin:round;}
	.st27{fill:none;stroke:#000000;stroke-width:5;stroke-linecap:round;stroke-linejoin:round;}
	.st28{fill:#FFFFFF;stroke:#000000;stroke-width:2.6;stroke-linecap:round;stroke-linejoin:round;stroke-miterlimit:3.9999;}
</style>
<g>
	<g>
		<g id="Layer_2_1_">
			<g id="Layer_1-2">
				<g>
					<g>
						<g>
							<rect x="675.8" y="429.9" class="st0" width="284.6" height="136.2"/>
							<rect x="1006.8" y="378.7" class="st1" width="31" height="336.8"/>
							<rect x="633.7" y="378.4" class="st2" width="377.1" height="336.8"/>
							<line class="st3" x1="642" y1="497.5" x2="711" y2="378.7"/>
							<line class="st3" x1="711.7" y1="497.5" x2="780.7" y2="378.7"/>
							<line class="st3" x1="781.4" y1="497.5" x2="850.4" y2="378.7"/>
							<line class="st3" x1="851.1" y1="497.5" x2="920.1" y2="378.7"/>
							<line class="st3" x1="920.8" y1="497.5" x2="989.8" y2="378.7"/>
							<line class="st3" x1="636.1" y1="497.5" x2="1037.8" y2="497.5"/>
							<g>
								<path class="st2" d="M797.1,497.5c0-22.3,10.3-41.6,25.2-50.6c-4.6-2.2-9.7-3.4-14.9-3.4c-23.5,0-42.6,24.2-42.6,54
									s19.1,54,42.6,54c5.2,0,10.2-1.2,14.9-3.4C807.5,539.1,797.1,519.9,797.1,497.5z"/>
								<path class="st0" d="M850.1,497.5c0-23.2-11.5-42.9-27.7-50.6c-14.9,9-25.2,28.2-25.2,50.6c0,22.3,10.3,41.6,25.3,50.6
									C838.6,540.5,850.1,520.7,850.1,497.5z"/>
							</g>
							<g>
								<path class="st2" d="M915.4,497.5c0-13.1,6.3-24.3,15.3-28.9c-2.9-1.5-6.1-2.3-9.3-2.3c-13.6,0-24.7,14-24.7,31.3
									c0,17.3,11,31.2,24.7,31.2c3.3,0,6.5-0.8,9.3-2.3C921.7,521.8,915.4,510.6,915.4,497.5z"/>
								<ellipse class="st0" cx="930.7" cy="497.5" rx="15.3" ry="28.9"/>
							</g>
							<g>
								<path class="st2" d="M680.3,497.5c0-13.1,6.3-24.3,15.3-28.9c-2.9-1.5-6.1-2.3-9.3-2.3c-13.6,0-24.7,14-24.7,31.3
									c0,17.3,11,31.2,24.7,31.2c3.3,0,6.5-0.8,9.3-2.3C686.6,521.8,680.3,510.6,680.3,497.5z"/>
								<ellipse class="st0" cx="695.6" cy="497.5" rx="15.3" ry="28.9"/>
							</g>
							<rect x="1013" y="490.1" class="st2" width="24.5" height="15.7"/>
							<g>
								<path class="st2" d="M846.3,519.9c0,0-22.3-6.9-60.3,15.2c-34.5,20.1-73.3,16.5-74.7,2.1c40.8-27.4,21.3-95.9,24.1-107.3
									s18,24.4,18,24.4s12-0.5,19-1.8c-0.6-15.6-0.6-43.3,8.8-25.4c1.6,3,5.8,17.2,7.1,19.8c8.4,18,29.8,25.8,47.8,17.5
									c2.3-1.1,3.7-1.8,3.7-1.8S858.3,485.1,846.3,519.9z"/>
								<ellipse class="st0" cx="746.5" cy="494.1" rx="3.5" ry="7.2"/>
								<ellipse class="st0" cx="765.4" cy="494.1" rx="3.5" ry="7.2"/>
								<path class="st4" d="M754.8,496.8c0,7.4-4.3,8.9-4.3,8.9"/>
								<path class="st4" d="M774.4,496.8c0,7.4-4.3,8.9-4.3,8.9"/>
								<path class="st5" d="M746.2,489.2c0,0-1.9,0.7-1.2,7.5"/>
								<path class="st5" d="M765.1,488.7c0,0-1.9,0.7-1.2,7.5"/>
								<circle class="st0" cx="712.8" cy="535.1" r="5.6"/>
							</g>
							<path class="st0" d="M1037.9,415.2c0,0,56.9,4.8,59.1,71.7s-59.3,117.2-59.3,117.2L1037.9,415.2z"/>
							<path class="st2" d="M1099.5,653.1c0,0,11.8-0.4,3.4,18.6c-7.8,17.9-27.1,16-34.2,27.1c-5.7,8.8,0,16.5,20.7,16.5
								c23.1,0,31.3,0.1,44.5-19.4c27.8-41.1,15.1-97.9-11.5-101.6c-16.6-2.3-22.8,19.2-22.8,19.2l-9.3,2.8"/>
							
								<ellipse transform="matrix(0.9756 -0.2195 0.2195 0.9756 -112.264 256.39)" class="st6" cx="1097.7" cy="633.4" rx="12.8" ry="26.2"/>
							<path class="st0" d="M1037.8,615.5c0,0,37.2-13.8,47.1-8.3s19.4,53.7,12.2,58.1s-59.3,17.8-59.3,17.8L1037.8,615.5
								L1037.8,615.5z"/>
							<path class="st2" d="M794.6,499.4c10.3-1.7,10.5,12.1,3.3,20.5c-6.7,7.8-14,7.3-16,3.6c-3.2-6,3-8.3,5.6-12.9
								C789.3,507.2,789.9,500.1,794.6,499.4z"/>
							<path class="st2" d="M896.3,494.1c0,0-24.8,7.6-30.3,15.6s16.6,3.3,16.6,3.3"/>
							<path class="st2" d="M941.3,509.7c0,0-4-1.5-10.5,7.9c-6.3,9.2,0.4,30,1.5,37c1.3,8-8.2,7.8-8.2,7.8s-0.9,5.6-3.9,7.6
								c-2.8,1.8-7.8,2.9-13.8-1.9c-1.5,1.8-9.7,3.2-13.1-5.8c-11.8,0-11.8-16.4-11.8-39.9s20-32.8,30.3-35.5
								c18.5-4.9,27.5,1.8,27.5,1.8C948.5,497.5,941.3,509.7,941.3,509.7z"/>
							<path class="st2" d="M924.1,562.4c0,0-9.6,0.9-9.6-30.1"/>
							<path class="st2" d="M906.4,568.1c-4.7-10.3-5.2-35.8-5.2-35.8"/>
							<path class="st2" d="M893.3,562.4c0,0-3.8-20.4-2.5-30.1"/>
							<path class="st2" d="M1035.5,490.1c3.4,0,6.2,3.5,6.2,7.9s-2.8,7.9-6.2,7.9"/>
							<path class="st2" d="M1029.7,490.1c3.4,0,6.2,3.5,6.2,7.9s-2.8,7.9-6.2,7.9"/>
							<path class="st2" d="M1019.9,490.1c3.4,0,6.2,3.5,6.2,7.9s-2.8,7.9-6.2,7.9"/>
							<g>
								<path class="st2" d="M563.3,478.3c0,0-20.8-2.9-36.4,7.7c-15.7,10.5-27.2,59.4-13.1,103.7s86.8,21.6,86.8,21.6
									s51.8,23.8,63.6-3.9c-25.7-6.3-69.1-8.6-69.1-8.6s-52.7,10.9-62.4-12.7c-16.9-41.2,5.3-70.6,10.5-73.6
									c8.1-4.7,30.4-0.5,90.5,24.3l-0.2-93.4c-47.3-20.8-64.9,26.8-64.9,26.8"/>
								<path class="st2" d="M533.2,428.4c0,0,9.5,35.2,23.7,47.7s13.2-6.9,13.2-6.9s-17-7.2-16.9-31.2"/>
								<path class="st2" d="M529.8,388.8c-2.6,32.2,6.1,61.3,22.2,62.6s33.4-25.7,36-57.8s-9.6-42.8-25.7-44.1
									S532.5,356.7,529.8,388.8z"/>
								
									<ellipse transform="matrix(1.256546e-02 -0.9999 0.9999 1.256546e-02 184.2634 971.9101)" class="st7" cx="584.2" cy="392.7" rx="11.7" ry="8.1"/>
								
									<ellipse transform="matrix(1.256632e-02 -0.9999 0.9999 1.256632e-02 163.9342 947.6512)" class="st7" cx="561.8" cy="390.8" rx="11.7" ry="8.1"/>
								<polyline class="st8" points="555.5,394.2 562.8,387.2 562.8,394.2 568.9,389 								"/>
								<polyline class="st8" points="577.7,395.3 585.3,388 585.3,395 591,390.1 								"/>
								<path class="st2" d="M572.2,410.5c5.1,8,11.6,13,14.4,11.2s0.9-9.7-4.2-17.7c-5.1-8-10.4-10.5-13.2-8.6
									C566.3,397.2,567,402.6,572.2,410.5z"/>
								
									<ellipse transform="matrix(0.1082 -0.9941 0.9941 0.1082 136.3878 887.9753)" class="st9" cx="563.1" cy="368" rx="13.7" ry="88.2"/>
								<path class="st1" d="M594.3,369.9c0,0-9.3,4.8-36,1.3c-20.9-2.8-26.5-8.8-26.5-8.8c2.1-17.3,15.4-29.9,32.7-30.1
									C585.3,332.1,596.4,352.6,594.3,369.9z"/>
								<path class="st10" d="M543.4,410.1c9.3,7.6,21.8,10.2,33.4,6.8"/>
							</g>
							<path class="st2" d="M604.5,575.1l2.7,24c0,0,11,11.8,39.9,18c31.4,6.7,45.3,1,45.3,1l12.1-22.2L604.5,575.1z"/>
							<path class="st2" d="M604.3,581.4c-21.2-14.1,14.3-18,14.3-18c-0.8-4.8,2.5-9.4,7.3-10.2c0.1,0,0.2,0,0.2,0
								c9-1.8,12.7,4.4,21.8,1.3s25-3.5,27.3,5.5s10,5,15.5,8s12.4,14.4,12.4,14.4s24.5,15.6,2,20.3
								C692.3,619,608.7,599.1,604.3,581.4z"/>
							<path class="st11" d="M1086.3,522.4c0.6-10.4,1.2-20.5,0.7-30.5l-0.3-3.7c0-0.6,0-1.2-0.1-1.8l-0.2-1.8l-0.4-3.7l-0.6-3.6
								c-0.8-4.8-1.9-9.5-3.5-14.1c-3-9.2-7.9-17.6-14.3-24.8c-6.8-7.4-14.9-13.4-23.9-17.7h-0.1c-0.1-0.1-0.2-0.2-0.1-0.3l0,0
								c0-0.1,0.2-0.2,0.3-0.1c15.1,4.3,28,14.1,36.3,27.4c2.7,4.4,4.9,9.1,6.6,14c0.4,1.2,0.9,2.4,1.2,3.7l1,3.8
								c0.3,1.3,0.5,2.5,0.7,3.8l0.4,1.9c0.1,0.6,0.2,1.3,0.2,1.9l0.5,3.8l0.2,3.9c0.2,2.6,0.1,5.2,0.1,7.7
								c-0.3,10.3-1.7,20.5-4.2,30.5c0,0.1-0.2,0.2-0.3,0.2C1086.4,522.7,1086.4,522.6,1086.3,522.4L1086.3,522.4z"/>
							
								<ellipse transform="matrix(0.1302 -0.9915 0.9915 0.1302 16.5133 1139.891)" class="st12" cx="657.9" cy="560.5" rx="6.2" ry="7.4"/>
							<g>
								<path class="st2" d="M699.4,402.1L699.4,402.1c-1.1,0-2.3-0.3-3.3-0.8s-1.9-1.3-2.6-2.2c-0.7-0.9-1.1-2-1.3-3.1
									c-0.2-1.7-0.3-3.2-0.5-4.7s-0.2-2.8-0.2-4.1s-0.1-2.6-0.1-3.8s0-2.5,0-3.8s0.1-2.7,0.2-4.1s0.2-3,0.4-4.7
									c0.1-1.1,0.6-2.2,1.2-3.1c0.7-0.9,1.6-1.7,2.6-2.2s2.1-0.8,3.3-0.8l0,0c2.3-0.1,4.5,0.7,6.2,2.3c-0.4,1.3-0.6,2.6-0.8,3.9
									c-0.2,1.7-0.3,3.2-0.4,4.7s-0.2,2.8-0.2,4.1s-0.1,2.6-0.1,3.8s0,2.5,0.1,3.8s0.1,2.7,0.2,4.1s0.2,3,0.5,4.7
									c0.2,1.6-0.2,3.2-1.2,4.4C702.5,401.4,701,402.1,699.4,402.1z"/>
								<path class="st2" d="M712.6,403.9L712.6,403.9c-1.2,0-2.4-0.3-3.5-0.9s-2-1.4-2.8-2.3c-0.7-1-1.2-2.1-1.4-3.3
									c-0.2-1.9-0.4-3.7-0.6-5.3s-0.2-3.2-0.3-4.7s-0.1-2.9-0.1-4.3s0-2.9,0.1-4.3s0.2-3,0.3-4.7s0.3-3.4,0.6-5.3
									c0.2-1.2,0.7-2.3,1.4-3.3s1.7-1.8,2.8-2.3c1.1-0.6,2.3-0.9,3.5-0.9l0,0c4.6,0,7.4,1.1,8.4,2.3c0,0-2.7,2.5-2.9,4.3
									s-0.4,3.6-0.6,5.3s-0.2,3.2-0.3,4.7s-0.1,2.9-0.1,4.3s0,2.9,0.1,4.3s0.2,3,0.3,4.7s0.3,3.4,0.6,5.3c0.3,1.6-0.2,3.3-1.2,4.6
									C715.8,403.2,714.2,403.9,712.6,403.9z"/>
								<path class="st2" d="M725.6,403.9L725.6,403.9c-1.2,0-2.4-0.3-3.4-0.9c-1.1-0.6-2-1.4-2.7-2.3c-0.7-1-1.2-2.1-1.4-3.3
									c-0.2-1.9-0.4-3.6-0.6-5.2s-0.2-3.1-0.3-4.6s-0.1-2.9-0.1-4.3s0-2.8,0.1-4.3s0.1-3,0.3-4.6s0.3-3.3,0.5-5.2
									c0.2-1.2,0.6-2.3,1.3-3.3s1.7-1.7,2.7-2.3c1.1-0.6,2.2-0.9,3.4-0.9l0,0c6.7,0,8.2,2.7,9.2,3.9c-2.6,1.7-4.1,4.6-4.2,7.7
									c0,1.6-0.2,3.1-0.3,4.6s-0.1,2.9-0.1,4.3s0,2.8,0.1,4.3s0.2,3,0.3,4.6s0.3,3.3,0.6,5.2c0.3,1.6-0.2,3.3-1.2,4.6
									C728.8,403.2,727.3,403.9,725.6,403.9z"/>
								<path class="st2" d="M737.3,402.1L737.3,402.1c-1.5,0-3-0.6-4.2-1.6s-2-2.4-2.2-3.9c-0.2-1.9-0.4-3.7-0.5-5.3
									s-0.2-3.1-0.2-4.6s-0.1-2.9,0-4.4s0-3,0.1-4.6s0.2-3.4,0.4-5.3c0.2-1.5,0.9-2.9,2.1-3.9c1.1-1,2.6-1.6,4.1-1.6l0,0
									c6.2,0,11.7,5.2,12.6,11.9h-8.4c-0.1,1.6,0.4,11,0.5,12.6s0.3,3.4,0.5,5.3c0.2,1.4-0.2,2.8-1.1,3.9
									C740.1,401.5,738.8,402.1,737.3,402.1z"/>
							</g>
							<path class="st2" d="M691.3,375.6c0,0-9.9-14.5-16.1-9c-4.9,4.4,2.5,12.1,2.5,12.1h13.5L691.3,375.6L691.3,375.6z"/>
							<path class="st2" d="M597,613.7c39.2,27.5,71.6,6.6,71.6,6.6c-39.7-2.9-55.7-21-55.7-21s10.6-21.4,7.1-24.9
								c-6.6-6.8-26.1,23.9-26.1,23.9l-12.7-0.2l1.5,18.1L597,613.7z"/>
							<path d="M676.5,581.6c-0.8-0.7-1.6-1.3-2.5-1.8c-0.5-0.3-1.1-0.1-1.4,0.4c-0.1,0.2-0.1,0.3-0.1,0.5c0.1,1.2,0.6,2.3,1.5,3.1
								c0.3,0.7,1,1.2,1.7,1.4c0.9,0.2,1.8-0.3,2-1.2C677.8,583,677.3,582.1,676.5,581.6z"/>
							<path d="M643.3,582.2c-1.5,0.1-3,0.5-4.3,1.3c-0.3,0.1-0.5,0.4-0.5,0.7c-0.4,1,0.1,2.2,1.1,2.6c0,0,0,0,0.1,0
								c0.8,0.2,1.6,0,2.3-0.5c0.8-0.6,1.1-1.7,1.9-2.2S644.4,582.1,643.3,582.2z"/>
							<path d="M693.8,590.9l-2.5-1.2c-0.5-0.3-1.1-0.1-1.4,0.4c-0.2,0.3-0.2,0.7,0,1c-0.2,0.5-0.1,1,0.4,1.3c1,0.6,2.1,0.8,3.2,0.5
								c0.5-0.2,0.8-0.7,0.7-1.2C694.2,591.3,694,591.1,693.8,590.9z"/>
							<path d="M638.7,563.8H636h-0.1H635c-0.6-0.1-1.1,0.3-1.1,0.9s0.3,1.1,0.9,1.1c1.1,0.3,2.3,0.4,3.4,0.3c0.3,0,0.5-0.2,0.7-0.4
								c0.5-0.1,0.8-0.7,0.7-1.2C639.4,564.1,639.1,563.8,638.7,563.8z"/>
							<path d="M661.5,579.8c-0.3-0.4-0.8-0.6-1.3-0.4c-0.3,0-0.6,0.1-0.8,0.3c-0.7,0.6-1.1,1.5-1.2,2.4c0,1,0.8,1.9,1.8,1.9
								c0.8,0,1.5-0.5,1.8-1.2C662.2,581.8,662.1,580.7,661.5,579.8z"/>
							<path d="M687,573.1h-1.9c-0.6,0-1,0.4-1,1s0.4,1,1,1h1.9c0.6,0,1-0.4,1-1S687.6,573.1,687,573.1z"/>
							<path d="M628.3,573l-1.3,0.2c-0.6,0-1,0.4-1,1s0.4,1,1,1h0.5h0.2l0.7-0.1c0.6,0,1-0.4,1-1C629.4,573.5,629,573.1,628.3,573
								C628.4,573,628.4,573,628.3,573z"/>
							<path d="M674.3,591.6c-0.6,0-1,0.4-1,1c0,0.3,0.2,0.7,0.5,0.8c0.1,0.5,0.6,0.9,1.2,0.8c0.4-0.1,0.7-0.3,0.8-0.7
								c0.2-0.8-0.3-1.7-1.1-1.9C674.5,591.6,674.4,591.6,674.3,591.6z"/>
							<path class="st2" d="M577.3,593.9L577.3,593.9c2-0.2,3.9,1.2,4.1,3.3l2.3,19.5c0.2,2-1.2,3.9-3.3,4.1l0,0
								c-2,0.2-3.9-1.2-4.1-3.3L574,598C573.8,596,575.2,594.1,577.3,593.9z"/>
							<g>
								<path class="st2" d="M688.5,514.6c-3.3-1.6-15-2.1-26.3-0.2s-33.6,0.3-39-9.7c-1.5-2.8-1-11.2-1-11.2
									c-2.2-3.7-1.9-8.4,0.8-11.7c-1.9-5.1-0.6-10.7,3.4-14.4c-0.5-5,0.5-8.7,5-11.6c10.7-6.8,32.5,6.7,32.5,6.7
									c-0.8-5.2-1.2-10.4-1.3-15.6c0-10.1,6.5-16.9,11.1-1.5c4.3,14.7,10.3,26.5,22,29.8c0,0,5.3,1.5,3.5,19
									S688.5,514.6,688.5,514.6z"/>
								<path class="st1" d="M651.4,456.5c21.9,9.8,18,19.9,11.4,18.2c-8.8-6-27.1-6.9-27.1-6.9s37.2-0.1,32.8,21
									c-2.1,10.2-6.9-11.9-36.9-8.5c27.3-2.6,33.5,12.3,34.4,18.6c1.5,10.6-29-5.5-34.7-4.4"/>
							</g>
							<ellipse class="st2" cx="1013" cy="497.9" rx="6.2" ry="7.9"/>
							<ellipse class="st2" cx="1013" cy="497.9" rx="1.9" ry="2.4"/>
							<path class="st2" d="M1094.5,682.6c0,0,9.9-2.1,18.8,3.4"/>
							<path class="st2" d="M1102.9,671.8c0,0,10.7-3.3,18.4,2.4"/>
							<path class="st2" d="M1105.9,661.6c6.7-2.5,14.1-2.5,20.8,0"/>
							<path class="st13" d="M628.5,494.8c0,0,12-5.9,23.4,1.3c18,11.4,2.2,20.4-10.9,7.6l-5.5,2"/>
							<path d="M557.7,506c3.4,0.1,6.7,0.5,10,1.2c1.6,0.3,3.3,0.6,4.9,1s3.3,0.7,4.9,1.1c6.5,1.6,12.9,3.5,19.3,5.5
								c3.2,1,6.4,2.1,9.5,3.2s6.3,2.2,9.5,3.4s6.3,2.3,9.4,3.6l9.3,3.7l-1.6,3.7l-9.1-4.2c-3-1.4-6.1-2.7-9.2-4s-6.2-2.6-9.2-3.9
								s-6.2-2.5-9.3-3.7c-6.2-2.4-12.5-4.5-18.9-6.5c-1.6-0.5-3.2-1-4.8-1.4s-3.2-0.8-4.9-1.2C564.3,506.8,561,506.3,557.7,506z"/>
						</g>
						<line class="st3" x1="102" y1="901.7" x2="1589.5" y2="901.7"/>
						<g>
							<rect x="339.2" y="730.6" class="st2" width="1099.2" height="171"/>
							<g>
								<rect x="1221.7" y="759.2" class="st2" width="174" height="15.3"/>
								<rect x="1249" y="804.4" class="st2" width="174" height="15.3"/>
								<rect x="1276.4" y="849.6" class="st2" width="174" height="15.3"/>
							</g>
							<g>
								<rect x="1282.3" y="759.2" class="st1" width="174" height="15.3"/>
								<rect x="1309.7" y="804.4" class="st1" width="174" height="15.3"/>
								<rect x="1337" y="849.6" class="st1" width="174" height="15.3"/>
							</g>
							<g>
								<rect x="278.8" y="715.4" class="st2" width="1250.7" height="15.2"/>
								<rect x="1218.2" y="715.3" class="st1" width="311.2" height="15.3"/>
							</g>
						</g>
						<g>
							<polygon class="st11" points="1184.8,618.5 1156.3,590.3 1170.6,547.7 1223.6,504.8 1374.9,539.3 1369.3,603.1 							"/>
							<path class="st14" d="M1377.1,579.9c5.3,55.6,8.6,123.3,12,179l-80.3,0.1c-23.6-0.3,11.4-28.4,25.3-21.3
								c-3.3-31.6-18.3-71.6-21.3-103.3c-14.5,0-64.4-5-63.3,9.5c2,26.9,6.3,42.8,6.1,71l-70.1,0.1c-31.6,0,6.1-28,20.3-21
								c-10.9-27.8-9.5-36.1-9.5-36.1"/>
							<path class="st2" d="M1346.4,587.3c4,11.9,4,35.1,4,35.1l32.5-0.6l1,12.2l-32.7,1.2c0,0,0.4,46.6,9.7,72.6
								c-105.4-1.2-105.8-59.2-164.3-41.6c-15.3-30.7-21-74.3,16.5-77.7"/>
							<path class="st0" d="M1254.2,574.2c1.5,3,2.9,5.3,4.4,8.8c14.4,12.1,42.6,32.4,47,47.8s26.4,9.4,29.2-1.2
								c-29.2-27.6-50.2-46.3-69.9-65.7C1268.4,567.4,1257.8,570.8,1254.2,574.2z"/>
							<path class="st2" d="M1191.8,518.8c-27.3,16.7-54.1,65.1-34.4,92.8c15.6,22,39,26.5,53.4,17.5c9.7-6,3.1-9.4,6.4-14.5
								c2.7-3.2,3.8-7.4,3.2-11.5c-0.6-2.8-3.2-7.5-6.4-8.3c0.1-5,2.7-4.9-2.5-10.7c-2.6-2.9-17.2-4.5-22.3-0.4
								c-2.2-3.5,0.6-4.4-2.5-8.1s-18.3,5-18.4,9.3"/>
							<path class="st2" d="M1337.5,539.8l15.8,14.7c-22.6,0-44.7,16.3-55.8,16.8c-8.8-7.4-16-7.4-28.5-3c0,0,5,4.3,8.7,7.5
								c-6.6,4.8-10.3,19.2-20,9.5c-1.5,3.7-2.1,7.7-1.8,11.7c0.2,2.5,2.3,3.2,2.9,5.4s-0.2,5.8,0.7,7.3c1.9,3.2,4.3,6.2,6.9,8.8
								c1.9,1.8,5.4,2.4,8.3,4c2.1,1.1,3.3,3.3,6.1,4.3c10.1,3.6,20.3-4.3,33.1-5.6c36.8-3.9,95.9-6.4,104.8-61.2
								c10-61.3-86.6-84.8-109.2-82.1c-56.5,6.8-84.7,11.2-117.8,40.8"/>
							
								<ellipse transform="matrix(0.9756 -0.2195 0.2195 0.9756 -98.9484 276.0451)" class="st6" cx="1192.8" cy="583.3" rx="14.9" ry="7.7"/>
							<path class="st2" d="M1227.3,586.6c16.3-10.4,41.8-18.4,41.8-18.4L1119.7,423c7.2,34.5,21.3,68.5,44,94.5
								C1184.8,541.8,1204,562,1227.3,586.6z"/>
							<path class="st2" d="M1197.4,580.8L1155,416.6l-4.4,1.2l36.3,166.6C1191.3,584.4,1195.4,583.2,1197.4,580.8z"/>
							<path class="st1" d="M1318.4,480.3c-6.4-27.8-19.9-82.2-19.9-82.2c16-5.2,27.4-14.7,22-32.7c-3.8-12.8-18.3-16.4-30.5-10.8
								c-1.8-10.3-8.9-17.5-19.9-17.5c-21.8,0-31.4,20.4-31.4,20.4c-17.5-8.5-32.6-5.9-40.8,4.8c-6.5,8.4-1.2,22.1,6.2,28.2
								c-13.3,8.8-20.1,19.9-12.5,30.1c8.9,11.9,26.4,4.8,26.4,4.8c4.3,23.7,15.8,73.7,15.8,73.7
								C1252,520.3,1294.4,497.1,1318.4,480.3z"/>
							<path class="st3" d="M1346.7,483.3c-27.3,9.2-31.4,47.3-11.4,73.9"/>
							<path class="st2" d="M1337.1,480.7c-20.2,5.7-30.7,25-31,47.3c-22.3,7.8-51.9,10.8-71.8,6.5"/>
							<path class="st2" d="M1232.5,496.2c-5.7,6.5-10.5,17.9-11.3,26.4"/>
							<path class="st14" d="M1242.1,446.5c1,4.7,2.7,13.5-3.7,14.7s-8.2-7.7-9.2-12.4s-2.7-13.5,3.7-14.6
								S1241.1,441.8,1242.1,446.5z"/>
							<path class="st14" d="M1261,442.2c1,4.7,2.7,13.8-3.8,14.8s-8.2-7.8-9.2-12.5s-2.8-13.6,3.7-14.8S1260.1,437.5,1261,442.2z"
								/>
							<path class="st1" d="M1277.5,473.5c1.2-1.2,2.1-2.7,2.8-4.2c1.9-4.3,1.7-8.2-2.2-11c-4.3-3.1-8.2-1.3-11.9,2.4
								c-2.6,2.7-5.3,5-9.7,6.1c-3.5,0.9-7.9,2.6-8.4,7.1s2.7,8.8,6.8,9.3C1264.7,484.3,1271.6,480,1277.5,473.5z"/>
							<path class="st1" d="M1248.3,476.3c13.5,0,24.9-3.9,30.5-17c-1.6-0.8-3.1-1.7-4.7-2.5c1,1.8,2,3.6,3,5.5l4,3.8
								c-0.4-1.8-0.8-3.7-1.3-5.5"/>
							<path class="st2" d="M1389.1,502.5c0,0-27.2-0.3-44,44.3"/>
							<path class="st3" d="M1223.6,497c0,0-7.7,9.1-10.6,17.6"/>
							<path class="st3" d="M1205.9,578.4c2.9-2.5,4.6-6.1,4.8-9.9"/>
							<g>
								<path class="st1" d="M1341.3,587.9c0,0,10.7-8.5,4.7-15.6s-20.6,12.5-24.7,24.7C1347.5,609.4,1373.9,585.4,1341.3,587.9z"/>
								<line class="st10" x1="1332.2" y1="590.3" x2="1318" y2="584"/>
								<line class="st10" x1="1348.9" y1="599" x2="1358.7" y2="603.3"/>
							</g>
							<path class="st11" d="M1205.8,698.2c-3.2,0.8-5.8,1.4-8.2,2.1c-2.3,0.7-4.5,1.5-6.7,2.5c-2.2,0.9-4.4,2-6.8,3.1
								s-4.9,2.3-8,3.5h-0.1c-0.1,0-0.3,0-0.3-0.1l0,0c0-0.1,0-0.1,0-0.2c1.7-2.4,3.7-4.5,5.9-6.3c2.2-1.9,4.7-3.4,7.4-4.6
								c2.7-1.1,5.6-1.8,8.5-1.9c2.9-0.1,5.8,0.4,8.5,1.4c0.1,0,0.2,0.2,0.1,0.3l0,0c0,0.1-0.1,0.1-0.2,0.2H1205.8z"/>
							<path class="st11" d="M1335.5,742.4c-3.2,0.8-5.8,1.4-8.2,2.1s-4.5,1.5-6.7,2.5s-4.4,2-6.8,3.1s-4.9,2.3-8,3.5l-0.1,0.1
								c-0.1,0-0.3,0-0.3-0.1s0-0.1,0-0.2c1.7-2.4,3.7-4.5,5.9-6.3c2.2-1.9,4.7-3.4,7.4-4.6c2.7-1.1,5.6-1.8,8.5-1.9
								c2.9-0.1,5.8,0.4,8.5,1.4c0.1,0,0.2,0.2,0.1,0.3l0,0c0,0.1-0.1,0.1-0.2,0.2L1335.5,742.4z"/>
							<path class="st11" d="M1384.7,753.5c-2.3-9.4-4-18.9-5.1-28.5c-1.2-9.5-2.2-19.1-2.8-28.7s-0.9-19.2-0.9-28.8
								c-0.1-9.7,0.4-19.4,1.5-29l0,0c0-0.1,0.1-0.2,0.3-0.2l0,0c0.1,0,0.2,0.1,0.2,0.2l1,14.4l1,14.4l1.9,28.8l1.8,28.8l0.9,14.4
								l0.8,14.4c0,0.1-0.1,0.3-0.2,0.3l0,0C1384.9,753.7,1384.8,753.6,1384.7,753.5L1384.7,753.5z"/>
							
								<ellipse transform="matrix(0.9297 -0.3683 0.3683 0.9297 -139.1873 529.6736)" class="st6" cx="1318" cy="629.5" rx="4.9" ry="4.3"/>
							<path d="M1294.7,402.1l9.3,38.5l8.9,38.5l-0.4,0.1c-2.8-6-5.2-12.3-7.2-18.6c-1.1-3.1-1.9-6.3-2.8-9.5s-1.7-6.4-2.5-9.6
								s-1.4-6.4-2.1-9.7s-1.3-6.5-1.7-9.8c-1.1-6.6-1.8-13.2-2-19.9H1294.7z"/>
						</g>
					</g>
					<g>
						<g>
							<path class="st1" d="M1596,538.7c0,0,9.2-6.4,13.5,1.6s-7.6,16.3-12.9,16.9"/>
							<ellipse cx="1438.5" cy="974.3" rx="102" ry="6.8"/>
							<path class="st1" d="M1417.8,934.5c2.6,10.4,5.3,40,5.3,40h6.1v-9.3"/>
							<path class="st14" d="M1480.1,686c-0.9,0-1.9-0.1-2.8-0.2c-14-1.5-26.2-11.5-22-25c13.3-42.9,7.9-62.9-0.5-67.8l64,23
								l0.1-0.1c-7.9,15-13,31.3-14.9,48.2C1502.6,677.2,1492.9,686,1480.1,686z"/>
							<path d="M1465.2,534.2c-0.7,0.8-1.4,1.6-2.2,2.3c-0.8,0.7-1.5,1.3-2.4,1.9c-1.6,1.1-3.2,2.1-4.9,2.9
								c-1.6,0.8-3.3,1.5-5.1,2.1l-5.1,1.8c-3.4,1.2-6.8,2.4-10.2,3.7s-6.7,2.5-9.9,3.8c-3.2,1.3-6.3,2.7-9.3,4.3
								c-2.8,1.5-5.4,3.2-7.8,5.3c-2,1.6-3.6,3.6-4.7,5.8l-0.3,0.7l-0.2,0.6c-0.1,0.3-0.1,0.6-0.2,0.9c0,0.1,0.1,0,0-0.4
								c-0.1-0.6-0.3-1.1-0.6-1.6c-0.2-0.4-0.5-0.7-0.8-1c-0.1-0.1,0,0,0.3,0c1,0.3,2,0.5,3.1,0.6c3.2,0.3,6.5,0.5,9.7,0.3
								c3.5-0.1,7.2-0.3,11-0.5l11.6-0.8c7.9-0.4,16.1-1,25.4-0.2c5.3,0.4,10.5,1.6,15.4,3.6c3.2,1.3,6.2,3.2,8.9,5.5
								c3.1,2.7,5.7,6,7.5,9.7c3.3,8.3-0.7,17.8-9.1,21.1c-8.1,3.2-17.2-0.5-20.8-8.4c0.3,0.2,0.7,0.5,0.9,0.4s0-0.5-0.6-0.9
								c-2-1.3-4.3-2.2-6.6-2.7c-3.2-0.7-6.5-1.3-9.7-1.6c-3.5-0.4-7.1-0.6-10.8-0.7l-11.4-0.3c-3.9-0.1-7.9-0.1-12-0.4
								c-4.4-0.2-8.9-0.7-13.2-1.5c-2.7-0.5-5.4-1.3-8-2.4c-1.7-0.7-3.3-1.7-4.7-2.8c-1.9-1.4-3.5-3.1-4.7-5.1
								c-1.3-2.1-2.2-4.5-2.6-7c-0.3-2-0.3-4.1,0-6.2c0.3-1.6,0.7-3.2,1.2-4.7c0.2-0.7,0.5-1.4,0.8-2.1s0.6-1.3,0.9-2
								c2.4-4.6,5.6-8.7,9.4-12.2c3.3-3.1,6.8-6,10.5-8.6c3.5-2.5,7.1-4.7,10.9-6.8c7.2-4,14.8-7.2,22.6-9.7
								c1.9-0.6,3.9-1.2,5.8-1.7c1.9-0.6,3.9-1,5.9-1.2c2.1-0.2,4.1-0.3,6.2-0.1c1.1,0.1,2.2,0.2,3.2,0.5c1.2,0.2,2.3,0.5,3.4,1
								c4.5,1.6,6.9,6.5,5.4,11.1c-0.3,0.8-0.7,1.6-1.2,2.4L1465.2,534.2z"/>
							<path d="M1588.8,577.8c1.1,1.6,1.9,3.4,2.5,5.2c0.5,1.7,0.8,3.4,1,5.1c0.2,1.7,0.2,3.3,0,5c-0.1,1.7-0.3,3.3-0.5,5
								c-0.8,6.6-2,13.2-3.6,19.7c-1.6,6.6-3.5,13.1-5.8,20c-0.6,1.8-1.2,3.5-2,5.4c-0.9,2.2-1.9,4.3-3.2,6.3l-0.6,0.9l-0.6,0.8
								c-0.4,0.5-0.9,1.1-1.4,1.7c-0.6,0.6-1.2,1.2-1.9,1.8c-0.8,0.7-1.7,1.3-2.7,1.9c-1.2,0.7-2.5,1.2-3.9,1.5
								c-1.6,0.4-3.2,0.5-4.8,0.4c-1.5-0.1-3-0.5-4.3-1c-1.1-0.4-2.2-1-3.2-1.6c-1.4-0.9-2.7-2-3.8-3.2c-0.9-0.9-1.7-1.8-2.4-2.8
								c-1.4-1.8-2.4-3.4-3.4-4.9c-2-3.1-3.7-5.9-5.3-8.7s-3.2-5.3-4.9-7.8c-1.6-2.3-3.3-4.6-5.1-6.8c-3.5-4.1-7.3-7-10.5-8.2
								c-1.4-0.5-3-0.7-4.5-0.6c-1.6,0.1-3.1,0.5-4.6,1.2c-8.4,3.5-18.1-0.5-21.6-8.9s0.5-18.1,8.9-21.6l0,0c1.5-0.6,3-1,4.6-1.2
								l2.2-0.2c4.9-0.5,9.8-0.4,14.7,0.6c4.9,1,9.6,2.8,13.8,5.4c3.8,2.4,7.3,5.2,10.4,8.5c2.7,2.9,5.2,6.1,7.4,9.4
								c2,3.1,3.9,6.2,5.6,9.5c1.7,3.1,3.2,6.2,4.6,9.1s2.8,5.8,4.1,8.3c0.7,1.2,1.3,2.4,1.9,3.2c0.3,0.4,0.5,0.8,0.7,1
								s0.2,0.2-0.2,0c-0.9-0.5-1.9-0.9-3-0.9c-0.8-0.1-1.6,0-2.4,0.2c-0.6,0.1-1.1,0.4-1.6,0.7c-0.2,0.1-0.5,0.3-0.7,0.5
								c-0.1,0.1-0.1,0.2-0.1,0.1l0.2-0.2l0.2-0.2v-0.1c0.5-0.7,0.9-1.5,1.2-2.4c0.5-1.2,0.9-2.5,1.2-3.7c0.8-2.8,1.4-5.7,1.8-8.6
								c0.5-3,0.8-6.1,1.2-9.2c0.6-6.2,1.3-12.5,2.2-18.7c0.2-1.6,0.5-3.1,0.8-4.7c0.2-1.6,0.6-3.1,1.1-4.7c0.5-1.6,1.2-3.1,2-4.6
								c0.9-1.6,2.1-3.1,3.4-4.4l0.4-0.4c3.9-3.6,10-3.4,13.6,0.6l0,0C1588.2,577,1588.5,577.4,1588.8,577.8z"/>
							<path class="st2" d="M1573.3,580.5c-3.7-5.8-6.2-12.2-7.6-18.9c-2.2-11.2,9-19,10-14s10.1,28.2,10.1,28.2L1573.3,580.5z"/>
							<path class="st1" d="M1471.7,934.5c2.6,10.4,5.3,40,5.3,40h6.1v-18.8"/>
							<path class="st1" d="M1475.6,914.8c-3.6,5.9-5.1,12.8-4,19.7c1.8,11.3,24.2,42,38.7,42h10.5c2,0,3.8-1.3,4.6-3.1
								c2.3-5.4-1.7-15.9-10.7-16.4c-5.3-14.5-13.2-22.5-17.9-32.6"/>
							<path class="st1" d="M1453.7,713.2l21.3,96.3c0,0-21.3,39.6,4.9,99.6c-12.4,12.6,0.2,23.8,0.2,23.8s33.8,34.4,28.8,12.1
								c-5.7-9.7-9.1-20.5-9.8-31.7c-4.5-58.7,11.6-154.7,11.6-154.7L1453.7,713.2z"/>
							<path class="st1" d="M1422.6,914.8c-4,5.7-5.6,12.8-4.4,19.7c2,11.3,12.5,42,28.5,42h11.6c2.2,0,4.1-1.2,5.1-3.1
								c2.6-5.4,0.4-12.3-5.5-16.4c-2.8-11.3-10.8-23.3-12-32.6"/>
							<path class="st1" d="M1424.9,758.7l4.5,50.9c0,0-22,32.8-3,96.8c-8.2,13.8-1.5,20.5,0.2,24.3c5,10.9,24.8,31.3,22.3,13.8
								c-9.2-63.1,31.5-231.3,31.5-231.3L1424.9,758.7z"/>
							<path class="st2" d="M1455.7,660.5c0,0-47.8,30.2-30.8,98.2h85.9c0,0,10.4-48.3-6.6-92.5
								C1475.1,672.8,1455.7,660.5,1455.7,660.5z"/>
							<path class="st1" d="M1457.9,956.9c0,0-11.2-3.1-19.2,1.9"/>
							
								<ellipse transform="matrix(0.2002 -0.9798 0.9798 0.2002 606.5035 1951.0997)" class="st15" cx="1498.3" cy="604.1" rx="24.9" ry="37.1"/>
							<path class="st2" d="M1488.2,578.7l22.6-31l15.3,4.3l-12.1,35.1c0,0,37.8,28.8-7.9,22.3
								C1457.9,602.6,1488.2,578.7,1488.2,578.7z"/>
							
								<ellipse transform="matrix(0.1331 -0.9911 0.9911 0.1331 784.1863 1975.0541)" class="st2" cx="1521.1" cy="539.3" rx="27.5" ry="40.4"/>
							<path class="st2" d="M1554.3,545.2c-2.9,7.9-11.8,12-18.7,9.5s-9.3-10.7-6.4-18.6s10-12.7,16.9-10.1
								S1557.2,537.2,1554.3,545.2z"/>
							<path class="st2" d="M1532.6,537.2c-2.9,8-11.8,12-18.7,9.5s-9.3-10.7-6.4-18.6s10-12.7,16.9-10.1S1535.5,529.3,1532.6,537.2
								z"/>
							<path class="st13" d="M1514,609.2c0,0-1.5-7.2-5.7-12.2"/>
							<path class="st13" d="M1533.6,513.9c0,0,19.3-33.2,36.2-47.4c1.1-0.9,2.7-0.3,2.3,1.1l-16.8,61"/>
							<path class="st13" d="M1492.6,518.6c3.8-5,11.7-30.6,44.4-60.7c1.1-1,2.7-0.3,2.3,1.1l-15.3,54.9"/>
							<path class="st1" d="M1483.5,534.8c-2.9,2.4-6.2,4.3-9.7,5.6c-10,3.9-25.4-1-26-9.8c-0.5-7.5,6.7-28.2,55.7-26.2
								c7.1,0.3,5.9,7.7,0.7,7.2c-6.8-0.6-15.1,2.8-15.1,2.8"/>
							<path class="st1" d="M1483.6,511.4c0,0,10.7,0.7,12.3,9.5s-5.9,10.9-5.9,10.9"/>
							<path class="st1" d="M1479.6,533.2c0,0,6.1,8.5,10.2,1.5s0.7-17.7-8.2-16.2"/>
							<path class="st1" d="M1480.4,527.8c0,0,7.3,0.3,5.8,8.6c-1.6,8.6-9.3,6.8-8,3.2c1.7-4.9-2.2-3.6-2.2-3.6"/>
							<path class="st14" d="M1529.4,550.2c-0.5,1.5-4.5,3.3-5.3,3.1s-3.1-4.1-2.6-5.6s2.4-1.4,4.6-0.7S1529.8,548.6,1529.4,550.2z"
								/>
							
								<ellipse transform="matrix(0.2849 -0.9586 0.9586 0.2849 547.505 1844.859)" class="st15" cx="1510.2" cy="555.5" rx="3.7" ry="7.1"/>
							<path class="st1" d="M1580.6,569.3c7.1-5.4,13.4-6.7,20.6-19.3c3.5-6.1,8.2-3.6,8.2,3.9c0,14.3-14.6,27.6-25.3,29.2
								c-4.4,0.6-9.8-1.6-9.4-6"/>
							<path class="st4" d="M1515.7,531.4c-1,2.7-2.6,5-4.6,7c-0.8-5.7,1.2-11.4,5.4-15.3C1516.9,525.9,1516.6,528.8,1515.7,531.4z"
								/>
							<path class="st4" d="M1537.9,539.4c-1,2.7-2.6,5-4.6,7c-0.8-5.7,1.2-11.4,5.4-15.3C1539.1,533.8,1538.8,536.7,1537.9,539.4z"
								/>
							<path class="st16" d="M1524.8,512.1c7.4,1,14.2,3.3,23,9"/>
							<path class="st2" d="M1565.5,553.2c8.9-12.2,14.6-26.1,18.4-39.4c3.9-13.5,18.4-6.2,15.7,5.7c-3.3,14.5-13.4,36.2-23.7,46.4
								C1567.4,574.2,1558.5,562.8,1565.5,553.2z"/>
							<path class="st1" d="M1563,565.2c13-16.1,24.6-41,28.9-60.9c1.7-7.8,13.5-5.3,11.8,2.4c-4.6,21-18.3,49.6-31.9,66.6
								C1566.7,579.5,1558,571.4,1563,565.2z"/>
							<path class="st2" d="M1574,559.8c7.5-8.8,16.7-29.5,20-40.9c4.6-16.1,18.3-9.9,16.6,2.2c-2,14.8-14.1,39.1-23.5,50.2
								C1579.3,580.4,1566.3,568.9,1574,559.8z"/>
							<path class="st1" d="M1514.7,956.9c-6.4,0.5-8.4,1.9-8.4,1.9"/>
							<path d="M1500.7,673.1c2.2,6.3,3.9,12.8,5,19.5c1.2,6.6,2,13.3,2.5,20c0.1,1.7,0.1,3.3,0.2,5l0.1,2.5v7.5l-0.2,5l-0.1,2.5
								c-0.1,0.8-0.1,1.7-0.2,2.5l-0.4,5c-0.3,3.3-0.8,6.7-1.2,10h-0.4c-0.4-3.4-0.4-6.8-0.6-10.1l-0.2-5c0-0.8,0-1.7,0-2.5
								l-0.1-2.5c-0.1-1.7-0.2-3.3-0.2-5l-0.3-4.9c-0.1-0.8,0-1.6-0.1-2.5l-0.1-2.5l-0.3-4.9l-0.3-4.9c-0.1-1.6-0.3-3.3-0.4-4.9
								s-0.2-3.3-0.4-4.9l-0.4-4.9c-0.7-6.6-1.4-13.1-2.3-19.9L1500.7,673.1z"/>
						</g>
						<g>
							<g>
								<ellipse class="st17" cx="160.2" cy="487.3" rx="30.7" ry="38.8"/>
								<ellipse class="st17" cx="233.6" cy="470.7" rx="43.8" ry="55.4"/>
								<ellipse class="st17" cx="174" cy="487.3" rx="30.7" ry="38.8"/>
								<ellipse class="st17" cx="247.5" cy="470.7" rx="43.8" ry="55.4"/>
								<g>
									<path class="st17" d="M154.2,478.3c-3.7,14.7,2.2,30.5,13.2,35.5l4-15.7c1.5-6-0.9-12.5-5.4-14.5L154.2,478.3z"/>
									<path class="st17" d="M180.7,460.7c-11-4.9-22.9,2.9-26.6,17.6l11.8,5.3c4.5,2,9.3-1.2,10.8-7.2L180.7,460.7z"/>
									<path class="st17" d="M180.7,460.7l-4,15.7c-1.5,6,0.9,12.5,5.4,14.5l11.8,5.3C197.6,481.6,191.7,465.7,180.7,460.7z"/>
									<path class="st17" d="M167.3,513.8c11,5,22.9-2.9,26.6-17.6l-11.8-5.3c-4.5-2-9.3,1.2-10.8,7.2L167.3,513.8z"/>
								</g>
								<g>
									<path class="st17" d="M279.5,486.7c-6.8,23-26.6,34.5-44.3,25.7l9.2-31.2c1.7-5.8,6.7-8.7,11.2-6.5L279.5,486.7z"/>
									<path class="st17" d="M259.8,428.9c17.7,8.9,26.5,34.8,19.7,57.8l-23.9-12c-4.4-2.2-6.7-8.8-5-14.5L259.8,428.9z"/>
									<path class="st17" d="M259.8,428.9l-9.2,31.2c-1.7,5.8-6.7,8.7-11.1,6.5l-23.9-12C222.3,431.5,242.1,420,259.8,428.9z"/>
									<path class="st17" d="M235.2,512.4c-17.7-8.9-26.5-34.7-19.7-57.8l23.9,12c4.4,2.2,6.7,8.8,5,14.5L235.2,512.4z"/>
								</g>
							</g>
							<g>
								<polygon class="st14" points="253.1,542.6 281.3,518.8 319.5,518.8 								"/>
								<polygon class="st14" points="253.1,575.9 281.3,599.5 319.5,599.5 								"/>
								<g>
									<rect x="223.2" y="724.3" class="st17" width="13.3" height="69"/>
									<path class="st17" d="M223.3,793.3h13.2l-45.4,195.4c-0.3,1.3-2.6,2.2-3.9,2.2l0,0c-1.8,0-4-1.1-3.6-2.9L223.3,793.3z"/>
									<path class="st17" d="M236.7,793.3h-13.5l108.3,200.1c1.2,1.4,2.9,2.3,4.6,2.7l0,0c1.7,0,3-1.3,3.1-2.9
										c0-0.5-0.1-1-0.4-1.5L236.7,793.3z"/>
									<path class="st17" d="M223.2,793.3h12.7L125.7,994.6c-0.5,1-1.6,1.6-2.7,1.6l0,0c-1.7,0-3-1.3-3.1-2.9c0-0.5,0.1-1,0.4-1.5
										"/>
									<ellipse cx="212.3" cy="995.9" rx="140.3" ry="8"/>
								</g>
								<polygon class="st17" points="320.9,518.8 320.9,600.6 270,583.7 270,540.2 								"/>
								<rect x="149.7" y="522.5" class="st17" width="120.6" height="74.6"/>
								<rect x="218.6" y="597" class="st17" width="22.1" height="10"/>
								<rect x="138.8" y="522.5" class="st17" width="46.9" height="74.6"/>
							</g>
							<g>
								<line class="st18" x1="469.8" y1="871" x2="497.3" y2="995.5"/>
								<line class="st18" x1="412" y1="871" x2="375.5" y2="995.5"/>
								<path class="st14" d="M702.6,878.2c0,0,14.3-48.6,33.9-57.2s24.4,7.5,13.1,28.6c-7.7,14.7-14.5,29.8-20.5,45.2l-7.3,5.7
									l4.5,5.1c0,0-1.7,17.5-11.5,18.3s-18.7-15.8-18.7-15.8"/>
								<path class="st14" d="M693.7,774c11.7-19.6,9-50.6,18.9-60.2c13.2-13,25.5,1,23.7,19.2s-7.2,35.1-15.4,51.8
									c-2.7,2.5-5.6,4.7-8.4,7c1.5,1.6,3.1,2.9,4.7,4.5c-1.5,6.8-2.8,17.6-10.9,19.3s-15.8-6.6-19.6-12.7"/>
								<path class="st14" d="M469.3,871c0,0-179.2,19.3,65.7,17.7c57.1-0.4,67.7-17.7,67.7-17.7H469.3z"/>
								<path class="st1" d="M424.5,707.9c-43.3,1.3-55.2-103.7-53.7-167.2c-9.3-6.6-20.4-4-29.9-2.4
									c-5.3,59.6-9.3,133.1,42.3,206.7c32.5,46.4,11.5-17.8,28.7-15"/>
								<circle class="st14" cx="474.5" cy="655.3" r="4.7"/>
								<polyline class="st18" points="369.2,752.7 383.6,871 491.6,871 								"/>
								<path class="st14" d="M383.6,871c0,0,8.6,17,65.7,17s67.7-17,67.7-17H383.6z"/>
								<path class="st1" d="M442.9,839.8l121.7-80.2c6.7-4.4,14.7-6.3,22.7-5.3l106,12.7c9.1,0.5,15.1,8.9,13.5,17.9L704,800
									c-1.4,7.6-8.9,12.9-16.6,12.4l-108.2-7.1l-76.6,57.1"/>
								<path class="st1" d="M451.3,891.2c41.5,5.2,129-60.6,129-60.6l107.2,82.2c5.1,3.7,17.4,3.2,21.8-1.3l0,0
									c12.1-12.2,12-32-0.2-44.1c-0.6-0.6-1.2-1.1-1.8-1.6L602,775.6c-5.9-5.1-14.4-6-21.2-2.2L484.6,826c0,0-2,16.3-8.1,24.2
									s-61.5,9.5-76.1,5.5c0,0,9.6,44.9,35.6,31.3C436,887,439.8,889.8,451.3,891.2z"/>
								<path class="st1" d="M412,708.7c5.2-1.7,10.6-2.8,16-3.4c6.3-0.7,12.7-1,19.1-1c34.3,0,40.3,33.9,44.5,66.6
									c7.5,58.4,7.5,77.4-8.9,88.6c-10.6,7.3-72.3,8.7-82.3-3.8c0,0-14.6-46.4-17.3-95.6c-0.5-7.3,0-14.7,1.6-21.8"/>
								<path class="st14" d="M510.6,820.8c0,0-33.4,3.5-75.9,3.5c-27.1,0-57.4-3.5-57.4-3.5l-8.1-68c18.5,2.2,37.1,3.3,55.6,3.4
									c40.7,0,77.7-3.4,77.7-3.4L510.6,820.8z"/>
								<polyline class="st18" points="502.5,752.7 516.9,871 624.9,871 								"/>
								<path class="st1" d="M348.7,489.4c0,0,1.4-8.4,2.7-15.1c2.5-13.8,12.5-6.1,10.9,2.7c-0.6,3.2-4.7,28.2-4.7,28.2"/>
								<path class="st1" d="M362,511.6c5,0-1.8-11.1,7.1-10.5c7,0.5,12.1,15.9-6.8,26.5c-4.7,2.6,1.2,9.1,1.2,9.1s-9.5,4.8-16,1.2
									l-1.1-5.3c0,0-6.1-11.3-7.6-18.4c-2.7-13.4,7.9-12,9.8-25"/>
								<polygon class="st1" points="368.8,500.8 322.4,489.5 327.2,477.4 370.1,496.4 								"/>
								<path class="st1" d="M354.9,501.7c0,0,4.5-25.2,6.7-31.7s9.8-3,9.6,2.8c-0.1,3.3-9.2,38.8-9.2,38.8"/>
								<path class="st1" d="M514,696.9c0,0-10-19.4,11.2-25.9c13-3.9,20.6,2.2,22.1,8.8c2,9.1,3.9,35.3,3.9,35.3S550,727,531.6,725
									c-3.1-0.3-5.7-2.2-7.1-5l0,0L514,696.9z"/>
								<path class="st1" d="M524.5,735.2c0,0,0.4-4.9-2.6-7s-7.9-12.2-1.2-14.7l6.5,9.9c0,0,1.8,0.2,4.4,0.1
									c9.2-0.2,16.8-7.3,17.4-16.5c0-1.9,0.4-3.7,1.1-5.4c1.8-3.3,11,3.8,12,17s-15.6,25.6-15.6,25.6"/>
								<path class="st1" d="M455.7,705.1c68.8-4.3,71.4,75.5,72,96.8c0,0-0.1-5.9-1.6-21.9c-1.3-14.5-4.5-23.7-4.5-23.7l2.9-21
									c0,0,31.9-2.7,30.8,11.4c-1.3,15.9-2,77-18.8,89.1c-5,3.5-19.3,3.6-24.2-0.9c-25.4-23.2-36.5-97.2-36.5-97.2"/>
								<path class="st10" d="M521,679.6l-19.7-12.3c-4.9-3.1-11-3.5-16.2-1.2l-12.3,5.4"/>
								
									<ellipse transform="matrix(0.9416 -0.3366 0.3366 0.9416 -197.4369 216.6724)" class="st19" cx="526.2" cy="677.8" rx="8" ry="2.2"/>
								<line class="st18" x1="530.9" y1="871" x2="506" y2="995.5"/>
								<line class="st18" x1="602.6" y1="871" x2="630.2" y2="995.5"/>
								<path class="st1" d="M410,627c0,0-19.4-57.6-21.1-75s16.4-24.5,22.1-10.6c3.2,7.8,20.1,87.4,20.1,87.4"/>
								<path class="st1" d="M412,708.7l3.2-14.6c0,0-20.7-28.1-20.6-46.6c0-26.3,20-30.4,35.8-31s44.1,33,44.1,46.1
									s-8.4,18-18.8,27.1s9.2,16.1,9.2,16.1S446.7,717.2,412,708.7z"/>
								<path class="st14" d="M390.5,629.5c0-3.6,8.4-18.3,16.2-22.7c18.2-10.3,59,6.4,61.5,12.8c5,12.8-33.1,2.1-45.2,7
									C412.9,630.8,390.4,641.1,390.5,629.5z"/>
								<path class="st1" d="M425.2,630.8c0,0-15.6-66.4-15.1-83.8s22.8-22.4,26.7-8c2.2,8.1,9.6,87.8,9.6,87.8"/>
								<path class="st10" d="M514,696.9c0,0,11.1,1.5,21-3.5"/>
								<path class="st20" d="M542.5,689c2.4-1.5,4.3-3.7,5.3-6.3"/>
								<polygon class="st1" points="413.9,795.1 406.4,799.9 407.2,789.8 400.4,782.6 409,781.2 412.3,772 416.8,781.2 
									425.6,782.6 419.8,789.8 422,799.9 								"/>
								<ellipse cx="492.8" cy="995.7" rx="175.5" ry="8.2"/>
								
									<ellipse transform="matrix(0.2664 -0.9639 0.9639 0.2664 -227.4867 667.8389)" class="st21" cx="325" cy="483.4" rx="6" ry="4.3"/>
								<path d="M587,829.1c9.4,5.4,18.4,11.4,27.3,17.6c4.5,3,8.8,6.3,13.2,9.4s8.6,6.5,12.9,9.7c4.3,3.2,8.5,6.6,12.7,10
									s8.4,6.8,12.5,10.3c8.2,7,16.3,14.1,24,21.8l0,0c0.1,0.1,0.1,0.2,0,0.3l0,0c-0.1,0.1-0.2,0.1-0.3,0L638,868.9l-51.2-39.5
									c-0.1-0.1-0.1-0.2,0-0.3l0,0C586.9,829.1,587,829,587,829.1L587,829.1z"/>
								<path d="M428,876.1c2.5,2.2,5.4,3.9,8.5,4.9c1.5,0.5,3.1,1,4.6,1.3c0.8,0.2,1.6,0.3,2.4,0.4s1.6,0.2,2.4,0.3
									c1.6,0.1,3.2,0.2,4.8,0.3h2.4l2.4-0.1c3.2-0.2,6.5-0.5,9.7-1.1c1.6-0.2,3.2-0.5,4.9-0.8s3.2-0.7,4.9-1.1
									c3.3-0.7,6.5-1.6,9.7-2.4c6.5-1.7,13-3.7,19.8-5.3l0,0c0.1,0,0.2,0,0.2,0.1s0,0.2-0.1,0.2c-6.2,3-12.5,5.6-18.9,7.9
									c-6.4,2.3-13.1,4.1-19.8,5.3c-6.8,1.2-13.7,1.2-20.5,0.1c-3.4-0.6-6.7-1.7-9.8-3.3c-3.1-1.5-5.8-3.8-7.9-6.6
									c-0.1-0.1,0-0.2,0-0.3l0,0C427.7,876,427.8,876,428,876.1L428,876.1z"/>
								<path d="M433,883.8c-1.2,0.8-2.6,1.4-4,1.7s-2.8,0.3-4.2-0.1c-2.5-0.6-4.7-1.8-6.6-3.5c-1.8-1.5-3.4-3.2-4.8-5.1
									c-1.4-1.8-2.7-3.7-3.8-5.7c1.5,1.7,3,3.4,4.7,4.9c1.6,1.5,3.4,2.8,5.4,3.9c1.7,1.1,3.7,1.7,5.7,1.9c1.7,0.1,3.4-0.6,4.6-1.9
									c1-1,2.6-0.9,3.5,0.1c1,1,0.9,2.6-0.1,3.6C433.3,883.6,433.1,883.7,433,883.8L433,883.8z"/>
								<polygon points="633.7,800.7 686.9,807.9 633.3,804.6 								"/>
								<path class="st1" d="M533.5,674.7c-0.4,1.7-2.1,2.7-3.8,2.2c-0.9-0.2-1.6-0.8-2-1.6C525,670,522,662.6,522,656
									c0-11.9,5.6-6.8,5.6-6.8s0.5-26.4,7.9-28.1c7.4-1.7,1.3,21.4,1.3,21.4s7.2-3.8,5.9,4C541.8,652.9,536.5,662.8,533.5,674.7z"
									/>
							</g>
							<line class="st22" x1="229.9" y1="722.8" x2="229.9" y2="599"/>
						</g>
						<g>
							<g>
								<ellipse cx="1052.3" cy="952.5" rx="286.3" ry="6.4"/>
								<g>
									<path d="M778.5,834.5c0.5-1.4,0.8-2.6,1.3-3.8s1-2.3,1.6-3.4c1.1-2.1,2.4-4.2,3.8-6.1c2.8-3.7,6-7.1,9.7-10
										c1.8-1.4,3.6-2.9,5.8-3.6c1.2-0.4,2.4-0.6,3.6-0.6c1.3,0,2.5-0.1,3.8,0c2.4,0.1,4.8-0.2,7.1-0.9l6.2-2.7
										c8.5-3.8,17.3-6.9,26.3-9.4c4.8-1.3,9.6-2.2,14.5-2.7c5.1-0.5,10.2-0.5,15.3,0c10.4,1.1,20.5,4.7,29.3,10.3
										s16.5,12.6,22.9,20.9c5.8,7.7,10.7,16.1,14.6,25c3.8,8.4,6.8,16.8,9.5,24.8s5.3,15.8,8,23c1.4,3.6,2.8,7,4.4,10.2
										c1.4,3,3.1,5.8,5,8.5c1.6,2.3,3.4,4.3,5.5,6.1c1.9,1.6,4,2.8,6.3,3.7c2.6,1,5.2,1.6,8,1.8c0.7,0.1,1.5,0.1,2.3,0.2
										s1.5,0,2.2,0c1.3,0,2.7-0.1,4-0.4c2.5-0.4,4.9-1.2,7.1-2.3c2.4-1.3,4.6-2.9,6.6-4.9c4.3-4.2,8.3-10.2,12.2-16.9
										c3.9-6.7,7.6-14.2,12-22c2.2-3.9,4.6-7.8,7.3-11.8c2.9-4.2,6.1-8,9.7-11.6c3.9-3.9,8.5-7.2,13.4-9.8
										c5.1-2.6,10.5-4.4,16.2-5.2c2.7-0.4,5.4-0.6,8.2-0.5c1.3,0,2.7,0.1,4,0.1s2.7,0.2,4.1,0.5c5.7,0.8,11.2,2.6,16.2,5.4
										c4.9,2.7,9.3,6.2,13,10.3c3.4,3.7,6.4,7.8,9,12.2c4.9,8.3,8.3,16.5,11.5,24.4s6.1,15.4,9.3,22.2s7.1,12.4,11.4,15.5
										c2.1,1.5,4.5,2.5,7,3c0.3,0.1,0.7,0.1,1,0.2c0.3,0,0.7,0.1,1,0.1c0.7,0,1.4,0.1,2.1,0.1c1.2,0,2.5-0.1,3.7-0.4
										c2.5-0.6,4.8-1.9,6.7-3.6c2.5-2.2,4.7-4.8,6.5-7.6c4.2-6.1,8-13.5,12.7-21c2.4-3.9,5-7.7,7.9-11.3c3.2-3.9,6.9-7.4,11-10.2
										c4.4-3,9.4-5.1,14.6-6.1c2.5-0.5,5.1-0.8,7.7-0.8h1.9c0.7,0,1.5,0.1,2.2,0.1c4.5,0.4,8.8,2,12.5,4.5
										c2.2,1.5,4.3,3.3,6.1,5.3c3.2,3.6,5.9,7.6,8.2,11.8c4.3,8,7.4,15.9,10.6,23.5c1.6,3.8,3.2,7.5,5,10.9
										c1.5,3.2,3.5,6.2,5.8,8.9c0.9,1,2,1.9,3.1,2.5c1,0.5,2,0.8,3.1,0.8c2.3,0.1,5.4-1.1,8.4-3.1c3.2-2.1,6.1-4.5,8.8-7.2
										c2.8-2.7,5.5-5.7,8.1-8.8l0,0c1.9-2.2,5.2-2.4,7.4-0.6c2.1,1.8,2.4,4.9,0.8,7.1c-2.6,3.4-5.3,6.8-8.3,10
										c-3.1,3.4-6.4,6.5-10.1,9.2c-2,1.5-4.2,2.7-6.5,3.8c-2.6,1.2-5.4,1.8-8.2,2c-3.1,0.1-6.2-0.5-9-1.8
										c-2.5-1.2-4.9-2.9-6.9-4.8c-3.3-3.4-6.1-7.3-8.4-11.4c-2.2-3.9-4.1-7.8-6-11.6c-3.6-7.6-7-15.1-10.9-21.7
										c-1.8-3.1-3.9-5.9-6.4-8.5c-1.8-2-4.2-3.4-6.8-4.1c-0.6-0.1-1.1-0.2-1.7-0.2c-0.3,0-0.6,0-0.9,0l-1.2,0.1
										c-1.6,0.1-3.2,0.4-4.7,0.8c-3,0.7-5.7,2.1-8.2,3.9c-5,3.7-9,9.8-12.8,16.7s-7.2,14.6-12.2,22.5c-2.6,4.3-5.8,8.2-9.3,11.7
										c-2,1.9-4.3,3.7-6.7,5.2c-2.5,1.5-5.3,2.8-8.1,3.6c-2.8,0.8-5.7,1.3-8.6,1.5c-1.4,0.1-2.8,0.1-4.2,0
										c-0.7,0-1.4-0.1-2.1-0.1s-1.4-0.1-2.1-0.2c-5.7-0.8-11.2-2.8-16.1-6c-4.5-3-8.5-6.7-11.8-11c-3-3.8-5.6-7.9-7.9-12.1
										c-4.4-8.1-7.7-16-11.1-23.5s-6.7-14.6-10.5-20.5c-1.8-2.8-3.8-5.4-6.1-7.7c-1.9-2-4.2-3.7-6.7-4.9
										c-2.4-1.1-4.9-1.9-7.5-2.1c-2.9-0.3-5.8-0.2-8.6,0.3c-5.4,1-9.7,3.5-14,8s-8,10.6-11.7,17.4s-7.1,14.5-11.3,22.3
										c-2.1,3.9-4.4,8-7,12c-2.8,4.3-6,8.2-9.5,11.9c-3.9,4.1-8.3,7.5-13.2,10.3c-5.1,2.9-10.6,4.9-16.3,6
										c-2.8,0.5-5.6,0.9-8.4,1c-1.4,0.1-2.8,0.1-4.1,0.1s-2.6,0-4-0.1c-5.6-0.3-11.2-1.4-16.5-3.2c-2.8-1-5.5-2.2-8.1-3.6
										c-2.6-1.4-5-3.1-7.3-4.9c-4.4-3.5-8.3-7.5-11.6-12c-3-4.1-5.7-8.4-8-12.9c-2.2-4.3-4.1-8.5-5.8-12.7
										c-3.4-8.3-6.2-16.4-9-24s-5.6-15-8.8-21.7c-2.9-6.4-6.6-12.4-10.9-17.9c-3.9-4.9-8.7-9.1-14.1-12.4c-2.7-1.6-5.5-3-8.3-4.2
										c-2.9-1.3-5.8-2.4-8.8-3.3c-3.1-1-6.3-1.8-9.6-2.4c-3.4-0.6-6.9-0.9-10.4-1c-7.5-0.1-14.9,1.2-21.9,3.7
										c-1.8,0.6-3.6,1.3-5.3,2.1c-1.8,1.1-3.3,2.6-4.2,4.4l-1.8,2.8c-0.5,0.9-1.2,1.6-1.9,2.3c-1.4,1.3-3.2,1.9-5,2.7
										c-3.7,1.5-7.4,2.7-11.3,3.7c-2,0.5-4.1,1-6.2,1.3c-1.1,0.2-2.2,0.3-3.3,0.5c-1.2,0.2-2.3,0.2-3.5,0.2l-1.9-0.1
										c-4-0.2-7.1-3.6-6.9-7.7l0,0C778.1,835.8,778.2,835.1,778.5,834.5z"/>
									<path d="M1339.4,926.8c-5.6,0.8-13.1-2.5-17.6-5.7c9.2,0.1,18.7-1.7,26.8-6.5c-2.5,9-1.1,18.6,1.1,27.6
										C1345.2,938.3,1340.4,932.8,1339.4,926.8z"/>
								</g>
								<path class="st11" d="M907.2,809.1c5.6,3.8,10.6,8.3,14.9,13.5c4.3,5.3,8,11,11.1,17s5.9,12.2,8.2,18.5
									c2.4,6.3,4.5,12.7,6.6,19s4.1,12.7,6.5,18.8c2.2,6.1,5,12,8.4,17.6c3.3,5.5,8,10.1,13.5,13.3c2.8,1.6,5.9,2.7,9.1,3.4
									c0.8,0.2,1.6,0.3,2.4,0.5l2.5,0.3l2.5,0.2l2.5,0.1c-3.3,0.5-6.7,0.5-10.1,0.2c-6.9-0.7-13.5-3.6-18.7-8.2
									c-2.6-2.3-4.9-4.9-6.9-7.8c-4.1-5.6-7-11.8-9.6-18.1s-4.7-12.7-6.8-19s-4.1-12.7-6.3-18.9s-4.6-12.4-7.3-18.4
									s-5.9-11.8-9.6-17.2C916.5,818.5,912.1,813.5,907.2,809.1z"/>
								<path class="st11" d="M1111.3,849.8c4.7,2.1,8.9,5.1,12.6,8.7c3.7,3.6,6.9,7.7,9.5,12.1c5.4,8.8,9.2,18.3,12.8,27.7
									c1.8,4.7,3.6,9.3,5.5,13.9c1.9,4.5,4.1,8.9,6.8,13c2.6,4,6,7.5,10.1,10.2l0.8,0.5l0.8,0.4l1.6,0.8c1.1,0.5,2.3,0.9,3.4,1.4
									s2.4,0.7,3.6,1l3.7,0.7c-1.3,0-2.5,0.1-3.8,0.1s-2.6-0.2-3.8-0.4c-1.2-0.3-2.5-0.5-3.8-0.9l-1.8-0.7l-0.9-0.3l-0.9-0.4
									c-1.2-0.6-2.3-1.2-3.4-1.9c-0.5-0.4-1.1-0.7-1.6-1.1l-1.5-1.3c-2-1.7-3.8-3.6-5.4-5.7c-3.2-4.1-5.8-8.6-8-13.3
									c-2.2-4.6-4.1-9.4-5.9-14.1c-3.6-9.4-7-18.8-11.5-27.5c-2.3-4.4-4.9-8.5-8-12.4C1118.9,856.2,1115.3,852.7,1111.3,849.8z"/>
								<g>
									<path class="st23" d="M1319.4,872.2c0,3.7-30.3,6.7-67.8,6.7s-67.8-3-67.8-6.7H1319.4z"/>
									<path class="st23" d="M1308.6,872.2c0-30.7-25.4-55.6-56.9-55.6s-56.8,24.9-56.8,55.6H1308.6z"/>
									<path class="st23" d="M1258.8,810.2c0,3.5-3.2,6.4-7.1,6.4s-7.1-2.9-7.1-6.4H1258.8z"/>
								</g>
								<path class="st23" d="M1159.6,837.8c0,3.7-30.3,6.7-67.8,6.7s-67.8-3-67.8-6.7H1159.6z"/>
								<path class="st23" d="M938.7,785.8c0,3.7-30.3,6.7-67.8,6.7s-67.8-3-67.8-6.7H938.7z"/>
							</g>
							<g>
								<line class="st24" x1="884.3" y1="717.4" x2="891.4" y2="694.5"/>
								<polygon class="st24" points="857.2,683.8 926.9,705.9 894.8,683.8 								"/>
								<path class="st23" d="M897.5,717.8c-0.2-0.1-0.7-0.3-1.2-0.5c0-0.1,0.1-0.3,0.1-0.4c0.9-3.2-0.5-6.6-3.4-8.2
									c-2-1.3-6.3-2-8.9-1c-0.1-0.3-0.3-0.7-0.5-1c-0.9-1.5-2.2-2.8-3.8-3.6c-3.3-1.4-7-1.1-10,0.8c-0.6,0.4-3.2,2.5-2.9,2.5
									c0,0-3.2-1.7-4.3-2.1c-3.6-1.4-7.6-0.8-10.7,1.4c-1.2,0.9-2.2,2-3.1,3.2c-0.4,0.5-0.9,1.6-1.4,1.9c-1,0.6-0.4,0.1-1.5,0.3
									c-4.4,0.6-7.8-0.1-10.8,3.7c-1.5,2-1.3,6.1-2.9,7.5c-3.8,3.3-1.2,8,2.8,9.2c0.4,0.9,1,1.8,1.8,2.4c3.3,2.7,8.7,2.4,12.8,2
									c2.3-0.3,4.5-0.5,6.5-0.7c2.8,0.3,5.6,0.7,8.4,0.8c2.4,0.1,4.7,0.2,7.1,0.2c2.3,0.2,4.6,0.2,6.8,0c3.3-0.1,6.5-0.2,9.8-0.4
									c2,0,3.9-1.1,5-2.9c1.1-0.1,2.3-0.4,3.3-0.8C903.1,729.2,903.8,721.2,897.5,717.8z"/>
								<path class="st23" d="M858.2,785.8c-39,0-43.4-10.5-46-28C809.7,740.6,828,723,828,723h77.1c0,0,9.7,15.6,10.4,39.2
									c14.5,13.1,7.8,22.1,0,17.8l2,5.8H858.2l-0.5-6.8c0,0-8,4.7-12.3,1.2c-6.6-5.5,6.4-16.8,6.4-16.8"/>
								
									<ellipse transform="matrix(0.9801 -0.1983 0.1983 0.9801 -131.9378 188.4013)" class="st25" cx="874.6" cy="752.9" rx="7" ry="12"/>
								
									<ellipse transform="matrix(0.9801 -0.1983 0.1983 0.9801 -131.4487 193.2793)" class="st25" cx="899.2" cy="752.9" rx="7" ry="12"/>
								<polygon class="st26" points="886.5,773.8 896.7,773.8 888.5,762 								"/>
								<line class="st24" x1="868.8" y1="785.8" x2="868.1" y2="779"/>
								<line class="st24" x1="876.5" y1="785.8" x2="875.8" y2="779"/>
								<line class="st24" x1="884.1" y1="785.8" x2="883.4" y2="779"/>
								<line class="st24" x1="891.8" y1="785.8" x2="891" y2="779"/>
								<line class="st24" x1="899.4" y1="785.8" x2="898.7" y2="779"/>
								<line class="st24" x1="907" y1="785.8" x2="906.3" y2="779"/>
								<path class="st24" d="M845.8,723l-7.4-47c-0.5-3.2-3.5-5.4-6.7-4.9c-0.2,0-0.4,0.1-0.7,0.1l-23.6,6.6"/>
								<path class="st11" d="M871.9,742.3c1.2-0.3,2.5,0,3.5,0.6c1.1,0.7,1.9,1.6,2.6,2.7c2.3,4.2,3,9.2,1.9,13.9
									c-0.3,1.2-1,2.4-1.9,3.2c-0.5,0.4-1.1,0.7-1.7,0.9c-0.6,0.1-1.2,0.1-1.8,0c0.5-0.1,1-0.4,1.5-0.7c0.4-0.3,0.7-0.7,1-1.1
									c0.5-0.9,0.8-1.8,0.9-2.8c0.2-2.1,0.1-4.2-0.3-6.3c-0.2-2.1-0.7-4.2-1.5-6.2C875.5,744.7,874.2,742.9,871.9,742.3z"/>
								<path class="st11" d="M896.8,742.3c1.2-0.3,2.5,0,3.5,0.6c1.1,0.7,1.9,1.6,2.6,2.7c2.3,4.2,3,9.2,1.9,13.9
									c-0.3,1.2-1,2.4-1.9,3.2c-0.5,0.4-1.1,0.7-1.7,0.9c-0.6,0.1-1.2,0.1-1.8,0c0.5-0.1,1-0.4,1.5-0.7c0.4-0.3,0.7-0.7,1-1.1
									c0.5-0.9,0.8-1.8,0.9-2.8c0.2-2.1,0.1-4.2-0.3-6.3c-0.2-2.1-0.7-4.2-1.5-6.2C900.3,744.7,899.1,742.9,896.8,742.3z"/>
							</g>
							<g>
								<path class="st23" d="M1107.9,767.9c-4.7,0-9.2,1.4-13.1,4c-3.9-2.6-8.4-4-13.1-4c-14.6,0-26.4,11.6-26.4,32.4
									s21.3,36,30.9,36c3.3-0.1,6.4-1.6,8.6-4c2.2,2.4,5.3,3.9,8.6,4c9.6,0,30.9-15.2,30.9-36S1122.5,767.9,1107.9,767.9z"/>
								<path class="st23" d="M1099,747.2c-3.2,7.8-4.6,16.2-4.2,24.7c0,0-6.1-18.4-37.9-18.9c14.3,26,34.4,20.8,34.4,20.8"/>
							</g>
							<path d="M1097,827.9c1.8,1.2,4.1,1.6,6.2,1.2c2-0.4,3.9-1.3,5.5-2.5c0.9-0.6,1.7-1.3,2.5-2s1.6-1.5,2.4-2.2s1.6-1.7,2.4-2.5
								s1.6-1.7,2.3-2.5c1.5-1.6,2.9-3.3,4.2-5.1c0.6-0.8,1.2-1.7,1.8-2.6c0.5-0.9,1-1.8,1.4-2.8s0.8-2,1.1-3
								c0.3-1.1,0.6-2.1,0.8-3.2c0.5-2.2,0.7-4.6,1.2-7.1l0.4-0.1c0.4,2.4,0.6,4.8,0.7,7.2c0,2.4-0.3,4.8-1,7.2
								c-1.4,4.7-4.3,8.7-7.6,12.2c-1.6,1.8-3.4,3.4-5.2,5c-1.8,1.6-3.8,3.1-5.9,4.2c-2.1,1.2-4.5,1.9-7,1.9s-4.9-1.2-6.5-3.1
								L1097,827.9z"/>
						</g>
						<g>
							<g>
								<path class="st2" d="M1384.2,227.8c0,0,4.2-24.4,4.2-32.4s-12.3-4.5-13.3-14.6s14.2-21.1,21.4-4.1c0,0,17.5-8.6,15.9,5.4
									s-12.4,4-12.6,21s0.4,23.4,0.4,23.4"/>
								<path class="st27" d="M1392.2,87.3c4.2,0,7.6,3.4,7.6,7.6s-3.4,7.6-7.6,7.6s-7.6-3.4-7.6-7.6l0,0"/>
								<path d="M1394,102.5c0,2.7,0.1,5.5,0.2,8.2c0,1.4,0.2,2.7,0.2,4.1l0.1,2l0.1,1v0.5c0,0.1,0,0.2,0.1,0.4
									c0.2,1.9,1.7,3.4,3.7,5.2c1.1,1,2.1,2,3.1,3.1c0.6,0.6,1.1,1.3,1.6,2c0.5,0.8,0.9,1.6,1.3,2.5s0.7,1.8,0.9,2.8
									c0.2,0.9,0.3,1.9,0.3,2.8c0,2-0.3,3.9-1.1,5.8c-0.8,2-2.1,3.8-3.8,5.1c-1.7,1.4-3.7,2.3-5.9,2.6c-2.1,0.3-4.2,0.1-6.2-0.7
									c-1.8-0.7-3.5-2-4.6-3.6c-1.1-1.4-1.7-3.1-1.9-4.9c-0.2-1.6,0-3.2,0.6-4.7c0.9,1.1,1.9,2.1,2.9,3.1c0.8,0.7,1.8,1.3,2.8,1.7
									c1.4,0.5,3,0.5,4.4-0.1c1.1-0.5,1.9-1.3,2.4-2.4c0.3-0.7,0.5-1.4,0.7-2.2c0.1-0.5,0.1-0.8,0.1-1.2s0-0.8,0-1.2
									c-0.1-1.7-1.2-3.7-2.8-6.1c-0.8-1.3-1.6-2.6-2.3-4c-0.8-1.6-1.2-3.3-1.2-5.1v-0.6v-0.5l0.1-1l0.1-2c0.1-1.4,0.2-2.7,0.2-4.1
									c0.1-2.7,0.2-5.5,0.2-8.2c0.1-1,0.9-1.7,1.9-1.6C1393.2,100.9,1393.9,101.6,1394,102.5L1394,102.5z"/>
								<path class="st1" d="M1369.1,315.5c22.8,6.5,24.3,47.3,44.2,57.3c9.8,5,16.4,0.2,20.6-5.9c2.2-4.8,3.6-10,4-15.3
									c3.9-39.6-22-73.5-29.5-99.1c-8.1-27.6-8.1-27.6-9.8-26.2c-5,0.6-11.4,2.9-12.9,0.4c-0.3-0.6-1-0.8-1.6-0.5
									c-0.3,0.2-0.5,0.4-0.6,0.8c-2.4,8.6-8.4,28.3-17,40.6c-7.6,10.8-19.2,33.6-20.9,55C1348.9,317.3,1355.6,311.7,1369.1,315.5z
									"/>
								<path class="st14" d="M1413.3,372.8c-19.9-10-21.4-50.9-44.2-57.3c-13.5-3.8-20.2,1.8-23.4,7c-0.8,10.4,0.7,20.5,6.2,28.8
									c16.9,25.1,45.3,29.5,45.3,29.5s26,7.4,36.6-13.8C1429.7,373,1423.1,377.8,1413.3,372.8z"/>
								
									<ellipse transform="matrix(0.5989 -0.8008 0.8008 0.5989 262.1608 1245.9634)" class="st28" cx="1374.9" cy="361.3" rx="3.7" ry="12.4"/>
								<path d="M1422.6,367.4c1.1-0.6,2-1.4,2.8-2.3s1.5-1.8,2.1-2.9c1.1-2,1.9-4.2,2.2-6.5c0.3-2.3,0.4-4.7,0.3-7
									c0-1.2-0.2-2.4-0.2-3.6l-0.4-3.6c-1.3-9.7-3.6-19.3-6.7-28.6c-1.5-4.7-3.3-9.4-5-14l-5.3-14.1c-1.8-4.7-3.5-9.4-5.1-14.3
									c-1.7-4.8-2.8-9.8-3.6-14.9l0.4-0.1c1.3,4.8,3,9.6,5,14.2c1.9,4.6,4,9.2,6,13.9c4.1,9.2,8,18.5,11.3,28.1s5.5,19.5,6.4,29.5
									c0.3,5,0.6,10.2-0.8,15.1c-0.6,2.5-1.8,4.8-3.3,6.8c-1.5,2.1-3.6,3.7-6,4.6L1422.6,367.4z"/>
								<polyline class="st10" points="1387.8,202.4 1399.7,208.6 1393.7,142.1 1389.7,168.6 								"/>
								<path class="st10" d="M1392.2,92.9c-7.1-2.7-13.2-6-0.5-11.2V1"/>
							</g>
							<g>
								<path class="st1" d="M1462,123c5.6-6.3,16.7,2.7,11.1,10.3c-5.3,7.2-7.8,19-6.6,28s-12.5,13-14.3,4.6
									C1449,150.8,1451.8,134.5,1462,123z"/>
								<path class="st1" d="M1453.7,174.6c3.9-8.1,17.6-3,14,6.4c-3.4,8.9-1.7,20.3,3.3,28.3s-6.4,17.9-11.8,10.7
									C1449.4,206.9,1446.5,189.5,1453.7,174.6z"/>
								<path class="st27" d="M1472.5,66.5c4.2,0,7.6,3.4,7.6,7.6s-3.4,7.6-7.6,7.6s-7.6-3.4-7.6-7.6l0,0"/>
								<path d="M1474.3,81.7c0,2.7,0.1,5.4,0.2,8.2c0,1.4,0.2,2.7,0.2,4.1l0.1,2.1l0.1,1v0.5c0,0.1,0,0.2,0.1,0.4
									c0.2,1.9,1.7,3.4,3.7,5.2c1.1,1,2.1,2,3.1,3.1c0.6,0.6,1.1,1.3,1.6,2c0.5,0.8,0.9,1.6,1.3,2.5s0.7,1.8,0.9,2.8
									c0.2,0.9,0.3,1.9,0.3,2.8c0,2-0.3,3.9-1.1,5.8c-0.8,2-2.1,3.8-3.8,5.1c-1.7,1.4-3.7,2.3-5.9,2.6c-2.1,0.3-4.2,0.1-6.2-0.7
									c-1.8-0.7-3.4-2-4.6-3.6c-1.1-1.4-1.7-3.1-1.9-4.9c-0.2-1.6,0-3.2,0.6-4.7c0.9,1.1,1.9,2.1,2.9,3.1c0.8,0.7,1.8,1.3,2.8,1.7
									c1.4,0.5,3,0.5,4.4-0.1c1.1-0.5,1.9-1.3,2.4-2.4c0.3-0.7,0.6-1.4,0.7-2.2c0.1-0.5,0.1-0.8,0.1-1.2c0-0.4,0-0.8-0.1-1.2
									c-0.1-1.7-1.2-3.7-2.8-6.1c-0.9-1.3-1.6-2.6-2.3-4c-0.8-1.6-1.2-3.3-1.2-5.1v-0.6V97l0.1-1l0.1-2.1c0.1-1.4,0.2-2.7,0.2-4.1
									c0.1-2.7,0.2-5.4,0.2-8.2c0.1-1,0.9-1.7,1.9-1.6C1473.5,80.1,1474.2,80.8,1474.3,81.7L1474.3,81.7z"/>
								<path class="st1" d="M1483.8,114.7c-9.3-4.4-16.3,9.9-7,14.3c8.8,4.2,13.8,15.2,10.1,24.5c-3.8,9.5,10.4,16.5,14.3,7
									C1508.1,143.3,1500.8,122.8,1483.8,114.7z"/>
								<path class="st1" d="M1495.2,166.4c-6.3-7.5-17.3,2.2-11.3,10.7c5.7,8.1,7.8,19.6,3.4,28.7s6.9,18.2,12.2,9.6
									C1509,199.9,1506.8,180.2,1495.2,166.4z"/>
								<path class="st1" d="M1494.8,221.3c-3.9-8.4-16.8-1.6-13.3,8.2c3.3,9.3,2.9,22.9-0.4,32.3c-3.3,9.5,8.9,17.6,12.7,8.9
									C1500.7,255.1,1501.9,236.6,1494.8,221.3z"/>
								<path class="st1" d="M1499.1,272.8c-6.1-7.9-17.3,0.6-12,9.5c5,8.5,3.7,19.7-2.5,27.3s3.1,18.9,10.1,11.7
									C1507.2,308.4,1510.3,287.4,1499.1,272.8z"/>
								<path class="st1" d="M1497.4,326.2c-6.5-7.9-19,2-12.4,9.9c6.2,7.5,6,19.7-1.3,26.5s2.4,19.4,9.9,12.4
									C1507.2,362.4,1509.4,340.7,1497.4,326.2z"/>
								<path class="st1" d="M1496.9,379.5c-5-7.9-17.4-0.1-12.5,9.3c4.6,8.9,4.6,21.4,1,30.9s8.8,17.9,12.9,9.3
									C1505.8,413.3,1506,394.1,1496.9,379.5z"/>
								<path class="st10" d="M1472.8,72.2c-7.1-2.7-13.2-6-0.5-11.2V1"/>
							</g>
						</g>
						<path class="st2" d="M140.2,220.1c-12.4,18-10.2,42.8,7.8,56.4c4.4,3.3,9.3,5.6,14.6,6.8c-0.1,0.1-0.2,0.3-0.3,0.4
							c-12.4,18-10.2,42.8,7.8,56.4c16.8,12.7,44,10.1,56.4-7.8c1.3-1.9,2.4-3.8,3.4-5.8c2.3,3.3,5.2,6.2,8.4,8.6
							c16.8,12.7,44,10.2,56.4-7.8c12.2-17.6,10.3-41.8-6.8-55.6c11.6-17.9,9.1-42-8.5-55.3c-8.1-5.9-18.1-8.7-28.1-7.8
							c-2.6-7-7.1-13.2-13.1-17.6c-16.8-12.7-44-10.2-56.4,7.8c-1.3,1.9-2.5,3.9-3.5,6C164,202.8,148.6,207.9,140.2,220.1z"/>
						<path class="st2" d="M94.8,0.3c-0.2,26.1,16.1,50.2,42.8,56.5c-3.8,29.4,13.8,58.2,43.9,64.3c13.6,2.8,28-0.1,40-7.2
							c7.5,7.3,16.9,12.2,27.1,14.3c28.7,5.9,61.4-13.7,66.1-43.7c0.5-3.2,0.8-6.4,0.8-9.6c19-6.1,35.3-21.7,38.5-42.1
							c1.8-11.2,0.4-22.5-3.6-32.4"/>
						<path class="st2" d="M333.5,416.4c-0.5-10-8.1-18.5-18.5-18.5c-2.5,0-5,0.6-7.2,1.6v-0.2c-0.4-10-8.1-18.5-18.5-18.5
							c-9.7,0-18.9,8.5-18.5,18.5c0,1,0.2,2.1,0.4,3.1c-1.8-0.6-3.6-0.8-5.5-0.8c-9.7,0-18.9,8.5-18.5,18.5
							c0.4,9.8,7.8,18.1,17.9,18.5c0.7,9.7,8.3,17.9,18.4,17.9c4.6-0.1,9-1.9,12.4-5c2.9,1.8,6.3,2.8,9.7,2.8
							c9.7,0,18.9-8.5,18.5-18.5c-0.1-1.1-0.2-2.1-0.4-3.2C329.5,429.4,333.8,423.2,333.5,416.4z"/>
					</g>
				</g>
			</g>
		</g>
	</g>
</g>
</svg>
