<svg xmlns="http://www.w3.org/2000/svg" width="784.698" height="107.722" viewBox="0 0 784.698 107.722">
  <g id="Group_420" data-name="Group 420" transform="translate(-473.699 -139.237)">
    <path id="Path_2092" data-name="Path 2092" d="M473.81,246.3v-2.257l9.327-11.262L483.248,162l-9.55-11.884.087-1.947H527.8l19.131-2.422,2.776,24.646H546.4L528.2,154.594l-23.347-.121V193.56h3.475v-.068h14.314l9.012-11.913,2.272.167v29.9h-2.672l-8.21-11.642-18.191-.206v32.667l10.882,11.911-.107,1.921Z" transform="translate(0 -0.995)"/>
    <path id="Path_2093" data-name="Path 2093" d="M561.907,251.722V249.4l8.324-8.053.147-43.13-7.9-9.348.1-1.959,26.084-5.707,1.409,1.665-1.092,10.472h2.341l.146-.25a19.231,19.231,0,0,1,3.524-4.33,27.366,27.366,0,0,1,5.246-3.822,30.176,30.176,0,0,1,6.506-2.71,26.3,26.3,0,0,1,7.3-1.012,18.75,18.75,0,0,1,2.986.232,13.238,13.238,0,0,1,2.522.688l-3.659,22.142-1.933.055a16.375,16.375,0,0,0-2.049-2.785,22.006,22.006,0,0,0-2.856-2.819,15.873,15.873,0,0,0-3.308-2.1,8.791,8.791,0,0,0-3.759-.84,11.451,11.451,0,0,0-6.367,1.908,25.647,25.647,0,0,0-4.953,4.178l-.128,39.119,8.9,8.763-.121,1.969Z" transform="translate(-13.489 -6.417)"/>
    <path id="Path_2094" data-name="Path 2094" d="M766.457,251.722V249.4l7.922-8.061.138-36.786a18.214,18.214,0,0,0-.746-5.381,13.1,13.1,0,0,0-2.151-4.222,9.863,9.863,0,0,0-3.371-2.793,9.533,9.533,0,0,0-4.286-.983,11.877,11.877,0,0,0-4.6.968,24.118,24.118,0,0,0-4.328,2.393,29.63,29.63,0,0,0-3.783,3.12q-1.7,1.663-2.948,3.054l-.128,40.286,8.2,8.749-.108,1.983H719.542V249.4l8.327-8.053.148-43.2-7.835-9.21.1-2.027,26.014-5.707,1.412,1.666-1.094,10.471h2.058c1.847-1.688,3.536-3.2,5.37-4.653a39.334,39.334,0,0,1,5.885-3.846,33.391,33.391,0,0,1,6.617-2.647,27.116,27.116,0,0,1,7.341-.978,23.179,23.179,0,0,1,8.261,1.446,19.538,19.538,0,0,1,6.554,4.063,19.112,19.112,0,0,1,4.331,6.249,19.978,19.978,0,0,1,1.576,8V240.99l8.62,8.755-.119,1.976Z" transform="translate(-37.596 -6.417)"/>
    <path id="Path_2095" data-name="Path 2095" d="M881.515,245.306l-21.831-30.7-6.75,6.312-.157,13.657,8.62,8.755-.119,1.976H824.147v-2.327l8.324-8.053.148-80.883-7.394-6.978.138-2.393,26.908-5.435,1.611,1.993-1.1,12.984,0,59.785,29.254-26.668-9.327-9.186.111-1.56h30.112V178.5l-12.734,8.409-17.07,16.142,33.292,40.313-.09,1.942Z" transform="translate(-53.592 0)"/>
    <path id="Path_2096" data-name="Path 2096" d="M1042.856,253.379a35.516,35.516,0,0,1-13.386-2.444,29.379,29.379,0,0,1-10.334-6.941,32,32,0,0,1-6.714-10.892,40.153,40.153,0,0,1-2.412-14.222,40.6,40.6,0,0,1,2.823-15.384,34.909,34.909,0,0,1,7.876-11.887,35.316,35.316,0,0,1,12.1-7.677,42.65,42.65,0,0,1,15.425-2.72,59.932,59.932,0,0,1,6.285.341q3.214.342,6.267.891t5.68,1.23q2.361.615,4.149,1.228l-3.241,19.5h-3.434a89.073,89.073,0,0,0-6.176-9.884c-2.117-2.982-4.013-5.464-5.64-7.372a5.307,5.307,0,0,0-1.674-.477,12.673,12.673,0,0,0-2.08-.18,13.82,13.82,0,0,0-6.963,1.821,16.788,16.788,0,0,0-5.469,5.181,26.307,26.307,0,0,0-3.549,8.108,42.047,42.047,0,0,0-1.256,10.669,49.243,49.243,0,0,0,1.532,12.807,30.421,30.421,0,0,0,4.312,9.593,19.292,19.292,0,0,0,6.718,6.04,18.4,18.4,0,0,0,8.741,2.092,17.763,17.763,0,0,0,5.631-.889,26.527,26.527,0,0,0,4.984-2.245,31.01,31.01,0,0,0,4.307-3.011q1.711-1.44,3.105-2.8l3.378,3.788a44.252,44.252,0,0,1-5.381,5.946,36.637,36.637,0,0,1-15.568,8.53A38.53,38.53,0,0,1,1042.856,253.379Z" transform="translate(-82.015 -6.419)"/>
    <path id="Path_2097" data-name="Path 2097" d="M1134.705,245.317v-2.257l7.92-8.133.138-36.714a18.1,18.1,0,0,0-.783-5.491,13.132,13.132,0,0,0-2.184-4.224,10.018,10.018,0,0,0-3.371-2.751,9.518,9.518,0,0,0-4.285-.983,12.177,12.177,0,0,0-4.737.968,21.151,21.151,0,0,0-4.236,2.4,33.259,33.259,0,0,0-3.635,3.078q-1.66,1.628-2.977,3.008l-.135,40.366,8.2,8.816-.109,1.915H1087.79v-2.257l8.329-8.123.146-80.813-7.325-7.045.134-2.4,26.837-5.367,1.7,1.938-1.185,12.969,0,33.432.852-.877a53.8,53.8,0,0,1,4.984-4.5,38.554,38.554,0,0,1,5.815-3.846,32.467,32.467,0,0,1,6.58-2.645,27.12,27.12,0,0,1,7.339-.978,23.2,23.2,0,0,1,8.263,1.446,20.289,20.289,0,0,1,6.624,4.069,18.565,18.565,0,0,1,4.4,6.244,19.944,19.944,0,0,1,1.577,8v40.024l8.619,8.826-.114,1.906Z" transform="translate(-93.91 -0.012)"/>
    <path id="Path_2098" data-name="Path 2098" d="M1223.785,253.379a35.344,35.344,0,0,1-13.759-2.579,30.258,30.258,0,0,1-10.439-7.147,31.911,31.911,0,0,1-6.649-10.959,40.792,40.792,0,0,1-2.344-14.089,43.218,43.218,0,0,1,2.586-15.222,35.161,35.161,0,0,1,7.2-11.823,32.115,32.115,0,0,1,11.095-7.631,36.688,36.688,0,0,1,14.24-2.715,30.551,30.551,0,0,1,12.95,2.639,27.848,27.848,0,0,1,9.613,7.276,32.22,32.22,0,0,1,5.968,10.892,41.548,41.548,0,0,1,1.975,12.919H1211.44v.511l-.068.772a40.069,40.069,0,0,0,2.093,11.124,26.591,26.591,0,0,0,4.638,8.353,20.14,20.14,0,0,0,6.743,5.26,19.285,19.285,0,0,0,8.378,1.841,17.441,17.441,0,0,0,5.917-.959,21.039,21.039,0,0,0,4.8-2.436,28.977,28.977,0,0,0,3.89-3.19l2.8-2.772,3.708,4.061a63.873,63.873,0,0,1-5.583,6.164,35.112,35.112,0,0,1-6.793,5.13,34.361,34.361,0,0,1-8.184,3.359A38.061,38.061,0,0,1,1223.785,253.379Zm.894-66.683a9.663,9.663,0,0,0-5.077,1.448,12.556,12.556,0,0,0-4.166,4.441,26.417,26.417,0,0,0-2.812,7.443,49.417,49.417,0,0,0-1.119,10.581l-.005.535,24.626-1.581V209.1a62.492,62.492,0,0,0-.763-10.661,22.434,22.434,0,0,0-2.225-6.907,8.947,8.947,0,0,0-3.653-3.747A10.508,10.508,0,0,0,1224.679,186.7Z" transform="translate(-109.631 -6.419)"/>
    <path id="Path_2099" data-name="Path 2099" d="M1271.655,245.306v-2.327l8.324-8.053.148-80.883-7.326-6.91.138-2.463,26.77-5.432,1.686,2-1.107,12.906,0,80.43,8.62,8.755-.119,1.976Z" transform="translate(-122.027 0)"/>
    <path id="Path_2100" data-name="Path 2100" d="M1338.009,253.379a24.248,24.248,0,0,1-7.188-1.012,16.773,16.773,0,0,1-5.626-2.909,13.384,13.384,0,0,1-3.687-4.616,14.156,14.156,0,0,1-1.327-6.258,16.536,16.536,0,0,1,3.175-9.973,28.473,28.473,0,0,1,8.6-7.581,50.15,50.15,0,0,1,12.587-5.115,88.578,88.578,0,0,1,15.071-2.6l.453-.039-.007-8.273c-.058-11.959-2.7-17.459-8.562-17.83l-.734-.024c-5.5,0-8.9,4.042-10.411,12.359-.3,1.627-.633,4.26-.928,7.275h-5.742l-5.658-8.581-3.682-5.338a53.05,53.05,0,0,1,6.344-4.49,51.079,51.079,0,0,1,16.2-6.275,46.073,46.073,0,0,1,9.029-.883,33.94,33.94,0,0,1,11.812,1.76,17.935,17.935,0,0,1,7.343,4.854,18.29,18.29,0,0,1,3.853,7.481,42.634,42.634,0,0,1,1.293,9.668v32.091l7.622,9.542-.087,1.485-24.714,5.194-2.514-10.918-.637.7a33.932,33.932,0,0,1-9.878,7.466A26.478,26.478,0,0,1,1338.009,253.379Zm21.506-34.786a41.422,41.422,0,0,0-7.983,1.64,22.488,22.488,0,0,0-6.2,3,13.3,13.3,0,0,0-4,4.4,11.583,11.583,0,0,0-1.405,5.647c0,3.289.778,5.759,2.311,7.338a8.6,8.6,0,0,0,6.452,2.39,12.9,12.9,0,0,0,6.515-1.649,22.611,22.611,0,0,0,4.721-3.526l.145-19.3Z" transform="translate(-129.448 -6.419)"/>
    <path id="Path_2101" data-name="Path 2101" d="M944.081,253.379a24.262,24.262,0,0,1-7.19-1.012,16.78,16.78,0,0,1-5.624-2.909,13.444,13.444,0,0,1-3.689-4.616,14.186,14.186,0,0,1-1.325-6.258,16.536,16.536,0,0,1,3.176-9.973,28.4,28.4,0,0,1,8.6-7.581,50.243,50.243,0,0,1,12.588-5.115,88.566,88.566,0,0,1,15.071-2.6l.453-.039L966.132,205c-.06-11.959-2.7-17.459-8.564-17.83l-.734-.024c-5.5,0-8.9,4.042-10.41,12.359-.312,1.71-.649,4.429-.927,7.275h-5.742l-6-9.073-3.345-4.844a52.906,52.906,0,0,1,6.345-4.493,51.117,51.117,0,0,1,16.2-6.275,46.113,46.113,0,0,1,9.029-.883,33.924,33.924,0,0,1,11.812,1.76,17.934,17.934,0,0,1,7.346,4.854A18.3,18.3,0,0,1,985,195.308a42.8,42.8,0,0,1,1.294,9.668v32.091l7.619,9.542-.087,1.485-24.711,5.194L966.6,242.371l-.637.7a33.967,33.967,0,0,1-9.879,7.466A26.477,26.477,0,0,1,944.081,253.379Zm21.507-34.786a41.406,41.406,0,0,0-7.983,1.64,22.569,22.569,0,0,0-6.2,3,13.29,13.29,0,0,0-4,4.4,11.589,11.589,0,0,0-1.4,5.647c0,3.289.778,5.757,2.308,7.338a8.6,8.6,0,0,0,6.452,2.39,12.9,12.9,0,0,0,6.517-1.649,22.578,22.578,0,0,0,4.72-3.526l.146-19.3Z" transform="translate(-69.207 -6.419)"/>
    <path id="Path_2102" data-name="Path 2102" d="M649.479,253.379a24.264,24.264,0,0,1-7.191-1.012,16.781,16.781,0,0,1-5.624-2.909,13.418,13.418,0,0,1-3.689-4.616,14.157,14.157,0,0,1-1.325-6.258,16.537,16.537,0,0,1,3.176-9.973,28.4,28.4,0,0,1,8.6-7.581,50.3,50.3,0,0,1,12.587-5.115,88.655,88.655,0,0,1,15.071-2.6l.453-.039L671.53,205c-.06-11.959-2.7-17.459-8.564-17.83l-.734-.024c-5.5,0-8.9,4.042-10.412,12.359-.309,1.71-.646,4.429-.925,7.275h-5.742l-5.658-8.581-3.681-5.338a53.085,53.085,0,0,1,6.343-4.49,51.114,51.114,0,0,1,16.2-6.275,46.075,46.075,0,0,1,9.029-.883,33.944,33.944,0,0,1,11.812,1.76,17.957,17.957,0,0,1,7.346,4.854,18.318,18.318,0,0,1,3.853,7.481,42.818,42.818,0,0,1,1.291,9.668v32.091l7.622,9.542-.087,1.485-24.711,5.194L672,242.371l-.637.7a33.964,33.964,0,0,1-9.881,7.466A26.477,26.477,0,0,1,649.479,253.379Zm21.5-34.786a41.5,41.5,0,0,0-7.983,1.64,22.585,22.585,0,0,0-6.2,3,13.284,13.284,0,0,0-4,4.4,11.543,11.543,0,0,0-1.408,5.647c0,3.289.778,5.759,2.311,7.338a8.6,8.6,0,0,0,6.452,2.39,12.883,12.883,0,0,0,6.515-1.649,22.542,22.542,0,0,0,4.721-3.526l.145-19.3Z" transform="translate(-24.155 -6.419)"/>
  </g>
</svg>
