<svg xmlns="http://www.w3.org/2000/svg" width="180.598" height="24.792" viewBox="0 0 180.598 24.792">
  <g id="Group_511" data-name="Group 511" transform="translate(-473.699 -139.237)">
    <path id="Path_2092" data-name="Path 2092" d="M473.724,168.885v-.52l2.147-2.592.026-16.291-2.2-2.735.02-.448h12.432l4.4-.557.639,5.672h-.761l-4.191-3.635-5.373-.028v9h.8v-.016h3.294l2.074-2.742.523.038v6.882h-.615l-1.89-2.679-4.187-.047V165.7l2.5,2.741-.025.442Z" transform="translate(0 -5.237)" fill="#fff"/>
    <path id="Path_2093" data-name="Path 2093" d="M561.907,197.429v-.536l1.916-1.853.034-9.926-1.819-2.152.023-.451,6-1.313.324.383-.251,2.41h.539l.034-.057a4.428,4.428,0,0,1,.811-1,6.3,6.3,0,0,1,1.207-.88,6.946,6.946,0,0,1,1.5-.624,6.053,6.053,0,0,1,1.68-.233,4.317,4.317,0,0,1,.687.053,3.047,3.047,0,0,1,.58.158l-.842,5.1-.445.013a3.775,3.775,0,0,0-.472-.641,5.061,5.061,0,0,0-.657-.649,3.652,3.652,0,0,0-.761-.483,2.023,2.023,0,0,0-.865-.193,2.636,2.636,0,0,0-1.465.439,5.9,5.9,0,0,0-1.14.962l-.029,9,2.048,2.017-.028.453Z" transform="translate(-71.012 -33.78)" fill="#fff"/>
    <path id="Path_2094" data-name="Path 2094" d="M730.339,197.429v-.536l1.823-1.855.032-8.466a4.191,4.191,0,0,0-.172-1.239,3.012,3.012,0,0,0-.495-.972,2.27,2.27,0,0,0-.776-.643,2.194,2.194,0,0,0-.986-.226,2.733,2.733,0,0,0-1.059.223,5.548,5.548,0,0,0-1,.551,6.82,6.82,0,0,0-.871.718q-.391.383-.678.7l-.029,9.272,1.886,2.013-.025.456h-8.451v-.536l1.916-1.853.034-9.942-1.8-2.12.023-.467L725.7,181.2l.325.383-.252,2.41h.474c.425-.389.814-.738,1.236-1.071a9.051,9.051,0,0,1,1.354-.885,7.685,7.685,0,0,1,1.523-.609,6.241,6.241,0,0,1,1.689-.225,5.334,5.334,0,0,1,1.9.333,4.5,4.5,0,0,1,1.508.935,4.4,4.4,0,0,1,1,1.438,4.6,4.6,0,0,1,.363,1.841v9.212l1.984,2.015-.027.455Z" transform="translate(-197.915 -33.78)" fill="#fff"/>
    <path id="Path_2095" data-name="Path 2095" d="M837.35,163.649l-5.025-7.066-1.553,1.453-.036,3.143,1.984,2.015-.027.455h-8.546v-.536l1.916-1.853.034-18.615-1.7-1.606.032-.551,6.193-1.251.371.459-.254,2.988v13.76l6.733-6.138-2.147-2.114.026-.359h6.93v.44l-2.931,1.935-3.929,3.715,7.662,9.278-.021.447Z" transform="translate(-282.127)" fill="#fff"/>
    <path id="Path_2096" data-name="Path 2096" d="M1017.57,197.822a8.174,8.174,0,0,1-3.081-.562,6.762,6.762,0,0,1-2.378-1.6,7.362,7.362,0,0,1-1.545-2.507,9.241,9.241,0,0,1-.555-3.273,9.344,9.344,0,0,1,.65-3.541,8.035,8.035,0,0,1,1.813-2.736,8.128,8.128,0,0,1,2.784-1.767,9.816,9.816,0,0,1,3.55-.626,13.8,13.8,0,0,1,1.447.079q.74.079,1.442.205t1.307.283q.543.142.955.283l-.746,4.487h-.79a20.5,20.5,0,0,0-1.421-2.275c-.487-.686-.924-1.257-1.3-1.7a1.22,1.22,0,0,0-.385-.11,2.916,2.916,0,0,0-.479-.041,3.181,3.181,0,0,0-1.6.419,3.865,3.865,0,0,0-1.259,1.192,6.058,6.058,0,0,0-.817,1.866,9.679,9.679,0,0,0-.289,2.455,11.333,11.333,0,0,0,.353,2.948,7,7,0,0,0,.992,2.208,4.44,4.44,0,0,0,1.546,1.39,4.234,4.234,0,0,0,2.012.482,4.088,4.088,0,0,0,1.3-.2,6.1,6.1,0,0,0,1.147-.517,7.132,7.132,0,0,0,.991-.693q.394-.331.715-.644l.778.872a10.189,10.189,0,0,1-1.239,1.368,8.43,8.43,0,0,1-3.583,1.963A8.868,8.868,0,0,1,1017.57,197.822Z" transform="translate(-431.755 -33.792)" fill="#fff"/>
    <path id="Path_2097" data-name="Path 2097" d="M1098.588,163.713v-.519l1.823-1.872.032-8.45a4.168,4.168,0,0,0-.18-1.264,3.026,3.026,0,0,0-.5-.972,2.305,2.305,0,0,0-.776-.633,2.19,2.19,0,0,0-.986-.226,2.8,2.8,0,0,0-1.09.223,4.867,4.867,0,0,0-.975.552,7.651,7.651,0,0,0-.837.708q-.382.375-.685.692l-.031,9.29,1.887,2.029-.025.441h-8.451v-.519l1.917-1.87.033-18.6-1.686-1.621.031-.551,6.177-1.235.39.446-.273,2.985v7.694l.2-.2a12.363,12.363,0,0,1,1.147-1.037,8.869,8.869,0,0,1,1.338-.885,7.47,7.47,0,0,1,1.514-.609,6.242,6.242,0,0,1,1.689-.225,5.34,5.34,0,0,1,1.9.333,4.673,4.673,0,0,1,1.525.936,4.275,4.275,0,0,1,1.011,1.437,4.589,4.589,0,0,1,.363,1.841v9.212l1.984,2.031-.026.439Z" transform="translate(-494.372 -0.064)" fill="#fff"/>
    <path id="Path_2098" data-name="Path 2098" d="M1198.234,197.822a8.135,8.135,0,0,1-3.167-.594,6.962,6.962,0,0,1-2.4-1.645,7.343,7.343,0,0,1-1.53-2.522,9.384,9.384,0,0,1-.54-3.242,9.951,9.951,0,0,1,.6-3.5,8.092,8.092,0,0,1,1.656-2.721,7.393,7.393,0,0,1,2.554-1.756,8.443,8.443,0,0,1,3.277-.625,7.032,7.032,0,0,1,2.98.607,6.407,6.407,0,0,1,2.212,1.674,7.412,7.412,0,0,1,1.374,2.507,9.566,9.566,0,0,1,.454,2.973h-10.306v.118l-.015.178a9.22,9.22,0,0,0,.482,2.56,6.121,6.121,0,0,0,1.067,1.922,4.637,4.637,0,0,0,1.552,1.211,4.438,4.438,0,0,0,1.928.424,4.013,4.013,0,0,0,1.362-.221,4.841,4.841,0,0,0,1.1-.561,6.665,6.665,0,0,0,.9-.734l.645-.638.853.935a14.709,14.709,0,0,1-1.285,1.419,8.078,8.078,0,0,1-1.563,1.181,7.909,7.909,0,0,1-1.884.773A8.759,8.759,0,0,1,1198.234,197.822Zm.206-15.347a2.224,2.224,0,0,0-1.168.333,2.891,2.891,0,0,0-.959,1.022,6.08,6.08,0,0,0-.647,1.713,11.378,11.378,0,0,0-.257,2.435v.123l5.668-.364v-.107a14.367,14.367,0,0,0-.176-2.454,5.165,5.165,0,0,0-.512-1.59,2.06,2.06,0,0,0-.841-.862A2.418,2.418,0,0,0,1198.439,182.475Z" transform="translate(-577.135 -33.792)" fill="#fff"/>
    <path id="Path_2099" data-name="Path 2099" d="M1271.655,163.649v-.536l1.916-1.853.034-18.615-1.686-1.59.032-.567,6.161-1.25.388.46-.255,2.97v18.511l1.984,2.015-.027.455Z" transform="translate(-642.391)" fill="#fff"/>
    <path id="Path_2100" data-name="Path 2100" d="M1324.284,197.822a5.579,5.579,0,0,1-1.654-.233,3.86,3.86,0,0,1-1.295-.669,3.08,3.08,0,0,1-.848-1.062,3.256,3.256,0,0,1-.305-1.44,3.805,3.805,0,0,1,.731-2.3,6.551,6.551,0,0,1,1.979-1.745,11.543,11.543,0,0,1,2.9-1.177,20.385,20.385,0,0,1,3.469-.6l.1-.009v-1.9c-.013-2.752-.621-4.018-1.97-4.1l-.169-.005c-1.265,0-2.049.93-2.4,2.844-.068.375-.146.98-.214,1.674h-1.322l-1.3-1.975-.847-1.229a12.216,12.216,0,0,1,1.46-1.033,11.759,11.759,0,0,1,3.729-1.444,10.6,10.6,0,0,1,2.078-.2,7.812,7.812,0,0,1,2.719.405,4.128,4.128,0,0,1,1.69,1.117,4.207,4.207,0,0,1,.887,1.722,9.806,9.806,0,0,1,.3,2.225v7.386l1.754,2.2-.02.342-5.688,1.2-.579-2.513-.147.161a7.811,7.811,0,0,1-2.273,1.718A6.094,6.094,0,0,1,1324.284,197.822Zm4.95-8.006a9.531,9.531,0,0,0-1.837.377,5.175,5.175,0,0,0-1.427.69,3.059,3.059,0,0,0-.921,1.013,2.666,2.666,0,0,0-.323,1.3,2.355,2.355,0,0,0,.532,1.689,1.978,1.978,0,0,0,1.485.55,2.968,2.968,0,0,0,1.5-.38,5.2,5.2,0,0,0,1.086-.812l.033-4.441Z" transform="translate(-681.457 -33.792)" fill="#fff"/>
    <path id="Path_2101" data-name="Path 2101" d="M930.356,197.822a5.584,5.584,0,0,1-1.655-.233,3.862,3.862,0,0,1-1.294-.669,3.094,3.094,0,0,1-.849-1.062,3.264,3.264,0,0,1-.3-1.44,3.806,3.806,0,0,1,.731-2.3,6.539,6.539,0,0,1,1.979-1.745,11.565,11.565,0,0,1,2.9-1.177,20.382,20.382,0,0,1,3.469-.6l.1-.009,0-1.9c-.014-2.752-.622-4.018-1.971-4.1l-.169-.005c-1.265,0-2.049.93-2.4,2.844-.072.394-.149,1.019-.213,1.674h-1.322l-1.38-2.088-.77-1.115a12.18,12.18,0,0,1,1.461-1.034,11.762,11.762,0,0,1,3.729-1.444,10.613,10.613,0,0,1,2.078-.2,7.808,7.808,0,0,1,2.719.405,4.128,4.128,0,0,1,1.691,1.117,4.213,4.213,0,0,1,.887,1.722,9.848,9.848,0,0,1,.3,2.225v7.386l1.754,2.2-.02.342-5.687,1.2-.579-2.513-.147.161a7.816,7.816,0,0,1-2.274,1.718A6.093,6.093,0,0,1,930.356,197.822Zm4.95-8.006a9.531,9.531,0,0,0-1.837.377,5.192,5.192,0,0,0-1.427.69,3.06,3.06,0,0,0-.921,1.013,2.668,2.668,0,0,0-.323,1.3,2.359,2.359,0,0,0,.531,1.689,1.978,1.978,0,0,0,1.485.55,2.969,2.969,0,0,0,1.5-.38,5.2,5.2,0,0,0,1.086-.812l.034-4.441Z" transform="translate(-364.327 -33.792)" fill="#fff"/>
    <path id="Path_2102" data-name="Path 2102" d="M635.753,197.822a5.585,5.585,0,0,1-1.655-.233,3.863,3.863,0,0,1-1.294-.669,3.088,3.088,0,0,1-.849-1.062,3.258,3.258,0,0,1-.3-1.44,3.806,3.806,0,0,1,.731-2.3,6.537,6.537,0,0,1,1.979-1.745,11.577,11.577,0,0,1,2.9-1.177,20.406,20.406,0,0,1,3.469-.6l.1-.009v-1.9c-.014-2.752-.622-4.018-1.971-4.1l-.169-.005c-1.265,0-2.049.93-2.4,2.844-.071.394-.149,1.019-.213,1.674h-1.322l-1.3-1.975-.847-1.229a12.222,12.222,0,0,1,1.46-1.033,11.766,11.766,0,0,1,3.729-1.444,10.605,10.605,0,0,1,2.078-.2,7.812,7.812,0,0,1,2.718.405,4.133,4.133,0,0,1,1.691,1.117,4.215,4.215,0,0,1,.887,1.722,9.851,9.851,0,0,1,.3,2.225v7.386l1.754,2.2-.02.342-5.687,1.2-.579-2.513-.147.161a7.817,7.817,0,0,1-2.274,1.718A6.093,6.093,0,0,1,635.753,197.822Zm4.949-8.006a9.551,9.551,0,0,0-1.837.377,5.2,5.2,0,0,0-1.427.69,3.057,3.057,0,0,0-.921,1.013,2.657,2.657,0,0,0-.324,1.3,2.355,2.355,0,0,0,.532,1.689,1.979,1.979,0,0,0,1.485.55,2.965,2.965,0,0,0,1.5-.38,5.188,5.188,0,0,0,1.087-.812l.033-4.441Z" transform="translate(-127.158 -33.792)" fill="#fff"/>
  </g>
</svg>
