<svg version="1.1" id="Layer_1" xmlns="http://www.w3.org/2000/svg" x="0" y="0" viewBox="0 0 243.5 185.9" style="enable-background:new 0 0 243.5 185.9" xml:space="preserve"><style>.st1{fill:#fff;stroke:#000;stroke-width:2.6px;stroke-linecap:round;stroke-linejoin:round;stroke-miterlimit:10}.st2{fill:#fff;stroke:#000;stroke-width:2.6px;stroke-linecap:round;stroke-miterlimit:10}</style><path style="fill:none" d="M0 0h243.5v185.9H0z"/><ellipse cx="115.6" cy="172.9" rx="79.5" ry="8.7"/><path class="st1" d="M151.9 74.1c-7.2 0-14 2.2-19.8 6-5.8-3.8-12.6-6-19.8-6-22 0-39.8 17.5-39.8 48.9s32.1 54.3 46.6 54.3c3.2 0 6.3-1 9.2-2.9 2.3-1.5 5.3-1.5 7.6 0 2.9 1.9 6 2.9 9.2 2.9 14.4 0 46.6-22.9 46.6-54.3s-17.8-48.9-39.8-48.9z"/><path class="st1" d="M138.5 42.9c-4.5 20.4-6.4 37.2-6.4 37.2S129.4 41.7 81.3 41c21.6 39.3 50.3 41 50.3 41"/><path d="M134.8 167.7c3.4 1.4 7.1 1.6 10.5 1.1 1.7-.3 3.4-.7 5-1.3 1.6-.6 3.2-1.4 4.7-2.2 1.5-.9 3-1.8 4.4-2.9 1.4-1 2.8-2.2 4.1-3.3 2.6-2.4 5-5 7.2-7.7 4.3-5.5 7.7-11.7 9.9-18.5.6-1.7 1.1-3.4 1.5-5.1.4-1.7.8-3.5 1.1-5.3.6-3.6.9-7.3 1.1-11.1l.4-.1c1.1 7.4.8 15.1-1 22.3-1.8 7.3-5.2 14.2-9.9 20.1-2.4 2.9-5 5.6-7.9 8-2.9 2.4-6 4.5-9.4 6.2-3.4 1.6-7.1 2.7-10.9 2.9-3.8.1-7.6-.6-10.9-2.7l.1-.4z"/><path class="st1" d="M81.3 41s34.2 10.2 50.8 41.2"/><path class="st2" d="M128.7 131.1c-2.2 8.8-6.6 16.4-12.5 22.5-6.7-5.4-13.5-10.4-19.9-15.5l32.4-7zM73.6 143c-4.9 5.2-8.6 12-12 18.8 3.3-6.8 7.1-13.6 12-18.8l17.5-3.8c-2.8 9.6-4.9 19.3-3.1 29.5-15.2 1.7-30.9-6.3-39.7-20.3l25.3-5.4z"/><path class="st2" d="m91.1 139.2 5.1-1.1c6.5 5.1 13.2 10 19.9 15.5-4.1 4.2-8.9 7.7-14.3 10.5-4.4 2.6-9.1 4.1-13.9 4.6-1.8-10.2.3-19.9 3.2-29.5z"/><path class="st2" d="M48.3 148.4c8.7 14 24.5 22.1 39.7 20.3v.1-.1c4.8-.5 9.5-2 13.9-4.6 5.4-2.8 10.2-6.3 14.3-10.5l.3.3-.3-.3c5.9-6.1 10.4-13.6 12.5-22.5l3.4-.7s-1.6 31.9-33.8 44.1c-32.1 12.2-55.8-24.8-55.8-24.8l5.8-1.3z"/></svg>