<svg xmlns="http://www.w3.org/2000/svg" viewBox="0 0 243.5 185.86"><defs><style>.cls-2,.cls-4{fill:#fff}.cls-2,.cls-4{stroke:#000;stroke-width:2.6px}.cls-2{stroke-linejoin:round}.cls-4{stroke-miterlimit:10}</style></defs><g id="Layer_2" data-name="Layer 2"><g id="Layer_1-2" data-name="Layer 1"><path style="fill:none" d="M0 0h243.5v185.86H0z"/><ellipse cx="110.82" cy="172.86" rx="75.91" ry="8.74"/><path class="cls-2" d="m51.62 128.64 13.05 43.29s17 4 57 4 56.51-4 56.51-4l13.5-39.08Z"/><path class="cls-2" d="M53 138.69c-35.25-2 9.64-23.28 9.64-23.28s1.24-16.26 12.94-20.69 11.32-2.43 22.87-8.47 22-25.8 37-14c12.82.85 9.18 27.53 31.42 29.31 20.36 1.63 20.19 20.21 20.19 20.21s29.66 21.28 3.28 20.4c-11.14 10.09-61.51 15.47-85.41 6.57C78.06 157 58.19 150 53 138.69Z"/><path d="M145.74 123.42a17 17 0 0 0-3.57-2.55 1.45 1.45 0 0 0-2 1.5 7.09 7.09 0 0 0 2.13 4.8 3.47 3.47 0 0 0 2.43 2.09 2.51 2.51 0 0 0 2.73-2.13 4.16 4.16 0 0 0-1.72-3.71ZM100.15 127.6a12.9 12.9 0 0 0-5.93 2.4 1.51 1.51 0 0 0-.62 1.19c-.52 1.5.17 3.59 1.7 4a3.28 3.28 0 0 0 3.12-1c1-1 1.42-2.73 2.48-3.69s.72-3.1-.75-2.9ZM169.8 136.53l-3.41-1.65a1.35 1.35 0 0 0-1.86.69 1.89 1.89 0 0 0 0 1.51 1.65 1.65 0 0 0 .54 1.95 4.59 4.59 0 0 0 4.45.39c1.04-.42 1.41-2.35.28-2.89ZM93.12 99l-3.75.26h-.17l-1.07.09c-1.55.14-1.8 2.7-.3 3.11a10.52 10.52 0 0 0 4.67.2 1.41 1.41 0 0 0 1-.66c1.41-.34 1.27-3.08-.38-3ZM125.05 122.12a1.24 1.24 0 0 0-1.81-.47 1.21 1.21 0 0 0-1 .53 5.77 5.77 0 0 0-1.5 3.88 2.85 2.85 0 0 0 2.06 2.75 2.82 2.82 0 0 0 2.93-2.07 5.91 5.91 0 0 0-.68-4.62ZM120.18 97.37l-2.59.18c-1.76.13-1.7 3.26.06 3.14l2.59-.18c1.76-.12 1.7-3.26-.06-3.14ZM79.21 114.56l-1.77.35a1.64 1.64 0 0 0-1.34 1.67c0 .8.67 1.58 1.4 1.47l.63-.09a1.59 1.59 0 0 0 .2-.07l1-.19a1.61 1.61 0 0 0 1.28-1.7c-.01-.74-.61-1.58-1.4-1.44ZM163.17 116c-.74 0-1.36.88-1.34 1.66a1.4 1.4 0 0 0 .71 1.25 1.34 1.34 0 0 0 2.66 0 2.27 2.27 0 0 0-2.03-2.91Z"/><circle class="cls-2" cx="118.92" cy="63.2" r="18.64"/><ellipse class="cls-2" cx="114.33" cy="55.26" rx="13.05" ry="8.85" transform="rotate(-32.9 113.73 55.475)"/><ellipse cx="113.55" cy="54.11" rx="4.93" ry="3.35" transform="rotate(-32.59 113.552 54.1)" style="stroke-linejoin:round;stroke:#000;stroke-width:2.6px"/><path class="cls-4" d="m165.44 38.88-25.67 67.06s4.52 7.68 12.6 4.31l26.83-67"/><ellipse cx="172.13" cy="41.62" rx="2.83" ry="7.26" transform="rotate(-69.88 172.131 41.62)" style="stroke-miterlimit:10;stroke:#000;stroke-width:2.6px"/><path class="cls-4" d="M163.55 43.82s-.23 10.29 9.12 15.7M154.69 67a21.85 21.85 0 0 0 8.73 14.47M158.57 56.81s3.8 9.7 9.34 14.61M149.62 80.2s2 6.26 10.08 11.73M145.62 90.67s2 10.19 9.49 12.74"/></g></g></svg>