<svg xmlns="http://www.w3.org/2000/svg" viewBox="0 0 243.5 185.86"><defs><style>.cls-2{fill:#fff}.cls-2{stroke:#000;stroke-linejoin:round}.cls-2{stroke-width:2.6px}</style></defs><g id="Layer_2" data-name="Layer 2"><g id="Layer_1-2" data-name="Layer 1"><path style="fill:none" d="M0 0h243.5v185.86H0z"/><ellipse cx="111.18" cy="172.86" rx="105.72" ry="8.74"/><path class="cls-2" d="M156.51 87.84v80.12M189.62 68.9a33.12 33.12 0 0 1-66.23 0Z"/><path d="M183.8 75.22a28.06 28.06 0 0 1-54.65 0Z" style="stroke-linecap:round;stroke-width:2.2px;stroke:#000;stroke-linejoin:round"/><path class="cls-2" d="M163.25 133.24s23.19 9.08 31.06 10.54 6.33-12.95 16.44-12.28 18.35 19.71.65 24.74c0 0 5.66 21.16-7.74 16.79s-2-14.6-18.53-17.84-23-3.75-23-3.75"/><path class="cls-2" d="M96.72 100.58c-9.9 24.34-50 18.68-63 39.12-6.38 10.06-2.72 18.3 2.56 24.16 8.73 7.21 28.93 7.06 35.23 7.06 35.5 0 51.46-10.41 65.94-15.57 16.52-5.89 24.48-2.92 26.21-4.28 2.93-2.31 3.77-4.65 3-13-.09-1.11-1.8-4.39-2.64-4.88-6.95-4-25.12-17.8-34.16-29.32-8-10.15-15.7-25-36.35-30.76 4.63 4.52 9.09 13.02 3.21 27.47Z"/><path class="cls-2" d="M33.72 139.7c13-20.44 53.1-14.78 63-39.12 5.88-14.45 1.42-23-3.17-27.47-10.06-2.81-20.18-2.92-29.09 1.81-27.2 14.42-35.94 45.44-35.94 45.44s-11.35 27.83 7.76 43.5c-5.28-5.86-8.94-14.1-2.56-24.16Z"/><path class="cls-2" d="M53.83 104.91c-5.26 5.83-10.74 9.11-12.25 7.33s1.55-7.95 6.81-13.78 10.74-9.11 12.25-7.33-1.54 7.95-6.81 13.78Z"/><path d="M59.6 165.74s27.43 0 46.67-6.57c16.72-5.74 37-14.47 52.75-12.95" style="fill:#fff"/><path d="M59.6 165.74c8.49-.93 16.9-2 25.21-3.4 4.15-.76 8.29-1.5 12.33-2.57a104.52 104.52 0 0 0 12-3.71c4-1.39 8-2.84 12-4.2s8.14-2.64 12.32-3.65a87.81 87.81 0 0 1 12.69-2.36 44 44 0 0 1 12.86.37 59.06 59.06 0 0 0-12.54 1.58c-4.11.89-8.13 2.12-12.14 3.41s-8 2.72-11.93 4.23l-12 4.38a98.69 98.69 0 0 1-12.4 3.62 113.76 113.76 0 0 1-12.76 2 138.18 138.18 0 0 1-25.64.3Z"/></g></g></svg>