<svg version="1.1" id="Layer_1" xmlns="http://www.w3.org/2000/svg" x="0" y="0" viewBox="0 0 1081.2 603" style="enable-background:new 0 0 1081.2 603" xml:space="preserve"><style>.st0{fill:#fff}.st1{fill:#fff;stroke:#000;stroke-width:2.6px;stroke-miterlimit:10}.st2{stroke:#000;stroke-width:2.6px;stroke-linecap:round;stroke-linejoin:round}.st3{fill:none;stroke:#000;stroke-width:2.6px;stroke-miterlimit:10}.st4{fill:#fff;stroke:#000;stroke-width:2.6px;stroke-linecap:round;stroke-linejoin:round}.st5{fill:none;stroke:#000;stroke-width:2.6px;stroke-linecap:round;stroke-linejoin:round}.st6{stroke:#000;stroke-width:2.6px;stroke-miterlimit:10}.st8{stroke:#000;stroke-width:2.6px;stroke-linejoin:round}.st9{fill:#fff;stroke:#000;stroke-width:2.6px;stroke-linejoin:round}.st10{fill:none;stroke:#fff;stroke-width:2px;stroke-linecap:round;stroke-miterlimit:10}</style><g id="Layer_2_2_"><g id="Layer_1-2_1_"><path class="st0" d="M459.9 171.9c-52.6 20.9-103.2 46.2-155.4 68 16.6 36.7 31.1 74.4 47 111.5 44.6-30 89.5-59.8 134.1-89.8-3.1-13.3-6.1-26.6-9.2-39.8l21.8-17.9"/><path class="st1" d="M572.3 274.3c4.3 10.7 27.5 1.4 25.6-3.9-7.9-22.2 3.9-59.2 11.6-73.8s-30.5-11.2-32.9.8-9.8 63-4.3 76.9z"/><path class="st1" d="M596.3 255.7c5.2-1.5 8.4-5.9 10.7-10.7 4-1.8 5-6 2.9-9.8 3.8-3.4 5.3-7.1 3.2-11.9 2.1-7.7-.5-11.5-5.5-17.3-4.2 15.8-19.8 3.3-25.5 24.3-2.7 9.3-2.9 30.2 14.2 25.4z"/><path class="st2" d="M316.1 276.5c11 57.8 4.9 120.7 18.2 174.9 30.6-9.2 69.5-15.7 97.6-25.7s-20.8-17.9-28.3-11c-6.3-32.7-3.3-66-9.1-98.6 9.8-4.2 57.5-22.2 61.6-10.2 7.8 22.3 7 43.7 15.5 65.4 19.5-7.2 47-13.4 65-20.7 32.3-13.2-13.1-19-24-12.7.4-10.7 3-24.7-1.4-35.1"/><path class="st1" d="M349.9 284c-.6 11.4-.8 22.9-.6 34.3-9.3.8-20.6-6.7-30.4-6l.6 12c10.2-.6 21.8 6.3 31.4 5.7.9 22.3 1.3 44.6.4 66.9 55.6-18.6 111.5-84.3 162.1-86.6 4.9-36.3-15.1-23.1-41.1-17M406 270.7c5.6-6.1 11.3-12.3 16.8-18.5l11.4 2.3 8.7 20.7c-10.1 7.1-27.3-1-36.9-4.5z"/><path class="st1" d="M345.8 239.8c-3.6 5.9-7.3 11.8-11 17.6 32.1-6.4 31.1 14.1 54.6 20.7 6.2-5.2 13-9.6 20.2-13.2 0 2.3.1 4.5.1 6.8 10.3 4 24.8 11.1 31.8-.9 2.9 2.3 5.3 5.2 7 8.6 1 2.1-.3 3.8.2 5.9s2.8 4.1 2.8 6.2c0 3.6-.6 7.3-1.8 10.7-.8 2.6-3.4 4.5-5.1 7.4-1.2 2.1-1.1 3.8-3.5 6.5-9.1 10.1-53.9 9.3-64.6 9.6-30.9.8-88.9-9.2-101.8-34.2-26.7-51.4 42.6-100.7 76-113.7 165.1-64.1 93.2 22.1 211.1 52 7.8-5.3 17.1-2.7 25.6 1.6 6.9 3.5 19.5 19 8.5 20.8-10.3 1.7-11-3.3-16.3-8.3-9.9 6.2-19.5 4.4-28.8-2.3-5.2-2.2-13.2-4.5-18.1-1.9s-4.7 6.8-5.2 11.2"/><path class="st3" d="M317.2 196.4c33.1 1.6 45.5 29.3 35.5 58.6"/><path class="st3" d="M421.8 160c13.9 9.1 33.6 26.9 35 46.4-24.6 11.5-56.9 20.5-84 21.6-8.9-21.1-26.8-36.7-49.5-36.6"/><path class="st1" d="M281.8 232.2c21.5-11.3 43.5.1 58.8 15.9"/><path class="st3" d="M426.2 155.6c52 21.9 58.5 92.2 61.3 125.5"/><path class="st1" d="M443.5 253.9c-1.1 5.7-10.9 5.9-15.6 5s-13.7-4.8-12.6-10.5 11.3-3.2 15-2.4 14.3 2.2 13.2 7.9zM419.9 249.1l3.5.7M435.3 252.1l3.5.7M428 248.2l3.5.7M427.3 252.4l3.5.7"/><path class="st4" d="M376.7 146.8c-.9-1.9 1.7-3.7 2.8-4.6"/><path class="st4" d="M421.2 159.9c-6-21-13.9-41.5-21.3-62.1 16 1.2 25.7-23.2 18.3-40.5-5.2-12.3-19.8-12.8-32.4-8.9-1.7-9.4-11.1-18.8-19.4-18.4-16.3.9-25.2 7.5-34.4 19.8-11.8-5.6-26.7-4.3-36.4 7.5-7.7 9.2-4.2 19.7 2.7 26.6-12.2 6.2-17.6 23.7-12.4 32.2 8.1 13.2 17.9 10.9 30.1 6.9 9 20.7 12.8 35.9 22.6 59.6s54 15.5 71.6 2.5c1.3-1 2.5-1.8 3.5-2.6 7-5.4 9.9-14.3 7.5-22.6z"/><path class="st5" d="M334 150.2c-1.4-3.3-3.6-9.4 2.8-10.3s8.5 4.9 10.2 8.6M352.9 147.2c-1.5-3.4-3.8-9.5 2.8-10.5s8.8 4.9 10.5 8.7"/><path class="st4" d="M377.4 149.8c-4.2 10-12.2 12.9-22.5 11.9"/><path d="M417.6 165.9c-1.7-6.6-1.3-6.7-3.4-13.5-1.6-5.1-4-12.4-5.9-17.9s-4.5-12.5-6.4-17.5c-2.5-6.6-4.3-11.2-6.6-17.4-.1.1-.2.1-.4.1.8 6 2.1 11.9 3.7 17.7.8 2.9 1.7 5.9 2.7 8.9 1 2.9 1.9 5.8 2.9 8.8s2.1 5.9 3.3 8.9 2.3 6 3.5 9c1.9 4.4 4.1 8.8 6.6 12.9z"/><path class="st1" d="M582.1 197.1c11.2-64.2 22.3-128.8 33.5-192.8 14.7 26.2 21 62.2 20.7 90.4-.3 30-2.3 56.2-13 83.1-10.5 1.5-18 7.7-24.4 15.9-5.6 1.2-11.2 2.3-16.8 3.4z"/><path class="st3" d="M612 192.7c-10 5.6-20.9 8.3-32.2 10-1-2.7-2-5.3-3-7.9"/><path class="st1" d="M476.5 221.7c2.3-13.9 11.5-20.1 24.9-21.8"/><path class="st3" d="M582.8 225.5c5 15.9 21.9 3.8 30.3-2.2M581.1 237.7c7.2 12 22.1 1.9 30-3.3M582 247c4.9 4.2 10.9 3.9 17 2.2 3.3-1.1 6.3-2.7 9.1-4.7"/><path class="st1" d="M1034.9 363.3s-.7 13.5 3.8 16.2c4.5 2.8 8.2-1.6 8.2-1.6"/><path class="st1" d="M872.6 334.5c22.2-13.9 53.9-23.1 78.2-27.2 18.9-3.3 26.3-3.9 43.3-6.4 3.9-7.5 7.9-19.5 19.8-16.4 18.6 4.8 25.3 38.6 38.6 56.1 17.2 22.6 19.7 55.6-2.6 38.8-9 12-8.5-11-15-16.2-9.4-7.5-17.5-18.1-30.4-22.7-7-2.7-14.7-2.6-21.6 0-35.7 12.6-71.4 32-105.8 47.9s-56.9 8.2-60.7-31.7c-.3-3.4-.2-11.2-.6-15"/><path class="st6" d="M968 340.7c3.3 2.1 6.5 4.3 9.8 6.5M954.4 337c1.7-1 3.3-2 5-3M948.8 321.9c3-1.1 6-2.1 9-3.2M933.7 340.3c3.4-.8 7.3-.3 10.8-.2M939.4 330.2h5.5M920.5 330.8c2.2-3.4 4.4-6.9 6.6-10.3M924 348.6c3.2-.2 6.5-.3 9.7-.4M911.6 361.6l9.6-3M909.6 344.5l6.3-3.4M899.6 337.4c2.4-2.9 4.9-5.9 7.3-8.8M944.2 351.6c4 .6 8 1.2 11.9 2M942.8 312.1c2.3-3.1 4.7-6.2 7-9.4M981.3 331.7l6.2.5M897.7 355.8l9.6-1.6M885.4 370.8c4.2-.7 8.5-1.4 12.7-2.1M907.8 369.1c3 1.3 5.9 2.7 8.8 4.1"/><path class="st3" d="M17.5 597h1053.1"/><path class="st2" d="M89.8 305s11.9 8.4 20.3 12.7 23.2-3.2 46.4.1l-52.7 25.1-14-37.9z"/><circle class="st1" cx="111.5" cy="316.6" r="11.4"/><ellipse transform="rotate(-28.091 115.584 314.795)" class="st1" cx="115.6" cy="314.8" rx="6.3" ry="7.7"/><ellipse transform="rotate(-28.091 116.413 314.553)" class="st6" cx="116.4" cy="314.6" rx="2.2" ry="2.9"/><path class="st3" d="m100.9 337-17.5-49.1 73.1 29.9-46 22"/><path class="st6" d="M293 142c3.5 7-56.6 43.9-134.2 82.5S15.5 288.8 12 281.9s46.8-61 124.4-99.7S289.6 135.1 293 142z"/><ellipse transform="rotate(-26.463 152.507 211.94)" class="st1" cx="152.5" cy="211.9" rx="156.9" ry="14.1"/><path class="st3" d="M146.3 199.4 206.1 317v279.6"/><path class="st1" d="M117.7 374.6s69.3 66 76.4 61.6c17.2-10.8 124-71.3 124-71.3l38.8 41.6S228.5 481 198.1 479.9c-37.2-1.3-104.6-87.3-104.6-87.3s-14.8-2.6-18.1-8.7"/><path class="st1" d="M105.1 355.5s-7.6 14.4 1.5 21.6M94 366.3l-15.9 39.4 12 12.5-29.6-12.7h17.9M400.8 418.9h307.5v177.7H400.8z"/><path class="st1" d="M708.2 418.9h120.2v177.7H708.2z"/><path class="st6" d="M433.9 429.1h383.7v167.6H433.9z"/><path class="st0" d="M771.8 595.1c20.7-24.7 1.3-65.8-8.6-79 .7 12.1-.2 26.1-10.2 39.8-.6-6.6-2.3-13.1-5.2-19.2-5.8-12.4-13.4-23.5-19.2-35.9.3 21.9 11.8 47.8-8.8 73.8 8.2-16 3.8-30.6-.3-42.4-4.8-14-11.8-26.8-14-42.4-2.7 22.5 7 40.3 2.1 63.5-1.9-17.5-10.8-31.3-16.9-46.2-5.1-12.4-11.9-21.3-1.7-46.2-31.5 35.4-1.5 66.1-15.2 100.1-5.7-24.7-25.1-41.2-37.7-61 .1 19.9 8.7 39.8-1.7 62.9 2.5-32.7-23.7-50.6-26.2-80.9-11 30.6 9.6 58.6-15.8 90.5 3-18.6-7.8-33-15.9-45.3-9.4-14.3-20.9-27.7-25.8-45.2-7.1 31.1 21.5 63.3-9.4 97.6 8.5-15.7 3.8-29.8-.8-40.8-5.9-14.1-14.4-26.5-20.1-40.8-.4 21.9 11 45.5-5.2 71.2-1-14.6-9.3-25.8-17-36-.6 10.1-2.7 21.5-10.2 32.2-1.1 1.5-6.4 9.2-8.5 9.5s-.6.7-1.1-.9.9-4.9 1-6.8c.3-3.9 0-7.9-.8-11.7-3.7-18.9-15.2-33.4-23.6-49.3 3.4 19.4-20.8 63.3-39.1 88.5"/><path class="st0" d="M657.9 478.6c2.3 11.8 4.2 16.7 6 28.9-8.6-6.8-12.4-14.2-6-28.9zM692.1 439.8c-8 7.6-13.4 13.4-19.2 24.3-3.3-12.1 11-19.6 19.2-24.3zM595.9 529c-1.9-18.7-4-35 1-56.5-23.2 17.3-6.8 46.4-1 56.5zM518.6 450.8c3.5 16.1 8.5 23.5 14.3 38.2 1.5-17.5.8-31.7-14.3-38.2zM490.8 542.4c.9-5.8 1.3-11.7 1.4-17.6 0-2.2 2.2-21 2.2-21s-10.6 10.8-10.5 23.4c0 7.1 5.1 9 6.9 15.2zM755.7 519.2c-10.5-11.2-16.4-20.8-28.5-36.3 20 2.1 29.4 16.5 28.5 36.3zM447.3 501.2l.3 2.1c.1.7.2 1.4.3 2s.2 1.3.3 1.9l.3 1.8.3 1.8c.1.6.2 1.1.3 1.7s.2 1.1.4 1.7.2 1.1.3 1.6.2 1.1.4 1.6.2 1.1.4 1.7l.4 1.7.4 1.7c.1.6.2 1.2.4 1.8s.2 1.2.4 1.8.2 1.3.4 1.9.2 1.3.4 2 .2 1.4.4 2.1l-.1-.1-.4-.3c-.1-.1-.3-.2-.5-.4s-.4-.4-.7-.6l-.8-.8c-.3-.3-.6-.6-.9-1l-.9-1.2c-.3-.4-.6-.9-.9-1.4s-.6-1-.9-1.6-.6-1.2-.8-1.8c-.3-.7-.5-1.3-.7-2-.5-1.5-.8-3-1-4.6-.1-.9-.1-1.7-.1-2.6 0-.9.1-1.9.1-2.8.1-1 .3-2.1.5-3.1l.9-3.3c.1-1 .6-2.2 1.1-3.3z"/><path class="st1" d="M280.5 418.9h136.7v177.7H280.5zM249.7 391.5H385c7.6 0 13.7 6.1 13.7 13.7s-6.1 13.7-13.7 13.7H249.7c-7.6 0-13.7-6.1-13.7-13.7 0-7.5 6.2-13.7 13.7-13.7z"/><path class="st1" d="M376.7 391.5h476.9c7.6 0 13.7 6.1 13.7 13.7s-6.1 13.7-13.7 13.7H376.7c-7.6 0-13.7-6.1-13.7-13.7-.1-7.5 6.1-13.7 13.7-13.7z"/><path class="st1" d="M438.4 392.1h-4.5c1.5.1 3 .1 4.5 0zM814.7 596.6h-46.2l.1-91.9c0-36.5-29.6-66.2-66.1-66.2H488.6c-21.3 0-38.6 17.3-38.6 38.6l.1 119.4H425V418.9h389.9v177.7z"/><path class="st1" d="M829.1 596.6H782v-91.9c0-36.5-29.6-66.2-66.1-66.2H529.6c-36.5 0-66.2 29.6-66.2 66.1v91.9h-48.3V418.9H829v177.7zM117.7 374.6s12.1-25-2.9-32.6c-11.9-6-28.3-14.1-29.6-4.4 18.4 4.5 26 17.9 16 19.7 2.8 3 4.4 14.7-5.9 14.1 6.6 4.8.2 11.2-4.3 9.4 6.2 12-12.6 8-19.7 2-4.4-3.7-7.5-11.3-3-13.8-2.6-3.6-.9-9.3 2.8-11.3 0 0-2.3-4.1-.6-8.2 1-2.3 2.7-4.2 4.8-5.4-.9-3.5 6.1-6.8 10-6.5"/><path class="st1" d="M68.2 368.9s11.5 8.6 22.8 11.8M71 357.7s16.3 12.4 24.3 13.7M75.2 344.1s12.7 12 26 13.2"/><path class="st3" d="m116.3 331.7 35.9-51.3c1.4-2.1 4.2-2.7 6.4-1.4l17.6 11.4"/><path class="st4" d="M54.9 248.8c33.5-46.5 91.3-71.3 91.3-71.3s-18.9 9.4-31.6 38c-26.7 12.6-59.7 33.3-59.7 33.3z"/><path class="st4" d="M136.4 182.2s32.2-8.9 57.1-5.5l50.7-21.9c0 .1-44.1-5.7-107.8 27.4z"/><path style="fill:none;stroke:#fff;stroke-width:2.6px;stroke-miterlimit:10" d="m89.4 296.1 11.8 32.2"/><path class="st4" d="M998.5 227.8c8.9-5 14 5.9 12.8-12.1s-25.2-29.2-42.2-34-81.2-37.9-91.8-18c-11.9 22.2 63.5 36.5 76.7 41.7"/><path class="st4" d="M995.7 230.9c9-5 14 6 12.9-12.1s-25.2-29.2-42.3-34-81.3-37.8-91.9-18c-11.8 22 63.9 35.5 76.8 41.2"/><path class="st6" d="M854.7 416.3c2 16 .9 36.6-.7 51.7s-1.3 24.5-1 38.6c25.2-1.6 50.3-2.5 75.5-3.8-8.1-50.1-11-101.6-29.2-149.5-17.6-2-34.3-9.6-52.1-6.6"/><path class="st8" d="M598.8 286.4c-1.6-30.4-8.3-57.6-30.9-79.3-3.8 3.2-4.2 6.5-3.5 11.3 20.6 18.2 28.3 42 34.4 68zM681.4 293.6c.5-35.1-1.2-70.7-26.8-97.5-5.2.7-7.6 3-8.8 8.1 23.8 29.2 30.4 52.9 35.6 89.4zM745 238.6c-2.1-2.5-5.8 4-6.4 8.4 4.1 12.9 6.6 25.9 8.7 39.2.2-15.9-.6-31.8-2.3-47.6zM515.5 319c0-29.1-.5-58.2-23.8-79-3.2 5.2-2.7 10.2-2.1 16.1 20 20.1 22.2 35.9 25.9 62.9z"/><path class="st9" d="M985.3 220.5c3.1-.8 14.1 2.7 13.2-6.1-3.3-34.2-60.3-18.8-94.8-21-10.3-.6-34.5 12.9-7.2 32.9-10.7 29.6-20.8 60.1-34.3 87.3-3.2 6.5-1.9 8.3-6.7 11.8-7 5.1-13.5.4-21.9-.7-15.7-2-31.7-16.1-39.3-28.5-14.3-23.6-26.7-42.6-49.4-57.5 2 16 2.4 31.6 2.3 47.6-3.3-21.8-8.5-42.3-20.6-61-21.8-15.2-46.2-24.3-72.2-29 25.7 26.7 27.4 62.3 26.8 97.5-5.5-37.4-13.4-79.7-50.4-98.3-4.1.3-7.8.1-12 .6-17.3 2.1-34.3 6.2-51.1 11.1 21.3 20.5 28.6 46 30.7 74.8 0 .4-.7.5-.8.2-7.8-27.7-19.5-51.9-42-70.6-21.7 8.6-43.8 16.8-64.1 28.5 23.2 20.8 23.8 49.9 23.8 79-4.6-27.5-11.3-54.4-36.2-70.2-16.8 12.5-33.6 25.5-49.8 38.3-18.2 11-71.9 34.3-90.8 20.9-6-4.3 3.2-48.1.6-54-4.6-10.8-23.7 28.6-23.7 28.6s-10.9.5-11.9-2.4c2.4-6.5 6.7-36.7 0-33.9-5.1 2.1-20.2 43.3-26.9 47.4-17.4 10.6-41.1 5.6-56.6-4.5-.4 0-.9.1-1.2.1-1.9 0-4.3-.8-4.7-2.4 5.4 50 68.8 105 145 105h518.5s20.5-4.6 23-12.8c21.1-42.4 28.3-92.1 29.4-138.2 12.8-13.4 29-18.6 46.5-15.8 7.2 1.1 9.1 7.3 15.6 5.6s3.7-6.2 2.8-10.7"/><path class="st8" d="M219.6 293c2.6-1 5.1-2.5 4.9-5.6-.1-3.4-2.6-5.3-6-5.2s-5.5 2.3-6.2 5.5c-.2.9.1 1.8.6 2.4 1.3 1.8 3.3 2.9 5.5 3 .4.1.8 0 1.2-.1zM473.3 390.8c-3.7-8.2-7.5-13.1-11-21.4-12 2.3-24 4.5-36 6.7 0 6.5.2 9.8.7 16.3 15.5-1.1 30.9-.8 46.3-1.6z"/><path class="st6" d="M294.3 557.1c-10.8-13.8-21.2-28.3-32.3-41.8-2.9-3.6-5.1-4-9.6-3.2-8.1 1.7-16.2 3.9-24 6.7-3.6 1.2-4.5 3.4-2.1 6.6 11.7 15.3 24.5 30.2 36.5 45.3 10.6-4.5 21.1-9 31.5-13.6z"/><path class="st1" d="M514.3 339.9c-1.5 8.5-4.6 16.6-9 24-7.7-3.7-15.4-7.2-23.1-10.8 10.8-4.2 21.4-8.8 32.1-13.2zM458.4 362.5c-3.3 6-7.2 12.5-10.1 19 2.9-6.6 6.8-13 10.1-19 7.4-2.9 11.8-4.6 18.8-7.4-1.6 9.4-1.3 19 1 28.3-17.3 1.5-31.2-1.4-45.6-11.2 7.8-3.1 18.4-6.9 25.8-9.7z"/><path class="st1" d="m477 355.1 5.2-2.1c7.7 3.5 15.5 7.1 23.1 10.8-3.8 4.7-8.2 8.9-13 12.6-4.3 2.9-9 5.3-14 6.9-2.5-9.4-2.5-18.6-1.3-28.2z"/><path class="st1" d="M432.4 372.2c14.5 9.5 28.4 13.1 45.7 11 .1.2.1.2.2.3-.1-.1-.1 0-.2-.3 5.4-.7 9.7-4 14-6.9 5.1-3.4 9.5-7.6 13.1-12.6.1.1.4.3.4.3s-.3-.2-.4-.3c5.1-7.2 7.2-15.4 9.1-23.8 1.1-.6 2.3-1 3.5-1.2-2.9 24.1-5.8 35.7-28.4 47.1s-44.2 2.7-62.9-11.2c1.9-.9 3.9-1.8 5.9-2.4z"/><path class="st1" d="M379.7 383.9c15.6 9 21 107.3 11.6 115.6-23.6 20.7-45.7 29.9-70.1 42.6-6.8 3.6-14.9 3.5-21.6-.2-4.5-2.5-9.3-3.5-14.5-.4-4.8 2.9 6.4 8.5 7.6 11.6.6 1.5-3.4 5.3-6.5 5.2-6.1-.2-11 2.2-18.3 0-6.9-2.1-25.9-11.8-20.6 4.9-4.6 4.2-1.5 7.4 2.6 10.4-2.9 6.1 1.8 8.6 7.1 10.5.3 3.3.8 5.9 4.8 6.8 20.9 4.6 43.7 2.7 55.6-7.6 7.6-6.8 16.5-12.1 26.1-15.6 22-7.8 56.3-20.2 75.6-30 24.7-12.5 24-60.7 24.5-86.7.9-48.6 17-105.3-40.5-120.7"/><path class="st1" d="M256.9 584.3c4.4.8 14.9 1.2 19.3.6M250 573.6c6 1.9 19 2.9 25.4 2.4M246.9 563c6 2.3 16.5 3.9 27.1 3.9"/><path class="st8" d="M583.7 391.9c12.7-35 41.6-38.5 73.3-47.7 53.4-57.1 70.3-4.7 71.4 47.5"/><path class="st9" d="M720.8 390.5c-9.2-.9-.5-2.4-8.3-4.2-3.5 4 17.5 5 8.3 4.2-28-2.6-48.2-5.4-49.8-40.2-.9-18.7 6.1-31.1 26.5-33.1 6.7-.7 9.4 2 15.2 3.6"/><path class="st9" d="M700.7 317.5c4.5-2.6 6 2.9 9.8 3.2 3.6-1 3.4-5.2 8.1-3.4 14.5 5.6 20.9 18.8 24 33.8s2 29.5-10.8 38.6c-4.2 3-3.7-2.6-7-3-1.9 1.4-1.6 4.6-5 3.4-16.5-5.9-25.8-21.3-30-37.2s-2.9-27.3 10.9-35.4z"/><path class="st9" d="M692.9 299.4c6.1 5.2 11.3 11.2 15.7 17.9 1.1-16 9.4-24.5 21.5-34.1-1.6 14.8-4.7 25.5-17.7 34"/><path class="st8" d="M715.9 354c1.3 1.3 4.6 8.8 1.2 9.1s-2.1-7.3-1.2-9.1zM723.9 353.8c1.5.7 7.5 8.3 4.2 9s-4.3-6.7-4.2-9z"/><path class="st9" d="M626.5 380.4c-1.8-2-3.4-4-4.9-6.2-1.2-1.7-2.4-3.7-2.3-5.6s1.5-2.5 2.2-4c.5-.8 1-1.5 1.5-2.3 2.3 1.1 3.1 2.8 4.7 4.7 3 3.6 6 6 11 6.4 2.4.2 4.9-1.3 7.2-2 .5-.2 1-.4 1.4-.6 1-.5 1.2-.6 1-1.8-.1-.7-1.4-1.5-.2-2.2 2-1.1 4.6-.6 6.9-.7-.8-2-2-3.8-3.6-5.2 1-.5 2-1 3.1-1.3 1.1-.2 2.2 0 3.3-.4 1.3-.5 2.5-1.2 3.5-2.1.8-.6 2.3-1.2 2.5-2.3.2-1.6-1.1-1.9-2.1-2.8.6 0 1.2 0 1.8-.1-.1-1.3-.5-2.6-1.3-3.7-1.3-2.2-2.4-3.5-5.1-4-1.4-.1-2.7.3-3.7 1.3-.9.9-.5 2.2-1.5 3-2.1 1.6-5 1.8-7.5 1.7s-5.1-.7-6.4-2.6.2-2.2 1.9-2.7c3.2-.8 6.3-1.9 9.3-3.1 1.4-.6 2.2-1.7 3.8-1.9 2-.3 6.3 1.2 6-2.2-.2-3-3.9-4.9-5.9-6.9.4-2.1-.3-4.3-1.8-5.8-1.2-1-2.6-1.5-4.1-1.7-1.3-.2-1.1 0-2.2.6s-2.2 1.3-3.4 2.2c-.9.6-1.9 2-1.5 3.2-1 0-1.9-.8-1.9-1.8v-.1c.1-1 1.3-1.5 1.7-2 .7-.6 1.3-1.4 1.6-2.3.1-.4-.1-.9 0-1.3s.5-.9.3-1.3c-.9-2-3.4-3.1-5.4-3.2-3.8-.2-5.9 1-7.8 3.9-.6 1-.8 2.3-.5 3.5.2 1.2 1.5 1.4 2 2.3 1.6 2.8 2.4 6.1 2.2 9.3 0 2.2-1 4.6-3.4 5-1.8.3-2.6-1-3-2.5-.1-.8-.1-1.6 0-2.3-.1-.6 0-1.2.2-1.8.2-.9 1-1.3.6-2.4-.6-1.4-1.3-2.1-3.1-1.7-2.4.5-5.1 1.7-7.7 1.8-1.3 0-2.4-.8-3.8-.8-1.5.2-2.9.5-4.3 1-1.2.4-1.5.6-1.7 1.8-.1.9 0 1.8.3 2.6 1.2 2.1 2.7 4.1 4.4 5.8-1-.1-1.5.4-2.4 1-.9.7-2 1.2-3.1 1.2-2.8-.2-4-2.3-6.2-3.7-1.2-.8-2-.4-3.3.1-2.4.9-6.2 1.2-6.2 4.5 0 3.9 3.9 6.5 6.4 8.8 1.5 1.4 2.7 3.4 4.3 4.2 5.4 2.6 10.5 1.5 16.1 1.6 1.1 0 2.7-.3 2.9 1 .3 2.3-2.6 3.3-3.6 4.9-.7.9-1 2-1 3.1.1 1.8 1.2 3 2.1 4.4 2 3.4 4.2 6.6 6.5 9.7"/><path class="st4" d="M604.4 389.9c1.6-6.4 4.7-10.9 11.8-11.3 5.9-.3 9 3.5 11.6 8.1.5.9.3 2.1.5 3.1"/><path class="st4" d="M644.7 388.2c.1 1.7-.3 3.4-1 4.9-.3.8-.7 1.5-1.3 2.1-3.1 2.7-6 5.2-10.4 5.1-6.7-.3-10-3.9-12.6-9.8-.4-.8-.5-1.7-.3-2.6 1.2-6.4 4-10 10.1-12.4.8-.3 1.8-.4 2.7-.3 6.6 1.1 10.1 4.3 12.5 10.4.3.9.4 1.7.3 2.6z"/><path class="st4" d="M630.2 373.7c-1.4 6.6-4.8 10.5-11.6 11.5-3.4.5-5.8-1.5-8.5-3.2-.9-.6-1.5-1.4-1.9-2.4-2.4-6-1.3-11.7 4.4-14.9 6.3-3.5 10.9-1.4 15.9 3 .8.8 1 1.8 1.3 2.9.4 1 .5 2 .4 3.1zM682.1 352.7c-1.3 7.4-4.9 10.7-12.3 11.5-3-2-5.6-4.6-7.5-7.6-.6-.8-1-1.8-1.1-2.8-.6-2.9-.3-6 .9-8.7.2-1 .9-1.8 1.7-2.4 8.6-3.8 13.6-.8 18 7 .3.9.5 1.9.3 3z"/><path class="st4" d="M638.9 362.5c-.7 5.3-3 8.3-7.4 11.1-.7.4-1.5.6-2.3.7-.8.2-1.6.3-2.5.3-.8 0-1.7-.1-2.5-.2s-1.6-.4-2.4-.8c-7.2-5.8-9.9-13-1.8-19.5 5.9-4.7 12.6-2.1 17.4 2.8.7.9 1.1 1.9 1.2 3 .2.9.3 1.7.3 2.6zM666.7 348.9c-.2 3.6-2.1 6.1-4 9-.7.5-1.4 1-2.1 1.4-.7.5-1.4.8-2.2 1-2.5.2-5-.1-7.3-.9-.8-.2-1.5-.6-2.2-1.1-4.7-4.8-6.2-9.5-4.1-15.9.6-1.9 2.2-2.4 3.6-3.5.7-.5 1.4-.8 2.3-.9 4-.4 8.1.3 11.7 2.1.8.4 1.1 1 1.8 1.5.6 1.5 1.7 2.8 2.2 4.3.2 1 .3 2 .3 3z"/><path class="st4" d="M651.3 350.9c-.4 3-1.2 5.7-3.6 7.7-.7.7-1.6 1.2-2.5 1.6-2.5 1-5.1 1.4-7.8 1.2-.7 0-1.4-.2-2-.5-6-3.1-7.8-6.9-7.5-13.5 3.5-5.4 6.9-8.1 13.5-7.7.9 0 1.7.3 2.5.7 3.2 1.6 5.7 4.2 7.2 7.4.3 1 .4 2.1.2 3.1zM676.6 358.5c-1.4 7.3-5.1 10.9-12.2 12.8-.8.2-1.7 0-2.4-.4-4.2-1.9-7.4-4.2-9.7-8.3-.4-.9-.6-1.8-.7-2.7-.2-.9-.3-1.8-.3-2.7-.1-2.8.6-5.6 2-8 .4-.8 1-1.5 1.8-2.1 1.4-1.2 3.1-2 4.9-2.4.9-.3 1.8-.3 2.6-.2 6.7 1.9 10.5 5.1 13.5 11.3.6.9.7 1.8.5 2.7z"/><path class="st4" d="M652.2 370.3c-2.3 8.4-7.3 11.1-15.8 11.4-.9 0-1.7-.3-2.4-.8-2.9-1.5-5.3-3.9-6.9-6.8-.5-.7-.7-1.6-.8-2.4 0-7.8 3.2-12.1 10.4-15 1-.3 2-.3 3-.1 1 0 1.9.3 2.8.6.9.3 1.8.7 2.7 1.2 3.2 2.3 5.6 5.5 6.9 9.3.3.8.4 1.7.1 2.6z"/><path class="st4" d="M667.6 369c-.1 1.7-.4 3.3-1 4.9-.3.8-.8 1.5-1.4 2.1-.6.6-1 1.6-1.7 1.9-5.2 2-9.6 4.3-14.9 1.1-6.9-4.1-8.6-10.6-6.1-18.2.4-1.1 1.3-2 2.3-2.6 4.1-2.5 9-3.2 13.6-2 1 .2 1.9.6 2.7 1.2 3.5 2.3 5.1 5.1 6.2 9 .2.7.3 1.7.3 2.6z"/><path class="st4" d="M688.6 370.6c-2.5 8.9-7.5 12.2-16.7 11.8-.9-.1-1.7-.5-2.3-1.1-2.1-1.6-3.6-3.8-4.3-6.4-.3-.9-.4-1.9-.3-2.9 1.2-7.3 3.5-13.1 11.9-13.2 5.9-.1 9.4 4.4 11.4 9.6.3.6.4 1.4.3 2.2z"/><path class="st4" d="M687.4 387.9c-2.8 9.5-7.5 14.2-17.6 14.4-1.1-.1-2.1-.6-2.8-1.4-1.7-1.4-3.5-2.7-4-4.9-1.7-6.5.1-11 5-15.5.7-.6 1.5-1 2.4-1.1 4.1-1.1 8.4-.8 12.3.9.7.3 1.4.8 1.9 1.4 1.3 1 2.2 2.4 2.6 4 .3.7.3 1.5.2 2.2z"/><path class="st4" d="M689.1 410.5c-.1 2.9-.8 5.8-1.8 8.5-6.1 4.8-11 6-18.2 3-.6-.2-.9-.9-1.4-1.4-.4-.6-.8-1.2-1.1-1.9-.4-.8-.7-1.7-.9-2.5-.3-1.8-.3-3.6 0-5.3.2-.9.5-1.8.8-2.6.3-.9.7-1.8 1.3-2.6.5-.8 1.1-1.6 1.8-2.2 8-5 13.9-4.4 19.3 3.6.5 1 .2 2.3.2 3.4zM665 386.2c-3.6 9.9-9.6 12.8-19.7 10-.8-.2-1.2-.9-1.8-1.4-.6-.5-1.2-1-1.7-1.6-.6-.7-1.1-1.5-1.5-2.4-.5-.9-.9-1.8-1-2.8 0-7.1 2.2-13 10-14.1s12.3 3.3 15.5 9.9c.4.7.5 1.6.2 2.4z"/><path class="st4" d="M679.8 385.2c-1.1 5.7-3.7 9.3-8.9 11.7-.9.4-1.9.7-2.9.6-3.8-.3-7.7.1-10.3-3.2-5.3-6.7-3.9-12.8 2-18.5.9-.7 1.9-1.1 3-1.2 1-.4 2.1-.6 3.1-.6 6.6.6 10.6 3 13.7 9 .4.7.5 1.4.3 2.2zM661.2 403.7c0 .9-.2 1.9-.5 2.8-.2.9-.5 1.8-1 2.6-4.8 6.3-11.4 8.9-18.2 4s-6-11.5-2.3-18.1c.5-.9 1.4-1.5 2.5-1.8 9.1-2.8 14.9-.5 19.3 8 .4.8.1 1.6.2 2.5zM674.6 444.5c-2.4 8.9-7.5 11.3-16.3 9.6-.9-.3-1.6-.8-2.2-1.5-.8-.5-1.4-1.2-1.8-2-2.2-6.3-1.5-11 2.8-16.2.5-.6 1.2-1.1 1.9-1.4 1.5-.6 3.1-.8 4.7-.4.8.1 1.5.3 2.3.6 2.4 1.2 4.6 2.8 6.4 4.8.4.5.8 1.1 1.1 1.7.3.6.6 1.2.8 1.8.1 1 .6 2 .3 3z"/><path class="st4" d="M682.1 430.2c-.2 2.3-.8 4.6-1.9 6.7-.3.7-.8 1.3-1.5 1.8-2.1 1.8-4.7 2.9-7.4 3.2-.7.1-1.3.1-2 0-.8-.1-1.7-.2-2.5-.4-2.8-.8-4.4-2.6-6.5-4.5-.3-.9-1-1.5-1.1-2.5-.7-6.1.8-10.3 5.5-14.3.8-.6 1.7-1 2.7-1.2 7.2-1 11.1 1.5 14.1 7.9.6 1 .7 2.2.6 3.3z"/><path class="st4" d="M670.3 419.7c-.1.8-.5 1.6-.7 2.4-.2.8-.4 1.7-.7 2.5-.5 1.6-1.2 3.1-2.3 4.4-.4.6-1 1-1.6 1.3-6.1 1.9-10.6 1.2-16-2.4-2.2-4.4-3.5-8.8-1.2-13.3s6-5.6 10.4-7c1-.2 2-.2 3 .1 1.6.3 3.2.9 4.5 1.8.7.4 1.2 1 1.7 1.6 1.4 1.8 2.4 3.9 2.7 6.2.3.8.3 1.6.2 2.4z"/><path class="st4" d="M675.8 404.6c-1 5.4-4.1 8.6-8.3 11.9-.7.5-1.5.8-2.3.9-.8.2-1.6.3-2.4.3-4.3-.5-6.9-2.5-9.8-5.6-1-2.5-1.5-5.3-1.3-8 0-1.1.3-2.1.9-3 3.4-5.4 7.6-7.7 14-7.9 1.6 0 2.8.9 4.1 1.6.6.3 1.2.8 1.7 1.4 1.4 1.9 2.9 3.6 3.4 6 .1.8.2 1.6 0 2.4z"/><path class="st0" d="M245.8 523c.6.8 1.2 2.2 0 2.7s-2.2-.9-2.8-1.8-1.2-2.2 0-2.7 2.3 1 2.8 1.8z"/><path class="st1" d="M999.2 211.8c-4.3 1.1-8.7 1.2-13 .5M995.3 205c-4.2 1.7-5.3.4-9.6-1"/><path class="st9" d="M848.3 326.7c21.6 20.8 21.2 73.2 21.4 101.9s1.2 58.1-2.6 86.7c11.4-3 21.7-6.1 33.8-6.4s24.6.5 36.4-3.8c-.3-49.1.4-198.8-71-198.4-5.7 4.1-9.2 7.5-9.8 14.8-4.8-.9-6.5.8-8.2 5.2z"/><path class="st3" d="M856.6 321.6c20.4 19 29.1 45.3 34.5 72M859.8 312.2c7.5 0 12.9 2.7 18.8 7.2"/><path class="st6" d="M881 299.3c.2-2.3.1-4.7 0-7M883.1 281.2l-6.6-7.2M889 265.6c-2-3.2-4-6.4-6.1-9.6M892.6 247.4c-1-3.1-2-6.2-3.1-9.4M893.9 288.3c-.7-3.2-1.5-6.3-2.2-9.5M894.3 268c.9-2.8 1.8-5.7 2.7-8.5M901.9 301.5c1.2-4.7 2.3-9.5 3.3-14.2M917 281.4c.8-2.8 1.7-5.6 2.4-8.5M906.2 274.6c.9-2.7 1.7-5.3 2.5-8M916.5 260.1c-.2-2.4-.5-4.7-.7-7.1M905.2 255.3c.2-4.1.4-8.1.3-12.2M901.2 232.2c.4-1.6.8-3.3 1.2-4.9M914.2 315.8l1.2 6.3M922.8 301.2c1.7-1.3 3.5-2.6 5.2-3.9M924.6 267.9c3.5-3.6 6.9-7.2 10.3-10.7"/><path class="st4" d="M967.4 223.4c-5.4-13.2-4.5-24.4-.4-37.9 6.5 1.6 12.8 4 18.8 7.1-5 11-7.7 22.6-4.6 34.3l-13.8-3.5z"/><path class="st1" d="M302.7 347.7c2.5 10.1-11.2 11.4-20.1 5M304 294.9s8-4 12.5 4M285 288.9s8-4 12.5 4"/><ellipse transform="rotate(-61.262 282.477 305.405)" class="st6" cx="282.5" cy="305.4" rx="7.9" ry="3.5"/><ellipse transform="rotate(-61.262 301.037 311.33)" class="st6" cx="301" cy="311.3" rx="7.9" ry="3.5"/><path class="st10" d="M284.6 300.5s-2.2.1-4.9 7M303.4 305.9s-2.2.1-4.9 7"/><path class="st1" d="M1049.9 379.5c-5.5-3.6-5.4-14.2-5.4-14.2"/><path d="M720.2 196.4c-.5-3.5-1.2-6.9-2.1-10.3-.9-3.5-1.4-7.1-1.5-10.7-.1-3.9 1-7.7 3.1-10.9 1.1-1.5 2.4-2.9 3.9-4.1 1.3-1.1 2.6-2.2 3.7-3.4 2.1-2.1 3.2-5 3.1-8-.2-3.1-1.5-6.3-2.6-9.6-1.3-3.4-2.1-6.9-2.5-10.5-.3-3.6.3-7.2 1.7-10.5-.6 3.4-.6 6.9.2 10.2.8 3.3 2 6.5 3.5 9.6.7 1.6 1.4 3.2 2 4.9.7 1.8 1.2 3.6 1.4 5.5.2 2 0 4.1-.7 6-.7 1.9-1.8 3.6-3.2 5.1-2.7 2.8-5.7 4.5-7.5 7-.9 1.2-1.7 2.6-2.1 4.1-.5 1.5-.8 3.1-.9 4.8-.2 3.4-.1 6.8.3 10.2.2 3.5.6 7.1.2 10.6zM765.5 217.5c-1.1-.4-2.1-.9-3-1.7-1-.8-1.7-1.8-2.1-3-.4-1.2-.6-2.5-.4-3.8.1-1.2.4-2.4.9-3.6.9-2.2 2.1-4.2 3.6-6 .7-.9 1.5-1.8 2.2-2.6l1.2-1.2 1.1-1.1c1.4-1.4 2.6-3.1 3.6-4.8.9-1.7 1.4-3.6 1.5-5.5 0-2.1-.3-4.1-.9-6.1-.6-2.1-1.4-4.1-2.1-6.3 1.5 1.7 2.8 3.6 3.9 5.5 1.2 2.1 1.9 4.3 2.2 6.7.3 2.5-.1 5-1.2 7.3-1 2.2-2.4 4.2-4.1 5.9l-1.2 1.3-1.1 1.1c-.8.8-1.5 1.5-2.2 2.3-1.4 1.5-2.6 3.2-3.7 5a8.3 8.3 0 0 0-1.4 5.5c.1 1.9 1.5 3.6 3.2 5.1zM678.3 122.7c1.6 1.6 3 3.3 4.3 5.2 1.4 1.9 2.4 4 3.2 6.2.8 2.3 1.1 4.8.9 7.2-.1 1.2-.4 2.4-.8 3.6-.2.6-.4 1.2-.7 1.7-.3.6-.6 1.2-1 1.8-1.4 1.8-2.8 3.5-4.4 5.2-.7.7-1.3 1.5-1.8 2.4l-.6 1.2c-.1.4-.2.8-.2 1.3 0 2.2.1 4.3.4 6.4.1 1.1.2 2.2.2 3.3.1 1.1 0 2.3-.2 3.4-.4-2.2-.9-4.3-1.6-6.4-.7-2.2-1.2-4.4-1.5-6.7-.1-.7 0-1.3.1-2s.3-1.3.6-1.9c.5-1.1 1.1-2.1 1.9-3.1 1.3-1.9 2.8-3.6 3.9-5.2.2-.4.4-.7.6-1.1.2-.5.3-.9.5-1.4.3-.9.5-1.9.7-2.9.3-2 .2-4-.2-5.9-.4-2.1-1.1-4.1-1.9-6-.7-2.2-1.7-4.2-2.4-6.3z"/></g></g></svg>