<svg version="1.1" id="Layer_1" xmlns="http://www.w3.org/2000/svg" x="0" y="0" width="1684" height="1016" style="enable-background:new 0 0 1684 1016" xml:space="preserve"><style>.st0{stroke:#000;stroke-width:2.6px;stroke-miterlimit:10}.st1{fill:#fff;stroke:#000;stroke-width:2.6px;stroke-linecap:round;stroke-linejoin:round}.st2{fill:#fff;stroke:#000;stroke-width:2.6px;stroke-miterlimit:10}.st3{fill:none;stroke:#000;stroke-width:2.6px;stroke-miterlimit:10}.st4{stroke:#000;stroke-width:2.6px;stroke-linecap:round;stroke-miterlimit:10}.st5{fill:none;stroke:#fff;stroke-width:2px;stroke-linecap:round;stroke-miterlimit:10}.st6{stroke:#000;stroke-width:2.6px;stroke-linecap:round;stroke-linejoin:round}.st7{fill:none;stroke:#fff;stroke-width:2px;stroke-linecap:round;stroke-linejoin:round}.st8{fill:none;stroke:#000;stroke-width:2.6px;stroke-linecap:round;stroke-linejoin:round}.st9{fill:#fff}.st10{fill:#fff;stroke:#000;stroke-width:2.6px;stroke-linecap:round;stroke-miterlimit:10}.st12{stroke:#fff;stroke-width:2.6px;stroke-linecap:round;stroke-linejoin:round}.st13{fill:none;stroke:#000;stroke-width:6px;stroke-linecap:round;stroke-linejoin:round}.st17{fill:#fff;stroke:#000;stroke-width:2.6px;stroke-linejoin:round}.st18{fill:none;stroke:#000;stroke-width:2.6px;stroke-linejoin:round}.st19{stroke:#000;stroke-width:2.6px;stroke-linejoin:round}.st20{fill:none;stroke:#000;stroke-width:5px;stroke-linecap:round;stroke-linejoin:round}</style><g id="Layer_2_2_"><g id="Layer_1-2_1_"><path class="st0" d="M680.3 418.2h276.8v132.5H680.3z"/><path class="st1" d="M1002.3 368.3h30.2v327.6h-30.2z"/><path class="st2" d="M639.4 368.1h366.8v327.6H639.4z"/><path class="st3" d="m647.4 483.9 67.2-115.6M715.2 483.9l67.2-115.6M783 483.9l67.2-115.6M850.8 483.9 918 368.3M918.6 483.9l67.1-115.6M641.7 483.9h390.7"/><path class="st2" d="M798.3 483.9c0-21.7 10-40.5 24.5-49.2-4.5-2.2-9.5-3.3-14.5-3.3-22.9 0-41.4 23.5-41.4 52.5s18.6 52.5 41.4 52.5c5 0 10-1.1 14.5-3.3-14.4-8.7-24.5-27.5-24.5-49.2z"/><path class="st0" d="M849.9 483.9c0-22.6-11.2-41.7-26.9-49.2-14.5 8.8-24.5 27.4-24.5 49.2s10 40.5 24.6 49.2c15.6-7.4 26.8-26.6 26.8-49.2z"/><path class="st2" d="M913.4 483.9c0-12.7 6.1-23.6 14.9-28.1-2.8-1.5-5.9-2.2-9-2.2-13.2 0-24 13.6-24 30.4 0 16.8 10.7 30.3 24 30.3 3.2 0 6.3-.8 9-2.2-8.8-4.5-14.9-15.4-14.9-28.2z"/><ellipse class="st0" cx="928.3" cy="483.9" rx="14.9" ry="28.1"/><path class="st2" d="M684.7 483.9c0-12.7 6.1-23.6 14.9-28.1-2.8-1.5-5.9-2.2-9-2.2-13.2 0-24 13.6-24 30.4 0 16.8 10.7 30.3 24 30.3 3.2 0 6.3-.8 9-2.2-8.8-4.5-14.9-15.4-14.9-28.2z"/><ellipse class="st0" cx="699.6" cy="483.9" rx="14.9" ry="28.1"/><path class="st2" d="M700.3 534.8c-3.7 3.7-8.8 3.4-8.5-1.8.7-13.5 8-31.6.7-26.5-8.7 6.1-3.9 31.4-3.5 38.3.4 7.9-8.4 6.7-8.4 6.7s-.1.8-3.1 2.4c-2.7 1.6-7.5 2-12.5-3.1-1.6 1.6-9.2 2.2-11.5-6.8-10.9-1.1-8.6-20-4.1-42.5 3.9-19.6 18.7-27.1 28.5-28.8 10.3-1.9 20.9-2.1 31.3-.8 6 15.6 0 54-8.9 62.9z"/><path class="st2" d="M680.6 551.6s-8.7-1.8-4.7-34.6M665 550.9c-3.3-10.4-1.3-35.2-1.3-35.2M653.6 544.2s-1.6-20 .7-29.4M1008.3 476.6h23.8v15.3h-23.8zM846.2 505.6s-21.7-6.7-58.7 14.8c-33.6 19.6-71.3 16-72.7 2 39.7-26.7 20.7-93.3 23.4-104.4s17.5 23.7 17.5 23.7 11.7-.5 18.5-1.8c-.6-15.2-.6-42.1 8.6-24.7 1.6 2.9 5.6 16.7 6.9 19.3 8.2 17.5 29 25.1 46.5 17l3.6-1.8s18 22.2 6.4 55.9z"/><ellipse class="st0" cx="749.1" cy="480.5" rx="3.4" ry="7"/><ellipse class="st0" cx="767.5" cy="480.5" rx="3.4" ry="7"/><path class="st4" d="M757.2 483.2c0 7.2-4.2 8.7-4.2 8.7M776.2 483.2c0 7.2-4.2 8.7-4.2 8.7"/><path class="st5" d="M748.8 475.8s-1.8.7-1.2 7.3M767.2 475.4s-1.8.7-1.2 7.3"/><circle class="st0" cx="716.3" cy="520.4" r="5.4"/><path class="st0" d="M1032.5 403.9s55.3 4.7 57.5 69.7-57.7 114-57.7 114l.2-183.7z"/><path class="st2" d="M1092.5 635.3s11.5-.4 3.3 18.1c-7.6 17.4-26.4 15.6-33.3 26.4-5.5 8.6 0 16 20.1 16 22.5 0 30.4.1 43.3-18.9 27-40 14.7-95.2-11.2-98.8-16.1-2.2-22.2 18.7-22.2 18.7l-9 2.7"/><ellipse transform="rotate(-12.683 1090.67 616.174)" class="st2" cx="1090.7" cy="616.1" rx="12.5" ry="25.5"/><path class="st0" d="M1032.4 598.7s36.2-13.4 45.8-8.1c9.6 5.3 18.9 52.2 11.9 56.5-7 4.3-57.7 17.3-57.7 17.3v-65.7z"/><path class="st2" d="M795.9 485.7c10-1.7 10.2 11.8 3.2 19.9-6.5 7.6-13.6 7.1-15.6 3.5-3.1-5.8 2.9-8.1 5.4-12.5 1.8-3.3 2.4-10.1 7-10.9zM894.8 480.5s-24.1 7.4-29.5 15.2c-5.3 7.8 16.1 3.2 16.1 3.2"/><path class="st2" d="M938.6 495.7s-3.9-1.5-10.2 7.7c-6.1 8.9.4 29.2 1.5 36 1.3 7.8-8 7.6-8 7.6s-.9 5.4-3.8 7.4c-2.7 1.8-7.6 2.8-13.4-1.8-1.5 1.8-9.4 3.1-12.7-5.6-11.5 0-11.5-16-11.5-38.8s19.5-31.9 29.5-34.5c18-4.8 26.7 1.8 26.7 1.8 8.9 8.4 1.9 20.2 1.9 20.2z"/><path class="st2" d="M921.8 547s-9.3.9-9.3-29.3M904.6 552.6c-4.6-10-5.1-34.8-5.1-34.8M891.9 547s-3.7-19.8-2.4-29.3M1030.2 476.6c3.3 0 6 3.4 6 7.7 0 4.3-2.7 7.7-6 7.7"/><path class="st2" d="M1024.6 476.6c3.3 0 6 3.4 6 7.7 0 4.3-2.7 7.7-6 7.7M1015 476.6c3.3 0 6 3.4 6 7.7 0 4.3-2.7 7.7-6 7.7M570.9 465.1s-20.5-3.3-35.4 7.5c-20.4 14.9-9.7 71.9 32.3 88.5 34.9 13.9 71.6 1.8 71.6 1.8V543s-42.4 12.5-66.9-.6c-17.1-9.1-26.2-41.1-21-44.1 7.9-4.6 29.6-.5 88 23.6l-.2-90.9c-46-20.2-63.1 26.1-63.1 26.1"/><path class="st2" d="M541.6 416.7s9.2 34.2 23.1 46.4c13.8 12.2 12.8-6.7 12.8-6.7s-16.6-7-16.4-30.3"/><path class="st2" d="M532.8 386.2c2.5 31.3 15.5 57.9 31.1 56.6s28-29.9 25.5-61.2-15.9-39.6-31.6-38.3c-15.8 1.2-27.6 11.6-25 42.9z"/><ellipse transform="rotate(-8.622 586.772 381.204)" class="st6" cx="586.9" cy="381.2" rx="7.9" ry="11.4"/><ellipse transform="rotate(-8.557 563.994 383.133)" class="st6" cx="563.8" cy="383" rx="7.9" ry="11.4"/><path class="st7" d="m558.2 387.3 6-7.8 1 6.7 5.1-6M579.6 385l6.3-8.3 1.1 6.7 4.7-5.5"/><path class="st2" d="M576.8 400.4c6.2 6.8 13.1 10.6 15.6 8.5 2.4-2.1-.7-9.5-6.8-16.3-6.1-6.8-11.7-8.4-14.1-6.2s-.9 7.2 5.3 14z"/><ellipse transform="matrix(.00716 -1 1 .00716 196.02 919.175)" class="st1" cx="560.9" cy="360.9" rx="13.3" ry="85.8"/><path class="st1" d="M591.2 359.7s-8.6 5.6-34.7 4.9c-20.5-.6-26.6-5.9-26.6-5.9.3-16.9 11.9-30.4 28.7-32.3 20.2-2.4 32.9 16.4 32.6 33.3z"/><path class="st8" d="M549.1 404.6c10.2 5.8 22.6 6.3 33.2 1.3"/><path class="st9" d="M1079.6 508c.6-10.1 1.2-19.9.7-29.7l-.3-3.6c0-.6 0-1.2-.1-1.8l-.2-1.8-.4-3.6-.6-3.5c-.7-4.7-1.9-9.2-3.4-13.7-2.9-8.9-7.7-17.1-13.9-24.1-6.6-7.2-14.5-13-23.2-17.2h-.1c-.1-.1-.2-.2-.1-.3 0-.1.1-.2.2-.1h.1c14.7 4.2 27.3 13.7 35.3 26.7 2.6 4.3 4.8 8.9 6.4 13.6.4 1.2.9 2.4 1.2 3.6l1 3.7c.3 1.2.5 2.4.7 3.7l.4 1.8c.1.6.2 1.2.2 1.8l.5 3.7.2 3.8c.2 2.5.1 5.1.1 7.5-.3 10-1.7 20-4.1 29.7 0 .1-.2.2-.3.2-.1-.1-.2-.2-.3-.4z"/><path class="st2" d="M703.3 391c-1.1 0-2.2-.3-3.2-.8s-1.9-1.2-2.5-2.1c-.7-.9-1.1-1.9-1.3-3-.2-1.7-.3-3.1-.5-4.6-.2-1.3-.2-2.7-.2-4 0-1.3-.1-2.5-.1-3.7v-3.7c0-1.3.1-2.6.2-4s.2-2.9.4-4.6c.1-1.1.5-2.1 1.2-3 .7-.9 1.5-1.6 2.5-2.1s2.1-.8 3.2-.8c2.2-.1 4.4.7 6 2.2-.4 1.2-.6 2.5-.8 3.8-.2 1.7-.3 3.1-.4 4.6-.1 1.5-.2 2.7-.2 4s-.1 2.5-.1 3.7 0 2.4.1 3.7c.1 1.3.1 2.6.2 4 .1 1.5.2 3.1.5 4.6.2 1.5-.2 3.1-1.2 4.3-.9 1-2.4 1.6-3.8 1.5z"/><path class="st2" d="M716.1 392.8c-1.2 0-2.4-.3-3.4-.9-1-.6-2-1.3-2.7-2.2-.7-1-1.2-2.1-1.4-3.2-.2-1.8-.4-3.6-.6-5.2-.2-1.6-.2-3.1-.3-4.6-.1-1.5-.1-2.8-.1-4.2s0-2.8.1-4.2.2-2.9.3-4.6c.1-1.7.3-3.3.6-5.2.2-1.2.7-2.3 1.4-3.2.7-1 1.6-1.7 2.7-2.2 1-.6 2.2-.9 3.4-.9 4.5 0 7.2 1.1 8.2 2.2 0 0-2.6 2.4-2.8 4.2-.2 1.8-.4 3.5-.6 5.2-.2 1.7-.2 3.1-.3 4.6-.1 1.5-.1 2.8-.1 4.2 0 1.4 0 2.8.1 4.2.1 1.4.2 2.9.3 4.6.1 1.7.3 3.3.6 5.2.3 1.6-.2 3.2-1.2 4.5-1.1 1.1-2.6 1.8-4.2 1.7z"/><path class="st2" d="M728.8 392.8c-1.2 0-2.3-.3-3.3-.9-1-.6-1.9-1.3-2.6-2.2-.7-1-1.2-2.1-1.4-3.2-.2-1.8-.4-3.5-.6-5.1-.2-1.6-.2-3-.3-4.5-.1-1.5-.1-2.8-.1-4.2s0-2.7.1-4.2.1-2.9.3-4.5c.2-1.6.3-3.2.5-5.1.2-1.2.6-2.2 1.3-3.2.7-.9 1.6-1.7 2.6-2.2 1-.6 2.1-.9 3.3-.9 6.5 0 8 2.6 8.9 3.8-2.5 1.7-4 4.5-4.1 7.5 0 1.6-.2 3-.3 4.5-.1 1.5-.1 2.8-.1 4.2 0 1.4 0 2.7.1 4.2s.2 2.9.3 4.5c.1 1.6.3 3.2.6 5.1.3 1.6-.2 3.2-1.2 4.5-.9 1.3-2.4 2-4 1.9z"/><path class="st2" d="M740.1 391c-1.5 0-2.9-.6-4.1-1.6-1.2-1-1.9-2.3-2.1-3.8-.2-1.8-.4-3.6-.5-5.2-.1-1.6-.2-3-.2-4.5s-.1-2.8 0-4.3 0-2.9.1-4.5.2-3.3.4-5.2c.2-1.5.9-2.8 2-3.8s2.6-1.6 4.1-1.6c6 0 11.4 5.1 12.3 11.6h-8.2c-.1 1.6.4 10.7.5 12.3s.3 3.3.5 5.2c.2 1.4-.2 2.7-1.1 3.8-.9 1.2-2.3 1.7-3.7 1.6zM695.4 365.3s-9.6-14.1-15.7-8.8c-4.8 4.3 2.4 11.8 2.4 11.8h13.1l.2-3z"/><ellipse class="st2" cx="1008.3" cy="484.3" rx="6" ry="7.7"/><ellipse class="st2" cx="1008.3" cy="484.3" rx="1.8" ry="2.3"/><path class="st2" d="M1087.6 664s9.6-2 18.3 3.3M1095.8 653.4s10.4-3.2 17.9 2.3M1098.7 643.5c6.5-2.4 13.7-2.4 20.2 0"/><path d="M565.4 492.2c3.3.1 6.5.5 9.7 1.2 1.6.3 3.2.6 4.8 1 1.6.4 3.2.7 4.8 1.1 6.3 1.6 12.5 3.4 18.8 5.3 3.1 1 6.2 2 9.2 3.1 3 1.1 6.1 2.1 9.2 3.3s6.1 2.2 9.1 3.5l9 3.6-1.6 3.6-8.9-4.1c-2.9-1.4-5.9-2.6-8.9-3.9-3-1.3-6-2.5-8.9-3.8s-6-2.4-9-3.6c-6-2.3-12.2-4.4-18.4-6.3-1.6-.5-3.1-1-4.7-1.4-1.6-.4-3.1-.8-4.8-1.2-3-.6-6.2-1.1-9.4-1.4z"/><path class="st3" d="M122.2 877h1446.9"/><path class="st2" d="M352.9 710.7h1069.2V877H352.9z"/><path class="st2" d="M1211.3 738.4h169.3v14.9h-169.3zM1237.9 782.3h169.3v14.9h-169.3zM1264.5 826.4h169.3v14.9h-169.3z"/><path class="st1" d="M1270.3 738.4h169.3v14.9h-169.3zM1296.9 782.3h169.3v14.9h-169.3zM1323.5 826.4h169.3v14.9h-169.3z"/><path class="st2" d="M294.2 695.9h1216.6v14.8H294.2z"/><path class="st1" d="M1207.9 695.8h302.7v14.9h-302.7z"/><path class="st9" d="m1175.4 601.5-27.7-27.3 13.9-41.5 51.6-41.8 147.1 33.7-5.4 61.9z"/><path class="st6" d="M1362.5 564.1c5.2 54.1 8.4 119.9 11.7 174.1l-78.1.1c-23-.3 11.1-27.6 24.6-20.7-3.2-30.7-17.8-69.6-20.7-100.5-14.1 0-62.6-4.9-61.6 9.2 1.9 26.2 6.1 41.6 5.9 69.1l-68.2.1c-30.7 0 5.9-27.2 19.7-20.4-10.6-27-9.2-35.1-9.2-35.1"/><path class="st2" d="M1332.6 571.2c3.9 11.6 3.9 34.1 3.9 34.1l31.6-.6 1 11.9-31.8 1.2s.4 45.3 9.4 70.6c-102.5-1.2-102.9-57.6-159.8-40.5-14.9-29.9-20.4-72.3 16-75.6"/><path class="st0" d="M1251.5 568.1c1.8 2.7 3.5 4.8 5.4 7.9 15.5 9.7 45.2 25.6 51.6 39.9 6.3 14.3 26.7 5.6 27.9-5-31.7-22.8-54.5-38-76.1-54.2 3.8 2.9-5.9 7.6-8.8 11.4z"/><path class="st2" d="M1182.2 504.5c-26.6 16.2-49.9 71.6-30.7 98.6 15.2 21.4 34.5 22.2 50.6 18.3 10.7-2.6 5.7-7.8 10.3-11.5 3.4-2.2 5.8-5.7 6.4-9.7.3-2.8-.7-7.9-3.4-9.6 1.7-4.6 4-3.8.9-10.7-1.6-3.5-14.5-9.4-20.5-7.1-1-3.9 1.8-3.9.1-8.3-1.8-4.4-18.4-.9-19.8 3M1331 529.6l15.9 13.8c-22 .7-42.9 17.3-53.7 18.1-8.8-6.9-15.9-6.7-27.7-2 0 0 5.1 4 8.8 7-6.2 4.9-9.4 19-19.1 9.8-1.4 3.7-1.8 7.6-1.4 11.5.2 2.4 2.3 3.1 3 5.2s0 5.6 1 7.1c2 3.1 4.3 5.8 7 8.3 1.9 1.8 5.3 2.2 8.2 3.7 2 1.1 3.3 3.1 6 4 9.9 3.1 19.6-4.8 32-6.5 35.7-5 93-9.2 99.9-62.7 7.8-59.9-91.8-84.4-113.8-81.8-55 6.6-82.4 10.9-114.6 39.7"/><ellipse transform="rotate(-8.441 1196.647 570.833)" class="st2" cx="1196.9" cy="570.9" rx="14.5" ry="7.5"/><path class="st2" d="M1227.1 583.5c14.3-12.2 37.9-23.2 37.9-23.2l-163.2-120.2c11.5 32.3 29.6 63.2 54.9 85.3 23.6 20.6 44.7 37.5 70.4 58.1z"/><path class="st2" d="m1201.5 568.8-29.4-162.3-4.4.9 23.2 164.2c4.4.3 8.5-.6 10.6-2.8z"/><path class="st1" d="M1304.9 467.2c-7.3-27-22.5-80-22.5-80 15.4-5.1 26.1-14.3 20.1-31.8-4.2-12.5-18.4-15.9-30.1-10.5-2-10-9.3-17-20-17-21.2 0-29.8 19.8-29.8 19.8-17.3-8.3-31.9-5.7-39.5 4.7-6 8.2-.3 21.5 7.1 27.4-12.5 8.6-18.8 19.4-11 29.3 9.1 11.6 25.9 4.7 25.9 4.7 5.1 23.1 18.2 71.7 18.2 71.7 18.5 20.5 58.7-2 81.6-18.3z"/><path class="st3" d="M1332.9 470.1c-26.6 8.9-30.5 46-11.1 71.9"/><path class="st2" d="M1323.6 467.6c-19.6 5.5-29.9 24.3-30.2 46-21.7 7.6-66.1 8.9-85.4 4.7"/><path class="st2" d="M1221.8 482.6c-5.5 6.3-11.7 17.9-13.8 35.7"/><path class="st6" d="M1229.3 434.2c1.2 4.6 3.1 13.1-3.1 14.3-6.2 1.2-8.4-7.5-9.4-12.1s-3.1-13.1 3.1-14.2 8.2 7.4 9.4 12zM1247.6 430c1.2 4.6 3.1 13.4-3.1 14.4s-8.3-7.6-9.4-12.2c-1.2-4.6-3.2-13.2 3.1-14.4 6.3-1.1 8.2 7.7 9.4 12.2z"/><path class="st1" d="M1264.8 460.6c1.1-1.2 1.9-2.6 2.5-4.1 1.7-4.2 1.4-8-2.5-10.7-4.3-3-8.1-1.3-11.5 2.3-2.4 2.6-5 4.9-9.1 5.9-3.4.9-7.6 2.5-8 6.9-.4 4.4 3 8.6 7 9 9.5 1.2 16.1-3 21.6-9.3z"/><path class="st1" d="M1236.5 463.3c13.1 0 24-3.8 29.1-16.5-1.6-.8-3.1-1.7-4.7-2.4 1.1 1.8 2.1 3.5 3.1 5.3l4.1 3.7c-.5-1.8-1-3.6-1.5-5.3"/><path class="st2" d="M1379.9 491.7s-26.5.5-41.4 44.5"/><path class="st3" d="M1213.2 483.3s-13.9 14-13.9 28.5"/><path class="st1" d="M1336.2 576.2s10.1-8.7 4.1-15.3c-6-6.6-19.6 12.7-23.2 24.8 25.8 11.3 50.7-13 19.1-9.5z"/><path class="st8" d="m1327.5 578.9-14-5.7M1343.9 586.7l9.6 3.9"/><path class="st9" d="M1195.9 679.1c-3.1.8-5.6 1.4-8 2-2.2.7-4.4 1.5-6.5 2.4-2.1.9-4.3 1.9-6.6 3s-4.8 2.2-7.8 3.4h-.1c-.1 0-.3 0-.3-.1v-.2c1.6-2.3 3.6-4.4 5.7-6.1 2.2-1.8 4.6-3.3 7.2-4.5 2.6-1.1 5.4-1.7 8.3-1.8 2.8-.1 5.6.4 8.3 1.4.1 0 .2.1.1.2v.1c-.1.1-.2.1-.3.2zM1322 722c-3.1.8-5.6 1.4-8 2-2.2.6-4.4 1.5-6.5 2.4l-6.6 3c-2.3 1.1-4.8 2.2-7.8 3.4l-.1.1c-.1 0-.3 0-.3-.1v-.2c1.6-2.3 3.6-4.4 5.7-6.1 2.2-1.8 4.6-3.3 7.2-4.5 2.6-1.1 5.4-1.7 8.3-1.8 2.8-.1 5.6.4 8.3 1.4.1 0 .2.1.1.2v.1c0 .1-.1.1-.3.1zM1369.9 732.8c-2.2-9.1-3.9-18.4-5-27.7-1.2-9.2-2.1-18.6-2.7-27.9-.6-9.3-.9-18.7-.9-28-.1-9.4.4-18.8 1.5-28.2 0-.1.1-.2.3-.2.1 0 .2.1.2.2l1 14 1 14 1.8 28 1.8 28 .9 14 .8 14c0 .1-.1.3-.2.3-.3-.2-.4-.3-.5-.5z"/><ellipse transform="rotate(-21.612 1322.042 614.484)" class="st2" cx="1322.1" cy="614.5" rx="4.8" ry="4.2"/><path d="m1278.8 391.1 10.5 37.4 10.1 37.4-.4.1c-2.9-5.9-5.5-11.9-7.7-18.1-1.2-3-2-6.1-3.1-9.2-1.1-3.1-1.8-6.2-2.7-9.3s-1.7-6.2-2.4-9.4-1.5-6.3-2-9.5c-1.3-6.4-2.3-12.9-2.7-19.4h.4z"/><path class="st1" d="M1575.4 523.9s8.9-6.2 13.1 1.6c4.2 7.8-7.4 15.9-12.5 16.4"/><ellipse cx="1422.2" cy="947.6" rx="99.2" ry="6.6"/><path class="st1" d="M1402.1 908.9c2.5 10.1 5.2 38.9 5.2 38.9h5.9v-8.9"/><path class="st6" d="M1462.7 667.3c-.9 0-1.8-.1-2.7-.2-13.6-1.5-25.5-11.2-21.4-24.3 12.9-41.7 7.7-61.2-.5-65.9l62.3 22.4.1-.1c-7.7 14.6-12.6 30.5-14.5 46.9-1.4 12.5-10.9 21.2-23.3 21.2z"/><path d="M1448.2 519.6c-.7.8-1.4 1.5-2.1 2.2-.7.7-1.5 1.3-2.3 1.8-1.5 1.1-3.1 2-4.8 2.8-1.6.8-3.3 1.5-5 2l-5 1.8c-3.3 1.2-6.6 2.3-9.9 3.6-3.3 1.3-6.5 2.4-9.6 3.7-3.1 1.2-6.1 2.6-9 4.2-2.7 1.4-5.3 3.2-7.6 5.2-1.9 1.5-3.5 3.5-4.6 5.6l-.3.7-.2.6c-.1.3-.1.6-.2.9 0 .1.1 0 0-.4-.1-.6-.3-1.1-.6-1.6-.2-.4-.5-.7-.8-1-.1-.1 0 0 .3 0 1 .3 2 .5 3 .6 3.1.3 6.3.4 9.4.3 3.4-.1 7-.3 10.7-.5l11.3-.8c7.7-.4 15.7-1 24.7-.2 5.1.4 10.2 1.6 15 3.5 3.2 1.3 6.1 3.1 8.7 5.3 3 2.6 5.5 5.8 7.3 9.4 3.2 8.1-.9 17.3-9 20.5-7.8 3-16.6-.5-20.1-8.1.3.2.7.5.9.4.2-.1 0-.5-.6-.9-2-1.3-4.1-2.1-6.4-2.6-3.1-.7-6.3-1.2-9.4-1.6-3.4-.4-6.9-.6-10.5-.7l-11.1-.3c-3.8-.1-7.7-.1-11.7-.4-4.3-.2-8.6-.7-12.8-1.5-2.7-.5-5.3-1.3-7.8-2.3-1.6-.7-3.2-1.6-4.6-2.7-1.8-1.3-3.4-3-4.6-5-1.3-2.1-2.1-4.4-2.5-6.8-.3-2-.3-4 0-6 .3-1.5.7-3.1 1.2-4.6.2-.7.5-1.4.8-2 .3-.7.6-1.3.9-1.9 2.3-4.5 5.4-8.5 9.1-11.9 3.2-3 6.6-5.8 10.2-8.4 3.4-2.4 6.9-4.6 10.6-6.6 7-3.9 14.4-7 22-9.4 1.8-.6 3.8-1.2 5.6-1.7 1.9-.6 3.8-1 5.7-1.2 2-.2 4-.3 6-.1 1.1.1 2.1.2 3.1.5 1.1.2 2.3.5 3.3 1 4.4 1.6 6.7 6.4 5.3 10.8-.3.8-.7 1.6-1.2 2.3l-.8 1.5z"/><path d="M1568.4 561.9c1 1.6 1.9 3.3 2.4 5.1.5 1.6.8 3.3 1 5 .2 1.6.2 3.2 0 4.9-.1 1.7-.3 3.2-.5 4.9-.8 6.5-2 12.9-3.5 19.2-1.6 6.4-3.4 12.7-5.6 19.5-.6 1.8-1.2 3.4-1.9 5.3-.8 2.1-1.9 4.2-3.1 6.1l-.6.9-.6.8c-.4.5-.9 1.1-1.4 1.7s-1.2 1.2-1.8 1.8c-.8.7-1.7 1.3-2.6 1.8-1.2.7-2.5 1.2-3.8 1.5-1.5.4-3.1.5-4.7.4-1.4-.1-2.8-.4-4.2-1-1.1-.4-2.1-.9-3.1-1.6-1.4-.9-2.6-1.9-3.7-3.1-.9-.8-1.6-1.7-2.3-2.7-1.4-1.8-2.3-3.3-3.3-4.8-1.9-3-3.6-5.7-5.2-8.5s-3.1-5.2-4.8-7.6c-1.6-2.2-3.2-4.5-5-6.6-3.4-4-7.1-6.8-10.2-8-1.4-.5-2.9-.7-4.4-.6-1.6.1-3.1.5-4.5 1.2-8.2 3.5-17.6-.3-21.1-8.5s.3-17.6 8.5-21.1c.1 0 .2-.1.3-.1 1.4-.6 2.9-1 4.5-1.2l2.1-.2c4.8-.5 9.6-.3 14.3.6 4.7.9 9.3 2.7 13.4 5.3 3.7 2.3 7.1 5.1 10.1 8.3 2.6 2.9 5 5.9 7.2 9.1 1.9 3 3.8 6 5.4 9.2 1.7 3 3.1 6 4.5 8.9s2.7 5.6 4 8.1c.7 1.2 1.3 2.3 1.8 3.1.3.4.5.8.7 1 .2.2.2.2-.2 0-.9-.5-1.9-.8-2.9-.9-.8-.1-1.6 0-2.3.2-.6.1-1.1.4-1.6.7-.2.1-.5.3-.7.5-.1.1-.1.2-.1.1l.2-.2.2-.2v-.1c.5-.7.9-1.5 1.2-2.3.5-1.2.9-2.4 1.2-3.6.8-2.7 1.4-5.5 1.8-8.4.5-2.9.8-5.9 1.2-8.9.6-6 1.3-12.2 2.1-18.2.2-1.6.5-3 .8-4.6.5-3.2 1.5-6.2 3-9 .9-1.6 2-3 3.3-4.3l.4-.4c3.8-3.5 9.6-3.3 13.1.5l.1.1c.3.1.6.5.9.9z"/><path class="st2" d="M1553.3 564.6c-3.6-5.6-6.1-11.9-7.4-18.4-2.1-10.9 8.8-18.5 9.7-13.6 1 4.9 9.8 27.4 9.8 27.4l-12.1 4.6z"/><path class="st1" d="M1454.5 908.9c2.5 10.1 5.2 38.9 5.2 38.9h5.9v-18.3"/><path class="st1" d="M1458.3 889.8c-3.5 5.7-4.9 12.5-3.9 19.2 1.8 11 23.5 40.9 37.6 40.9h10.2c2 0 3.7-1.2 4.5-3 2.2-5.3-1.7-15.5-10.4-16-5.2-14.1-12.8-21.9-17.4-31.7"/><path class="st1" d="m1437 693.7 20.7 93.7s-20.7 38.5 4.8 96.9c-12.1 12.3.2 23.2.2 23.2s32.9 33.5 28 11.8c-5.6-9.4-8.8-19.9-9.5-30.8-4.4-57.1 11.3-150.5 11.3-150.5l-55.5-44.3zM1406.7 889.8c-3.9 5.6-5.4 12.5-4.3 19.2 1.9 11 12.2 40.9 27.7 40.9h11.3c2.1 0 4-1.2 5-3 2.5-5.3.4-12-5.3-16-2.7-11-10.5-22.7-11.7-31.7"/><path class="st1" d="m1409 738 4.4 49.5s-21.4 31.9-2.9 94.2c-8 13.4-1.5 19.9.2 23.6 4.9 10.6 24.1 30.4 21.7 13.4-8.9-61.4 30.6-225 30.6-225l-54 44.3z"/><path class="st2" d="M1438.9 642.5s-46.5 29.4-30 95.5h83.6s10.1-47-6.4-90c-28.3 6.4-47.2-5.5-47.2-5.5z"/><path class="st1" d="M1441.1 930.8s-10.9-3-18.7 1.8"/><ellipse transform="rotate(-78.463 1480.236 587.022)" class="st6" cx="1480.2" cy="587" rx="24.2" ry="36.1"/><path class="st2" d="m1470.5 562.8 22-30.2 14.9 4.2-11.8 34.2s36.8 28-7.7 21.7c-46.8-6.5-17.4-29.9-17.4-29.9z"/><ellipse transform="rotate(-82.351 1502.59 524.495)" class="st2" cx="1502.6" cy="524.5" rx="26.7" ry="39.3"/><path class="st2" d="M1534.8 530.2c-2.8 7.7-11.5 11.7-18.2 9.2s-9-10.4-6.2-18.1c2.8-7.7 9.7-12.4 16.4-9.8s10.9 11 8 18.7z"/><path class="st2" d="M1513.7 522.5c-2.8 7.8-11.5 11.7-18.2 9.2-6.7-2.4-9-10.4-6.2-18.1 2.8-7.7 9.7-12.4 16.4-9.8s10.9 11 8 18.7z"/><path class="st10" d="M1495.6 592.5s-1.5-7-5.5-11.9M1514.7 499.9s18.8-32.3 35.2-46.1c1.1-.9 2.6-.3 2.2 1.1l-16.3 59.3M1474.8 504.4c3.7-4.9 11.4-29.8 43.2-59 1.1-1 2.6-.3 2.2 1.1l-14.9 53.4"/><path class="st1" d="M1466 520.2c-2.8 2.3-6 4.2-9.4 5.4-9.7 3.8-24.7-1-25.3-9.5-.5-7.3 6.5-27.4 54.2-25.5 6.9.3 5.7 7.5.7 7-6.6-.6-14.7 2.7-14.7 2.7"/><path class="st1" d="M1466.1 497.3s10.4.8 12 9.2c1.6 8.5-5.7 10.6-5.7 10.6"/><path class="st1" d="M1462.2 518.6s5.9 8.3 9.9 1.5c4-6.8.7-17.2-8-15.8"/><path class="st1" d="M1463 513.4s7.1.3 5.6 8.4c-1.6 8.4-9 6.6-7.8 3.1 1.7-4.8-2.1-3.5-2.1-3.5"/><path class="st6" d="M1510.6 535.1c-.5 1.5-4.4 3.2-5.2 3-.8-.2-3-4-2.5-5.4s2.3-1.4 4.5-.7c2.1.7 3.6 1.6 3.2 3.1z"/><path class="st8" d="M1492.8 536.8c3.7 1.1 6.1 3.5 5.6 5.3"/><path class="st1" d="M1560.4 553.7c6.9-5.3 13-6.5 20-18.8 3.4-5.9 8-3.5 8 3.8 0 13.9-14.2 26.8-24.6 28.4-4.3.6-9.5-1.6-9.1-5.8"/><path class="st4" d="M1508.5 519.5c-.6 2.7-1.8 5.2-3.6 7.3-1.5-5.4-.3-11.2 3.3-15.5.8 2.7.9 5.5.3 8.2zM1530.2 527.2c-.6 2.7-1.8 5.2-3.6 7.3-1.5-5.4-.3-11.2 3.3-15.5.8 2.7.9 5.5.3 8.2z"/><path d="M1506.1 498.1c7.2 1 13.8 3.2 22.4 8.8" style="fill:none;stroke:#000;stroke-width:2.6px;stroke-linecap:round;stroke-miterlimit:10"/><path class="st2" d="M1545.7 538c8.7-11.9 14.2-25.4 17.9-38.3 3.8-13.1 17.9-6 15.3 5.5-3.2 14.1-13 35.2-23.1 45.1-8.2 8.1-16.9-3-10.1-12.3z"/><path class="st1" d="M1543.3 549.7c12.6-15.7 23.9-39.9 28.1-59.2 1.7-7.6 13.1-5.2 11.5 2.3-4.5 20.4-17.8 48.2-31 64.8-5 6-13.5-1.9-8.6-7.9z"/><path class="st2" d="M1554 544.5c7.3-8.6 16.2-28.7 19.5-39.8 4.5-15.7 17.8-9.6 16.1 2.1-1.9 14.4-13.7 38-22.9 48.8-7.5 8.9-20.2-2.3-12.7-11.1z"/><path class="st1" d="M1496.3 930.8c-6.2.5-8.2 1.8-8.2 1.8"/><path d="M1482.7 654.7c2.2 6.2 3.8 12.5 4.9 19 1.2 6.4 2 12.9 2.4 19.5.1 1.7.1 3.2.2 4.9l.1 2.4v7.3l-.2 4.9-.1 2.4c-.1.8-.1 1.7-.2 2.4l-.4 4.9c-.3 3.2-.8 6.5-1.2 9.7h-.4c-.4-3.3-.4-6.6-.6-9.8l-.2-4.9V715l-.1-2.4c-.1-1.7-.2-3.2-.2-4.9l-.3-4.8c-.1-.8 0-1.6-.1-2.4l-.1-2.4-.3-4.8-.3-4.8c-.1-1.6-.3-3.2-.4-4.8-.1-1.6-.2-3.2-.4-4.8l-.4-4.8c-.7-6.4-1.4-12.7-2.2-19.4h.5z"/><ellipse class="st12" cx="178.8" cy="473.9" rx="29.9" ry="37.7"/><ellipse class="st12" cx="250.2" cy="457.8" rx="42.6" ry="53.9"/><ellipse class="st12" cx="192.2" cy="473.9" rx="29.9" ry="37.7"/><ellipse class="st12" cx="263.7" cy="457.8" rx="42.6" ry="53.9"/><path class="st12" d="M211.6 465.2c3.6 14.3-2.1 29.7-12.8 34.5l-3.9-15.3c-1.5-5.8.9-12.2 5.3-14.1l11.4-5.1z"/><path class="st12" d="M185.7 448.1c10.7-4.8 22.3 2.8 25.9 17.1l-11.5 5.2c-4.4 1.9-9-1.2-10.5-7l-3.9-15.3z"/><path class="st12" d="m185.7 448.1 3.9 15.3c1.5 5.8-.9 12.2-5.3 14.1l-11.5 5.2c-3.4-14.3 2.3-29.8 12.9-34.6z"/><path class="st12" d="M198.7 499.8c-10.7 4.9-22.3-2.8-25.9-17.1l11.5-5.2c4.4-1.9 9 1.2 10.5 7l3.9 15.3zM232.6 473.4c6.6 22.4 25.9 33.6 43.1 25l-8.9-30.3c-1.7-5.6-6.5-8.5-10.8-6.3l-23.4 11.6zM251.7 417.2c-17.2 8.7-25.8 33.9-19.2 56.2l23.2-11.7c4.3-2.1 6.5-8.6 4.9-14.1l-8.9-30.4z"/><path class="st12" d="m251.7 417.2 8.9 30.3c1.7 5.6 6.5 8.5 10.9 6.3l23.2-11.7c-6.5-22.4-25.8-33.6-43-24.9zM275.7 498.3c17.2-8.7 25.8-33.8 19.2-56.2l-23.2 11.7c-4.3 2.1-6.5 8.6-4.9 14.1l8.9 30.4z"/><path class="st6" d="m269.2 527.8 27.4-23.2h37.1zM269.2 560.1l27.4 22.9h37.1z"/><path class="st12" d="M240.1 704.4H253v67.1h-12.9zM240.2 771.6H253l-44.2 190.1c-.3 1.3-2.5 2.1-3.8 2.1h0c-1.8 0-3.9-1.1-3.5-2.8l38.7-189.4z"/><path class="st12" d="M253.2 771.6h-13.1l105.3 194.6c1.2 1.3 2.7 2.2 4.5 2.6h0c1.6 0 2.9-1.2 3-2.8 0-.5-.1-1-.4-1.5l-99.3-192.9z"/><path class="st12" d="M240.1 771.6h12.4L145.2 967.4c-.5 1-1.5 1.6-2.6 1.6h0c-1.6 0-2.9-1.2-3-2.8 0-.5.1-1 .4-1.5"/><ellipse cx="229.5" cy="968.7" rx="136.5" ry="7.8"/><path class="st12" d="M335.1 504.6v79.5l-49.5-16.3v-42.4z"/><path class="st12" d="M168.6 508.1h117.3v72.6H168.6zM235.6 580.7h21.5v9.7h-21.5z"/><path class="st12" d="M158 508.1h45.6v72.6H158z"/><path class="st13" d="m479.9 847.1 26.8 121.1M423.7 847.1l-35.5 121.1"/><path class="st6" d="M676.1 848.6s24.5-42.8 44.9-46.5c20.4-3.7 21.4 12.6 5.9 30.1-10.6 12.1-20.4 24.9-29.6 38.1l-8.2 3.8 3.1 5.8s-5.5 16.1-15.1 14.7c-9.5-1.5-14.1-19.2-14.1-19.2M712.9 737.6c6.6-21.2-3-49.9 4.1-61.3 9.5-15.3 24.3-4.9 26.7 12.7 2.4 17.6 1.2 34.9-2.7 52.5-1.9 2.9-4.2 5.6-6.3 8.5 1.8 1.2 3.6 2 5.4 3.2.2 6.8 1.3 17.3-5.9 20.7-7.2 3.4-16.4-2.6-21.5-7.6M479.5 847.2s-174.3 18.8 63.9 17.2c55.5-.4 65.9-17.2 65.9-17.2H479.5z"/><path class="st1" d="M435.9 688.5c-42.1 1.3-51-101.4-32.6-160.4-6.9-8.7-18-9.2-27.3-10.2-21 54.3-30.5 135.1 19.7 206.6 31.6 45.1 11.2-17.3 27.9-14.6"/><circle class="st6" cx="484.5" cy="637.3" r="4.6"/><path class="st13" d="m382.1 732.2 14 114.9h105"/><path class="st6" d="M396.1 847.2s8.4 16.5 63.9 16.5 65.9-16.5 65.9-16.5H396.1z"/><path class="st1" d="m421.1 825.8 136.7-37.5c7.5-2.1 15.5-1.4 22.6 1.8l94.2 43.7c8.3 3.2 11.3 12.7 7 20.6l-7.1 13.2c-3.6 6.6-12.2 9.2-19.2 6.5l-98-39.1-87.8 29.6"/><path class="st1" d="M461.9 866.9c40.4 5.1 140.8-70.6 140.8-70.6L723 778.4c4.9-15.6 1.3-32.6-9.3-44.9l-114.6 14.1c-7.5.9-14.6 3.3-21.1 7.1l-83.8 48.8s-1.9 15.9-7.9 23.5c-5.9 7.7-59.8 9.2-74 5.3 0 0 9.3 43.7 34.6 30.4.2.1 3.9 2.7 15 4.2z"/><path class="st1" d="M423.7 689.3a83.3 83.3 0 0 1 15.6-3.3c6.2-.7 12.4-1 18.6-1 33.4 0 39.2 33 43.3 64.8 7.3 56.8 7.3 75.3-8.7 86.2-10.3 7.1-70.3 8.5-80.1-3.7 0 0-14.2-45.1-16.8-93-.5-7.1 0-14.2 1.6-21.2"/><path class="st6" d="M519.6 798.3s-32.5 3.4-73.8 3.4c-26.4 0-55.8-3.4-55.8-3.4l-7.9-66.1c18 2.1 36 3.2 54.1 3.3 39.6 0 75.6-3.3 75.6-3.3l7.8 66.1z"/><path class="st13" d="m511.7 732.2 14.1 114.9h105"/><path class="st1" d="M396.3 474.3s3.6-7.5 6.5-13.4c6-12.2 13.3-2.3 9.4 5.4-1.5 2.9-12 25.2-12 25.2"/><path class="st1" d="M402.8 498.6c4.7 1.4 1.3-10.8 9.4-7.9 6.4 2.2 7 18.1-13.4 23-5.2 1.2-1.3 8.9-1.3 8.9s-10.2 1.9-15.3-3.1l.4-5.3s-2.7-12.3-2.1-19.3c1.1-13.2 10.6-9.1 15.9-20.7"/><path class="st1" d="m412.1 490.3-40.4-22.9 7.8-10.1 35 29.2z"/><path class="st1" d="M398.8 487.4s11-22.4 14.8-27.8c3.8-5.4 9.9-.2 8.2 5.3-1 3-19 33.9-19 33.9M534.7 669.4s-4.5-20.7 17.1-21.5c13.1-.4 18.9 7.3 18.5 13.8-.5 9-5.3 34.1-5.3 34.1s-4.1 10.9-20.9 4.4c-2.8-1.1-4.8-3.6-5.3-6.5h0l-4.1-24.3z"/><path class="st1" d="M534.9 716.2s1.7-10-.7-12.7c-2.3-2.7-4.3-16.1 2.6-16.8l3.6 11s1.7.6 4.1 1.2c8.7 2.2 17.6-2.6 20.5-11.1.5-1.7 1.3-3.4 2.3-4.9 2.5-2.6 9.3 6.4 6.9 19.1s-21 20-21 20"/><path class="st1" d="M466.2 685.8c66.9-4.2 69.5 73.4 70 94.2 0 0-.1-5.7-1.6-21.3-.6-7.8-2.1-15.6-4.4-23.1l2.8-20.4s31-2.6 30 11.1c-1.3 15.5-1.9 74.9-18.3 86.7-4.9 3.4-18.8 3.5-23.5-.9-24.7-22.6-35.5-94.5-35.5-94.5"/><path class="st8" d="m546.7 653.9-1.6-22.6c-.4-5.6-3.5-10.6-8.4-13.4l-11.3-6.5"/><ellipse transform="matrix(.9968 -.08037 .08037 .9968 -50.818 46.408)" class="st6" cx="551.1" cy="654.5" rx="7.8" ry="2.1"/><path class="st13" d="m539.4 847.1-24.2 121.1M609.1 847.1 636 968.2"/><path class="st1" d="M422.5 604.7s-8.9-62.3-7.8-80.3c1.2-18.1 19.8-22.1 23-6.9 1.8 8.6 4.8 92.8 4.8 92.8"/><path class="st1" d="m423.7 689.3 3.1-14.2s-20.1-27.3-20-45.3c0-25.6 19.5-29.6 34.8-30.2s42.9 32.1 42.9 44.8-8.2 17.5-18.3 26.4c-10.1 8.9 8.9 15.7 8.9 15.7s-17.6 11.1-51.4 2.8z"/><path class="st6" d="M403.9 616.1c-.9-3.4 3.4-19.3 9.5-25.4 14.6-14.2 57.1-8.7 61.1-3.2 7.9 10.8-30.6 10.2-40.8 17.9-8.4 6.4-27 21.7-29.8 10.7z"/><path class="st1" d="M437.5 609.2s2.4-62.9 12.1-87.4c8-20.4 32.9-17.2 27.1.7-10.6 33-18.4 89.4-18.4 89.4"/><path class="st8" d="M534.7 669.4s10 4.3 20.6 1.9"/><path d="M563.6 669.2c2.6-.8 5-2.4 6.6-4.6" style="fill:#387cdb;stroke:#000;stroke-width:2.6px;stroke-linecap:round;stroke-linejoin:round"/><path class="st1" d="m425.6 773.4-7.3 4.6.8-9.9-6.7-6.9 8.4-1.4 3.2-9 4.4 9 8.5 1.4-5.6 6.9 2.1 9.9z"/><ellipse cx="502.3" cy="968.5" rx="170.7" ry="8"/><ellipse transform="rotate(-61.972 375.23 462.24)" cx="375.3" cy="462.2" rx="6" ry="4.2" style="stroke:#000;stroke-width:2.59px;stroke-linecap:round;stroke-linejoin:round"/><path d="M605.1 790c9.1-2.5 18.4-4.5 27.6-6.2 4.7-1 9.2-1.7 13.9-2.4 4.7-.8 9.3-1.5 13.9-2.1s9.3-1.3 14-1.8c4.7-.5 9.3-1.1 14.1-1.5 9.3-.9 18.8-1.6 28.3-1.7.1 0 .2.1.2.2s-.1.2-.2.2l-55.9 8-55.9 7.7c-.1 0-.2-.1-.2-.2.1-.1.1-.2.2-.2zM439.3 852.1c2.4 2.1 5.2 3.8 8.3 4.8 1.5.5 3 .9 4.5 1.3.8.2 1.5.3 2.3.4l2.3.3 4.7.3h2.3l2.3-.1c3.2-.2 6.3-.5 9.4-1.1 1.6-.2 3.1-.5 4.8-.8 1.7-.3 3.1-.7 4.8-1.1 3.2-.7 6.3-1.6 9.4-2.3 6.3-1.7 12.6-3.6 19.3-5.2v-.2c.1 0 .2.3.2.4 0 .1 0 .2-.1.2-6 2.9-12.1 5.4-18.4 7.7-6.3 2.3-12.7 4-19.3 5.2-6.6 1.2-13.3 1.2-19.9.1-3.3-.6-6.5-1.7-9.5-3.2-3-1.5-5.7-3.7-7.7-6.4-.1-.1 0-.2 0-.3.1-.1.2-.1.3 0z"/><path d="M444.1 859.6c-1.2.8-2.5 1.3-3.9 1.7-1.3.3-2.8.3-4.1-.1-2.4-.6-4.6-1.7-6.4-3.4-1.8-1.5-3.3-3.1-4.7-5-1.4-1.7-2.6-3.6-3.7-5.5 1.4 1.7 3 3.3 4.6 4.8 1.6 1.5 3.3 2.8 5.3 3.8 1.7 1 3.6 1.7 5.5 1.8 1.7.1 3.3-.6 4.5-1.8.9-.9 2.4-.9 3.3 0l.1.1c.9 1 .9 2.6-.1 3.5-.1-.1-.2 0-.4.1zM554.4 828.7l102 41.1-97.3-43.6"/><path class="st1" d="M558.6 653.5c-.8 1.5-2.6 2-4.1 1.2-.8-.4-1.3-1.2-1.5-2-1.2-5.7-2.1-13.4-.5-19.6 3.1-11.2 7-5 7-5s7.1-24.6 14.6-24.4c7.5.2-4.2 20.4-4.2 20.4s7.7-1.8 4.6 5.3c-2.5 5.7-10 13.6-15.9 24.1z"/><path style="fill:none;stroke:#000;stroke-width:6px;stroke-linejoin:round" d="M246.6 703.1V582.6"/><ellipse cx="1046.5" cy="926.5" rx="278.5" ry="6.2"/><path d="M780.2 811.7c.5-1.4.8-2.5 1.3-3.7.5-1.1 1-2.2 1.6-3.3 1.1-2.1 2.3-4.1 3.7-5.9 2.7-3.6 5.9-6.9 9.4-9.7 1.7-1.5 3.6-2.7 5.6-3.5 1.1-.4 2.3-.6 3.5-.6 1.3 0 2.4-.1 3.7 0 2.3.1 4.7-.2 6.9-.9l6-2.6c8.3-3.7 16.8-6.7 25.6-9.1 4.6-1.3 9.3-2.1 14.1-2.6 4.9-.5 9.9-.5 14.9 0 10.1 1.1 19.9 4.5 28.5 10 8.6 5.4 16.1 12.3 22.3 20.3 5.7 7.5 10.4 15.7 14.2 24.3 3.7 8.2 6.6 16.3 9.2 24.1 2.6 7.8 5.2 15.4 7.8 22.4 1.4 3.5 2.7 6.8 4.3 9.9 1.4 2.9 3 5.7 4.9 8.3 1.5 2.2 3.3 4.2 5.3 5.9 1.8 1.5 3.9 2.7 6.1 3.6 2.5 1 5.1 1.6 7.8 1.8.7.1 1.5.1 2.2.2h2.1c1.3 0 2.6-.1 3.9-.4 2.4-.4 4.7-1.1 6.9-2.2 2.4-1.3 4.5-2.9 6.4-4.8 4.2-4.1 8.1-9.9 11.9-16.4 3.8-6.5 7.4-13.8 11.7-21.4 2.1-3.8 4.5-7.6 7.1-11.5 2.8-4 6-7.8 9.4-11.3 3.9-3.8 8.2-7 13-9.5 4.9-2.6 10.3-4.3 15.8-5.1 2.6-.4 5.3-.6 8-.5 1.3 0 2.6.1 3.9.1 1.3 0 2.7.2 4 .5 5.5.8 10.9 2.5 15.8 5.3 4.7 2.6 9 6 12.6 10 3.3 3.6 6.3 7.6 8.8 11.9 4.3 7.6 8.1 15.6 11.2 23.7 3.1 7.7 5.9 15 9 21.6s6.9 12.1 11.1 15.1c2 1.4 4.4 2.4 6.8 2.9.3.1.7.1 1 .2.3.1.7.1 1 .1.7 0 1.4.1 2 .1 3.7.1 7.4-1.3 10.1-3.9 2.4-2.2 4.6-4.6 6.3-7.4 4.1-5.9 7.8-13.1 12.4-20.4 2.3-3.8 4.9-7.5 7.7-11 3.1-3.8 6.7-7.1 10.7-9.9 6.4-4.3 14-6.7 21.7-6.7h1.8c.7 0 1.5.1 2.1.1 4.4.4 8.5 1.9 12.2 4.4 2.2 1.5 4.2 3.2 5.9 5.2 3.1 3.5 5.8 7.4 8 11.5 4.2 7.8 7.2 15.5 10.3 22.9 1.6 3.7 3.1 7.3 4.9 10.6 1.5 3.1 3.4 6 5.6 8.7.9 1 1.9 1.8 3 2.4.9.5 2 .8 3 .8 2.2.1 5.3-1.1 8.2-3 3.1-2 6-4.4 8.6-7 2.8-2.7 5.4-5.6 7.9-8.6 1.8-2.1 5-2.4 7.2-.6 2 1.7 2.4 4.8.8 6.9-2.5 3.4-5.2 6.6-8.1 9.7-3 3.3-6.3 6.3-9.8 8.9-2 1.4-4.1 2.7-6.3 3.7-2.5 1.1-5.2 1.8-8 1.9-3 .1-6-.5-8.8-1.8-2.5-1.2-4.7-2.8-6.7-4.7-3.3-3.3-6.1-7.1-8.3-11.2-2.1-3.8-4-7.6-5.8-11.3-3.5-7.4-6.8-14.7-10.6-21.1-1.7-3-3.8-5.8-6.2-8.3-1.8-1.9-4.1-3.3-6.6-4-.5-.1-1.1-.2-1.7-.2h-.9l-1.2.1c-1.5.1-3.1.4-4.6.8-2.9.7-5.6 2-8 3.8-4.9 3.6-8.8 9.5-12.5 16.2-3.7 6.7-7 14.2-11.9 21.9-2.5 4.1-5.6 8-9 11.4-2 1.9-4.2 3.6-6.5 5.1-2.5 1.5-5.1 2.7-7.9 3.5-2.7.8-5.5 1.3-8.4 1.5-1.4.1-2.7.1-4.1 0-.7 0-1.4-.1-2-.1-.7 0-1.4-.1-2-.2-5.6-.8-10.9-2.8-15.7-5.8-4.4-2.9-8.3-6.5-11.5-10.7-2.9-3.7-5.5-7.6-7.7-11.8-4.3-7.9-7.5-15.6-10.8-22.9-3.3-7.3-6.5-14.2-10.2-19.9-1.7-2.7-3.7-5.2-5.9-7.5-1.9-2-4.1-3.6-6.5-4.8-2.3-1.1-4.8-1.8-7.3-2-2.8-.3-5.6-.2-8.4.3-5.3 1-9.4 3.4-13.6 7.8-4.2 4.4-7.8 10.3-11.4 16.9-3.6 6.6-6.9 14.1-11 21.7-2 3.8-4.3 7.8-6.8 11.7-2.7 4.1-5.8 8-9.2 11.6-3.8 4-8.1 7.3-12.8 10-4.9 2.8-10.3 4.8-15.9 5.8-2.7.5-5.4.8-8.2 1-1.4.1-2.7.1-4 .1-1.3 0-2.5 0-3.9-.1-5.5-.3-10.9-1.3-16-3.1-2.7-1-5.3-2.1-7.9-3.5-2.5-1.4-4.9-3-7.1-4.8-4.3-3.4-8.1-7.3-11.3-11.7-2.9-4-5.5-8.2-7.8-12.5-2.1-4.2-4-8.3-5.6-12.4-3.3-8.1-6-16-8.8-23.4-2.7-7.5-5.4-14.6-8.6-21.1-2.8-6.2-6.4-12-10.6-17.4-3.8-4.8-8.5-8.9-13.7-12.1-5.3-3-10.8-5.5-16.6-7.3-3.1-1-6.2-1.8-9.3-2.3-3.3-.6-6.7-.9-10.1-1-7.2 0-14.3 1.3-21.1 3.7-1.8.6-3.5 1.3-5.2 2-1.7 1-3.1 2.5-4.1 4.3l-1.8 2.7c-.5.8-1.1 1.6-1.8 2.2-1.4 1.3-3.1 1.8-4.9 2.6-3.5 1.4-7.2 2.6-10.9 3.5-2 .5-4 .9-6 1.3-1.1.2-2.1.3-3.2.5s-2.3.2-3.4.2l-1.8-.1c-3.9-.2-6.9-3.5-6.7-7.4 0-.8.1-1.5.3-2.2z"/><path d="M1325.8 901.5c-5.4.8-12.7-2.4-17.1-5.5 8.9.1 18.2-1.7 26.1-6.3-2.4 8.8-1.1 18.1 1.1 26.8-4.5-3.8-9.1-9.2-10.1-15z"/><path class="st9" d="M905.4 786.9c5.4 3.7 10.3 8.1 14.5 13.1 4.2 5.1 7.8 10.7 10.8 16.5 3 5.8 5.7 11.8 8 18 2.3 6.1 4.4 12.4 6.4 18.5s4 12.4 6.3 18.3c2.1 6 4.9 11.7 8.2 17.1 3.2 5.4 7.8 9.8 13.1 13 2.8 1.5 5.8 2.7 8.9 3.3.8.2 1.6.3 2.3.5l2.4.3 2.4.2 2.4.1c-3.3.5-6.6.5-9.8.2-6.7-.7-13.1-3.5-18.2-8-2.5-2.2-4.8-4.8-6.7-7.6a84.7 84.7 0 0 1-9.3-17.6c-2.5-6.1-4.6-12.4-6.6-18.5s-4-12.4-6.1-18.4-4.5-12.1-7.1-17.9c-2.6-5.8-5.7-11.4-9.3-16.7-3.6-5.2-7.9-10.1-12.6-14.4zM1103.9 826.5c4.6 2.1 8.7 4.9 12.3 8.5 3.6 3.5 6.7 7.5 9.2 11.8 5.3 8.6 8.9 17.8 12.5 26.9 1.8 4.6 3.5 9 5.3 13.5 1.8 4.4 4 8.6 6.6 12.6 2.6 4 5.9 7.3 9.8 9.9l.8.5.8.4 1.6.8c1.1.5 2.2.9 3.3 1.4 1.1.4 2.3.8 3.5 1l3.6.7c-1.3 0-2.4.1-3.7.1-1.2 0-2.5-.2-3.7-.4-1.2-.3-2.4-.5-3.7-.9l-1.8-.7-.9-.3-.9-.4-3.3-1.8c-.5-.4-1.1-.7-1.6-1.1l-1.5-1.3c-1.9-1.7-3.7-3.5-5.3-5.5-3.1-4-5.7-8.3-7.8-12.9-2.1-4.5-4-9.1-5.7-13.6-3.5-9.1-6.8-18.3-11.2-26.7-2.2-4.3-4.8-8.3-7.8-12.1-2.9-3.9-6.4-7.4-10.4-10.4z"/><path class="st17" d="M1306.4 848.4c0 3.6-29.5 6.5-65.9 6.5-36.5 0-65.9-2.9-65.9-6.5h131.8zM1295.8 848.4c0-29.9-24.7-54.1-55.3-54.1-30.6 0-55.2 24.2-55.2 54.1h110.5z"/><path class="st17" d="M1247.4 788.1c0 3.4-3.1 6.2-6.9 6.2s-6.9-2.8-6.9-6.2h13.8zM1150.9 814.9c0 3.6-29.5 6.5-65.9 6.5-36.5 0-65.9-2.9-65.9-6.5h131.8zM936 764.4c0 3.6-29.5 6.5-65.9 6.5-36.5 0-65.9-2.9-65.9-6.5H936z"/><path class="st18" d="m883.1 697.7 6.9-22.3M856.8 665l67.8 21.6-31.3-21.6z"/><path class="st17" d="M896 698.2c-.2-.1-.7-.3-1.2-.5 0-.1.1-.3.1-.4.9-3.1-.5-6.4-3.3-8-2.6-1.4-5.8-1.8-8.7-1-.1-.3-.3-.7-.5-1-.9-1.5-2.1-2.7-3.6-3.5-3.2-1.4-6.8-1.1-9.7.8-.6.4-3.1 2.4-2.8 2.4 0 0-3.1-1.7-4.2-2-3.5-1.3-7.4-.8-10.4 1.4-1.2.9-2.2 1.9-3.1 3.1-.4.5-.9 1.6-1.4 1.8-1 .6-.4.1-1.5.3-4.3.6-7.6-.1-10.5 3.6-1.5 1.9-1.3 5.9-2.8 7.3-3.7 3.2-1.2 7.8 2.7 8.9.4.9 1 1.8 1.8 2.4 3.2 2.6 8.5 2.3 12.5 1.9 2.2-.3 4.4-.5 6.3-.7 2.7.3 5.4.7 8.2.8 2.3.1 4.6.2 6.9.2 2.2.2 4.4.2 6.6 0 3.2-.1 6.3-.2 9.5-.4 2 0 3.8-1.1 4.9-2.8 1.1-.1 2.2-.4 3.2-.8 6.4-2.8 7.1-10.5 1-13.8z"/><path class="st17" d="M857.7 764.4c-37.9 0-42.2-10.2-44.7-27.2-2.4-16.8 15.4-33.9 15.4-33.9h75s9.4 15.2 10.1 38.1c14.1 12.7 7.6 21.5 0 17.3l1.9 5.6h-57.7l-.5-6.6s-7.8 4.6-12 1.2c-6.4-5.3 6.2-16.3 6.2-16.3"/><ellipse transform="rotate(-11.438 873.876 732.447)" class="st19" cx="873.7" cy="732.3" rx="6.8" ry="11.7"/><ellipse transform="rotate(-11.438 897.8 732.343)" class="st19" cx="897.6" cy="732.2" rx="6.8" ry="11.7"/><path class="st19" d="M885.3 752.7h9.9l-8-11.6z"/><path class="st18" d="m868.1 764.4-.7-6.7M875.5 764.4l-.6-6.7M882.9 764.4l-.6-6.7M890.4 764.4l-.8-6.7M897.8 764.4l-.7-6.7M905.2 764.4l-.7-6.7M845.7 703.3l-7.2-45.7c-.5-3.1-3.4-5.2-6.5-4.8-.2 0-.4.1-.7.1l-23 6.4"/><path class="st9" d="M871.1 722c1.2-.3 2.4 0 3.4.6 1 .7 1.8 1.6 2.4 2.6 2.3 4.1 2.9 8.9 1.8 13.5-.3 1.2-.9 2.3-1.8 3.1-.5.4-1.1.7-1.7.9-.6.1-1.2.1-1.8 0 .5-.1 1-.3 1.5-.6.4-.3.7-.7 1-1.1.5-.8.8-1.8.9-2.7.2-2 .1-4.1-.3-6.1-.2-2.1-.7-4.1-1.5-6-.4-2-1.9-3.6-3.9-4.2zM895.3 722c1.2-.3 2.4 0 3.4.6 1 .7 1.9 1.6 2.5 2.6 2.3 4.1 2.9 8.9 1.8 13.5-.3 1.2-.9 2.3-1.8 3.1-.5.4-1.1.7-1.7.9-.6.1-1.2.1-1.8 0 .5-.1 1-.4 1.5-.7.4-.3.7-.7 1-1.1.5-.8.8-1.8.9-2.7.2-2 .1-4.1-.3-6.1-.2-2.1-.7-4.1-1.5-6-.5-1.9-2-3.5-4-4.1z"/><path class="st17" d="M1100.6 746.8c-4.5 0-9 1.4-12.7 3.9-3.8-2.5-8.2-3.9-12.7-3.9-14.2 0-25.7 11.3-25.7 31.5s20.7 35 30.1 35c3.2-.1 6.2-1.5 8.4-3.9 2.2 2.4 5.2 3.8 8.4 3.9 9.3 0 30.1-14.8 30.1-35-.2-20.2-11.7-31.5-25.9-31.5z"/><path class="st17" d="M1092 726.7c-3.1 7.6-4.5 15.8-4.1 24 0 0-5.9-17.9-36.9-18.4 13.9 25.3 33.5 20.2 33.5 20.2"/><path d="M1090 805.3c1.8 1.2 3.9 1.6 6 1.2 1.9-.4 3.8-1.2 5.3-2.4.9-.6 1.7-1.2 2.4-1.9.8-.7 1.6-1.5 2.3-2.1s1.6-1.7 2.3-2.4 1.6-1.7 2.2-2.4c1.5-1.6 2.8-3.2 4.1-5 .6-.8 1.2-1.7 1.8-2.5.5-.9 1-1.8 1.4-2.7.4-1 .8-1.9 1.1-2.9s.6-2 .8-3.1c.5-2.1.7-4.5 1.2-6.9l.4-.1c.4 2.3.6 4.7.7 7 0 2.4-.3 4.7-1 7-1.5 4.5-4 8.5-7.4 11.9-1.6 1.7-3.3 3.3-5.1 4.9-1.7 1.6-3.7 3-5.7 4.1-2.1 1.2-4.4 1.8-6.8 1.8-2.4 0-4.8-1.1-6.3-3l.3-.5z"/><path class="st2" d="M1369.4 221.6s4.1-23.7 4.1-31.5-12-4.4-12.9-14.3c-1-9.9 13.8-20.5 20.8-4 0 0 17-8.4 15.5 5.3-1.6 13.6-12.1 3.9-12.3 20.4-.2 16.5.4 22.8.4 22.8"/><path class="st20" d="M1377.2 84.9c4.1 0 7.4 3.3 7.4 7.4 0 4.1-3.3 7.4-7.4 7.4-4.1 0-7.4-3.3-7.4-7.4 0 0 0 0 0 0h0"/><path d="M1378.9 99.6c0 2.6.1 5.3.2 8 0 1.4.2 2.6.2 4l.1 1.9.1 1v.5c0 .1 0 .3.1.4.2 1.8 1.7 3.3 3.6 5.1 1.1 1 2 1.9 3 3 .6.6 1.1 1.3 1.6 1.9.5.8.9 1.6 1.3 2.4.4.9.7 1.8.9 2.7.2.9.3 1.8.3 2.7 0 1.9-.3 3.9-1.1 5.6-.8 2-2 3.7-3.7 5-1.6 1.4-3.6 2.2-5.7 2.5-2 .3-4.1.1-6-.7-1.8-.7-3.4-1.9-4.5-3.5-1.1-1.4-1.7-3-1.8-4.8-.2-1.5 0-3.1.6-4.6.9 1.1 1.8 2 2.8 3 .8.7 1.7 1.3 2.7 1.7 1.4.5 2.9.5 4.3-.1 1-.5 1.9-1.3 2.3-2.3.3-.7.5-1.4.7-2.1.1-.4.1-.8.1-1.2v-1.2c-.1-1.7-1.2-3.6-2.7-5.9-.8-1.3-1.6-2.5-2.2-3.9-.8-1.5-1.2-3.2-1.2-5v-1.1l.1-1 .1-1.9c.1-1.4.2-2.6.2-4 .1-2.6.2-5.3.2-8 .1-.9.8-1.6 1.8-1.6h.1c.8-.2 1.5.3 1.7 1.1-.2.3-.2.3-.2.4z"/><path class="st1" d="M1354.7 306.9c22.2 6.3 23.6 46 43 55.7 9.5 4.9 16 .2 20-5.7 2.2-4.7 3.5-9.7 3.9-14.9 3.8-38.5-21.4-71.5-28.7-96.4-7.9-26.8-7.9-26.8-9.5-25.5-4.9.6-11.1 2.8-12.5.4-.3-.6-1-.8-1.5-.5 0 0 0 0 0 0-.3.2-.5.4-.6.8-2.3 8.4-8.2 27.5-16.5 39.5-7.4 10.5-18.7 32.7-20.3 53.5 3-5.2 9.6-10.6 22.7-6.9z"/><path class="st6" d="M1397.7 362.6c-19.4-9.7-20.8-49.5-43-55.7-13.1-3.7-19.6 1.8-22.8 6.8-.8 10.1.7 19.9 6 28 16.4 24.4 44.1 28.7 44.1 28.7s25.3 7.2 35.6-13.4c-4 5.8-10.4 10.4-19.9 5.6z"/><ellipse transform="rotate(-53.209 1360.344 351.32)" class="st1" cx="1360.3" cy="351.3" rx="3.6" ry="12.1"/><path d="M1406.7 357.4c1-.6 2-1.3 2.7-2.2.8-.9 1.5-1.8 2-2.8 1.1-2 1.8-4.1 2.1-6.3.3-2.3.4-4.5.3-6.8 0-1.2-.2-2.3-.2-3.5l-.4-3.5c-1.3-9.5-3.5-18.8-6.5-27.8-1.5-4.6-3.2-9.1-4.9-13.6l-5.2-13.7c-1.8-4.6-3.4-9.1-5-13.9-1.6-4.7-2.8-9.6-3.5-14.5l.4-.1c1.3 4.7 2.9 9.3 4.9 13.8 1.8 4.5 3.9 8.9 5.8 13.5 4 8.9 7.8 18 11 27.3s5.3 18.9 6.2 28.7c.3 4.9.6 9.9-.8 14.7-.6 2.4-1.7 4.7-3.2 6.6-1.5 2-3.5 3.6-5.8 4.5l.1-.4z"/><path class="st8" d="m1372.9 196.9 11.6 6-5.9-64.8-3.9 25.8M1377.2 90.3c-6.9-2.6-12.8-5.8-.5-10.9V1.7"/><path class="st1" d="M1445.1 119.6c5.4-6.1 16.2 2.6 10.8 10-5.2 7-7.6 18.5-6.4 27.2 1.2 8.8-12.2 12.6-13.9 4.5-3.2-14.7-.5-30.5 9.5-41.7z"/><path class="st1" d="M1437 169.8c3.8-7.9 17.1-2.9 13.6 6.2-3.3 8.7-1.7 19.7 3.2 27.5s-6.2 17.4-11.5 10.4c-9.5-12.6-12.3-29.7-5.3-44.1z"/><path class="st20" d="M1455.3 64.6c4.1 0 7.4 3.2 7.4 7.3s-3.2 7.4-7.3 7.4-7.4-3.2-7.4-7.3v-.1"/><path d="M1457 79.4c0 2.6.1 5.3.2 8 0 1.4.2 2.6.2 4l.1 1.9.1 1v.5c0 .1 0 .3.1.4.2 1.8 1.7 3.3 3.6 5.1 1.1 1 2 1.9 3 3 .6.6 1.1 1.3 1.6 1.9.5.8.9 1.6 1.3 2.4.4.9.7 1.8.9 2.7.2.9.3 1.8.3 2.7 0 1.9-.3 3.9-1.1 5.6-.8 2-2 3.7-3.7 5-1.6 1.4-3.6 2.2-5.7 2.5-2 .3-4.1.1-5.9-.7-1.8-.7-3.3-1.9-4.5-3.5-1.1-1.4-1.7-3-1.8-4.8-.2-1.5 0-3.1.6-4.6.9 1.1 1.8 2 2.8 3 .8.7 1.7 1.3 2.7 1.7 1.4.5 2.9.5 4.3-.1 1-.5 1.9-1.3 2.3-2.3.3-.7.6-1.4.7-2.1.1-.4.1-.8.1-1.2 0-.4 0-.8-.1-1.2-.1-1.7-1.2-3.6-2.7-5.9-.8-1.2-1.6-2.5-2.2-3.9-.8-1.5-1.2-3.2-1.2-5v-1.1l.1-1 .1-1.9c.1-1.4.2-2.6.2-4 .1-2.6.2-5.3.2-8 .1-.9.8-1.6 1.8-1.6h.1c.8-.2 1.5.3 1.7 1.1-.2.3-.2.3-.2.4z"/><path class="st1" d="M1466.3 111.6c-9-4.3-15.9 9.6-6.8 13.9 8.6 4.1 13.4 14.8 9.8 23.8-3.7 9.2 10.1 16 13.9 6.8 6.7-16.7-.4-36.7-16.9-44.5z"/><path class="st1" d="M1477.4 161.8c-6.1-7.3-16.8 2.1-11 10.4 5.5 7.9 7.6 19.1 3.3 27.9-4.3 8.9 6.7 17.7 11.9 9.3 9.2-15.1 7-34.1-4.2-47.6z"/><path class="st1" d="M1477 215.2c-3.8-8.2-16.3-1.6-12.9 8 3.2 9 2.8 22.3-.4 31.4s8.7 17.1 12.4 8.7c6.6-15.2 7.8-33.2.9-48.1z"/><path class="st1" d="M1481.1 265.4c-5.9-7.7-16.8.6-11.7 9.2 4.9 8.3 3.6 19.2-2.4 26.6-6 7.4 3 18.4 9.8 11.4 12.2-12.7 15.2-33.1 4.3-47.2z"/><path class="st1" d="M1479.5 317.2c-6.3-7.7-18.5 1.9-12.1 9.6 6 7.3 5.8 19.2-1.3 25.8-7.1 6.6 2.3 18.9 9.6 12.1 13.3-12.2 15.5-33.3 3.8-47.5z"/><path class="st1" d="M1479 369c-4.9-7.7-16.9-.1-12.2 9 4.5 8.7 4.5 20.8 1 30.1s8.6 17.4 12.5 9c7.4-15.2 7.6-33.9-1.3-48.1z"/><path class="st8" d="M1455.6 70.1c-6.9-2.6-12.8-5.8-.5-10.9V1.9"/><path class="st2" d="M280.7 155.5c-19.2-9.1-42.7-3.2-52.9 16.2-2.4 4.7-3.9 9.8-4.3 15.1l-.5-.2c-19.2-9.1-42.7-3.2-52.9 16.2-9.6 18.1-2.9 43.9 16.2 53 2 1 4 1.8 6.1 2.3-2.8 2.8-5.2 5.9-7 9.4-9.6 18.1-2.9 43.9 16.2 52.9 18.8 8.9 41.7 3.3 52.3-15.2 19 8.4 41.7 2.2 51.7-16.7 4.5-8.7 5.6-18.7 3.1-28.2 6.3-3.6 11.5-8.9 14.9-15.4 9.6-18.1 2.9-43.9-16.2-53-2-1-4.2-1.8-6.3-2.4 0-13.8-7.3-27.7-20.4-34zM142.7.6c-10.2 16.6-12.7 38.1-3.1 55.7 14.8 26.9 47 40.1 75.6 27 15.5 26.3 47.9 38.6 76.3 24.7 12.8-6.3 22.8-17.8 28-31 10.7 1.2 21.4-.7 31-5.4 25.2-12.5 39.3-44.9 29-71.5M312.9 350c-8.7 4.5-13 14.7-8.9 23.8 1 2.2 2.5 4.2 4.4 5.7l-.2.1c-8.7 4.5-13 14.7-8.9 23.8 3.9 8.6 15.2 13.2 23.8 8.8.9-.5 1.7-1 2.5-1.6.2 1.8.7 3.5 1.5 5.2 3.9 8.6 15.2 13.2 23.8 8.8 8.7-4.5 12.8-14.3 9-23.3 8.3-4.6 12.5-14.6 8.3-23.5-2-4-5.3-7.2-9.4-8.9.5-3.3 0-6.7-1.5-9.7-3.9-8.6-15.2-13.2-23.8-8.8-.9.5-1.8 1-2.6 1.7-4.9-4-12-5.1-18-2.1z"/></g></g></svg>