<svg version="1.1" id="Layer_1" xmlns="http://www.w3.org/2000/svg" x="0" y="0" viewBox="0 0 1081.2 603" style="enable-background:new 0 0 1081.2 603" xml:space="preserve"><style>.st0{fill:#fff;stroke:#000;stroke-width:2.6px;stroke-linecap:round;stroke-linejoin:round}.st1{fill:#fff}.st2{fill:none;stroke:#000;stroke-width:2.6px;stroke-miterlimit:10}.st3{stroke:#000;stroke-width:2.6px;stroke-miterlimit:10}.st4{stroke:#000;stroke-width:2.6px;stroke-linecap:round;stroke-linejoin:round}.st5{fill:#fff;stroke:#000;stroke-width:2.6px;stroke-miterlimit:10}.st6{stroke:#000;stroke-width:2.6px;stroke-linejoin:round}.st7{fill:#fff;stroke:#000;stroke-width:2.6px;stroke-linejoin:round}.st8{fill:none;stroke:#fff;stroke-width:2px;stroke-linecap:round;stroke-miterlimit:10}</style><g id="Layer_2_1_"><g id="Layer_1-2"><path class="st0" d="M1042.7 339.2s1.2 10.7 14.6 6.2 11.3-22.2 7.2-55.4-10.5-87.6-31.7-82.2c-23.7 6 3 51.1 1.8 87.4"/><path class="st0" d="M1038.6 339.2s1.2 10.7 14.6 6.2 11.3-22.2 7.2-55.4-10.5-87.6-31.7-82.2c-23.7 6 3 51.1 1.8 87.4"/><path class="st1" d="m306.1 221.2 41.2 116.5 139.5-81.4-6.7-40.3 56.2-40.5 76.7-5.6-47.2-39.2z"/><path class="st2" d="M17.5 597h1053.1"/><path class="st3" d="M857.9 419c3.7 22.4 2.3 41.6-.7 59-3 17.2-1.3 38.9-1.3 38.9l76.5-6.1-18.9-146.5s-64.2-12.7-68.7-10.4"/><path class="st4" d="M101.6 391.5s1.8-5.1 11.1-3.3 18.8 13 42 9.6l-28.8 26-24.3-32.3z"/><circle class="st5" cx="125.7" cy="396.4" r="11.4"/><ellipse transform="rotate(-44.741 129.1 393.513)" class="st5" cx="129.1" cy="393.5" rx="6.3" ry="7.7"/><ellipse transform="rotate(-44.741 129.837 393.036)" class="st3" cx="129.8" cy="393" rx="2.2" ry="2.9"/><path class="st2" d="m121.4 418.9-30.8-42 78.5 7.8-37.8 34.2"/><path class="st3" d="M293 142c3.5 7-56.6 43.9-134.2 82.5S15.5 288.8 12 281.9s46.8-61 124.4-99.7S289.6 135.1 293 142z"/><ellipse transform="rotate(-26.463 152.518 211.968)" class="st5" cx="152.5" cy="212" rx="156.9" ry="14.1"/><path class="st2" d="M146.3 199.4 206.1 317v279.7M480.1 216s30.6-23.7 56.2-40.5c5.3-3.5 29.9 0 56.2-4.3"/><path class="st5" d="M571.2 139c-7.7 1.8-6.8 27.5 0 26.5 28.6-3.8 63.7 19.5 71.5 27.5s12.2-32.1 6.5-34-68-22.4-78-20z"/><path class="st5" d="M585.6 166.2c.8 5.5 3.7 9.3 8.6 12.7 0 4.7 6.7 6 9 4.7 2.3 5.1 7.1 6.8 11.1 5.5 7.2 4.5 11.4 1.8 18-2-13.5-3.3 0-23.5-18-29.9-8.1-2.9-31.3-9.1-28.7 9zM830.3 335.2c-11.9-21-18.7-51-24.2-78.5-4.3-21.4-8.7-40.7-8.7-40.7s-20.5-4.1-19.1-17.6c2.2-21.1 23.9-19.6 39.2-60.3 8.4-22.2 48.5-26.2 39.2-3.9-1.7 4-8 9.6-10.5 16.1-3.5 9.3-6.4 37.6-10.5 49.7-2.2 6.5-1 16.6 1.8 22.9l46.8 109.8c12.6 25.2 12.6 59.2-32.7 59.2h-15.5M148.3 450.2s85.3 43.4 90.9 37.1c13.4-15.2 98.4-103.8 98.4-103.8l49.1 28.7S285 520.3 255.6 528c-36 9.4-125.2-53.6-125.2-53.6s-14.9 1.8-19.8-3.2"/><path class="st5" d="M130.7 435.5s-3.2 16 7.6 20.3M123.2 449l-4 42.3 15.1 8.5-32-3.6 17.1-5.1"/><path class="st4" d="M318 270.5c7.5 51.9-3.7 114.4 5.6 166l100.7-18.6c22.7-5.8-17.4-23.2-29.2-13.5-4-29.5 1.4-69.5-2.8-99.1 14-3.4 60.9-19.5 63.2-6 4.2 25 3.6 40.4 10.1 66.1l67.6-16.2c30.4-7.3-12.2-24.1-24.4-14.5 4.2-27.8 1-35.1 1-35.1"/><path class="st5" d="M349.2 270.1c-1.2 11.8-2 34.5-2 34.5l-28.1.3-.1 11.4 29 .2s-.8 41-3.9 66.9c101.3-25.5 106.9-78.5 167.2-76.1 7.8-31.5-3.2-25.3-40-19.7M407.8 234l13.3-21h11.8l12.5 18.6s-7 9-37.6 2.4z"/><path class="st5" d="m347 224.7-11.9 17.1c21.8-5.2 46.7 4.5 57.6 2.4 6.8-8.8 17.5-16.5 17.5-16.5l1.5 6.6c9.2 1.7 30.2 6.4 31.4-6.7 3.4 1.6 6.3 4.1 8.6 7.1 1.4 1.9.3 3.8 1.1 5.7s3.8 4 4 5.6c.5 3.5.6 7.1.2 10.7-.3 2.5-2.5 5.2-3.7 8.2-.9 2.1-.4 4.5-1.9 7-5.4 9-50.7 19.9-63.3 21.6-36.4 5-93.8 16.4-114.7-31.4-23.5-53.6 64.3-101.8 86.6-100.2 143 10.4 120.1-69.8 240.8-30.6 0 0 11.7-7.8 25.9 3 11.5 8.8 18 21.6 6.3 21.6-11 0-14.7-9.8-14.7-9.8s-16 9.8-28.8-4.1c0 0-12.4-6.3-18.3-3.2-5.9 3.1-5.5 11-5.5 11"/><path class="st2" d="M322.3 175.5c28.4 2 44 35.7 30.7 64.6"/><path class="st2" d="M438.4 160.6c13.5 5.8 23 39.2 23 39.2-18.2 8.5-60.5 15-83.7 13.1-5.4-20.2-27.9-41.4-48.6-41.9"/><path class="st5" d="M288.9 202.7s26.1-6.6 52.4 30.2"/><path class="st2" d="M446.2 154.9s40.2 20.6 41.2 121.1"/><path class="st5" d="M442.3 210.5c0 3.6-6.7 8-15 8s-15-4.4-15-8 6.7-5.2 15-5.2 15 1.6 15 5.2z"/><path class="st2" d="M417.5 210.4h3.6M433.4 210.4h3.7M425.5 208h3.7M425.5 212.2h3.7"/><path class="st0" d="M389.2 135.6s-.7-1.9 3.7-4.1"/><path class="st0" d="M352 164.2c-.1-27.8 0-72.2 0-72.2-16.8.4-29.5-7.6-28.3-25.1.8-12.5 14-20.2 27.2-19.1-.7-9.7 1.6-21.3 12.4-24.8 21.2-6.8 37.5 8.6 37.5 8.6 15.1-12.9 30.9-12 41.4-5.1 8.2 5.4 6.5 19.2.7 26.9 14.9 3.6 24.1 13.3 21.9 25.5-3.4 19-25.9 15.6-25.9 15.6v66.8c-1.8 25.6-45 25.9-70.2 14.2-6.1-3-11.7-6.8-16.7-11.3z"/><path class="st4" d="M417.9 117.5c.1 4.5.5 13 6.9 12.5 6.5-.5 6.2-9 6.1-13.5s-.4-12.9-6.9-12.4-6.2 8.9-6.1 13.4zM398.6 118c.1 4.5.5 13.2 7 12.7s6.2-9 6-13.5-.4-13-7-12.7-6 9-6 13.5z"/><path class="st0" d="M391 133.5s10.9 14.6 25.2 7.2"/><path class="st5" d="M400.8 418.9h307.5v177.7H400.8z"/><path class="st5" d="M708.2 418.9h120.2v177.7H708.2z"/><path class="st3" d="M433.9 429.1h383.7v167.6H433.9z"/><path class="st1" d="M432.4 595.1c-10.2-24.7 28.9-65.9 45.2-79-6.3 12.1-11.8 26.1-7.7 39.8 3.9-7 8.6-13.4 14.1-19.2 11.8-12.4 24.7-23.5 36.4-35.9-10.4 21.9-34.1 47.8-24.7 73.8-1.1-16 10.1-30.6 19.7-42.4 11.4-14 24.6-26.8 34-42.4-7.5 22.5-25.7 40.3-31.3 63.5 10-17.5 25.5-31.3 38.8-46.2 10.9-12.4 22.1-21.3 22.9-46.2 16.5 35.4-28.7 66.1-30.1 100.1 17.2-24.7 45-41.2 67.1-61-9.3 19.9-27.3 39.8-27.1 62.9 12.3-32.7 47.9-50.6 64.3-80.9-2.6 30.6-36.8 58.6-25.1 90.5 5.4-18.6 23.2-33 37.3-45.2 16.3-14.3 34.5-27.7 47.5-45.3-6.9 31.1-51.4 63.3-35 97.6-1.7-15.7 9.7-29.8 19.5-40.8 12.6-14.1 27.1-26.5 39.6-40.8-9.7 21.9-32.3 45.5-27.3 71.3 7.7-14.6 21.5-25.8 34.1-36-4 10.1-7 21.5-4.1 32.2.4 1.5 2.5 9.2 4.5 9.5s.3.7 1.5-.9 1.3-4.9 2-6.8c1.6-4.1 3.7-8.1 6.2-11.7 12.5-18.9 31.2-33.4 47.1-49.3-12.4 19.4-7.5 63.3 0 88.6"/><path class="st1" d="M604.1 478.7c-7.8 11.8-12 16.7-19.4 28.9 12-6.9 19.3-14.2 19.4-28.9zM577.3 442.6c7.5 10.2 12.2 18.1 14.3 32.7 12.5-16.3-4.8-26.3-14.3-32.7zM645.5 529c10.5-18.7 20.2-35 24.8-56.5 16.1 17.4-14.2 46.4-24.8 56.5zM722.4 454c-11 16.1-19.6 23.5-32.4 38.2 6.5-17.5 13.7-31.7 32.4-38.2zM748.5 542.4c1.8-6 4.1-11.9 6.7-17.6 1-2.2 7.3-21 7.3-21 3.6 7.4 3.7 16 .2 23.4-3.4 7.1-9.5 9-14.2 15.2zM483.8 519.2c16-11.2 26.6-20.7 46.2-36.3-21.6 2.1-38 16.5-46.2 36.3zM812.6 501.2c-.4.7-.8 1.4-1.3 2.1s-.8 1.4-1.2 2-.8 1.3-1.2 1.9l-1.2 1.8-1.2 1.8c-.4.6-.8 1.1-1.1 1.7s-.8 1.1-1.1 1.7l-1.1 1.6-1.1 1.6-1.1 1.7-1.1 1.7-1.2 1.7-1.2 1.8-1.2 1.8-1.3 1.9-1.3 2-1.3 2.1.2-.1.5-.2.8-.4 1-.6c.4-.2.8-.5 1.2-.8.4-.3.9-.6 1.4-1s1-.7 1.5-1.2c.5-.4 1.1-.9 1.6-1.4s1.1-1 1.7-1.6 1.1-1.1 1.7-1.8c.5-.6 1.1-1.3 1.7-2 .5-.7 1.1-1.4 1.6-2.2l1.5-2.4c.5-.8.9-1.7 1.4-2.6.4-.9.8-1.9 1.1-2.8.4-1 .7-2 .9-3.1.2-1.1.4-2.2.5-3.3-.2-1-.1-2.2-.1-3.4z"/><path class="st5" d="M280.5 418.9h136.7v177.7H280.5zM249.7 391.5H385c7.6 0 13.7 6.1 13.7 13.7s-6.1 13.7-13.7 13.7H249.7c-7.6 0-13.7-6.1-13.7-13.7 0-7.5 6.2-13.7 13.7-13.7z"/><path class="st5" d="M376.7 391.5h476.9c7.6 0 13.7 6.1 13.7 13.7s-6.1 13.7-13.7 13.7H376.7c-7.6 0-13.7-6.1-13.7-13.7-.1-7.5 6.1-13.7 13.7-13.7z"/><path class="st6" d="M598.6 286.5c-.8-44.9-15.4-68-29.8-79.9-4 1.3-4.9 6.3-3.9 11.1 15.4 11.7 24.3 26.9 33.7 68.8zM681.7 293.8c2.2-60-13.4-85.7-27.2-96.8-7.3-.7-8.6 5.8-8.6 8 14.4 17.3 27 17.8 35.8 88.8zM744.8 240.3c-5.5-6.9-6.5 6.9-6.5 6.9 4.7 9.2 9.2 39.5 9.2 39.5.6-18.1-.5-35.3-2.7-46.4zM516.1 317c-.1-51-12.1-70.3-22.9-77.5-4.5 2.4-2.9 9.4-2.9 14.9 15.6 14.7 18.7 15.8 25.8 62.6z"/><path class="st7" d="M1039.4 324.6c1.6 5.6 7.8 10 12.8 7.5 19.8-9.8 9.8-42.9-39.5-71.2-14.8-8.5-54.5-32.2-45.7 13.2 0 0-56.2 39.4-74.9 60.8-4.4 5.1-11.4 7.2-17.9 5.3L835.5 329c-18.1-5.3-33.1-17.8-41.6-34.6-16-31.8-38.2-49.8-49-55.3 2.1 11.1 3.2 29.5 2.7 47.6-3.7-30.9-12.3-50.3-21.6-62.5-17.2-14-39.8-24.3-71.4-27.3 13.9 11.1 29.5 36.9 27.2 96.8-8.8-71-34.7-91.8-50.6-97.7-3.8 0-7.7.2-11.7.4-16.4.9-33.5 4.6-50.7 10.1 13.9 11.5 28 33.5 29.7 75.4 0 .3-.2.5-.5.5-.2 0-.4-.1-.4-.3-9.6-39-25.8-60.1-40.7-71.5-22 7.9-43.8 18.3-63.7 28.9 10.8 7.1 22.9 26.5 22.9 77.5-7-46.8-23.4-64-36.2-70.2-22.1 12.4-41.3 24.6-55.3 33.2l-68.9 39.9c-17.7 8.9-28.3 18.6-66.5-15.3-18-16-12.5.5-.4 28.4-7 1.2-18.4 6.1-18.4 6.1S247 305 242.3 311c-1.9 2.3 8.2 26 11.6 44.7 8.7 49 5.7 76-6.7 87.6.1.3.1.7.1 1 0 2.1-1.3 4.1-3.2 5 45 11 63.2-12.8 87.4-41.6 18-21.5 33.5-15.9 33.5-15.9l38.7-.2 42.4.6h453.1c7.7 0 15-3.2 20.3-8.8L987 306c12.8-5.1 43 4.9 45 16.6.8 4.8-2.2 10.8 4 15.5 6 4.6 10-5.9 10-5.9"/><path class="st6" d="M248.1 443.6c-.6-3-3.4-4.9-6.4-4.3s-4.9 3.4-4.3 6.4c.6 3 3.4 4.9 6.4 4.3 2.6-.5 4.4-2.8 4.4-5.4 0-.3-.1-.7-.1-1zM475.6 391.5l-10-26.2-33.1 4.7 1.4 22.1z"/><path class="st5" d="M438.4 392.1h-4.5c1.5.1 3 .1 4.5 0zM307.4 395.1c9.7 3.7 2.9 15.7-7.4 19.3M276.7 377s3.7-6.8 12.3-3M258 381.5s3.7-6.8 12.4-3"/><ellipse transform="rotate(-13.821 266.895 391.203)" class="st3" cx="266.9" cy="391.2" rx="3.4" ry="7.2"/><ellipse transform="rotate(-13.821 285.189 386.702)" class="st3" cx="285.2" cy="386.7" rx="3.4" ry="7.2"/><path class="st8" d="M267.8 396.1s-2-.2-3-7M286.2 392s-2-.2-3-7"/><path class="st5" d="M814.7 596.6h-46.2l.1-91.9c0-36.5-29.6-66.2-66.1-66.2H488.6c-21.3 0-38.6 17.3-38.6 38.6l.1 119.4H425V419h389.9v177.6z"/><path class="st5" d="M829.1 596.6H782v-91.9c0-36.5-29.6-66.2-66.1-66.2H529.6c-36.5 0-66.2 29.6-66.2 66.1v91.9h-48.3V419H829v177.6z"/><path class="st3" d="m272.6 525.2-19.2-49.6c-1.3-3.3-4.5-5.5-8-5.5h-25.3c-2.3 0-4.2 1.9-4.2 4.2 0 .6.1 1.1.3 1.6l22.8 53.9 33.6-4.6z"/><path class="st5" d="M515.2 339.6c-.9 8.7-4.1 17-9.3 24-7.4-4.4-14.8-8.4-21.9-12.5l31.2-11.5zM462.3 359.1c-4.1 5.8-6.9 13-9.3 20.3 2.4-7.3 5.2-14.5 9.3-20.3l16.8-6.2c-1.5 9.9-2.2 19.8 1 29.7-14.8 3.9-31.5-1.9-42.1-14.6l24.3-8.9z"/><path class="st5" d="m479.1 353 4.9-1.8c7.1 4.1 14.5 8.1 21.9 12.5-3.5 4.8-7.8 9-12.7 12.4-3.9 3.1-8.3 5.3-13.1 6.5-3.2-9.9-2.5-19.8-1-29.6z"/><path class="st5" d="M438 368c10.6 12.6 27.3 18.4 42.1 14.6v.1-.1c4.8-1.2 9.2-3.5 13.1-6.5 4.9-3.4 9.2-7.6 12.7-12.4l.4.2-.4-.2c5.2-7 8.4-15.3 9.3-24l3.3-1.2s2.8 31.8-27.3 48.4-58.6-16.9-58.6-16.9l5.4-2z"/><path class="st5" d="M382.3 385.6c9.7 18.8 11.2 109.3-1.3 113.3-36.5 11.6-66.2 15.6-92 21.7-4.8-6.5-12.6-16.9-21.3-14.3-4.7 1.4.8 6.5 4.9 13.6 2 3.3-3.8 4.2-7.6 4.1-7.5-.2-10.3-.5-17.4-4.2-13.1-9.8-27.1-14.7-21.4-1.4-5.2.1-5.1 6.5-.3 10.9-4.1.8-3.1 9.7 3.9 12-2.1 2-.7 5.9 2.2 7.9 7.5 5.4 20.9 10.1 29.5 10.2 17.4.2 17.8-5.3 44.7-9.6s58-2 94.9-11.8c32.7-8.7 38.8-52.3 40.2-85.9 2.6-60.8 23.9-128.1-39.6-130.2"/><path class="st5" d="M229.6 541.4s14.3 6.7 20.4 6.7M225.9 529.2s14.2 7.9 21.6 7.9M225.9 518s5.9 5.5 16.5 8.9"/><path class="st6" d="M583.8 391.8c7.3-29.1 25-32.5 73.2-47.5 61.2-74.3 71.4 27 71.4 47.5"/><path class="st7" d="M721.9 390.7c-3.5-.1-6.9-1.7-9.3-4.3-2.7 2.7 12.7 4.3 9.3 4.3-10.3 0-48.3 2.8-51.8-38.8-1.9-22.4 12.7-35 28.4-35 5 0 9.9 1.5 14.1 4.3"/><path class="st7" d="M701.4 317c3.1 0 6.3 1.6 9.3 4.3 1.6-2.6 4.4-4.2 7.5-4.3 9.4 0 19.7 12.5 24.5 34.9s-5.3 38.8-11.4 38.8c-2 0-4.2-1.6-6.5-4.3-1 2.7-2.6 4.3-4.6 4.3-9.7 0-26.4-16.3-31.3-38.8S692 317 701.4 317z"/><path class="st7" d="M693.3 299.5c6.4 4.8 11.7 11 15.5 18 0 0-4.1-18 21.6-33.9 1.2 28.2-17.8 33.8-17.8 33.8"/><path class="st6" d="M715.7 353.8s4.5 10.4 1.3 10.4-1.3-10.4-1.3-10.4zM723.6 353.8s7.9 10.4 4.7 10.4-4.7-10.4-4.7-10.4z"/><path class="st7" d="M626.4 380.6c-2-1.7-3.3-4.3-4.8-6.3-1.3-1.7-2.7-3.9-2.3-5.8.3-1.6 1.5-2.4 2.3-3.8.4-.8.9-1.5 1.5-2.2 2.6.6 3.2 2.8 4.5 4.7 2.4 3.7 5.8 6.6 10.9 6.5 2.5-.1 5.2-1.4 7.3-2.2l1.5-.6c1.4-.5 1.4-.4 1-1.7-.2-.7-1.1-1.6-.5-2.4 1-1.2 5.6-.1 7.2-.6 0-1.8-2.5-3.8-3.7-5.2 1-.5 2-1 3.1-1.3 1.1-.2 2.2 0 3.3-.3 1.3-.4 2.4-1.1 3.4-2.1.7-.6 2.6-1.6 2.8-2.4.2-1.2-1.3-2.1-2.3-2.7.6 0 1.2 0 1.9-.1.5-.9-1-2.8-1.3-3.8-.7-2.2-2.7-3.7-4.9-4-1.5 0-2.9.4-4 1.4-.7.9-.4 2.2-1.3 3-1.8 1.8-5.2 1.9-7.8 1.7-2.4-.1-5.3-.7-6.6-2.7-1.2-1.7 0-2.1 2-2.7 3.3-.7 6.5-1.8 9.6-3.1 1.4-.7 2-1.7 3.7-2 2.1-.4 7.2 1 6.6-2-.5-2.6-4.2-5.2-6.4-7 1-1.4-.3-4.9-1.7-5.9-1.3-.9-2.8-1.4-4.4-1.7-1.1-.1-1-.2-1.8.6s-2.3 1.4-3.4 2.2c-.8.6-2.4 2.5-1.6 3.4-1.1 0-2-.9-2-2v-.1c.1-.5 1.5-1.6 2-2 .8-.8 1.4-1 1.5-2.1.1-.4-.1-.9 0-1.3s.5-.9.4-1.4c-.3-1.9-3.8-3.2-5.7-3.3-3.6-.2-7 1.1-7.7 4.1-.3 1.2-.9 2.2-.5 3.5s1.4 1.4 2.1 2.2c2.4 2.7 2.2 6.3 2.2 9.3 0 1.9-1 5.3-3.6 5.3-1.4.2-2.8-.8-3-2.2v-.5c0-.8.1-1.5.1-2.3-.1-.6 0-1.2.2-1.7.4-.9 1-1 .7-2.3-.4-1.8-1.2-2.2-3-1.8-2.5.5-5.2 2.1-7.8 2-1.3 0-2.5-.9-3.7-.9-1.5.2-3 .6-4.4 1.1-1.5.4-1.5.5-1.6 1.8 0 .9.1 1.8.3 2.7.7 2 2.9 4.2 4.5 5.8-1.2-.5-1.6.5-2.3 1-1 .7-2.1 1.2-3.2 1.3-3.3.3-3.8-2.5-6-3.9-1.2-.7-1.9-.3-3.1.2-2.2.8-6.7 1.8-6.7 4.5 0 3.2 4.5 6.9 6.9 9 1.5 1.3 2.6 3 4.2 4.2 5.2 4 10.4.7 15.9 1.3 1 .1 2.7.2 3.1 1 .7 1.4-3.4 3.7-4 5-.5 1-.8 2.1-.9 3.2 0 1.5 1.3 3.1 2.1 4.4 2.1 3.2 3.6 6.8 6.3 9.7"/><path class="st0" d="M604.5 390.1c0-6.5 5.3-11.8 11.8-11.8 5.3 0 10 3.6 11.4 8.7.3 1 .4 2.1.4 3.1"/><path class="st0" d="M644.7 388.2c0 1.9 0 3.4-1.1 5-.3.8-.8 1.5-1.2 2.1-2.6 3.3-6.4 5.3-10.6 5.4-6.1.8-11.4-3.8-12.6-10-.2-.9-.3-1.7-.3-2.6 0-6.1 4.3-11.4 10.3-12.6.9-.2 1.7-.3 2.6-.3 6.1-.4 11.4 4.2 12.7 10.4.1.9.2 1.8.2 2.6z"/><path class="st0" d="M630.2 373.8c0 6.5-5.3 11.8-11.8 11.8-3.1 0-6.1-1.2-8.3-3.5-.7-.7-1.3-1.5-1.8-2.4-3.8-5.6-.7-12.5 4.6-15.5 6.1-3 12.9-1.5 15.8 3.6 1 1.9 1.5 3.9 1.5 6h0zM682.2 352.7c.5 7-6.4 13-12.4 11.5-3.8-1.5-5.3-4.6-7.6-7.6-.5-.9-.9-1.8-1.1-2.8-.8-3-.4-6.1.9-8.8.4-.9 1-1.7 1.7-2.4 6.9-6.4 16-.4 18.1 7.2.2.9.3 1.9.4 2.9z"/><path class="st0" d="M638.9 362.6c.5 5.5-3.3 9.2-7.6 11.1-.7.3-1.5.6-2.3.7-1.6.3-3.3.3-4.9 0-.8-.2-1.6-.4-2.3-.7-8.3-3.4-10.6-14.8-2.2-20.1 6.1-3.8 14.4-3 18 3.4.6.9.9 2 1 3.1.2.8.3 1.7.3 2.5zM666.8 349.1c.7 3.8-2.4 6.1-4.1 8.9-.7.6-1.4 1-2.1 1.5-.7.4-1.5.7-2.2 1-2.5.3-5.1-.1-7.4-1-.8-.3-1.5-.7-2.2-1.1-5.6-4-7.1-10.8-4.1-16.1.9-1.4 2.2-2.6 3.7-3.4.7-.4 1.5-.7 2.3-.9 4.3-.6 8.6 0 11.7 2.2.6.4 1.2 1 1.7 1.5.4 1.3 1.9 2.8 2.3 4.2.2 1.1.4 2.1.4 3.2z"/><path class="st0" d="M651.4 350.9c-.7 2.7-.7 6.5-3.7 7.9-.7.6-1.6 1.2-2.5 1.6-2.4 1.2-5.2 1.6-7.8 1.2-.7-.1-1.3-.3-2-.5-6.7-1.4-9-8.2-7.4-13.5 2.3-5.3 7.6-9.9 13.5-7.8.8.2 1.7.4 2.4.7 3.3 1.3 6 4 7.2 7.4.2.9.3 2 .3 3zM676.7 358.6c.6 6.5-5.5 12.5-12.2 13-.8-.1-1.6-.2-2.4-.4-3.8-1.5-8.4-3.8-9.9-8.4-.3-.9-.5-1.8-.6-2.7-.2-.9-.3-1.8-.3-2.8-.3-2.8.4-5.7 2-8 .5-.7 1.1-1.4 1.8-2.1 1.4-1.2 3.2-2 5-2.4.9-.2 1.8-.2 2.6-.2 7 .6 11.5 5.2 13.6 11.3.2.9.4 1.8.4 2.7z"/><path class="st0" d="M652.4 370.3c.7 7.7-8.5 13-16.2 11.6-.8-.2-1.6-.4-2.4-.8-3.1-1.3-5.5-3.8-6.8-6.9-.3-.8-.6-1.6-.8-2.4-2-6.8 4-14.4 10.5-15.2 1-.1 2-.1 2.9 0 1.9.2 3.8.8 5.4 1.8 3.5 2 6 5.4 7 9.2.3.9.4 1.8.4 2.7z"/><path class="st0" d="M667.7 369c-.2 1.4-.2 3.6-1 5-.4.7-.9 1.5-1.4 2.1-.5.7-1.1 1.3-1.7 1.9-4.4 3.1-10.2 3.7-15.2 1.5-6.7-3.3-10.4-12.5-6.1-18.8.6-1 1.4-1.8 2.3-2.5 3.8-3.2 9.2-3.7 13.8-2.1.9.3 1.8.7 2.7 1.2 4 1.6 5.5 5.4 6.2 9 .3.9.4 1.8.4 2.7z"/><path class="st0" d="M688.6 370.6c0 7-5.6 12.7-12.6 12.7-1.4 0-2.8-.2-4.1-.7-.8-.3-1.6-.7-2.3-1.2-2.3-1.5-3.8-3.8-4.3-6.5-.2-.9-.3-1.9-.3-2.8-.4-7 4.1-14.6 11.7-13.9 5.3.8 10.6 3.8 11.5 10.2.2.7.3 1.5.4 2.2z"/><path class="st0" d="M687.3 388.2c-.1 8.7-9.2 17.1-17.6 14.3-1-.4-1.9-.8-2.7-1.4-1.8-1.3-3.2-3-4.1-4.9-2.5-5.8-.3-12.5 5.2-15.6.8-.4 1.6-.8 2.4-1.1 4-1.5 8.5-1.1 12.2 1 .7.4 1.3.9 1.8 1.5 1.1 1.3 2.6 2.8 2.6 4.1.2.7.2 1.4.2 2.1z"/><path class="st0" d="M689.2 410.5c-.5 3.1-.5 6.2-2 8.5-4.6 5.3-12.2 7.6-18.2 3.1-.5-.4-1-.9-1.3-1.4-.4-.6-.8-1.2-1.1-1.8-1.3-2.4-1.6-5.3-1-8 .5-1.8 1.2-3.6 2.1-5.2.5-.8 1.1-1.5 1.8-2.2 5.6-6.6 17-5.1 19.5 3.6.1 1.1.2 2.2.2 3.4zM665.2 386.2c0 9.9-12.2 15.3-20.1 10.1-.6-.4-1.2-.9-1.7-1.4-.6-.5-1.1-1-1.7-1.5-.6-.7-1.1-1.6-1.6-2.4-.4-.9-.8-1.8-1-2.8-2.1-6.5 3.2-14.1 10.1-14.9s14.4 3 15.8 10.5c.2.8.3 1.6.2 2.4z"/><path class="st0" d="M679.8 385.4c-.2 5.5-4 10.8-9 11.7-.9.2-1.8.4-2.8.5-3.8.5-7.5-.6-10.5-3-6.1-5.3-4.6-15.2 2.3-19 1.9-.9 4-1.5 6.1-1.7 6.1-.6 12.2 3.2 13.7 9.2.2.8.2 1.5.2 2.3z"/><path class="st0" d="M661.3 403.7c-.1.9-.2 1.9-.5 2.8-.3.9-.6 1.8-1 2.6-3 7.6-12.1 9.1-19 4.6-6.7-4.6-6.9-14-1.9-18.8.7-.7 1.6-1.3 2.5-1.8 7.8-5.3 18.4 0 19.7 8.1.2.8.2 1.7.2 2.5zM674.9 444.5c.9 9.4-9.7 13.2-16.3 9.8-.8-.4-1.5-.9-2.2-1.5-.7-.6-1.3-1.3-1.9-2-3-5.3-2.3-12.9 2.7-16.4.5-.5 1.2-1 1.8-1.4 1.4-.8 3.1-.9 4.6-.5.8.1 1.5.3 2.3.6 2.6 1 4.8 2.7 6.5 4.8.4.5.8 1.1 1.1 1.7.3.6.6 1.2.8 1.8.4 1.1.6 2.1.6 3.1z"/><path class="st0" d="M682.2 430.2c-.1 2.3-.7 4.6-1.9 6.6-.4.7-.9 1.3-1.4 1.8-1.9 2-4.6 3.2-7.3 3.2-.7.1-1.3.1-2 .1-.9 0-1.7-.2-2.6-.4-3.3.2-4.1-2.8-6.5-4.5-.5-.7-.9-1.5-1.2-2.4-1.9-5.5.4-11.6 5.4-14.5.9-.5 1.8-.9 2.7-1.2 6.8-3 12.9 2.3 14.2 8 .4 1.1.5 2.2.6 3.3z"/><path class="st0" d="M670.4 419.8c-.3.8-.5 1.6-.7 2.4s-.4 1.6-.7 2.5c-.4 1.6-1.1 3.1-2.2 4.4-.5.5-1 1-1.6 1.3-5.3 2.8-11.7 1.9-16-2.3-3.1-3.9-3.7-9.2-1.5-13.7 2.3-4.5 6.1-6.1 10.7-6.9 1-.1 2-.1 3 .1 1.7.2 3.2.9 4.5 1.9.6.5 1.2 1 1.7 1.6 1.3 1.8 2.9 4.1 2.6 6.2.2.8.2 1.7.2 2.5z"/><path class="st0" d="M675.9 404.7c.7 5.1-4.6 8.9-8.4 12-.7.4-1.5.7-2.3.8-.8.2-1.6.3-2.4.3-4.4.4-7.5-2.6-9.7-5.6-1.3-2.4-1.8-5.2-1.4-7.9.2-1 .5-2 .9-3 2.1-5.8 8.2-8.8 14.2-8 1.5.2 2.8.8 4 1.7.6.4 1.1.9 1.6 1.5 1.1 2.2 3.4 3.7 3.4 6 .1.6.1 1.4.1 2.2z"/><path class="st5" d="M148.3 450.2s4.4-27.4-12.1-30.4c-13.1-2.4-31.2-5.4-29.6 4.2 18.9-1 30 9.7 21 14.3 3.5 2.1 8.4 12.9-1.7 15.2 7.7 2.7 3.4 10.7-1.5 10.2 9.3 9.8-9.7 11.3-18.3 7.6-5.3-2.3-10.4-8.7-6.9-12.4-3.5-2.7-3.5-8.7-.5-11.6 0 0-3.4-3.2-2.9-7.7.3-2.5 1.4-4.8 3.1-6.5-1.8-3.1 3.9-8.2 7.7-9.1"/><ellipse transform="rotate(-21.019 234.381 479.216)" class="st1" cx="234.4" cy="479.2" rx="1.4" ry="2.9"/><path class="st5" d="m645.9 163.8 182.4 70.6s-38 15.8-89.9 12.7c-11-29.6-35.8-38.5-56.4-45.3s-27.5-4.9-27.5-4.9l-8.6-16v-17.1z"/><path class="st2" d="M644.3 194c-4.8-11.3-3.4-33.6-3.4-33.6l8.4-1.4"/><path class="st5" d="M482.9 138.8s25.6 21.6 25.6 55.3M99.2 459s13.4 5 25.2 4.8M98.6 447.3s19.1 7.2 27.2 6.2M98.8 433.1s15.6 7.9 28.7 5.2"/><path class="st2" d="m140.4 405.3 23.2-58.6c1-2.4 3.7-3.7 6.2-2.9l20.9 6.7"/><path class="st5" d="M1054.9 330.5s-6.4-4-8.3-9.6M1060.3 324s-6.7-2.3-7.2-8.8M855.2 121.2c-7.8-3.2-12.4 2.2-16.8 12.2"/><path class="st2" d="m838.9 120.3-6.2 9.8M830.6 123.8l-4.6 8.1"/><path class="st0" d="M54.9 248.8c33.5-46.5 91.3-71.3 91.3-71.3s-18.9 9.4-31.6 38c-26.7 12.6-59.7 33.3-59.7 33.3z"/><path class="st0" d="M136.4 182.2s32.2-9 57.1-5.5l50.7-21.9c0 .1-44.1-5.7-107.8 27.4z"/><path style="fill:none;stroke:#fff;stroke-width:2.6px;stroke-miterlimit:10" d="m98.6 383.1 20.6 27.5"/><path class="st2" d="M618 159c-8.1-.3-15.8 7.2-3.8 30.1M606.4 154.9s-15.8 4.1-2.7 30M597.1 154s-7.1 4.5-5.5 16.1c.5 3.5 1.5 6.8 3 10"/><path d="M356.5 162.5c-.1-5.9-.1-11.7-.1-17.6v-17.6l.1-17.6c0-5.9.1-11.7.1-17.6h.4c1.3 5.8 2.2 11.7 2.6 17.6.3 2.9.4 5.9.5 8.8s.1 5.9.2 8.8c.1 2.9-.1 5.9-.2 8.8-.1 2.9-.3 5.9-.6 8.8-.4 5.9-1.3 11.8-2.6 17.6h-.4z"/><path class="st7" d="M852.2 333.6c18.5 15.5 22.2 35.8 22.2 100.1s-4.4 92.1-4.4 92.1 17.7-7.2 33.8-7.9c16.1-.6 22.7 4 37.5-4.9 0-31 13.3-173.8-41.3-186.2-15.6 5.9-19.4 11-19.4 11s-18-14.1-28.4-4.2z"/><path class="st2" d="M880.7 337.7s13.1 11.1 18.4 54.4M891.1 330.5s9.3 1.4 15.2 11.5M916.2 324l3.2-6.7M926.2 308.1l-2.2-10M939.5 298.1v-11M952.6 287.1l3.2-8.4M932.5 319.6l2.6-9.1M942.8 303.1l6.9-5M933.8 333.4l9-9.4M955.8 325.7l6-4.8M949.7 315.1l6.1-4.6M965.7 310.5l3-5.2M958.8 300.6l6.9-8M968.7 282.9l3.8-2.3M939.5 347.4l-1.2 4.3M952.6 342.1h6.2M968.7 320.7l13.6-1.1M838.9 238.4l5.9-10.5M835.8 252.5l-3.1-4.9M820.9 258.9l-3.4-8.9"/><path class="st3" d="M838.9 273.6c-.3.3 0-11 0-11"/><path class="st2" d="M829.1 268.1v-5.6M829.1 287.1l-9.9-6.5M846.8 283.6v-10M858.8 296.6l-2.4-9.9M841.9 298.1l-3-6.5M834.3 308.1l-8.1-7.5M850.3 262.5l1.9-12.5M811.2 265.3l-9.4-6.4M829.1 225.4v-6.5M852.2 310.5l-.9-9.9M867 323.3l-1.7-12.8M866.1 300.6l4.6-9"/><path class="st0" d="M1026.9 315.1s6.5-18.2 33.4-25.1v18.4c-19.5 1.4-28.2 18.3-28.2 18.3l-5.2-11.6z"/><path d="M726 175.2c.3-3.1 1.6-5.9 2.6-8.7.5-1.4 1.1-2.8 1.5-4.2.5-1.3.8-2.7 1-4.1.2-1.3.2-2.6-.1-3.8-.3-1.1-.8-2.2-1.7-3-1-.9-2.1-1.7-3.2-2.4-1.4-.8-2.7-1.8-3.9-2.9-1.4-1.4-2.3-3.2-2.6-5.1-.1-1.9.3-3.8 1.3-5.4.8-1.4 1.7-2.7 2.8-3.9 1-1.2 2-2.3 3-3.4 2-2.1 3.8-4.4 5.4-6.9 1.6-2.5 2.5-5.3 2.4-8.3.9 3 .6 6.3-.7 9.1-1.3 2.8-2.9 5.5-4.8 8-1.8 2.3-3.4 4.7-4.8 7.2-.5 1-.8 2.1-.7 3.2.2 1.1.7 2 1.5 2.8 1.7 1.7 4.7 2.9 7.2 5.6 1.3 1.4 2.1 3.1 2.4 4.9.3 1.7.1 3.5-.3 5.1-1.7 6.2-5.9 10.7-8.3 16.2zM689.6 163.1c1.5-.5 2.7-1.6 3.5-3 .5-1.3.5-2.8.2-4.2-.4-1.5-.9-3-1.5-4.4-.3-.7-.7-1.5-1-2.2l-.5-1.1-.6-1.2c-.8-1.7-1.3-3.6-1.5-5.5-.2-2 .2-4 1.1-5.8.9-1.7 2-3.1 3.5-4.3 1.3-1.1 2.8-2.1 4.4-2.9-2 2.8-4.1 5.5-4.9 8.3s-.2 5.6 1.1 8.4l1 2.3c.3.8.7 1.6 1 2.5.6 1.7 1 3.6 1 5.4 0 1-.1 2-.3 2.9-.2 1-.7 1.9-1.4 2.7-.7.7-1.5 1.3-2.4 1.6-.9.5-1.8.6-2.7.5zM773.5 124c-2.4 4.2-5.3 8.1-7 12.2-.9 2-1.3 4.1-1.4 6.2 0 1 .1 2.1.3 3.1.2 1 .5 1.9 1 2.8.6.9 1.2 1.8 1.9 2.6.7.9 1.5 1.8 2.2 2.8.8 1 1.4 2.2 2 3.3.3.7.5 1.4.7 2.1.1.7.1 1.5-.1 2.2-.3 1.2-.7 2.5-1.1 3.6-.4 1.1-.9 2.2-1.4 3.3-1 2.1-1.9 4.4-2.6 6.7 0-1.2.1-2.4.3-3.6.2-1.2.5-2.4.8-3.5.6-2.2 1.1-4.5 1.4-6.8 0-.4 0-.9-.1-1.3l-.6-1.2c-.6-.9-1.3-1.8-2-2.6-1.8-1.8-3.4-3.7-4.8-5.7-.2-.3-.4-.7-.5-1-.1-.3-.3-.7-.4-1-.2-.7-.4-1.3-.5-2-.3-1.3-.4-2.7-.3-4 .2-2.7 1-5.2 2.3-7.5 1.3-2.2 2.8-4.2 4.5-5.9 1.7-1.7 3.5-3.3 5.4-4.8z"/></g></g></svg>