<svg version="1.1" id="Layer_1" xmlns="http://www.w3.org/2000/svg" xmlns:xlink="http://www.w3.org/1999/xlink" x="0" y="0" width="901.5" height="851.8" style="enable-background:new 0 0 901.5 851.8" xml:space="preserve"><style>.st1{fill:#010101;stroke:#010101;stroke-width:2.1409px;stroke-miterlimit:10}.st2{fill:#fff;stroke:#010101;stroke-width:2.1409px;stroke-linecap:round;stroke-linejoin:round}.st3{fill:#fff;stroke:#010101;stroke-width:2.1409px;stroke-miterlimit:10}.st4{fill:none;stroke:#010101;stroke-width:2.1409px;stroke-miterlimit:10}.st5{fill:#010101;stroke:#010101;stroke-width:2.1409px;stroke-linecap:round;stroke-miterlimit:10}.st6{fill:none;stroke:#fff;stroke-width:1.6469px;stroke-linecap:round;stroke-miterlimit:10}.st7{fill:#fff;stroke:#010101;stroke-width:2.1409px;stroke-miterlimit:9.9998}.st8{fill:#010101;stroke:#010101;stroke-width:2.1408px;stroke-linecap:round;stroke-linejoin:round;stroke-miterlimit:3.9998}.st9{fill:none;stroke:#fff;stroke-width:1.6469px;stroke-linecap:round;stroke-linejoin:round}.st11{fill:none;stroke:#010101;stroke-width:2.1409px;stroke-linecap:round;stroke-linejoin:round}.st12{fill:#fff}.st14{fill:#010101}.st16{fill:#010101;stroke:#010101;stroke-width:2.1409px;stroke-linecap:round;stroke-linejoin:round}.st17{fill:#010101;stroke:#010101;stroke-width:2.1411px;stroke-linecap:round;stroke-linejoin:round;stroke-miterlimit:4.0004}.st18{fill:none;stroke:#010101;stroke-width:2.1409px;stroke-linecap:round;stroke-miterlimit:10}.st19{fill:#010101;stroke:#fff;stroke-width:2.1409px;stroke-linecap:round;stroke-linejoin:round}.st20{fill:none;stroke:#010101;stroke-width:4.9406px;stroke-linecap:round;stroke-linejoin:round}.st24{fill:none;stroke:#010101;stroke-width:4.9406px;stroke-linejoin:round}.st25{fill:#fff;stroke:#010101;stroke-width:2.1409px;stroke-linejoin:round}.st26{fill:none;stroke:#010101;stroke-width:2.1409px;stroke-linejoin:round}.st27{fill:#010101;stroke:#010101;stroke-width:2.1408px;stroke-linejoin:round;stroke-miterlimit:3.9996}.st29{fill:none;stroke:#010101;stroke-width:4.1172px;stroke-linecap:round;stroke-linejoin:round}</style><defs><path id="SVGID_1_" d="M-1 .8h902.4v851H-1z"/></defs><clipPath id="SVGID_2_"><use xlink:href="#SVGID_1_" style="overflow:visible"/></clipPath><g style="clip-path:url(#SVGID_2_)"><g id="Layer_2_1_"><g id="Layer_1-2"><path class="st1" d="M318.1 344.4H546v109.1H318.1z"/><path class="st2" d="M583.2 303.4h24.9v269.8h-24.9z"/><path class="st3" d="M284.4 303.1h302v269.8h-302z"/><path class="st4" d="m291 398.5 55.3-95.1M346.8 398.5l55.4-95.1M402.7 398.5l55.3-95.1M458.5 398.5l55.3-95.1M514.3 398.5l55.3-95.1M286.3 398.5H608"/><path class="st3" d="M415.3 398.5c0-17.9 8.2-33.3 20.2-40.5-3.7-1.7-7.7-2.7-11.9-2.7-18.9 0-34.1 19.4-34.1 43.2s15.3 43.2 34.1 43.2c4.2 0 8.2-1 11.9-2.7-11.9-7.2-20.2-22.6-20.2-40.5z"/><path class="st1" d="M457.7 398.5c0-18.6-9.2-34.3-22.2-40.5-11.9 7.2-20.2 22.6-20.2 40.5s8.2 33.3 20.3 40.5c12.9-6.1 22.1-21.9 22.1-40.5z"/><path class="st3" d="M510 398.5c0-10.5 5-19.4 12.3-23.1-2.3-1.2-4.9-1.8-7.4-1.8-10.9 0-19.8 11.2-19.8 25s8.8 25 19.8 25c2.6 0 5.2-.7 7.4-1.8-7.2-3.8-12.3-12.8-12.3-23.3z"/><ellipse class="st1" cx="522.3" cy="398.5" rx="12.3" ry="23.1"/><path class="st3" d="M321.7 398.5c0-10.5 5-19.4 12.3-23.1-2.3-1.2-4.9-1.8-7.4-1.8-10.9 0-19.8 11.2-19.8 25s8.8 25 19.8 25c2.6 0 5.2-.7 7.4-1.8-7.3-3.8-12.3-12.8-12.3-23.3z"/><ellipse class="st1" cx="334" cy="398.5" rx="12.3" ry="23.1"/><path class="st3" d="M588.2 392.5h19.6v12.6h-19.6zM454.7 416.4s-17.9-5.5-48.3 12.2c-27.7 16.1-58.7 13.2-59.9 1.6 32.7-22 17-76.8 19.3-86 2.2-9.1 14.4 19.5 14.4 19.5s9.6-.4 15.2-1.5c-.5-12.5-.5-34.7 7.1-20.3 1.3 2.4 4.6 13.8 5.7 15.9 6.8 14.4 23.9 20.7 38.3 14l3-1.5s14.8 18.3 5.2 46.1z"/><ellipse class="st1" cx="374.7" cy="395.8" rx="2.8" ry="5.8"/><ellipse class="st1" cx="389.9" cy="395.8" rx="2.8" ry="5.8"/><path class="st5" d="M381.4 397.9c0 5.9-3.5 7.2-3.5 7.2M397.1 397.9c0 5.9-3.5 7.2-3.5 7.2"/><path class="st6" d="M374.5 391.8s-1.5.6-1 6M389.6 391.5s-1.5.6-1 6"/><circle class="st1" cx="347.7" cy="428.6" r="4.4"/><path class="st1" d="M608.1 332.6s45.5 3.9 47.3 57.4-47.5 93.9-47.5 93.9l.2-151.3z"/><path class="st3" d="M657.5 523.1s9.5-.3 2.7 14.9c-6.3 14.3-21.7 12.8-27.4 21.7-4.5 7.1 0 13.2 16.6 13.2 18.5 0 25 .1 35.7-15.6 22.2-32.9 12.1-78.4-9.2-81.4-13.3-1.8-18.3 15.4-18.3 15.4l-7.4 2.2"/><ellipse transform="rotate(-12.683 655.991 507.369)" class="st7" cx="656" cy="507.3" rx="10.3" ry="21"/><path class="st1" d="M608 493s29.8-11 37.7-6.7c7.9 4.4 15.6 43 9.8 46.5S608 547.1 608 547.1V493z"/><path class="st3" d="M413.3 400c8.2-1.4 8.4 9.7 2.6 16.4-5.4 6.3-11.2 5.8-12.8 2.9-2.6-4.8 2.4-6.7 4.4-10.3 1.5-2.7 2-8.4 5.8-9zM494.7 395.8s-19.8 6.1-24.3 12.5c-4.4 6.4 13.3 2.6 13.3 2.6"/><path class="st3" d="M530.8 408.3s-3.2-1.2-8.4 6.3c-5 7.3.3 24 1.2 29.6 1.1 6.4-6.6 6.3-6.6 6.3s-.7 4.4-3.1 6.1c-2.2 1.5-6.3 2.3-11-1.5-1.2 1.5-7.7 2.6-10.5-4.6-9.5 0-9.5-13.2-9.5-31.9 0-18.9 16.1-26.3 24.3-28.4 14.8-4 22 1.5 22 1.5 7.3 6.8 1.6 16.6 1.6 16.6z"/><path class="st3" d="M517 450.5s-7.7.7-7.7-24.1M502.8 455c-3.8-8.2-4.2-28.7-4.2-28.7M492.3 450.5s-3-16.3-2-24.1M606.2 392.5c2.7 0 4.9 2.8 4.9 6.3s-2.2 6.3-4.9 6.3"/><path class="st3" d="M601.6 392.5c2.7 0 4.9 2.8 4.9 6.3s-2.2 6.3-4.9 6.3M593.7 392.5c2.7 0 4.9 2.8 4.9 6.3s-2.2 6.3-4.9 6.3M228 383.1s-16.6-2.3-29.1 6.2c-12.6 8.4-21.8 47.6-10.5 83.1 11.3 35.5 69.5 17.3 69.5 17.3s41.5 19.1 51-3.1c-20.6-5-55.3-6.9-55.3-6.9s-42.2 8.7-50-10.2c-13.5-33 4.3-56.6 8.4-59 6.5-3.8 24.4-.4 72.5 19.4l-.2-74.9c-37.9-16.6-52 21.5-52 21.5"/><path class="st3" d="M203.9 343.1s7.6 28.2 19 38.2c11.4 10 10.5-5.5 10.5-5.5s-13.6-5.8-13.5-25"/><path class="st3" d="M201.2 311.4c-2.1 25.8 4.9 49.1 17.8 50.1 12.9 1.1 26.8-20.6 28.8-46.3s-7.7-34.3-20.6-35.3c-12.9-1-23.9 5.8-26 31.5z"/><ellipse transform="rotate(-89.28 244.807 314.528) scale(.99998)" class="st8" cx="244.8" cy="314.5" rx="9.4" ry="6.5"/><ellipse transform="rotate(-89.28 226.719 313) scale(.99998)" class="st8" cx="226.7" cy="313" rx="9.4" ry="6.5"/><path class="st9" d="m221.7 315.7 5.9-5.6v5.6l4.9-4.1M239.5 316.6l6.1-5.8v5.6l4.6-3.9"/><path class="st3" d="M235.1 328.8c4.1 6.4 9.3 10.4 11.5 9 2.2-1.4.7-7.7-3.4-14.2-4.1-6.4-8.3-8.4-10.5-6.9-2.3 1.5-1.7 5.8 2.4 12.1z"/><ellipse transform="rotate(-83.788 227.822 294.854)" cx="227.8" cy="294.8" rx="11" ry="70.6" style="fill:#fff;stroke:#010101;stroke-width:2.1408px;stroke-linecap:round;stroke-linejoin:round;stroke-miterlimit:3.9998"/><path class="st2" d="M252.8 296.3s-7.4 3.9-28.8 1.1c-16.7-2.2-21.2-7.1-21.2-7.1 1.6-13.8 12.4-24 26.2-24.1 16.6-.2 25.5 16.3 23.8 30.1z"/><path class="st11" d="M212 328.5c7.4 6.1 17.5 8.2 26.8 5.4"/><path class="st3" d="m261 460.6 2.1 19.2s8.8 9.5 31.9 14.4c25.1 5.4 36.3.8 36.3.8l9.7-17.8-80-16.6z"/><path class="st3" d="M260.9 465.7c-17-11.3 11.4-14.4 11.4-14.4-.7-3.9 2-7.5 5.8-8.2h.2c7.2-1.5 10.2 3.5 17.5 1.1 7.2-2.5 20-2.8 21.9 4.4 1.9 7.2 8 4 12.4 6.4 4.4 2.4 10 11.5 10 11.5s19.6 12.5 1.6 16.2c-10.4 13.1-77.3-2.9-80.8-17z"/><path class="st12" d="M646.9 418.4c.5-8.3 1-16.4.6-24.5l-.2-3c0-.5 0-1-.1-1.5l-.2-1.4-.3-3-.5-2.9c-.7-3.9-1.5-7.6-2.8-11.3-2.4-7.3-6.3-14.1-11.4-19.8-5.4-5.9-11.9-10.7-19.1-14.2h-.1c-.1-.1-.2-.2-.1-.2 0-.1.2-.2.2-.1 12.1 3.5 22.4 11.3 29.1 22 2.1 3.5 4 7.3 5.3 11.2.3 1 .7 1.9 1 3l.8 3c.2 1.1.4 2 .6 3l.3 1.5c.1.5.2 1.1.2 1.5l.4 3 .2 3.1c.2 2.1.1 4.2.1 6.2-.2 8.2-1.4 16.4-3.4 24.5 0 .1-.2.2-.2.2-.3 0-.3-.1-.4-.3z"/><ellipse transform="rotate(-82.519 303.852 448.97)" cx="303.9" cy="449" rx="4.9" ry="5.9" style="fill:#010101;stroke:#010101;stroke-width:2.1377px;stroke-linecap:round;stroke-linejoin:round;stroke-miterlimit:3.994"/><path class="st3" d="M337 322.1c-.9 0-1.8-.2-2.6-.7-.8-.4-1.5-1.1-2.1-1.7-.6-.7-.9-1.6-1.1-2.5-.2-1.4-.2-2.6-.4-3.8-.2-1.2-.2-2.2-.2-3.3 0-1.1-.1-2.1-.1-3v-3c0-1.1.1-2.1.2-3.3.1-1.2.2-2.4.3-3.8.1-.9.5-1.7 1-2.5.6-.7 1.3-1.4 2.1-1.7.8-.4 1.6-.7 2.6-.7 1.8-.1 3.6.6 4.9 1.8-.3 1.1-.5 2.1-.7 3.1-.2 1.4-.2 2.6-.3 3.8-.1 1.2-.2 2.2-.2 3.3 0 1.1-.1 2.1-.1 3s0 2 .1 3c.1 1.1.1 2.1.2 3.3.1 1.2.2 2.4.4 3.8.2 1.3-.2 2.6-1 3.5-.5.8-1.7 1.4-3 1.4z"/><path class="st3" d="M347.6 323.5c-1 0-1.9-.2-2.8-.7-.9-.5-1.6-1.2-2.2-1.8-.6-.8-1-1.6-1.2-2.6-.2-1.5-.3-3-.5-4.3-.2-1.3-.2-2.6-.2-3.8-.1-1.2-.1-2.3-.1-3.5s0-2.3.1-3.5c.1-1.2.2-2.4.2-3.8.1-1.4.2-2.7.5-4.3.2-1 .6-1.8 1.2-2.6s1.4-1.5 2.2-1.8c.9-.5 1.8-.7 2.8-.7 3.7 0 5.9.9 6.8 1.8 0 0-2.1 2-2.3 3.5-.2 1.5-.3 2.9-.5 4.3s-.2 2.6-.2 3.8c-.1 1.2-.1 2.3-.1 3.5s0 2.3.1 3.5c.1 1.2.2 2.4.2 3.8.1 1.4.2 2.7.5 4.3.2 1.3-.2 2.6-1 3.7-1 .7-2.2 1.2-3.5 1.2z"/><path class="st3" d="M358 323.5c-1 0-1.9-.2-2.7-.7-.9-.5-1.6-1.2-2.1-1.8-.6-.8-1-1.6-1.2-2.6-.2-1.5-.3-2.9-.5-4.2-.2-1.3-.2-2.5-.2-3.7-.1-1.2-.1-2.3-.1-3.5 0-1.2 0-2.2.1-3.5.1-1.2.1-2.4.2-3.7.2-1.3.2-2.6.4-4.2.2-1 .5-1.8 1.1-2.6s1.4-1.4 2.1-1.8c.9-.5 1.7-.7 2.7-.7 5.4 0 6.6 2.1 7.3 3.1-2.1 1.4-3.3 3.7-3.4 6.2 0 1.3-.2 2.5-.2 3.7-.1 1.2-.1 2.3-.1 3.5s0 2.2.1 3.5c.1 1.2.2 2.4.2 3.7.1 1.3.2 2.6.5 4.2.2 1.3-.2 2.6-1 3.7-.6.9-1.9 1.4-3.2 1.4z"/><path class="st3" d="M367.3 322.1c-1.2 0-2.4-.5-3.4-1.3s-1.6-1.9-1.7-3.1c-.2-1.5-.3-3-.4-4.3-.1-1.3-.2-2.5-.2-3.7 0-1.2-.1-2.3 0-3.5.1-1.2 0-2.4.1-3.7.1-1.3.2-2.7.3-4.3.2-1.2.7-2.3 1.6-3.1s2.1-1.3 3.3-1.3c4.9 0 9.4 4.2 10.1 9.6h-6.8c-.1 1.3.3 8.8.4 10.1.1 1.3.2 2.7.4 4.3.2 1.2-.2 2.2-.9 3.1-.5.7-1.5 1.2-2.8 1.2zM330.5 300.9s-7.9-11.6-12.9-7.2c-4 3.5 2 9.7 2 9.7h10.8l.1-2.5zM255 491.6c31.4 22 57.3 5.3 57.3 5.3-31.8-2.3-44.6-16.8-44.6-16.8s8.5-17.1 5.7-19.9c-5.3-5.4-20.9 19.1-20.9 19.1l-10.2-.2 1.2 14.5 11.5-2z"/><path class="st14" d="M318.7 465.8c-.7-.6-1.3-1.1-2-1.5-.4-.2-.9-.1-1.2.3-.1.2-.1.2-.1.4.1 1 .5 1.8 1.2 2.5.2.6.8 1 1.4 1.2.7.2 1.5-.2 1.6-1 .1-.7-.3-1.5-.9-1.9zM292.1 466.3c-1.2.1-2.4.4-3.5 1.1-.2.1-.4.3-.4.6-.3.8.1 1.7.9 2.1h.1c.7.2 1.3 0 1.8-.4.7-.5.9-1.4 1.5-1.7.7-.5.5-1.8-.4-1.7zM332.5 473.3l-2-1c-.4-.2-.9-.1-1.2.3-.2.2-.2.6 0 .8-.2.4-.1.8.3 1.1.8.5 1.6.7 2.6.4.4-.2.7-.6.6-1 0-.2-.1-.4-.3-.6zM288.4 451.6H285.5c-.5-.1-.9.2-.9.7 0 .5.2.9.7.9.9.2 1.8.3 2.7.2.2 0 .4-.2.6-.3.4-.1.7-.6.6-1-.3-.3-.5-.5-.8-.5zM306.6 464.4c-.2-.3-.7-.5-1.1-.3-.2 0-.5.1-.7.2-.6.5-.9 1.2-1 1.9 0 .8.7 1.5 1.5 1.5.7 0 1.2-.4 1.5-1 .4-.7.3-1.5-.2-2.3zM327.1 459.1h-1.5c-.5 0-.8.3-.8.8s.3.8.8.8h1.5c.5 0 .8-.3.8-.8 0-.6-.3-.8-.8-.8zM280 459l-1.1.2c-.5 0-.8.3-.8.8s.3.8.8.8H279.5l.6-.1c.5 0 .8-.3.8-.8.1-.5-.3-.8-.9-.9.1 0 .1 0 0 0zM316.9 473.9c-.5 0-.8.3-.8.8 0 .2.2.6.4.7.1.4.5.7 1 .7.3-.1.6-.2.7-.6.2-.7-.2-1.4-.9-1.5-.2-.1-.3-.1-.4-.1z"/><path class="st3" d="M239.2 475.7c1.6-.2 3.1 1 3.3 2.6l1.8 15.6c.2 1.6-1 3.1-2.6 3.3-1.6.2-3.1-1-3.3-2.6l-1.8-15.6c-.2-1.6 1-3.1 2.6-3.3zM328.3 412.2c-2.6-1.3-12-1.6-21.1-.2s-26.9.2-31.2-7.7c-1.2-2.2-.8-9-.8-9-1.7-3-1.5-6.8.7-9.4-1.5-4.1-.5-8.6 2.7-11.5-.4-4 .4-7 4-9.3 8.6-5.4 26 5.4 26 5.4-.7-4.2-1-8.3-1.1-12.5 0-8.1 5.2-13.5 8.9-1.2 3.5 11.8 8.2 21.2 17.6 23.9 0 0 4.3 1.2 2.8 15.2-1.4 13.9-8.5 16.3-8.5 16.3z"/><path class="st2" d="M298.6 365.6c17.5 7.8 14.4 16 9.1 14.6-7.1-4.8-21.7-5.5-21.7-5.5s29.8-.1 26.3 16.8c-1.6 8.2-5.5-9.6-29.6-6.8 21.9-2.1 26.8 9.9 27.6 14.9 1.2 8.5-23.2-4.4-27.8-3.5"/><ellipse class="st3" cx="588.2" cy="398.8" rx="4.9" ry="6.3"/><ellipse class="st3" cx="588.2" cy="398.8" rx="1.5" ry="1.9"/><path class="st3" d="M653.5 546.8s7.9-1.6 15.1 2.7M660.2 538.1s8.6-2.6 14.7 1.9M662.6 529.9c5.4-2 11.3-2 16.6 0"/><path d="M280.2 396.3s9.6-4.7 18.8 1.1c14.4 9.1 1.7 16.3-8.7 6.1l-4.4 1.6" style="fill:#fff;stroke:#010101;stroke-width:2.1409px;stroke-linecap:round;stroke-miterlimit:10"/><path class="st14" d="M223.5 405.3c2.7.1 5.4.4 8 1 1.3.2 2.6.5 4 .8 1.3.3 2.6.6 4 .9 5.2 1.3 10.3 2.8 15.5 4.4 2.6.8 5.1 1.6 7.6 2.6 2.5.9 5 1.7 7.6 2.7 2.6 1 5 1.8 7.5 2.9l7.4 3-1.3 3-7.3-3.4c-2.4-1.2-4.9-2.1-7.3-3.2-2.5-1.1-4.9-2.1-7.3-3.1-2.4-1.1-4.9-2-7.4-3-4.9-1.9-10-3.6-15.2-5.2l-3.9-1.2c-1.3-.3-2.6-.7-4-1-2.6-.5-5.2-.9-7.9-1.2z"/><path class="st4" d="M-141.5 722.3H1050"/><path class="st3" d="M48.5 585.2h880.4v136.9H48.5z"/><path class="st3" d="M755.3 608.1h139.4v12.3H755.3zM777.2 644.3h139.4v12.3H777.2zM799.1 680.5h139.4v12.3H799.1z"/><path class="st2" d="M803.9 608.1h139.4v12.3H803.9zM825.8 644.3h139.4v12.3H825.8zM847.7 680.5h139.4v12.3H847.7z"/><path class="st3" d="M.2 573H1002v12.2H.2z"/><path class="st2" d="M752.5 573h249.3v12.3H752.5z"/><path class="st12" d="M725.8 495.4 703 472.8l11.4-34.1 42.5-34.4L878 432l-4.4 51z"/><path class="st16" d="M879.8 464.5c4.3 44.5 6.9 98.7 9.6 143.4l-64.3.1c-18.9-.2 9.1-22.7 20.3-17-2.6-25.3-14.7-57.3-17-82.8-11.6 0-51.5-4-50.7 7.6 1.6 21.6 5 34.3 4.9 56.9l-56.2.1c-25.3 0 4.9-22.4 16.2-16.8-8.7-22.2-7.6-28.9-7.6-28.9"/><path class="st3" d="M855.2 470.4c3.2 9.6 3.2 28.1 3.2 28.1l26-.5.8 9.8-26.2 1s.3 37.3 7.7 58.1c-84.4-1-84.7-47.4-131.6-33.3-12.3-24.6-16.8-59.5 13.2-62.3"/><path class="st1" d="M781.4 459.9c1.2 2.4 2.3 4.3 3.5 7.1 11.5 9.7 34.1 25.9 37.6 38.3 3.5 12.4 21.2 7.5 23.4-1-23.4-22.1-40.2-37.1-56-52.6 2.8 2.8-5.7 5.5-8.5 8.2z"/><path class="st3" d="M731.4 415.5c-21.9 13.3-43.3 52.1-27.6 74.4 12.5 17.6 31.2 21.2 42.7 14 7.7-4.8 2.5-7.5 5.1-11.6 2.1-2.6 3-5.9 2.6-9.2-.5-2.2-2.6-6-5.1-6.7.1-4 2.1-4-2-8.6-2.1-2.3-13.8-3.6-17.9-.3-1.7-2.8.5-3.5-2-6.5s-14.7 4-14.7 7.4"/><path class="st3" d="m848.1 432.4 12.7 11.8c-18.1 0-35.8 13.1-44.7 13.4-7.1-5.9-12.8-5.9-22.8-2.4 0 0 4 3.5 7 6-5.3 3.9-8.2 15.4-16.1 7.6-1.2 3-1.6 6.2-1.5 9.4.2 2 1.8 2.6 2.3 4.4.5 1.8-.2 4.6.6 5.8 1.5 2.6 3.5 4.9 5.5 7.1 1.5 1.5 4.4 1.9 6.7 3.2 1.6.9 2.6 2.6 4.9 3.5 8.1 2.9 16.2-3.5 26.5-4.4 29.5-3.1 76.8-5.1 83.9-49 8-49.1-69.3-67.9-87.4-65.8-45.3 5.4-67.9 9-94.4 32.7"/><ellipse transform="rotate(-12.683 732.167 467.272)" class="st7" cx="732.2" cy="467.2" rx="11.9" ry="6.2"/><path class="st3" d="M759.9 469.9c13.1-8.3 33.5-14.7 33.5-14.7L673.7 338.9c5.8 27.7 17 54.8 35.2 75.7 16.9 19.4 32.3 35.6 51 55.3z"/><path class="st3" d="M735.9 465.2 702 333.7l-3.5 1 29.1 133.5c3.4-.1 6.7-1 8.3-3z"/><path class="st2" d="M832.8 384.7c-5.1-22.2-16-65.9-16-65.9 12.8-4.2 22-11.8 17.6-26.2-3-10.3-14.7-13.2-24.5-8.6-1.5-8.2-7.2-14-16-14-17.5 0-25.1 16.3-25.1 16.3-14-6.8-26.1-4.7-32.7 3.9-5.2 6.8-1 17.7 4.9 22.6-10.6 7.1-16.1 16-10 24.1 7.2 9.6 21.2 3.9 21.2 3.9 3.5 19 12.7 59 12.7 59 14.7 17 48.7-1.7 67.9-15.1z"/><path class="st4" d="M855.5 387.1c-21.9 7.3-25.1 37.9-9.1 59.2"/><path class="st3" d="M847.8 385.1c-16.1 4.5-24.6 20-24.9 37.9-17.9 6.3-41.6 8.6-57.5 5.2M764 397.5c-4.5 5.2-8.4 14.3-9.1 21.2"/><path class="st16" d="M771.7 357.6c.8 3.8 2.1 10.8-3 11.8s-6.6-6.2-7.3-10c-.8-3.8-2.1-10.8 3-11.7s6.5 6.1 7.3 9.9zM786.8 354.2c.8 3.8 2.1 11-3 11.9-5.2.8-6.6-6.3-7.3-10-.8-3.8-2.2-10.9 3-11.9 5.1-1 6.6 6.3 7.3 10z"/><path class="st2" d="M800 379.3c1-1 1.6-2.1 2.2-3.4 1.5-3.5 1.4-6.6-1.7-8.8-3.5-2.5-6.6-1.1-9.6 1.9-2.1 2.1-4.3 4-7.7 4.9-2.8.7-6.3 2.1-6.8 5.7-.4 3.6 2.1 7.1 5.4 7.4 8 .9 13.6-2.5 18.2-7.7z"/><path class="st2" d="M776.7 381.5c10.8 0 19.9-3.1 24.5-13.6-1.3-.7-2.5-1.4-3.8-2 .8 1.5 1.6 2.9 2.4 4.4l3.2 3c-.3-1.5-.7-3-1.1-4.4"/><path class="st3" d="M889.4 402.5s-21.8-.2-35.2 35.5"/><path class="st4" d="M756.9 398.1s-6.2 7.3-8.5 14.1M742.7 463.3c2.3-2 3.7-4.9 3.9-7.9"/><path class="st2" d="M851.2 470.9s8.6-6.8 3.8-12.5-16.5 10-19.8 19.8c20.9 9.9 42.1-9.3 16-7.3z"/><path class="st11" d="m843.9 472.8-11.4-5M857.2 479.8l7.9 3.4"/><path class="st12" d="M742.7 559.2c-2.6.7-4.6 1.2-6.6 1.6-1.8.6-3.6 1.2-5.4 2-1.7.7-3.5 1.6-5.4 2.5-1.9.9-4 1.8-6.4 2.8h-.1c-.1 0-.2 0-.2-.1v-.2c1.4-1.9 3-3.6 4.7-5 1.7-1.5 3.8-2.7 5.9-3.7 2.1-.9 4.4-1.5 6.8-1.5 2.3-.1 4.6.3 6.8 1.2.1 0 .2.2.1.2-.1.1-.2.1-.2.2zM846.5 594.6c-2.6.7-4.6 1.2-6.6 1.6-1.9.6-3.6 1.2-5.4 2-1.7.8-3.5 1.6-5.4 2.5-1.9.9-4 1.8-6.4 2.8l-.1.1c-.1 0-.2 0-.2-.1v-.2c1.4-1.9 3-3.6 4.7-5 1.7-1.5 3.8-2.7 5.9-3.7 2.1-.9 4.4-1.5 6.8-1.5 2.3-.1 4.6.3 6.8 1.2.1 0 .2.2.1.2 0 .1 0 .1-.2.1zM885.9 603.5c-1.8-7.5-3.2-15.2-4.1-22.8-1-7.6-1.7-15.3-2.2-23-.5-7.7-.7-15.4-.7-23.1-.1-7.7.3-15.6 1.2-23.2 0-.1.1-.2.2-.2s.2.1.2.2l.8 11.5.8 11.5 1.5 23.1 1.5 23.1.7 11.5.7 11.5c0 .1-.1.2-.2.2-.2-.1-.3-.2-.4-.3z"/><ellipse transform="rotate(-21.612 832.47 504.216)" class="st7" cx="832.5" cy="504.2" rx="4" ry="3.5"/><path class="st14" d="m813.8 322.1 7.4 30.8 7.2 30.8-.3.1c-2.2-4.8-4.2-9.9-5.8-14.9-.9-2.5-1.5-5-2.2-7.6-.7-2.6-1.4-5.1-2-7.7-.6-2.6-1.2-5.1-1.6-7.7-.6-2.6-1.1-5.2-1.4-7.8-.9-5.3-1.5-10.5-1.6-16h.3z"/><ellipse class="st14" cx="929" cy="780.4" rx="81.7" ry="5.4"/><path class="st14" d="M950.4 427.9c-.6.7-1.2 1.3-1.7 1.8-.7.6-1.2 1.1-1.9 1.5-1.3.9-2.6 1.6-4 2.3-1.3.7-2.6 1.2-4.1 1.6l-4.1 1.5c-2.7 1-5.4 1.9-8.2 3-2.7 1.1-5.4 2-7.9 3s-5 2.1-7.4 3.5c-2.2 1.2-4.4 2.6-6.3 4.3-1.6 1.3-2.9 2.9-3.8 4.6l-.2.6-.2.5c-.1.2-.1.5-.2.7 0 .1.1 0 0-.3-.1-.5-.2-.9-.5-1.3-.2-.3-.4-.6-.7-.8-.1-.1 0 0 .2 0 .8.2 1.6.4 2.5.5 2.6.2 5.2.4 7.7.2 2.8-.1 5.8-.2 8.8-.4l9.3-.7c6.3-.3 12.9-.8 20.3-.2 4.3.3 8.4 1.3 12.4 2.9 2.6 1.1 4.9 2.6 7.2 4.4 2.5 2.1 4.5 4.8 6 7.7 2.6 6.7-.6 14.2-7.3 16.9-6.5 2.6-13.8-.4-16.6-6.8.2.2.6.4.7.3.2-.1 0-.4-.5-.7-1.6-1.1-3.5-1.7-5.3-2.1-2.6-.6-5.2-1.1-7.7-1.3-2.8-.3-5.7-.5-8.6-.6l-9.1-.2c-3.1-.1-6.3-.1-9.6-.3-3.5-.2-7.2-.6-10.5-1.2-2.1-.4-4.4-1.1-6.4-1.9-1.4-.6-2.6-1.4-3.8-2.2-1.5-1.2-2.8-2.5-3.8-4.1-1.1-1.6-1.7-3.6-2.1-5.6-.2-1.6-.2-3.3 0-4.9.2-1.3.6-2.6 1-3.8.2-.6.4-1.2.7-1.6s.5-1.1.7-1.6c1.9-3.7 4.4-7 7.5-9.8 2.6-2.5 5.4-4.8 8.4-6.9 2.8-2 5.7-3.8 8.7-5.4 5.8-3.2 11.9-5.8 18.1-7.7 1.5-.5 3.1-1 4.6-1.4 1.5-.5 3.1-.8 4.7-1 1.6-.2 3.3-.2 4.9-.1.9.1 1.7.2 2.6.4 1 .2 1.8.4 2.7.8 3.6 1.3 5.5 5.2 4.4 8.9-.2.7-.6 1.3-1 1.9l-.6 1.1z"/><ellipse class="st19" cx="-36.1" cy="377.1" rx="35.1" ry="44.4"/><ellipse class="st19" cx="-25" cy="377.1" rx="35.1" ry="44.4"/><path class="st19" d="M.7 389.8c-5.4 18.4-21.3 27.7-35.5 20.6l7.3-25c1.4-4.6 5.4-7 9-5.2l19.2 9.6z"/><path class="st19" d="M-15.1 343.6C-.9 350.8 6.1 371.5.7 389.9l-19.1-9.6c-3.5-1.7-5.4-7.1-4-11.6l7.3-25.1z"/><path class="st16" d="m-20.4 434.6 22.5-19.1h30.6zM-20.4 461.3l22.5 18.9h30.6z"/><path class="st19" d="M-33.6 635.4h-10.8l86.7 160.2c1 1.2 2.3 1.8 3.7 2.1h0c1.4 0 2.4-1.1 2.5-2.3 0-.4-.1-.8-.3-1.2l-81.8-158.8z"/><ellipse class="st14" cx="-53.1" cy="797.7" rx="112.4" ry="6.4"/><path class="st19" d="M33.8 415.5v65.6l-40.7-13.5v-34.9z"/><path class="st20" d="m153.1 697.6 22 99.7M106.8 697.6l-29.2 99.7"/><path class="st16" d="M339.6 703.4s11.4-38.9 27.2-45.8c15.7-6.9 19.5 6 10.5 22.9-6.2 11.8-11.6 23.9-16.4 36.2l-5.8 4.5 3.6 4.1s-1.4 14-9.2 14.7-15-12.7-15-12.7M332.4 620c9.4-15.7 7.2-40.5 15.2-48.3 10.5-10.4 20.4.8 19 15.4-1.5 14.6-5.8 28.1-12.4 41.5-2.1 2-4.4 3.8-6.8 5.6 1.2 1.3 2.5 2.3 3.8 3.6-1.2 5.4-2.2 14.1-8.7 15.5-6.5 1.4-12.7-5.3-15.7-10.2M152.7 697.6s-143.5 15.5 52.6 14.2c45.7-.3 54.3-14.2 54.3-14.2H152.7z"/><path class="st2" d="M116.8 567c-34.7 1.1-44.2-83.1-43-133.9-7.4-5.3-16.3-3.2-24-1.9-4.3 47.8-7.4 106.6 33.8 165.6 26 37.1 9.2-14.2 23-12"/><circle class="st16" cx="156.9" cy="524.9" r="3.8"/><path class="st20" d="m72.5 602.9 11.6 94.7h86.4"/><path class="st16" d="M84.1 697.6s6.9 13.6 52.6 13.6 54.3-13.6 54.3-13.6H84.1z"/><path class="st2" d="m131.6 672.7 97.5-64.2c5.4-3.5 11.8-5 18.2-4.3l84.9 10.2c7.3.4 12.1 7.2 10.8 14.3l-2.2 12.1c-1.2 6.1-7.2 10.3-13.3 10l-86.6-5.7-61.3 45.7"/><path class="st2" d="M138.3 713.9c33.3 4.2 103.3-48.5 103.3-48.5l85.9 65.9c4.1 3 13.9 2.6 17.5-1.1h0c9.7-9.8 9.6-25.6-.2-35.3-.5-.5-1-.9-1.5-1.3L259 621.3c-4.7-4.1-11.5-4.8-17-1.7l-77.1 42.2s-1.6 13.1-6.5 19.4-49.2 7.6-60.9 4.4c0 0 7.7 36 28.5 25 .1-.1 3.1 2.1 12.3 3.3z"/><path class="st2" d="M106.8 567.7c4.2-1.4 8.5-2.2 12.8-2.7 5-.6 10.2-.8 15.3-.8 27.5 0 32.3 27.2 35.7 53.4 6 46.8 6 62-7.2 71-8.5 5.8-57.9 7-66-3 0 0-11.7-37.1-13.8-76.6-.4-5.8 0-11.8 1.3-17.5"/><path class="st16" d="M185.8 657.4s-26.8 2.8-60.8 2.8c-21.7 0-45.9-2.8-45.9-2.8L72.5 603c14.8 1.7 29.7 2.6 44.5 2.7 32.6 0 62.3-2.7 62.3-2.7l6.5 54.4z"/><path class="st20" d="m179.3 602.9 11.6 94.7h86.4"/><path class="st2" d="M56.1 392s1.2-6.8 2.1-12.1c2-11 10-4.9 8.7 2.1-.5 2.6-3.8 22.6-3.8 22.6"/><path class="st2" d="M66.8 409.8c4 0-1.5-8.9 5.7-8.4 5.6.4 9.7 12.8-5.4 21.2-3.8 2.1 1 7.3 1 7.3s-7.6 3.9-12.8 1l-.9-4.3s-4.9-9.1-6.1-14.7c-2.1-10.7 6.3-9.6 7.8-20"/><path class="st2" d="m72.2 401.1-37.1-9 3.8-9.7 34.4 15.3z"/><path class="st2" d="M61.1 401.9s3.6-20.2 5.4-25.4c1.7-5.2 7.8-2.4 7.7 2.2-.1 2.6-7.3 31-7.3 31M188.5 558.2s-8-15.6 9-20.8c10.4-3.1 16.5 1.7 17.7 7.1 1.6 7.3 3.1 28.2 3.1 28.2s-1 9.6-15.7 7.9c-2.5-.2-4.5-1.7-5.7-4h0l-8.4-18.4z"/><path class="st2" d="M196.9 588.9s.3-4-2.1-5.6c-2.4-1.6-6.3-9.8-1-11.8l5.2 7.9s1.5.2 3.5.1c7.3-.2 13.4-5.8 13.9-13.2 0-1.5.3-3 .9-4.4 1.5-2.6 8.8 3 9.6 13.6.8 10.5-12.5 20.5-12.5 20.5"/><path class="st2" d="M141.8 564.8c55.1-3.5 57.2 60.4 57.6 77.6 0 0-.1-4.7-1.3-17.5-1.1-11.6-3.6-19-3.6-19l2.3-16.8s25.5-2.1 24.7 9.1c-1.1 12.8-1.6 61.7-15.1 71.4-4 2.8-15.5 2.9-19.4-.7-20.3-18.6-29.2-77.8-29.2-77.8"/><path class="st11" d="m194.1 544.4-15.8-9.9c-4-2.5-8.8-2.8-13-1l-9.9 4.4"/><ellipse transform="rotate(-19.671 198.27 542.908)" cx="198.3" cy="542.9" rx="6.4" ry="1.7" style="fill:#010101;stroke:#010101;stroke-width:2.1408px;stroke-linecap:round;stroke-linejoin:round;stroke-miterlimit:3.9996"/><path class="st20" d="m202.1 697.6-20 99.7M259.5 697.6l22.1 99.7"/><path class="st2" d="M105.2 502.2s-15.6-46.1-16.9-60.1c-1.4-13.9 13.2-19.6 17.7-8.5 2.6 6.3 16.1 70 16.1 70"/><path class="st2" d="m106.8 567.7 2.6-11.7s-16.6-22.5-16.5-37.3c0-21.1 16.1-24.4 28.7-24.9 12.6-.5 35.3 26.4 35.3 36.9s-6.8 14.4-15.1 21.7c-8.3 7.3 7.3 12.9 7.3 12.9s-14.5 9.1-42.3 2.4z"/><path class="st16" d="M89.6 504.2c0-2.9 6.8-14.7 13-18.2 14.6-8.2 47.3 5.1 49.2 10.3 4 10.3-26.5 1.6-36.2 5.6-8.1 3.4-26.1 11.6-26 2.3z"/><path class="st2" d="M117.4 505.3s-12.5-53.2-12.1-67.1c.4-13.9 18.3-18 21.4-6.4 1.7 6.5 7.7 70.3 7.7 70.3"/><path class="st11" d="M188.5 558.2s8.9 1.2 16.8-2.8"/><path d="M211.4 551.9c1.9-1.2 3.5-3 4.3-5" style="fill:#4978bc;stroke:#010101;stroke-width:2.1409px;stroke-linecap:round;stroke-linejoin:round"/><path class="st2" d="m108.4 636.9-6 3.8.6-8.1-5.5-5.8 6.9-1.1 2.6-7.4 3.7 7.4 7 1.1-4.6 5.8 1.7 8.1z"/><ellipse class="st14" cx="171.5" cy="797.5" rx="140.6" ry="6.6"/><ellipse transform="rotate(-74.55 37.167 387.162)" cx="37.2" cy="387.2" rx="4.8" ry="3.5" style="fill:#010101;stroke:#010101;stroke-width:2.1411px;stroke-linecap:round;stroke-linejoin:round;stroke-miterlimit:4.0002"/><path class="st14" d="M246.9 664.1c7.5 4.4 14.7 9.1 21.9 14.1 3.6 2.4 7.1 5 10.5 7.5 3.5 2.5 6.9 5.2 10.3 7.7 3.5 2.6 6.8 5.3 10.2 8 3.4 2.7 6.8 5.4 10 8.2 6.6 5.6 13.1 11.3 19.2 17.5.1.1.1.2 0 .2-.1.1-.2.1-.2 0l-41.1-31.5-41-31.6c-.1-.1-.1-.2 0-.2.2.1.2 0 .2.1zM119.6 701.7c2 1.7 4.4 3.1 6.8 4 1.2.4 2.5.8 3.7 1.1.7.2 1.3.2 1.9.3.7.1 1.3.2 1.9.2 1.3.1 2.6.2 3.9.2h1.9l1.9-.1c2.6-.2 5.2-.4 7.7-.9 1.3-.2 2.6-.4 4-.7 1.4-.2 2.6-.6 4-.9 2.6-.6 5.2-1.3 7.7-1.9 5.2-1.4 10.4-3 15.9-4.3.1 0 .2 0 .2.1s0 .2-.1.2c-4.9 2.4-10 4.4-15.2 6.3-5.1 1.8-10.5 3.3-15.9 4.3s-11 1-16.4.1c-2.7-.5-5.4-1.4-7.8-2.6-2.5-1.2-4.6-3-6.3-5.3-.1-.1 0-.2 0-.2 0 .1.1.1.2.1z"/><path class="st14" d="M123.6 707.9c-1 .7-2.1 1.2-3.2 1.4s-2.2.2-3.4-.1c-2-.5-3.8-1.5-5.3-2.8-1.5-1.2-2.7-2.6-3.9-4.1-1.2-1.5-2.1-3-3-4.5 1.2 1.4 2.4 2.7 3.8 4 1.3 1.2 2.7 2.2 4.4 3.1 1.4.9 3 1.4 4.5 1.5 1.4.1 2.7-.5 3.7-1.5.8-.8 2.1-.7 2.8.1.8.8.7 2.1-.1 2.9-.1-.1-.2-.1-.3 0zM284.4 641.3l42.6 5.9-42.9-2.8z"/><path class="st2" d="M204.1 540.4c-.3 1.4-1.6 2.1-3 1.7-.7-.2-1.3-.7-1.6-1.3-2.1-4.3-4.5-10.2-4.5-15.5 0-9.6 4.4-5.4 4.4-5.4s.4-21.2 6.3-22.5c5.9-1.4 1.1 17.1 1.1 17.1s5.8-3 4.7 3.2c-.7 5.3-5 13.2-7.4 22.7z"/><ellipse class="st14" cx="619.6" cy="762.9" rx="229.3" ry="5.1"/><path class="st14" d="M400.4 668.4c.4-1.2.7-2.1 1.1-3 .4-1 .8-1.8 1.3-2.7.9-1.6 1.9-3.4 3-4.9 2.2-3 4.8-5.7 7.7-8 1.5-1.2 2.9-2.3 4.6-2.9 1-.3 1.9-.5 2.9-.5 1.1 0 2-.1 3 0 1.9.1 3.9-.2 5.7-.7l4.9-2.1c6.8-3 13.8-5.5 21.1-7.5 3.9-1.1 7.7-1.7 11.6-2.1 4.1-.4 8.2-.4 12.3 0 8.3.9 16.4 3.8 23.5 8.2 7.1 4.4 13.2 10.1 18.4 16.7 4.6 6.2 8.6 12.9 11.7 20 3 6.8 5.4 13.4 7.6 19.8 2.1 6.4 4.3 12.7 6.4 18.4 1.2 2.9 2.2 5.6 3.5 8.2 1.2 2.4 2.5 4.6 4 6.8 1.3 1.8 2.7 3.5 4.4 4.9 1.5 1.3 3.2 2.2 5 3 2.1.8 4.2 1.3 6.4 1.5.6.1 1.2.1 1.8.2.7.1 1.2 0 1.7 0 1.1 0 2.1-.1 3.2-.3 2-.3 4-1 5.7-1.8 1.9-1.1 3.7-2.3 5.3-4 3.5-3.4 6.7-8.2 9.8-13.5s6.1-11.4 9.6-17.6c1.7-3.1 3.7-6.3 5.8-9.5 2.3-3.4 4.9-6.4 7.7-9.3 3.1-3.1 6.8-5.8 10.7-7.8 4.1-2.1 8.4-3.5 13-4.2 2.1-.3 4.4-.5 6.6-.4 1.1 0 2.1.1 3.2.1s2.1.2 3.3.4c4.5.7 9 2.1 13 4.4 4 2.1 7.4 4.9 10.4 8.2 2.7 3 5.1 6.3 7.2 9.8 4 6.7 6.7 13.2 9.2 19.5 2.6 6.3 4.9 12.4 7.4 17.8 2.6 5.4 5.7 10 9.1 12.4 1.6 1.2 3.6 2 5.6 2.4.2.1.6.1.8.2.2 0 .6.1.8.1.6 0 1.2.1 1.6.1 1 0 2-.1 3-.3 2-.5 3.9-1.5 5.4-2.9 2-1.7 3.8-3.9 5.2-6.1 3.4-4.9 6.4-10.8 10.2-16.8 1.9-3.1 4-6.2 6.3-9.1 2.6-3.1 5.5-5.9 8.8-8.2 3.5-2.4 7.5-4.1 11.7-4.9 2-.4 4.1-.7 6.2-.7h1.5c.6 0 1.2.1 1.7.1 3.6.3 7.1 1.6 10 3.6 1.7 1.2 3.5 2.6 4.9 4.3 2.6 2.9 4.7 6.1 6.6 9.5 3.5 6.4 5.9 12.8 8.5 18.9 1.3 3 2.6 6 4 8.7 1.2 2.6 2.8 4.9 4.6 7.2.7.8 1.6 1.5 2.5 2 .8.4 1.6.7 2.5.7 1.8.1 4.4-.9 6.8-2.5 2.6-1.6 4.9-3.6 7.1-5.8 2.2-2.1 4.4-4.5 6.5-7.1 1.5-1.7 4.2-1.9 5.9-.5 1.6 1.5 1.9 4 .7 5.7-2.1 2.7-4.3 5.4-6.7 8-2.5 2.7-5.1 5.2-8.1 7.3-1.6 1.2-3.4 2.1-5.2 3-2.1 1-4.4 1.5-6.6 1.6-2.5.1-4.9-.4-7.2-1.5-2-1-4-2.3-5.5-3.9-2.6-2.7-4.9-5.8-6.8-9.1-1.7-3.1-3.3-6.3-4.8-9.3-2.9-6.1-5.6-12.1-8.7-17.4-1.5-2.5-3.1-4.7-5.1-6.8-1.5-1.6-3.4-2.7-5.4-3.3-.5-.1-.9-.2-1.4-.2h-.7l-1 .1c-1.3.1-2.6.3-3.8.7-2.4.6-4.5 1.6-6.6 3.1-4 3-7.2 7.8-10.3 13.3-3 5.5-5.8 11.7-9.8 18-2.1 3.5-4.6 6.6-7.4 9.4-1.6 1.5-3.5 3-5.4 4.2-2 1.2-4.3 2.2-6.5 2.9-2.2.7-4.5 1.1-6.9 1.2-1.2.1-2.2.1-3.4 0-.6 0-1.2-.1-1.6-.1-.6 0-1.2-.1-1.6-.2-4.5-.7-9-2.2-12.9-4.8-3.6-2.4-6.8-5.4-9.5-8.8-2.4-3-4.4-6.3-6.3-9.7-3.5-6.5-6.2-12.8-8.9-18.9s-5.4-11.7-8.4-16.4c-1.5-2.2-3-4.4-4.9-6.2-1.5-1.6-3.4-3-5.4-4-1.9-.9-4-1.5-6-1.6-2.3-.2-4.6-.2-6.9.2-4.4.8-7.7 2.8-11.2 6.4-3.5 3.6-6.4 8.5-9.4 13.9s-5.7 11.6-9.1 17.9c-1.6 3.1-3.5 6.4-5.6 9.6-2.2 3.5-4.8 6.6-7.6 9.6-3.1 3.3-6.7 6-10.5 8.2-4.1 2.3-8.5 4-13.1 4.8-2.2.4-4.4.7-6.8.8-1.2.1-2.2.1-3.3.1s-2.1 0-3.2-.1c-4.4-.2-9-1.2-13.2-2.6-2.2-.8-4.4-1.7-6.5-2.9s-4-2.5-5.8-4c-3.5-2.8-6.7-6-9.3-9.6-2.4-3.3-4.5-6.8-6.4-10.3-1.7-3.5-3.3-6.8-4.6-10.2-2.7-6.7-4.9-13.2-7.2-19.2s-4.4-12-7.1-17.4c-2.3-5.1-5.3-10-8.7-14.3-3.1-4-7-7.3-11.3-10-2.1-1.3-4.4-2.4-6.7-3.4-2.3-1.1-4.6-1.9-7.1-2.6-2.5-.8-5-1.5-7.7-1.9-2.7-.5-5.5-.7-8.3-.8-6-.1-11.9 1-17.5 3-1.5.5-2.9 1.1-4.3 1.6-1.5.9-2.6 2.1-3.4 3.5l-1.5 2.2c-.4.7-1 1.3-1.5 1.8-1.2 1.1-2.6 1.5-4 2.1-3 1.2-5.9 2.1-9.1 3-1.6.4-3.3.8-4.9 1.1-.9.2-1.7.2-2.6.4-1 .2-1.8.2-2.8.2l-1.5-.1c-3.2-.2-5.7-2.9-5.5-6.2.4-.4.5-1 .8-1.5z"/><path class="st14" d="M849.6 742.3c-4.4.7-10.5-2-14.1-4.5 7.3.1 15-1.4 21.5-5.2-2 7.2-.9 14.9.9 22.1-3.7-3.1-7.5-7.6-8.3-12.4z"/><path class="st12" d="M503.4 648.1c4.4 3 8.5 6.7 11.9 10.8 3.5 4.3 6.4 8.8 8.9 13.6 2.5 4.8 4.7 9.8 6.6 14.8 1.9 5 3.6 10.2 5.3 15.2 1.6 5 3.3 10.2 5.2 15.1 1.7 4.9 4 9.6 6.8 14.1 2.6 4.4 6.4 8.1 10.8 10.6 2.2 1.3 4.7 2.1 7.3 2.7.7.2 1.3.2 1.9.4l2 .2 2 .2 2 .1c-2.6.4-5.4.4-8.1.2-5.5-.6-10.8-2.9-15-6.6-2.1-1.8-4-4-5.5-6.3-3.3-4.4-5.6-9.5-7.7-14.5-2.1-5-3.8-10.2-5.4-15.2-1.6-5-3.3-10.2-5-15.2s-3.7-10-5.8-14.7c-2.1-4.8-4.7-9.5-7.7-13.8-3-4.2-6.5-8.2-10.5-11.7zM666.9 680.7c3.8 1.6 7.2 4.1 10.1 7 3 2.9 5.5 6.2 7.6 9.7 4.4 7.1 7.3 14.7 10.3 22.2 1.5 3.8 2.9 7.4 4.4 11.1 1.5 3.6 3.3 7.2 5.4 10.4 2.1 3.2 4.8 6 8.1 8.2l.7.4.7.3 1.3.7c.9.4 1.8.7 2.7 1.2.9.4 1.9.6 2.9.8l3 .6c-1.1 0-2 .1-3 .1-1.1 0-2.1-.2-3-.3-1-.2-2-.4-3-.7l-1.5-.6-.7-.2-.7-.3c-1-.5-1.8-1-2.7-1.5-.4-.3-.9-.6-1.3-.9l-1.2-1.1c-1.6-1.4-3-2.9-4.4-4.5-2.6-3.3-4.6-6.9-6.4-10.6-1.7-3.7-3.3-7.5-4.7-11.3-2.9-7.5-5.6-15.1-9.2-22-1.8-3.5-4-6.8-6.4-10-2.9-3.6-5.8-6.4-9-8.7z"/><path class="st25" d="M833.6 698.6c0 3-24.3 5.4-54.3 5.4-30.1 0-54.3-2.4-54.3-5.4h108.6zM824.9 698.6c0-24.6-20.3-44.5-45.5-44.5s-45.5 19.9-45.5 44.5h91zM785.1 649c0 2.8-2.6 5.1-5.7 5.1s-5.7-2.3-5.7-5.1h11.4zM705.6 671c0 3-24.3 5.4-54.3 5.4-30.1 0-54.3-2.4-54.3-5.4h108.6zM528.6 629.4c0 3-24.3 5.4-54.3 5.4-30.1 0-54.3-2.4-54.3-5.4h108.6z"/><path class="st26" d="m485.1 574.6 5.7-18.4M463.4 547.7l55.9 17.7-25.8-17.7z"/><path class="st25" d="M495.7 574.9c-.2-.1-.6-.2-1-.4 0-.1.1-.2.1-.3.7-2.6-.4-5.3-2.7-6.6-1.6-1.1-5-1.6-7.2-.8-.1-.2-.2-.6-.4-.8-.7-1.2-1.7-2.2-3-2.9-2.6-1.2-5.6-.9-8 .7-.5.3-2.6 2-2.3 2 0 0-2.6-1.4-3.5-1.6-2.9-1.2-6.1-.7-8.6 1.2-1 .7-1.7 1.6-2.5 2.6-.3.4-.7 1.3-1.2 1.5-.8.5-.3.1-1.2.2-3.5.5-6.3-.1-8.6 3-1.2 1.6-1.1 4.9-2.3 6-3 2.6-1 6.4 2.2 7.3.3.7.8 1.5 1.5 1.9 2.6 2.1 7 1.9 10.3 1.6 1.8-.2 3.6-.4 5.2-.6 2.2.2 4.4.6 6.8.7 1.9.1 3.8.2 5.7.2 1.8.2 3.7.2 5.4 0l7.8-.3c1.6 0 3.1-.9 4-2.3.9-.1 1.8-.3 2.6-.7 5.4-2.4 5.9-8.8.9-11.6z"/><path class="st25" d="M464.2 629.4c-31.2 0-34.7-8.4-36.8-22.4-2-13.8 12.7-27.9 12.7-27.9h61.8s7.7 12.5 8.3 31.4c11.6 10.5 6.3 17.7 0 14.2l1.6 4.6-47.6.1-.4-5.5s-6.4 3.8-9.9 1c-5.3-4.4 5.1-13.4 5.1-13.4"/><ellipse transform="rotate(-11.438 477.325 603.017)" class="st27" cx="477.3" cy="603" rx="5.6" ry="9.6"/><ellipse transform="rotate(-11.438 497.006 603.021)" class="st27" cx="497" cy="603" rx="5.6" ry="9.6"/><path style="fill:#010101;stroke:#010101;stroke-width:2.1409px;stroke-linejoin:round" d="M486.9 619.8h8.1l-6.5-9.5z"/><path class="st26" d="m472.7 629.4-.5-5.5M478.8 629.4l-.5-5.5M484.9 629.4l-.5-5.5M491.1 629.4l-.7-5.5M497.2 629.4l-.6-5.5M503.3 629.4l-.6-5.5M454.3 579.1l-5.9-37.6c-.4-2.6-2.8-4.4-5.4-4-.2 0-.3.1-.6.1l-18.9 5.3"/><path class="st12" d="M475.2 594.5c1-.2 2 0 2.8.5.9.6 1.5 1.3 2.1 2.1 1.8 3.4 2.4 7.3 1.5 11.1-.2 1-.8 1.9-1.5 2.6-.4.3-.9.6-1.4.7-.5.1-1 .1-1.5 0 .4-.1.8-.3 1.2-.6.3-.2.6-.6.8-.9.4-.7.7-1.5.7-2.2.2-1.6.1-3.4-.2-5-.2-1.6-.6-3.4-1.2-4.9-.4-1.4-1.5-2.9-3.3-3.4zM495.1 594.5c1-.2 2 0 2.8.5.9.6 1.5 1.3 2.1 2.1 1.8 3.4 2.4 7.3 1.5 11.1-.2 1-.8 1.9-1.5 2.6-.4.3-.9.6-1.4.7-.5.1-1 .1-1.5 0 .4-.1.8-.3 1.2-.6.3-.2.6-.6.8-.9.4-.7.7-1.5.7-2.2.2-1.6.1-3.4-.2-5-.2-1.6-.6-3.4-1.2-4.9-.5-1.4-1.5-2.9-3.3-3.4z"/><path class="st25" d="M664.2 615c-3.8 0-7.3 1.2-10.5 3.2-3.1-2.1-6.8-3.2-10.5-3.2-11.7 0-21.2 9.3-21.2 25.9s17 28.8 24.8 28.8c2.6-.1 5.1-1.3 6.9-3.2 1.7 1.9 4.3 3.1 6.9 3.2 7.7 0 24.8-12.2 24.8-28.8s-9.5-25.9-21.2-25.9z"/><path class="st25" d="M657.1 598.5c-2.6 6.3-3.7 13-3.4 19.8 0 0-4.9-14.7-30.4-15.2 11.4 20.8 27.6 16.6 27.6 16.6"/><path class="st14" d="M655.5 663.1c1.5 1 3.3 1.3 4.9 1 1.6-.3 3.1-1.1 4.4-2 .7-.5 1.4-1.1 2-1.6.6-.5 1.3-1.2 1.9-1.7.6-.5 1.3-1.4 1.9-2 .6-.6 1.3-1.4 1.8-2 1.2-1.3 2.3-2.6 3.4-4.1l1.5-2.1c.4-.7.8-1.5 1.2-2.2.3-.8.7-1.6.9-2.4.2-.9.5-1.6.7-2.6.4-1.7.6-3.7 1-5.7l.3-.1c.3 1.9.5 3.9.6 5.8 0 1.9-.2 3.9-.8 5.8-1.2 3.8-3.5 7-6.1 9.8-1.3 1.5-2.7 2.7-4.2 4-1.5 1.3-3 2.5-4.7 3.4-1.6 1-3.6 1.5-5.6 1.5s-4-1-5.2-2.5l.1-.3z"/><path class="st3" d="M812 182.5s3.4-19.5 3.4-25.9c0-6.4-9.9-3.6-10.6-11.7-.8-8.1 11.4-16.9 17.1-3.3 0 0 14-6.9 12.8 4.4-1.3 11.2-10 3.2-10.1 16.8-.2 13.6.3 18.8.3 18.8"/><path class="st29" d="M818.4 69.9c3.4 0 6.1 2.7 6.1 6.1 0 3.4-2.7 6.1-6.1 6.1-3.4 0-6.1-2.7-6.1-6.1h0"/><path class="st14" d="M819.8 82.1c0 2.1.1 4.4.2 6.6 0 1.2.2 2.1.2 3.3l.1 1.6.1.8v.4c0 .1 0 .2.1.3.2 1.5 1.4 2.7 3 4.2.9.8 1.6 1.6 2.5 2.5.5.5.9 1.1 1.3 1.6.4.7.7 1.3 1.1 2 .3.7.6 1.5.7 2.2.2.7.2 1.5.2 2.2 0 1.6-.2 3.1-.9 4.6-.7 1.6-1.6 3-3 4.1-1.4 1.2-3 1.8-4.7 2.1-1.6.2-3.4.1-4.9-.6-1.5-.6-2.8-1.6-3.7-2.9-.9-1.2-1.4-2.5-1.5-4-.2-1.3 0-2.6.5-3.8.7.9 1.5 1.6 2.3 2.5.7.6 1.5 1.1 2.2 1.4 1.2.4 2.4.4 3.5-.1.9-.4 1.5-1.1 1.9-1.9.2-.6.4-1.2.6-1.7.1-.4.1-.7.1-1v-1c-.1-1.4-1-3-2.2-4.9-.7-1.1-1.3-2.1-1.8-3.2-.7-1.3-1-2.6-1-4.1v-.9l.1-.8.1-1.6c.1-1.2.2-2.1.2-3.3.1-2.1.2-4.4.2-6.6.1-.8.7-1.4 1.5-1.3.4 0 1 .6 1 1.3z"/><path class="st2" d="M799.9 252.7c18.3 5.2 19.4 37.9 35.4 45.9 7.8 4 13.2.2 16.5-4.7 1.7-3.9 2.9-8 3.2-12.3 3.1-31.7-17.6-58.9-23.6-79.4-6.5-22.1-6.5-22.1-7.8-21-4 .5-9.1 2.3-10.3.3-.2-.5-.8-.7-1.3-.4-.2.2-.4.3-.5.7-1.9 6.9-6.8 22.6-13.6 32.5-6.1 8.6-15.4 26.9-16.7 44.1 2.5-4.3 7.9-8.7 18.7-5.7z"/><path class="st16" d="M835.3 298.6c-16-8-17.1-40.8-35.4-45.9-10.8-3-16.1 1.5-18.8 5.6-.7 8.3.6 16.4 4.9 23.1 13.5 20.1 36.3 23.6 36.3 23.6s20.8 5.9 29.3-11c-3.2 4.8-8.5 8.6-16.3 4.6z"/><ellipse transform="rotate(-53.209 804.523 289.482)" cx="804.5" cy="289.5" rx="3" ry="10" style="fill:#fff;stroke:#010101;stroke-width:2.1409px;stroke-linecap:round;stroke-linejoin:round;stroke-miterlimit:3.9998"/><path class="st14" d="M842.7 294.3c.9-.5 1.6-1.2 2.2-1.8.7-.7 1.2-1.5 1.6-2.3.9-1.6 1.5-3.4 1.7-5.2.2-1.8.3-3.8.2-5.6 0-1-.2-1.9-.2-2.9l-.3-2.9c-1.1-7.7-2.9-15.5-5.4-22.9-1.2-3.8-2.6-7.5-4-11.2l-4.3-11.3c-1.5-3.8-2.8-7.5-4.1-11.4-1.4-3.9-2.2-7.8-2.9-11.9l.3-.1c1.1 3.9 2.4 7.7 4 11.4 1.5 3.7 3.2 7.3 4.8 11.1 3.3 7.3 6.4 14.8 9.1 22.5s4.4 15.6 5.1 23.6c.2 4 .5 8.2-.7 12.1-.5 2-1.5 3.9-2.6 5.4-1.2 1.6-2.9 3-4.8 3.7l.3-.3z"/><path class="st11" d="m814.9 162.2 9.6 4.9-4.9-53.3-3.2 21.3M818.4 74.5c-5.7-2.1-10.5-4.8-.4-9V.8"/><path class="st2" d="M874.4 98.5c4.4-5 13.3 2.1 8.9 8.2-4.3 5.8-6.3 15.2-5.3 22.4 1 7.2-10 10.4-11.4 3.7-2.7-12-.5-25.1 7.8-34.3z"/><path class="st2" d="M867.7 139.8c3.1-6.5 14.1-2.4 11.2 5.1-2.7 7.2-1.4 16.2 2.6 22.6 4 6.4-5.1 14.3-9.5 8.6-7.8-10.3-10.1-24.3-4.3-36.3z"/><path class="st29" d="M882.8 53.3c3.4 0 6.1 2.7 6.1 6.1s-2.7 6.1-6.1 6.1c-3.4 0-6.1-2.7-6.1-6.1h0"/><path class="st14" d="M884.2 65.5c0 2.1.1 4.4.2 6.6 0 1.2.2 2.1.2 3.3l.1 1.6.1.8v.4c0 .1 0 .2.1.3.2 1.5 1.4 2.7 3 4.2.9.8 1.6 1.6 2.5 2.5.5.5.9 1.1 1.3 1.6.4.7.7 1.3 1.1 2 .3.7.6 1.5.7 2.2.2.7.2 1.5.2 2.2 0 1.6-.2 3.1-.9 4.6-.7 1.6-1.6 3-3 4.1-1.4 1.2-3 1.8-4.7 2.1-1.6.2-3.4.1-4.9-.6-1.5-.6-2.7-1.6-3.7-2.9-.9-1.2-1.4-2.5-1.5-4-.2-1.3 0-2.6.5-3.8.7.9 1.5 1.6 2.3 2.5.7.6 1.5 1.1 2.2 1.4 1.2.4 2.4.4 3.5-.1.9-.4 1.5-1.1 1.9-1.9.2-.6.5-1.2.6-1.7.1-.4.1-.7.1-1 0-.3 0-.7-.1-1-.1-1.4-1-3-2.2-4.9-.7-1.1-1.3-2.1-1.8-3.2-.7-1.3-1-2.6-1-4.1v-1.2l.1-.8.1-1.6c.1-1.2.2-2.1.2-3.3.1-2.1.2-4.4.2-6.6.1-.8.7-1.4 1.5-1.3.4.3 1 .8 1.1 1.6z"/><path class="st2" d="M891.8 91.9c-7.4-3.5-13.1 7.9-5.6 11.4 7.1 3.4 11 12.2 8.1 19.6-3 7.6 8.3 13.2 11.4 5.6 5.5-13.7-.3-30.1-13.9-36.6z"/><path class="st2" d="M900.9 133.3c-5-6-13.8 1.7-9.1 8.6 4.5 6.5 6.3 15.7 2.7 23-3.5 7.3 5.5 14.6 9.8 7.7 7.7-12.5 5.9-28.2-3.4-39.3z"/><path class="st2" d="M900.6 177.3c-3.1-6.8-13.4-1.3-10.6 6.6 2.6 7.4 2.3 18.4-.3 25.9-2.6 7.6 7.2 14.1 10.2 7.2 5.4-12.7 6.4-27.5.7-39.7z"/><path class="st2" d="M904 218.6c-4.9-6.3-13.8.5-9.6 7.6 4 6.8 3 15.8-2 21.9s2.5 15.2 8.1 9.4c10-10.5 12.5-27.3 3.5-38.9z"/><path class="st2" d="M902.7 261.3c-5.2-6.3-15.2 1.6-10 7.9 4.9 6 4.8 15.8-1.1 21.2-5.8 5.4 1.9 15.6 7.9 10 11-10.1 12.8-27.5 3.2-39.1z"/><path class="st2" d="M902.3 303.9c-4-6.3-13.9-.1-10 7.4 3.7 7.2 3.7 17.1.8 24.8-2.9 7.7 7.1 14.3 10.3 7.4 6-12.5 6.2-27.9-1.1-39.6z"/><path class="st11" d="M883 57.8c-5.7-2.1-10.5-4.8-.4-9V.8"/><path class="st3" d="M-76.9 176.3c-10 14.4-8.2 34.3 6.3 45.2 3.5 2.6 7.4 4.4 11.7 5.4-.1.1-.2.2-.2.3-10 14.4-8.2 34.3 6.3 45.2 13.4 10.2 35.2 8.1 45.2-6.3 1.1-1.5 1.9-3 2.7-4.6 1.8 2.6 4.2 4.9 6.8 6.9 13.4 10.2 35.2 8.2 45.2-6.3 9.8-14.1 8.2-33.5-5.4-44.5 9.3-14.3 7.3-33.7-6.8-44.3-6.5-4.7-14.5-7-22.5-6.3-2.1-5.6-5.7-10.5-10.5-14.1-13.4-10.2-35.2-8.2-45.2 6.3-1.1 1.5-2 3.1-2.8 4.8-11.7-1.5-24 2.5-30.8 12.3zM-113.2.3c-.2 20.9 12.9 40.2 34.3 45.3-3 23.6 11 46.6 35.2 51.5 10.9 2.2 22.4-.1 32-5.8 6 5.8 13.5 9.8 21.7 11.4 23 4.7 49.2-11 52.9-35 .4-2.6.7-5.1.7-7.7 15.2-4.9 28.2-17.4 30.8-33.8 1.5-9 .3-18-2.9-25.9M78 333.5c-.4-8-6.5-14.8-14.8-14.8-2 0-4 .5-5.8 1.3v-.2c-.3-8-6.5-14.8-14.8-14.8-7.7 0-15.2 6.8-14.8 14.8 0 .8.2 1.6.3 2.5-1.5-.5-2.9-.7-4.4-.7-7.7 0-15.2 6.8-14.8 14.8.3 7.8 6.3 14.5 14.3 14.8.6 7.7 6.7 14.3 14.7 14.3 3.7-.1 7.2-1.5 10-4 2.3 1.5 5 2.2 7.7 2.2 7.7 0 15.2-6.8 14.8-14.8-.1-.9-.2-1.6-.3-2.6 4.7-2.3 8.1-7.3 7.9-12.8z"/></g></g></g></svg>