<svg version="1.1" id="Layer_1" xmlns="http://www.w3.org/2000/svg" x="0" y="0" width="1684" height="1016" style="enable-background:new 0 0 1684 1016" xml:space="preserve"><style>.st0{stroke:#000;stroke-width:2.6px;stroke-miterlimit:10}.st1{fill:#fff;stroke:#000;stroke-width:2.6px;stroke-linecap:round;stroke-linejoin:round}.st2{fill:#fff;stroke:#000;stroke-width:2.6px;stroke-miterlimit:10}.st3{fill:none;stroke:#000;stroke-width:2.6px;stroke-miterlimit:10}.st4{stroke:#000;stroke-width:2.6px;stroke-linecap:round;stroke-miterlimit:10}.st5{fill:none;stroke:#fff;stroke-width:2px;stroke-linecap:round;stroke-miterlimit:10}.st6{fill:#fff;stroke:#000;stroke-width:2.6px;stroke-miterlimit:9.9998}.st7{stroke:#000;stroke-width:2.5998px;stroke-linecap:round;stroke-linejoin:round;stroke-miterlimit:3.9998}.st8{fill:none;stroke:#fff;stroke-width:2px;stroke-linecap:round;stroke-linejoin:round}.st10{fill:none;stroke:#000;stroke-width:2.6px;stroke-linecap:round;stroke-linejoin:round}.st11{fill:#fff}.st13{fill:#fff;stroke:#000;stroke-width:2.6px;stroke-linecap:round;stroke-miterlimit:10}.st14{stroke:#000;stroke-width:2.6px;stroke-linecap:round;stroke-linejoin:round}.st15{stroke:#000;stroke-width:2.6002px;stroke-linecap:round;stroke-linejoin:round;stroke-miterlimit:4.0004}.st17{stroke:#fff;stroke-width:2.6px;stroke-linecap:round;stroke-linejoin:round}.st18{fill:none;stroke:#000;stroke-width:6px;stroke-linecap:round;stroke-linejoin:round}.st23{fill:#fff;stroke:#000;stroke-width:2.6px;stroke-linejoin:round}.st24{fill:none;stroke:#000;stroke-width:2.6px;stroke-linejoin:round}.st25{stroke:#000;stroke-width:2.5998px;stroke-linejoin:round;stroke-miterlimit:3.9996}.st27{fill:none;stroke:#000;stroke-width:5px;stroke-linecap:round;stroke-linejoin:round}</style><g id="Layer_2_1_"><g id="Layer_1-2"><path class="st0" d="M680.3 418.2h276.8v132.5H680.3z"/><path class="st1" d="M1002.3 368.4h30.2V696h-30.2z"/><path class="st2" d="M639.4 368.1h366.8v327.6H639.4z"/><path class="st3" d="m647.4 483.9 67.2-115.5M715.2 483.9l67.2-115.5M783 483.9l67.2-115.5M850.8 483.9 918 368.4M918.6 483.9l67.1-115.5M641.7 483.9h390.7"/><path class="st2" d="M798.3 483.9c0-21.7 10-40.5 24.5-49.2-4.5-2.1-9.4-3.3-14.5-3.3-22.9 0-41.4 23.5-41.4 52.5s18.6 52.5 41.4 52.5c5.1 0 9.9-1.2 14.5-3.3-14.4-8.7-24.5-27.4-24.5-49.2z"/><path class="st0" d="M849.9 483.9c0-22.6-11.2-41.7-26.9-49.2-14.5 8.8-24.5 27.4-24.5 49.2 0 21.7 10 40.5 24.6 49.2 15.6-7.4 26.8-26.6 26.8-49.2z"/><path class="st2" d="M913.4 483.9c0-12.7 6.1-23.6 14.9-28.1-2.8-1.5-5.9-2.2-9-2.2-13.2 0-24 13.6-24 30.4 0 16.8 10.7 30.3 24 30.3 3.2 0 6.3-.8 9-2.2-8.8-4.5-14.9-15.4-14.9-28.2z"/><ellipse class="st0" cx="928.3" cy="483.9" rx="14.9" ry="28.1"/><path class="st2" d="M684.7 483.9c0-12.7 6.1-23.6 14.9-28.1-2.8-1.5-5.9-2.2-9-2.2-13.2 0-24 13.6-24 30.4 0 16.8 10.7 30.3 24 30.3 3.2 0 6.3-.8 9-2.2-8.8-4.5-14.9-15.4-14.9-28.2z"/><ellipse class="st0" cx="699.6" cy="483.9" rx="14.9" ry="28.1"/><path class="st2" d="M1008.3 476.7h23.8V492h-23.8zM846.2 505.7s-21.7-6.7-58.7 14.8c-33.6 19.6-71.3 16-72.7 2 39.7-26.7 20.7-93.3 23.4-104.4 2.7-11.1 17.5 23.7 17.5 23.7s11.7-.5 18.5-1.8c-.6-15.2-.6-42.1 8.6-24.7 1.6 2.9 5.6 16.7 6.9 19.3 8.2 17.5 29 25.1 46.5 17l3.6-1.8s18 22.1 6.4 55.9z"/><ellipse class="st0" cx="749.1" cy="480.6" rx="3.4" ry="7"/><ellipse class="st0" cx="767.5" cy="480.6" rx="3.4" ry="7"/><path class="st4" d="M757.2 483.2c0 7.2-4.2 8.7-4.2 8.7M776.2 483.2c0 7.2-4.2 8.7-4.2 8.7"/><path class="st5" d="M748.8 475.8s-1.8.7-1.2 7.3M767.2 475.4s-1.8.7-1.2 7.3"/><circle class="st0" cx="716.3" cy="520.5" r="5.4"/><path class="st0" d="M1032.5 403.9s55.3 4.7 57.5 69.7-57.7 114-57.7 114l.2-183.7z"/><path class="st2" d="M1092.5 635.3s11.5-.4 3.3 18.1c-7.6 17.4-26.4 15.6-33.3 26.4-5.5 8.6 0 16 20.1 16 22.5 0 30.4.1 43.3-18.9 27-40 14.7-95.2-11.2-98.8-16.1-2.2-22.2 18.7-22.2 18.7l-9 2.7"/><ellipse transform="rotate(-12.683 1090.663 616.168)" class="st6" cx="1090.7" cy="616.1" rx="12.5" ry="25.5"/><path class="st0" d="M1032.4 598.7s36.2-13.4 45.8-8.1c9.6 5.3 18.9 52.2 11.9 56.5-7 4.3-57.7 17.3-57.7 17.3v-65.7z"/><path class="st2" d="M795.9 485.8c10-1.7 10.2 11.8 3.2 19.9-6.5 7.6-13.6 7.1-15.6 3.5-3.1-5.8 2.9-8.1 5.4-12.5 1.8-3.3 2.4-10.2 7-10.9zM894.8 480.6s-24.1 7.4-29.5 15.2c-5.3 7.8 16.1 3.2 16.1 3.2"/><path class="st2" d="M938.6 495.8s-3.9-1.5-10.2 7.7c-6.1 8.9.4 29.2 1.5 36 1.3 7.8-8 7.6-8 7.6s-.9 5.4-3.8 7.4c-2.7 1.8-7.6 2.8-13.4-1.8-1.5 1.8-9.4 3.1-12.7-5.6-11.5 0-11.5-16-11.5-38.8 0-22.9 19.5-31.9 29.5-34.5 18-4.8 26.7 1.8 26.7 1.8 8.9 8.3 1.9 20.2 1.9 20.2z"/><path class="st2" d="M921.8 547.1s-9.3.9-9.3-29.3M904.6 552.6c-4.6-10-5.1-34.8-5.1-34.8M891.9 547.1s-3.7-19.8-2.4-29.3M1030.2 476.7c3.3 0 6 3.4 6 7.7 0 4.3-2.7 7.7-6 7.7"/><path class="st2" d="M1024.6 476.7c3.3 0 6 3.4 6 7.7 0 4.3-2.7 7.7-6 7.7M1015 476.7c3.3 0 6 3.4 6 7.7 0 4.3-2.7 7.7-6 7.7M570.9 465.2s-20.2-2.8-35.4 7.5c-15.3 10.2-26.5 57.8-12.7 100.9 13.7 43.1 84.4 21 84.4 21s50.4 23.2 61.9-3.8c-25-6.1-67.2-8.4-67.2-8.4S550.6 593 541.2 570c-16.4-40.1 5.2-68.7 10.2-71.6 7.9-4.6 29.6-.5 88 23.6l-.2-90.9c-46-20.2-63.1 26.1-63.1 26.1"/><path class="st2" d="M541.6 416.7s9.2 34.2 23.1 46.4c13.8 12.2 12.8-6.7 12.8-6.7s-16.5-7-16.4-30.3"/><path class="st2" d="M538.3 378.2c-2.5 31.3 5.9 59.6 21.6 60.9 15.7 1.3 32.5-25 35-56.2s-9.3-41.6-25-42.9c-15.6-1.3-29 7-31.6 38.2z"/><ellipse transform="rotate(-89.28 591.273 381.965) scale(.99998)" class="st7" cx="591.3" cy="382" rx="11.4" ry="7.9"/><ellipse transform="rotate(-89.28 569.362 380.121) scale(.99998)" class="st7" cx="569.4" cy="380.1" rx="11.4" ry="7.9"/><path class="st8" d="m563.3 383.4 7.1-6.8v6.8l5.9-5M584.9 384.5l7.4-7.1v6.8l5.5-4.7"/><path class="st2" d="M579.5 399.3c5 7.8 11.3 12.6 14 10.9s.9-9.4-4.1-17.2c-5-7.8-10.1-10.2-12.8-8.4-2.8 1.8-2.1 7 2.9 14.7z"/><ellipse transform="rotate(-83.788 570.724 358.038)" cx="570.7" cy="358" rx="13.3" ry="85.8" style="fill:#fff;stroke:#000;stroke-width:2.5998px;stroke-linecap:round;stroke-linejoin:round;stroke-miterlimit:3.9998"/><path class="st1" d="M601 359.8s-9 4.7-35 1.3c-20.3-2.7-25.8-8.6-25.8-8.6 2-16.8 15-29.1 31.8-29.3 20.3-.2 31.1 19.8 29 36.6z"/><path class="st10" d="M551.5 398.9c9 7.4 21.2 9.9 32.5 6.6"/><path class="st2" d="m611 559.4 2.6 23.3s10.7 11.5 38.8 17.5c30.5 6.5 44.1 1 44.1 1l11.8-21.6-97.3-20.2z"/><path class="st2" d="M610.8 565.5c-20.6-13.7 13.9-17.5 13.9-17.5-.8-4.7 2.4-9.1 7.1-9.9h.2c8.8-1.8 12.4 4.3 21.2 1.3s24.3-3.4 26.6 5.3 9.7 4.9 15.1 7.8c5.3 2.9 12.1 14 12.1 14s23.8 15.2 1.9 19.7c-12.5 15.9-93.8-3.5-98.1-20.7z"/><path class="st11" d="M1079.6 508.1c.6-10.1 1.2-19.9.7-29.7l-.3-3.6c0-.6 0-1.2-.1-1.8l-.2-1.8-.4-3.6-.6-3.5c-.8-4.7-1.8-9.2-3.4-13.7-2.9-8.9-7.7-17.1-13.9-24.1-6.6-7.2-14.5-13-23.2-17.2h-.1c-.1-.1-.2-.2-.1-.3 0-.1.2-.2.3-.1 14.7 4.2 27.2 13.7 35.3 26.7 2.6 4.3 4.8 8.9 6.4 13.6.4 1.2.9 2.3 1.2 3.6l1 3.7c.3 1.3.5 2.4.7 3.7l.4 1.8c.1.6.2 1.3.2 1.8l.5 3.7.2 3.8c.2 2.5.1 5.1.1 7.5-.3 10-1.7 19.9-4.1 29.7 0 .1-.2.2-.3.2-.2-.1-.2-.2-.3-.4z"/><ellipse transform="rotate(-82.519 662.96 545.26)" cx="663" cy="545.3" rx="6" ry="7.2" style="stroke:#000;stroke-width:2.5961px;stroke-linecap:round;stroke-linejoin:round;stroke-miterlimit:3.994"/><path class="st2" d="M703.3 391.1c-1.1 0-2.2-.3-3.2-.8s-1.8-1.3-2.5-2.1c-.7-.9-1.1-1.9-1.3-3-.2-1.7-.3-3.1-.5-4.6-.2-1.5-.2-2.7-.2-4s-.1-2.5-.1-3.7v-3.7c0-1.3.1-2.6.2-4s.2-2.9.4-4.6c.1-1.1.6-2.1 1.2-3 .7-.9 1.6-1.7 2.5-2.1 1-.5 2-.8 3.2-.8 2.2-.1 4.4.7 6 2.2-.4 1.3-.6 2.5-.8 3.8-.2 1.7-.3 3.1-.4 4.6-.1 1.5-.2 2.7-.2 4 0 1.3-.1 2.5-.1 3.7 0 1.2 0 2.4.1 3.7.1 1.3.1 2.6.2 4s.2 2.9.5 4.6c.2 1.6-.2 3.1-1.2 4.3-.8.8-2.3 1.5-3.8 1.5z"/><path class="st2" d="M716.1 392.9c-1.2 0-2.3-.3-3.4-.9s-1.9-1.4-2.7-2.2c-.7-1-1.2-2-1.4-3.2-.2-1.8-.4-3.6-.6-5.2-.2-1.6-.2-3.1-.3-4.6-.1-1.5-.1-2.8-.1-4.2 0-1.4 0-2.8.1-4.2.1-1.4.2-2.9.3-4.6.1-1.7.3-3.3.6-5.2.2-1.2.7-2.2 1.4-3.2s1.7-1.8 2.7-2.2c1.1-.6 2.2-.9 3.4-.9 4.5 0 7.2 1.1 8.2 2.2 0 0-2.6 2.4-2.8 4.2-.2 1.8-.4 3.5-.6 5.2-.2 1.7-.2 3.1-.3 4.6-.1 1.5-.1 2.8-.1 4.2s0 2.8.1 4.2c.1 1.4.2 2.9.3 4.6.1 1.7.3 3.3.6 5.2.3 1.6-.2 3.2-1.2 4.5-1.1 1-2.6 1.7-4.2 1.7z"/><path class="st2" d="M728.8 392.9c-1.2 0-2.3-.3-3.3-.9-1.1-.6-1.9-1.4-2.6-2.2-.7-1-1.2-2-1.4-3.2-.2-1.8-.4-3.5-.6-5.1-.2-1.6-.2-3-.3-4.5-.1-1.5-.1-2.8-.1-4.2 0-1.4 0-2.7.1-4.2s.1-2.9.3-4.5c.2-1.6.3-3.2.5-5.1.2-1.2.6-2.2 1.3-3.2.7-1 1.7-1.7 2.6-2.2 1.1-.6 2.1-.9 3.3-.9 6.5 0 8 2.6 8.9 3.8-2.5 1.7-4 4.5-4.1 7.5 0 1.6-.2 3-.3 4.5-.1 1.5-.1 2.8-.1 4.2s0 2.7.1 4.2.2 2.9.3 4.5c.1 1.6.3 3.2.6 5.1.3 1.6-.2 3.2-1.2 4.5-.9 1.2-2.4 1.9-4 1.9z"/><path class="st2" d="M740.1 391.1c-1.5 0-2.9-.6-4.1-1.6-1.2-1-1.9-2.3-2.1-3.8-.2-1.8-.4-3.6-.5-5.2-.1-1.6-.2-3-.2-4.5s-.1-2.8 0-4.3 0-2.9.1-4.5.2-3.3.4-5.2c.2-1.5.9-2.8 2-3.8s2.5-1.6 4-1.6c6 0 11.4 5.1 12.3 11.6h-8.2c-.1 1.6.4 10.7.5 12.3.1 1.6.3 3.3.5 5.2.2 1.4-.2 2.7-1.1 3.8-.8 1-2.1 1.6-3.6 1.6zM695.4 365.4s-9.6-14.1-15.7-8.8c-4.8 4.3 2.4 11.8 2.4 11.8h13.1l.2-3zM603.7 597c38.1 26.7 69.6 6.4 69.6 6.4-38.6-2.8-54.2-20.4-54.2-20.4s10.3-20.8 6.9-24.2c-6.4-6.6-25.4 23.2-25.4 23.2l-12.4-.2 1.5 17.6 14-2.4z"/><path d="M681 565.7c-.8-.7-1.6-1.3-2.4-1.8-.5-.3-1.1-.1-1.4.4-.1.2-.1.3-.1.5.1 1.2.6 2.2 1.5 3 .3.7 1 1.2 1.7 1.4.9.2 1.8-.3 1.9-1.2.1-.9-.4-1.8-1.2-2.3zM648.7 566.3c-1.5.1-2.9.5-4.2 1.3-.3.1-.5.4-.5.7-.4 1 .1 2.1 1.1 2.5h.1c.8.2 1.6 0 2.2-.5.8-.6 1.1-1.7 1.8-2.1.9-.5.6-2-.5-1.9zM697.8 574.8l-2.4-1.2c-.5-.3-1.1-.1-1.4.4-.2.3-.2.7 0 1-.2.5-.1 1 .4 1.3 1 .6 2 .8 3.1.5.5-.2.8-.7.7-1.2 0-.4-.2-.6-.4-.8zM644.2 548.4h-3.6c-.6-.1-1.1.3-1.1.9 0 .6.3 1.1.9 1.1 1.1.3 2.2.4 3.3.3.3 0 .5-.2.7-.4.5-.1.8-.7.7-1.2-.2-.4-.5-.7-.9-.7zM666.4 564c-.3-.4-.8-.6-1.3-.4-.3 0-.6.1-.8.3-.7.6-1.1 1.5-1.2 2.3 0 1 .8 1.8 1.8 1.8.8 0 1.5-.5 1.8-1.2.4-.9.3-1.9-.3-2.8zM691.2 557.5h-1.8c-.6 0-1 .4-1 1s.4 1 1 1h1.8c.6 0 1-.4 1-1 0-.7-.4-1-1-1zM634.1 557.4l-1.3.2c-.6 0-1 .4-1 1s.4 1 1 1h.7l.7-.1c.6 0 1-.4 1-1s-.4-1-1.1-1.1c.1 0 .1 0 0 0zM678.9 575.5c-.6 0-1 .4-1 1 0 .3.2.7.5.8.1.5.6.9 1.2.8.4-.1.7-.3.8-.7.2-.8-.3-1.7-1.1-1.8-.2-.1-.3-.1-.4-.1z"/><path class="st2" d="M584.5 577.7c1.9-.2 3.8 1.2 4 3.2l2.2 19c.2 1.9-1.2 3.8-3.2 4-1.9.2-3.8-1.2-4-3.2l-2.2-19c-.2-2 1.2-3.8 3.2-4zM692.7 500.6c-3.2-1.6-14.6-2-25.6-.2-11 1.8-32.7.3-37.9-9.4-1.5-2.7-1-10.9-1-10.9-2.1-3.6-1.8-8.2.8-11.4-1.8-5-.6-10.4 3.3-14-.5-4.9.5-8.5 4.9-11.3 10.4-6.6 31.6 6.5 31.6 6.5-.8-5.1-1.2-10.1-1.3-15.2 0-9.8 6.3-16.4 10.8-1.5 4.2 14.3 10 25.8 21.4 29 0 0 5.2 1.5 3.4 18.5s-10.4 19.9-10.4 19.9z"/><path class="st1" d="M656.6 444c21.3 9.5 17.5 19.4 11.1 17.7-8.6-5.8-26.4-6.7-26.4-6.7s36.2-.1 31.9 20.4c-2 9.9-6.7-11.6-35.9-8.3 26.6-2.5 32.6 12 33.5 18.1 1.5 10.3-28.2-5.3-33.8-4.3"/><ellipse class="st2" cx="1008.3" cy="484.3" rx="6" ry="7.7"/><ellipse class="st2" cx="1008.3" cy="484.3" rx="1.8" ry="2.3"/><path class="st2" d="M1087.6 664s9.6-2 18.3 3.3M1095.8 653.5s10.4-3.2 17.9 2.3M1098.7 643.5c6.5-2.4 13.7-2.4 20.2 0"/><path class="st13" d="M634.3 481.3s11.7-5.7 22.8 1.3c17.5 11.1 2.1 19.8-10.6 7.4l-5.3 1.9"/><path d="M565.4 492.2c3.3.1 6.5.5 9.7 1.2 1.6.3 3.2.6 4.8 1 1.6.4 3.2.7 4.8 1.1 6.3 1.6 12.5 3.4 18.8 5.3 3.1 1 6.2 2 9.2 3.1 3 1.1 6.1 2.1 9.2 3.3 3.1 1.2 6.1 2.2 9.1 3.5l9 3.6-1.6 3.6-8.9-4.1c-2.9-1.4-5.9-2.6-8.9-3.9-3-1.3-6-2.5-8.9-3.8s-6-2.4-9-3.6c-6-2.3-12.2-4.4-18.4-6.3-1.6-.5-3.1-1-4.7-1.4-1.6-.4-3.1-.8-4.8-1.2-2.9-.6-6.1-1.1-9.4-1.4z"/><path class="st3" d="M122.2 877.1h1446.9"/><path class="st2" d="M352.9 710.7h1069.2V877H352.9z"/><path class="st2" d="M1211.3 738.5h169.3v14.9h-169.3zM1237.9 782.4h169.3v14.9h-169.3zM1264.5 826.4h169.3v14.9h-169.3z"/><path class="st1" d="M1270.3 738.5h169.3v14.9h-169.3zM1296.9 782.4h169.3v14.9h-169.3zM1323.5 826.4h169.3v14.9h-169.3z"/><path class="st2" d="M294.2 695.9h1216.6v14.8H294.2z"/><path class="st1" d="M1207.9 695.8h302.7v14.9h-302.7z"/><path class="st11" d="m1175.4 601.6-27.7-27.4 13.9-41.4 51.6-41.8 147.1 33.6-5.4 62z"/><path class="st14" d="M1362.5 564.1c5.2 54.1 8.4 119.9 11.7 174.1l-78.1.1c-23-.3 11.1-27.6 24.6-20.7-3.2-30.7-17.8-69.6-20.7-100.5-14.1 0-62.6-4.9-61.6 9.2 1.9 26.2 6.1 41.6 5.9 69.1l-68.2.1c-30.7 0 5.9-27.2 19.7-20.4-10.6-27-9.2-35.1-9.2-35.1"/><path class="st2" d="M1332.6 571.3c3.9 11.6 3.9 34.1 3.9 34.1l31.6-.6 1 11.9-31.8 1.2s.4 45.3 9.4 70.6c-102.5-1.2-102.9-57.6-159.8-40.5-14.9-29.9-20.4-72.3 16-75.6"/><path class="st0" d="M1242.9 558.5c1.5 2.9 2.8 5.2 4.3 8.6 14 11.8 41.4 31.5 45.7 46.5s25.7 9.1 28.4-1.2c-28.4-26.8-48.8-45-68-63.9 3.4 3.4-6.9 6.7-10.4 10z"/><path class="st2" d="M1182.2 504.6c-26.6 16.2-52.6 63.3-33.5 90.3 15.2 21.4 37.9 25.8 51.9 17 9.4-5.8 3-9.1 6.2-14.1 2.6-3.1 3.7-7.2 3.1-11.2-.6-2.7-3.1-7.3-6.2-8.1.1-4.9 2.6-4.8-2.4-10.4-2.5-2.8-16.7-4.4-21.7-.4-2.1-3.4.6-4.3-2.4-7.9-3-3.6-17.8 4.9-17.9 9"/><path class="st2" d="m1324 525.1 15.4 14.3c-22 0-43.5 15.9-54.3 16.3-8.6-7.2-15.6-7.2-27.7-2.9 0 0 4.9 4.2 8.5 7.3-6.4 4.7-10 18.7-19.5 9.2-1.5 3.6-2 7.5-1.8 11.4.2 2.4 2.2 3.1 2.8 5.3s-.2 5.6.7 7.1c1.8 3.1 4.2 6 6.7 8.6 1.8 1.8 5.3 2.3 8.1 3.9 2 1.1 3.2 3.2 5.9 4.2 9.8 3.5 19.7-4.2 32.2-5.4 35.8-3.8 93.3-6.2 101.9-59.5 9.7-59.6-84.2-82.5-106.2-79.9-55 6.6-82.4 10.9-114.6 39.7"/><ellipse transform="rotate(-12.683 1183.17 567.442)" class="st6" cx="1183.2" cy="567.4" rx="14.5" ry="7.5"/><path class="st2" d="M1216.8 570.6c15.9-10.1 40.7-17.9 40.7-17.9l-145.3-141.2c7 33.6 20.7 66.6 42.8 91.9 20.4 23.6 39.1 43.3 61.8 67.2z"/><path class="st2" d="m1187.7 564.9-41.2-159.7-4.3 1.2 35.3 162.1c4.2 0 8.2-1.2 10.2-3.6z"/><path class="st1" d="M1305.4 467.2c-6.2-27-19.4-80-19.4-80 15.6-5.1 26.7-14.3 21.4-31.8-3.7-12.5-17.8-16-29.7-10.5-1.8-10-8.7-17-19.4-17-21.2 0-30.5 19.8-30.5 19.8-17-8.3-31.7-5.7-39.7 4.7-6.3 8.2-1.2 21.5 6 27.4-12.9 8.6-19.6 19.4-12.2 29.3 8.7 11.6 25.7 4.7 25.7 4.7 4.2 23.1 15.4 71.7 15.4 71.7 17.8 20.6 59-2 82.4-18.3z"/><path class="st3" d="M1332.9 470.1c-26.6 8.9-30.5 46-11.1 71.9"/><path class="st2" d="M1323.6 467.6c-19.6 5.5-29.9 24.3-30.2 46-21.7 7.6-50.5 10.5-69.8 6.3M1221.8 482.7c-5.5 6.3-10.2 17.4-11 25.7"/><path class="st14" d="M1231.2 434.3c1 4.6 2.6 13.1-3.6 14.3-6.2 1.2-8-7.5-8.9-12.1-1-4.6-2.6-13.1 3.6-14.2s7.9 7.4 8.9 12zM1249.5 430.1c1 4.6 2.6 13.4-3.7 14.4-6.3 1-8-7.6-8.9-12.2-1-4.6-2.7-13.2 3.6-14.4 6.3-1.1 8.2 7.7 9 12.2z"/><path class="st1" d="M1265.6 460.6c1.2-1.2 2-2.6 2.7-4.1 1.8-4.2 1.7-8-2.1-10.7-4.2-3-8-1.3-11.6 2.3-2.5 2.6-5.2 4.9-9.4 5.9-3.4.9-7.7 2.5-8.2 6.9s2.6 8.6 6.6 9c9.5 1.2 16.3-3 22-9.3z"/><path class="st1" d="M1237.2 463.3c13.1 0 24.2-3.8 29.7-16.5-1.6-.8-3-1.7-4.6-2.4 1 1.8 1.9 3.5 2.9 5.3l3.9 3.7c-.4-1.8-.8-3.6-1.3-5.3"/><path class="st2" d="M1374.1 488.8s-26.5-.3-42.8 43.1"/><path class="st3" d="M1213.2 483.4s-7.5 8.9-10.3 17.1M1195.9 562.6c2.8-2.4 4.5-5.9 4.7-9.6"/><path class="st1" d="M1327.7 571.9s10.4-8.3 4.6-15.2c-5.8-6.9-20 12.2-24 24 25.4 12.1 51.1-11.3 19.4-8.8z"/><path class="st10" d="m1318.8 574.2-13.8-6.1M1335 582.7l9.6 4.1"/><path class="st11" d="M1195.9 679.1c-3.1.8-5.6 1.4-8 2-2.2.7-4.4 1.5-6.5 2.4-2.1.9-4.3 1.9-6.6 3s-4.8 2.2-7.8 3.4h-.1c-.1 0-.3 0-.3-.1v-.2c1.7-2.3 3.6-4.4 5.7-6.1 2.1-1.8 4.6-3.3 7.2-4.5 2.6-1.1 5.4-1.8 8.3-1.8 2.8-.1 5.6.4 8.3 1.4.1 0 .2.2.1.3-.1.1-.2.1-.3.2zM1322 722.1c-3.1.8-5.6 1.4-8 2-2.3.7-4.4 1.5-6.5 2.4-2.1 1-4.3 1.9-6.6 3s-4.8 2.2-7.8 3.4l-.1.1c-.1 0-.3 0-.3-.1v-.2c1.7-2.3 3.6-4.4 5.7-6.1 2.1-1.8 4.6-3.3 7.2-4.5 2.6-1.1 5.4-1.8 8.3-1.8 2.8-.1 5.6.4 8.3 1.4.1 0 .2.2.1.3 0 .1-.1.1-.3.1zM1369.9 732.9c-2.2-9.1-3.9-18.4-5-27.7-1.2-9.2-2.1-18.6-2.7-27.9-.6-9.3-.9-18.7-.9-28-.1-9.4.4-18.9 1.5-28.2 0-.1.1-.2.3-.2.1 0 .2.1.2.2l1 14 1 14 1.8 28 1.8 28 .9 14 .8 14c0 .1-.1.3-.2.3l-.5-.5z"/><ellipse transform="rotate(-21.612 1304.975 612.344)" class="st6" cx="1305" cy="612.3" rx="4.8" ry="4.2"/><path d="m1282.3 391.1 9 37.4 8.7 37.4-.4.1c-2.7-5.8-5.1-12-7-18.1-1.1-3-1.8-6.1-2.7-9.2-.9-3.1-1.7-6.2-2.4-9.3s-1.4-6.2-2-9.4c-.7-3.2-1.3-6.3-1.7-9.5-1.1-6.4-1.8-12.8-1.9-19.4h.4z"/><path class="st1" d="M1575.4 524s8.9-6.2 13.1 1.6c4.2 7.8-7.4 15.9-12.5 16.4"/><ellipse cx="1422.2" cy="947.7" rx="99.2" ry="6.6"/><path class="st1" d="M1402.1 909c2.5 10.1 5.2 38.9 5.2 38.9h5.9v-9"/><path class="st14" d="M1462.7 667.3c-.9 0-1.8-.1-2.7-.2-13.6-1.5-25.5-11.2-21.4-24.3 12.9-41.7 7.7-61.2-.5-65.9l62.3 22.4.1-.1c-7.7 14.6-12.6 30.4-14.5 46.9-1.4 12.6-10.9 21.2-23.3 21.2z"/><path d="M1448.2 519.6c-.7.8-1.4 1.6-2.1 2.2-.8.7-1.5 1.3-2.3 1.8-1.6 1.1-3.1 2-4.8 2.8-1.6.8-3.2 1.5-5 2l-5 1.8c-3.3 1.2-6.6 2.3-9.9 3.6-3.3 1.3-6.5 2.4-9.6 3.7-3.1 1.3-6.1 2.6-9 4.2-2.7 1.5-5.3 3.1-7.6 5.2-1.9 1.6-3.5 3.5-4.6 5.6l-.3.7-.2.6c-.1.3-.1.6-.2.9 0 .1.1 0 0-.4-.1-.6-.3-1.1-.6-1.6-.2-.4-.5-.7-.8-1-.1-.1 0 0 .3 0 1 .3 1.9.5 3 .6 3.1.3 6.3.5 9.4.3 3.4-.1 7-.3 10.7-.5l11.3-.8c7.7-.4 15.7-1 24.7-.2 5.2.4 10.2 1.6 15 3.5 3.1 1.3 6 3.1 8.7 5.3 3 2.6 5.5 5.8 7.3 9.4 3.2 8.1-.7 17.3-8.9 20.5-7.9 3.1-16.7-.5-20.2-8.2.3.2.7.5.9.4.2-.1 0-.5-.6-.9-1.9-1.3-4.2-2.1-6.4-2.6-3.1-.7-6.3-1.3-9.4-1.6-3.4-.4-6.9-.6-10.5-.7l-11.1-.3c-3.8-.1-7.7-.1-11.7-.4-4.3-.2-8.7-.7-12.8-1.5-2.6-.5-5.3-1.3-7.8-2.3-1.7-.7-3.2-1.7-4.6-2.7-1.8-1.4-3.4-3-4.6-5-1.3-2-2.1-4.4-2.5-6.8-.3-1.9-.3-4 0-6 .3-1.6.7-3.1 1.2-4.6.2-.7.5-1.4.8-2s.6-1.3.9-1.9c2.3-4.5 5.4-8.5 9.1-11.9 3.2-3 6.6-5.8 10.2-8.4 3.4-2.4 6.9-4.6 10.6-6.6 7-3.9 14.4-7 22-9.4 1.8-.6 3.8-1.2 5.6-1.7 1.8-.6 3.8-1 5.7-1.2 2-.2 4-.3 6-.1 1.1.1 2.1.2 3.1.5 1.2.2 2.2.5 3.3 1 4.4 1.6 6.7 6.3 5.3 10.8-.3.8-.7 1.6-1.2 2.3l-.8 1.6z"/><path d="M1568.4 562c1.1 1.6 1.8 3.3 2.4 5.1.5 1.7.8 3.3 1 5 .2 1.7.2 3.2 0 4.9-.1 1.7-.3 3.2-.5 4.9-.8 6.4-1.9 12.8-3.5 19.2-1.6 6.4-3.4 12.7-5.6 19.5-.6 1.8-1.2 3.4-1.9 5.3-.9 2.1-1.8 4.2-3.1 6.1l-.6.9-.6.8c-.4.5-.9 1.1-1.4 1.7l-1.8 1.8c-.8.7-1.7 1.3-2.6 1.8-1.2.7-2.4 1.2-3.8 1.5-1.6.4-3.1.5-4.7.4-1.5-.1-2.9-.5-4.2-1-1.1-.4-2.1-1-3.1-1.6-1.4-.9-2.6-1.9-3.7-3.1-.9-.9-1.7-1.8-2.3-2.7-1.4-1.8-2.3-3.3-3.3-4.8-1.9-3-3.6-5.7-5.2-8.5s-3.1-5.2-4.8-7.6c-1.6-2.2-3.2-4.5-5-6.6-3.4-4-7.1-6.8-10.2-8-1.4-.5-2.9-.7-4.4-.6-1.6.1-3 .5-4.5 1.2-8.2 3.4-17.6-.5-21-8.7-3.4-8.2.5-17.6 8.7-21 1.5-.6 2.9-1 4.5-1.2l2.1-.2c4.8-.5 9.5-.4 14.3.6 4.8 1 9.3 2.7 13.4 5.3 3.7 2.3 7.1 5.1 10.1 8.3 2.6 2.8 5.1 5.9 7.2 9.1 1.9 3 3.8 6 5.4 9.2 1.7 3 3.1 6 4.5 8.9s2.7 5.6 4 8.1c.7 1.2 1.3 2.3 1.8 3.1.3.4.5.8.7 1 .2.2.2.2-.2 0-.9-.5-1.8-.9-2.9-.9-.8-.1-1.6 0-2.3.2-.6.1-1.1.4-1.6.7-.2.1-.5.3-.7.5-.1.1-.1.2-.1.1l.2-.2.2-.2v-.1c.5-.7.9-1.5 1.2-2.3.5-1.2.9-2.4 1.2-3.6.8-2.7 1.4-5.5 1.8-8.4.5-2.9.8-5.9 1.2-8.9.6-6 1.3-12.2 2.1-18.2.2-1.6.5-3 .8-4.6.2-1.6.6-3 1.1-4.6.5-1.6 1.2-3 1.9-4.5.9-1.6 2-3 3.3-4.3l.4-.4c3.8-3.5 9.7-3.3 13.2.6.3.3.6.6.9 1z"/><path class="st2" d="M1553.3 564.7c-3.6-5.6-6-11.9-7.4-18.4-2.1-10.9 8.8-18.5 9.7-13.6 1 4.9 9.8 27.4 9.8 27.4l-12.1 4.6z"/><path class="st1" d="M1454.5 909c2.5 10.1 5.2 38.9 5.2 38.9h5.9v-18.3"/><path class="st1" d="M1458.3 889.8c-3.5 5.7-5 12.5-3.9 19.2 1.8 11 23.5 40.9 37.6 40.9h10.2c1.9 0 3.7-1.3 4.5-3 2.2-5.3-1.7-15.5-10.4-16-5.2-14.1-12.8-21.9-17.4-31.7"/><path class="st1" d="m1437 693.7 20.7 93.7s-20.7 38.5 4.8 96.9c-12.1 12.3.2 23.2.2 23.2s32.9 33.5 28 11.8c-5.5-9.4-8.9-19.9-9.5-30.8-4.4-57.1 11.3-150.5 11.3-150.5l-55.5-44.3zM1406.7 889.8c-3.9 5.5-5.4 12.5-4.3 19.2 1.9 11 12.2 40.9 27.7 40.9h11.3c2.1 0 4-1.2 5-3 2.5-5.3.4-12-5.3-16-2.7-11-10.5-22.7-11.7-31.7"/><path class="st1" d="m1409 738 4.4 49.5s-21.4 31.9-2.9 94.2c-8 13.4-1.5 19.9.2 23.6 4.9 10.6 24.1 30.4 21.7 13.4-8.9-61.4 30.6-225 30.6-225l-54 44.3z"/><path class="st2" d="M1438.9 642.5s-46.5 29.4-30 95.5h83.6s10.1-47-6.4-90c-28.3 6.4-47.2-5.5-47.2-5.5z"/><path class="st1" d="M1441.1 930.8s-10.9-3-18.7 1.8"/><ellipse transform="rotate(-78.452 1480.402 587.4)" class="st15" cx="1480.5" cy="587.4" rx="24.2" ry="36.1"/><path class="st2" d="m1470.5 562.9 22-30.2 14.9 4.2-11.8 34.1s36.8 28-7.7 21.7c-46.8-6.5-17.4-29.8-17.4-29.8z"/><ellipse transform="rotate(-82.351 1502.61 524.609)" class="st2" cx="1502.6" cy="524.6" rx="26.7" ry="39.3"/><path class="st2" d="M1534.8 530.3c-2.8 7.7-11.5 11.7-18.2 9.2-6.7-2.4-9-10.4-6.2-18.1 2.8-7.7 9.7-12.4 16.4-9.8 6.8 2.6 10.9 10.9 8 18.7z"/><path class="st2" d="M1513.7 522.5c-2.8 7.8-11.5 11.7-18.2 9.2-6.7-2.4-9-10.4-6.2-18.1 2.8-7.7 9.7-12.4 16.4-9.8s10.9 11.1 8 18.7z"/><path class="st13" d="M1495.6 592.6s-1.5-7-5.5-11.9M1514.7 499.9s18.8-32.3 35.2-46.1c1.1-.9 2.6-.3 2.2 1.1l-16.3 59.3M1474.8 504.4c3.7-4.9 11.4-29.8 43.2-59 1.1-1 2.6-.3 2.2 1.1l-14.9 53.4"/><path class="st1" d="M1466 520.2c-2.8 2.3-6 4.2-9.4 5.4-9.7 3.8-24.7-1-25.3-9.5-.5-7.3 6.5-27.4 54.2-25.5 6.9.3 5.7 7.5.7 7-6.6-.6-14.7 2.7-14.7 2.7"/><path class="st1" d="M1466.1 497.4s10.4.7 12 9.2c1.6 8.6-5.7 10.6-5.7 10.6"/><path class="st1" d="M1462.2 518.6s5.9 8.3 9.9 1.5c4-6.8.7-17.2-8-15.8"/><path class="st1" d="M1463 513.4s7.1.3 5.6 8.4c-1.6 8.4-9 6.6-7.8 3.1 1.7-4.8-2.1-3.5-2.1-3.5"/><path class="st14" d="M1510.6 535.2c-.5 1.5-4.4 3.2-5.2 3-.8-.2-3-4-2.5-5.4s2.3-1.4 4.5-.7c2.1.7 3.6 1.5 3.2 3.1z"/><ellipse transform="rotate(-73.448 1491.952 540.165)" class="st15" cx="1492" cy="540.2" rx="3.6" ry="6.9"/><path class="st1" d="M1560.4 553.8c6.9-5.3 13-6.5 20-18.8 3.4-5.9 8-3.5 8 3.8 0 13.9-14.2 26.8-24.6 28.4-4.3.6-9.5-1.6-9.1-5.8"/><path class="st4" d="M1497.3 516.9c-1 2.6-2.5 4.9-4.5 6.8-.8-5.5 1.2-11.1 5.3-14.9.4 2.7.1 5.6-.8 8.1zM1518.9 524.7c-1 2.6-2.5 4.9-4.5 6.8-.8-5.5 1.2-11.1 5.3-14.9.4 2.6.1 5.5-.8 8.1z"/><path d="M1506.1 498.1c7.2 1 13.8 3.2 22.4 8.8" style="fill:none;stroke:#000;stroke-width:2.6px;stroke-linecap:round;stroke-miterlimit:10"/><path class="st2" d="M1545.7 538.1c8.7-11.9 14.2-25.4 17.9-38.3 3.8-13.1 17.9-6 15.3 5.5-3.2 14.1-13 35.2-23.1 45.1-8.2 8.1-16.9-3-10.1-12.3z"/><path class="st1" d="M1543.3 549.8c12.6-15.7 23.9-39.9 28.1-59.2 1.7-7.6 13.1-5.2 11.5 2.3-4.5 20.4-17.8 48.2-31 64.8-5 6-13.5-1.9-8.6-7.9z"/><path class="st2" d="M1554 544.5c7.3-8.6 16.2-28.7 19.5-39.8 4.5-15.7 17.8-9.6 16.1 2.1-1.9 14.4-13.7 38-22.9 48.8-7.5 9-20.2-2.2-12.7-11.1z"/><path class="st1" d="M1496.3 930.8c-6.2.5-8.2 1.8-8.2 1.8"/><path d="M1482.7 654.7c2.1 6.1 3.8 12.5 4.9 19 1.2 6.4 1.9 12.9 2.4 19.5.1 1.7.1 3.2.2 4.9l.1 2.4v7.3l-.2 4.9-.1 2.4c-.1.8-.1 1.7-.2 2.4l-.4 4.9c-.3 3.2-.8 6.5-1.2 9.7h-.4c-.4-3.3-.4-6.6-.6-9.8l-.2-4.9V715l-.1-2.4c-.1-1.7-.2-3.2-.2-4.9l-.3-4.8c-.1-.8 0-1.6-.1-2.4l-.1-2.4-.3-4.8-.3-4.8c-.1-1.6-.3-3.2-.4-4.8-.1-1.6-.2-3.2-.4-4.8l-.4-4.8c-.7-6.4-1.4-12.7-2.2-19.4h.5z"/><ellipse class="st17" cx="178.8" cy="474" rx="29.9" ry="37.7"/><ellipse class="st17" cx="250.2" cy="457.9" rx="42.6" ry="53.9"/><ellipse class="st17" cx="192.2" cy="474" rx="29.9" ry="37.7"/><ellipse class="st17" cx="263.7" cy="457.9" rx="42.6" ry="53.9"/><path class="st17" d="M173 465.2c-3.6 14.3 2.1 29.7 12.8 34.5l3.9-15.3c1.5-5.8-.9-12.2-5.3-14.1l-11.4-5.1z"/><path class="st17" d="M198.7 448.1c-10.7-4.8-22.3 2.8-25.9 17.1l11.5 5.2c4.4 1.9 9-1.2 10.5-7l3.9-15.3z"/><path class="st17" d="m198.7 448.1-3.9 15.3c-1.5 5.8.9 12.2 5.3 14.1l11.5 5.2c3.6-14.2-2.2-29.7-12.9-34.6z"/><path class="st17" d="M185.7 499.8c10.7 4.9 22.3-2.8 25.9-17.1l-11.5-5.2c-4.4-1.9-9 1.2-10.5 7l-3.9 15.3zM294.8 473.4c-6.6 22.4-25.9 33.6-43.1 25l8.9-30.3c1.7-5.6 6.5-8.5 10.9-6.3l23.3 11.6zM275.7 417.2c17.2 8.7 25.8 33.9 19.2 56.2l-23.2-11.7c-4.3-2.1-6.5-8.6-4.9-14.1l8.9-30.4z"/><path class="st17" d="m275.7 417.2-8.9 30.3c-1.7 5.6-6.5 8.5-10.8 6.3l-23.2-11.7c6.4-22.4 25.7-33.6 42.9-24.9zM251.7 498.4c-17.2-8.7-25.8-33.8-19.2-56.2l23.2 11.7c4.3 2.1 6.5 8.6 4.9 14.1l-8.9 30.4z"/><path class="st14" d="m269.2 527.8 27.4-23.2h37.1zM269.2 560.2l27.4 22.9h37.1z"/><path class="st17" d="M240.1 704.5H253v67.1h-12.9zM240.2 771.6H253l-44.2 190.1c-.3 1.3-2.5 2.1-3.8 2.1h0c-1.8 0-3.9-1.1-3.5-2.8l38.7-189.4z"/><path class="st17" d="M253.2 771.6h-13.1l105.3 194.6c1.2 1.4 2.8 2.2 4.5 2.6h0c1.7 0 2.9-1.3 3-2.8 0-.5-.1-1-.4-1.5l-99.3-192.9z"/><path class="st17" d="M240.1 771.6h12.4L145.2 967.5c-.5 1-1.6 1.6-2.6 1.6h0c-1.7 0-2.9-1.3-3-2.8 0-.5.1-1 .4-1.5"/><ellipse cx="229.5" cy="968.7" rx="136.5" ry="7.8"/><path class="st17" d="M335.1 504.6v79.6l-49.5-16.4v-42.3z"/><path class="st17" d="M168.6 508.2h117.3v72.6H168.6z"/><path class="st17" d="M235.6 580.7h21.5v9.7h-21.5zM158 508.2h45.6v72.6H158z"/><path class="st18" d="m479.9 847.2 26.8 121.1M423.7 847.2l-35.5 121.1"/><path class="st14" d="M706.4 854.2s13.9-47.3 33-55.6c19.1-8.4 23.7 7.3 12.7 27.8-7.5 14.3-14.1 29-19.9 44l-7.1 5.5 4.4 5s-1.7 17-11.2 17.8-18.2-15.4-18.2-15.4M697.7 752.9c11.4-19.1 8.8-49.2 18.4-58.6 12.8-12.6 24.8 1 23.1 18.7-1.8 17.7-7 34.1-15 50.4-2.6 2.4-5.4 4.6-8.2 6.8 1.5 1.6 3 2.8 4.6 4.4-1.5 6.6-2.7 17.1-10.6 18.8-7.9 1.7-15.4-6.4-19.1-12.4M479.5 847.2s-174.3 18.8 63.9 17.2c55.5-.4 65.9-17.2 65.9-17.2H479.5z"/><path class="st1" d="M435.9 688.6c-42.1 1.3-53.7-100.9-52.2-162.6-9-6.4-19.8-3.9-29.1-2.3-5.2 58-9 129.5 41.1 201.1 31.6 45.1 11.2-17.3 27.9-14.6"/><circle class="st14" cx="484.5" cy="637.4" r="4.6"/><path class="st18" d="m382.1 732.2 14 115h105"/><path class="st14" d="M396.1 847.2s8.4 16.5 63.9 16.5 65.9-16.5 65.9-16.5H396.1z"/><path class="st1" d="m453.8 816.9 118.4-78c6.5-4.3 14.3-6.1 22.1-5.2l103.1 12.4c8.9.5 14.7 8.7 13.1 17.4l-2.7 14.7c-1.4 7.4-8.7 12.5-16.1 12.1l-105.2-6.9-74.5 55.5"/><path class="st1" d="M461.9 866.9C502.3 872 587.4 808 587.4 808l104.3 80c5 3.6 16.9 3.1 21.2-1.3h0c11.8-11.9 11.7-31.1-.2-42.9-.6-.6-1.2-1.1-1.8-1.6l-102.4-87.7c-5.7-5-14-5.8-20.6-2.1l-93.6 51.2s-1.9 15.9-7.9 23.5-59.8 9.2-74 5.3c0 0 9.3 43.7 34.6 30.4.1 0 3.8 2.7 14.9 4.1z"/><path class="st1" d="M423.7 689.4c5.1-1.7 10.3-2.7 15.6-3.3 6.1-.7 12.4-1 18.6-1 33.4 0 39.2 33 43.3 64.8 7.3 56.8 7.3 75.3-8.7 86.2-10.3 7.1-70.3 8.5-80.1-3.7 0 0-14.2-45.1-16.8-93-.5-7.1 0-14.3 1.6-21.2"/><path class="st14" d="M519.6 798.4s-32.5 3.4-73.8 3.4c-26.4 0-55.8-3.4-55.8-3.4l-7.9-66.1c18 2.1 36.1 3.2 54.1 3.3 39.6 0 75.6-3.3 75.6-3.3l7.8 66.1z"/><path class="st18" d="m511.7 732.2 14.1 115h105"/><path class="st1" d="M362.1 476s1.4-8.2 2.6-14.7c2.4-13.4 12.2-5.9 10.6 2.6-.6 3.1-4.6 27.4-4.6 27.4"/><path class="st1" d="M375.1 497.6c4.9 0-1.8-10.8 6.9-10.2 6.8.5 11.8 15.5-6.6 25.8-4.6 2.5 1.2 8.9 1.2 8.9s-9.2 4.7-15.6 1.2l-1.1-5.2s-5.9-11-7.4-17.9c-2.6-13 7.7-11.7 9.5-24.3"/><path class="st1" d="m381.7 487.1-45.1-11 4.6-11.7 41.8 18.5z"/><path class="st1" d="M368.2 488s4.4-24.5 6.5-30.8c2.1-6.3 9.5-2.9 9.3 2.7-.1 3.2-8.9 37.7-8.9 37.7M522.9 677.9s-9.7-18.9 10.9-25.2c12.6-3.8 20 2.1 21.5 8.6 1.9 8.9 3.8 34.3 3.8 34.3s-1.2 11.6-19.1 9.6c-3-.3-5.5-2.1-6.9-4.9h0l-10.2-22.4z"/><path class="st1" d="M533.1 715.1s.4-4.8-2.5-6.8-7.7-11.9-1.2-14.3l6.3 9.6s1.8.2 4.3.1c8.9-.2 16.3-7.1 16.9-16 0-1.8.4-3.6 1.1-5.3 1.8-3.2 10.7 3.7 11.7 16.5s-15.2 24.9-15.2 24.9"/><path class="st1" d="M466.2 685.9c66.9-4.2 69.5 73.4 70 94.2 0 0-.1-5.7-1.6-21.3-1.3-14.1-4.4-23.1-4.4-23.1l2.8-20.4s31-2.6 30 11.1c-1.3 15.5-1.9 74.9-18.3 86.7-4.9 3.4-18.8 3.5-23.5-.9-24.7-22.6-35.5-94.5-35.5-94.5"/><path class="st10" d="m529.7 661.1-19.2-12c-4.8-3-10.7-3.4-15.8-1.2l-12 5.3"/><ellipse transform="rotate(-19.671 534.804 659.303)" cx="534.8" cy="659.3" rx="7.8" ry="2.1" style="stroke:#000;stroke-width:2.5998px;stroke-linecap:round;stroke-linejoin:round;stroke-miterlimit:3.9996"/><path class="st18" d="m539.4 847.2-24.2 121.1M609.1 847.2 636 968.3"/><path class="st1" d="M421.8 609.9s-18.9-56-20.5-73c-1.7-16.9 16-23.8 21.5-10.3 3.1 7.6 19.6 85 19.6 85"/><path class="st1" d="m423.7 689.4 3.1-14.2s-20.1-27.3-20-45.3c0-25.6 19.5-29.6 34.8-30.2s42.9 32.1 42.9 44.8c0 12.7-8.2 17.5-18.3 26.4-10.1 8.9 8.9 15.7 8.9 15.7s-17.6 11-51.4 2.8z"/><path class="st14" d="M402.8 612.3c0-3.5 8.2-17.8 15.8-22.1 17.7-10 57.4 6.2 59.8 12.5 4.9 12.5-32.2 2-44 6.8-9.8 4.1-31.7 14.1-31.6 2.8z"/><path class="st1" d="M436.6 613.6s-15.2-64.6-14.7-81.5 22.2-21.8 26-7.8c2.1 7.9 9.3 85.4 9.3 85.4"/><path class="st10" d="M522.9 677.9s10.8 1.5 20.4-3.4"/><path d="M550.7 670.2c2.3-1.5 4.2-3.6 5.2-6.1" style="fill:#387cdb;stroke:#000;stroke-width:2.6px;stroke-linecap:round;stroke-linejoin:round"/><path class="st1" d="m425.6 773.4-7.3 4.7.8-9.9-6.7-7 8.4-1.3 3.2-9 4.4 9 8.5 1.3-5.6 7 2.1 9.9z"/><ellipse cx="502.3" cy="968.5" rx="170.7" ry="8"/><ellipse transform="rotate(-74.55 339.086 470.162)" cx="339.1" cy="470.2" rx="5.8" ry="4.2" style="stroke:#000;stroke-width:2.6002px;stroke-linecap:round;stroke-linejoin:round;stroke-miterlimit:4.0002"/><path d="M593.9 806.5c9.1 5.3 17.9 11.1 26.6 17.1 4.4 2.9 8.6 6.1 12.8 9.1 4.3 3 8.4 6.3 12.5 9.4 4.2 3.1 8.3 6.4 12.4 9.7 4.1 3.3 8.2 6.6 12.2 10 8 6.8 15.9 13.7 23.3 21.2.1.1.1.2 0 .3-.1.1-.2.1-.3 0l-49.9-38.2-49.8-38.4c-.1-.1-.1-.2 0-.3.1.1.2 0 .2.1zM439.3 852.2c2.4 2.1 5.3 3.8 8.3 4.8 1.5.5 3 1 4.5 1.3.8.2 1.6.3 2.3.4.8.1 1.6.2 2.3.3 1.6.1 3.1.2 4.7.3h2.3l2.3-.1c3.1-.2 6.3-.5 9.4-1.1 1.6-.2 3.1-.5 4.8-.8 1.7-.3 3.1-.7 4.8-1.1 3.2-.7 6.3-1.6 9.4-2.3 6.3-1.7 12.6-3.6 19.3-5.2.1 0 .2 0 .2.1s0 .2-.1.2c-6 2.9-12.2 5.4-18.4 7.7-6.2 2.2-12.7 4-19.3 5.2-6.6 1.2-13.3 1.2-19.9.1-3.3-.6-6.5-1.7-9.5-3.2-3-1.5-5.6-3.7-7.7-6.4-.1-.1 0-.2 0-.3 0 0 .1 0 .3.1z"/><path d="M444.1 859.7c-1.2.8-2.5 1.4-3.9 1.7-1.4.3-2.7.3-4.1-.1-2.4-.6-4.6-1.8-6.4-3.4-1.8-1.5-3.3-3.1-4.7-5-1.4-1.8-2.6-3.6-3.7-5.5 1.5 1.7 2.9 3.3 4.6 4.8 1.6 1.5 3.3 2.7 5.3 3.8 1.7 1.1 3.6 1.7 5.5 1.8 1.7.1 3.3-.6 4.5-1.8 1-1 2.5-.9 3.4.1 1 1 .9 2.5-.1 3.5-.1-.1-.3 0-.4.1zM639.4 778.8l51.7 7.1-52.1-3.3z"/><path class="st1" d="M541.9 656.3c-.4 1.7-2 2.6-3.7 2.1-.9-.2-1.6-.8-1.9-1.6-2.6-5.2-5.5-12.4-5.5-18.8 0-11.6 5.4-6.6 5.4-6.6s.5-25.7 7.7-27.3c7.2-1.7 1.3 20.8 1.3 20.8s7-3.7 5.7 3.9c-.9 6.3-6.1 15.9-9 27.5z"/><path style="fill:none;stroke:#000;stroke-width:6px;stroke-linejoin:round" d="M246.6 703.1V582.7"/><ellipse cx="1046.5" cy="926.5" rx="278.5" ry="6.2"/><path d="M780.2 811.7c.5-1.4.8-2.5 1.3-3.7.5-1.2 1-2.2 1.6-3.3 1.1-2 2.3-4.1 3.7-5.9 2.7-3.6 5.8-6.9 9.4-9.7 1.8-1.4 3.5-2.8 5.6-3.5 1.2-.4 2.3-.6 3.5-.6 1.3 0 2.4-.1 3.7 0 2.3.1 4.7-.2 6.9-.9l6-2.6c8.3-3.7 16.8-6.7 25.6-9.1 4.7-1.3 9.3-2.1 14.1-2.6 5-.5 9.9-.5 14.9 0 10.1 1.1 19.9 4.6 28.5 10 8.6 5.4 16 12.3 22.3 20.3 5.6 7.5 10.4 15.7 14.2 24.3 3.7 8.2 6.6 16.3 9.2 24.1 2.6 7.8 5.2 15.4 7.8 22.4 1.4 3.5 2.7 6.8 4.3 9.9 1.4 2.9 3 5.6 4.9 8.3 1.6 2.2 3.3 4.2 5.3 5.9 1.8 1.6 3.9 2.7 6.1 3.6 2.5 1 5.1 1.6 7.8 1.8.7.1 1.5.1 2.2.2.8.1 1.5 0 2.1 0 1.3 0 2.6-.1 3.9-.4 2.4-.4 4.8-1.2 6.9-2.2 2.3-1.3 4.5-2.8 6.4-4.8 4.2-4.1 8.1-9.9 11.9-16.4 3.8-6.5 7.4-13.8 11.7-21.4 2.1-3.8 4.5-7.6 7.1-11.5 2.8-4.1 5.9-7.8 9.4-11.3 3.8-3.8 8.3-7 13-9.5 5-2.5 10.2-4.3 15.8-5.1 2.6-.4 5.3-.6 8-.5 1.3 0 2.6.1 3.9.1s2.6.2 4 .5c5.5.8 10.9 2.5 15.8 5.3 4.8 2.6 9 6 12.6 10 3.3 3.6 6.2 7.6 8.8 11.9 4.8 8.1 8.1 16 11.2 23.7 3.1 7.7 5.9 15 9 21.6s6.9 12.1 11.1 15.1c2 1.5 4.4 2.4 6.8 2.9.3.1.7.1 1 .2.3 0 .7.1 1 .1.7 0 1.4.1 2 .1 1.2 0 2.4-.1 3.6-.4 2.4-.6 4.7-1.8 6.5-3.5 2.4-2.1 4.6-4.7 6.3-7.4 4.1-5.9 7.8-13.1 12.4-20.4 2.3-3.8 4.9-7.5 7.7-11 3.1-3.8 6.7-7.2 10.7-9.9 4.3-2.9 9.1-5 14.2-5.9 2.4-.5 5-.8 7.5-.8h1.8c.7 0 1.5.1 2.1.1 4.4.4 8.6 1.9 12.2 4.4 2.1 1.5 4.2 3.2 5.9 5.2 3.1 3.5 5.7 7.4 8 11.5 4.2 7.8 7.2 15.5 10.3 22.9 1.6 3.7 3.1 7.3 4.9 10.6 1.5 3.1 3.4 6 5.6 8.7.9 1 1.9 1.8 3 2.4 1 .5 1.9.8 3 .8 2.2.1 5.3-1.1 8.2-3 3.1-2 5.9-4.4 8.6-7 2.7-2.6 5.3-5.5 7.9-8.6 1.8-2.1 5.1-2.3 7.2-.6 2 1.8 2.3 4.8.8 6.9-2.5 3.3-5.2 6.6-8.1 9.7-3 3.3-6.2 6.3-9.8 8.9-1.9 1.5-4.1 2.6-6.3 3.7-2.5 1.2-5.3 1.8-8 1.9-3 .1-6-.5-8.8-1.8-2.4-1.2-4.8-2.8-6.7-4.7-3.2-3.3-5.9-7.1-8.2-11.1-2.1-3.8-4-7.6-5.8-11.3-3.5-7.4-6.8-14.7-10.6-21.1-1.8-3-3.8-5.7-6.2-8.3-1.8-1.9-4.1-3.3-6.6-4-.6-.1-1.1-.2-1.7-.2h-.9l-1.2.1c-1.6.1-3.1.4-4.6.8-2.9.7-5.5 2-8 3.8-4.9 3.6-8.8 9.5-12.5 16.2-3.7 6.7-7 14.2-11.9 21.9-2.5 4.2-5.6 8-9 11.4-1.9 1.8-4.2 3.6-6.5 5.1-2.4 1.5-5.2 2.7-7.9 3.5s-5.5 1.3-8.4 1.5c-1.4.1-2.7.1-4.1 0-.7 0-1.4-.1-2-.1-.7 0-1.4-.1-2-.2-5.5-.8-10.9-2.7-15.7-5.8-4.4-2.9-8.3-6.5-11.5-10.7-2.9-3.7-5.4-7.7-7.7-11.8-4.3-7.9-7.5-15.6-10.8-22.9s-6.5-14.2-10.2-19.9c-1.8-2.7-3.7-5.3-5.9-7.5-1.8-1.9-4.1-3.6-6.5-4.8-2.3-1.1-4.8-1.8-7.3-2-2.8-.3-5.6-.2-8.4.3-5.3 1-9.4 3.4-13.6 7.8-4.2 4.4-7.8 10.3-11.4 16.9-3.6 6.6-6.9 14.1-11 21.7-2 3.8-4.3 7.8-6.8 11.7-2.7 4.2-5.8 8-9.2 11.6-3.8 4-8.1 7.3-12.8 10-5 2.8-10.3 4.8-15.9 5.8-2.7.5-5.4.9-8.2 1-1.4.1-2.7.1-4 .1-1.3 0-2.5 0-3.9-.1-5.4-.3-10.9-1.4-16-3.1-2.7-1-5.3-2.1-7.9-3.5s-4.9-3-7.1-4.8c-4.3-3.4-8.1-7.3-11.3-11.7-2.9-4-5.5-8.2-7.8-12.5-2.1-4.2-4-8.3-5.6-12.4-3.3-8.1-6-16-8.8-23.3s-5.4-14.6-8.6-21.1c-2.8-6.2-6.4-12.1-10.6-17.4-3.8-4.8-8.5-8.9-13.7-12.1-2.6-1.6-5.3-2.9-8.1-4.1-2.8-1.3-5.6-2.3-8.6-3.2-3-1-6.1-1.8-9.3-2.3-3.3-.6-6.7-.9-10.1-1-7.3-.1-14.5 1.2-21.3 3.6-1.8.6-3.5 1.3-5.2 2-1.8 1.1-3.2 2.5-4.1 4.3l-1.8 2.7c-.5.9-1.2 1.6-1.8 2.2-1.4 1.3-3.1 1.8-4.9 2.6-3.6 1.5-7.2 2.6-11 3.6-1.9.5-4 1-6 1.3-1.1.2-2.1.3-3.2.5-1.2.2-2.2.2-3.4.2l-1.8-.1c-3.9-.2-6.9-3.5-6.7-7.5.2-1 .3-1.7.6-2.3z"/><path d="M1325.8 901.5c-5.4.8-12.7-2.4-17.1-5.5 8.9.1 18.2-1.7 26.1-6.3-2.4 8.8-1.1 18.1 1.1 26.8-4.5-3.8-9.1-9.2-10.1-15z"/><path class="st11" d="M905.4 787c5.4 3.7 10.3 8.1 14.5 13.1 4.2 5.2 7.8 10.7 10.8 16.5 3 5.8 5.7 11.9 8 18s4.4 12.4 6.4 18.5 4 12.4 6.3 18.3c2.1 5.9 4.9 11.7 8.2 17.1 3.2 5.3 7.8 9.8 13.1 12.9 2.7 1.6 5.7 2.6 8.9 3.3.8.2 1.6.3 2.3.5l2.4.3 2.4.2 2.4.1c-3.2.5-6.5.5-9.8.2-6.7-.7-13.1-3.5-18.2-8-2.5-2.2-4.8-4.8-6.7-7.6-4-5.4-6.8-11.5-9.3-17.6-2.5-6.1-4.6-12.4-6.6-18.5s-4-12.4-6.1-18.4-4.5-12.1-7.1-17.9c-2.6-5.8-5.7-11.5-9.3-16.7-3.6-5.1-7.8-10-12.6-14.3zM1103.9 826.6c4.6 2 8.7 5 12.3 8.5 3.6 3.5 6.7 7.5 9.2 11.8 5.3 8.6 8.9 17.8 12.5 26.9 1.8 4.6 3.5 9 5.3 13.5 1.8 4.4 4 8.7 6.6 12.6 2.5 3.9 5.8 7.3 9.8 9.9l.8.5.8.4 1.6.8c1.1.5 2.2.9 3.3 1.4 1.1.5 2.3.7 3.5 1l3.6.7c-1.3 0-2.4.1-3.7.1s-2.5-.2-3.7-.4c-1.2-.3-2.4-.5-3.7-.9l-1.8-.7-.9-.3-.9-.4c-1.2-.6-2.2-1.2-3.3-1.8-.5-.4-1.1-.7-1.6-1.1l-1.5-1.3c-1.9-1.7-3.7-3.5-5.3-5.5-3.1-4-5.6-8.4-7.8-12.9-2.1-4.5-4-9.1-5.7-13.7-3.5-9.1-6.8-18.3-11.2-26.7-2.2-4.3-4.8-8.3-7.8-12.1-3-4.1-6.5-7.5-10.4-10.3z"/><path class="st23" d="M1306.4 848.4c0 3.6-29.5 6.5-65.9 6.5-36.5 0-65.9-2.9-65.9-6.5h131.8zM1295.8 848.4c0-29.9-24.7-54.1-55.3-54.1-30.6 0-55.2 24.2-55.2 54.1h110.5z"/><path class="st23" d="M1247.4 788.1c0 3.4-3.1 6.2-6.9 6.2s-6.9-2.8-6.9-6.2h13.8zM1150.9 814.9c0 3.6-29.5 6.5-65.9 6.5-36.5 0-65.9-2.9-65.9-6.5h131.8zM936 764.4c0 3.6-29.5 6.5-65.9 6.5-36.5 0-65.9-2.9-65.9-6.5H936z"/><path class="st24" d="m883.1 697.8 6.9-22.3M856.8 665.1l67.8 21.5-31.3-21.5z"/><path class="st23" d="M896 698.2c-.2-.1-.7-.3-1.2-.5 0-.1.1-.3.1-.4.9-3.1-.5-6.4-3.3-8-1.9-1.3-6.1-1.9-8.7-1-.1-.3-.3-.7-.5-1-.9-1.5-2.1-2.7-3.7-3.5-3.2-1.4-6.8-1.1-9.7.8-.6.4-3.1 2.4-2.8 2.4 0 0-3.1-1.7-4.2-2-3.5-1.4-7.4-.8-10.4 1.4-1.2.9-2.1 1.9-3 3.1-.4.5-.9 1.6-1.4 1.8-1 .6-.4.1-1.5.3-4.3.6-7.6-.1-10.5 3.6-1.5 1.9-1.3 5.9-2.8 7.3-3.7 3.2-1.2 7.8 2.7 8.9.4.9 1 1.8 1.8 2.3 3.2 2.6 8.5 2.3 12.5 1.9 2.2-.3 4.4-.5 6.3-.7 2.7.3 5.4.7 8.2.8 2.3.1 4.6.2 6.9.2 2.2.2 4.5.2 6.6 0 3.2-.1 6.3-.2 9.5-.4 1.9 0 3.8-1.1 4.9-2.8 1.1-.1 2.2-.4 3.2-.8 6.4-2.6 7.1-10.4 1-13.7z"/><path class="st23" d="M857.7 764.4c-37.9 0-42.2-10.2-44.7-27.2-2.4-16.7 15.4-33.9 15.4-33.9h75s9.4 15.2 10.1 38.1c14.1 12.7 7.6 21.5 0 17.3l1.9 5.6h-57.7l-.5-6.6s-7.8 4.6-12 1.2c-6.4-5.3 6.2-16.3 6.2-16.3"/><ellipse transform="rotate(-11.438 873.691 732.35)" class="st25" cx="873.7" cy="732.3" rx="6.8" ry="11.7"/><ellipse transform="rotate(-11.438 897.62 732.35)" class="st25" cx="897.6" cy="732.3" rx="6.8" ry="11.7"/><path style="stroke:#000;stroke-width:2.6px;stroke-linejoin:round" d="M885.3 752.7h9.9l-8-11.5z"/><path class="st24" d="m868.1 764.4-.7-6.7M875.5 764.4l-.6-6.7M882.9 764.4l-.6-6.7M890.4 764.4l-.8-6.7M897.8 764.4l-.7-6.7M905.2 764.4l-.7-6.7M845.7 703.3l-7.2-45.7c-.5-3.1-3.4-5.3-6.5-4.8-.2 0-.4.1-.7.1l-23 6.4"/><path class="st11" d="M871.1 722c1.2-.3 2.4 0 3.4.6 1.1.7 1.8 1.6 2.5 2.6 2.2 4.1 2.9 8.9 1.8 13.5-.3 1.2-1 2.3-1.8 3.1-.5.4-1.1.7-1.7.9-.6.1-1.2.1-1.8 0 .5-.1 1-.4 1.5-.7.4-.3.7-.7 1-1.1.5-.9.8-1.8.9-2.7.2-2 .1-4.1-.3-6.1-.2-2-.7-4.1-1.5-6-.5-1.7-1.8-3.5-4-4.1zM895.3 722c1.2-.3 2.4 0 3.4.6 1.1.7 1.8 1.6 2.5 2.6 2.2 4.1 2.9 8.9 1.8 13.5-.3 1.2-1 2.3-1.8 3.1-.5.4-1.1.7-1.7.9-.6.1-1.2.1-1.8 0 .5-.1 1-.4 1.5-.7.4-.3.7-.7 1-1.1.5-.9.8-1.8.9-2.7.2-2 .1-4.1-.3-6.1-.2-2-.7-4.1-1.5-6-.6-1.7-1.8-3.5-4-4.1z"/><path class="st23" d="M1100.6 746.9c-4.6 0-8.9 1.4-12.7 3.9-3.8-2.5-8.2-3.9-12.7-3.9-14.2 0-25.7 11.3-25.7 31.5s20.7 35 30.1 35c3.2-.1 6.2-1.6 8.4-3.9 2.1 2.3 5.2 3.8 8.4 3.9 9.3 0 30.1-14.8 30.1-35s-11.7-31.5-25.9-31.5z"/><path class="st23" d="M1092 726.8c-3.1 7.6-4.5 15.8-4.1 24 0 0-5.9-17.9-36.9-18.4 13.9 25.3 33.5 20.2 33.5 20.2"/><path d="M1090 805.3c1.8 1.2 4 1.6 6 1.2 1.9-.4 3.8-1.3 5.3-2.4.9-.6 1.7-1.3 2.4-1.9s1.6-1.5 2.3-2.1 1.6-1.7 2.3-2.4 1.6-1.7 2.2-2.4c1.5-1.6 2.8-3.2 4.1-5 .6-.8 1.2-1.7 1.8-2.5.5-.9 1-1.8 1.4-2.7.4-1 .8-1.9 1.1-2.9.3-1.1.6-2 .8-3.1.5-2.1.7-4.5 1.2-6.9l.4-.1c.4 2.3.6 4.7.7 7 0 2.3-.3 4.7-1 7-1.4 4.6-4.2 8.5-7.4 11.9-1.6 1.8-3.3 3.3-5.1 4.9-1.8 1.6-3.7 3-5.7 4.1-2 1.2-4.4 1.8-6.8 1.8-2.4 0-4.8-1.2-6.3-3l.3-.5z"/><path class="st2" d="M1369.4 221.6s4.1-23.7 4.1-31.5-12-4.4-12.9-14.2c-1-9.8 13.8-20.5 20.8-4 0 0 17-8.4 15.5 5.3-1.6 13.6-12.1 3.9-12.3 20.4-.2 16.5.4 22.8.4 22.8"/><path class="st27" d="M1377.2 84.9c4.1 0 7.4 3.3 7.4 7.4 0 4.1-3.3 7.4-7.4 7.4s-7.4-3.3-7.4-7.4h0"/><path d="M1378.9 99.7c0 2.6.1 5.3.2 8 0 1.4.2 2.6.2 4l.1 1.9.1 1v.5c0 .1 0 .2.1.4.2 1.8 1.7 3.3 3.6 5.1 1.1 1 2 1.9 3 3 .6.6 1.1 1.3 1.6 1.9.5.8.9 1.6 1.3 2.4s.7 1.8.9 2.7c.2.9.3 1.8.3 2.7 0 1.9-.3 3.8-1.1 5.6-.8 1.9-2 3.7-3.7 5-1.7 1.4-3.6 2.2-5.7 2.5-2 .3-4.1.1-6-.7-1.8-.7-3.4-1.9-4.5-3.5-1.1-1.4-1.7-3-1.8-4.8-.2-1.6 0-3.1.6-4.6.9 1.1 1.8 2 2.8 3 .8.7 1.8 1.3 2.7 1.7 1.4.5 2.9.5 4.3-.1 1.1-.5 1.8-1.3 2.3-2.3.3-.7.5-1.4.7-2.1.1-.5.1-.8.1-1.2v-1.2c-.1-1.7-1.2-3.6-2.7-5.9-.8-1.3-1.6-2.5-2.2-3.9-.8-1.6-1.2-3.2-1.2-5v-1.1l.1-1 .1-1.9c.1-1.4.2-2.6.2-4 .1-2.6.2-5.3.2-8 .1-1 .9-1.7 1.8-1.6.8-.1 1.5.6 1.6 1.5z"/><path class="st1" d="M1354.7 306.9c22.2 6.3 23.6 46 43 55.7 9.5 4.9 16 .2 20-5.7 2.1-4.7 3.5-9.7 3.9-14.9 3.8-38.5-21.4-71.5-28.7-96.4-7.9-26.8-7.9-26.8-9.5-25.5-4.9.6-11.1 2.8-12.5.4-.3-.6-1-.8-1.6-.5-.3.2-.5.4-.6.8-2.3 8.4-8.2 27.5-16.5 39.5-7.4 10.5-18.7 32.7-20.3 53.5 3.1-5.2 9.7-10.6 22.8-6.9z"/><path class="st14" d="M1397.7 362.6c-19.4-9.7-20.8-49.5-43-55.7-13.1-3.7-19.6 1.8-22.8 6.8-.8 10.1.7 19.9 6 28 16.4 24.4 44.1 28.7 44.1 28.7s25.3 7.2 35.6-13.4c-4 5.8-10.4 10.5-19.9 5.6z"/><ellipse transform="rotate(-53.209 1360.309 351.51)" cx="1360.3" cy="351.5" rx="3.6" ry="12.1" style="fill:#fff;stroke:#000;stroke-width:2.6px;stroke-linecap:round;stroke-linejoin:round;stroke-miterlimit:3.9998"/><path d="M1406.7 357.4c1.1-.6 1.9-1.4 2.7-2.2s1.5-1.8 2-2.8c1.1-1.9 1.8-4.1 2.1-6.3s.4-4.6.3-6.8c0-1.2-.2-2.3-.2-3.5l-.4-3.5c-1.3-9.4-3.5-18.8-6.5-27.8-1.5-4.6-3.2-9.1-4.9-13.6l-5.2-13.7c-1.8-4.6-3.4-9.1-5-13.9-1.7-4.7-2.7-9.5-3.5-14.5l.4-.1c1.3 4.7 2.9 9.3 4.9 13.8 1.8 4.5 3.9 8.9 5.8 13.5 4 8.9 7.8 18 11 27.3s5.3 19 6.2 28.7c.3 4.9.6 9.9-.8 14.7-.6 2.4-1.8 4.7-3.2 6.6-1.5 2-3.5 3.6-5.8 4.5l.1-.4z"/><path class="st10" d="m1372.9 196.9 11.6 6-5.9-64.7-3.9 25.8M1377.2 90.4c-6.9-2.6-12.8-5.8-.5-10.9V1"/><path class="st1" d="M1445.1 119.6c5.4-6.1 16.2 2.6 10.8 10-5.2 7-7.6 18.5-6.4 27.2 1.2 8.8-12.2 12.6-13.9 4.5-3.2-14.6-.5-30.5 9.5-41.7z"/><path class="st1" d="M1437 169.8c3.8-7.9 17.1-2.9 13.6 6.2-3.3 8.7-1.7 19.7 3.2 27.5s-6.2 17.4-11.5 10.4c-9.5-12.6-12.3-29.6-5.3-44.1z"/><path class="st27" d="M1455.3 64.7c4.1 0 7.4 3.3 7.4 7.4 0 4.1-3.3 7.4-7.4 7.4s-7.4-3.3-7.4-7.4h0"/><path d="M1457 79.5c0 2.6.1 5.3.2 8 0 1.4.2 2.6.2 4l.1 2 .1 1v.5c0 .1 0 .2.1.4.2 1.8 1.7 3.3 3.6 5.1 1.1 1 2 1.9 3 3 .6.6 1.1 1.3 1.6 1.9.5.8.9 1.6 1.3 2.4s.7 1.8.9 2.7c.2.9.3 1.8.3 2.7 0 1.9-.3 3.8-1.1 5.6-.8 1.9-2 3.7-3.7 5-1.7 1.4-3.6 2.2-5.7 2.5-2 .3-4.1.1-6-.7-1.8-.7-3.3-1.9-4.5-3.5-1.1-1.4-1.7-3-1.8-4.8-.2-1.6 0-3.1.6-4.6.9 1.1 1.8 2 2.8 3 .8.7 1.8 1.3 2.7 1.7 1.4.5 2.9.5 4.3-.1 1.1-.5 1.8-1.3 2.3-2.3.3-.7.6-1.4.7-2.1.1-.5.1-.8.1-1.2 0-.4 0-.8-.1-1.2-.1-1.7-1.2-3.6-2.7-5.9-.9-1.3-1.6-2.5-2.2-3.9-.8-1.6-1.2-3.2-1.2-5v-1.5l.1-1 .1-2c.1-1.4.2-2.6.2-4 .1-2.6.2-5.3.2-8 .1-1 .9-1.7 1.8-1.6.9.3 1.6 1 1.7 1.9z"/><path class="st1" d="M1466.3 111.6c-9-4.3-15.9 9.6-6.8 13.9 8.6 4.1 13.4 14.8 9.8 23.8-3.7 9.2 10.1 16 13.9 6.8 6.7-16.7-.4-36.6-16.9-44.5z"/><path class="st1" d="M1477.4 161.9c-6.1-7.3-16.8 2.1-11 10.4 5.5 7.9 7.6 19.1 3.3 27.9-4.3 8.9 6.7 17.7 11.9 9.3 9.2-15.1 7-34.2-4.2-47.6z"/><path class="st1" d="M1477 215.3c-3.8-8.2-16.3-1.6-12.9 8 3.2 9 2.8 22.3-.4 31.4-3.2 9.2 8.7 17.1 12.4 8.7 6.6-15.3 7.8-33.3.9-48.1z"/><path class="st1" d="M1481.1 265.4c-5.9-7.7-16.8.6-11.7 9.2 4.9 8.3 3.6 19.2-2.4 26.6-6 7.4 3 18.4 9.8 11.4 12.2-12.6 15.2-33 4.3-47.2z"/><path class="st1" d="M1479.5 317.3c-6.3-7.7-18.5 1.9-12.1 9.6 6 7.3 5.8 19.2-1.3 25.8-7.1 6.6 2.3 18.9 9.6 12.1 13.3-12.3 15.5-33.4 3.8-47.5z"/><path class="st1" d="M1479 369.1c-4.9-7.7-16.9-.1-12.2 9 4.5 8.7 4.5 20.8 1 30.1s8.6 17.4 12.5 9c7.4-15.2 7.6-33.9-1.3-48.1z"/><path class="st10" d="M1455.6 70.2c-6.9-2.6-12.8-5.8-.5-10.9V1"/><path class="st2" d="M159.3 214.1c-12.1 17.5-9.9 41.6 7.6 54.9 4.3 3.2 9 5.4 14.2 6.6-.1.1-.2.3-.3.4-12.1 17.5-9.9 41.6 7.6 54.9 16.3 12.4 42.8 9.8 54.9-7.6 1.3-1.8 2.3-3.7 3.3-5.6 2.2 3.2 5.1 6 8.2 8.4 16.3 12.4 42.8 9.9 54.9-7.6 11.9-17.1 10-40.7-6.6-54.1 11.3-17.4 8.9-40.9-8.3-53.8-7.9-5.7-17.6-8.5-27.3-7.6-2.5-6.8-6.9-12.8-12.7-17.1-16.3-12.4-42.8-9.9-54.9 7.6-1.3 1.8-2.4 3.8-3.4 5.8-14-2-29 2.9-37.2 14.8zM115.2.3c-.2 25.4 15.7 48.8 41.6 55-3.7 28.6 13.4 56.6 42.7 62.5 13.2 2.7 27.2-.1 38.9-7 7.3 7.1 16.4 11.9 26.4 13.9 27.9 5.7 59.7-13.3 64.3-42.5.5-3.1.8-6.2.8-9.3 18.5-5.9 34.3-21.1 37.4-41 1.8-10.9.4-21.9-3.5-31.5M347.4 405c-.5-9.7-7.9-18-18-18-2.4 0-4.9.6-7 1.6v-.2c-.4-9.7-7.9-18-18-18-9.4 0-18.4 8.3-18 18 0 1 .2 2 .4 3-1.8-.6-3.5-.8-5.3-.8-9.4 0-18.4 8.3-18 18 .4 9.5 7.6 17.6 17.4 18 .7 9.4 8.1 17.4 17.9 17.4 4.5-.1 8.8-1.8 12.1-4.9 2.8 1.8 6.1 2.7 9.4 2.7 9.4 0 18.4-8.3 18-18-.1-1.1-.2-2-.4-3.1 5.6-3 9.8-9 9.5-15.7z"/></g></g></svg>