<svg version="1.1" id="Layer_1" xmlns="http://www.w3.org/2000/svg" xmlns:xlink="http://www.w3.org/1999/xlink" x="0" y="0" width="901.5" height="851.8" style="enable-background:new 0 0 901.5 851.8" xml:space="preserve"><style>.st1{fill:#010101;stroke:#010101;stroke-width:2.1409px;stroke-miterlimit:10}.st2{fill:#fff;stroke:#010101;stroke-width:2.1409px;stroke-linecap:round;stroke-linejoin:round}.st3{fill:#fff;stroke:#010101;stroke-width:2.1409px;stroke-miterlimit:10}.st4{fill:none;stroke:#010101;stroke-width:2.1409px;stroke-miterlimit:10}.st5{fill:#010101;stroke:#010101;stroke-width:2.1409px;stroke-linecap:round;stroke-miterlimit:10}.st6{fill:none;stroke:#fff;stroke-width:1.6469px;stroke-linecap:round;stroke-miterlimit:10}.st7{fill:#010101;stroke:#010101;stroke-width:2.1409px;stroke-linecap:round;stroke-linejoin:round}.st8{fill:none;stroke:#fff;stroke-width:1.6469px;stroke-linecap:round;stroke-linejoin:round}.st9{fill:none;stroke:#010101;stroke-width:2.1409px;stroke-linecap:round;stroke-linejoin:round}.st10{fill:#fff}.st11{fill:#010101}.st12{fill:#fff;stroke:#010101;stroke-width:2.1409px;stroke-linecap:round;stroke-miterlimit:10}.st14{fill:#010101;stroke:#fff;stroke-width:2.1409px;stroke-linecap:round;stroke-linejoin:round}.st15{fill:none;stroke:#010101;stroke-width:4.9406px;stroke-linecap:round;stroke-linejoin:round}.st19{fill:#fff;stroke:#010101;stroke-width:2.1409px;stroke-linejoin:round}.st20{fill:none;stroke:#010101;stroke-width:2.1409px;stroke-linejoin:round}.st21{fill:#010101;stroke:#010101;stroke-width:2.1409px;stroke-linejoin:round}.st22{fill:none;stroke:#010101;stroke-width:4.1172px;stroke-linecap:round;stroke-linejoin:round}</style><defs><path id="SVGID_1_" d="M-1 .8h902.4v851H-1z"/></defs><clipPath id="SVGID_2_"><use xlink:href="#SVGID_1_" style="overflow:visible"/></clipPath><g id="Layer_2_2_" style="clip-path:url(#SVGID_2_)"><g id="Layer_1-2_1_"><path class="st1" d="M318.1 344.4H546v109.1H318.1z"/><path class="st2" d="M583.2 303.3h24.9v269.8h-24.9z"/><path class="st3" d="M284.4 303.1h302v269.8h-302z"/><path class="st4" d="m291 398.5 55.3-95.2M346.8 398.5l55.4-95.2M402.7 398.5l55.3-95.2M458.5 398.5l55.3-95.2M514.3 398.5l55.3-95.2M286.3 398.5H608"/><path class="st3" d="M415.3 398.5c0-17.9 8.2-33.3 20.2-40.5-3.7-1.8-7.8-2.7-11.9-2.7-18.9 0-34.1 19.4-34.1 43.2s15.3 43.2 34.1 43.2c4.1 0 8.2-.9 11.9-2.7-11.9-7.2-20.2-22.7-20.2-40.5z"/><path class="st1" d="M457.7 398.5c0-18.6-9.2-34.3-22.2-40.5-11.9 7.2-20.2 22.6-20.2 40.5 0 18 8.2 33.3 20.3 40.5 12.9-6.1 22.1-21.9 22.1-40.5z"/><path class="st3" d="M510 398.5c0-10.5 5-19.4 12.3-23.1-2.3-1.2-4.9-1.8-7.4-1.8-10.9 0-19.8 11.2-19.8 25s8.8 25 19.8 25c2.6 0 5.2-.7 7.4-1.8-7.2-3.8-12.3-12.8-12.3-23.3z"/><ellipse class="st1" cx="522.3" cy="398.5" rx="12.3" ry="23.1"/><path class="st3" d="M321.7 398.5c0-10.5 5-19.4 12.3-23.1-2.3-1.2-4.9-1.8-7.4-1.8-10.9 0-19.8 11.2-19.8 25s8.8 25 19.8 25c2.6 0 5.2-.7 7.4-1.8-7.3-3.8-12.3-12.8-12.3-23.3z"/><ellipse class="st1" cx="334" cy="398.5" rx="12.3" ry="23.1"/><path class="st3" d="M334.6 440.4c-3 3-7.2 2.8-7-1.5.6-11.1 6.6-26 .6-21.8-7.2 5-3.2 25.9-2.9 31.5.3 6.5-6.9 5.5-6.9 5.5s-.1.7-2.6 2c-2.2 1.3-6.2 1.6-10.3-2.6-1.3 1.3-7.6 1.8-9.5-5.6-9-.9-7.1-16.5-3.4-35 3.2-16.1 15.4-22.3 23.5-23.7 8.5-1.6 17.2-1.7 25.8-.7 4.9 12.9 0 44.6-7.3 51.9z"/><path class="st3" d="M318.3 454.2s-7.2-1.5-3.9-28.5M305.5 453.6c-2.7-8.6-1.1-29-1.1-29M296.1 448.1s-1.3-16.5.6-24.2M588.2 392.5h19.6v12.6h-19.6zM454.7 416.3s-17.9-5.5-48.3 12.2c-27.7 16.1-58.7 13.2-59.9 1.6 32.7-22 17-76.8 19.3-86 2.2-9.1 14.4 19.5 14.4 19.5s9.6-.4 15.2-1.5c-.5-12.5-.5-34.7 7.1-20.3 1.3 2.4 4.6 13.8 5.7 15.9 6.8 14.4 23.9 20.7 38.3 14l3-1.5s14.8 18.4 5.2 46.1z"/><ellipse class="st1" cx="374.7" cy="395.7" rx="2.8" ry="5.8"/><ellipse class="st1" cx="389.9" cy="395.7" rx="2.8" ry="5.8"/><path class="st5" d="M381.4 397.9c0 5.9-3.5 7.2-3.5 7.2M397.1 397.9c0 5.9-3.5 7.2-3.5 7.2"/><path class="st6" d="M374.5 391.8s-1.5.6-1 6M389.6 391.5s-1.5.6-1 6"/><circle class="st1" cx="347.7" cy="428.5" r="4.4"/><path class="st1" d="M608.1 332.6s45.5 3.9 47.3 57.4-47.5 93.9-47.5 93.9l.2-151.3z"/><path class="st3" d="M657.5 523.1s9.5-.3 2.7 14.9c-6.3 14.3-21.7 12.8-27.4 21.7-4.5 7.1 0 13.2 16.6 13.2 18.5 0 25 .1 35.7-15.6 22.2-32.9 12.1-78.4-9.2-81.4-13.3-1.8-18.3 15.4-18.3 15.4l-7.4 2.2"/><ellipse transform="rotate(-12.683 655.99 507.37)" class="st3" cx="656" cy="507.3" rx="10.3" ry="21"/><path class="st1" d="M608 493s29.8-11 37.7-6.7c7.9 4.4 15.6 43 9.8 46.5S608 547.1 608 547.1V493z"/><path class="st3" d="M413.3 400c8.2-1.4 8.4 9.7 2.6 16.4-5.4 6.3-11.2 5.8-12.8 2.9-2.6-4.8 2.4-6.7 4.4-10.3 1.5-2.8 2-8.4 5.8-9zM494.7 395.7s-19.8 6.1-24.3 12.5c-4.4 6.4 13.3 2.6 13.3 2.6"/><path class="st3" d="M530.8 408.2s-3.2-1.2-8.4 6.3c-5 7.3.3 24 1.2 29.6 1.1 6.4-6.6 6.3-6.6 6.3s-.7 4.4-3.1 6.1c-2.2 1.5-6.3 2.3-11-1.5-1.2 1.5-7.7 2.6-10.5-4.6-9.5 0-9.5-13.2-9.5-31.9s16.1-26.3 24.3-28.4c14.8-4 22 1.5 22 1.5 7.3 6.9 1.6 16.6 1.6 16.6z"/><path class="st3" d="M517 450.4s-7.7.7-7.7-24.1M502.8 455c-3.8-8.2-4.2-28.7-4.2-28.7M492.3 450.4s-3-16.3-2-24.1M606.2 392.5c2.7 0 4.9 2.8 4.9 6.3s-2.2 6.3-4.9 6.3"/><path class="st3" d="M601.6 392.5c2.7 0 4.9 2.8 4.9 6.3s-2.2 6.3-4.9 6.3M593.7 392.5c2.7 0 4.9 2.8 4.9 6.3s-2.2 6.3-4.9 6.3M228 383s-16.9-2.7-29.1 6.2c-16.8 12.3-8 59.2 26.6 72.9 28.7 11.4 59 1.5 59 1.5v-16.4s-34.9 10.3-55.1-.5c-14.1-7.5-21.6-33.8-17.3-36.3 6.5-3.8 24.4-.4 72.5 19.4l-.2-74.9c-37.9-16.6-52 21.5-52 21.5"/><path class="st3" d="M203.9 343.1s7.6 28.2 19 38.2c11.4 10 10.5-5.5 10.5-5.5s-13.7-5.8-13.5-25"/><path class="st3" d="M196.6 318c2.1 25.8 12.8 47.7 25.6 46.6 12.8-1.1 23.1-24.6 21-50.4-2.1-25.8-13.1-32.6-26-31.5-13 1-22.7 9.6-20.6 35.3z"/><ellipse transform="rotate(-8.622 241.18 313.897)" class="st7" cx="241.2" cy="313.9" rx="6.5" ry="9.4"/><ellipse transform="rotate(-8.557 222.155 315.417)" class="st7" cx="222.2" cy="315.4" rx="6.5" ry="9.4"/><path class="st8" d="m217.6 318.9 4.9-6.4.8 5.5 4.2-4.9M235.2 317l5.2-6.8.9 5.5 3.8-4.5"/><path class="st3" d="M232.9 329.7c5.1 5.6 10.8 8.7 12.8 7 2-1.7-.6-7.8-5.6-13.4-5-5.6-9.6-6.9-11.6-5.1-2 1.8-.7 5.9 4.4 11.5z"/><ellipse transform="matrix(.00716 -1 1 .00716 -78.923 514.83)" class="st2" cx="219.8" cy="297.2" rx="11" ry="70.7"/><path class="st2" d="M244.7 296.2s-7.1 4.6-28.6 4c-16.9-.5-21.9-4.9-21.9-4.9.2-13.9 9.8-25 23.6-26.6 16.7-1.9 27.2 13.6 26.9 27.5z"/><path class="st9" d="M210.1 333.2c8.4 4.8 18.6 5.2 27.3 1.1"/><path class="st10" d="M646.9 418.3c.5-8.3 1-16.4.6-24.5l-.2-3c0-.5 0-1-.1-1.5l-.2-1.5-.3-3-.5-2.9c-.6-3.9-1.6-7.6-2.8-11.3-2.4-7.3-6.3-14.1-11.4-19.8-5.4-5.9-11.9-10.7-19.1-14.2h-.1c-.1-.1-.2-.2-.1-.2 0-.1.1-.2.2-.1h.1c12.1 3.5 22.5 11.3 29.1 22 2.1 3.5 4 7.3 5.3 11.2.3 1 .7 2 1 3l.8 3 .6 3 .3 1.5c.1.5.2 1 .2 1.5l.4 3 .2 3.1c.2 2.1.1 4.2.1 6.2-.2 8.2-1.4 16.5-3.4 24.5 0 .1-.2.2-.2.2-.3.1-.4 0-.5-.2z"/><path class="st3" d="M337 322c-.9 0-1.8-.2-2.6-.7s-1.6-1-2.1-1.7c-.6-.7-.9-1.6-1.1-2.5-.2-1.4-.2-2.6-.4-3.8-.2-1.1-.2-2.2-.2-3.3 0-1.1-.1-2.1-.1-3v-3c0-1.1.1-2.1.2-3.3.1-1.2.2-2.4.3-3.8.1-.9.4-1.7 1-2.5.6-.7 1.2-1.3 2.1-1.7s1.7-.7 2.6-.7c1.8-.1 3.6.6 4.9 1.8-.3 1-.5 2.1-.7 3.1-.2 1.4-.2 2.6-.3 3.8-.1 1.2-.2 2.2-.2 3.3 0 1.1-.1 2.1-.1 3 0 1 0 2 .1 3 .1 1.1.1 2.1.2 3.3.1 1.2.2 2.6.4 3.8.2 1.2-.2 2.6-1 3.5-.6 1-1.8 1.5-3 1.4z"/><path class="st3" d="M347.6 323.5c-1 0-2-.2-2.8-.7-.8-.5-1.6-1.1-2.2-1.8-.6-.8-1-1.7-1.2-2.6-.2-1.5-.3-3-.5-4.3-.2-1.3-.2-2.6-.2-3.8-.1-1.2-.1-2.3-.1-3.5s0-2.3.1-3.5c.1-1.2.2-2.4.2-3.8.1-1.4.2-2.7.5-4.3.2-1 .6-1.9 1.2-2.6.6-.8 1.3-1.4 2.2-1.8.8-.5 1.8-.7 2.8-.7 3.7 0 5.9.9 6.8 1.8 0 0-2.1 2-2.3 3.5s-.3 2.9-.5 4.3-.2 2.6-.2 3.8c-.1 1.2-.1 2.3-.1 3.5 0 1.2 0 2.3.1 3.5.1 1.2.2 2.4.2 3.8.1 1.4.2 2.7.5 4.3.2 1.3-.2 2.6-1 3.7-1 .7-2.2 1.2-3.5 1.2z"/><path class="st3" d="M358 323.5c-1 0-1.9-.2-2.7-.7-.8-.5-1.6-1.1-2.1-1.8-.6-.8-1-1.7-1.2-2.6-.2-1.5-.3-2.9-.5-4.2-.2-1.3-.2-2.5-.2-3.7-.1-1.2-.1-2.3-.1-3.5s0-2.2.1-3.5c.1-1.2.1-2.4.2-3.7s.2-2.6.4-4.2c.2-1 .5-1.8 1.1-2.6.6-.7 1.3-1.4 2.1-1.8.8-.5 1.7-.7 2.7-.7 5.4 0 6.6 2.1 7.3 3.1-2.1 1.4-3.3 3.7-3.4 6.2 0 1.3-.2 2.5-.2 3.7s-.1 2.3-.1 3.5c0 1.2 0 2.2.1 3.5.1 1.2.2 2.4.2 3.7.1 1.3.2 2.6.5 4.2.2 1.3-.2 2.6-1 3.7-.6.9-1.9 1.4-3.2 1.4z"/><path class="st3" d="M367.3 322c-1.2 0-2.4-.5-3.4-1.3s-1.6-1.9-1.7-3.1c-.2-1.5-.3-3-.4-4.3-.1-1.3-.2-2.5-.2-3.7 0-1.2-.1-2.3 0-3.5.1-1.2 0-2.4.1-3.7.1-1.3.2-2.7.3-4.3.2-1.2.7-2.3 1.6-3.1.9-.8 2.1-1.3 3.4-1.3 4.9 0 9.4 4.2 10.1 9.6h-6.8c-.1 1.3.3 8.8.4 10.1.1 1.3.2 2.7.4 4.3.2 1.2-.2 2.2-.9 3.1-.6.9-1.7 1.3-2.9 1.2zM330.5 300.8s-7.9-11.6-12.9-7.2c-4 3.5 2 9.7 2 9.7h10.8l.1-2.5z"/><ellipse class="st3" cx="588.2" cy="398.8" rx="4.9" ry="6.3"/><ellipse class="st3" cx="588.2" cy="398.8" rx="1.5" ry="1.9"/><path class="st3" d="M653.5 546.8s7.9-1.6 15.1 2.7M660.2 538s8.6-2.6 14.7 1.9M662.6 529.9c5.4-2 11.3-2 16.6 0"/><path class="st11" d="M223.5 405.3c2.7.1 5.4.4 8 1 1.3.2 2.6.5 4 .8 1.3.3 2.6.6 4 .9 5.2 1.3 10.3 2.8 15.5 4.4 2.6.8 5.1 1.6 7.6 2.6 2.5.9 5 1.7 7.6 2.7s5 1.8 7.5 2.9l7.4 3-1.3 3-7.3-3.4c-2.4-1.2-4.9-2.1-7.3-3.2-2.5-1.1-4.9-2.1-7.3-3.1-2.4-1.1-4.9-2-7.4-3-4.9-1.9-10-3.6-15.2-5.2l-3.9-1.2c-1.3-.3-2.6-.7-4-1-2.7-.5-5.3-.9-7.9-1.2z"/><path class="st4" d="M-141.5 722.2H1050"/><path class="st3" d="M48.5 585.2h880.4v136.9H48.5z"/><path class="st3" d="M755.3 608h139.4v12.3H755.3zM777.2 644.2h139.4v12.3H777.2zM799.1 680.5h139.4v12.3H799.1z"/><path class="st2" d="M803.9 608h139.4v12.3H803.9zM825.8 644.2h139.4v12.3H825.8zM847.7 680.5h139.4v12.3H847.7z"/><path class="st3" d="M.2 573H1002v12.2H.2z"/><path class="st2" d="M752.5 573h249.3v12.3H752.5z"/><path class="st10" d="M725.8 495.3 703 472.8l11.4-34.1 42.5-34.5L878 432l-4.4 51z"/><path class="st7" d="M879.8 464.5c4.3 44.5 6.9 98.7 9.6 143.4l-64.3.1c-18.9-.2 9.1-22.7 20.3-17-2.6-25.3-14.7-57.3-17-82.8-11.6 0-51.5-4-50.7 7.6 1.6 21.6 5 34.3 4.9 56.9l-56.2.1c-25.3 0 4.9-22.4 16.2-16.8-8.7-22.2-7.6-28.9-7.6-28.9"/><path class="st3" d="M855.2 470.4c3.2 9.6 3.2 28.1 3.2 28.1l26-.5.8 9.8-26.2 1s.3 37.3 7.7 58.1c-84.4-1-84.7-47.4-131.6-33.3-12.3-24.6-16.8-59.5 13.2-62.3"/><path class="st1" d="M788.4 467.8c1.5 2.2 2.9 4 4.4 6.5 12.8 8 37.2 21.1 42.5 32.9 5.2 11.8 22 4.6 23-4.1-26.1-18.8-44.9-31.3-62.7-44.6 3.2 2.3-4.8 6.2-7.2 9.3z"/><path class="st3" d="M731.4 415.4c-21.9 13.3-41.1 59-25.3 81.2 12.5 17.6 28.4 18.3 41.7 15.1 8.8-2.1 4.7-6.4 8.5-9.5 2.8-1.8 4.8-4.7 5.3-8 .2-2.3-.6-6.5-2.8-7.9 1.4-3.8 3.3-3.1.7-8.8-1.3-2.9-11.9-7.7-16.9-5.8-.8-3.2 1.5-3.2.1-6.8-1.5-3.6-15.2-.7-16.3 2.5M853.9 436.1l13.1 11.4c-18.1.6-35.3 14.2-44.2 14.9-7.2-5.7-13.1-5.5-22.8-1.6 0 0 4.2 3.3 7.2 5.8-5.1 4-7.7 15.6-15.7 8.1-1.2 3-1.5 6.3-1.2 9.5.2 2 1.9 2.6 2.5 4.3s0 4.6.8 5.8c1.6 2.6 3.5 4.8 5.8 6.8 1.6 1.5 4.4 1.8 6.8 3 1.6.9 2.7 2.6 4.9 3.3 8.2 2.6 16.1-4 26.3-5.4 29.4-4.1 76.6-7.6 82.3-51.6 6.4-49.3-75.6-69.5-93.7-67.4-45.3 5.4-67.9 9-94.4 32.7"/><ellipse transform="rotate(-8.441 743.49 470.084)" class="st3" cx="743.5" cy="470.1" rx="11.9" ry="6.2"/><path class="st3" d="M768.3 480.5c11.8-10 31.2-19.1 31.2-19.1l-134.4-99c9.5 26.6 24.4 52 45.2 70.2 19.5 17 36.9 30.9 58 47.9z"/><path class="st3" d="m747.3 468.4-24.2-133.6-3.6.7 19.1 135.2c3.6.2 6.9-.5 8.7-2.3z"/><path class="st2" d="M832.4 384.7c-6-22.2-18.5-65.9-18.5-65.9 12.7-4.2 21.5-11.8 16.6-26.2-3.5-10.3-15.2-13.1-24.8-8.6-1.6-8.2-7.7-14-16.5-14-17.5 0-24.5 16.3-24.5 16.3-14.2-6.8-26.3-4.7-32.5 3.9-4.9 6.8-.2 17.7 5.8 22.6-10.3 7.1-15.5 16-9.1 24.1 7.5 9.6 21.3 3.9 21.3 3.9 4.2 19 15 59 15 59 15.2 16.9 48.4-1.7 67.2-15.1z"/><path class="st4" d="M855.5 387.1c-21.9 7.3-25.1 37.9-9.1 59.2"/><path class="st3" d="M847.8 385.1c-16.1 4.5-24.6 20-24.9 37.9-17.9 6.3-54.4 7.3-70.3 3.9M764 397.4c-4.5 5.2-9.6 14.7-11.4 29.4"/><path class="st7" d="M770.2 357.6c1 3.8 2.6 10.8-2.6 11.8-5.1 1-6.9-6.2-7.7-10-.8-3.8-2.6-10.8 2.6-11.7 5-.9 6.7 6.1 7.7 9.9zM785.2 354.1c1 3.8 2.6 11-2.6 11.9-5.1.8-6.8-6.3-7.7-10-1-3.8-2.6-10.9 2.6-11.9s6.7 6.3 7.7 10z"/><path class="st2" d="M799.4 379.3c.9-1 1.6-2.1 2.1-3.4 1.4-3.5 1.2-6.6-2.1-8.8-3.5-2.5-6.7-1.1-9.5 1.9-2 2.1-4.1 4-7.5 4.9-2.8.7-6.3 2.1-6.6 5.7-.3 3.6 2.5 7.1 5.8 7.4 7.8.9 13.3-2.5 17.8-7.7z"/><path class="st2" d="M776.1 381.5c10.8 0 19.8-3.1 24-13.6-1.3-.7-2.6-1.4-3.9-2 .9 1.5 1.7 2.9 2.6 4.4l3.4 3c-.4-1.5-.8-3-1.2-4.4"/><path class="st3" d="M894.2 404.9s-21.8.4-34.1 36.6"/><path class="st4" d="M756.9 398s-11.4 11.5-11.4 23.5"/><path class="st2" d="M858.2 474.5s8.3-7.2 3.4-12.6-16.1 10.5-19.1 20.4c21.2 9.3 41.7-10.7 15.7-7.8z"/><path class="st9" d="m851 476.7-11.5-4.7M864.5 483.1l7.9 3.2"/><path class="st10" d="M742.7 559.2c-2.6.7-4.6 1.2-6.6 1.6-1.8.6-3.6 1.2-5.4 2-1.7.7-3.5 1.6-5.4 2.5-1.9.9-4 1.8-6.4 2.8h-.1c-.1 0-.2 0-.2-.1v-.2c1.3-1.9 3-3.6 4.7-5 1.8-1.5 3.8-2.7 5.9-3.7 2.1-.9 4.4-1.4 6.8-1.5 2.3-.1 4.6.3 6.8 1.2.1 0 .2.1.1.2v.1c-.1 0-.2 0-.2.1zM846.5 594.5c-2.6.7-4.6 1.2-6.6 1.6-1.8.5-3.6 1.2-5.4 2l-5.4 2.5c-1.9.9-4 1.8-6.4 2.8l-.1.1c-.1 0-.2 0-.2-.1v-.2c1.3-1.9 3-3.6 4.7-5 1.8-1.5 3.8-2.7 5.9-3.7 2.1-.9 4.4-1.4 6.8-1.5 2.3-.1 4.6.3 6.8 1.2.1 0 .2.1.1.2v.1h-.2zM885.9 603.4c-1.8-7.5-3.2-15.2-4.1-22.8-1-7.6-1.7-15.3-2.2-23-.5-7.7-.7-15.4-.7-23.1-.1-7.7.3-15.5 1.2-23.2 0-.1.1-.2.2-.2s.2.1.2.2l.8 11.5.8 11.5 1.5 23.1 1.5 23.1.7 11.5.7 11.5c0 .1-.1.2-.2.2-.2 0-.3-.1-.4-.3z"/><ellipse transform="rotate(-21.612 846.567 506.015)" class="st3" cx="846.6" cy="506" rx="4" ry="3.5"/><path class="st11" d="m810.9 322.1 8.6 30.8 8.3 30.8-.3.1c-2.4-4.9-4.5-9.8-6.3-14.9-1-2.5-1.6-5-2.6-7.6-.9-2.6-1.5-5.1-2.2-7.7s-1.4-5.1-2-7.7-1.2-5.2-1.6-7.8c-1.1-5.3-1.9-10.6-2.2-16h.3z"/><path class="st2" d="M1055.1 431.4s7.3-5.1 10.8 1.3c3.5 6.4-6.1 13.1-10.3 13.5"/><ellipse class="st11" cx="929" cy="780.3" rx="81.7" ry="5.4"/><path class="st2" d="M912.4 748.4c2.1 8.3 4.3 32 4.3 32h4.9v-7.3"/><path class="st7" d="M962.3 549.5c-.7 0-1.5-.1-2.2-.2-11.2-1.2-21-9.2-17.6-20 10.6-34.3 6.3-50.4-.4-54.3l51.3 18.4.1-.1c-6.3 12-10.4 25.1-11.9 38.6-1.2 10.4-9 17.6-19.3 17.6z"/><path class="st11" d="M950.4 427.9c-.6.7-1.2 1.2-1.7 1.8s-1.2 1.1-1.9 1.5c-1.2.9-2.6 1.6-4 2.3-1.3.7-2.7 1.2-4.1 1.6l-4.1 1.5c-2.7 1-5.4 1.9-8.2 3-2.7 1.1-5.4 2-7.9 3-2.6 1-5 2.1-7.4 3.5-2.2 1.2-4.4 2.6-6.3 4.3-1.6 1.2-2.9 2.9-3.8 4.6l-.2.6-.2.5c-.1.2-.1.5-.2.7 0 .1.1 0 0-.3-.1-.5-.2-.9-.5-1.3-.2-.3-.4-.6-.7-.8-.1-.1 0 0 .2 0 .8.2 1.6.4 2.5.5 2.6.2 5.2.3 7.7.2 2.8-.1 5.8-.2 8.8-.4l9.3-.7c6.3-.3 12.9-.8 20.3-.2 4.2.3 8.4 1.3 12.4 2.9 2.6 1.1 5 2.6 7.2 4.4 2.5 2.1 4.5 4.8 6 7.7 2.6 6.7-.7 14.2-7.4 16.9-6.4 2.5-13.7-.4-16.6-6.7.2.2.6.4.7.3.2-.1 0-.4-.5-.7-1.6-1.1-3.4-1.7-5.3-2.1-2.6-.6-5.2-1-7.7-1.3-2.8-.3-5.7-.5-8.6-.6l-9.1-.2c-3.1-.1-6.3-.1-9.6-.3-3.5-.2-7.1-.6-10.5-1.2-2.2-.4-4.4-1.1-6.4-1.9-1.3-.6-2.6-1.3-3.8-2.2-1.5-1.1-2.8-2.5-3.8-4.1-1.1-1.7-1.7-3.6-2.1-5.6-.2-1.6-.2-3.3 0-4.9.2-1.2.6-2.6 1-3.8.2-.6.4-1.2.7-1.6.2-.6.5-1.1.7-1.6 1.9-3.7 4.4-7 7.5-9.8 2.6-2.5 5.4-4.8 8.4-6.9 2.8-2 5.7-3.8 8.7-5.4 5.8-3.2 11.9-5.8 18.1-7.7 1.5-.5 3.1-1 4.6-1.4 1.6-.5 3.1-.8 4.7-1 1.6-.2 3.3-.2 4.9-.1.9.1 1.7.2 2.6.4.9.2 1.9.4 2.7.8 3.6 1.3 5.5 5.3 4.4 8.9-.2.7-.6 1.3-1 1.9l-.5 1z"/><path class="st11" d="M1049.4 462.7c.8 1.3 1.6 2.7 2 4.2.4 1.3.7 2.7.8 4.1.2 1.3.2 2.6 0 4-.1 1.4-.2 2.6-.4 4-.7 5.4-1.6 10.6-2.9 15.8-1.3 5.3-2.8 10.5-4.6 16.1-.5 1.5-1 2.8-1.6 4.4-.7 1.7-1.6 3.5-2.6 5l-.5.7-.5.7c-.3.4-.7.9-1.2 1.4-.4.5-1 1-1.5 1.5-.7.6-1.4 1.1-2.1 1.5-1 .6-2.1 1-3.1 1.2-1.2.3-2.6.4-3.9.3-1.2-.1-2.3-.3-3.5-.8-.9-.3-1.7-.7-2.6-1.3-1.2-.7-2.1-1.6-3-2.6-.7-.7-1.3-1.4-1.9-2.2-1.2-1.5-1.9-2.7-2.7-4-1.6-2.5-3-4.7-4.3-7-1.3-2.3-2.6-4.3-4-6.3-1.3-1.8-2.6-3.7-4.1-5.4-2.8-3.3-5.8-5.6-8.4-6.6-1.2-.4-2.4-.6-3.6-.5-1.3.1-2.6.4-3.7 1-6.8 2.9-14.5-.2-17.4-7s.2-14.5 7-17.4c.1 0 .2-.1.2-.1 1.2-.5 2.4-.8 3.7-1l1.7-.2c4-.4 7.9-.2 11.8.5 3.9.7 7.7 2.2 11 4.4 3 1.9 5.8 4.2 8.3 6.8 2.1 2.4 4.1 4.9 5.9 7.5 1.6 2.5 3.1 4.9 4.4 7.6 1.4 2.5 2.6 4.9 3.7 7.3s2.2 4.6 3.3 6.7c.6 1 1.1 1.9 1.5 2.6.2.3.4.7.6.8s.2.2-.2 0c-.7-.4-1.6-.7-2.4-.7-.7-.1-1.3 0-1.9.2-.5.1-.9.3-1.3.6-.2.1-.4.2-.6.4-.1.1-.1.2-.1.1l.2-.2.2-.2v-.1c.4-.6.7-1.2 1-1.9.4-1 .7-2 1-3 .7-2.2 1.2-4.5 1.5-6.9.4-2.4.7-4.9 1-7.3.5-4.9 1.1-10 1.7-15 .2-1.3.4-2.5.7-3.8.4-2.6 1.2-5.1 2.5-7.4.7-1.3 1.6-2.5 2.7-3.5l.3-.3c3.1-2.9 7.9-2.7 10.8.4l.1.1c.5.1.7.5 1 .8z"/><path class="st3" d="M1036.9 464.9c-3-4.6-5-9.8-6.1-15.2-1.7-9 7.2-15.2 8-11.2.8 4 8.1 22.6 8.1 22.6l-10 3.8z"/><path class="st2" d="M955.6 748.4c2.1 8.3 4.3 32 4.3 32h4.9v-15.1"/><path class="st2" d="M958.7 732.7c-2.9 4.7-4 10.3-3.2 15.8 1.5 9.1 19.4 33.7 31 33.7h8.4c1.6 0 3-1 3.7-2.5 1.8-4.4-1.4-12.8-8.6-13.2-4.3-11.6-10.5-18-14.3-26.1"/><path class="st2" d="m941.2 571.2 17 77.2s-17 31.7 4 79.8c-10 10.1.2 19.1.2 19.1s27.1 27.6 23.1 9.7c-4.6-7.7-7.2-16.4-7.8-25.4-3.6-47 9.3-123.9 9.3-123.9l-45.8-36.5zM916.2 732.7c-3.2 4.6-4.4 10.3-3.5 15.8 1.6 9.1 10 33.7 22.8 33.7h9.3c1.7 0 3.3-1 4.1-2.5 2.1-4.4.3-9.9-4.4-13.2-2.2-9.1-8.6-18.7-9.6-26.1"/><path class="st2" d="m918.1 607.7 3.6 40.8s-17.6 26.3-2.4 77.6c-6.6 11-1.2 16.4.2 19.4 4 8.7 19.8 25 17.9 11-7.3-50.6 25.2-185.3 25.2-185.3l-44.5 36.5z"/><path class="st3" d="M942.7 529.1s-38.3 24.2-24.7 78.6h68.8s8.3-38.7-5.3-74.1c-23.2 5.3-38.8-4.5-38.8-4.5z"/><path class="st2" d="M944.6 766.5s-9-2.5-15.4 1.5"/><ellipse transform="rotate(-78.463 976.76 483.413)" class="st7" cx="976.8" cy="483.4" rx="19.9" ry="29.7"/><path class="st3" d="m968.8 463.4 18.1-24.9 12.3 3.5-9.7 28.2s30.3 23.1-6.3 17.9c-38.6-5.4-14.4-24.7-14.4-24.7z"/><ellipse transform="rotate(-82.351 995.197 431.898)" class="st3" cx="995.2" cy="431.9" rx="22" ry="32.4"/><path class="st3" d="M1021.7 436.6c-2.3 6.3-9.5 9.6-15 7.6-5.5-2.1-7.4-8.6-5.1-14.9 2.3-6.3 8-10.2 13.5-8.1 5.5 2.1 9 9.1 6.6 15.4z"/><path class="st3" d="M1004.3 430.3c-2.3 6.4-9.5 9.6-15 7.6s-7.4-8.6-5.1-14.9c2.3-6.3 8-10.2 13.5-8.1 5.6 2.1 9 9 6.6 15.4z"/><path class="st12" d="M989.4 487.9s-1.2-5.8-4.5-9.8M1005.2 411.7s15.5-26.6 29-38c.9-.7 2.1-.2 1.8.9l-13.4 48.8M972.3 415.4c3-4 9.4-24.5 35.6-48.6.9-.8 2.1-.2 1.8.9l-12.3 44"/><path class="st2" d="M965.1 428.4c-2.3 1.9-4.9 3.5-7.7 4.4-8 3.1-20.3-.8-20.8-7.8-.4-6 5.4-22.6 44.6-21 5.7.2 4.7 6.2.6 5.8-5.4-.5-12.1 2.2-12.1 2.2"/><path class="st2" d="M965.1 409.5s8.6.7 9.9 7.6c1.3 7-4.7 8.7-4.7 8.7"/><path class="st2" d="M961.9 427s4.9 6.8 8.2 1.2c3.3-5.6.6-14.2-6.6-13"/><path class="st2" d="M962.6 422.8s5.8.2 4.6 6.9c-1.3 6.9-7.4 5.4-6.4 2.6 1.4-4-1.7-2.9-1.7-2.9"/><path class="st7" d="M1001.8 440.6c-.4 1.2-3.6 2.6-4.3 2.5-.7-.2-2.5-3.3-2.1-4.4.4-1.2 1.9-1.2 3.7-.6 1.8.6 3 1.3 2.7 2.5z"/><path class="st9" d="M987.1 442c3 .9 5 2.9 4.6 4.4"/><path class="st2" d="M1042.8 456c5.7-4.4 10.7-5.4 16.5-15.5 2.8-4.9 6.6-2.9 6.6 3.1 0 11.4-11.7 22.1-20.3 23.4-3.5.5-7.8-1.3-7.5-4.8"/><path class="st5" d="M1000.1 427.8c-.5 2.2-1.5 4.3-3 6-1.2-4.4-.2-9.2 2.7-12.8.7 2.3.8 4.6.3 6.8zM1017.9 434.1c-.5 2.2-1.5 4.3-3 6-1.2-4.4-.2-9.2 2.7-12.8.7 2.3.8 4.6.3 6.8z"/><path d="M998.1 410.2c5.9.8 11.4 2.6 18.4 7.2" style="fill:none;stroke:#010101;stroke-width:2.1409px;stroke-linecap:round;stroke-miterlimit:10"/><path class="st3" d="M1030.7 443c7.2-9.8 11.7-20.9 14.7-31.5 3.1-10.8 14.7-4.9 12.6 4.5-2.6 11.6-10.7 29-19 37.1-6.7 6.7-13.9-2.4-8.3-10.1z"/><path class="st2" d="M1028.7 452.7c10.4-12.9 19.7-32.9 23.1-48.7 1.4-6.3 10.8-4.3 9.5 1.9-3.7 16.8-14.7 39.7-25.5 53.4-4.1 4.8-11.1-1.7-7.1-6.6z"/><path class="st3" d="M1037.5 448.4c6-7.1 13.3-23.6 16.1-32.8 3.7-12.9 14.7-7.9 13.3 1.7-1.6 11.9-11.3 31.3-18.9 40.2-6.2 7.3-16.7-1.9-10.5-9.1z"/><path class="st2" d="M990 766.5c-5.1.4-6.8 1.5-6.8 1.5"/><path class="st11" d="M978.8 539.1c1.8 5.1 3.1 10.3 4 15.6 1 5.3 1.6 10.6 2 16.1.1 1.4.1 2.6.2 4l.1 2v6l-.2 4-.1 2c-.1.7-.1 1.4-.2 2l-.3 4c-.2 2.6-.7 5.4-1 8h-.3c-.3-2.7-.3-5.4-.5-8.1l-.2-4v-2l-.1-2c-.1-1.4-.2-2.6-.2-4l-.2-4c-.1-.7 0-1.3-.1-2l-.1-2-.2-4-.2-4c-.1-1.3-.2-2.6-.3-4-.1-1.3-.2-2.6-.3-4l-.3-4c-.6-5.3-1.2-10.5-1.8-16l.3.4z"/><ellipse class="st14" cx="-94.9" cy="390.2" rx="24.6" ry="31"/><ellipse class="st14" cx="-36.1" cy="377" rx="35.1" ry="44.4"/><ellipse class="st14" cx="-83.8" cy="390.2" rx="24.6" ry="31"/><ellipse class="st14" cx="-25" cy="377" rx="35.1" ry="44.4"/><path class="st14" d="M-67.9 383.1c3 11.8-1.7 24.5-10.5 28.4l-3.2-12.6c-1.2-4.8.7-10 4.4-11.6l9.3-4.2z"/><path class="st14" d="M-89.2 369c8.8-4 18.4 2.3 21.3 14.1l-9.5 4.3c-3.6 1.6-7.4-1-8.6-5.8l-3.2-12.6z"/><path class="st14" d="m-89.2 369 3.2 12.6c1.2 4.8-.7 10-4.4 11.6l-9.5 4.3c-2.7-11.8 2-24.5 10.7-28.5zM-78.5 411.6c-8.8 4-18.4-2.3-21.3-14.1l9.5-4.3c3.6-1.6 7.4 1 8.6 5.8l3.2 12.6zM-50.6 389.8c5.4 18.4 21.3 27.7 35.5 20.6l-7.3-25c-1.4-4.6-5.4-7-8.9-5.2l-19.3 9.6z"/><path class="st14" d="M-34.8 343.6c-14.2 7.2-21.2 27.9-15.8 46.3l19.1-9.6c3.5-1.7 5.4-7.1 4-11.6l-7.3-25.1z"/><path class="st14" d="m-34.8 343.6 7.3 25c1.4 4.6 5.4 7 9 5.2l19.1-9.6c-5.4-18.6-21.3-27.8-35.4-20.6z"/><path class="st14" d="M-15.1 410.3C-.9 403.1 6.1 382.5.7 364l-19.1 9.6c-3.5 1.7-5.4 7.1-4 11.6l7.3 25.1z"/><path class="st7" d="m-20.4 434.6 22.5-19.1h30.6zM-20.4 461.2l22.5 18.9h30.6z"/><path class="st14" d="M-44.4 580h10.6v55.3h-10.6zM-44.3 635.4h10.5l-36.4 156.5c-.2 1.1-2.1 1.7-3.1 1.7h0c-1.5 0-3.2-.9-2.9-2.3l31.9-155.9z"/><path class="st14" d="M-33.6 635.4h-10.8l86.7 160.2c1 1.1 2.2 1.8 3.7 2.1h0c1.3 0 2.4-1 2.5-2.3 0-.4-.1-.8-.3-1.2l-81.8-158.8z"/><path class="st14" d="M-44.4 635.4h10.2l-88.4 161.2c-.4.8-1.2 1.3-2.1 1.3h0c-1.3 0-2.4-1-2.5-2.3 0-.4.1-.8.3-1.2"/><ellipse class="st11" cx="-53.1" cy="797.7" rx="112.4" ry="6.4"/><path class="st14" d="M33.8 415.5V481l-40.7-13.4v-35z"/><path class="st14" d="M-103.3 418.4h96.6v59.8h-96.6zM-48.1 478.2h17.7v8h-17.7z"/><path class="st14" d="M-112 418.4h37.5v59.8H-112z"/><path class="st15" d="m153.1 697.5 22 99.8M106.8 697.5l-29.2 99.8"/><path class="st7" d="M314.6 698.8s20.2-35.2 37-38.3c16.8-3 17.6 10.4 4.9 24.8-8.7 10-16.8 20.5-24.4 31.4l-6.8 3.1 2.6 4.8s-4.5 13.3-12.4 12.1c-7.8-1.2-11.6-15.8-11.6-15.8M344.9 607.4c5.4-17.5-2.5-41.1 3.4-50.5 7.8-12.6 20-4 22 10.5s1 28.7-2.2 43.2c-1.6 2.4-3.5 4.6-5.2 7 1.5 1 3 1.6 4.4 2.6.2 5.6 1.1 14.2-4.9 17-5.9 2.8-13.5-2.1-17.7-6.3M152.7 697.6s-143.5 15.5 52.6 14.2c45.7-.3 54.3-14.2 54.3-14.2H152.7z"/><path class="st2" d="M116.8 567c-34.7 1.1-42-83.5-26.8-132.1-5.7-7.2-14.8-7.6-22.5-8.4-17.3 44.7-25.1 111.2 16.2 170.1 26 37.1 9.2-14.2 23-12"/><circle class="st7" cx="156.9" cy="524.8" r="3.8"/><path class="st15" d="m72.5 602.9 11.6 94.6h86.4"/><path class="st7" d="M84.1 697.6s6.9 13.6 52.6 13.6 54.3-13.6 54.3-13.6H84.1z"/><path class="st2" d="m104.7 680 112.6-30.9c6.2-1.7 12.8-1.2 18.6 1.5l77.6 36c6.8 2.6 9.3 10.5 5.8 17l-5.8 10.9c-3 5.4-10 7.6-15.8 5.4L217 687.7 144.5 712"/><path class="st2" d="M138.3 713.9c33.3 4.2 115.9-58.1 115.9-58.1l99.1-14.7c4-12.8 1.1-26.8-7.7-37l-94.4 11.6c-6.2.7-12 2.7-17.4 5.8l-69 40.2s-1.6 13.1-6.5 19.4c-4.9 6.3-49.2 7.6-60.9 4.4 0 0 7.7 36 28.5 25 .2 0 3.2 2.1 12.4 3.4z"/><path class="st2" d="M106.8 567.6c4.2-1.3 8.5-2.2 12.8-2.7 5.1-.6 10.2-.8 15.3-.8 27.5 0 32.3 27.2 35.7 53.4 6 46.8 6 62-7.2 71-8.5 5.8-57.9 7-66-3 0 0-11.7-37.1-13.8-76.6-.4-5.8 0-11.7 1.3-17.5"/><path class="st7" d="M185.8 657.4s-26.8 2.8-60.8 2.8c-21.7 0-45.9-2.8-45.9-2.8L72.6 603c14.8 1.7 29.6 2.6 44.5 2.7 32.6 0 62.3-2.7 62.3-2.7l6.4 54.4z"/><path class="st15" d="m179.3 602.9 11.6 94.6h86.4"/><path class="st2" d="M84.2 390.6s3-6.2 5.4-11c4.9-10 11-1.9 7.7 4.4-1.2 2.4-9.9 20.8-9.9 20.8"/><path class="st2" d="M89.6 410.6c3.9 1.2 1.1-8.9 7.7-6.5 5.3 1.8 5.8 14.9-11 18.9-4.3 1-1.1 7.3-1.1 7.3s-8.4 1.6-12.6-2.6l.3-4.4s-2.2-10.1-1.7-15.9c.9-10.9 8.7-7.5 13.1-17"/><path class="st2" d="M97.2 403.7 64 384.9l6.4-8.3 28.8 24z"/><path class="st2" d="M86.3 401.4s9.1-18.4 12.2-22.9 8.2-.2 6.8 4.4c-.8 2.5-15.6 27.9-15.6 27.9M198.2 551.2s-3.7-17 14.1-17.7c10.8-.3 15.6 6 15.2 11.4-.4 7.4-4.4 28.1-4.4 28.1s-3.4 9-17.2 3.6c-2.3-.9-4-3-4.4-5.4h0l-3.3-20z"/><path class="st2" d="M198.4 589.8s1.4-8.2-.6-10.5c-1.9-2.2-3.5-13.3 2.1-13.8l3 9.1s1.4.5 3.4 1c7.2 1.8 14.5-2.1 16.9-9.1.4-1.4 1.1-2.8 1.9-4 2.1-2.1 7.7 5.3 5.7 15.7-2 10.5-17.3 16.5-17.3 16.5"/><path class="st2" d="M141.8 564.7c55.1-3.5 57.2 60.4 57.6 77.6 0 0-.1-4.7-1.3-17.5-.5-6.4-1.7-12.8-3.6-19l2.3-16.8s25.5-2.1 24.7 9.1c-1.1 12.8-1.6 61.7-15.1 71.4-4 2.8-15.5 2.9-19.4-.7-20.3-18.6-29.2-77.8-29.2-77.8"/><path class="st9" d="m208.1 538.5-1.3-18.6c-.3-4.6-2.9-8.7-6.9-11l-9.3-5.4"/><ellipse transform="matrix(.9968 -.08037 .08037 .9968 -42.632 18.76)" class="st7" cx="211.7" cy="539" rx="6.4" ry="1.7"/><path class="st15" d="m202.1 697.5-20 99.8M259.5 697.5l22.1 99.8"/><path class="st2" d="M105.8 497.9s-7.3-51.3-6.4-66.1c1-14.9 16.3-18.2 18.9-5.7 1.5 7.1 4 76.4 4 76.4"/><path class="st2" d="m106.8 567.6 2.6-11.7s-16.6-22.5-16.5-37.3c0-21.1 16.1-24.4 28.7-24.9s35.3 26.4 35.3 36.9-6.8 14.4-15.1 21.7c-8.3 7.3 7.3 12.9 7.3 12.9s-14.5 9.2-42.3 2.4z"/><path class="st7" d="M90.5 507.3c-.7-2.8 2.8-15.9 7.8-20.9 12-11.7 47-7.2 50.3-2.6 6.5 8.9-25.2 8.4-33.6 14.7-6.9 5.3-22.2 17.9-24.5 8.8z"/><path class="st2" d="M118.2 501.7s2-51.8 10-72c6.6-16.8 27.1-14.2 22.3.6-8.7 27.2-15.2 73.6-15.2 73.6"/><path class="st9" d="M198.2 551.2s8.2 3.5 17 1.6"/><path d="M222 551.1c2.1-.7 4.1-2 5.4-3.8" style="fill:#4978bc;stroke:#010101;stroke-width:2.1409px;stroke-linecap:round;stroke-linejoin:round"/><path class="st2" d="m108.4 636.9-6 3.7.6-8.1-5.5-5.7 6.9-1.1 2.6-7.4 3.7 7.4 7 1.1-4.6 5.7 1.7 8.1z"/><ellipse class="st11" cx="171.5" cy="797.5" rx="140.6" ry="6.6"/><ellipse transform="rotate(-61.972 66.88 380.58)" cx="66.9" cy="380.6" rx="4.9" ry="3.5" style="fill:#010101;stroke:#010101;stroke-width:2.1327px;stroke-linecap:round;stroke-linejoin:round"/><path class="st11" d="M256.2 650.5c7.5-2.1 15.2-3.7 22.7-5.1 3.9-.8 7.6-1.4 11.4-2 3.9-.7 7.7-1.2 11.4-1.7 3.8-.5 7.7-1.1 11.5-1.5 3.9-.4 7.7-.9 11.6-1.2 7.7-.7 15.5-1.3 23.3-1.4.1 0 .2.1.2.2s-.1.2-.2.2l-46 6.6-46 6.3c-.1 0-.2-.1-.2-.2.2-.1.2-.2.3-.2zM119.6 701.7c2 1.7 4.3 3.1 6.8 4 1.2.4 2.5.7 3.7 1.1.7.2 1.2.2 1.9.3l1.9.2 3.9.2h1.9l1.9-.1c2.6-.2 5.2-.4 7.7-.9 1.3-.2 2.6-.4 4-.7 1.4-.2 2.6-.6 4-.9 2.6-.6 5.2-1.3 7.7-1.9 5.2-1.4 10.4-3 15.9-4.3v-.2c.1 0 .2.2.2.3s0 .2-.1.2c-4.9 2.4-10 4.4-15.2 6.3-5.2 1.9-10.5 3.3-15.9 4.3s-11 1-16.4.1c-2.7-.5-5.4-1.4-7.8-2.6-2.5-1.2-4.7-3-6.3-5.3-.1-.1 0-.2 0-.2.1 0 .2 0 .2.1z"/><path class="st11" d="M123.6 707.8c-1 .7-2.1 1.1-3.2 1.4-1.1.2-2.3.2-3.4-.1-2-.5-3.8-1.4-5.3-2.8-1.5-1.2-2.7-2.6-3.9-4.1-1.2-1.4-2.1-3-3-4.5 1.2 1.4 2.5 2.7 3.8 4s2.7 2.3 4.4 3.1c1.4.8 3 1.4 4.5 1.5 1.4.1 2.7-.5 3.7-1.5.7-.7 2-.7 2.7 0l.1.1c.7.8.7 2.1-.1 2.9-.1-.1-.1 0-.3 0zM214.4 682.4l84 33.8-80.1-35.9"/><path class="st2" d="M217.9 538.1c-.7 1.2-2.1 1.6-3.4 1-.7-.3-1.1-1-1.2-1.6-1-4.7-1.7-11-.4-16.1 2.6-9.2 5.8-4.1 5.8-4.1s5.8-20.3 12-20.1c6.2.2-3.5 16.8-3.5 16.8s6.3-1.5 3.8 4.4c-2.1 4.6-8.3 11.1-13.1 19.7z"/><path style="fill:none;stroke:#010101;stroke-width:4.9406px;stroke-linejoin:round" d="M-39 579v-99.3"/><ellipse class="st11" cx="619.6" cy="762.9" rx="229.3" ry="5.1"/><path class="st11" d="M400.4 668.4c.4-1.2.7-2.1 1.1-3 .4-.9.8-1.8 1.3-2.7.9-1.7 1.9-3.4 3-4.9 2.2-3 4.9-5.7 7.7-8 1.4-1.2 3-2.2 4.6-2.9.9-.3 1.9-.5 2.9-.5 1.1 0 2-.1 3 0 1.9.1 3.9-.2 5.7-.7l4.9-2.1c6.8-3 13.8-5.5 21.1-7.5 3.8-1.1 7.7-1.7 11.6-2.1 4-.4 8.2-.4 12.3 0 8.3.9 16.4 3.7 23.5 8.2 7.1 4.4 13.3 10.1 18.4 16.7 4.7 6.2 8.6 12.9 11.7 20 3 6.8 5.4 13.4 7.6 19.8 2.1 6.4 4.3 12.7 6.4 18.4 1.2 2.9 2.2 5.6 3.5 8.2 1.2 2.4 2.5 4.7 4 6.8 1.2 1.8 2.7 3.5 4.4 4.9 1.5 1.2 3.2 2.2 5 3 2.1.8 4.2 1.3 6.4 1.5.6.1 1.2.1 1.8.2h1.7c1.1 0 2.1-.1 3.2-.3 2-.3 3.9-.9 5.7-1.8 2-1.1 3.7-2.4 5.3-4 3.5-3.4 6.7-8.2 9.8-13.5s6.1-11.4 9.6-17.6c1.7-3.1 3.7-6.3 5.8-9.5 2.3-3.3 4.9-6.4 7.7-9.3 3.2-3.1 6.8-5.8 10.7-7.8 4-2.1 8.5-3.5 13-4.2 2.1-.3 4.4-.5 6.6-.4 1.1 0 2.1.1 3.2.1s2.2.2 3.3.4c4.5.7 9 2.1 13 4.4 3.9 2.1 7.4 4.9 10.4 8.2 2.7 3 5.2 6.3 7.2 9.8 3.5 6.3 6.7 12.8 9.2 19.5 2.6 6.3 4.9 12.4 7.4 17.8 2.6 5.4 5.7 10 9.1 12.4 1.6 1.2 3.6 2 5.6 2.4.2.1.6.1.8.2s.6.1.8.1c.6 0 1.2.1 1.6.1 3 .1 6.1-1.1 8.3-3.2 2-1.8 3.8-3.8 5.2-6.1 3.4-4.9 6.4-10.8 10.2-16.8 1.9-3.1 4-6.2 6.3-9.1 2.6-3.1 5.5-5.8 8.8-8.2 5.3-3.5 11.5-5.5 17.9-5.5h1.5c.6 0 1.2.1 1.7.1 3.6.3 7 1.6 10 3.6 1.8 1.2 3.5 2.6 4.9 4.3 2.6 2.9 4.8 6.1 6.6 9.5 3.5 6.4 5.9 12.8 8.5 18.9 1.3 3 2.6 6 4 8.7 1.2 2.6 2.8 4.9 4.6 7.2.7.8 1.6 1.5 2.5 2 .7.4 1.6.7 2.5.7 1.8.1 4.4-.9 6.8-2.5 2.6-1.6 4.9-3.6 7.1-5.8 2.3-2.2 4.4-4.6 6.5-7.1 1.5-1.7 4.1-2 5.9-.5 1.6 1.4 2 4 .7 5.7-2.1 2.8-4.3 5.4-6.7 8-2.5 2.7-5.2 5.2-8.1 7.3-1.6 1.2-3.4 2.2-5.2 3-2.1.9-4.3 1.5-6.6 1.6-2.5.1-4.9-.4-7.2-1.5-2.1-1-3.9-2.3-5.5-3.9-2.7-2.7-5-5.8-6.8-9.2-1.7-3.1-3.3-6.3-4.8-9.3-2.9-6.1-5.6-12.1-8.7-17.4-1.4-2.5-3.1-4.8-5.1-6.8-1.5-1.6-3.4-2.7-5.4-3.3-.4-.1-.9-.2-1.4-.2h-.7l-1 .1c-1.2.1-2.6.3-3.8.7-2.4.6-4.6 1.6-6.6 3.1-4 3-7.2 7.8-10.3 13.3-3 5.5-5.8 11.7-9.8 18-2.1 3.4-4.6 6.6-7.4 9.4-1.6 1.6-3.5 3-5.4 4.2-2.1 1.2-4.2 2.2-6.5 2.9-2.2.7-4.5 1.1-6.9 1.2-1.2.1-2.2.1-3.4 0-.6 0-1.2-.1-1.6-.1-.6 0-1.2-.1-1.6-.2-4.6-.7-9-2.3-12.9-4.8-3.6-2.4-6.8-5.4-9.5-8.8-2.4-3-4.5-6.3-6.3-9.7-3.5-6.5-6.2-12.8-8.9-18.9-2.7-6-5.4-11.7-8.4-16.4-1.4-2.2-3-4.3-4.9-6.2-1.6-1.6-3.4-3-5.4-4-1.9-.9-4-1.5-6-1.6-2.3-.2-4.6-.2-6.9.2-4.4.8-7.7 2.8-11.2 6.4s-6.4 8.5-9.4 13.9-5.7 11.6-9.1 17.9c-1.6 3.1-3.5 6.4-5.6 9.6-2.2 3.4-4.8 6.6-7.6 9.6-3.1 3.3-6.7 6-10.5 8.2-4 2.3-8.5 4-13.1 4.8-2.2.4-4.4.7-6.8.8-1.2.1-2.2.1-3.3.1-1.1 0-2.1 0-3.2-.1-4.5-.2-9-1.1-13.2-2.6-2.2-.8-4.4-1.7-6.5-2.9-2.1-1.2-4-2.5-5.8-4-3.5-2.8-6.7-6-9.3-9.6-2.4-3.3-4.5-6.8-6.4-10.3-1.7-3.5-3.3-6.8-4.6-10.2-2.7-6.7-4.9-13.2-7.2-19.3-2.2-6.2-4.4-12-7.1-17.4-2.3-5.1-5.3-9.9-8.7-14.3-3.1-4-7-7.3-11.3-10-4.4-2.5-8.9-4.5-13.7-6-2.6-.8-5.1-1.5-7.7-1.9-2.7-.5-5.5-.7-8.3-.8-5.9 0-11.8 1.1-17.4 3-1.5.5-2.9 1.1-4.3 1.6-1.4.8-2.6 2.1-3.4 3.5l-1.5 2.2c-.4.7-.9 1.3-1.5 1.8-1.2 1.1-2.6 1.5-4 2.1-2.9 1.2-5.9 2.1-9 2.9-1.6.4-3.3.7-4.9 1.1-.9.2-1.7.2-2.6.4-.9.2-1.9.2-2.8.2l-1.5-.1c-3.2-.2-5.7-2.9-5.5-6.1.3-.2.4-.8.6-1.4z"/><path class="st11" d="M849.6 742.3c-4.4.7-10.5-2-14.1-4.5 7.3.1 15-1.4 21.5-5.2-2 7.2-.9 14.9.9 22.1-3.7-3.1-7.5-7.6-8.3-12.4z"/><path class="st10" d="M503.4 648c4.4 3 8.5 6.7 11.9 10.8 3.5 4.2 6.4 8.8 8.9 13.6 2.5 4.8 4.7 9.7 6.6 14.8 1.9 5 3.6 10.2 5.3 15.2 1.6 5 3.3 10.2 5.2 15.1 1.7 4.9 4 9.6 6.8 14.1 2.6 4.4 6.4 8.1 10.8 10.7 2.3 1.2 4.8 2.2 7.3 2.7.7.2 1.3.2 1.9.4l2 .2 2 .2 2 .1c-2.7.4-5.4.4-8.1.2-5.5-.6-10.8-2.9-15-6.6-2.1-1.8-4-4-5.5-6.3-3.1-4.5-5.7-9.4-7.7-14.5-2.1-5-3.8-10.2-5.4-15.2-1.6-5-3.3-10.2-5-15.2s-3.7-10-5.8-14.7c-2.1-4.8-4.7-9.4-7.7-13.8-3-4.2-6.6-8.3-10.5-11.8zM666.9 680.6c3.8 1.7 7.2 4 10.1 7 3 2.9 5.5 6.2 7.6 9.7 4.4 7.1 7.3 14.7 10.3 22.2 1.5 3.8 2.9 7.4 4.4 11.1 1.5 3.6 3.3 7.1 5.4 10.4 2.1 3.3 4.9 6 8.1 8.2l.7.4.7.3 1.3.7c.9.4 1.8.7 2.7 1.2.9.3 1.9.7 2.9.8l3 .6c-1.1 0-2 .1-3 .1s-2.1-.2-3-.3c-1-.2-2-.4-3-.7l-1.5-.6-.7-.2-.7-.3-2.7-1.5c-.4-.3-.9-.6-1.3-.9l-1.2-1.1c-1.6-1.4-3-2.9-4.4-4.5-2.6-3.3-4.7-6.8-6.4-10.6-1.7-3.7-3.3-7.5-4.7-11.2-2.9-7.5-5.6-15.1-9.2-22-1.8-3.5-4-6.8-6.4-10-2.8-3.5-5.7-6.3-9-8.8z"/><path class="st19" d="M833.6 698.6c0 3-24.3 5.4-54.3 5.4-30.1 0-54.3-2.4-54.3-5.4h108.6zM824.9 698.6c0-24.6-20.3-44.5-45.5-44.5s-45.5 19.9-45.5 44.5h91zM785.1 649c0 2.8-2.6 5.1-5.7 5.1s-5.7-2.3-5.7-5.1h11.4zM705.6 671c0 3-24.3 5.4-54.3 5.4-30.1 0-54.3-2.4-54.3-5.4h108.6zM528.6 629.4c0 3-24.3 5.4-54.3 5.4-30.1 0-54.3-2.4-54.3-5.4h108.6z"/><path class="st20" d="m485.1 574.5 5.7-18.3M463.4 547.6l55.9 17.8-25.8-17.8z"/><path class="st19" d="M495.7 574.9c-.2-.1-.6-.2-1-.4 0-.1.1-.2.1-.3.7-2.6-.4-5.3-2.7-6.6-2.1-1.2-4.8-1.5-7.2-.8-.1-.2-.2-.6-.4-.8-.7-1.2-1.7-2.2-3-2.9-2.6-1.2-5.6-.9-8 .7-.5.3-2.6 2-2.3 2 0 0-2.6-1.4-3.5-1.6-2.9-1.1-6.1-.7-8.6 1.2-1 .7-1.8 1.6-2.6 2.6-.3.4-.7 1.3-1.2 1.5-.8.5-.3.1-1.2.2-3.5.5-6.3-.1-8.6 3-1.2 1.6-1.1 4.9-2.3 6-3 2.6-1 6.4 2.2 7.3.3.7.8 1.5 1.5 2 2.6 2.1 7 1.9 10.3 1.6 1.8-.2 3.6-.4 5.2-.6 2.2.2 4.4.6 6.8.7 1.9.1 3.8.2 5.7.2 1.8.2 3.6.2 5.4 0l7.8-.3c1.6 0 3.1-.9 4-2.3.9-.1 1.8-.3 2.6-.7 5.5-2.6 6-8.9 1-11.7z"/><path class="st19" d="M464.2 629.4c-31.2 0-34.7-8.4-36.8-22.4-2-13.8 12.7-27.9 12.7-27.9h61.8s7.7 12.5 8.3 31.4c11.6 10.5 6.3 17.7 0 14.2l1.6 4.6-47.6.1-.4-5.5s-6.4 3.8-9.9 1c-5.3-4.4 5.1-13.4 5.1-13.4"/><ellipse transform="rotate(-11.438 477.313 603.049)" class="st21" cx="477.3" cy="603" rx="5.6" ry="9.6"/><ellipse transform="rotate(-11.438 496.994 602.97)" class="st21" cx="497" cy="602.9" rx="5.6" ry="9.6"/><path class="st21" d="M486.9 619.8h8.1l-6.5-9.5z"/><path class="st20" d="m472.7 629.4-.5-5.5M478.8 629.4l-.5-5.5M484.9 629.4l-.5-5.5M491.1 629.4l-.7-5.5M497.2 629.4l-.6-5.5M503.3 629.4l-.6-5.5M454.3 579.1l-5.9-37.6c-.4-2.6-2.8-4.3-5.4-4-.2 0-.3.1-.6.1l-18.9 5.3"/><path class="st10" d="M475.2 594.5c1-.2 2 0 2.8.5.8.6 1.5 1.3 2 2.1 1.9 3.4 2.4 7.3 1.5 11.1-.2 1-.7 1.9-1.5 2.6-.4.3-.9.6-1.4.7-.5.1-1 .1-1.5 0 .4-.1.8-.2 1.2-.5.3-.2.6-.6.8-.9.4-.7.7-1.5.7-2.2.2-1.6.1-3.4-.2-5-.2-1.7-.6-3.4-1.2-4.9-.3-1.7-1.6-3-3.2-3.5zM495.1 594.5c1-.2 2 0 2.8.5.8.6 1.6 1.3 2.1 2.1 1.9 3.4 2.4 7.3 1.5 11.1-.2 1-.7 1.9-1.5 2.6-.4.3-.9.6-1.4.7-.5.1-1 .1-1.5 0 .4-.1.8-.3 1.2-.6.3-.2.6-.6.8-.9.4-.7.7-1.5.7-2.2.2-1.6.1-3.4-.2-5-.2-1.7-.6-3.4-1.2-4.9-.4-1.6-1.6-2.9-3.3-3.4z"/><path class="st19" d="M664.2 615c-3.7 0-7.4 1.2-10.5 3.2-3.1-2.1-6.8-3.2-10.5-3.2-11.7 0-21.2 9.3-21.2 25.9s17 28.8 24.8 28.8c2.6-.1 5.1-1.2 6.9-3.2 1.8 2 4.3 3.1 6.9 3.2 7.7 0 24.8-12.2 24.8-28.8-.1-16.6-9.5-25.9-21.2-25.9z"/><path class="st19" d="M657.1 598.4c-2.6 6.3-3.7 13-3.4 19.8 0 0-4.9-14.7-30.4-15.2 11.4 20.8 27.6 16.6 27.6 16.6"/><path class="st11" d="M655.5 663.1c1.5 1 3.2 1.3 4.9 1 1.6-.3 3.1-1 4.4-2 .7-.5 1.4-1 2-1.6.7-.6 1.3-1.2 1.9-1.7.6-.5 1.3-1.4 1.9-2 .6-.6 1.3-1.4 1.8-2 1.2-1.3 2.3-2.6 3.4-4.1l1.5-2.1c.4-.7.8-1.5 1.2-2.2.3-.8.7-1.6.9-2.4.2-.8.5-1.6.7-2.6.4-1.7.6-3.7 1-5.7l.3-.1c.3 1.9.5 3.9.6 5.8 0 2-.2 3.9-.8 5.8-1.2 3.7-3.3 7-6.1 9.8-1.3 1.4-2.7 2.7-4.2 4-1.4 1.3-3 2.5-4.7 3.4-1.7 1-3.6 1.5-5.6 1.5s-4-.9-5.2-2.5l.1-.3z"/><path class="st3" d="M812 182.5s3.4-19.5 3.4-25.9c0-6.4-9.9-3.6-10.6-11.8-.8-8.2 11.4-16.9 17.1-3.3 0 0 14-6.9 12.8 4.4-1.3 11.2-10 3.2-10.1 16.8-.2 13.6.3 18.8.3 18.8"/><path class="st22" d="M818.4 69.9c3.4 0 6.1 2.7 6.1 6.1 0 3.4-2.7 6.1-6.1 6.1-3.4 0-6.1-2.7-6.1-6.1h0"/><path class="st11" d="M819.8 82c0 2.1.1 4.4.2 6.6 0 1.2.2 2.1.2 3.3l.1 1.6.1.8v.4c0 .1 0 .2.1.3.2 1.5 1.4 2.7 3 4.2.9.8 1.6 1.6 2.5 2.5.5.5.9 1.1 1.3 1.6.4.7.7 1.3 1.1 2 .3.7.6 1.5.7 2.2.2.7.2 1.5.2 2.2 0 1.6-.2 3.2-.9 4.6-.7 1.6-1.6 3-3 4.1-1.3 1.2-3 1.8-4.7 2.1-1.6.2-3.4.1-4.9-.6-1.5-.6-2.8-1.6-3.7-2.9-.9-1.2-1.4-2.5-1.5-4-.2-1.2 0-2.6.5-3.8.7.9 1.5 1.6 2.3 2.5.7.6 1.4 1.1 2.2 1.4 1.2.4 2.4.4 3.5-.1.8-.4 1.6-1.1 1.9-1.9.2-.6.4-1.2.6-1.7.1-.3.1-.7.1-1v-1c-.1-1.4-1-3-2.2-4.9-.7-1.1-1.3-2.1-1.8-3.2-.7-1.2-1-2.6-1-4.1v-.9l.1-.8.1-1.6c.1-1.2.2-2.1.2-3.3.1-2.1.2-4.4.2-6.6.1-.7.7-1.3 1.5-1.3h.1c.7-.2 1.2.2 1.4.9-.5.3-.5.3-.5.4z"/><path class="st2" d="M799.9 252.7c18.3 5.2 19.4 37.9 35.4 45.9 7.8 4 13.2.2 16.5-4.7 1.8-3.9 2.9-8 3.2-12.3 3.1-31.7-17.6-58.9-23.6-79.4-6.5-22.1-6.5-22.1-7.8-21-4 .5-9.1 2.3-10.3.3-.2-.5-.8-.7-1.2-.4h0c-.2.2-.4.3-.5.7-1.9 6.9-6.8 22.6-13.6 32.5-6.1 8.6-15.4 26.9-16.7 44.1 2.4-4.3 7.8-8.7 18.6-5.7z"/><path class="st7" d="M835.3 298.6c-16-8-17.1-40.8-35.4-45.9-10.8-3-16.1 1.5-18.8 5.6-.7 8.3.6 16.4 4.9 23.1 13.5 20.1 36.3 23.6 36.3 23.6s20.8 5.9 29.3-11c-3.2 4.8-8.5 8.5-16.3 4.6z"/><ellipse transform="rotate(-53.209 804.528 289.344)" class="st2" cx="804.5" cy="289.3" rx="3" ry="10"/><path class="st11" d="M842.7 294.3c.8-.5 1.6-1.1 2.2-1.8.7-.7 1.2-1.5 1.6-2.3.9-1.6 1.5-3.4 1.7-5.2.2-1.9.3-3.7.2-5.6 0-1-.2-1.9-.2-2.9l-.3-2.9c-1.1-7.8-2.9-15.5-5.4-22.9-1.2-3.8-2.6-7.5-4-11.2l-4.3-11.3c-1.5-3.8-2.8-7.5-4.1-11.4-1.3-3.9-2.3-7.9-2.9-11.9l.3-.1c1.1 3.9 2.4 7.7 4 11.4 1.5 3.7 3.2 7.3 4.8 11.1 3.3 7.3 6.4 14.8 9.1 22.5s4.4 15.6 5.1 23.6c.2 4 .5 8.2-.7 12.1-.5 2-1.4 3.9-2.6 5.4-1.2 1.6-2.9 3-4.8 3.7l.3-.3z"/><path class="st9" d="m814.9 162.2 9.6 4.9-4.9-53.4-3.2 21.3M818.4 74.4c-5.7-2.1-10.5-4.8-.4-9v-64"/><path class="st2" d="M874.4 98.5c4.4-5 13.3 2.1 8.9 8.2-4.3 5.8-6.3 15.2-5.3 22.4 1 7.2-10 10.4-11.4 3.7-2.7-12.1-.5-25.1 7.8-34.3z"/><path class="st2" d="M867.7 139.8c3.1-6.5 14.1-2.4 11.2 5.1-2.7 7.2-1.4 16.2 2.6 22.6 4 6.4-5.1 14.3-9.5 8.6-7.8-10.3-10.1-24.4-4.3-36.3z"/><path class="st22" d="M882.8 53.2c3.4 0 6.1 2.6 6.1 6s-2.6 6.1-6 6.1-6.1-2.6-6.1-6v-.1"/><path class="st11" d="M884.2 65.4c0 2.1.1 4.4.2 6.6 0 1.2.2 2.1.2 3.3l.1 1.6.1.8v.4c0 .1 0 .2.1.3.2 1.5 1.4 2.7 3 4.2.9.8 1.6 1.6 2.5 2.5.5.5.9 1.1 1.3 1.6.4.7.7 1.3 1.1 2 .3.7.6 1.5.7 2.2.2.7.2 1.5.2 2.2 0 1.6-.2 3.2-.9 4.6-.7 1.6-1.6 3-3 4.1-1.3 1.2-3 1.8-4.7 2.1-1.6.2-3.4.1-4.9-.6-1.5-.6-2.7-1.6-3.7-2.9-.9-1.2-1.4-2.5-1.5-4-.2-1.2 0-2.6.5-3.8.7.9 1.5 1.6 2.3 2.5.7.6 1.4 1.1 2.2 1.4 1.2.4 2.4.4 3.5-.1.8-.4 1.6-1.1 1.9-1.9.2-.6.5-1.2.6-1.7.1-.3.1-.7.1-1s0-.7-.1-1c-.1-1.4-1-3-2.2-4.9-.7-1-1.3-2.1-1.8-3.2-.7-1.2-1-2.6-1-4.1v-.9l.1-.8.1-1.6c.1-1.2.2-2.1.2-3.3.1-2.1.2-4.4.2-6.6.1-.7.7-1.3 1.5-1.3h.1c.7-.2 1.2.2 1.4.9-.4.3-.4.3-.4.4z"/><path class="st2" d="M891.8 91.9c-7.4-3.5-13.1 7.9-5.6 11.4 7.1 3.4 11 12.2 8.1 19.6-3 7.6 8.3 13.2 11.4 5.6 5.5-13.7-.3-30.2-13.9-36.6z"/><path class="st2" d="M900.9 133.2c-5-6-13.8 1.7-9.1 8.6 4.5 6.5 6.3 15.7 2.7 23-3.5 7.3 5.5 14.6 9.8 7.7 7.7-12.5 5.9-28.1-3.4-39.3z"/><path class="st2" d="M900.6 177.2c-3.1-6.8-13.4-1.3-10.6 6.6 2.6 7.4 2.3 18.4-.3 25.9-2.6 7.5 7.2 14.1 10.2 7.2 5.4-12.6 6.4-27.4.7-39.7z"/><path class="st2" d="M904 218.6c-4.9-6.3-13.8.5-9.6 7.6 4 6.8 3 15.8-2 21.9s2.5 15.2 8.1 9.4c10-10.5 12.5-27.3 3.5-38.9z"/><path class="st2" d="M902.7 261.2c-5.2-6.3-15.2 1.6-10 7.9 4.9 6 4.8 15.8-1.1 21.2-5.8 5.4 1.9 15.6 7.9 10 11-10 12.8-27.4 3.2-39.1z"/><path class="st2" d="M902.3 303.9c-4-6.3-13.9-.1-10 7.4 3.7 7.2 3.7 17.1.8 24.8-2.9 7.7 7.1 14.3 10.3 7.4 6-12.5 6.2-27.9-1.1-39.6z"/><path class="st9" d="M883 57.7c-5.7-2.1-10.5-4.8-.4-9V1.6"/><path class="st3" d="M23.1 128.1c-15.8-7.5-35.2-2.6-43.6 13.3-2 3.9-3.2 8.1-3.5 12.4l-.4-.2C-40.3 146.2-59.6 151-68 167c-7.9 14.9-2.4 36.1 13.3 43.6 1.6.8 3.3 1.5 5 1.9-2.3 2.3-4.3 4.9-5.8 7.7-7.9 14.9-2.4 36.1 13.3 43.6 15.5 7.3 34.3 2.7 43.1-12.5 15.6 6.9 34.3 1.8 42.6-13.8 3.7-7.2 4.6-15.4 2.6-23.2 5.2-3 9.5-7.3 12.3-12.7 7.9-14.9 2.4-36.1-13.3-43.6-1.6-.8-3.5-1.5-5.2-2 0-11.3-6-22.8-16.8-27.9zM-90.6.5C-99 14.2-101 31.9-93.1 46.4c12.2 22.2 38.7 33 62.3 22.2C-18.1 90.3 8.6 100.4 32 88.9c10.5-5.1 18.7-14.6 23-25.5 8.8 1 17.6-.6 25.5-4.4 20.8-10.3 32.4-37 23.9-58.9M49.6 288.2c-7.2 3.7-10.7 12.1-7.3 19.6.8 1.8 2.1 3.5 3.6 4.7l-.2.1c-7.2 3.7-10.7 12.1-7.3 19.6 3.2 7.1 12.5 10.9 19.6 7.2.7-.4 1.4-.8 2.1-1.3.2 1.5.6 2.9 1.2 4.3 3.2 7.1 12.5 10.9 19.6 7.2 7.2-3.7 10.5-11.8 7.4-19.2 6.8-3.8 10.3-12 6.8-19.4-1.6-3.3-4.4-5.9-7.7-7.3.4-2.7 0-5.5-1.2-8-3.2-7.1-12.5-10.9-19.6-7.2-.7.4-1.5.8-2.1 1.4-4.1-3.2-10-4.2-14.9-1.7z"/></g></g></svg>